<svg width="24" height="24" viewBox="0 0 24 24" fill="none" xmlns="http://www.w3.org/2000/svg">
<path fill-rule="evenodd" clip-rule="evenodd" d="M18.769 2.71657C18.6155 3.12604 18.5003 3.43314 18.4363 3.61228C18.3084 3.97057 18.1292 4.1881 17.8989 4.29047C17.8093 4.16251 17.707 4.07294 17.6046 4.02175C17.5022 3.98337 17.2591 3.90659 16.888 3.80422C16.888 3.50992 16.9648 3.20282 17.1184 2.88292C17.3359 2.48625 17.5022 2.19194 17.6046 2C18.1036 2.07678 18.5003 2.3071 18.769 2.70378V2.71657ZM19.4088 10.4325C18.9994 11.8784 18.5899 13.3244 18.1804 14.7575C17.9117 15.6276 17.5534 16.3826 17.1184 17.048C16.6065 17.8413 16.0051 18.4044 15.3269 18.737C14.6871 18.9418 13.7147 19.0825 12.3711 19.1465C11.0403 19.2105 10.183 19.2745 9.78631 19.3384C11.3602 18.801 12.9469 18.2636 14.5208 17.739C15.3781 17.3167 16.0563 16.8177 16.5809 16.2418C17.2079 15.5509 17.6174 14.7191 17.8477 13.7338C17.5278 13.9386 17.2079 14.0409 16.9136 14.0409C16.7729 14.0409 16.6577 14.0282 16.5809 14.0026C16.4786 13.913 16.3762 13.8234 16.2738 13.721C16.1715 13.6187 16.0947 13.5035 16.0435 13.3756C16.0435 12.8381 16.1459 12.3007 16.3506 11.7889C16.5553 11.2642 16.8496 10.8804 17.2335 10.6116C17.3743 10.5349 17.5662 10.5861 17.7965 10.7524C18.0269 10.9187 18.2828 11.0979 18.5387 11.2898C18.6155 11.2898 18.6923 11.2386 18.7434 11.1363C18.8074 11.0339 18.833 10.8676 18.833 10.6372V10.2917C18.833 9.67754 18.7818 9.21689 18.6795 8.93538C18.5771 8.64108 18.4235 8.42355 18.2188 8.27C18.1932 7.89891 18.2316 7.56622 18.334 7.24632C18.4363 6.92643 18.6027 6.56814 18.833 6.15867C19.1145 6.55534 19.3193 6.96481 19.4472 7.37428C19.5752 7.79655 19.6264 8.2444 19.6264 8.73065C19.6264 9.21689 19.5496 9.7927 19.396 10.4709L19.4088 10.4325ZM13.8938 4.64875C13.382 4.64875 12.7933 4.76392 12.128 4.98145C11.6673 5.14779 11.0915 5.37812 10.4261 5.68522C9.59437 5.97953 8.94178 6.61932 8.44274 7.59181C8.09725 8.29558 7.81574 9.22969 7.61101 10.3813C7.68778 10.5861 7.81574 10.778 7.98209 10.9699C8.02047 11.0083 8.17403 11.1619 8.44274 11.405C7.75176 12.1983 7.22713 12.8253 6.85605 13.3116C6.30582 14.0409 5.84517 14.7191 5.49968 15.3333C5.39732 15.602 5.20538 16.0499 4.93666 16.6897C4.56558 17.6622 4.37364 18.4939 4.37364 19.1465C4.37364 19.5048 4.42483 19.8503 4.5144 20.1574C4.61676 20.4645 4.77031 20.7588 4.98784 21.0403C5.47409 21.373 5.99872 21.6161 6.53615 21.7697C7.07358 21.9232 7.6366 22 8.23801 22C8.58349 22 8.95458 21.9744 9.32566 21.936C10.0294 21.8337 10.7716 21.6545 11.5521 21.3986C12.1408 21.2067 12.8189 20.9379 13.6123 20.5925C13.4459 20.6052 12.691 20.7076 11.3602 20.9124C10.4005 21.0531 9.60717 21.1299 8.96737 21.1299C8.08445 21.1299 7.34229 20.9891 6.71529 20.7076C5.99872 20.3877 5.42291 19.8503 4.98784 19.1081C4.91107 18.8394 4.87268 18.5963 4.87268 18.366C4.87268 17.9181 5.01344 17.4319 5.29495 16.92C5.56366 16.5106 5.83238 16.1011 6.10109 15.7044C6.3698 15.3077 6.66411 14.8983 6.98401 14.4888C7.23993 14.1689 7.54703 13.7978 7.91811 13.3628L9.91427 11.2258C10.2981 10.8036 10.6436 10.4325 10.9379 10.0998C11.2322 9.77991 11.5266 9.42163 11.8464 9.05055C12.4862 8.2572 13.0109 7.46385 13.4587 6.65771C13.4587 6.47857 13.5355 6.26104 13.6507 5.97953C13.8426 5.49328 13.945 5.16059 13.945 4.96865V4.82789C13.945 4.82789 13.945 4.72553 13.9066 4.66155L13.8938 4.64875ZM12.9853 6.42738C12.0128 6.63212 11.2322 6.86245 10.6308 7.13116C9.83749 7.46385 9.13372 7.9245 8.51951 8.51312C8.46833 8.58989 8.44274 8.66667 8.44274 8.75624C8.44274 8.8714 8.49392 8.99936 8.5835 9.12732C8.71145 9.26807 8.80102 9.38324 8.85221 9.46001C8.96737 9.57518 9.12092 9.65195 9.31286 9.69034C9.5048 9.72873 9.70953 9.74152 9.93986 9.74152L12.9853 6.42738Z" fill="white"/>
</svg>
