<svg width="24" height="24" viewBox="0 0 24 24" fill="none" xmlns="http://www.w3.org/2000/svg">
<path fill-rule="evenodd" clip-rule="evenodd" d="M21.6351 10.4848C21.697 10.9425 21.7217 11.4496 21.7217 12.0309C21.7217 13.4409 21.5114 14.8139 21.0785 16.1249C20.757 17.0155 20.3612 17.7947 19.8912 18.4626C19.3222 19.2665 18.679 19.8602 17.9617 20.2437C16.9845 20.4416 15.9579 20.6518 14.8819 20.8745C13.8058 21.0971 12.8658 21.2084 12.0618 21.2084C13.1008 20.9239 14.0779 20.59 14.9932 20.1942C16.0816 19.7242 17.034 19.1923 17.8627 18.5986C18.9017 17.8565 19.6933 17.1144 20.2375 16.3723C20.9425 15.4075 21.3012 14.4181 21.3012 13.4038C21.3012 12.303 21.1528 11.2764 20.8559 10.3241C20.5591 9.37168 20.0891 8.51825 19.4583 7.75139C19.4211 8.07298 19.384 8.50588 19.3717 9.03773C19.3593 9.56958 19.3469 9.86642 19.3469 9.9159V12.7607C19.3098 13.1441 19.2727 13.4286 19.2604 13.6141H19.0872C19.0872 13.008 19.0625 12.167 19.013 11.1033C18.9635 10.0396 18.9388 9.37168 18.9388 9.0872C18.9388 8.41929 18.9759 7.7885 19.0377 7.19481C19.0996 6.60111 19.2109 6.03216 19.3717 5.50031C20.0148 6.10637 20.522 6.84849 20.9054 7.71429C21.2888 8.58009 21.5362 9.50773 21.6475 10.4972L21.6351 10.4848ZM16.6382 16.7062C16.4527 16.5826 16.2177 16.4712 15.9208 16.3599C15.624 16.261 15.3519 16.162 15.0798 16.0631C14.9561 16.1868 14.8077 16.3847 14.6592 16.6568C14.5727 16.7928 14.449 17.0155 14.2758 17.2999C14.214 17.5597 14.3871 17.7576 14.7829 17.9184C15.3643 18.141 15.6858 18.2894 15.76 18.3389C15.9579 18.0173 16.1558 17.6834 16.3537 17.337C16.4774 17.1144 16.5764 16.9041 16.6258 16.6939L16.6382 16.7062ZM17.7638 9.11194C16.2919 9.49536 15.4756 9.70563 15.3271 9.74274C14.5232 9.94063 13.7069 10.1014 12.9029 10.2127C13.6945 9.54484 14.35 8.8522 14.8819 8.12245C15.4014 7.3927 15.7848 6.60111 16.0322 5.73531C16.1187 5.41373 16.1558 5.10452 16.1558 4.82004C16.1558 4.3624 16.0693 3.86766 15.8837 3.33581C15.6982 2.90291 15.525 2.44527 15.3519 2C14.8819 2.53185 14.5108 3.2987 14.2263 4.27582C14.0161 5.12925 13.8058 5.97032 13.5832 6.82375L14.585 4.21398C14.7706 4.44898 14.919 4.73346 15.0427 5.05504C15.1664 5.37663 15.2282 5.69821 15.2282 6.01979C15.2282 6.31664 15.1787 6.57638 15.0798 6.82375C14.8448 7.08349 14.4737 7.46692 13.979 8.01113C13.274 8.79035 12.7545 9.45826 12.4329 10.0396L11.7526 11.8949C12.1732 11.8949 12.8905 11.7588 13.8924 11.4743C14.8942 11.2022 15.6487 11.0662 16.1435 11.0662C15.055 12.3278 14.1027 13.1812 13.3111 13.6388C12.5937 14.0346 11.8887 14.2325 11.1713 14.2325H10.8126C10.5652 14.1336 10.3302 13.8738 10.1076 13.4657C9.99629 13.2554 9.81076 12.9091 9.55102 12.4515L9.21707 14.282C9.27891 14.4181 9.42733 14.7273 9.66234 15.1973C9.99629 15.8528 10.1694 16.3599 10.1694 16.731C9.94681 17.4236 9.53865 18.0668 8.9697 18.6729C8.40074 19.2789 7.76994 19.6994 7.08967 19.9592C6.80519 20.0581 6.52071 20.1076 6.22387 20.1076C5.72912 20.1076 5.25912 19.9715 4.80148 19.6994C4.34384 19.4273 3.93568 19.0563 3.55225 18.611C3.23067 18.24 2.9833 17.8689 2.83488 17.4978C2.68645 17.1268 2.61224 16.7557 2.61224 16.4094C2.61224 16.2733 2.62461 16.0878 2.66172 15.8528C2.69882 15.6302 2.81014 15.3333 3.00804 14.9623C3.16883 14.6902 3.40383 14.3562 3.72541 13.9481C4.31911 13.2801 4.92517 12.6122 5.53123 11.9567C5.86518 11.5609 6.14966 11.1899 6.37229 10.8683C6.59493 10.5343 6.74335 10.188 6.82993 9.84168C6.79282 9.90353 6.65677 10.1385 6.4465 10.5591C6.31045 10.8312 6.16203 11.0414 6.02597 11.2146C5.45702 11.598 4.9499 12.0062 4.4799 12.4515C4.02226 12.8967 3.6141 13.3791 3.28015 13.8862C2.61224 14.9252 2.27829 16.1249 2.27829 17.4978C2.27829 18.475 2.53803 19.3655 3.06988 20.1818C3.60173 20.9982 4.30674 21.5671 5.20964 21.8887C5.43228 21.9629 5.71676 22 6.03834 22C6.69387 22 7.26283 21.8516 7.75757 21.5547C8.25232 21.2579 8.68522 20.8745 9.06864 20.4168C9.4397 19.9592 9.77365 19.4397 10.0581 18.8584C10.3179 18.2771 10.5034 17.7081 10.6271 17.1391C10.7508 16.5702 10.8126 16.0012 10.8126 15.4447L12.2103 15.7168C12.8905 15.457 13.5213 15.086 14.1027 14.5912C14.6098 14.1583 15.1169 13.6141 15.6116 12.9586C16.0074 12.4143 16.4156 11.7836 16.8237 11.0414C17.1206 10.4972 17.4422 9.86642 17.7761 9.14905L17.7638 9.11194ZM7.93073 15.457L7.04019 17.102C6.81756 16.966 6.59493 16.8176 6.39703 16.6939C6.18676 16.5578 5.93939 16.4218 5.64255 16.2857C5.71676 15.9889 5.82807 15.7044 6.00123 15.4323C6.11255 15.2468 6.31045 14.9994 6.57019 14.6902L7.93073 15.4818V15.457Z" fill="white"/>
</svg>
