<svg width="24" height="24" viewBox="0 0 24 24" fill="none" xmlns="http://www.w3.org/2000/svg">
<path fill-rule="evenodd" clip-rule="evenodd" d="M16.3755 7.2318C16.4383 7.29464 16.4698 7.36534 16.4698 7.45175C16.4698 7.52245 16.4462 7.61672 16.4069 7.75026C16.3676 7.87595 16.3441 7.96235 16.3441 8.00948C16.1163 8.09589 15.9513 8.15875 15.8335 8.19803C15.6057 8.28444 15.425 8.3237 15.315 8.3237C15.2286 8.3237 15.1579 8.30013 15.0951 8.253C15.1343 7.87594 15.1658 7.65599 15.1815 7.59314C15.1972 7.5303 15.26 7.46746 15.3464 7.39676C15.3229 7.56172 15.3071 7.71883 15.2914 7.88379C15.3621 7.90736 15.4328 7.91522 15.5114 7.91522C15.6371 7.91522 15.7156 7.86809 15.7392 7.77383C15.7549 7.64814 15.7706 7.55387 15.7942 7.47532C15.8178 7.40462 15.8492 7.34962 15.8963 7.3182V7.75026C15.9434 7.77383 15.9906 7.78169 16.0377 7.78169C16.1555 7.78169 16.2341 7.73454 16.2734 7.64028C16.2498 7.48317 16.2812 7.34962 16.3755 7.22394V7.2318ZM21.9372 12.4007C21.8743 12.8877 21.7722 13.3669 21.6308 13.8304C21.4894 14.2939 21.3087 14.7495 21.0888 15.1815C20.8845 15.755 20.5467 16.187 20.0597 16.4777C19.6591 16.7212 19.1406 16.8704 18.4965 16.9411C18.143 16.9804 17.5695 16.9961 16.7683 16.9961C17.8366 16.7055 18.7557 16.2891 19.5334 15.7471C20.5703 15.0401 21.2223 14.1996 21.5051 13.2412C21.5758 13.0527 21.6229 12.8642 21.6544 12.6678C21.6858 12.4714 21.7015 12.275 21.7015 12.0708C21.7015 11.5916 21.6151 11.1124 21.4501 10.6411C21.2773 10.1697 21.0495 9.71412 20.7667 9.28993C20.7274 9.612 20.6881 10.2561 20.6567 11.2067C20.6253 12.1572 20.586 12.8406 20.5467 13.2412C20.4289 12.7856 20.3739 12.2514 20.3739 11.6466C20.3739 11.3481 20.3896 10.9631 20.4211 10.4997C20.4918 9.4549 20.5232 8.8029 20.5232 8.54367C20.5389 8.40227 20.5625 8.26085 20.586 8.10374C20.6096 7.94664 20.6724 7.86024 20.7667 7.82882C21.1909 8.31586 21.5051 8.85788 21.7015 9.47061C21.8979 10.0833 22 10.7196 22 11.4109C22 11.7487 21.9764 12.0865 21.9293 12.4085L21.9372 12.4007ZM16.3912 9.78482L15.9042 10.806C15.7785 10.7118 15.6292 10.6254 15.4643 10.5389C15.2993 10.4525 15.1736 10.3897 15.0951 10.3426C15.205 10.0283 15.2679 9.85552 15.2836 9.83195C15.3621 9.65913 15.4564 9.50202 15.5821 9.36062C15.7392 9.36062 15.8806 9.3999 16.022 9.48631C16.1005 9.53345 16.2262 9.63557 16.3912 9.78482ZM18.7164 12.0472C18.8342 11.513 18.8892 10.971 18.8892 10.4133C18.8892 9.70626 18.7871 9.01499 18.5829 8.33942C18.3786 7.66385 18.088 7.08254 17.7109 6.58765C17.6088 7.21608 17.5067 7.87596 17.3967 8.56724C17.2867 9.25852 17.2317 9.85552 17.2317 10.3426C17.2317 10.7667 17.271 11.1595 17.3496 11.513C17.4124 10.9553 17.4831 10.3583 17.5617 9.72199C17.6402 9.0857 17.7109 8.56724 17.7816 8.17446C18.0566 8.58295 18.2608 9.08568 18.3865 9.6827C18.4493 9.97335 18.52 10.5311 18.6064 11.3638C18.52 11.513 18.4022 11.6466 18.2608 11.7723C18.1744 11.843 18.088 11.9058 18.0094 11.9686C17.4438 12.1729 16.9725 12.5107 16.5876 12.9898C16.2027 13.469 15.9592 14.0189 15.8492 14.6159C15.5507 15.3858 14.9851 16.0142 14.1603 16.4934C13.5397 16.8547 12.7463 17.1454 11.7722 17.3653C12.5342 17.3653 13.0841 17.3575 13.4061 17.3339C14.0189 17.2868 14.5295 17.1925 14.9379 17.0433C15.37 16.7526 15.6999 16.3284 15.9356 15.7785C15.9906 15.645 16.1477 15.1422 16.3991 14.2703C16.454 14.1839 17.0039 13.7675 18.0566 13.0213C18.4258 12.762 18.6536 12.4321 18.7321 12.0472H18.7164ZM11.4737 9.6827L11.0181 10.7039L10.1854 10.4054C10.2247 10.2012 10.2875 10.0126 10.3661 9.83982C10.4446 9.65914 10.5546 9.50203 10.696 9.36849C10.8138 9.39205 10.9395 9.43917 11.0731 9.50202C11.2066 9.56486 11.3401 9.62772 11.4737 9.69056V9.6827ZM13.9874 10.6096C13.9874 11.4659 13.791 12.22 13.4061 12.8799C13.2569 13.0606 12.9427 13.2648 12.4556 13.4926C12.0393 13.6968 11.7722 13.9404 11.6701 14.2232C11.4737 15.0637 11.293 15.6607 11.1123 16.0064C10.7903 16.6427 10.3268 17.0354 9.72192 17.2004C9.38413 17.2554 9.07777 17.2946 8.81068 17.3182C8.5436 17.3418 8.27651 17.3575 8.01728 17.3575C7.60094 17.3575 7.14533 17.3182 6.65829 17.2318C7.3967 17.1061 8.02514 16.9569 8.53574 16.7762C9.23488 16.5327 9.80833 16.2184 10.2404 15.8492C10.7588 15.4015 11.1045 14.8516 11.2852 14.1917C11.2852 13.6733 11.4658 13.2177 11.8193 12.8249C12.1257 12.4871 12.5499 12.2122 13.0919 12.0001C13.2883 11.8351 13.4218 11.6544 13.5004 11.458C13.5789 11.2617 13.6182 11.0417 13.6182 10.7903C13.6182 10.4604 13.5397 10.0833 13.3904 9.65913C13.2412 9.23494 13.0919 8.84217 12.9584 8.45725C12.8484 9.4706 12.7384 10.484 12.6363 11.4895C12.542 11.0574 12.4949 10.6096 12.4949 10.154C12.4949 9.65128 12.542 9.08569 12.6363 8.46511C12.6363 8.4494 12.7306 7.90736 12.9269 6.83116C13.2412 7.32606 13.5004 7.90737 13.6889 8.58294C13.8853 9.25851 13.9796 9.92621 13.9796 10.5861L13.9874 10.6096ZM5.61351 8.48082C5.58209 8.69291 5.55067 8.89715 5.51925 9.09354C5.46426 9.34491 5.35428 9.50988 5.19717 9.58057L3.99529 9.79269C3.99529 9.79269 3.98743 9.69055 3.98743 9.60414C3.98743 9.28207 4.05813 8.99142 4.19953 8.7479C4.63158 8.63007 5.11076 8.54366 5.62137 8.48082H5.61351ZM8.93637 11.6937C8.93637 10.8296 8.83425 9.99693 8.63001 9.20353C8.42577 8.41013 8.1194 7.71098 7.71092 7.10611C7.61665 7.68741 7.56167 8.23731 7.54596 8.76362C7.53024 9.28994 7.51453 9.99692 7.51453 10.8924V12.4792C7.60094 12.3536 7.64808 12.1729 7.65593 11.9294C7.66379 11.6859 7.67164 11.4266 7.67164 11.1438V10.264C7.67164 9.97334 7.67164 9.67486 7.69521 9.37635C7.71092 9.07784 7.73449 8.8186 7.77376 8.60651C8.05656 9.2428 8.2608 9.75341 8.38649 10.1619C8.59073 10.7903 8.685 11.3481 8.685 11.8508C8.685 12.1965 8.63001 12.5342 8.52003 12.8642C8.41006 13.1941 8.22938 13.4847 7.99372 13.7361C7.88374 13.8461 7.78947 13.9168 7.70306 13.9639C7.61665 14.0032 7.52239 14.0268 7.42812 14.0268C7.24745 14.0268 7.05106 13.9247 6.83896 13.7126C6.33621 13.2334 6.022 12.982 5.90416 12.9584C5.56638 13.1705 5.22074 13.8775 4.8751 15.0794C4.71013 15.6371 4.4509 16.0299 4.09741 16.2577C4.011 16.2891 3.92459 16.3048 3.84603 16.3048C3.68892 16.3048 3.53967 16.2499 3.38256 16.1478C3.22545 16.0456 3.08405 15.9435 2.94266 15.8492C2.69128 15.5822 2.49489 15.3229 2.37706 15.0794C2.25137 14.8359 2.18853 14.6002 2.18853 14.3803C2.18853 14.231 2.2121 14.0896 2.25923 13.9482C2.38492 13.5633 2.69128 13.1548 3.17046 12.7306C3.62608 12.3771 4.08955 12.0158 4.55302 11.6544C4.86724 11.4031 5.11076 11.1831 5.28358 11.0024C5.51139 10.7667 5.66064 10.5311 5.74705 10.2954C5.53496 10.6332 5.18146 10.9631 4.67871 11.2774C3.87745 11.7723 3.46112 12.0315 3.43755 12.055C3.11548 12.3064 2.8641 12.5499 2.68342 12.7699C2.47133 13.0213 2.31422 13.3041 2.2121 13.6183C2.0707 14.0032 2 14.4038 2 14.8202C2 15.1423 2.03928 15.4879 2.12569 15.8414C2.21995 16.1792 2.41634 16.5012 2.7227 16.8076C3.02907 17.114 3.35114 17.3182 3.68892 17.4125C4.43519 17.4125 4.90652 16.9176 5.10291 15.9278C5.24431 15.213 5.35428 14.773 5.43284 14.6081C5.51139 14.4431 5.5978 14.3174 5.68421 14.231C5.77062 14.1446 5.85703 14.0975 5.94344 14.0975C6.06913 14.0975 6.27337 14.2781 6.56402 14.6474C6.85467 15.0166 7.1139 15.1972 7.33386 15.1972C7.40456 15.1972 7.47526 15.1894 7.54596 15.1658C7.72663 15.1187 7.8916 15.0401 8.04085 14.9144C8.1901 14.7966 8.30793 14.6552 8.38649 14.506C8.7557 13.5947 8.94423 12.6521 8.94423 11.6701L8.93637 11.6937Z" fill="white"/>
</svg>
