<svg width="24" height="24" viewBox="0 0 24 24" fill="none" xmlns="http://www.w3.org/2000/svg">
<path fill-rule="evenodd" clip-rule="evenodd" d="M16.8926 7.81103C16.9455 7.86389 16.9719 7.93657 16.9719 8.01585C16.9719 8.06871 16.9521 8.15461 16.9125 8.26693C16.8728 8.37925 16.853 8.46515 16.853 8.51801C16.7869 8.53122 16.6217 8.6039 16.3641 8.72283C16.2517 8.77569 16.1592 8.80211 16.0799 8.80211C16.0469 8.80211 15.9941 8.79551 15.9214 8.78229C15.8751 8.6964 15.8553 8.60389 15.8553 8.50478C15.8553 8.44532 15.8619 8.37264 15.8751 8.29996C15.8883 8.22067 15.9082 8.15461 15.9214 8.10175H15.9808L16.0007 8.4387C16.0469 8.46513 16.0866 8.47175 16.1262 8.47175C16.1791 8.47175 16.2319 8.45193 16.2848 8.41229C16.3376 8.37265 16.3773 8.31978 16.3971 8.2537C16.3971 8.06209 16.4433 7.92336 16.5358 7.83747V8.24711C16.5755 8.26693 16.6019 8.28014 16.6283 8.28014C16.6878 8.28014 16.7539 8.24711 16.8332 8.18765C16.7935 8.148 16.7737 8.11496 16.7737 8.07532C16.7737 8.04228 16.7935 8.00264 16.8332 7.93657C16.8728 7.87711 16.8926 7.83084 16.8926 7.79781V7.81103ZM22 11.293C22 10.7248 21.9009 10.1764 21.6961 9.64783C21.4979 9.11926 21.2203 8.66336 20.8636 8.28675C20.7446 8.86158 20.6521 9.39675 20.5927 9.88568C20.5332 10.3746 20.5002 10.8702 20.5002 11.3723C20.5002 11.9273 20.5398 12.4295 20.6257 12.892H20.672C20.672 12.3304 20.6918 11.7687 20.7314 11.2005C20.7711 10.6323 20.8305 10.0839 20.9098 9.54212C21.1741 9.96498 21.3723 10.3482 21.5111 10.6984C21.6829 11.1477 21.7687 11.5771 21.7687 11.9934C21.7687 12.0991 21.7687 12.1916 21.7555 12.2643C21.7489 12.337 21.7357 12.4163 21.7225 12.5021C21.63 13.0704 21.4186 13.5857 21.075 14.0482C20.7711 14.4645 20.368 14.8477 19.8725 15.1913C19.4562 15.4886 18.9607 15.7661 18.3859 16.0304C17.9828 16.2088 17.4939 16.4136 16.9191 16.6317C16.9521 16.6317 17.1437 16.6515 17.5005 16.6845C17.593 16.6911 17.7053 16.6977 17.8441 16.6977C18.0357 16.6977 18.1943 16.6779 18.333 16.6317C18.9805 16.6317 19.5884 16.4334 20.15 16.037C20.7116 15.6406 21.1278 15.1318 21.412 14.524C21.6168 14.0548 21.7687 13.5527 21.8612 13.0109C21.9538 12.4691 22 11.8943 22 11.293ZM19.1721 12.3568C19.3175 11.9273 19.3902 11.478 19.3902 11.0089C19.3902 10.4407 19.291 9.87909 19.0928 9.32409C18.8946 8.76908 18.6303 8.26032 18.2868 7.81103C18.0687 8.84836 17.9564 9.81962 17.9564 10.7248C17.9564 11.1411 17.9762 11.5639 18.0225 11.9868C18.1282 11.0486 18.2339 10.1103 18.3396 9.15891C18.5709 9.58177 18.7493 9.97159 18.8616 10.3152C19.0069 10.7512 19.0796 11.1873 19.0796 11.6168C18.9012 12.403 18.4189 13.11 17.6525 13.7245C16.9917 14.253 16.2385 14.6363 15.3862 14.8675C15.6835 14.6032 15.9412 14.3257 16.1592 14.035C16.3773 13.7443 16.5623 13.4404 16.7076 13.1166C16.853 12.7929 16.9587 12.4691 17.0116 12.1255C17.071 11.7886 17.0975 11.4252 17.0975 11.0419C16.5953 11.0419 16.1328 11.1543 15.7033 11.3855C15.2739 11.6168 14.9369 11.9537 14.6924 12.3898C14.6924 12.1586 14.7123 11.8216 14.7585 11.3921C14.8576 10.4605 14.9039 9.87247 14.9039 9.63461C14.9039 9.11924 14.8312 8.65014 14.6858 8.22068C14.5405 7.79121 14.3092 7.43441 13.9921 7.13708C13.8005 7.81102 13.6617 8.49158 13.5758 9.17873C13.4899 9.86588 13.4437 10.5993 13.4437 11.3657C13.4833 11.0287 13.5362 10.5464 13.6089 9.91873C13.6815 9.29765 13.7674 8.76908 13.8665 8.33301C14.1176 8.8748 14.2828 9.5289 14.3687 10.2821C14.4215 10.7644 14.448 11.4648 14.448 12.3898C14.4017 12.8127 14.3356 13.2289 14.2564 13.6386C14.1705 14.0482 14.0846 14.438 13.9855 14.8014C13.9128 14.8345 13.8335 14.8609 13.7608 14.8873C13.6881 14.9138 13.6155 14.927 13.556 14.927H13.5097C13.5097 14.927 13.4635 14.927 13.4305 14.9138C13.153 14.9336 12.8887 14.8543 12.6442 14.6693C12.3997 14.4843 12.2081 14.2531 12.0694 13.9822C11.9504 13.5659 11.8579 13.1298 11.7985 12.6805C11.739 12.2246 11.706 11.5573 11.706 10.6719C11.706 10.0377 11.6862 9.4364 11.6531 8.86158C11.6201 8.29336 11.554 7.7846 11.4549 7.33531C11.3426 7.44764 11.2567 7.60621 11.2038 7.81103C11.1708 7.99603 11.1444 8.17443 11.1113 8.35283C11.2369 10.15 11.369 11.9471 11.4945 13.7443C11.5474 14.2596 11.6663 14.6957 11.8447 15.0459C12.0694 15.4952 12.3997 15.7859 12.8226 15.9181C12.9746 15.9643 13.1199 15.9841 13.2653 15.9841C13.5097 15.9841 13.7476 15.9313 13.9921 15.8256C14.1639 15.7529 14.3885 15.6207 14.6528 15.4423C14.8774 15.3036 15.4787 15.145 16.4433 14.9666C16.8662 14.8807 17.2098 14.7684 17.4741 14.6164C17.9035 14.4116 18.2735 14.0879 18.5775 13.6518C18.8484 13.2686 19.0466 12.8259 19.1655 12.337L19.1721 12.3568ZM5.69343 7.52031C5.69343 7.68549 5.64718 7.8837 5.54807 8.10834C5.482 8.26692 5.43574 8.38585 5.40932 8.45853C4.94681 8.54442 4.49092 8.62372 4.03502 8.6964C4.0218 8.518 4.03502 8.33961 4.09448 8.16121C4.14734 7.98943 4.23323 7.83085 4.35216 7.6987L5.69343 7.52031ZM10.2656 12.9646C10.0145 13.2355 9.77668 13.6386 9.55203 14.1672C9.43971 14.4381 9.32739 14.7089 9.22167 14.9732C9.04988 15.3697 8.85827 15.6736 8.65345 15.9049C8.38916 16.2022 8.07202 16.4202 7.70201 16.5656C7.33201 16.7109 6.87611 16.7968 6.34093 16.8431C6.12289 16.8563 5.667 16.8629 4.96663 16.8629C5.86521 16.625 6.61183 16.3343 7.19987 15.9841C7.97291 15.5282 8.54774 14.9534 8.92435 14.2596C9.03006 14.1143 9.20185 13.698 9.44632 13.0109C9.63793 12.4823 9.90882 12.1255 10.2656 11.9471C10.3053 12.033 10.3251 12.1454 10.3251 12.2907C10.3251 12.3898 10.3185 12.522 10.2986 12.6805C10.2788 12.8457 10.2722 12.9382 10.2722 12.9713L10.2656 12.9646ZM7.19326 11.3327C7.10076 11.0618 6.98844 10.8371 6.84308 10.6653C6.65147 10.4407 6.44004 10.3218 6.19557 10.3218C5.97093 10.5134 5.79914 10.7446 5.69343 11.0287C5.5811 11.3128 5.52825 11.63 5.52825 11.9736C5.53485 11.9868 5.5811 12.0727 5.667 12.2246C5.71985 12.3237 5.77932 12.3832 5.852 12.403C5.92468 12.4228 6.00396 12.4361 6.08325 12.4361C6.34754 12.4361 6.55897 12.337 6.71754 12.1387C6.86951 12.3898 6.94219 12.6607 6.94219 12.958C6.94219 13.2752 6.8629 13.5923 6.71094 13.9095C6.55897 14.2266 6.35415 14.5239 6.11629 14.8081C5.64718 15.3432 5.06574 15.6141 4.37859 15.6141C4.33895 15.6141 4.2927 15.6141 4.23984 15.6141C4.18038 15.6141 4.1143 15.6075 4.04163 15.5943C3.65841 15.5282 3.32805 15.2904 3.05715 14.894C2.93162 14.7023 2.74001 14.3389 2.50215 13.7905C2.44929 13.6121 2.42286 13.4205 2.42286 13.2223C2.42286 13.0638 2.44268 12.9052 2.48233 12.7532C2.52197 12.6012 2.56822 12.4493 2.62768 12.3039C2.72018 12.1057 2.85233 11.9009 3.02412 11.6828C3.14965 11.5243 3.32144 11.3327 3.52626 11.1146C3.70466 10.9362 3.89627 10.7446 4.08127 10.5596C4.31252 10.3284 4.49092 10.1368 4.61645 9.9914C4.80806 9.76015 4.95342 9.54211 5.06574 9.3505C5.17806 9.15889 5.25735 8.94085 5.31021 8.7096C5.08556 9.06639 4.80145 9.40998 4.45788 9.75355C4.28609 9.94516 4.12091 10.1103 3.95573 10.2623C3.79716 10.4143 3.63198 10.5662 3.4668 10.7248C3.24215 10.9825 3.09019 11.1543 3.0109 11.2336C2.84572 11.4318 2.70697 11.6036 2.60126 11.7555C2.47572 11.9471 2.3634 12.1388 2.2709 12.337C2.17839 12.5352 2.11232 12.7532 2.06607 12.9779C2.01982 13.2025 2 13.4338 2 13.6584C2 14.1936 2.10572 14.6957 2.32375 15.1582C2.54179 15.6207 2.85894 16.0238 3.2818 16.374C3.43376 16.4863 3.58573 16.5656 3.7443 16.6184C3.90287 16.6647 4.08788 16.6911 4.28609 16.6911C4.4777 16.6911 4.66931 16.6713 4.86092 16.625C5.05253 16.5788 5.23753 16.5259 5.40932 16.4532C5.81236 16.1757 6.14932 15.8388 6.42022 15.4423C6.69111 15.0459 6.90254 14.623 7.0413 14.1605C7.12719 13.8896 7.18665 13.6055 7.2329 13.3214C7.27915 13.0373 7.29898 12.7532 7.29898 12.4691C7.29898 12.3039 7.28576 12.1123 7.26594 11.8943C7.24612 11.6762 7.21969 11.4846 7.18665 11.3195L7.19326 11.3327ZM16.7803 12.0925C16.5292 12.6012 16.1923 13.0836 15.7694 13.5461C15.3069 14.035 14.8378 14.3984 14.3621 14.6363C14.4017 14.187 14.4876 13.8038 14.633 13.48C14.8114 13.0637 15.0823 12.7466 15.439 12.5286C15.9412 12.3105 16.2055 12.1916 16.2451 12.1784C16.4169 12.1255 16.5953 12.0991 16.7803 12.0991V12.0925Z" fill="white"/>
</svg>
