<svg width="24" height="24" viewBox="0 0 24 24" fill="none" xmlns="http://www.w3.org/2000/svg">
<path fill-rule="evenodd" clip-rule="evenodd" d="M18.5122 8.622C18.5328 8.64946 18.5396 8.68722 18.5259 8.73185C18.5122 8.77991 18.4916 8.81767 18.4641 8.852L18.3646 8.95155C18.3543 8.91723 18.3337 8.90349 18.3062 8.90349C18.2685 8.90349 18.2307 8.92409 18.1998 8.96872L18.1346 9.04424C18.1552 9.06484 18.2238 9.1026 18.3337 9.15066C18.4435 9.19872 18.4985 9.25365 18.4985 9.31544C18.4985 9.34977 18.4882 9.38753 18.4641 9.43216C18.4023 9.57634 18.2993 9.69306 18.1517 9.78575C18.035 9.85784 17.8908 9.91276 17.7158 9.95052L17.6746 9.8853C17.8737 9.75828 18.0728 9.63127 18.2753 9.49738C18.2547 9.46992 18.1929 9.44246 18.0934 9.41156C17.9938 9.38066 17.932 9.33604 17.9046 9.27425C17.987 9.0717 18.0556 8.93096 18.1105 8.85543C18.2204 8.70095 18.3543 8.62543 18.5156 8.62543L18.5122 8.622ZM21.9485 10.081C21.8833 9.66216 21.7734 9.27768 21.619 8.92409C21.4645 8.5705 21.2585 8.26154 21.001 7.99721C20.9461 8.3096 20.9049 8.62543 20.874 8.94126C20.8431 9.25708 20.8294 9.56261 20.8294 9.86127C20.8294 10.3831 20.8774 10.8637 20.977 11.3031C20.977 11.2001 20.9839 10.8602 20.9976 10.2904C21.0113 9.72052 21.0182 9.26395 21.0182 8.92409C21.3031 9.27425 21.516 9.67933 21.6533 10.1359C21.7734 10.541 21.8352 10.9941 21.8352 11.4885C21.7322 11.8249 21.5743 12.1476 21.3615 12.46C21.1486 12.7724 20.898 13.0642 20.6028 13.3319C20.3076 13.5997 19.9952 13.8194 19.6588 13.991C19.3223 14.1627 18.9894 14.2657 18.6529 14.3034L19.0649 13.7439C19.2091 13.4486 19.3155 13.1122 19.391 12.738C19.4665 12.3638 19.5009 11.9862 19.5009 11.6017C19.5009 10.8053 19.288 10.1153 18.8589 9.53514C18.7147 9.95739 18.6152 10.3041 18.5534 10.5719C18.4641 10.9632 18.4229 11.3408 18.4229 11.7082C18.4229 11.7253 18.4229 11.8008 18.4298 11.9382C18.4367 12.0755 18.447 12.1888 18.4641 12.2746C18.5568 12.1304 18.6255 11.9382 18.6701 11.691C18.7868 11.025 18.8486 10.6817 18.8589 10.6543C18.9894 10.8465 19.0855 11.0525 19.1438 11.2722C19.2022 11.4919 19.2297 11.7288 19.2297 11.9794C19.2297 12.3707 19.1301 12.7312 18.9344 13.0642C18.7388 13.3971 18.4641 13.6409 18.1174 13.7919C18.0796 13.7988 18.0419 13.8022 18.0007 13.8091C17.9595 13.816 17.9252 13.816 17.884 13.816C17.781 13.816 17.6849 13.7988 17.599 13.761C17.5132 13.7267 17.4446 13.6683 17.3896 13.5928C17.4995 13.3388 17.5887 13.0813 17.6608 12.817C17.7329 12.5527 17.7775 12.2849 17.8016 12.0103C17.8016 11.9897 17.8084 11.9485 17.8187 11.8867V11.6979C17.8187 11.4576 17.7913 11.2276 17.7398 11.0113C17.6883 10.795 17.6093 10.5959 17.5064 10.414C17.3484 10.644 17.2043 10.8911 17.0807 11.152C16.9571 11.4129 16.8575 11.6738 16.7854 11.9347C16.7134 12.1956 16.6619 12.381 16.6413 12.4909C16.5966 12.7003 16.576 12.8822 16.576 13.0436C16.576 13.2736 16.6172 13.483 16.6996 13.6683C16.4181 13.9224 15.9444 14.1627 15.275 14.3927C14.8184 14.5506 14.5438 14.6536 14.4511 14.6982C14.8424 14.6639 15.2338 14.6364 15.6286 14.609C16.2499 14.5369 16.7134 14.3961 17.0223 14.1901C17.1596 14.3446 17.2901 14.4579 17.4102 14.5369C17.5647 14.6364 17.7158 14.6845 17.8634 14.6845C17.9355 14.6845 18.0007 14.6742 18.0625 14.6501C18.6323 14.5334 19.2091 14.4201 19.7858 14.3034C20.1771 14.221 20.493 14.0975 20.7401 13.9327C20.9873 13.7679 21.2036 13.5482 21.3924 13.2736C21.54 13.0539 21.6739 12.7861 21.7872 12.4668C21.9313 11.945 22 11.4095 22 10.8602C22 10.6028 21.9828 10.3453 21.9519 10.0844L21.9485 10.081ZM13.7679 9.17469C13.7508 9.31201 13.689 9.47679 13.5791 9.66903C13.5242 9.76172 13.4693 9.8544 13.4143 9.95052C13.3697 9.88873 13.3011 9.83037 13.2084 9.76858C13.1466 9.73082 13.0608 9.67933 12.944 9.62097C12.9646 9.49395 13.0058 9.37723 13.0642 9.26738C13.1226 9.15753 13.2015 9.03738 13.2976 8.90349C13.3972 8.93782 13.483 8.97215 13.5517 9.01335C13.6238 9.05454 13.6958 9.10947 13.7645 9.17469H13.7679ZM17.4102 8.34393C17.3553 8.81767 17.1871 9.24335 16.909 9.62097C16.679 9.93336 16.346 10.2458 15.9135 10.5616C15.1342 11.0834 14.355 11.6017 13.5826 12.1201C13.5002 12.2574 13.4212 12.4462 13.3423 12.69C13.2221 13.0676 13.1569 13.2736 13.1432 13.3079C13.0608 13.5379 12.9681 13.7267 12.8617 13.8674C12.7312 14.0391 12.563 14.1661 12.3605 14.2554C12.0961 14.3652 11.7528 14.4339 11.3306 14.4613C10.9083 14.4888 10.5067 14.5163 10.1291 14.5437C10.5857 14.4133 10.8637 14.3309 10.9701 14.2966C11.2551 14.197 11.5263 14.0803 11.7769 13.943C12.0687 13.7885 12.309 13.6203 12.5012 13.4418C12.7209 13.2324 12.9028 12.9852 13.0436 12.7003C13.0882 12.46 13.1466 12.2437 13.2152 12.0583C13.2873 11.8729 13.3869 11.6876 13.5208 11.5056C13.6512 11.3237 13.8091 11.1623 13.9945 11.0147C14.1799 10.8705 14.3893 10.7504 14.6262 10.6577C14.5369 10.5135 14.4957 10.3693 14.4957 10.2217C14.4957 10.0295 14.5609 9.81321 14.6948 9.56947C14.8699 9.28798 14.9935 9.08544 15.0656 8.95842C15.3677 8.73871 15.6869 8.56707 16.0268 8.44005C16.3632 8.31304 16.7031 8.25124 17.0429 8.25124C17.1459 8.25124 17.2557 8.25811 17.3656 8.27528L17.4137 8.3508L17.4102 8.34393ZM15.6972 13.2289C15.553 13.4143 15.378 13.5619 15.1686 13.6683C14.9591 13.7748 14.736 13.8297 14.4923 13.8297C14.4579 13.8297 14.3996 13.8228 14.3103 13.8125C14.2451 13.7576 14.2039 13.7233 14.1867 13.7061C14.1524 13.6718 14.1284 13.6306 14.1112 13.5825C14.1559 13.4383 14.2211 13.3113 14.3138 13.1946C14.403 13.0779 14.5163 12.9886 14.6468 12.9234C14.6021 12.8959 14.5609 12.8753 14.5197 12.8582C14.4785 12.841 14.4339 12.8341 14.3824 12.8341C14.3481 12.8341 14.3103 12.841 14.2657 12.8582C14.2657 12.8204 14.2863 12.7689 14.3309 12.7106C14.3756 12.6488 14.4202 12.6076 14.4717 12.5801C14.5815 12.5973 14.6708 12.611 14.7429 12.6213C14.815 12.6316 14.8733 12.6659 14.9248 12.7209C14.9042 12.8136 14.8493 12.9062 14.76 13.0024C14.7257 13.0401 14.5747 13.1637 14.3069 13.3731C14.355 13.4452 14.4168 13.4967 14.4854 13.5345C14.5541 13.5688 14.6227 13.5894 14.6948 13.5894C14.8047 13.5894 14.9386 13.5585 15.0999 13.5001C15.3368 13.4109 15.4672 13.3628 15.4912 13.3491C15.5153 13.3354 15.5462 13.3148 15.5805 13.2907C15.6148 13.2667 15.6526 13.2495 15.6904 13.2358L15.6972 13.2289ZM11.5503 9.61067C11.4885 9.24678 11.3924 8.93096 11.2619 8.65633C11.1143 8.35423 10.9221 8.09677 10.6852 7.88049C10.6234 8.36796 10.5891 8.69065 10.5788 8.84513C10.5513 9.18156 10.5376 9.51798 10.5376 9.85784C10.5376 10.1256 10.5513 10.4002 10.5822 10.6817C10.6131 10.9632 10.6543 11.207 10.7092 11.4164C10.7436 11.2241 10.7573 11.0182 10.7573 10.7984C10.7504 10.6337 10.747 10.4655 10.7401 10.2972C10.7333 10.1256 10.7333 9.95396 10.7333 9.77888C10.7333 9.63127 10.7401 9.48365 10.7504 9.3326C10.7607 9.18156 10.7813 9.04767 10.8088 8.92066C10.9461 9.06484 11.0731 9.32231 11.1864 9.69649C11.3031 10.0707 11.3581 10.3693 11.3581 10.5959C11.2825 11.2001 11.0354 11.794 10.6165 12.381C10.1977 12.9646 9.724 13.4109 9.1919 13.7198C8.81771 13.9327 8.41607 14.1112 7.99039 14.2485C7.61277 14.3686 7.18366 14.4682 6.70649 14.5437C6.72709 14.5437 6.76828 14.5506 6.82321 14.5609H7.07037C7.31754 14.5609 7.69516 14.5231 8.19979 14.4442C8.70443 14.3686 9.08548 14.3275 9.34638 14.3275C9.88877 14.1798 10.3591 13.8263 10.7539 13.2736C11.0766 12.817 11.3203 12.2815 11.4782 11.667C11.5709 11.2619 11.6189 10.8499 11.6189 10.4311C11.6189 10.2869 11.6121 10.1428 11.6018 9.99858C11.5915 9.8544 11.5743 9.72395 11.5537 9.6141L11.5503 9.61067ZM7.115 8.54647L7.05664 8.852C6.99485 8.80394 6.93649 8.77648 6.8747 8.77648C6.81291 8.77648 6.77171 8.81081 6.75112 8.87603C6.72365 9.04767 6.69962 9.21589 6.67559 9.38753C6.63783 9.58664 6.56917 9.72739 6.46962 9.81664C6.36663 9.59694 6.26365 9.3738 6.16409 9.15066C6.14693 9.21589 6.11946 9.25022 6.0817 9.25022C6.05424 9.25022 6.00961 9.22618 5.95125 9.18156C5.88946 9.1335 5.8517 9.1129 5.83454 9.1129C5.83454 9.07514 5.82767 9.05111 5.81737 9.04767L5.79334 9.0717C5.79334 8.98245 5.80707 8.89319 5.8311 8.79707C5.85513 8.70095 5.91349 8.62886 5.99931 8.57737C6.10917 8.63916 6.19842 8.71812 6.26365 8.81767C6.29797 8.86573 6.38036 9.05111 6.51768 9.37037C6.55544 9.19872 6.59664 9.02708 6.64126 8.852C6.71679 8.62543 6.82321 8.51558 6.95366 8.51558C7.00858 8.51558 7.06008 8.52931 7.11157 8.55677L7.115 8.54647ZM9.77549 10.3007C9.78579 10.4105 9.76176 10.541 9.69997 10.6886C9.61758 10.8534 9.55922 10.977 9.52832 11.0593C9.18847 11.0593 8.82801 11.3065 8.4504 11.8008C8.20323 12.1476 8.02472 12.3947 7.91486 12.5424C7.61964 12.944 7.3862 13.2358 7.21456 13.4246C6.95022 13.7164 6.65843 13.967 6.3323 14.1833C6.05081 14.3652 5.73498 14.506 5.38483 14.6124C5.03467 14.7154 4.67765 14.7703 4.32063 14.7703C4.0563 14.7703 3.816 14.7463 3.59629 14.6948C3.37659 14.6433 3.15345 14.5609 2.93031 14.4407C2.64538 14.173 2.42568 13.8983 2.2712 13.6237C2.08926 13.2942 2 12.9612 2 12.6282C2 12.5286 2 12.4565 2.00687 12.405C2.01373 12.357 2.02746 12.2815 2.05493 12.1819C2.14418 11.8043 2.31583 11.4885 2.57329 11.2344C2.76553 11.0422 3.0539 10.8568 3.43838 10.6749C3.76107 10.5272 4.0872 10.3762 4.40989 10.2217C4.78407 10.0363 5.07587 9.83381 5.29214 9.62097C5.12049 9.87843 4.7978 10.1393 4.32063 10.4037C3.91555 10.6234 3.51047 10.8396 3.10882 11.0559C2.82733 11.2276 2.61792 11.3923 2.47374 11.5571C2.29866 11.7665 2.20941 11.9897 2.20941 12.2334C2.20941 12.3707 2.23687 12.5149 2.29523 12.6694C2.35359 12.8239 2.44284 12.9852 2.56299 13.1568C2.76553 13.4589 3.05046 13.6786 3.41092 13.816C3.71301 13.9327 4.0769 13.9876 4.49914 13.9876C4.5884 13.9876 4.68452 13.9842 4.79437 13.9739C4.90422 13.967 4.99004 13.9601 5.0484 13.9533C5.38826 13.9155 5.72812 13.7954 6.0714 13.5894C6.3632 13.4177 6.65843 13.1843 6.96052 12.8891C7.16306 12.69 7.42053 12.405 7.73635 12.0309C8.12084 11.5708 8.35771 11.2894 8.44353 11.1898C8.72503 10.8774 8.94473 10.6611 9.10264 10.5478C9.33265 10.3831 9.55578 10.3007 9.76862 10.3007H9.77549ZM5.63886 15.4431C5.57364 15.5599 5.50841 15.6731 5.45005 15.7899C5.37453 15.9169 5.28527 16.0267 5.18572 16.1194C5.00378 15.989 4.80124 15.8791 4.57467 15.7899C4.67422 15.553 4.83213 15.3333 5.05184 15.1308C5.24408 15.2028 5.34706 15.2406 5.35736 15.2475C5.47751 15.3024 5.5702 15.3676 5.63886 15.4466V15.4431ZM16.8781 9.04081C16.7202 9.25022 16.4319 9.49052 16.0199 9.76515C15.7727 9.92993 15.5908 10.0604 15.4775 10.1531C15.3471 10.1531 15.2303 10.1359 15.1342 10.105C15.0381 10.0707 14.9694 10.002 14.9248 9.89903C15.0175 9.73425 15.1308 9.60037 15.2681 9.49395C15.402 9.39096 15.5668 9.30171 15.759 9.22962C16.1092 9.1026 16.4834 9.04081 16.8781 9.04081ZM17.5304 12.5492C17.4926 12.6247 17.4343 12.7415 17.3519 12.8959C17.2729 13.0504 17.1905 13.1637 17.1081 13.2427C17.0257 13.15 16.9674 13.0539 16.9296 12.9543C16.8953 12.8547 16.8747 12.7483 16.8747 12.6316C16.8747 12.5321 16.8884 12.4188 16.9193 12.2849C16.9502 12.1544 17.0086 11.9931 17.0978 11.8077C17.1425 11.7047 17.2146 11.5537 17.3107 11.3614C17.345 11.4541 17.3999 11.6017 17.4755 11.8077C17.5304 11.9794 17.5578 12.1338 17.5578 12.278C17.5578 12.3776 17.5475 12.4668 17.5235 12.5492H17.5304Z" fill="white"/>
</svg>
