<svg width="24" height="24" viewBox="0 0 24 24" fill="none" xmlns="http://www.w3.org/2000/svg">
<path fill-rule="evenodd" clip-rule="evenodd" d="M19.4278 8.43058C19.4278 8.43058 19.3428 8.5949 19.1898 8.90651C19.0822 9.11614 18.9688 9.22379 18.8499 9.22379C18.8272 9.22379 18.7762 9.20678 18.7025 9.17845C18.6629 9.13313 18.5552 9.05948 18.3739 8.95183C18.1926 8.84418 18.102 8.75352 18.102 8.67987C18.102 8.61188 18.153 8.52689 18.2493 8.43058C18.3399 8.27193 18.4079 8.15296 18.4476 8.0793C18.4872 8.00565 18.5382 7.94899 18.6006 7.92066C18.7139 7.96599 18.8272 8.01133 18.9405 8.05665C19.1445 8.15297 19.3088 8.2776 19.4278 8.43058ZM16.1076 9.23512C15.898 9.39376 15.6657 9.5354 15.4164 9.66572C15.2181 9.77336 14.9632 9.88668 14.6402 10.017C14.3173 10.1473 14.0737 10.2436 13.9093 10.3116C13.6431 10.4192 13.3994 10.5269 13.1728 10.6402C13.3541 10.4533 13.5581 10.2889 13.7847 10.153C14.0113 10.017 14.2776 9.88667 14.5779 9.76769C14.7875 9.68271 15.0595 9.58639 15.3824 9.47874C15.7054 9.37109 15.949 9.28611 16.1076 9.23512ZM22 10.9915C21.6091 11.1955 21.2465 11.3711 20.9122 11.5241C20.7025 11.6204 20.3513 11.779 19.8584 11.9887C19.8584 11.9433 19.8697 11.83 19.8867 11.6544C19.9037 11.4787 19.915 11.3371 19.915 11.2408C19.915 11.0595 19.8923 10.9122 19.8414 10.7989C19.7904 10.6855 19.694 10.5949 19.5524 10.5269C19.3258 10.3853 19.0368 10.3116 18.6912 10.3116C18.5326 10.3116 18.3909 10.3229 18.2663 10.3399C18.1416 10.3569 17.983 10.3909 17.796 10.4362C17.5411 10.5326 17.3484 10.7365 17.2181 11.0482C17.1331 11.3258 17.0538 11.6034 16.9688 11.8753C17.0538 12.0963 17.2578 12.3286 17.5921 12.5779C17.8414 12.7649 17.9943 12.8838 18.0453 12.9292C17.8584 12.9915 17.4448 13.1445 16.8102 13.3938C16.221 13.6204 15.7904 13.7847 15.5184 13.881C15.0425 14.0453 14.6062 14.1813 14.204 14.2776C13.5864 14.4362 13.0085 14.5156 12.4703 14.5156C12.102 14.5156 11.7167 14.4702 11.3144 14.3739C10.9122 14.2776 10.5382 14.1416 10.1926 13.9603C9.83003 13.5071 9.56374 13.0142 9.39943 12.4759C9.23513 11.9377 9.15014 11.3598 9.15014 10.7309C9.13314 10.5326 9.09915 10.0283 9.03683 9.21812C8.9745 8.40792 8.87252 7.75637 8.73088 7.27478C8.62323 7.41076 8.55524 7.54106 8.52125 7.67137C8.48725 7.80168 8.47025 7.96032 8.47025 8.14729C8.47025 8.28893 8.47592 8.42492 8.49292 8.54957C8.50991 8.67421 8.53258 8.86684 8.57224 9.12179C8.66289 9.52973 8.73088 10.2663 8.78187 11.3314C8.83286 12.3966 8.93484 13.1728 9.09348 13.6657C9.33711 14.4136 9.77904 14.9632 10.4193 15.3201C11.0028 15.4561 11.5694 15.5241 12.119 15.5241C12.6006 15.5241 13.0935 15.4787 13.5864 15.3881C14.0793 15.2974 14.5722 15.1728 15.0595 15.0142C15.5467 14.8555 16.0453 14.6685 16.5609 14.4476C16.6572 14.4079 17.1331 14.1926 17.9773 13.8017C18.4476 13.5807 18.9122 13.3768 19.3711 13.1785V14.8329C19.4561 14.6515 19.5184 14.3513 19.5581 13.9263C19.5977 13.5014 19.6374 13.2181 19.6771 13.0765C20.2833 12.7365 20.8839 12.3909 21.4901 12.0453L22 10.9915ZM20.119 16.0793C19.8187 16.3513 19.4221 16.5382 18.9405 16.6459C18.7365 16.6969 18.5156 16.7252 18.272 16.7252C18.0283 16.7252 17.7847 16.6912 17.5581 16.6232C17.4731 16.5722 17.4334 16.5099 17.4334 16.4419C17.4334 16.3909 17.4504 16.3286 17.4844 16.2663C17.5184 16.204 17.5524 16.1416 17.5807 16.085C17.6091 16.0283 17.6544 15.9717 17.711 15.9093C17.7677 15.847 17.8244 15.7904 17.8867 15.7394C17.7337 15.711 17.6601 15.6317 17.6601 15.5014C17.6601 15.4391 17.6771 15.3711 17.7054 15.2861C17.711 15.2691 17.745 15.2011 17.796 15.0821C17.8867 14.9745 17.9603 14.9008 18.0227 14.8555C18.119 14.7819 18.2153 14.7422 18.3059 14.7422C18.3796 14.7422 18.4476 14.7705 18.5099 14.8329C18.5099 15.0085 18.4419 15.1388 18.3059 15.2294H18.2153C18.2153 15.2294 18.2153 15.1615 18.1586 15.0935C18.085 15.1161 18.0113 15.1615 17.9433 15.2294C18.051 15.3484 18.1756 15.4107 18.3286 15.4107C18.3569 15.4107 18.4023 15.4051 18.4646 15.3881C18.5496 15.3258 18.6232 15.2748 18.6969 15.2351C18.7705 15.1955 18.8329 15.1785 18.8952 15.1841C18.8555 15.3144 18.6119 15.5184 18.1586 15.8074C17.9547 15.9377 17.8527 16.051 17.8527 16.1473C17.8527 16.221 17.8924 16.3003 17.966 16.3739C18.0113 16.3739 18.068 16.3739 18.1416 16.3853C18.2153 16.3909 18.2889 16.3966 18.3626 16.3966C18.6289 16.3966 18.9235 16.3626 19.2578 16.2946C19.3994 16.2663 19.6884 16.1926 20.119 16.0793ZM7.3711 7.98865C7.33144 8.10763 7.25779 8.24928 7.13881 8.40792C7.01983 8.56656 6.91218 8.71387 6.80453 8.84985C6.75354 8.80452 6.64023 8.73653 6.46459 8.64588C6.19263 8.5099 6.08499 8.36827 6.13598 8.21529L6.72521 7.52407L7.3711 7.98865ZM3.83569 9.03116L3.76771 9.35976C3.72238 9.36543 3.67139 9.34843 3.60907 9.3031C3.54674 9.25778 3.50142 9.23512 3.46176 9.23512C3.41076 9.32577 3.36544 9.52407 3.33144 9.83568C3.29745 10.1473 3.2238 10.3399 3.11048 10.4249C3.10482 10.4193 3.01983 10.238 2.86119 9.88102C2.75354 9.65439 2.60623 9.54107 2.41926 9.54107C2.3966 9.47875 2.38527 9.42208 2.38527 9.37109C2.38527 9.3031 2.3966 9.24078 2.42493 9.17845C2.45326 9.11613 2.49292 9.03682 2.54391 8.9405C2.69688 8.9915 2.82153 9.11614 2.91785 9.31444C2.9915 9.47875 3.07082 9.64871 3.14448 9.81301C3.24079 9.47873 3.34278 9.15013 3.45042 8.81586C3.5864 8.85552 3.71671 8.92351 3.83569 9.03116ZM8.22096 14.5949C8.13031 14.7592 8.01133 14.9065 7.85836 15.0255C7.74504 15.1161 7.58074 15.2181 7.3711 15.3314C7.19547 15.4164 7.01983 15.5014 6.84419 15.5921C6.66855 15.6827 6.50425 15.7847 6.35127 15.898C6.41926 15.7337 6.52125 15.5864 6.66289 15.4617C6.80453 15.3371 6.96884 15.2238 7.16714 15.1275C7.51275 14.9462 7.86402 14.7705 8.22096 14.5949ZM7.73371 11.7054C7.75637 11.5751 7.7677 11.4504 7.7677 11.3201C7.7677 10.9575 7.68839 10.6119 7.52974 10.2776C7.46742 10.1416 7.38244 10.0397 7.27479 9.966C7.16714 9.89234 7.04816 9.86402 6.91785 9.88102C6.73654 10.1756 6.61756 10.3739 6.56657 10.4816C6.43626 10.7365 6.37394 10.9632 6.37394 11.1501C6.37394 11.3711 6.44759 11.5694 6.60057 11.7507C6.65156 11.779 6.70255 11.796 6.74787 11.796C6.83286 11.796 6.91218 11.762 6.9915 11.6997C7.07082 11.6374 7.15014 11.5694 7.2238 11.5014L7.38244 11.6147C7.38244 11.8584 7.27479 12.0453 7.05382 12.1813C6.95751 12.2436 6.72521 12.3343 6.36261 12.4646C6.03966 12.5609 5.80737 12.6629 5.67139 12.7592C5.46176 12.9178 5.33144 13.1615 5.28612 13.4957C5.24079 13.83 5.09915 14.1586 4.86686 14.4816C4.66289 14.7592 4.40227 15.0085 4.08499 15.2294C3.76771 15.4504 3.41643 15.6317 3.03116 15.7847C2.73654 15.898 2.39093 16.0057 2 16.102C2.13598 16.119 2.35127 16.1473 2.64589 16.1926C2.84986 16.2153 3.07082 16.2266 3.30312 16.2266C3.45609 16.2266 3.60907 16.2209 3.76204 16.2039C3.91501 16.1869 4.05099 16.1643 4.16431 16.136C4.54957 15.9603 4.84419 15.66 5.04816 15.2294C5.14448 15.0198 5.26912 14.6119 5.41076 14.017C5.50142 13.864 5.60906 13.7507 5.73371 13.6714C5.85836 13.592 6.017 13.5241 6.2153 13.4617C6.49292 13.3711 6.65156 13.3201 6.69122 13.3031C6.85552 13.2294 6.99717 13.1331 7.11048 13.0198C7.29178 12.8385 7.42776 12.6402 7.52408 12.4249C7.6204 12.2096 7.68839 11.9717 7.73371 11.7054ZM19.4957 12.1473C19.3654 12.1473 19.2238 12.1303 19.0595 12.0906C18.8952 12.051 18.7535 12.0113 18.6346 11.966C18.3399 11.847 18.0907 11.6657 17.8867 11.4221C18 11.3994 18.085 11.3824 18.1473 11.3768C18.2096 11.3711 18.2889 11.3654 18.3966 11.3654C18.6062 11.3654 18.8045 11.4051 18.9915 11.4901C19.1785 11.5751 19.3201 11.6997 19.4278 11.8753L19.4957 12.1473Z" fill="white"/>
</svg>
