<svg width="24" height="24" viewBox="0 0 24 24" fill="none" xmlns="http://www.w3.org/2000/svg">
<path fill-rule="evenodd" clip-rule="evenodd" d="M21.9179 10.0398C21.9495 10.2102 21.9684 10.3744 21.9811 10.5259C21.9937 10.6774 22 10.8542 22 11.0436C22 11.7759 21.8737 12.4703 21.6212 13.1269C21.5076 13.714 21.2172 14.1686 20.7563 14.4905C20.4217 14.7304 19.923 14.9262 19.2601 15.084C18.2121 15.3365 17.6818 15.4691 17.6692 15.4754C17.4861 15.6143 17.3662 15.6964 17.303 15.7342C17.0631 15.8794 16.8232 15.9489 16.577 15.9489C16.3182 15.9489 16.0783 15.8857 15.8699 15.7595C15.6553 15.6332 15.4659 15.4501 15.3018 15.2039C14.904 15.4375 14.4053 15.589 13.8056 15.6585C13.452 15.7027 12.9154 15.7216 12.202 15.7216C12.7891 15.6332 13.2942 15.507 13.7172 15.3428C14.2159 15.1471 14.6641 14.8693 15.0619 14.5095C15.0619 14.0991 15.0745 13.7393 15.0997 13.4426C15.125 13.1395 15.1755 12.8428 15.2513 12.5398C15.327 12.2368 15.428 11.9085 15.548 11.5549C15.6364 11.3024 15.75 10.9931 15.8952 10.6332C16.053 10.8479 16.1667 11.0815 16.2361 11.3277C16.3056 11.5739 16.3371 11.8453 16.3371 12.1421V12.4577C16.3245 12.5208 16.3182 12.5714 16.3182 12.5966C16.2803 12.9249 16.2109 13.2595 16.1098 13.613C16.0467 13.8277 15.9394 14.1496 15.7879 14.5789C15.9078 14.6863 16.0404 14.7746 16.173 14.8314C16.3056 14.8946 16.4508 14.9262 16.6023 14.9262C16.7222 14.9262 16.8422 14.9072 16.9495 14.863C17.3093 14.6989 17.6313 14.4527 17.9028 14.137C18.1806 13.8214 18.3573 13.4741 18.4457 13.0953C18.4457 12.1862 18.1742 11.4097 17.6313 10.7784C17.4798 11.4287 17.3283 12.0789 17.1894 12.7292C17.1452 12.4956 17.1263 12.2683 17.1263 12.0474C17.1263 11.7443 17.1578 11.4287 17.221 11.0941C17.2652 10.8857 17.404 10.3807 17.6313 9.57893C18.0164 9.91984 18.2942 10.3554 18.4773 10.8921C18.6351 11.3592 18.7172 11.9022 18.7172 12.5208C18.7172 12.786 18.6982 13.0638 18.6604 13.3542C18.6225 13.6446 18.5783 13.916 18.5215 14.1812C18.4836 14.2948 18.4268 14.4337 18.3447 14.5979C18.2626 14.762 18.1869 14.9135 18.1111 15.0461C18.4962 14.9577 18.8813 14.8125 19.2664 14.6042C19.6515 14.3958 20.0114 14.1307 20.3523 13.8087C20.6869 13.4868 20.9773 13.1269 21.2172 12.7166C21.4571 12.3125 21.6275 11.8769 21.7285 11.4034C21.7601 11.2645 21.7727 11.1193 21.7727 10.9678C21.7727 10.5764 21.6591 10.1724 21.4255 9.7557C21.255 9.44635 20.9962 9.09913 20.6553 8.72665C20.6553 8.93499 20.6616 9.2317 20.6806 9.60418C20.6995 9.98296 20.7058 10.2102 20.7058 10.286C20.7058 10.5385 20.6932 10.7595 20.6679 10.9552C20.6427 11.1446 20.5985 11.334 20.5354 11.5107C20.4785 11.214 20.4343 10.8984 20.4028 10.5575C20.3712 10.2166 20.3523 9.86301 20.3523 9.48423C20.3523 8.73296 20.4091 8.03221 20.5164 7.38196C20.8952 7.71024 21.1982 8.09534 21.4381 8.54988C21.678 9.00443 21.8422 9.50317 21.9369 10.0461L21.9179 10.0398ZM13.2563 8.70771C13.2563 8.56251 13.1616 8.42994 12.9722 8.3163C12.8902 8.2658 12.726 8.19004 12.4735 8.08903C12.3662 8.2216 12.2715 8.37312 12.1894 8.54358C12.1515 8.62565 12.0947 8.77715 12.0189 9.01074L12.3662 9.1812L12.7134 9.35166C12.8586 9.39585 12.9659 9.32009 13.0417 9.13701C13.1427 8.88449 13.2121 8.73928 13.2563 8.7014V8.70771ZM11.8169 7.37564C11.7348 7.57766 11.596 7.76074 11.3813 7.91857C11.2929 7.9817 11.1604 8.06377 10.9773 8.16478C10.6237 8.36049 10.2702 8.54989 9.92298 8.73928C9.99242 8.57514 10.1061 8.42362 10.2576 8.28473C10.3712 8.18372 10.5417 8.0764 10.7563 7.96277C10.971 7.84913 11.1919 7.73549 11.4192 7.62185C11.577 7.53347 11.7096 7.4514 11.8106 7.37564H11.8169ZM13.8119 12.06V11.7001C13.8119 11.4476 13.7866 11.1888 13.7361 10.9299C13.6856 10.6711 13.6098 10.4375 13.5152 10.2355C13.3005 10.4312 13.1932 10.6774 13.1932 10.9741C13.1932 11.0373 13.1932 11.0878 13.1932 11.1256C13.1932 11.1635 13.2121 11.2456 13.2437 11.3845C13.2753 11.5234 13.3068 11.6875 13.3447 11.8769C13.3826 12.0663 13.4015 12.2368 13.4015 12.382C13.4015 12.464 13.4015 12.5208 13.3889 12.5524C13.1048 13.0701 12.6944 13.4552 12.1515 13.7014C12.1199 13.6635 12.1073 13.6193 12.1073 13.5688C12.1073 13.5309 12.1136 13.4804 12.1263 13.4173C12.1389 13.3542 12.1452 13.3037 12.1452 13.2658C12.1452 13.1964 12.1263 13.1332 12.0884 13.0953C12.0694 13.1332 12.0379 13.19 11.9937 13.2658C11.9558 13.3416 11.9369 13.411 11.9369 13.4678C11.8359 13.6635 11.7285 13.8087 11.6086 13.9034C11.5265 13.9665 11.4444 13.9981 11.3497 13.9981V13.512H11.3056C11.2235 13.5499 11.1919 13.6256 11.2109 13.7393C11.1225 13.8845 11.0088 13.9981 10.8699 14.0739C10.7311 14.1559 10.5795 14.1938 10.428 14.1938C10.4407 14.0107 10.4596 13.834 10.4848 13.6509C10.3333 13.8719 10.1692 14.0486 9.99874 14.1875C9.77778 14.3643 9.55682 14.4653 9.34848 14.4842C9.05808 14.4842 8.81187 14.3517 8.60985 14.0802C8.3952 13.6193 8.24369 13.1395 8.16793 12.6408C8.09217 12.1421 8.05429 11.5549 8.05429 10.8857C8.06061 10.5448 8.06692 10.2039 8.07323 9.86302C8.07955 9.52211 8.08586 9.1812 8.08586 8.84029C8.08586 8.48044 8.07323 8.11428 8.05429 7.7418C8.03535 7.36933 7.99116 7.04105 7.93434 6.75696L7.56818 7.60292C7.63763 8.0764 7.68182 8.51832 7.68813 8.92868C7.69444 9.34534 7.70076 9.69888 7.70076 10.0019V11.1193C7.70076 11.9337 7.73232 12.6471 7.80177 13.2721C7.87121 13.8971 8.0101 14.459 8.23106 14.964C8.33207 15.1471 8.45833 15.286 8.61616 15.3933C8.77399 15.5006 8.93813 15.5511 9.12121 15.5511C9.20328 15.5511 9.2601 15.5512 9.29167 15.5385C9.49369 15.3744 9.80934 15.2734 10.2323 15.2355C10.6616 15.2039 10.9268 15.1661 11.0341 15.1345C11.9684 14.6863 12.4419 14.4527 12.4545 14.4463C12.7386 14.257 12.9659 14.0297 13.1427 13.7645C13.3194 13.4994 13.4646 13.2279 13.5783 12.9438C13.6919 12.6597 13.7614 12.363 13.7866 12.0537L13.8119 12.06ZM15.2323 16.3782C15.2008 16.3087 15.125 16.2582 14.9924 16.2393C14.8598 16.2203 14.7778 16.1825 14.7462 16.132C14.8598 16.0625 14.9798 15.9931 15.1061 15.9299C15.1692 15.8794 15.1944 15.8163 15.1818 15.7342C15.0114 15.7342 14.8598 15.8037 14.7399 15.9426C14.6199 16.0815 14.5442 16.2456 14.5253 16.435C14.5631 16.4855 14.6389 16.5171 14.7652 16.5423C14.8851 16.5613 14.9735 16.6054 15.0114 16.6623C14.923 16.7822 14.7778 16.8958 14.5758 16.9969C14.4684 17.0474 14.3043 17.1294 14.0896 17.2431C14.4053 17.2431 14.702 17.1484 14.9798 16.9527C15.0808 16.8453 15.1566 16.7506 15.2008 16.6686C15.2449 16.5865 15.2576 16.4918 15.2386 16.3845L15.2323 16.3782ZM6.46338 12.2431C6.4255 12.5398 6.35606 12.8744 6.24874 13.2405C6.16667 13.4994 6.06566 13.7961 5.93939 14.1244C5.81313 14.4527 5.61111 14.7494 5.33333 15.0145C5.05556 15.2797 4.75253 15.4501 4.43056 15.5322C4.38005 15.5448 4.32323 15.5511 4.2601 15.5511H4.1149C3.84343 15.5511 3.57197 15.4943 3.3005 15.3744C3.03535 15.2544 2.80177 15.0903 2.60606 14.8693C2.3851 14.6799 2.22727 14.4463 2.13258 14.1623C2.04419 13.8782 2 13.5562 2 13.1963C2 13.089 2 12.9817 2 12.8681C2 12.7607 2.01894 12.565 2.0505 12.2809C2.10732 11.9274 2.25884 11.5613 2.50505 11.1761C2.56187 11.0878 2.70076 10.8857 2.92803 10.5701C3.1553 10.2544 3.31944 9.97665 3.43939 9.74307C3.5846 9.43372 3.67929 9.12438 3.72348 8.80873L3.79924 8.30999H3.96338C3.9697 8.34787 3.97601 8.37944 3.97601 8.41731V8.52464C3.97601 8.82767 3.90025 9.15595 3.74874 9.50317C3.69823 9.61681 3.40152 10.1155 2.85859 10.9868C2.68813 11.2582 2.55556 11.5107 2.46717 11.7317C2.35985 12.0032 2.30303 12.2683 2.30303 12.5145C2.30303 12.7229 2.3346 12.9249 2.40404 13.108C2.47348 13.2974 2.59343 13.5057 2.7702 13.7393C2.94066 13.9729 3.16162 14.1623 3.41414 14.2948C3.67298 14.4337 3.94444 14.5032 4.23485 14.5032C4.66414 14.459 5.05556 14.257 5.4154 13.8971C5.73106 13.5688 5.97727 13.1837 6.14141 12.7355C6.14141 12.4009 6.0846 12.1105 5.97096 11.8643C5.85732 11.6181 5.66162 11.416 5.39646 11.2645C5.29545 11.2267 5.1755 11.1951 5.0303 11.1572C4.89141 11.1193 4.76515 11.1004 4.65783 11.1004C4.60732 11.1067 4.56944 11.113 4.53788 11.113C4.44949 11.132 4.36111 11.1761 4.26641 11.2456C4.1149 11.3592 3.96338 11.4729 3.81187 11.5802C3.875 11.1383 3.92551 10.8668 3.96338 10.7658C4.07071 10.4628 4.2601 10.2607 4.52525 10.1597C4.68939 10.0966 4.85354 10.065 5.01136 10.065C5.32702 10.065 5.63636 10.1787 5.93308 10.3996C6.12879 10.589 6.27399 10.8037 6.36237 11.0373C6.45076 11.2772 6.49495 11.536 6.49495 11.8201C6.49495 11.9527 6.48232 12.0852 6.46338 12.2304V12.2431ZM5.18182 12.2304C5.06187 12.1484 4.92929 12.0852 4.7904 12.0221C4.65151 11.9653 4.51263 11.9148 4.36742 11.8832C4.32323 11.9527 4.25379 12.0663 4.15909 12.2115C4.06439 12.3946 3.98864 12.584 3.93182 12.786C4.19066 12.8996 4.44949 13.0196 4.71465 13.1332C4.91667 12.8176 5.07449 12.5145 5.18182 12.2304ZM16.0215 13.0764C16.0278 13.0322 16.0341 12.9691 16.0341 12.8807C16.0341 12.7166 16.0088 12.5398 15.9583 12.363C15.9078 12.1863 15.8384 12.0032 15.7437 11.8138C15.6237 12.1926 15.5038 12.5587 15.3838 12.9312C15.3396 13.1017 15.3207 13.2847 15.3207 13.4741C15.3207 13.6888 15.3586 13.8908 15.4407 14.0802C15.6995 13.7519 15.8952 13.4173 16.0278 13.0701L16.0215 13.0764Z" fill="white"/>
</svg>
