<svg width="24" height="24" viewBox="0 0 24 24" fill="none" xmlns="http://www.w3.org/2000/svg">
<path fill-rule="evenodd" clip-rule="evenodd" d="M15.8334 7.75318C15.7783 7.90015 15.7232 8.041 15.6681 8.18185C15.5885 8.35331 15.5089 8.48192 15.4293 8.5799C15.2946 8.5799 15.1598 8.54927 15.0312 8.48803C14.9516 8.45129 14.8353 8.3778 14.6761 8.25533C14.6761 8.12673 14.725 7.97978 14.823 7.81444C14.9577 7.58786 15.0312 7.44702 15.0557 7.3919C15.1353 7.41027 15.2639 7.47764 15.4476 7.59399C15.6007 7.68585 15.7355 7.73481 15.8457 7.75318H15.8334ZM21.9204 11.0967C21.951 11.2682 21.9694 11.4274 21.9816 11.5928C21.9939 11.752 22 11.9295 22 12.1194C22 12.8665 21.8592 13.5646 21.5775 14.2137C21.3264 14.8016 20.9284 15.2609 20.3895 15.5793C19.9424 15.8426 19.3791 16.0263 18.6993 16.1243C18.2156 16.1917 17.6032 16.2284 16.8683 16.2284C17.6889 15.9528 18.1543 15.7997 18.2645 15.7569C18.8034 15.5548 19.275 15.3344 19.6852 15.0955C20.218 14.7955 20.6405 14.4831 20.9467 14.1586C21.3386 13.7422 21.5958 13.2829 21.7122 12.7685C21.7551 12.5664 21.7734 12.3705 21.7734 12.1806C21.7734 11.85 21.7122 11.5131 21.5897 11.1702C21.4366 10.7538 21.1611 10.2578 20.7508 9.66381C20.7508 9.84752 20.7569 10.1537 20.7691 10.5885C20.7814 11.0232 20.7875 11.3478 20.7875 11.5744V11.8499C20.7875 12.1745 20.7753 12.4562 20.7446 12.7073C20.6405 12.3643 20.5732 11.9969 20.5426 11.6111C20.5119 11.2253 20.4936 10.7722 20.4936 10.2517V9.05144C20.5058 8.8861 20.5181 8.74525 20.5303 8.6289C20.5426 8.51867 20.5732 8.41457 20.6344 8.32272C20.9528 8.67789 21.2223 9.10042 21.4427 9.5842C21.6632 10.068 21.8163 10.5701 21.902 11.0967H21.9204ZM11.6754 10.4231C11.5897 10.6558 11.5346 10.7967 11.4979 10.8518C11.406 11.0049 11.2835 11.1029 11.1304 11.1335C11.0814 11.1641 11.0325 11.1763 10.9835 11.1763C10.9406 11.1763 10.8977 11.1641 10.8549 11.1335C10.812 11.1029 10.763 11.0723 10.7263 11.0416C10.6834 10.9375 10.665 10.8395 10.665 10.7477C10.665 10.6007 10.7263 10.417 10.8549 10.1904C11.0386 9.86588 11.1366 9.68215 11.1611 9.63316C11.1611 9.71277 11.0937 9.89036 10.959 10.172C10.8916 10.319 10.8549 10.4354 10.8549 10.5211C10.8549 10.6313 10.9039 10.7354 11.0018 10.8273C11.0937 10.864 11.1794 10.8579 11.2529 10.8089C11.3509 10.7293 11.4244 10.6742 11.4611 10.6436C11.4427 10.5823 11.3693 10.5027 11.2407 10.417C11.1121 10.3313 11.0508 10.2517 11.0508 10.1904C11.0508 10.1414 11.0937 10.0802 11.1794 10.0006C11.3448 10.0802 11.4489 10.1292 11.4856 10.1476C11.602 10.2272 11.6693 10.319 11.6877 10.4293L11.6754 10.4231ZM19.0239 9.80464C19.0239 9.32699 18.883 8.7391 18.5952 8.02875C18.4115 7.5756 18.289 7.24493 18.2156 7.04285C17.9645 7.32454 17.8175 7.85119 17.7869 8.62277C17.7502 9.39436 17.7195 9.83525 17.695 9.94547C17.7502 9.78626 17.8114 9.51682 17.8849 9.1494C17.9522 8.78198 18.0257 8.51254 18.0931 8.3472C18.338 8.93507 18.4728 9.27188 18.5034 9.34536C18.5707 9.55969 18.6197 9.7679 18.6503 9.96386C18.4238 10.2578 18.1727 10.4905 17.891 10.6497C17.6093 10.8151 17.3154 10.8946 17.0092 10.8946C17.0214 10.7905 17.0459 10.6558 17.0704 10.4844C17.101 10.319 17.1133 10.1659 17.1133 10.0312C17.1133 9.89649 17.0949 9.76179 17.0582 9.62707C17.0214 9.49235 16.9724 9.36986 16.899 9.26575C16.8316 9.19839 16.7642 9.14328 16.7091 9.11266C16.654 9.08204 16.5928 9.06366 16.5193 9.06366C16.4825 9.06366 16.4397 9.0759 16.3846 9.09427C16.0906 9.37596 15.8763 9.71278 15.7477 10.1047C15.6191 10.5027 15.5517 10.9314 15.5517 11.4029C15.3068 11.5193 15.0619 11.6601 14.8169 11.8193C14.572 11.9724 14.3393 12.15 14.1249 12.346C13.8739 12.5725 13.6779 12.7808 13.5371 12.9767C13.3778 13.2094 13.2615 13.4482 13.188 13.6993C13.4942 13.5523 13.9412 13.4789 14.5291 13.4789C15.117 13.4789 15.5028 13.4666 15.6926 13.4482C15.3435 13.7054 14.9577 13.9381 14.5475 14.1402C14.4372 14.1953 14.0392 14.3729 13.3595 14.6669C12.8634 14.8628 12.3368 15.0098 11.7918 15.1139C11.2468 15.218 10.6957 15.267 10.1506 15.267C9.31782 15.267 8.51562 15.1445 7.74403 14.8996C6.97244 14.6546 6.31108 14.2811 5.75383 13.785C5.75383 13.4605 5.70484 13.1604 5.61298 12.8788C5.52113 12.5971 5.36191 12.3582 5.14758 12.1623L4.83527 12.8359C4.87814 12.9645 4.99449 13.1849 5.19045 13.4972C5.34354 13.7422 5.42315 13.9688 5.42315 14.1708V14.2321C5.42315 14.2321 5.42315 14.2872 5.4109 14.3178C5.12921 14.9669 4.64544 15.5364 3.94734 16.008C3.37171 16.406 2.7226 16.706 2 16.902C2.00612 16.9081 2.01225 16.9265 2.01837 16.9571C2.26332 16.9265 2.60625 16.8898 3.04715 16.8408C3.48806 16.7918 3.81261 16.7428 4.02694 16.6938C4.49847 16.5468 4.89039 16.21 5.20269 15.6834C5.45989 15.2486 5.6436 14.7526 5.7477 14.1892L6.39069 15.0098C6.81323 15.3466 7.27863 15.6038 7.7869 15.7875C8.29516 15.9712 8.8463 16.0875 9.44029 16.1365C10.0894 16.1365 10.6895 16.1059 11.2407 16.0447C11.7857 15.9835 12.2878 15.861 12.7471 15.6834C13.2002 15.5058 13.6044 15.3282 13.9473 15.1629C14.3699 14.9608 14.7679 14.7342 15.1476 14.4954C15.5273 14.2566 15.8886 13.9687 16.2376 13.6503C16.5867 13.3257 16.8806 12.989 17.1255 12.6277L14.3699 12.6889C14.6026 12.5358 14.8475 12.3888 15.1047 12.2603C15.3619 12.1439 15.6252 12.0153 15.8824 11.8928C15.9804 11.9357 16.0539 11.9602 16.109 11.9724C16.1641 11.9847 16.2498 11.9908 16.3662 11.9908C16.556 11.9908 16.7642 11.954 16.9847 11.8867C17.0337 11.8744 17.2296 11.801 17.5603 11.6785C17.7502 11.6173 17.9277 11.5193 18.0992 11.3907C18.2707 11.2621 18.4299 11.109 18.5646 10.9314C18.7055 10.7538 18.8157 10.5701 18.8953 10.3803C18.9749 10.1904 19.0178 9.99447 19.0178 9.79851L19.0239 9.80464ZM14.921 16.2468C14.8353 16.3448 14.7557 16.4611 14.6699 16.6019C14.5842 16.7428 14.523 16.8469 14.4801 16.9204C14.3515 16.8836 14.2658 16.853 14.2107 16.8285C14.1555 16.804 13.9963 16.7061 13.7208 16.5407C13.7391 16.3999 13.8249 16.2345 13.9657 16.0386C14.0759 15.8793 14.1494 15.7752 14.1739 15.7324C14.4127 15.8181 14.5964 15.91 14.7312 16.008C14.8353 16.0876 14.8965 16.1671 14.921 16.2529V16.2468ZM16.6785 10.3374C16.7153 10.4293 16.7336 10.515 16.7336 10.6007C16.7336 10.6987 16.7152 10.7783 16.6724 10.8457C16.6295 10.913 16.556 10.962 16.4519 10.9865C16.4091 10.9804 16.3233 10.9681 16.2009 10.9436C16.0784 10.9191 15.9865 10.864 15.9375 10.7661C15.9559 10.5701 15.9927 10.4109 16.0478 10.2945C16.1029 10.1782 16.1947 10.0986 16.3356 10.0618C16.4948 10.0986 16.6111 10.1904 16.6846 10.3374H16.6785Z" fill="white"/>
</svg>
