<svg width="24" height="24" viewBox="0 0 24 24" fill="none" xmlns="http://www.w3.org/2000/svg">
<path fill-rule="evenodd" clip-rule="evenodd" d="M20.927 6.80384C20.9175 6.83245 20.9127 6.87537 20.9127 6.94213V7.09473C20.9127 7.20441 20.8937 7.28071 20.8507 7.3284C20.9175 7.35701 20.9461 7.4047 20.9461 7.481C20.9461 7.53345 20.9223 7.60021 20.8746 7.67175L20.7506 7.82434L20.7029 7.74328C20.4931 8.06278 20.3357 8.28214 20.2403 8.40136C20.0544 8.6398 19.8588 8.82101 19.6538 8.94976C19.6681 8.92115 19.8732 8.67794 20.2642 8.21061C20.412 8.03894 20.5122 7.87203 20.5694 7.71943C20.5455 7.6479 20.4645 7.5716 20.3262 7.4953C20.1879 7.419 20.1164 7.31886 20.1164 7.19964C20.1497 7.02797 20.2117 6.8706 20.3071 6.72754C20.4025 6.58448 20.5217 6.48434 20.6695 6.41757C20.7363 6.42711 20.784 6.4748 20.8221 6.56063C20.8603 6.64647 20.8937 6.73231 20.927 6.81338V6.80384ZM18.0706 7.25687C17.9561 7.47623 17.8751 7.63836 17.8274 7.74804C17.732 7.93879 17.6366 8.10093 17.546 8.22492C17.4983 8.13431 17.3696 8.05801 17.1693 8.00079C16.9642 7.94356 16.8641 7.85296 16.8641 7.73374C16.8641 7.71466 16.8736 7.67175 16.8879 7.59545L17.3648 6.77523C17.3982 6.80384 17.5222 6.86583 17.7415 6.96598C17.9037 7.03751 18.0134 7.13288 18.0706 7.2521V7.25687ZM17.3362 5.46383C17.2933 5.41137 17.2599 5.34938 17.2265 5.28739C17.1788 5.22539 17.1264 5.20632 17.0691 5.23493C16.9404 5.28262 16.8307 5.37322 16.7496 5.50675C16.7067 5.56874 16.6495 5.70227 16.578 5.90255C16.578 6.00269 16.64 6.08853 16.7687 6.16483C16.8927 6.23636 16.9738 6.29835 17.0072 6.34127C16.8784 6.58925 16.6543 6.86106 16.3348 7.16149C15.9199 7.56207 15.6814 7.8005 15.6147 7.87203C16.1345 7.46192 16.4683 7.18057 16.6161 7.03751C16.8116 6.83722 16.969 6.6274 17.093 6.40804C17.279 6.36989 17.3743 6.28882 17.3743 6.16006C17.3743 6.11238 17.3648 6.05992 17.3505 5.99793C17.3076 5.83579 17.2885 5.73088 17.2885 5.68319C17.2885 5.60212 17.3028 5.52582 17.3362 5.46383ZM20.6981 9.53155C20.7983 9.76998 20.8698 10.0275 20.9175 10.3041C20.9652 10.5807 20.989 10.8382 20.989 11.0766C20.989 11.3437 20.9604 11.6441 20.9032 11.9874C20.846 12.3308 20.7315 12.779 20.5598 13.337C20.3405 13.9855 20.2165 14.3479 20.1927 14.4338C20.0639 14.8439 19.9638 15.2111 19.9018 15.5306C19.7492 16.0075 19.4773 16.4223 19.0958 16.7752C18.9003 16.9469 18.6953 17.09 18.4807 17.1949C18.2661 17.2998 18.0467 17.3522 17.8274 17.3522C17.5746 17.3522 17.298 17.3761 16.9976 17.419C16.2632 17.5287 15.8054 17.5811 15.6195 17.5811C16.1631 17.3809 16.578 17.2283 16.8546 17.1281C17.3743 16.9374 17.7892 16.7514 18.0992 16.5797C18.5474 16.3222 18.9099 16.0504 19.1865 15.7595C19.5107 15.4114 19.7635 14.987 19.9447 14.4862C19.8875 14.4672 19.7921 14.4862 19.6538 14.5292C19.5155 14.5768 19.4154 14.5959 19.3629 14.5959C19.2389 14.5959 19.1435 14.5482 19.072 14.4576C19.0005 14.3003 18.9623 14.1572 18.9623 14.0189C18.9623 13.8377 19.0052 13.6374 19.0911 13.418C19.1769 13.1987 19.258 12.9841 19.3438 12.7743C19.4106 12.7218 19.4869 12.6932 19.5775 12.6932C19.6681 12.6932 19.7492 12.7218 19.8207 12.7838C19.8922 12.841 19.959 12.8983 20.0162 12.9459C20.0734 12.9984 20.1259 13.0509 20.1736 13.1176C20.3214 12.9173 20.4168 12.6837 20.4645 12.4214C20.4788 12.3594 20.4883 12.2879 20.4883 12.2163V12.0542C20.4883 11.8253 20.4597 11.5582 20.4025 11.2483C20.3214 10.8763 20.2642 10.6045 20.2308 10.4424C20.2451 10.4328 20.2976 10.3279 20.3786 10.1276C20.5503 9.70799 20.66 9.51247 20.7077 9.54108L20.6981 9.53155ZM21.9952 16.5559C21.8569 16.5845 21.7091 16.5988 21.5565 16.5988H21.1226C21.0033 16.5988 20.8984 16.6083 20.8126 16.6274C20.6743 16.7085 20.5598 16.8372 20.4692 17.0089C20.3786 17.1806 20.3166 17.4381 20.2737 17.7767L21.5708 17.6956C21.6662 17.5382 21.752 17.357 21.8283 17.1472C21.8522 17.0757 21.9094 16.8801 22 16.5606L21.9952 16.5559ZM14.7992 15.9693C14.8326 16.1267 14.804 16.284 14.7182 16.4414C14.6323 16.5988 14.5227 16.7323 14.3844 16.8325C14.1221 16.9803 13.8455 17.0518 13.5546 17.0518C13.4974 17.0518 13.4354 17.0518 13.3734 17.047C13.3066 17.047 13.216 17.028 13.092 16.9994C12.7821 17.2998 12.4769 17.5335 12.1717 17.7051C11.8665 17.872 11.5279 17.9817 11.1512 18.0246C11.9666 17.543 12.7821 17.0613 13.6071 16.5892C13.7215 16.6608 13.8121 16.6989 13.8741 16.6989C13.9218 16.6989 13.9695 16.6751 14.0076 16.6322C14.0076 16.4223 14.0792 16.2602 14.227 16.141L14.2508 16.4271C14.3224 16.4557 14.4034 16.451 14.494 16.4128C14.5846 16.3747 14.6466 16.3127 14.6753 16.2221L14.7992 15.9741V15.9693ZM18.0753 9.19297C17.9943 9.22158 17.9227 9.2788 17.8655 9.36941C17.7988 9.52678 17.7415 9.67938 17.6843 9.83674C17.5937 9.94642 17.5508 10.0561 17.5508 10.1658C17.5508 10.2373 17.5842 10.347 17.6462 10.4948C17.7129 10.6427 17.7463 10.7571 17.7463 10.8382C17.7463 10.9192 17.732 10.9955 17.6986 11.0718C17.1598 11.9302 16.5255 12.6551 15.7911 13.2464C15.4144 13.5468 15.0377 13.8043 14.6562 14.0189C14.2747 14.2335 13.8503 14.4242 13.3925 14.5959C12.9347 14.7628 12.4912 14.8964 12.0715 14.987C11.6519 15.0776 11.2227 15.1253 10.784 15.1253C10.3453 15.1253 9.86361 15.1062 9.36767 15.0633C8.87172 15.0203 8.40916 14.9536 7.98951 14.863C7.56509 14.7724 7.15021 14.5005 6.74487 14.0571C6.36814 13.6469 6.09156 13.1748 5.91512 12.6455L5.63376 13.6183C5.67668 13.7662 5.77206 13.9998 5.92465 14.3289C5.99618 14.491 6.10587 14.7199 6.2537 15.0156C6.268 15.1062 6.27754 15.1729 6.27754 15.2063C6.27754 15.3255 6.24893 15.4543 6.1917 15.5878C6.09156 15.7881 6.00095 15.9836 5.91035 16.1744C5.61946 16.594 5.35718 16.8992 5.12828 17.09C4.79447 17.3713 4.44635 17.5144 4.0887 17.5144C3.95994 17.5144 3.8598 17.5048 3.79781 17.4858C3.52122 17.4047 3.26371 17.2426 3.02051 16.9994C2.78207 16.7562 2.59609 16.4843 2.46257 16.1791C2.33381 15.8739 2.26705 15.5878 2.26705 15.3255C2.26705 15.0633 2.34335 14.7819 2.50072 14.5196C2.6247 14.3193 2.80591 14.0952 3.04912 13.8472C3.19695 13.6994 3.42585 13.4705 3.74535 13.151C4.19361 12.6741 4.43681 12.2163 4.47973 11.7681C4.41297 12.016 4.29852 12.2402 4.12685 12.4405C4.00286 12.5788 3.81211 12.7552 3.5546 12.9746C3.22079 13.2559 3.02051 13.4324 2.95374 13.4943C2.74392 13.7042 2.57701 13.914 2.46733 14.1238C2.29566 14.3718 2.17644 14.6341 2.10491 14.9202C2.03338 15.2016 2 15.5258 2 15.893C2 16.47 2.09537 16.9898 2.28135 17.4524C2.51025 17.8434 2.75346 18.1486 3.01574 18.368C3.34001 18.6398 3.67382 18.7781 4.01717 18.7781C4.0887 18.7781 4.15546 18.7733 4.20792 18.759C4.26037 18.7447 4.32237 18.7352 4.38436 18.7256C4.73248 18.635 5.02814 18.4729 5.27134 18.2392C5.50978 18.0056 5.7196 17.7147 5.90081 17.357C6.04864 17.0661 6.15832 16.7991 6.22985 16.5654C6.33476 16.2268 6.43968 15.769 6.53505 15.1825L7.20744 15.7833C7.67954 15.9741 8.16595 16.1171 8.66667 16.2077C9.16738 16.2984 9.66333 16.346 10.1497 16.346C10.989 16.346 11.8283 16.2173 12.6724 15.9645C13.5165 15.707 14.3367 15.2969 15.1378 14.7342C15.939 14.1667 16.6447 13.4848 17.2599 12.6789C17.4983 12.2306 17.6366 11.9684 17.6748 11.8873C17.8226 11.5869 17.9466 11.2817 18.0467 10.9765C18.1469 10.6713 18.1993 10.3422 18.1993 9.99888C18.1993 9.73183 18.1564 9.46955 18.0753 9.2025V9.19297ZM6.66381 9.22158C6.63996 9.25019 6.60181 9.2645 6.55412 9.2645C6.47306 9.25496 6.41106 9.25019 6.37291 9.25019C6.24416 9.25019 6.16786 9.32172 6.15355 9.46955L6.06772 10.676C5.95327 10.6474 5.83882 10.4805 5.7196 10.1706C5.60038 9.86059 5.46686 9.70322 5.3238 9.70322C5.29995 9.70322 5.25703 9.71276 5.19027 9.73183C5.11874 9.6603 5.08059 9.55539 5.08059 9.4171C5.08059 9.30742 5.10443 9.19774 5.15212 9.08805C5.17597 9.01652 5.20935 8.97837 5.2475 8.97837C5.27134 8.97837 5.30949 9.00222 5.35718 9.04514C5.40486 9.09282 5.44778 9.1119 5.48116 9.1119C5.57177 9.2025 5.64807 9.31695 5.71483 9.45525C5.8102 9.66507 5.91035 9.87012 6.00572 10.0704C6.06295 9.48386 6.09633 9.18343 6.1011 9.16435C6.15832 8.97361 6.25846 8.84008 6.40629 8.76855C6.60181 8.72086 6.69719 8.81624 6.69719 9.04037C6.69719 9.10236 6.68288 9.16435 6.65904 9.21681L6.66381 9.22158ZM17.031 5.7881C16.9881 5.80718 16.9547 5.7881 16.9213 5.74518C16.8879 5.6975 16.8879 5.66412 16.9213 5.6355C16.9547 5.60689 16.9785 5.6212 16.9928 5.67842L17.031 5.7881ZM20.6123 7.11381V7.01843C20.5885 6.85629 20.5217 6.7943 20.4168 6.84199V6.98028C20.474 7.04227 20.5408 7.08996 20.6123 7.11857V7.11381Z" fill="white"/>
</svg>
