<svg width="24" height="24" viewBox="0 0 24 24" fill="none" xmlns="http://www.w3.org/2000/svg">
<path fill-rule="evenodd" clip-rule="evenodd" d="M22 10.3565C22 11.1169 21.9446 11.7981 21.8337 12.4C21.7228 13.002 21.5248 13.5565 21.2238 14.0634C20.8911 14.6416 20.4079 15.0614 19.7822 15.3149C19.2752 15.5208 18.6653 15.6317 17.9604 15.6317C17.7545 15.6317 17.5881 15.6317 17.4693 15.6159C17.3505 15.608 17.1683 15.5921 16.9228 15.5604C17.4693 15.4258 17.9762 15.2515 18.4594 15.0456C19.0059 14.808 19.497 14.5228 19.9406 14.1901C20.4238 13.8258 20.8198 13.4218 21.1446 12.9704C21.4693 12.5189 21.6752 12.0278 21.7782 11.4812C21.7782 10.8793 21.699 10.3169 21.5485 9.77825C21.398 9.23964 21.1604 8.70103 20.8515 8.14657C20.8515 9.04162 20.8436 9.72281 20.8198 10.1822C20.796 10.6416 20.7564 11.0772 20.6931 11.497C20.6376 11.2594 20.6059 11.006 20.5822 10.7446C20.5663 10.4753 20.5584 10.1901 20.5584 9.88123C20.5584 9.57231 20.5743 9.12082 20.598 8.53468C20.6218 7.94854 20.6376 7.52083 20.6376 7.25945L20.7168 6.82381C21.1129 7.30698 21.4297 7.84559 21.6515 8.45549C21.8812 9.06539 21.9921 9.69908 21.9921 10.3565H22ZM16.3129 6.92679C16.2653 7.28322 16.1782 7.60006 16.0436 7.87729C15.8376 7.94066 15.6158 8.00402 15.3861 8.07531C15.1564 8.1466 14.9426 8.19412 14.7366 8.21788C14.7762 7.92481 14.8079 7.73472 14.8317 7.63175C14.903 7.41789 15.0218 7.25152 15.1881 7.15647C15.5604 7.08518 15.9327 7.00599 16.3208 6.92679H16.3129ZM12.7485 8.12283C12.6139 8.28917 12.4554 8.43173 12.2812 8.55054C12.1069 8.66935 11.8931 8.79606 11.6475 8.92279C11.2198 9.12873 10.8 9.33469 10.3802 9.53271C10.5782 9.20004 11.0139 8.88319 11.6871 8.5822C12.1782 8.36834 12.4871 8.20996 12.6218 8.12283H12.7406H12.7485ZM19.2515 8.19409C18.9743 7.35449 18.6891 6.51488 18.4119 5.66736C18.198 6.40399 18.0792 6.79214 18.0713 6.83967C17.8891 7.56838 17.802 8.2337 17.802 8.83568C17.8653 8.66934 17.9366 8.38422 18.0158 7.98026C18.0951 7.5763 18.1743 7.27527 18.2693 7.09309C18.5307 7.85349 18.7129 8.42383 18.8158 8.81987C18.9188 9.21591 18.9901 9.58817 19.0297 9.94461C18.7287 10.3248 18.5307 10.5624 18.4277 10.6654C18.1822 10.9188 17.9446 11.0773 17.7069 11.1407C17.7782 10.9268 17.8178 10.6971 17.8178 10.4594C17.8178 10.1268 17.7624 9.77824 17.6515 9.42181C17.5881 9.27923 17.4851 9.16837 17.3505 9.105C17.2158 9.03372 17.0653 8.99409 16.899 8.97824C16.6851 9.17626 16.503 9.39806 16.3762 9.63568C16.2416 9.87331 16.1465 10.1505 16.0673 10.4594C15.996 10.7683 15.9564 11.0535 15.9564 11.3149C15.9564 11.5921 15.996 11.8693 16.0673 12.1466C15.4416 12.5347 14.8871 12.8515 14.396 13.0812C13.8178 13.3584 13.2238 13.5961 12.6297 13.7782C11.8772 14.0079 11.1327 14.1189 10.3881 14.1189C9.83366 14.1189 9.29505 14.0634 8.77228 13.9446C8.0198 13.7624 7.44951 13.3902 7.06931 12.8278C6.76832 12.3842 6.56238 11.7584 6.45941 10.9664C6.41188 10.6654 6.36436 10.008 6.30099 8.9941C6.24555 7.98024 6.1505 7.22775 6.02376 6.7525C5.94456 6.93468 5.88911 7.10897 5.85743 7.28323C5.82574 7.45749 5.8099 7.65548 5.8099 7.8931C5.8099 8.13072 5.83366 8.42383 5.87327 8.77234C5.91287 9.12086 5.94456 9.43767 5.96832 9.73866C5.99208 10.0317 6 10.3565 6 10.6971C5.73861 10.903 5.52475 11.1169 5.36634 11.3307C5.20792 11.5446 5.05743 11.7902 4.90693 12.0753C4.76436 12.3525 4.66139 12.5743 4.59802 12.7248C4.54257 12.8753 4.43168 13.2159 4.28119 13.7307C3.86139 13.9367 3.44951 14.1426 3.0297 14.3406C2.53861 14.5941 2.22178 14.9109 2.07921 15.2911C2.02376 15.4575 2 15.608 2 15.7506C2 15.9961 2.05545 16.2337 2.17426 16.4713C2.26139 16.6614 2.41188 16.8674 2.60198 17.0892C2.8 17.311 3.04554 17.5407 3.34653 17.7783C3.59208 17.9605 3.83762 18.1426 4.09109 18.3327C3.67921 17.8733 3.28317 17.4139 2.87921 16.9624C2.6099 16.6456 2.43564 16.3287 2.37228 16.0119C2.55446 15.7822 2.80792 15.5763 3.13267 15.3862C3.33861 15.2674 3.6396 15.1248 4.02772 14.9426C4.41584 14.7684 4.66931 14.6496 4.77228 14.5941C5.19208 14.3802 5.49307 14.1505 5.68317 13.905C5.73069 13.707 5.7703 13.509 5.81782 13.303C5.86535 13.0971 5.88911 12.8832 5.88911 12.6456C5.81782 12.6218 5.73861 12.606 5.65941 12.606C5.55644 12.606 5.42178 12.6297 5.2396 12.6852C5.05743 12.7406 4.93069 12.7644 4.84357 12.7644C4.95446 12.5268 5.14456 12.2654 5.4297 11.9723C5.64357 11.7664 5.86535 11.5525 6.07921 11.3307C6.14257 12.0832 6.26139 12.6931 6.43564 13.1525C6.66535 13.7862 7.02178 14.2694 7.51287 14.61C7.95644 14.8001 8.38416 14.9426 8.79604 15.0218C9.20792 15.1089 9.65149 15.1486 10.1188 15.1486C10.8634 15.1486 11.6 15.0377 12.3366 14.8238C13.0733 14.6099 13.802 14.2931 14.5386 13.8733C15.1881 13.501 15.8614 13.0496 16.5347 12.5189H16.7248C17.0891 12.5189 17.4376 12.4079 17.7782 12.1941C18.1188 11.9723 18.5386 11.5367 19.0535 10.8872C19.1802 10.6258 19.2673 10.3803 19.3228 10.1506C19.3703 9.92085 19.3941 9.66735 19.3941 9.37428C19.3941 9.16042 19.3782 8.96243 19.3545 8.75649C19.3307 8.55847 19.2911 8.36834 19.2436 8.18616L19.2515 8.19409ZM17.398 11.0456C17.398 10.9585 17.398 10.8792 17.3822 10.8238C17.3743 10.7684 17.3426 10.6495 17.2871 10.4753C17.2317 10.3486 17.1525 10.2535 17.0416 10.1901C16.9307 10.1268 16.8119 10.0951 16.6772 10.0951C16.6139 10.1347 16.5584 10.198 16.5109 10.3089C16.4634 10.4119 16.4238 10.4753 16.3921 10.507C16.3525 10.5782 16.3366 10.6733 16.3366 10.7763C16.3366 10.8792 16.3604 10.9822 16.4 11.0614C16.4396 11.1406 16.5188 11.2119 16.6218 11.2674C16.6772 11.3466 16.7485 11.3862 16.8356 11.3862C16.9149 11.3862 17.0099 11.3466 17.1049 11.2674C17.2079 11.1882 17.303 11.1169 17.3901 11.0456H17.398Z" fill="white"/>
</svg>
