<svg width="24" height="24" viewBox="0 0 24 24" fill="none" xmlns="http://www.w3.org/2000/svg">
<path fill-rule="evenodd" clip-rule="evenodd" d="M14.3988 7.91091C14.2925 8.06273 14.1458 8.20443 13.9484 8.32589C13.8016 8.42204 13.6144 8.5182 13.3917 8.60423C13.0526 8.74087 12.7996 8.84715 12.6377 8.918C12.4757 8.98885 12.3289 9.06982 12.2024 9.15079C12.2986 8.99897 12.4352 8.85727 12.6073 8.73075C12.7794 8.60423 12.9717 8.49289 13.1842 8.39674C13.5891 8.2348 13.9939 8.07285 14.3988 7.91091ZM19.1002 12.9868C19.0294 13.1791 18.9585 13.3714 18.8927 13.5587C18.7966 13.7763 18.6599 13.9332 18.4929 14.0192C18.3613 13.9888 18.2146 14.0546 18.0425 14.2216C17.8704 14.3886 17.749 14.4696 17.6781 14.4696C17.582 14.4696 17.4858 14.4089 17.3846 14.2874C17.1265 14.3431 16.8583 14.4696 16.585 14.6619C16.4737 14.7429 16.2358 14.9352 15.8816 15.2439C15.5881 15.4767 15.3451 15.6538 15.1528 15.7652C14.8593 15.9271 14.5759 16.0081 14.3026 16.0081C14.5709 15.917 14.8391 15.7753 15.1022 15.583C15.2794 15.4514 15.5223 15.249 15.831 14.9656C16.2915 14.5506 16.5294 14.3431 16.5344 14.333C16.7925 14.1204 17.0506 13.9585 17.2986 13.837C17.3644 13.8269 17.4605 13.8573 17.5972 13.9231C17.7287 13.9888 17.83 14.0192 17.8958 14.0192C18.002 14.0192 18.0881 13.9585 18.1488 13.837C18.1488 13.7257 18.1741 13.6144 18.2196 13.5081C18.2702 13.4018 18.331 13.336 18.4018 13.3006L18.3411 13.6042C18.4069 13.6194 18.4524 13.6295 18.4727 13.6295C18.579 13.6295 18.665 13.5789 18.7409 13.4727C18.9585 13.1589 19.0749 12.9969 19.0951 12.9868H19.1002ZM21.9899 7.64269L21.8785 7.4352H21.5041C21.003 7.4352 20.4868 7.5516 19.9605 7.78945C19.5455 7.9767 19.1103 8.23986 18.6498 8.57893C18.1893 8.918 17.5263 9.43925 16.6559 10.1326C15.7247 10.8765 15.0769 11.3876 14.7126 11.6609C13.9838 12.2024 13.3158 12.6528 12.7085 13.0071C11.6002 13.6548 10.5121 14.1457 9.43927 14.4747C8.23988 14.8492 7.03543 15.0314 5.82085 15.0314C5.98279 14.8795 6.09413 14.672 6.15992 14.4038C6.15992 14.3937 6.19534 14.1609 6.27126 13.7054C5.89676 13.9939 5.53239 14.2773 5.16802 14.5556C5.05668 14.581 4.94534 14.5911 4.83907 14.5911C4.67713 14.5911 4.53036 14.5607 4.40385 14.4949C4.27227 14.4291 4.16599 14.3229 4.0749 14.166C3.92308 13.7358 3.8168 13.3006 3.76113 12.8552C3.70547 12.4099 3.6751 11.919 3.6751 11.3876C3.68522 11.0536 3.69028 10.7196 3.7004 10.3856C3.71053 10.0516 3.71053 9.71253 3.71053 9.37346C3.71053 9.16091 3.71053 8.93824 3.7004 8.70038C3.69028 8.46253 3.68016 8.25504 3.66498 8.07285C3.57389 8.16395 3.48785 8.29553 3.39676 8.47265C3.34615 8.5688 3.2753 8.72569 3.17915 8.93318L3.21457 12.0202C3.21457 12.5567 3.24494 13.0729 3.30061 13.5688C3.35628 14.0648 3.43725 14.5708 3.54352 15.082C3.6498 15.2945 3.78644 15.4666 3.9585 15.6083C4.13057 15.75 4.31781 15.8208 4.53036 15.8208C4.74292 15.8208 4.94534 15.7753 5.11741 15.6791C5.28947 15.583 5.46154 15.4463 5.62348 15.2641H7.05567C7.46053 15.2641 7.88563 15.254 8.32591 15.2388C8.7662 15.2237 9.13563 15.1933 9.42409 15.1528C10.087 15.0718 10.6893 14.9403 11.2206 14.7631C11.8178 14.5607 12.3543 14.2874 12.8249 13.9382C13.4575 13.6295 14.1609 13.1488 14.9403 12.4909C15.6032 11.9089 16.2662 11.3218 16.9342 10.7297C17.3087 10.416 17.6478 10.1427 17.9565 9.91496C18.3209 9.64674 18.6751 9.41901 19.0142 9.23682C19.7986 8.82184 20.6032 8.61941 21.418 8.61941C21.5901 8.5688 21.7217 8.43723 21.8178 8.21961C21.8583 8.12346 21.919 7.92609 22 7.63763L21.9899 7.64269ZM8.62956 8.01719C8.52328 8.20443 8.34109 8.3765 8.083 8.53844C7.93118 8.63459 7.78441 8.71557 7.64777 8.78136C7.43522 8.87751 7.21761 8.98378 6.98988 9.09006C6.76215 9.2014 6.5749 9.30767 6.4332 9.41395C6.52429 9.23682 6.65081 9.07488 6.82288 8.92812C6.95952 8.81678 7.15182 8.69532 7.39474 8.57387C7.80972 8.38662 8.21964 8.19937 8.63462 8.01719H8.62956ZM3.32085 7.19229C3.32085 7.48581 3.21457 7.74897 3.00709 7.98176C2.69838 8.27528 2.36437 8.41698 2 8.41698C2.05061 8.36638 2.24291 8.24492 2.58198 8.05261C2.84008 7.90585 2.97166 7.76415 2.97166 7.62751C2.97166 7.59715 2.96154 7.55666 2.94636 7.50605H2.75405C2.62247 7.50605 2.52632 7.49593 2.45547 7.47063C2.38462 7.44532 2.32895 7.38965 2.27834 7.29856C2.34413 7.03034 2.4504 6.79249 2.60729 6.57994C2.79453 6.3269 3.00708 6.20544 3.25 6.20544C3.29049 6.26111 3.29049 6.31678 3.25506 6.37751C3.21964 6.43318 3.17915 6.48885 3.13866 6.54957C3.04251 6.56476 2.9413 6.60524 2.84008 6.67103C2.73887 6.73682 2.66296 6.81779 2.61741 6.91395C2.60729 6.95443 2.62247 6.98986 2.65789 7.02528C2.69332 7.05565 2.73381 7.07589 2.77429 7.08601H3.07794C3.18927 7.08601 3.27024 7.12144 3.32085 7.19735V7.19229ZM6.74696 16.7874L6.16498 17.7945C5.90688 17.6326 5.71458 17.5111 5.59312 17.4301C5.36538 17.2783 5.25911 17.1164 5.27935 16.9443L6.0334 16.1903L6.75202 16.7874H6.74696Z" fill="white"/>
</svg>
