<svg width="24" height="24" viewBox="0 0 24 24" fill="none" xmlns="http://www.w3.org/2000/svg">
<path fill-rule="evenodd" clip-rule="evenodd" d="M17.9057 7.89648C17.9196 7.93345 17.9242 7.99353 17.9242 8.07209C17.9242 8.14602 17.9196 8.20609 17.9104 8.24768C17.9011 8.28927 17.8826 8.36321 17.8503 8.46949C17.7532 8.46949 17.6608 8.4926 17.573 8.54343C17.3697 8.65896 17.2357 8.71903 17.1756 8.71903C17.1433 8.71903 17.0786 8.70516 16.9815 8.68206C16.9307 8.64047 16.9076 8.58502 16.9076 8.52494C16.9076 8.48335 16.9168 8.4279 16.9399 8.36783C16.963 8.30775 16.9861 8.24768 17.0092 8.19223C16.9908 8.2523 17 8.30314 17.0416 8.34473C17.0832 8.38632 17.1386 8.4048 17.2126 8.4048C17.2449 8.4048 17.2819 8.39093 17.3327 8.36783C17.3558 8.33548 17.3882 8.26154 17.4205 8.13677C17.4529 8.01201 17.4945 7.93345 17.536 7.89648C17.5407 7.91959 17.5407 7.96118 17.536 8.01201C17.5314 8.06284 17.5268 8.11367 17.5268 8.15526C17.5268 8.2292 17.5776 8.26616 17.6747 8.26616C17.7532 8.26616 17.7994 8.21072 17.8133 8.09981C17.8272 7.98891 17.8549 7.91959 17.9057 7.89648ZM17.536 9.94824C17.4113 10.1839 17.2911 10.415 17.1664 10.6506L16.5379 10.2902C16.561 10.1469 16.6118 10.0083 16.6811 9.8743C16.7505 9.74029 16.8383 9.60627 16.9353 9.47688C17.0647 9.53234 17.1941 9.5878 17.3235 9.64325C17.476 9.73105 17.5499 9.83271 17.536 9.94824ZM22 12.1201C22 11.5333 21.9076 10.9649 21.7227 10.4057C21.5379 9.84657 21.2837 9.33364 20.9649 8.86691C20.8494 9.29205 20.7569 9.73104 20.6969 10.1839C20.6368 10.6368 20.6044 11.0943 20.6044 11.5564C20.6044 11.9861 20.6322 12.402 20.6876 12.8041C20.7431 12.5083 20.7847 12.0462 20.817 11.4131C20.8494 10.78 20.8956 10.3225 20.9649 10.0314C21.2606 10.7015 21.4686 11.2375 21.5841 11.6303C21.6765 11.9492 21.7458 12.2911 21.7874 12.6469C21.7874 12.6701 21.7921 12.707 21.8059 12.7578V12.9981C21.8059 13.3863 21.732 13.7514 21.5841 14.098C21.3946 14.537 21.085 14.9159 20.6599 15.2347C20.4242 15.3318 20.2671 15.3965 20.1885 15.4196C20.0083 15.475 19.842 15.5028 19.6802 15.5028C19.4399 15.5028 19.232 15.4288 19.061 15.2763C18.89 15.1238 18.7699 14.9575 18.7006 14.768C18.6312 14.5786 18.5989 14.3567 18.5989 14.098C18.5989 13.8715 18.6312 13.6081 18.6913 13.3124C18.7144 13.1876 18.7745 12.9473 18.8669 12.5915C19.1257 12.2726 19.3152 11.8891 19.4307 11.4455C19.5277 11.0712 19.5786 10.6322 19.5786 10.1331C19.5786 9.69408 19.5185 9.2597 19.3937 8.82994C19.2689 8.40018 19.1072 8.00277 18.9039 7.63771C18.7514 8.04898 18.622 8.49722 18.5203 8.97319C18.4187 9.44916 18.3078 10.1932 18.1922 11.2052C18.3078 11.0157 18.4187 10.646 18.5157 10.1054C18.6405 9.42606 18.7329 8.99167 18.793 8.80221C18.9778 9.13955 19.1072 9.50924 19.1811 9.90665C19.2551 10.3041 19.2921 10.7477 19.2921 11.2329C19.158 11.4408 18.9455 11.6349 18.6543 11.8151C17.9519 12.2449 17.5545 12.5129 17.4621 12.6192C17.3697 13.0397 17.2033 13.4464 16.9677 13.8438C16.732 14.2412 16.4455 14.597 16.1081 14.9113C15.7708 15.2255 15.4057 15.4889 15.0037 15.7015C14.6017 15.914 14.1904 16.0665 13.7653 16.159L14.7357 16.1035C15.2394 16.1035 15.683 15.9972 16.0665 15.7893C16.4963 15.5536 16.8013 15.2116 16.9815 14.7634C17.037 14.5185 17.1109 14.2828 17.2079 14.0656C17.305 13.8484 17.4298 13.6405 17.5823 13.451C17.7347 13.2615 17.9104 13.0998 18.0998 12.975C18.2893 12.8503 18.5018 12.7625 18.7375 12.7209C18.659 13.0582 18.5758 13.4094 18.4926 13.7745C18.4094 14.1396 18.3678 14.4769 18.3678 14.7911V14.9251C18.3678 14.9852 18.3678 15.036 18.3771 15.0869C18.4094 15.3826 18.4972 15.6506 18.6497 15.8956C18.8022 16.1405 19.0102 16.3022 19.2736 16.39C19.3105 16.39 19.366 16.3946 19.4399 16.4085H19.6155C19.9852 16.4085 20.3133 16.3392 20.5952 16.2052C20.914 16.0527 21.1636 15.817 21.3346 15.5028C21.5887 15.0407 21.7643 14.5 21.8706 13.8854C21.9584 13.3817 22 12.7902 22 12.1201ZM14.366 8.1645C14.3059 8.29389 14.2551 8.39094 14.2181 8.46026C14.158 8.5573 14.0841 8.64972 13.9963 8.73752C13.9224 8.71442 13.8438 8.67744 13.7653 8.62661C13.5296 8.48335 13.4002 8.40942 13.3771 8.39555C13.451 8.09981 13.5896 7.83179 13.793 7.59149C13.9593 7.65157 14.0841 7.69777 14.1719 7.73012C14.3336 7.79019 14.4122 7.87799 14.4122 7.9889C14.4122 8.04897 14.3983 8.10905 14.366 8.1645ZM9.56932 9.25508L9.18115 10.0314C9.1488 10.0083 9.04251 9.96673 8.86229 9.90665C8.68207 9.84658 8.58965 9.77726 8.58965 9.6987C8.58965 9.66173 8.59427 9.62938 8.60813 9.60627L8.97782 8.97781L9.56932 9.25508ZM14.8096 14.4214C14.6802 14.6617 14.5 14.8466 14.2689 14.976C14.0379 15.1054 13.7791 15.17 13.488 15.17C13.4325 15.17 13.354 15.1654 13.2569 15.1516C13.1645 15.1007 13.1137 15.073 13.0998 15.0684C13.0397 15.0268 13.0166 14.9667 13.0351 14.8928C13.0536 14.7495 13.1137 14.6155 13.2107 14.4815C13.3078 14.3475 13.4325 14.2273 13.5804 14.1164C13.5434 14.0656 13.4926 14.0379 13.4325 14.0286C13.3725 14.0194 13.28 14.0148 13.1645 14.0148C13.1322 14.0333 13.1044 14.0471 13.0721 14.061C13.0582 14.0102 13.0721 13.9593 13.1183 13.9085C13.1599 13.8577 13.2061 13.8068 13.2477 13.756C13.3078 13.7144 13.3817 13.6913 13.4695 13.6913C13.5388 13.6913 13.6128 13.7098 13.6959 13.7468C13.7791 13.7837 13.8484 13.8253 13.9039 13.8762C13.9039 13.9917 13.8022 14.1349 13.6035 14.2967C13.4048 14.4584 13.3031 14.5739 13.3031 14.6433C13.3031 14.7126 13.3494 14.7773 13.4418 14.8466C13.4787 14.8512 13.5342 14.8558 13.6081 14.8558C13.8531 14.8558 14.1118 14.7957 14.3752 14.671C14.4908 14.6155 14.6386 14.5323 14.8096 14.4214ZM15.7338 9.44916C15.7338 9.97134 15.5813 10.4473 15.281 10.8725C15.0545 11.1913 14.6987 11.524 14.2181 11.8614C13.4002 12.4344 12.5823 13.0028 11.7689 13.5712C11.6996 13.7144 11.6211 13.9316 11.5333 14.232C11.4455 14.5323 11.3715 14.7542 11.3161 14.902C11.2098 15.1608 11.1035 15.3641 10.9926 15.512C10.8447 15.7015 10.6599 15.8586 10.4381 15.9741C10.073 16.0665 9.68484 16.1312 9.26895 16.1728C8.85305 16.2144 8.42791 16.2329 7.99815 16.2329C8.38632 16.1035 8.67745 16.0065 8.86691 15.9371C9.21811 15.8124 9.50924 15.7015 9.73567 15.5952C10.0545 15.4427 10.3179 15.281 10.5213 15.1146C10.78 14.9066 10.9834 14.6571 11.1312 14.3752C11.2006 14.2505 11.3299 13.9177 11.5287 13.3771C11.7921 12.6516 12.1617 12.1895 12.6377 11.9907C12.5268 11.8383 12.4713 11.658 12.4713 11.4547C12.4713 11.2514 12.5407 10.9787 12.6839 10.6599C12.7902 10.4519 12.8595 10.2994 12.8965 10.207C13.2292 9.90665 13.5758 9.6756 13.9316 9.51386C14.3198 9.33364 14.7172 9.24583 15.1238 9.24583C15.2024 9.24583 15.2856 9.24584 15.3734 9.25508C15.4612 9.2597 15.5444 9.27356 15.6322 9.29204L15.7338 9.44916ZM7.2403 8.73752C7.22643 8.82532 7.21719 8.89464 7.20795 8.95009C7.19871 9.00554 7.16174 9.01478 7.09242 8.97781C7.05545 8.95471 7.02773 8.93623 7.00924 8.92236C6.95379 8.88539 6.90296 8.86691 6.86137 8.86691C6.82902 8.86691 6.79667 8.87615 6.7597 8.89464C6.6719 9.30591 6.58872 9.72181 6.50092 10.1331C6.3854 10.0915 6.27911 9.94824 6.19131 9.70333C6.10351 9.45841 6.00185 9.33826 5.89094 9.33826C5.83549 9.33826 5.78004 9.35211 5.72458 9.37522C5.65065 9.34287 5.61368 9.28743 5.61368 9.20887C5.61368 9.1719 5.62754 9.1072 5.65989 9.01478C5.67375 8.97319 5.68299 8.93161 5.68762 8.89464L5.90019 8.71903C5.98799 8.79759 6.07116 8.91774 6.15897 9.07948C6.26987 9.30129 6.3854 9.51847 6.50092 9.73566C6.53327 9.51385 6.561 9.28742 6.59335 9.06099C6.65342 8.80683 6.76433 8.63123 6.92606 8.52494C7 8.54343 7.06932 8.57116 7.12939 8.60351C7.18946 8.63586 7.22643 8.68207 7.2403 8.73752ZM10.0684 12.6192C10.0684 12.2542 10.0314 11.963 9.95749 11.7412C9.8512 11.4316 9.67098 11.219 9.4122 11.1035C9.26433 11.159 9.14418 11.2375 9.05638 11.3346C8.96858 11.4316 8.89464 11.5564 8.84381 11.6996C8.79298 11.8429 8.75139 11.9907 8.72366 12.134C8.69593 12.2773 8.67283 12.4205 8.65434 12.5638C8.68669 12.6423 8.74677 12.707 8.84381 12.7578C8.94085 12.8087 9.03789 12.8318 9.13494 12.8318C9.20425 12.8087 9.27357 12.744 9.34288 12.6377C9.4122 12.5314 9.46303 12.4667 9.49538 12.4436C9.55083 12.5407 9.59242 12.6238 9.61553 12.6839C9.6756 12.8272 9.70795 12.9658 9.70795 13.1091C9.02403 13.9778 8.2061 14.5924 7.24954 14.9482C6.63956 15.1839 6.00647 15.2994 5.34566 15.2994C4.98059 15.2994 4.61091 15.2625 4.22736 15.1885V15.1516C4.13031 15.1377 4.02403 15.1238 3.91774 15.1007C3.81146 15.0776 3.70518 15.0499 3.59889 15.0129C3.28928 14.902 3.01201 14.6987 2.75786 14.4029C2.48521 14.0841 2.3512 13.7652 2.3512 13.451C2.3512 13.3771 2.3512 13.3216 2.36044 13.2847C2.48983 13.1229 2.62847 12.9797 2.77172 12.8549C2.91497 12.7301 3.08133 12.61 3.26617 12.4991C3.48336 12.3697 3.60351 12.2957 3.63586 12.2819C3.66821 12.268 3.9085 12.1617 4.35675 11.9723C4.6525 11.8429 4.83272 11.7643 4.90203 11.732C5.10074 11.6395 5.27634 11.5518 5.42884 11.464C5.63678 11.3484 5.80314 11.2375 5.92791 11.1405C6.08041 11.0157 6.22366 10.8771 6.35305 10.7246C6.08965 10.9325 5.77542 11.1174 5.41035 11.2699C5.34103 11.293 5.00832 11.4177 4.40296 11.6396C3.97782 11.7921 3.64972 11.9307 3.41405 12.0554C3.06747 12.2403 2.78096 12.4621 2.54529 12.7209C2.37431 12.975 2.24492 13.2153 2.15712 13.451C2.05083 13.7329 2 14.0102 2 14.2828C2 14.5786 2.06932 14.8466 2.20333 15.0869C2.49908 15.5074 2.89187 15.8124 3.38632 16.0111C3.80684 16.1774 4.29667 16.2606 4.86506 16.2606C5.17468 16.2606 5.49815 16.2329 5.84011 16.1821C6.18207 16.1312 6.51941 16.0573 6.85675 15.9649C7.19409 15.8725 7.53604 15.72 7.89187 15.5028C8.24769 15.2856 8.58965 15.0268 8.91775 14.7172C9.24584 14.4076 9.51386 14.0795 9.71257 13.7283C9.91128 13.3771 10.0314 13.0074 10.0684 12.6192ZM15.207 10.1885C14.9991 10.4427 14.7495 10.6691 14.4584 10.8725C14.2366 11.0342 13.9455 11.2052 13.5804 11.39C13.451 11.39 13.3262 11.3623 13.2107 11.3114C13.0952 11.2606 13.0074 11.1774 12.9519 11.0665C13.1368 10.7569 13.3909 10.5305 13.719 10.3826C14.0471 10.2347 14.4122 10.1608 14.8189 10.1608C14.9482 10.1608 15.0776 10.17 15.207 10.1885Z" fill="white"/>
</svg>
