<svg width="24" height="24" viewBox="0 0 24 24" fill="none" xmlns="http://www.w3.org/2000/svg">
<path fill-rule="evenodd" clip-rule="evenodd" d="M17.963 2C17.7729 2.74037 17.2826 3.31066 16.4822 3.71086C15.8819 4.00101 15.1016 4.20111 14.1411 4.31117C13.901 4.27115 13.6608 4.25112 13.4207 4.25112C13.0505 4.25112 12.7104 4.31116 12.4102 4.44122C12.1101 4.57129 11.8499 4.7814 11.6198 5.09156C11.6198 4.85144 11.7499 4.5913 12.01 4.32117C12.2701 4.05103 12.5303 3.78089 12.7804 3.53076C12.9405 3.56078 13.1306 3.5808 13.3507 3.59081C13.5708 3.60081 13.7909 3.61081 14.001 3.61081C14.5613 3.61081 15.1016 3.55078 15.6218 3.43072C16.1021 3.30066 16.5423 3.12057 16.9325 2.90046C17.3227 2.68035 17.6728 2.3802 17.963 2.01001V2ZM20.2241 5.43172C20.2341 5.52177 20.2441 5.61182 20.2441 5.70186V5.97199C20.2441 6.64232 20.1441 7.30266 19.944 7.96299C19.7439 8.62332 19.4537 9.27364 19.0835 9.91396C18.2931 11.0345 17.3627 11.985 16.2921 12.7654C15.2216 13.5458 14.091 14.086 12.9005 14.3962C12.9005 15.8369 12.6503 17.2076 12.1401 18.4982C11.8899 19.1486 11.5498 19.7289 11.1296 20.2391C10.7094 20.7494 10.1791 21.1996 9.53877 21.5998C9.09855 21.8699 8.57829 22 7.97799 22C7.60781 22 7.22762 21.95 6.85743 21.8399C6.48725 21.7299 6.14708 21.5898 5.85693 21.4197C5.02652 20.8994 4.44623 20.109 4.11606 19.0385C3.87594 18.2481 3.75588 17.2276 3.75588 15.977C3.75588 15.4967 3.81591 15.0565 3.94598 14.6563C4.07604 14.2561 4.26614 13.8459 4.51626 13.4157C4.71636 13.0855 4.9865 12.7254 5.31666 12.3352C5.56679 12.045 5.88695 11.6949 6.27714 11.2947C6.5873 10.9745 6.90746 10.6343 7.24763 10.2741C7.5878 9.91396 7.87794 9.57378 8.11806 9.25362C8.42822 8.86343 8.66834 8.48325 8.85843 8.10306C9.04853 7.72287 9.16859 7.32266 9.23862 6.89244C9.24863 6.98249 9.25863 7.12257 9.25863 7.29265C9.25863 7.64283 9.1986 7.983 9.08855 8.32317C8.97849 8.66334 8.81841 8.98349 8.62832 9.28364C8.43822 9.58379 8.15808 9.92397 7.7979 10.3142C7.67784 10.4442 7.36769 10.7644 6.87744 11.2746C6.44723 11.7049 6.13707 12.025 5.93697 12.2351C5.5868 12.6053 5.30666 12.9455 5.09655 13.2556C4.62632 13.986 4.3962 14.8064 4.3962 15.6968C4.3962 16.5273 4.54628 17.2576 4.83642 17.908C5.12657 18.5583 5.60681 19.0785 6.27714 19.4787C6.71736 19.7589 7.20761 19.8989 7.75788 19.8989C8.16809 19.8989 8.5883 19.8189 9.01851 19.6688C9.44873 19.5188 9.82892 19.3087 10.1791 19.0585C10.8094 18.4982 11.2997 17.948 11.6598 17.3977C12.1001 16.7073 12.3202 16.027 12.3202 15.3767C12.1201 15.0665 11.97 14.8464 11.8599 14.6963C11.5298 14.2061 11.3097 13.8059 11.2096 13.5057C11.1096 13.2056 11.0595 12.9455 11.0595 12.7154C11.0595 12.5153 11.0996 12.3052 11.1696 12.085C11.2396 11.8649 11.3497 11.6148 11.4797 11.3347C11.5498 11.6848 11.7199 11.945 11.99 12.1251C12.2601 12.3052 12.5903 12.3952 12.9805 12.3952C13.1406 12.3952 13.2706 12.3952 13.3607 12.3752C13.4507 12.3652 13.5808 12.3252 13.7409 12.2551L14.2011 12.0951C14.3312 11.4647 14.4812 10.8044 14.6513 10.1041C14.8214 9.40371 15.0115 8.80341 15.2416 8.29315C15.5518 7.62282 15.8919 7.10256 16.2821 6.71236C16.7624 6.24213 17.3527 5.93197 18.043 5.77189C18.5933 5.53177 19.2136 5.41171 19.924 5.41171C20.054 5.42171 20.1541 5.43172 20.2241 5.43172ZM19.4037 7.43272C18.9735 7.43272 18.5133 7.53277 18.023 7.74288C17.5328 7.95298 17.0625 8.14307 16.6223 8.33317C16.092 8.65333 15.6818 9.15358 15.4017 9.83392C15.2116 10.3042 15.0715 10.9145 14.9615 11.6748C16.4422 10.6343 17.2926 10.024 17.5028 9.85393C18.4532 9.05353 19.0835 8.24313 19.4037 7.43272Z" fill="white"/>
</svg>
