<svg width="24" height="24" viewBox="0 0 24 24" fill="none" xmlns="http://www.w3.org/2000/svg">
<path fill-rule="evenodd" clip-rule="evenodd" d="M17.3094 7.93374L17.2769 7.96633C17.1954 7.90119 17.1249 7.8686 17.0597 7.8686C16.9674 7.8686 16.8426 7.9826 16.6851 8.20519C16.5277 8.42777 16.392 8.55807 16.2671 8.59607C16.0662 8.69922 15.8599 8.79695 15.6591 8.9001C15.7025 8.85124 15.9251 8.66666 16.3322 8.35721C16.62 8.13463 16.8046 7.91204 16.8751 7.69489C16.8697 7.68946 16.7828 7.63517 16.6254 7.54288C16.5223 7.48316 16.4734 7.41257 16.4734 7.32571C16.5548 7.20085 16.6363 7.07599 16.7286 6.94027C16.8208 6.80454 16.9186 6.71769 17.0271 6.67426C17.2172 6.69597 17.3094 6.80997 17.3094 7.01084C17.3094 7.07599 17.2986 7.1357 17.2823 7.18999C17.266 7.24428 17.2334 7.29857 17.19 7.34743C17.3474 7.41801 17.4289 7.53744 17.4289 7.70574C17.4289 7.73288 17.4235 7.77089 17.4072 7.81432C17.3909 7.85775 17.3583 7.89574 17.3094 7.93374ZM17.8306 8.40064C17.7872 8.43864 17.7438 8.50922 17.7058 8.62322C17.6678 8.73723 17.6243 8.80237 17.5809 8.82409C17.494 8.82409 17.4452 8.80238 17.4289 8.75894V8.60694C17.4289 8.53636 17.418 8.48207 17.3963 8.45493C17.3529 8.51465 17.3149 8.58522 17.2823 8.67208C17.2497 8.75894 17.2226 8.84037 17.2009 8.9218C17.1574 8.94895 17.1194 8.9761 17.0814 8.99238C17.0434 9.00867 17.0109 9.01952 16.9729 9.01952C16.924 9.01952 16.8806 9.00324 16.8426 8.9761V8.75894H16.7774C16.7774 8.79695 16.7611 8.85124 16.734 8.93267C16.6851 9.06839 16.658 9.16069 16.658 9.20412C16.658 9.27469 16.6797 9.33984 16.7231 9.3887C16.7503 9.39412 16.7937 9.39955 16.8534 9.39955C16.9674 9.39955 17.1303 9.34527 17.3312 9.23669C17.532 9.12811 17.6895 9.07381 17.798 9.07381C17.8035 9.03038 17.8198 8.96524 17.8469 8.87295C17.874 8.78065 17.8849 8.70465 17.8849 8.63951C17.8849 8.54722 17.8686 8.46578 17.8306 8.40064ZM21.9457 11.3974C21.8806 10.8382 21.7503 10.3279 21.5548 9.86644C21.3594 9.40499 21.0988 8.99781 20.7731 8.65036C20.6862 9.10639 20.6156 9.56784 20.5668 10.0402C20.5179 10.5125 20.4908 10.9739 20.4908 11.4299C20.4908 11.9728 20.5288 12.5212 20.6102 13.0803C20.6156 12.9989 20.6482 12.3529 20.7079 11.1368C20.7296 10.6753 20.7731 10.2845 20.8382 9.97501C21.0174 10.2573 21.1802 10.545 21.316 10.8328C21.4517 11.1205 21.5603 11.4245 21.6308 11.734C21.7014 12.0434 21.7394 12.3311 21.7394 12.5917C21.7394 12.9772 21.6797 13.3301 21.5548 13.6558C21.3214 14.2584 21.0065 14.7741 20.5993 15.2085C20.2302 15.6048 19.7742 15.9414 19.2313 16.2074C18.7915 16.4245 18.2486 16.6363 17.6026 16.8371C17.2334 16.9511 16.6906 17.114 15.9739 17.3257C16.6743 17.2551 17.4017 17.1791 18.1564 17.0977C18.911 17.0163 19.5516 16.886 20.089 16.7068C20.4745 16.4679 20.8056 16.1422 21.0879 15.7296C21.3214 15.3876 21.5223 14.9804 21.696 14.5027C21.8969 13.8078 22 13.0858 22 12.342C22 12.3149 22 12.1846 21.9891 11.9565C21.9783 11.7285 21.9674 11.544 21.9457 11.3974ZM14.3996 8.18348C14.3779 8.37349 14.3344 8.54721 14.2638 8.70465C14.1933 8.86209 14.101 9.00324 13.9761 9.1281C13.9164 9.0901 13.797 9.03582 13.6069 8.96524C13.3192 8.85667 13.1726 8.73179 13.1726 8.59607C13.2541 8.41691 13.3355 8.23234 13.4224 8.04233C13.4875 7.91746 13.5581 7.81974 13.6287 7.74916C13.8458 7.85231 14.0087 7.92833 14.1227 7.98262C14.2367 8.03691 14.329 8.10205 14.3996 8.18348ZM19.4919 11.6145C19.4919 11.0282 19.3941 10.469 19.1987 9.93158C19.0033 9.39412 18.7264 8.91638 18.3735 8.49835C18.3246 8.84037 18.2378 9.36154 18.1238 10.0727C18.0369 10.6808 17.9935 11.2128 17.9935 11.6688C17.9935 12.0326 18.0206 12.3692 18.0695 12.6786H18.1672C18.1835 12.5754 18.2269 12.114 18.2975 11.2888C18.3464 10.7513 18.4061 10.2953 18.4712 9.90986C18.7155 10.3225 18.9001 10.7459 19.0195 11.1748C19.139 11.6037 19.1987 12.0597 19.1987 12.5374C19.1987 12.7275 19.1878 12.9175 19.1661 13.1129C19.0304 13.5038 18.8621 13.8187 18.6667 14.0575C18.4007 14.3887 18.0966 14.557 17.7546 14.557C17.5592 14.4538 17.418 14.2693 17.3312 13.9924C17.2877 13.8458 17.2172 13.6286 17.1249 13.3301C16.886 13.3681 16.7014 13.5309 16.5711 13.8187C16.5005 13.9761 16.3974 14.2258 16.2671 14.557C16.0499 15.0836 15.7025 15.5342 15.2248 15.9034C14.8556 16.1857 14.3616 16.4462 13.7481 16.6851C13.6178 16.734 13.1021 16.9077 12.1954 17.2063C12.3637 17.2063 12.6026 17.2063 12.9121 17.2171C13.2215 17.2226 13.4549 17.228 13.6069 17.228C13.645 17.228 13.7861 17.228 14.0413 17.2171C14.2964 17.2117 14.5081 17.1954 14.6819 17.1737C15.2519 17.0706 15.7242 16.7123 16.0934 16.0879C16.3594 15.5505 16.6308 15.013 16.8969 14.4701C16.9891 14.5298 17.0651 14.6276 17.114 14.7741C17.1412 14.8447 17.1737 14.9804 17.2009 15.1759C17.2606 15.241 17.3583 15.355 17.494 15.5233C17.6243 15.6536 17.7492 15.7188 17.8741 15.7188C17.9012 15.7188 17.9446 15.7133 18.0043 15.6971C18.1618 15.6482 18.3246 15.545 18.4929 15.393C18.5635 15.3279 18.7047 15.1867 18.9164 14.9696C19.1281 14.5081 19.2747 13.9924 19.3616 13.4278C19.4484 12.8632 19.4919 12.2606 19.4919 11.6145ZM11.848 8.61779C11.696 8.83494 11.5005 9.03582 11.2617 9.21497C11.0879 9.34526 10.8491 9.49184 10.5451 9.66014C10.2845 9.785 10.0239 9.90986 9.7633 10.0402C9.50271 10.1704 9.26384 10.3116 9.04669 10.4636C9.19327 10.2464 9.38871 10.0456 9.63301 9.86644C9.81216 9.73072 10.051 9.57871 10.3496 9.42127C10.6048 9.2964 10.8545 9.17697 11.1097 9.05211C11.392 8.90553 11.6363 8.76437 11.848 8.61779ZM16.9729 10.2247C16.7774 10.3822 16.5765 10.4908 16.3648 10.5396C16.1531 10.5885 15.8979 10.6156 15.5939 10.6156C15.5071 10.6156 15.3713 10.6156 15.1813 10.6048C14.9913 10.5993 14.8502 10.5939 14.7579 10.5939C14.7362 10.5939 14.6439 10.5939 14.481 10.6048C14.3181 10.6102 14.1824 10.6265 14.0738 10.6482C13.6992 10.9033 13.4169 11.2617 13.2378 11.7231C13.0858 12.1194 13.0098 12.5972 13.0098 13.1563C13.0098 13.4658 13.0315 13.7698 13.0749 14.0684C12.646 14.4647 12.2552 14.7796 11.8914 15.013C11.4625 15.279 11.0174 15.4745 10.5559 15.5993C10.2953 15.6428 10.0347 15.6645 9.77416 15.6645C9.45385 15.6645 9.14984 15.621 8.86211 15.5396C8.57438 15.4582 8.32465 15.3225 8.12378 15.1433C7.81976 14.709 7.61346 14.2313 7.49946 13.7101C7.38545 13.1889 7.33116 12.5917 7.33116 11.9186C7.33116 11.0011 7.29859 10.2845 7.22801 9.77414C7.15744 9.26383 7.06515 8.84037 6.95114 8.49835C6.86971 8.6015 6.79913 8.72093 6.73941 8.86751C6.6797 9.01409 6.62541 9.15524 6.58198 9.29096C6.72856 9.82842 6.83713 10.4962 6.90771 11.3051C6.97828 12.114 7.04886 12.8795 7.11401 13.6124C7.2063 14.4593 7.35288 15.1542 7.54832 15.6971C7.68404 15.9576 7.87405 16.1802 8.11835 16.3648C8.36265 16.5494 8.59066 16.658 8.80782 16.696C9.02497 16.734 9.19327 16.7557 9.30727 16.7665C9.42128 16.7774 9.52986 16.7828 9.63301 16.7828C9.90988 16.7828 10.1868 16.7503 10.4636 16.6851C10.7405 16.62 11.0065 16.5331 11.2508 16.4245C11.5928 16.2671 11.9294 16.0608 12.2606 15.8056C12.5646 15.583 12.8686 15.3225 13.1726 15.0239L13.4549 15.8382C13.4767 15.7568 13.4875 15.6808 13.4875 15.5993C13.4875 15.5342 13.4658 15.4093 13.4278 15.2302C13.3898 15.051 13.3681 14.9099 13.3681 14.8067C13.6287 14.5461 13.9598 14.1498 14.3561 13.6124C14.633 13.2432 14.8176 12.9989 14.9099 12.874C15.1922 12.5103 15.4582 12.2063 15.7134 11.962C16.0337 11.658 16.3594 11.4245 16.6906 11.2562C16.7557 11.0879 16.8208 10.9142 16.8914 10.7242C16.962 10.5342 16.9891 10.3713 16.9729 10.2247ZM5.72421 15.0456C5.57763 15.4799 5.35505 15.8545 5.05103 16.1748C4.71987 16.5277 4.34528 16.7448 3.93268 16.8263H3.75896C3.49294 16.8263 3.28122 16.81 3.12378 16.772C2.96634 16.734 2.81976 16.6471 2.67318 16.5005C2.22258 15.9088 2 15.241 2 14.5027C2 14.177 2.04886 13.8458 2.15201 13.5038C2.26059 13.1943 2.43431 12.8469 2.67318 12.4614C2.77633 12.304 3.00434 11.9674 3.35722 11.4517C3.63409 11.0554 3.84039 10.7188 3.97611 10.4528C4.17155 10.0673 4.29642 9.70357 4.34528 9.35612C4.36156 9.48642 4.36699 9.58413 4.36699 9.64927C4.36699 9.86643 4.32899 10.089 4.25299 10.317C4.17698 10.545 4.07926 10.7731 3.9544 11.0011C3.82953 11.2291 3.66667 11.4951 3.4658 11.7991C3.29207 12.0543 3.11835 12.3149 2.94463 12.5809C2.7709 12.8469 2.64061 13.0912 2.55375 13.3083C2.43974 13.5907 2.38002 13.8458 2.38002 14.0792C2.38002 14.367 2.43974 14.6384 2.5646 14.8882C2.68947 15.1379 2.90662 15.3985 3.22693 15.6753C3.37894 15.7188 3.52552 15.7405 3.6721 15.7405C3.91097 15.7405 4.13355 15.697 4.33442 15.6048C4.53529 15.5125 4.73073 15.3767 4.92074 15.1976C5.12161 14.9424 5.3279 14.6873 5.53963 14.4267C5.6645 14.2313 5.72421 14.0467 5.72421 13.8729C5.72421 13.7644 5.69164 13.6395 5.62649 13.4929C5.53963 13.2921 5.44734 13.1292 5.35505 13.0043C5.23018 12.836 5.08903 12.7166 4.92074 12.646C4.79587 12.5809 4.66015 12.5483 4.50814 12.5483C4.26927 12.5483 4.07926 12.6134 3.93268 12.7437C3.84039 12.836 3.74267 12.9283 3.65038 13.0152C3.65038 12.6406 3.66667 12.3746 3.70467 12.2226C3.77524 11.9131 3.93811 11.696 4.18241 11.582C4.29642 11.4951 4.43757 11.4517 4.59501 11.4517C4.69815 11.4517 4.81216 11.468 4.94245 11.506C5.07275 11.544 5.19761 11.5765 5.32248 11.6037C5.57763 11.7828 5.75136 12 5.85451 12.2497C5.95765 12.4994 6.00651 12.7817 6.00651 13.0912C6.00651 13.4006 5.96308 13.7752 5.87079 14.2312C5.7785 14.6873 5.72964 14.9587 5.72421 15.0456ZM4.71444 13.5581C4.63301 13.4712 4.54072 13.3898 4.42671 13.3138C4.3127 13.2378 4.1987 13.1781 4.08469 13.1346L3.7481 13.7209C3.65581 13.8132 3.60695 13.9055 3.60695 13.9924C3.60695 14.0955 3.69924 14.1987 3.88925 14.3073C4.12812 14.443 4.26384 14.5298 4.29099 14.557C4.36156 14.4647 4.42671 14.3453 4.481 14.1987C4.53529 14.0521 4.61129 13.8404 4.71444 13.5581ZM17.0271 7.26057V7.19542C17.0217 7.15742 17 7.1357 16.9674 7.11941C16.9349 7.10312 16.9023 7.09227 16.8751 7.07599L16.8426 7.1737L17.0271 7.26057ZM15.0945 11.7014C14.8122 12.076 14.5299 12.4397 14.2476 12.7872C13.9381 13.1618 13.6232 13.5201 13.3029 13.8621C13.3084 13.8187 13.3138 13.7535 13.3138 13.6667C13.3138 13.6504 13.3084 13.5309 13.2921 13.3029C13.2758 13.0749 13.2704 12.9175 13.2704 12.8306C13.2704 12.6515 13.2921 12.4886 13.3301 12.3529C13.3681 12.2171 13.4387 12.0868 13.5418 11.9728C13.6721 11.848 13.8132 11.7665 13.9598 11.7285C14.1064 11.6905 14.2964 11.6688 14.519 11.6688C14.7144 11.6688 14.9045 11.6797 15.0945 11.7014Z" fill="white"/>
</svg>
