<svg width="24" height="24" viewBox="0 0 24 24" fill="none" xmlns="http://www.w3.org/2000/svg">
<path fill-rule="evenodd" clip-rule="evenodd" d="M22 12.4104C22 13.3953 21.9111 14.2777 21.7401 15.0506C21.5417 15.9535 21.2202 16.7264 20.7825 17.3762C20.4884 17.7934 20.1395 18.1354 19.7223 18.3885C19.3051 18.6416 18.8605 18.7715 18.3748 18.7715C17.9371 18.7715 17.554 18.6963 17.2257 18.539C16.8495 18.3543 16.5622 18.0807 16.3639 17.7182C16.2544 17.4925 16.1724 17.2326 16.1176 16.9453C16.0629 16.658 16.0356 16.3707 16.0356 16.0903C16.0356 15.7004 16.0698 15.3242 16.1313 14.9617C16.1929 14.5992 16.2955 14.2161 16.4323 13.8057C16.0834 13.8947 15.7893 14.0725 15.5363 14.3324C15.2832 14.5923 15.0369 15.0506 14.7839 15.7073C14.5308 16.3639 14.3393 16.7948 14.2025 17.0068C13.9289 17.4172 13.5527 17.7045 13.067 17.8687C12.7182 17.9849 12.3557 18.067 11.9795 18.1081C11.6033 18.1491 11.1655 18.1696 10.673 18.1696C10.5021 18.1696 10.249 18.1696 9.92066 18.1559C9.59234 18.1423 9.35294 18.1423 9.2093 18.1423C9.94118 17.9713 10.5226 17.8071 10.9603 17.6498C11.5964 17.4309 12.171 17.171 12.684 16.87C13.2927 16.5144 13.7852 16.1382 14.1477 15.7483C14.6129 15.249 14.9001 14.7155 15.0027 14.1614C15.1053 13.6074 15.3858 13.1696 15.844 12.8482C17.1368 11.9453 17.8071 11.4665 17.8413 11.4118C17.8413 10.461 17.7934 9.6539 17.6908 8.99042C17.5609 8.14911 17.342 7.41039 17.0205 6.77428C16.8495 7.21203 16.699 7.91655 16.5828 8.89466C16.4665 9.87278 16.3297 10.5841 16.1724 11.0287C16.1724 10.0506 16.2681 9.0725 16.4528 8.08071C16.6375 7.08892 16.9111 6.15184 17.2668 5.26949C17.6019 5.89877 17.8687 6.59645 18.0534 7.36936C18.238 8.14227 18.3338 8.91518 18.3338 9.70177C18.3338 10.3037 18.2791 10.8509 18.1765 11.3502C18.0739 11.8495 17.896 12.3352 17.6498 12.8071C17.2394 13.0602 16.9248 13.3885 16.7127 13.7852C16.5007 14.1819 16.3912 14.6197 16.3912 15.0917C16.3912 15.5636 16.4733 15.9672 16.6443 16.3502C16.8153 16.7332 17.0889 17.0137 17.472 17.1847C17.725 17.3146 18.0191 17.3762 18.3475 17.3762C18.6758 17.3762 18.9767 17.3215 19.2709 17.2052C19.565 17.0889 19.8454 16.9316 20.0985 16.7196C20.591 16.2886 20.9603 15.7756 21.2066 15.1737C21.4528 14.5718 21.5759 13.9357 21.5759 13.2586C21.5759 12.6908 21.5007 12.1573 21.357 11.658C21.186 10.7893 20.9124 10.0301 20.5362 9.37346C20.3242 10.6936 20.119 12.0205 19.9207 13.3406C19.9207 12.0274 19.948 10.9398 20.0096 10.0711C20.0711 9.20246 20.2216 8.38167 20.4679 7.59508C20.9398 8.25171 21.316 8.99726 21.5896 9.83173C21.8632 10.6662 22 11.528 22 12.4104ZM15.4063 10.5773C15.3242 10.6047 15.2627 10.6799 15.2285 10.7962C15.1532 11.0424 15.0711 11.1724 14.9822 11.1792C14.9001 11.1792 14.8454 11.1724 14.8181 11.1518C14.7907 11.1313 14.777 11.104 14.777 11.0698C14.777 11.0424 14.7907 10.9877 14.8181 10.9056C14.8454 10.8235 14.8591 10.762 14.8591 10.7278C14.8591 10.6936 14.8454 10.6525 14.8181 10.6047C14.7155 10.6594 14.6402 10.8099 14.5923 11.0561C14.5445 11.3023 14.4077 11.4049 14.1888 11.3707C14.0999 11.3365 14.052 11.2818 14.052 11.2066C14.052 11.1724 14.0588 11.1108 14.0793 11.0287C14.0999 10.9466 14.093 10.8988 14.0657 10.8782C14.0109 10.9672 13.9631 11.0561 13.9152 11.1382C13.8947 11.1929 13.881 11.2544 13.8605 11.316C13.8399 11.3776 13.8331 11.446 13.8331 11.5075C13.8331 11.6785 13.8878 11.788 13.9973 11.8358C14.2093 11.8016 14.3871 11.7606 14.5376 11.7196C14.6881 11.6785 14.8933 11.617 15.1601 11.5349C15.2627 11.3502 15.3311 11.2134 15.3653 11.1108C15.3995 11.0082 15.42 10.8919 15.42 10.7551C15.42 10.6731 15.42 10.6115 15.4063 10.5773ZM9.1409 8.5937C9.21614 8.34747 9.25034 8.10123 9.25034 7.85499C9.25034 7.63611 9.21614 7.41723 9.15458 7.19151C9.09302 6.9658 8.99726 6.78796 8.86731 6.65116C8.75103 6.74008 8.68947 6.84268 8.68947 6.95212C8.68947 7.01368 8.70999 7.09576 8.75787 7.19836C8.77839 7.25308 8.81259 7.342 8.86731 7.46512C8.92202 7.58824 8.95622 7.69084 8.96306 7.76608C8.9699 7.84132 8.97674 7.95759 8.97674 8.11491C8.97674 8.38851 8.92886 8.66895 8.8331 8.94938C8.73735 9.22982 8.62107 9.47606 8.48427 9.67442C8.62107 9.53078 8.73735 9.35978 8.83994 9.16826C8.94254 8.97674 9.0383 8.78522 9.1409 8.5937ZM15.5431 5.35157L15.4063 5.16005C14.4282 5.31737 13.7031 5.48153 13.2175 5.65253C12.4514 5.93296 11.8427 6.36388 11.3981 6.93844C11.3776 7 11.2339 7.29412 10.9603 7.81395C10.7688 8.17647 10.673 8.48426 10.673 8.7305C10.673 8.88782 10.7004 9.02463 10.762 9.15459C10.8235 9.28454 10.9193 9.40766 11.0561 9.52394C10.6252 9.81122 10.3105 10.1737 10.1122 10.6047C9.91382 11.0356 9.81122 11.4938 9.81122 12C9.81122 12.1642 9.8249 12.3352 9.85226 12.5198C9.5513 12.7114 9.36662 12.8208 9.30506 12.8482C8.94938 13.0328 8.60739 13.1217 8.27907 13.1217C8.14227 13.1217 7.98495 13.1012 7.80027 13.0534C7.54719 12.6498 7.28728 12.2531 7.0342 11.8495C7.0342 11.9316 7.00684 11.9795 6.95212 12C6.87004 12.13 6.81532 12.2531 6.78112 12.3694C6.74692 12.4856 6.73324 12.6224 6.73324 12.7661C6.73324 13.0328 6.81532 13.3338 6.97948 13.6689C7.02736 13.7715 7.19152 14.052 7.47196 14.5171C7.49248 14.5923 7.49932 14.6881 7.49932 14.8181C7.49932 15.2011 7.32832 15.6046 6.97948 16.0219C6.8632 16.1587 6.53488 16.487 5.99453 17.0068C5.80301 17.1436 5.58413 17.2462 5.33789 17.3215C5.09166 17.3967 4.83858 17.4309 4.5855 17.4309C4.30506 17.4309 4.0383 17.3899 3.79207 17.3078C3.38851 17.0821 3.07387 16.7948 2.83447 16.446C2.56772 16.0629 2.43776 15.6662 2.43776 15.2558C2.43092 15.2011 2.42408 15.1122 2.42408 14.9959C2.42408 14.5103 2.56772 14.0588 2.86183 13.6416C3.04651 13.3611 3.27223 13.0944 3.54583 12.8482C3.60055 12.7934 3.76471 12.6498 4.0383 12.4241C4.25718 12.2326 4.4829 12.0342 4.7223 11.829C4.9617 11.6238 5.15321 11.4323 5.31053 11.2613C5.50205 11.0424 5.66621 10.8098 5.79617 10.5704C5.92613 10.331 6.02189 10.0711 6.07661 9.79753C5.91929 10.2284 5.64569 10.632 5.25581 11.0151C5.11901 11.1518 4.72914 11.4733 4.07934 11.9726C3.55267 12.3762 3.16963 12.7113 2.93023 12.9849C2.56772 13.3953 2.33516 13.8331 2.23256 14.2982C2.07524 14.8728 2 15.4268 2 15.9672C2 16.4665 2.07524 16.9248 2.23256 17.3352C2.38988 17.7456 2.6498 18.0807 3.01231 18.3475C3.39535 18.6758 3.87414 18.8399 4.4487 18.8399C4.69494 18.8399 4.94118 18.8057 5.18741 18.7305C5.64569 18.5869 6.04925 18.3406 6.40492 17.9918C6.70588 17.6977 6.97948 17.3215 7.22572 16.8564C7.43776 16.4733 7.61559 16.0356 7.77291 15.5431C7.90287 15.1327 8.01231 14.6744 8.10123 14.1751C8.15595 14.1819 8.24487 14.2025 8.36115 14.2298H8.51163C8.70315 14.2298 8.88782 14.1956 9.06566 14.1341C9.2435 14.0725 9.44186 13.9699 9.6539 13.8399C9.86594 13.71 10.1053 13.5595 10.3584 13.4022C10.6115 13.2449 10.844 13.1286 11.0561 13.0534C11.1929 13.0192 11.357 12.9713 11.5486 12.9234C11.7401 12.8755 11.87 12.8345 11.9316 12.8071L12.4514 11.4665C12.3694 11.4665 12.2257 11.4665 12.0137 11.4802C11.8016 11.4938 11.6443 11.4938 11.5349 11.4938C11.2955 11.4938 11.0766 11.4733 10.8782 11.4323C10.6799 11.3912 10.5089 11.3228 10.3721 11.2339C11.446 10.4131 12.5267 9.59234 13.6142 8.77839C14.223 8.25171 14.6813 7.74555 14.9822 7.25992C15.3584 6.66484 15.5431 6.03557 15.5431 5.35841V5.35157ZM6.14501 14.1614C6.09029 14.3598 6.00821 14.5513 5.89877 14.736C5.78933 14.9207 5.65937 15.0985 5.50205 15.2695C5.24897 15.1806 4.9959 15.0848 4.74966 14.9822C4.45554 14.8386 4.32558 14.6676 4.35294 14.4761L5.11901 13.368L6.14501 14.1614ZM14.8591 6.54172C14.1272 6.54172 13.4979 6.64432 12.9576 6.85636C12.3078 7.10944 11.8222 7.50615 11.4938 8.04651C11.5759 8.20383 11.7196 8.3201 11.9316 8.40902C12.1436 8.49794 12.301 8.5595 12.4104 8.5937C13.2312 8.01231 13.7579 7.61559 13.9973 7.41723C14.2914 7.16416 14.5787 6.87004 14.8591 6.54172Z" fill="white"/>
</svg>
