<svg width="24" height="24" viewBox="0 0 24 24" fill="none" xmlns="http://www.w3.org/2000/svg">
<path fill-rule="evenodd" clip-rule="evenodd" d="M15.035 5.56818C15.0127 5.62784 14.9754 5.70241 14.9232 5.7919C14.871 5.88138 14.8188 5.95595 14.7666 6.02307C14.349 6.39592 14.0134 6.68675 13.7524 6.8881C13.2752 7.26841 12.865 7.49958 12.5145 7.5816C12.6637 7.45483 12.9172 7.26096 13.2752 7.00741C13.8643 6.59727 14.2446 6.21695 14.4236 5.85901C14.1775 5.7919 14.0209 5.7397 13.9538 5.69495C13.8867 5.65767 13.8345 5.5831 13.7823 5.4787C13.8121 5.2699 13.8941 5.08348 14.0209 4.91196C14.1477 4.74045 14.3043 4.63604 14.4832 4.59875C14.7218 4.62858 14.8412 4.77773 14.8412 5.03873C14.8188 5.15805 14.789 5.2699 14.7666 5.3743L15.035 5.56818ZM15.4228 6.62709C15.3184 6.62709 15.2364 6.71659 15.1916 6.90301C15.1469 7.08944 15.0723 7.17892 14.9754 7.17892C14.8859 7.1491 14.8412 7.08198 14.8412 6.97013V6.70167C14.7591 6.7315 14.6995 6.83589 14.6547 7.02232C14.61 7.20875 14.5131 7.29824 14.3639 7.29824C14.2521 7.29824 14.1999 7.23858 14.1999 7.11927C14.1999 7.05215 14.1999 6.94776 14.2148 6.82099H14.1253C14.1253 6.8881 14.1029 6.99996 14.0507 7.1491C13.9985 7.29824 13.9761 7.41009 13.9761 7.49212C13.9761 7.61144 14.0283 7.70837 14.1253 7.7904C14.2297 7.81277 14.349 7.7904 14.4758 7.74566C14.7442 7.6338 14.9157 7.5816 14.9828 7.5816H15.1693C15.2662 7.425 15.3408 7.27586 15.3855 7.12672C15.4303 6.97758 15.4452 6.80606 15.4228 6.62709ZM14.9754 9.44588C14.8561 9.76654 14.7591 9.99771 14.6995 10.1469C14.5802 10.4228 14.4236 10.5868 14.2446 10.6241C14.006 10.5123 13.8345 10.4302 13.7226 10.3706C13.5063 10.2587 13.4318 10.1096 13.4989 9.92314C13.5362 9.88585 13.6331 9.69943 13.7673 9.37132C13.8792 9.12523 14.006 8.99846 14.1477 8.99846C14.2073 8.99846 14.267 9.02084 14.3266 9.05812C14.3863 9.09541 14.4981 9.15507 14.6547 9.22218C14.8113 9.28929 14.9157 9.36386 14.9754 9.44588ZM22 12.2423C22 11.5115 21.8732 10.8255 21.6197 10.1618C21.3661 9.50555 21.0082 8.90898 20.5384 8.37952C20.352 9.21472 20.2401 9.96043 20.2177 10.6092C20.1954 11.258 20.1805 12.4213 20.1805 14.0917C20.3669 13.7934 20.4787 13.1223 20.5011 12.0857C20.5235 11.0492 20.5608 10.3855 20.613 10.0947C20.9411 10.6241 21.1946 11.1908 21.3811 11.7874C21.5675 12.384 21.6868 13.0253 21.7465 13.7039C21.7465 14.1439 21.6943 14.554 21.5973 14.9492C21.5004 15.337 21.3363 15.7024 21.1201 16.038C20.6652 16.7464 20.0611 17.2982 19.3154 17.686C19.1066 17.7457 18.9053 17.7755 18.7189 17.7755C18.1447 17.7755 17.6227 17.5667 17.1529 17.1491C16.9814 16.9478 16.862 16.739 16.7875 16.5227C16.7129 16.3064 16.6756 16.0604 16.6756 15.7919C16.6756 15.4862 16.7278 15.1133 16.8397 14.6733C16.8993 14.4347 16.9963 14.0842 17.123 13.6293C17.399 13.085 17.6003 12.4959 17.7196 11.8844C17.8389 11.2654 17.8986 10.5868 17.8986 9.84111C17.8986 9.19234 17.8315 8.53611 17.6972 7.87243C17.563 7.20875 17.384 6.58981 17.1529 6.03799C17.0261 6.22441 16.8993 6.53016 16.78 6.94776C16.698 7.21621 16.6383 7.40263 16.601 7.49957C16.5638 7.82023 16.4519 8.38698 16.2729 9.19981C16.0119 10.3855 15.8852 11.3027 15.8852 11.9589C16.1462 11.5115 16.355 10.7807 16.519 9.75909C16.6831 8.73747 16.8173 8.06632 16.9292 7.73821C17.1454 8.31241 17.2871 8.93135 17.3468 9.58012C17.4064 10.2289 17.4362 11.0119 17.4362 11.9291C17.2274 12.1976 16.9217 12.4511 16.5265 12.6897C16.3102 12.8165 15.9672 13.0104 15.4974 13.2714C15.2066 13.4429 14.9903 13.6219 14.8412 13.8158C14.692 14.0096 14.5578 14.2632 14.4385 14.5689C14.3192 14.8747 14.2073 15.1655 14.1029 15.434C13.9985 15.7024 13.909 15.9038 13.827 16.0454C13.5287 16.5525 13.2006 16.9776 12.8427 17.3131C12.4847 17.6487 12.0597 17.947 11.5749 18.208C10.613 18.6032 9.65101 19.0059 8.6965 19.4011C9.71812 19.252 10.7472 19.1103 11.7688 18.9686C12.9918 18.7598 13.745 18.1633 14.0209 17.1789C14.1775 16.6122 14.349 16.1573 14.528 15.8068C14.6697 15.5384 14.8262 15.3072 15.0052 15.1058C15.5347 14.4869 16.1536 14.0693 16.8695 13.8381C16.8471 13.9574 16.7576 14.3154 16.601 14.912C16.3922 15.7099 16.2878 16.3288 16.2878 16.7688C16.2878 17.0522 16.3177 17.2982 16.3699 17.5219C16.4221 17.7457 16.519 17.9694 16.6458 18.1856C16.9068 18.5137 17.2051 18.7673 17.5481 18.9388C17.8911 19.1103 18.264 19.1998 18.6592 19.1998C18.8084 19.1998 18.9202 19.1998 18.9873 19.1849C19.5615 19.1029 20.0984 18.7673 20.5981 18.1856C20.9933 17.7158 21.3065 17.1789 21.5302 16.56C21.7539 15.9485 21.8956 15.2475 21.9553 14.4571C21.9851 14.0768 22 13.3385 22 12.2423ZM11.7092 7.29824C11.6122 7.43993 11.4929 7.56669 11.3512 7.686C11.2095 7.80532 10.9709 7.947 10.6204 8.11852C10.4116 8.208 10.1879 8.30494 9.94929 8.40934C9.71066 8.51374 9.51678 8.61069 9.36764 8.70017C9.45712 8.48392 9.59135 8.29749 9.77032 8.14835C9.89709 8.05141 10.1059 7.93209 10.3818 7.80532C10.6204 7.72329 10.7919 7.66364 10.9038 7.62636C11.2841 7.49958 11.5526 7.38773 11.7092 7.29824ZM10.9187 15.7397C10.9187 15.9187 10.874 16.038 10.777 16.0976C10.6801 16.1573 10.5384 16.1871 10.352 16.1871C10.1432 16.1797 9.98658 16.1722 9.88963 16.1722C9.71066 16.1722 9.57644 16.1871 9.48695 16.2095C9.39746 16.2319 9.31544 16.299 9.24832 16.4108C9.24832 16.5003 9.27069 16.7539 9.32289 17.1715C9.34527 17.343 9.35272 17.4996 9.35272 17.6487V17.947C9.35272 18.1558 9.35272 18.3199 9.33781 18.4466C9.33035 18.5734 9.30052 18.7002 9.24832 18.8419C9.27069 18.7747 9.27815 18.6629 9.27815 18.5137C9.27815 18.3273 9.24087 18.029 9.15884 17.6189C9.07681 17.2088 9.03952 16.9179 9.03952 16.7389C9.03952 16.463 9.09918 16.2393 9.22595 16.0753C9.35272 15.9112 9.58389 15.7994 9.91946 15.7397C10.0164 15.7397 10.091 15.7099 10.1283 15.6502C9.98658 15.5682 9.87472 15.5309 9.78524 15.5309C9.69575 15.5309 9.62118 15.5607 9.56152 15.6204L9.44221 15.7397C9.41238 15.6726 9.41984 15.5831 9.46458 15.4862C9.50932 15.3892 9.56898 15.2997 9.63609 15.2177C9.75541 15.0984 9.86726 15.0387 9.97912 15.0387C10.1581 15.0387 10.3743 15.1655 10.6204 15.4116C10.7696 15.5682 10.8665 15.68 10.9187 15.7397ZM12.0373 10.6838C11.9553 11.2281 11.8509 11.6607 11.7241 11.9813C11.5227 12.4511 11.2245 12.7941 10.8292 13.0253C10.4713 13.1819 10.1059 13.3534 9.74049 13.5249C9.37509 13.6964 9.02461 13.9053 8.68904 14.1513C8.35347 14.3974 8.09247 14.6659 7.90604 14.9642C7.68978 15.3221 7.57793 15.7173 7.57793 16.1424C7.42133 16.7315 7.22744 17.2013 7.01119 17.5592C6.72036 18.0365 6.3475 18.4093 5.8777 18.6778C4.63236 18.9388 3.34228 19.0656 2 19.0656C2.65623 18.8866 3.20805 18.7151 3.65548 18.5436C4.30425 18.305 4.85608 18.0514 5.31096 17.783C5.88516 17.4474 6.3475 17.0745 6.68307 16.6793C7.09321 16.202 7.36167 15.6577 7.48844 15.0536C7.55556 14.7479 7.66741 14.4272 7.8091 14.1066C7.95078 13.7859 8.12975 13.4877 8.33855 13.2192C8.54735 12.9507 8.79344 12.7196 9.06935 12.5331C9.34527 12.3467 9.64355 12.2199 9.96421 12.1603C9.99403 11.8844 10.0462 11.6234 10.1133 11.3922C10.1805 11.161 10.2923 10.9299 10.4415 10.7136C10.5533 10.7509 10.6652 10.7733 10.7845 10.7733C10.874 10.7733 10.9858 10.7583 11.1126 10.7285C11.4109 10.6614 11.6048 10.6241 11.6943 10.6241C11.8136 10.6241 11.9254 10.6465 12.0373 10.6838ZM14.4236 5.22516C14.3565 5.13568 14.2968 5.09093 14.2446 5.09093C14.267 5.12821 14.2893 5.1655 14.3192 5.19533C14.349 5.20278 14.3863 5.2177 14.4236 5.22516Z" fill="white"/>
</svg>
