<svg width="24" height="24" viewBox="0 0 24 24" fill="none" xmlns="http://www.w3.org/2000/svg">
<path fill-rule="evenodd" clip-rule="evenodd" d="M14.4832 2.01119C14.4832 2.25727 14.3937 2.48098 14.2148 2.7047C13.9911 2.98434 13.6219 3.24161 13.1186 3.46532C12.9955 3.55481 12.8725 3.62192 12.7383 3.65548C12.604 3.68904 12.4362 3.71141 12.2461 3.71141C12.0671 3.71141 11.8881 3.71141 11.698 3.68904C11.5078 3.66667 11.3289 3.65548 11.1499 3.6443C10.8814 3.6443 10.6577 3.68904 10.4787 3.77852C10.2998 3.86801 10.1544 4.05817 10.0313 4.33781C10.0761 4.10291 10.1767 3.86801 10.3333 3.63311C10.4899 3.39821 10.6801 3.19687 10.9038 3.0179C11.8098 3.0179 12.4586 2.98434 12.8277 2.90604C13.5436 2.77181 14.0917 2.4698 14.4832 2V2.01119ZM16.3624 13.387C16.3736 13.566 16.3848 13.7226 16.396 13.8568C16.396 13.9911 16.4072 14.1029 16.4072 14.1924C16.4072 14.6734 16.3848 15.0984 16.34 15.4899C16.2953 15.8814 16.217 16.3736 16.1163 16.9776C16.0157 17.5817 15.8479 18.1521 15.6353 18.6779C15.4228 19.2036 15.1432 19.7069 14.7964 20.1767C14.4497 20.6465 14.047 21.038 13.5772 21.3512C13.1074 21.6644 12.5928 21.8658 12.0224 21.9553C11.8098 21.9888 11.6532 22 11.5526 22C10.915 22 10.2998 21.821 9.72931 21.4519C9.15884 21.0828 8.66667 20.6018 8.26398 19.9866C7.81656 19.0582 7.59284 18.0738 7.59284 17.0112C7.59284 16.1723 7.73826 15.3557 8.0179 14.5503C8.29754 13.745 8.70023 13.0291 9.22595 12.4027C9.58389 12.0336 9.94184 11.6532 10.2998 11.2617C10.6577 10.8702 11.0157 10.4564 11.3624 10.0201C11.7092 9.58389 12.0224 9.14765 12.2796 8.7226C12.5369 8.29754 12.7494 7.85011 12.8949 7.3915C12.5817 7.3915 12.179 7.41387 11.6756 7.44743C11.1723 7.48098 10.8926 7.50336 10.8143 7.50336C10.8143 7.22371 10.8479 6.94407 10.9262 6.66443C11.0045 6.38479 11.1163 6.0604 11.2617 5.69127C11.7651 5.56823 12.1454 5.48993 12.3915 5.44519C12.6376 5.40045 12.9284 5.37808 13.2528 5.37808C13.387 5.38926 13.4877 5.40045 13.5436 5.40045C13.5436 5.94855 13.4765 6.46309 13.3535 6.94407C13.2304 7.42506 13.0403 7.87248 12.7942 8.30872C12.5481 8.74497 12.2573 9.19239 11.9105 9.65101C11.6756 9.96421 11.34 10.3893 10.9038 10.9262C10.3333 11.6421 10.0089 12.0559 9.91946 12.1566C9.57271 12.6152 9.28188 13.0626 9.04698 13.4765C8.54363 14.4161 8.28636 15.4228 8.28636 16.4966C8.28636 17.179 8.54363 17.8389 9.06935 18.4653C9.59508 19.0917 10.1991 19.5391 10.9038 19.8076C11.1611 19.8523 11.396 19.8747 11.6197 19.8747C12.0336 19.8747 12.4474 19.8076 12.8501 19.6622C13.2528 19.5168 13.6443 19.3266 14.0134 19.0694C14.5951 18.443 15.0089 17.9396 15.2438 17.5481C15.613 16.9329 15.8031 16.34 15.8031 15.7584C15.8031 15.5459 15.8031 15.3893 15.7808 15.2662C15.7696 15.1432 15.7136 14.9754 15.6242 14.7517C15.5235 14.3937 15.434 14.1365 15.3781 13.9687C15.2774 13.689 15.132 13.4541 14.953 13.2752C14.7181 13.4877 14.5392 13.6331 14.4161 13.7226C14.1588 13.9128 13.9463 14.0134 13.7673 14.0134C13.6779 14.0134 13.5884 13.9911 13.4989 13.9463C13.3535 13.8121 13.2304 13.6443 13.1521 13.4541C13.0738 13.264 13.0291 13.0626 13.0291 12.8725C13.0291 12.5593 13.1186 12.1678 13.2975 11.7092C13.5772 10.9933 13.7226 10.6242 13.7226 10.5906C13.8233 10.4564 13.9351 10.3445 14.047 10.2662C14.1588 10.1879 14.2819 10.1432 14.4161 10.1432C14.5392 10.1432 14.651 10.1879 14.774 10.2774C15.2662 10.6242 15.6353 11.0604 15.8926 11.6085C16.1499 12.1566 16.3065 12.7494 16.3624 13.387Z" fill="white"/>
</svg>
