<svg width="24" height="24" viewBox="0 0 24 24" fill="none" xmlns="http://www.w3.org/2000/svg">
<path fill-rule="evenodd" clip-rule="evenodd" d="M16.5868 4.74072C16.5262 4.89235 16.4428 5.02123 16.329 5.11979C16.2229 5.21835 16.0637 5.33964 15.859 5.48369L14.9037 5.99925C14.9568 5.84762 15.0402 5.71114 15.1691 5.58984C15.298 5.46854 15.4496 5.35481 15.6164 5.25625C15.8362 5.14253 15.9955 5.06671 16.1092 5.01364C16.2987 4.92266 16.4579 4.83169 16.5868 4.74072ZM12.8264 6.03715C12.7657 6.3025 12.6065 6.52237 12.3563 6.70432C12.1744 6.83321 11.9242 6.95452 11.5982 7.06824C11.6664 6.95452 11.7574 6.86354 11.8711 6.78014C12.0531 6.65126 12.2426 6.51478 12.4321 6.37073C12.3639 6.3025 12.2502 6.26458 12.0986 6.26458C12.0455 6.26458 11.9924 6.2646 11.9318 6.28735C11.8711 6.30251 11.8332 6.31008 11.8105 6.31766C11.7877 6.31766 11.7574 6.35556 11.7119 6.40863C11.6664 6.4617 11.6209 6.48447 11.583 6.47689C11.583 6.35558 11.6285 6.24184 11.7195 6.12812C11.8105 6.0144 11.9166 5.931 12.0379 5.87035C12.1592 5.84761 12.2654 5.84002 12.3563 5.84002C12.4473 5.84002 12.5383 5.84761 12.6217 5.87035C12.7051 5.8931 12.7733 5.94617 12.8264 6.03715ZM22 13.0955C22 13.9219 21.9014 14.7331 21.6967 15.514C21.492 16.2949 21.2039 17.0682 20.8173 17.8112C20.4761 18.2434 20.1122 18.5845 19.7255 18.8271C19.2782 19.1077 18.8234 19.2517 18.3457 19.2517C18.2017 19.2517 18.0955 19.2517 18.0121 19.2365C17.9287 19.229 17.8074 19.1986 17.6482 19.1456C17.254 19.0243 16.8977 18.7892 16.5868 18.4329C16.3366 18.1372 16.1168 17.7657 15.9348 17.3108C15.9045 17.1668 15.8817 16.9924 15.8741 16.7726C15.8666 16.5527 15.859 16.439 15.859 16.4162C15.859 15.8476 15.9424 15.2714 16.1168 14.6725C16.2381 14.2707 16.4428 13.7248 16.7233 13.0349C16.6096 13.5428 16.5262 13.9295 16.4655 14.2024C16.3442 14.7483 16.2835 15.1804 16.2835 15.4913C16.2835 15.8249 16.329 16.1281 16.4276 16.4011C16.5262 16.674 16.693 16.909 16.9356 17.1137C17.1251 17.3336 17.3601 17.508 17.6255 17.6217C17.8908 17.7354 18.1713 17.7961 18.467 17.7961C18.6869 17.7961 18.9143 17.7657 19.1494 17.7051C19.7028 17.5307 20.2032 17.1744 20.6505 16.6437C21.0675 16.1509 21.3556 15.605 21.5299 15.0212C21.5679 14.6725 21.5906 14.4375 21.5982 14.3086C21.5982 14.1797 21.6058 14.0735 21.6058 13.9901C21.6058 13.3078 21.5148 12.6634 21.3328 12.0417C21.1509 11.4276 20.8855 10.8362 20.5444 10.2828C20.5216 10.3738 20.4534 11.0788 20.3321 12.4056C20.2942 12.8908 20.2032 13.2851 20.0743 13.5883C20.0743 12.4738 20.1122 11.5337 20.1804 10.7528C20.2487 9.97195 20.4079 9.22137 20.6505 8.49354C21.1281 9.10006 21.4693 9.79756 21.6816 10.5785C21.8939 11.3669 22 12.2009 22 13.0955ZM14.0849 7.62927C14.1152 7.81122 14.0773 8.01591 13.9712 8.23578C13.8271 8.48597 13.7286 8.66793 13.6755 8.76649C13.5011 8.57695 13.3192 8.47839 13.1372 8.47839C13.0235 8.47839 12.9174 8.53147 12.8112 8.63003C12.6368 8.78924 12.4625 8.98635 12.2957 9.2138C12.1289 9.44124 11.9621 9.68386 11.8105 9.93405C12.0531 9.22897 12.2578 8.72858 12.417 8.4329C12.7127 7.90978 13.0917 7.5307 13.5542 7.31083C13.6755 7.34874 13.7817 7.39425 13.8726 7.44732C13.9636 7.50039 14.0318 7.56103 14.0849 7.62927ZM18.7096 10.4799C18.5656 10.5102 17.9439 10.6695 16.8294 10.95C16.0409 11.1547 15.3965 11.2532 14.9037 11.2532C15.6012 10.8287 16.1622 10.4117 16.5868 9.99469C17.1554 9.44882 17.5269 8.88022 17.7089 8.29644C17.8378 8.00076 17.906 7.68233 17.906 7.34116C17.906 7.01516 17.8529 6.68158 17.7544 6.32525C17.6558 5.96892 17.5269 5.62774 17.3753 5.29415C17.1099 5.65048 16.8825 6.05231 16.6778 6.51478C16.6247 6.62851 16.3518 7.37908 15.859 8.76649C16.0409 8.59212 16.2002 8.3571 16.3366 8.06142C16.4731 7.76574 16.6475 7.31084 16.8597 6.70432C17.0114 7.04549 17.1099 7.326 17.1478 7.5307C17.1857 7.7354 17.2085 7.94767 17.2085 8.15996C17.2085 8.28126 17.2085 8.39498 17.1933 8.49354C17.1857 8.5921 17.163 8.68309 17.1327 8.76649C16.6475 9.16831 16.1622 9.57012 15.677 9.96436C14.6839 10.7907 14.0849 11.5944 13.8726 12.3601C13.956 12.3829 14.0773 12.3904 14.2517 12.3904C14.4412 12.3904 14.9568 12.2919 15.7983 12.1023C16.1547 12.0189 16.4579 11.981 16.7233 11.981C15.8817 12.7013 15.1615 13.2623 14.555 13.6641C13.7286 14.21 12.9401 14.5967 12.2047 14.8165C12.3033 14.5512 12.417 14.2782 12.5307 13.9901C12.6444 13.702 12.7051 13.4443 12.7051 13.2092C12.6065 13.2699 12.5155 13.3988 12.4397 13.6035C12.3639 13.8082 12.3033 13.9295 12.2502 13.9826C11.9848 14.1873 11.818 14.3086 11.7498 14.3465C11.5603 14.4602 11.3859 14.5133 11.2343 14.5133C11.1433 14.5133 11.0751 14.5057 11.022 14.4829C11.0296 14.4223 11.0675 14.3161 11.1205 14.1645C11.1736 14.0129 11.2039 13.8992 11.2039 13.8158C10.9992 14.1494 10.7339 14.4299 10.3927 14.6497C10.0516 14.8696 9.69523 14.9833 9.30857 14.9833C9.17968 14.8923 9.11145 14.7786 9.11145 14.6346C9.11145 14.5663 9.12661 14.445 9.16452 14.2858C9.20243 14.1266 9.21759 14.0205 9.21759 13.9674C9.21759 13.8764 9.21001 13.8082 9.18726 13.7703C9.00531 13.8613 8.73995 13.9826 8.39121 14.1266C8.04246 14.2707 7.78469 14.392 7.62547 14.4829C7.32221 14.6725 7.10235 14.8544 6.9583 15.0136C6.76876 15.2335 6.6323 15.4989 6.56406 15.8021C6.44276 16.2949 6.20773 16.7422 5.86657 17.1365C5.57089 17.4776 5.19181 17.7961 4.71418 18.0917C4.31994 18.3571 3.87263 18.5845 3.36467 18.7741C2.93252 18.9333 2.47763 19.0697 2 19.1835C2.09098 19.1835 2.34117 19.1986 2.75815 19.2214C3.17513 19.2441 3.50114 19.2593 3.74375 19.2593C3.91812 19.2593 4.09249 19.2517 4.28203 19.229C4.47157 19.2062 4.63078 19.1759 4.77483 19.138C5.31312 18.9939 5.73768 18.6452 6.04852 18.0917C6.07885 18.0311 6.29113 17.5231 6.68537 16.5603C6.82942 16.166 7.1251 15.8704 7.57999 15.6657C7.83018 15.5519 8.20925 15.4155 8.70205 15.2563C8.69447 15.3548 8.6793 15.4534 8.67172 15.5519C8.66414 15.6505 8.65656 15.7415 8.65656 15.8325C8.65656 16.0675 8.72479 16.2115 8.86884 16.2722C8.98256 16.3025 9.07354 16.3177 9.15694 16.3177C9.33889 16.3177 9.57392 16.2494 9.85444 16.1054C10.2183 15.9234 10.423 15.8249 10.4761 15.8021L10.5368 15.9386H10.7036C10.9234 15.9386 11.166 15.8552 11.4162 15.6808C11.5603 15.5898 11.765 15.4306 12.0379 15.2108C12.1592 15.2335 12.2729 15.2259 12.3791 15.2032C12.4852 15.1804 12.6899 15.1274 12.9932 15.044C14.0773 14.771 15.1463 14.1873 16.2077 13.3002C17.1175 12.5421 17.9515 11.602 18.7096 10.4799ZM15.859 18.2585C15.5481 18.4177 15.3055 18.5315 15.1463 18.5921C14.8734 18.6907 14.6232 18.7437 14.3882 18.7437C14.138 18.7437 13.8954 18.6755 13.6755 18.5466C13.6755 18.395 13.8271 18.2054 14.1228 17.9704C14.4185 17.7354 14.6005 17.5459 14.6611 17.3942C14.5929 17.2957 14.5095 17.2275 14.4261 17.2047C14.3427 17.182 14.1835 17.144 13.9484 17.1061C13.8499 17.1061 13.7589 17.1592 13.6907 17.2578C13.6224 17.3563 13.5618 17.4549 13.5087 17.5459C13.6224 17.5459 13.7362 17.5534 13.8575 17.5762C13.9788 17.5989 14.0773 17.6293 14.1456 17.6672C13.9939 17.7885 13.8499 17.9098 13.7058 18.0311C13.4253 18.2737 13.2661 18.5239 13.2358 18.7892C13.2434 18.8802 13.2964 18.956 13.3874 19.0167C13.395 19.0243 13.486 19.0697 13.6452 19.138C13.7892 19.1683 13.9257 19.1835 14.0698 19.1835C14.881 19.1835 15.4723 18.8726 15.859 18.2585ZM6.2608 8.75134L6.1395 9.14557C6.08643 9.16831 6.00303 9.14556 5.88931 9.09249C5.77559 9.03942 5.69219 9.0091 5.63912 9.0091C5.55572 9.0091 5.49507 9.06218 5.45717 9.1759C5.42684 9.39576 5.40409 9.62319 5.38135 9.84305C5.3207 10.2449 5.21456 10.6088 5.06293 10.9196C4.99469 10.859 4.85823 10.6012 4.65353 10.1463C4.5019 9.80516 4.2972 9.65353 4.03184 9.69143C3.90296 9.65353 3.83472 9.57771 3.83472 9.47915C3.83472 9.41092 3.85747 9.31994 3.90296 9.22139C3.94845 9.12283 3.99394 9.02426 4.03184 8.93328C4.11524 8.84989 4.19105 8.81198 4.25929 8.81198C4.31236 8.81198 4.36543 8.8423 4.42608 8.90295C4.5398 9.11523 4.65353 9.33511 4.77483 9.55497C4.89613 9.77484 5.00227 9.99469 5.09325 10.207C5.16149 9.81273 5.22972 9.47915 5.28279 9.2138C5.33586 8.94844 5.46475 8.72099 5.65428 8.53903H5.98787C6.10917 8.56178 6.20015 8.63003 6.2608 8.75134Z" fill="white"/>
</svg>
