<svg width="24" height="24" viewBox="0 0 24 24" fill="none" xmlns="http://www.w3.org/2000/svg">
<path fill-rule="evenodd" clip-rule="evenodd" d="M21.6949 12.1378C21.4488 11.252 21.3209 10.7599 21.2913 10.6713C21.0945 10.13 20.8287 9.6969 20.4744 9.38194C20.4744 9.6969 20.4449 10.2382 20.3957 10.9961C20.3465 11.754 20.3169 12.2461 20.3169 12.4725V13.063C20.3465 13.2304 20.3661 13.3485 20.376 13.4075L20.3169 13.4666C20.2283 13.191 20.1594 12.8859 20.1102 12.5414C20.061 12.1969 20.0413 11.8327 20.0413 11.4587C20.0413 11.0847 20.0709 10.3957 20.1398 9.38194C20.1791 8.80123 20.1988 8.40752 20.1988 8.19098L20.2972 7.78745C20.8681 8.26974 21.2913 8.87996 21.5768 9.60831C21.8622 10.3367 22 11.1241 22 11.9705C22 12.7579 21.8819 13.4961 21.6555 14.1949C21.3996 14.8544 21.1142 15.4056 20.7894 15.8682C20.376 16.4489 19.9035 16.8524 19.3622 17.0886C18.5157 17.2658 17.6496 17.4331 16.7638 17.6103C15.878 17.7874 15.0512 17.9056 14.2933 17.9745C15.3465 17.6201 16.4094 17.2658 17.4724 16.9115C18.7618 16.4095 19.7362 15.8288 20.4055 15.189C21.2717 14.3524 21.6949 13.3386 21.6949 12.1378ZM14.4409 8.61422C13.7618 8.94887 13.0827 9.29335 12.4134 9.628C12.2756 9.71658 12.1476 9.82484 12.0394 9.94295C11.9213 10.0709 11.8327 10.2087 11.7638 10.3662C12.4232 10.0217 13.0827 9.66737 13.752 9.30319C13.9291 9.19493 14.0669 9.09649 14.1654 8.98823C14.2638 8.8898 14.3622 8.76185 14.4508 8.60437L14.4409 8.61422ZM19.4311 12.128C19.2343 12.0591 18.9094 11.9705 18.4567 11.8524C18.1024 11.7146 17.876 11.4981 17.7874 11.1831V10.1989C17.7874 9.73627 17.7776 9.34256 17.748 9.03744C17.7283 8.72248 17.6693 8.41737 17.6004 8.12209C17.4823 7.6595 17.3248 7.2461 17.1181 6.88193C16.9114 6.51775 16.6555 6.16343 16.3307 5.83862C16.1634 6.31106 16.0453 6.85241 15.9665 7.46265C15.8878 8.07288 15.8484 8.96854 15.8484 10.1595V11.626H15.9665C16.0453 10.9272 16.124 10.2087 16.2126 9.46068C16.3012 8.71265 16.3406 8.03351 16.3406 7.41343C16.5669 7.57091 16.7441 7.77761 16.8819 8.03352C17.0197 8.29926 17.1181 8.59453 17.1772 8.91934C17.2362 9.24414 17.2953 10.0512 17.3543 11.3209C17.3839 11.9016 17.4232 12.3445 17.4823 12.6398C16.498 13.7323 15.9764 14.3032 15.9173 14.3622C15.5433 14.7166 15.1791 14.9823 14.8445 15.1595L14.9921 13.8996C14.874 14.1654 14.7362 14.4115 14.5689 14.6378C14.3524 14.9233 14.1358 15.1201 13.8996 15.2185L13.9291 14.4508C13.7913 14.7855 13.5846 15.0906 13.3091 15.3662C13.0236 15.6418 12.7283 15.8091 12.4134 15.8878C12.3839 15.8288 12.374 15.7599 12.374 15.691C12.374 15.6319 12.3937 15.5138 12.4429 15.3465C12.4921 15.1792 12.4921 15.0512 12.4626 14.9528C12.1181 15.4646 11.8425 15.8189 11.6457 16.0059C11.252 16.3898 10.8386 16.5571 10.4252 16.5079C9.72638 16.5079 9.34252 16.0749 9.27362 15.1989C9.20472 14.3229 9.13583 13.8012 9.06693 13.6339C8.83071 13.5847 8.63386 13.6536 8.45669 13.8406C7.91535 15.0906 7.01969 16.1044 5.75984 16.8721C4.62795 17.5709 3.37795 17.9744 2 18.0926C2.03937 18.0926 2.4626 18.1123 3.25984 18.1516C3.46654 18.1516 3.73228 18.1615 4.05709 18.1615C4.51969 18.1615 4.93307 18.1319 5.2874 18.063C5.64173 17.9941 5.96654 17.876 6.27165 17.6989C6.64567 17.4528 7.15748 16.8524 7.79724 15.8878C8.09252 15.4351 8.3878 15.1004 8.68307 14.9036C8.76181 15.0217 8.81102 15.1398 8.83071 15.2481C8.85039 15.3662 8.86024 15.504 8.86024 15.6713C8.86024 15.7599 8.85039 15.8485 8.85039 15.9371V16.1831C8.85039 16.3898 8.87008 16.5768 8.91929 16.7441C8.95866 16.9115 9.04724 17.0591 9.15551 17.1674C9.25394 17.3938 9.42126 17.5512 9.66732 17.6496C9.81496 17.7087 10.0413 17.7579 10.3661 17.8071C10.8287 17.8071 11.2323 17.63 11.5571 17.2658H11.8032C12.0295 17.2658 12.3051 17.187 12.6496 17.0197C12.8268 16.9311 13.0728 16.813 13.3878 16.6556C13.5945 16.6359 13.7913 16.5473 13.998 16.3898C14.0472 16.3504 14.2244 16.193 14.5394 15.9174C15.1693 15.8386 15.9075 15.376 16.7638 14.5296C17.3248 13.9685 17.7087 13.6044 17.9252 13.4469C18.1122 13.378 18.2402 13.3386 18.3287 13.3189C18.4075 13.2993 18.5157 13.2894 18.6535 13.2894C18.8504 13.2894 19.0079 13.3288 19.1358 13.4075C19.2441 13.25 19.3228 13.0532 19.372 12.7973C19.4016 12.5808 19.4311 12.3544 19.4705 12.128H19.4311Z" fill="white"/>
</svg>
