<svg width="24" height="24" viewBox="0 0 24 24" fill="none" xmlns="http://www.w3.org/2000/svg">
<path fill-rule="evenodd" clip-rule="evenodd" d="M21.6698 6.85397C21.6254 6.91112 21.6 6.95557 21.581 6.98096C21.5365 7.03811 21.4984 7.06984 21.454 7.06984C21.4095 7.06984 21.3778 7.03811 21.3524 6.98096C21.1302 7.26668 20.9016 7.50794 20.6667 7.70476C20.3873 7.93334 20.1206 8.07938 19.8667 8.14922C20.1206 7.96509 20.381 7.77461 20.6413 7.59048C20.927 7.35556 21.1175 7.1143 21.2127 6.86668C21.1175 6.81589 21.054 6.77778 21.0095 6.75238C20.927 6.70159 20.8762 6.64445 20.8571 6.57461C20.8381 6.45397 20.8762 6.3397 20.9714 6.23176C21.0413 6.15557 21.1429 6.07303 21.2762 5.99049C21.327 5.97144 21.3714 5.96509 21.4159 5.96509C21.5111 5.96509 21.5619 6.00318 21.5683 6.07937C21.5937 6.11111 21.6063 6.16826 21.6063 6.24445C21.6063 6.3016 21.5937 6.37778 21.5746 6.47302C21.5556 6.56825 21.5429 6.61905 21.5429 6.6381C21.5429 6.73334 21.5873 6.80318 21.6698 6.85397ZM21.9492 8.18095C21.9048 8.11111 21.8286 8.04763 21.7206 7.99049C21.6698 7.96509 21.5873 7.92064 21.4667 7.8508C21.3397 7.80001 21.2127 7.85715 21.0984 8.02858C21.0413 8.12382 20.9587 8.2635 20.8571 8.46032C20.8571 8.58096 20.9397 8.67619 21.1111 8.75238C21.2063 8.78413 21.346 8.84764 21.5429 8.93018C21.6762 8.68256 21.8159 8.43492 21.9492 8.18095ZM18.5079 8.90477C18.5143 8.93652 18.5206 8.98731 18.5206 9.04446C18.5206 9.13969 18.4889 9.24762 18.419 9.36825C18.3492 9.48889 18.2984 9.58414 18.2603 9.64128C18.2095 9.59684 18.146 9.57779 18.0698 9.57779C18 9.57779 17.8921 9.63493 17.7333 9.75556C17.6571 9.81271 17.5937 9.84444 17.5429 9.84444C17.4667 9.84444 17.3968 9.79366 17.327 9.69207C17.327 9.57143 17.346 9.46349 17.3778 9.36825C17.4095 9.27301 17.4603 9.17143 17.5175 9.06984C17.4984 9.19047 17.4921 9.27936 17.4921 9.34921C17.4921 9.4 17.5111 9.44445 17.5429 9.4762C17.5937 9.50159 17.6508 9.50794 17.7079 9.49524C17.7651 9.48255 17.8286 9.45715 17.8857 9.4127C17.9556 9.25397 18.0254 9.08891 18.1016 8.93018C18.1206 8.95557 18.127 8.99366 18.1206 9.04446C18.1206 9.09525 18.1206 9.14604 18.1206 9.19683C18.1206 9.27937 18.1778 9.31746 18.2984 9.31111C18.3302 9.20953 18.3619 9.12065 18.3873 9.04446C18.4127 8.96827 18.4571 8.92382 18.5143 8.90477H18.5079ZM19.2444 15.5968C19.1365 15.7492 19.0032 15.8826 18.8571 15.9905C18.7111 16.0984 18.5333 16.2127 18.3302 16.3206C17.981 16.4794 17.6381 16.6445 17.3016 16.8032C17.4095 16.6508 17.5429 16.5175 17.6952 16.4095C17.7968 16.3333 17.9619 16.2318 18.1905 16.1048C18.3683 16.0222 18.5016 15.9587 18.5841 15.927C18.8889 15.7937 19.1111 15.6794 19.2444 15.5968ZM22 10.9873C21.9175 10.6381 21.8603 10.4222 21.8159 10.3397C21.7079 10.1111 21.5556 9.97778 21.3524 9.94603C21.1556 10.0413 21.0095 10.1873 20.9016 10.3905C20.7937 10.5937 20.7429 10.9048 20.7429 11.3302C20.7873 11.4508 20.8508 11.527 20.946 11.5714C21.0413 11.6159 21.1556 11.6349 21.2889 11.6349C21.3587 11.6349 21.4413 11.6286 21.5429 11.6095V12.0159C21.3651 12.3143 21.1619 12.5683 20.9397 12.7841C20.7175 13 20.4635 13.2032 20.1778 13.4C19.8921 13.5968 19.6254 13.7556 19.3651 13.8889C19.1048 14.0222 18.819 14.1429 18.5079 14.2508C19.0349 13.673 19.4286 13.0508 19.6889 12.3714C19.8984 11.8127 20.0063 11.254 20.0063 10.6953V10.4349C20.0063 10.346 20 10.2572 19.981 10.1746C19.8349 10.2 19.6762 10.2508 19.4921 10.327C19.3079 10.4032 19.1365 10.4857 18.9651 10.5683C18.381 10.9238 17.981 11.4381 17.7587 12.1175C17.6 12.6064 17.5175 13.2794 17.5175 14.1238C17.2635 14.2826 17.1111 14.3778 17.0603 14.4032C16.8825 14.4857 16.7111 14.5302 16.5397 14.5302V13.7429C16.4063 13.9587 16.254 14.1302 16.0825 14.2698C15.873 14.4413 15.6571 14.5302 15.4349 14.5302C15.3079 14.5238 15.1937 14.4794 15.0857 14.4032C14.9778 14.327 14.8698 14.2254 14.7619 14.0984C14.5397 13.5016 14.3746 12.7016 14.2667 11.6984C14.2095 11.1524 14.1206 10.3143 14 9.19683C13.8984 9.29842 13.8159 9.42541 13.7587 9.57779C13.7143 9.73017 13.6762 9.87619 13.6317 10.0222C13.8095 11.4 13.9937 12.7778 14.1778 14.1492C14.146 14.3841 14.0571 14.6064 13.9175 14.8095C13.7778 15.0127 13.6 15.1524 13.3905 15.2286C13.3206 15.2476 13.2698 15.254 13.2381 15.254C13.0857 15.254 12.927 15.1841 12.7556 15.0508C12.6476 14.9492 12.5333 14.8413 12.4254 14.7333L12.5397 13.9587C12.5333 13.9016 12.4889 13.8444 12.419 13.7937C12.3492 13.7429 12.273 13.7111 12.1968 13.7048C11.8095 13.9397 11.3714 14.2381 10.8889 14.5937C10.6095 14.7968 10.1905 15.1079 9.63175 15.5333C9.16825 15.8699 8.72381 16.1492 8.31111 16.3714C7.82222 16.6317 7.33333 16.8159 6.85079 16.9238C6.36825 17.0318 5.89841 17.0826 5.44127 17.0826C4.86349 17.0826 4.32381 16.9873 3.82222 16.8032C3.32064 16.6191 2.89524 16.327 2.54603 15.927C2.34286 15.5206 2.24127 15.1651 2.24127 14.8603C2.24127 14.5238 2.34921 14.2064 2.55873 13.908C2.73016 13.673 2.99048 13.419 3.34603 13.1587C3.51746 13.0381 3.88571 12.8095 4.46349 12.473C5.26984 11.9968 5.80317 11.5905 6.06349 11.254C5.79048 11.5143 5.40952 11.781 4.92064 12.0413C4.64127 12.1873 4.21587 12.4032 3.65079 12.7016C3.16825 12.981 2.80635 13.2667 2.57143 13.5524C2.26667 13.9143 2.08254 14.3587 2.0254 14.873C2.0254 14.9175 2.01905 14.981 2 15.0635V15.2413C2 16.2063 2.4127 16.9683 3.23175 17.527C3.53651 17.7048 3.86032 17.8318 4.19683 17.9143C4.53333 17.9968 4.90794 18.0349 5.31429 18.0349C5.79048 18.0349 6.27937 17.9714 6.7873 17.8508C7.29524 17.7302 7.74603 17.5651 8.13333 17.3619C8.53968 17.1905 8.99683 16.9238 9.50476 16.5619C9.93651 16.2318 10.3683 15.9016 10.8 15.5714C11.3079 15.1841 11.7524 14.8921 12.1333 14.6952C12.1778 14.6952 12.2222 14.7333 12.273 14.8095C12.3238 14.8857 12.3746 14.9048 12.4254 14.873C12.4254 14.9238 12.419 15.019 12.4 15.1651C12.381 15.3111 12.3746 15.4127 12.3746 15.4825C12.3746 15.7175 12.4508 15.8889 12.5968 15.9905C12.7429 16.0921 12.8317 16.1492 12.8571 16.1556C12.9524 16.2 13.054 16.2191 13.1619 16.2191H13.219C13.219 16.2191 13.2762 16.2191 13.3016 16.2064C13.6063 16.1492 13.8413 15.9587 14.0127 15.6349C14.0444 15.5651 14.146 15.2857 14.3175 14.7841C14.3683 14.9365 14.4571 15.0762 14.5841 15.2032C14.6794 15.2984 14.8063 15.3937 14.9778 15.4953C15.0794 15.5206 15.1746 15.5333 15.2698 15.5333C15.6571 15.5333 15.9746 15.3746 16.2222 15.0635C16.4571 15.1079 16.6603 15.127 16.8317 15.127C16.8825 15.127 16.946 15.127 17.0286 15.1207C17.1111 15.1207 17.2444 15.0952 17.4286 15.0635C17.4794 15.1079 17.5111 15.2032 17.5302 15.3492C17.5492 15.4952 17.5873 15.5905 17.6571 15.6349L17.7333 14.9492C17.8032 14.8794 17.8794 14.8159 17.9746 14.7524C18.0698 14.6889 18.1841 14.6127 18.3302 14.5302C18.5333 14.4349 18.8762 14.327 19.3524 14.2064C19.8286 14.0857 20.1524 13.9778 20.3238 13.8825C20.5968 13.7365 20.8254 13.5587 21.0222 13.3429C21.219 13.127 21.3841 12.8857 21.5175 12.6254C21.7524 12.1492 21.9175 11.6032 22 10.9873ZM8.92063 11.2032L8.70476 11.9905C8.59683 12.0667 8.30476 12.1429 7.84127 12.2191C7.63175 12.2508 7.45397 12.3143 7.30794 12.3968C7.30794 12.2381 7.33968 12.0476 7.40952 11.8254C7.46667 11.673 7.50476 11.5651 7.52381 11.4952C7.65714 11.4127 7.84127 11.3429 8.06349 11.2857C8.28571 11.2286 8.57143 11.2032 8.92063 11.2032ZM21.327 6.46668L21.2762 6.327C21.2444 6.29525 21.2064 6.28255 21.1619 6.3016C21.1429 6.35239 21.1619 6.39683 21.2127 6.43492C21.2635 6.47302 21.3016 6.48573 21.327 6.46668ZM19.7524 11.2921L19.4349 12.0794C19.2381 12.4413 18.9905 12.7968 18.6921 13.1333C18.3937 13.4699 18.0698 13.7556 17.7333 13.9841C17.7333 13.4762 17.8095 13.0317 17.9556 12.6444C18.1016 12.2571 18.3492 11.9333 18.6984 11.6603C18.8063 11.5905 18.9206 11.527 19.0286 11.4571C19.2571 11.3238 19.4413 11.254 19.5746 11.254C19.6444 11.254 19.7016 11.2667 19.7524 11.2921Z" fill="white"/>
</svg>
