<svg width="24" height="24" viewBox="0 0 24 24" fill="none" xmlns="http://www.w3.org/2000/svg">
<path fill-rule="evenodd" clip-rule="evenodd" d="M21.8087 11.8114C21.8087 11.3968 21.7289 10.9822 21.5748 10.557C21.4366 10.1956 21.24 9.81296 20.9795 9.41434C20.9636 9.52064 20.937 10.1372 20.8945 11.2746C20.8786 11.7051 20.836 12.0558 20.7669 12.3428C20.6978 11.8804 20.666 11.3702 20.666 10.7962C20.666 10.387 20.6872 9.96708 20.7297 9.53657C20.7723 9.10606 20.8307 8.69682 20.8998 8.30883C21.2719 8.6915 21.5482 9.15391 21.7396 9.69603C21.9096 10.1956 22 10.7431 22 11.333C22 12.1302 21.8512 12.8903 21.5589 13.6078C21.3835 13.9745 21.1762 14.2828 20.9477 14.5326C20.6606 14.8515 20.3577 15.0481 20.0388 15.1279C19.8049 15.2076 19.5179 15.2767 19.1831 15.3405C18.2583 15.5158 17.78 15.6115 17.7428 15.6221C18.7526 15.3298 19.6189 14.8887 20.3471 14.2987C21.24 13.5706 21.7289 12.7468 21.814 11.8167L21.8087 11.8114ZM17.2166 9.30271C17.1847 9.54188 17.1581 9.72259 17.1315 9.8342C17.0837 10.0468 16.9721 10.1531 16.7967 10.1531C16.5097 10.2116 16.2227 10.2647 15.941 10.3179C15.9623 10.2753 16.0048 10.1425 16.0686 9.90862C16.1536 9.59504 16.3024 9.44091 16.515 9.44091C16.5575 9.44091 16.5894 9.44091 16.6107 9.44623L17.2219 9.29741L17.2166 9.30271ZM14.7558 9.47279C14.7983 9.44622 14.8249 9.43028 14.8355 9.42496H14.8408C14.8408 9.45685 14.5591 9.66945 13.9904 10.0628C13.4217 10.4561 13.0816 10.6527 12.97 10.6527C12.954 10.6527 12.9434 10.6474 12.9328 10.6314C12.9221 10.6208 12.9328 10.5889 12.9647 10.5411C13.0763 10.3498 13.2623 10.1797 13.528 10.0415C13.9373 9.85547 14.3465 9.66413 14.7611 9.46747L14.7558 9.47279ZM19.5764 11.7901C19.5392 12.0186 19.4276 12.2472 19.2416 12.4704C19.0768 12.6671 18.8801 12.8424 18.6357 12.9966C18.5772 13.0125 18.5294 13.0178 18.4922 13.0178C18.3805 13.0178 18.3274 12.9487 18.3274 12.8159C18.3274 12.7787 18.3433 12.6724 18.3699 12.497C18.3965 12.3216 18.4124 12.1834 18.4124 12.0984C18.4124 11.9442 18.3805 11.822 18.3115 11.737C18.2849 11.6519 18.237 11.5934 18.1733 11.5615C18.1095 11.5297 18.0298 11.5084 17.9394 11.5084C17.9022 11.5084 17.8597 11.5084 17.8065 11.5244C17.477 11.7263 17.2644 12.0612 17.1634 12.5182C17.1156 12.7415 17.0943 13.1507 17.0943 13.7513C16.4353 14.1286 15.8507 14.4104 15.3298 14.5964C14.6601 14.8355 14.0064 14.9578 13.3686 14.9578C13.2091 14.9578 13.0444 14.9525 12.8743 14.9365C12.5926 14.8621 12.3481 14.7558 12.1355 14.607C11.891 14.4422 11.7103 14.2349 11.604 13.9851C11.4074 13.2889 11.2479 12.4385 11.1257 11.4393C11.03 10.5677 10.9397 9.69601 10.844 8.81905C10.7537 8.88815 10.6792 9.03167 10.6102 9.24958C10.5623 9.39839 10.5304 9.48875 10.5145 9.53127C10.5836 10.1531 10.658 10.7643 10.7324 11.3702C10.8121 11.9761 10.8972 12.5236 10.9822 13.0125C11.0938 13.6237 11.2107 14.1818 11.333 14.692C11.4233 14.9525 11.5987 15.181 11.8592 15.383C12.0877 15.553 12.3481 15.6806 12.6351 15.7603C13.5546 15.7603 14.4316 15.6115 15.2607 15.3192C16.0048 15.0588 16.7595 14.6602 17.5248 14.1287C17.9607 14.1287 18.3593 13.9958 18.7207 13.7353C19.0821 13.4696 19.3585 13.1348 19.5498 12.7308C19.7146 12.2206 19.7943 11.6997 19.7943 11.1736C19.7943 10.6102 19.704 10.0628 19.5286 9.52595C19.3532 8.98914 19.0981 8.52674 18.7685 8.1228C18.6729 8.42575 18.6091 8.74997 18.5666 9.09544C18.5241 9.44091 18.5028 9.95645 18.5028 10.6474C18.5028 10.8228 18.5028 10.9982 18.5028 11.1736C18.5028 11.3436 18.5028 11.5137 18.5028 11.6838H18.5719C18.641 10.8547 18.7101 10.0202 18.7845 9.18578C19.0449 9.55251 19.2416 9.95645 19.3691 10.4029C19.4967 10.8494 19.5605 11.3171 19.5605 11.8007L19.5764 11.7901ZM10.0521 12.1675C10.0521 12.1675 10.0468 12.2366 10.0468 12.3003C10.0468 12.396 10.0521 12.4651 10.0521 12.5182C10.0521 12.582 10.0521 12.6405 10.0361 12.6989C10.0255 12.7574 10.0043 12.8052 9.97236 12.8478C9.74914 12.986 9.56312 13.2145 9.4143 13.544C9.04757 14.3731 8.8084 14.8462 8.69147 14.9525C8.3088 15.2448 7.90486 15.4733 7.46904 15.6328C7.03322 15.7922 6.58145 15.8773 6.10311 15.8773C6.54956 15.6647 6.88972 15.484 7.13952 15.3351C7.5275 15.1119 7.85703 14.8781 8.12809 14.6389C8.4523 14.3519 8.71273 14.0383 8.90938 13.6982C8.99442 13.5759 9.0954 13.342 9.22296 12.9913C9.41961 12.4385 9.68004 12.109 9.99894 12.0133L10.0468 12.1621L10.0521 12.1675ZM4.57242 9.40902C4.53521 9.56846 4.50332 9.72259 4.47143 9.88204C4.41828 10.0521 4.34387 10.1797 4.24289 10.2488C4.09407 10.2647 3.95589 10.2807 3.8177 10.2966C3.67951 10.3125 3.53069 10.3338 3.36062 10.3657C3.36062 10.169 3.37656 10.0043 3.40314 9.87673C3.42971 9.74917 3.4988 9.64287 3.6051 9.56846C3.924 9.51531 4.24289 9.46217 4.5671 9.40902H4.57242ZM9.24422 10.8919C9.11666 10.9876 8.96253 11.1098 8.78182 11.2692C8.39915 11.5988 8.16529 11.7954 8.08557 11.8592V11.6785C8.08557 11.4712 8.07494 11.2958 8.04837 11.1523C8.02179 11.0088 7.96333 10.8919 7.86766 10.7909C7.77731 10.7377 7.68695 10.7005 7.59128 10.6793C7.49562 10.658 7.39995 10.6474 7.29365 10.6474C7.12357 10.6474 6.92692 10.6793 6.71432 10.7484C6.54425 10.8015 6.36885 10.8759 6.18815 10.9663C6.01276 11.0407 5.89051 11.1789 5.83736 11.3808C5.80016 11.5084 5.78421 11.6997 5.78421 11.9708V12.1834C5.9224 12.3428 6.08716 12.481 6.28913 12.5873C6.4911 12.6936 6.80999 12.7946 7.2405 12.8903C7.04385 13.1188 6.86846 13.3102 6.72495 13.4643C6.5283 13.6663 6.34228 13.8257 6.17752 13.9426C6.06591 13.9958 5.96492 14.0224 5.86394 14.0224C5.70981 14.0224 5.43343 13.7938 5.05076 13.342C4.87537 13.1348 4.69466 13.0285 4.50864 13.0285C4.25884 13.1667 4.04624 13.5015 3.87616 14.0383C3.74329 14.4529 3.6742 14.6708 3.65825 14.7027C3.59979 14.8143 3.54664 14.894 3.48817 14.9471C3.43503 15.0003 3.36593 15.0269 3.28621 15.0269C3.24369 15.0269 3.19054 15.0162 3.12145 14.9897C2.98857 14.9578 2.86102 14.8887 2.73877 14.7771C2.63247 14.6867 2.54212 14.5804 2.45708 14.4476C2.2498 14.1393 2.1435 13.8629 2.1435 13.6237C2.1435 13.4802 2.17539 13.3474 2.24449 13.2251C2.28169 13.1613 2.32421 13.0976 2.37736 13.0285C2.93011 12.6352 3.48286 12.2472 4.04093 11.8539C4.17911 11.7423 4.29073 11.6253 4.38639 11.5031C4.48206 11.3809 4.54584 11.248 4.58305 11.0992C4.51395 11.232 4.43423 11.3383 4.34387 11.434C4.25352 11.5244 4.14191 11.6147 4.00904 11.6944C3.61042 11.9017 3.21711 12.109 2.82381 12.311C2.38799 12.5714 2.13287 12.9275 2.05315 13.3686C2.01594 13.5547 2 13.7619 2 13.9798C2 14.3306 2.05846 14.6495 2.18071 14.9418C2.30295 15.2342 2.49429 15.4786 2.77066 15.6753C2.99389 15.7975 3.18522 15.856 3.34467 15.856C3.61573 15.856 3.84959 15.4733 4.04093 14.7027C4.14722 14.2881 4.2801 14.0224 4.45017 13.8948C4.51395 13.8842 4.55647 13.8789 4.57773 13.8789C4.73186 13.8789 4.88068 13.9852 5.00824 14.1924C5.18363 14.4741 5.31119 14.6442 5.37497 14.692C5.47064 14.7664 5.55036 14.8143 5.61945 14.8409C5.68855 14.8674 5.76827 14.8781 5.85862 14.8781C6.01807 14.8781 6.1722 14.8196 6.32634 14.708C6.80468 14.1552 7.28833 13.5972 7.77731 13.0391C7.80388 13.1029 7.81982 13.1613 7.81982 13.2198C7.81982 13.2783 7.81982 13.3367 7.81982 13.4005V13.6291C7.81982 13.7035 7.81983 13.7619 7.82514 13.8151C7.82514 13.8629 7.84108 13.9161 7.86234 13.9692L7.95801 12.7787C8.03242 12.683 8.21313 12.5076 8.50013 12.2472C8.72867 12.0346 8.89344 11.8539 8.99442 11.7157L9.24422 10.9025V10.8919ZM18.1626 12.9381C18.1733 12.8956 18.1626 12.8371 18.1361 12.7574C18.1095 12.6777 18.0935 12.6192 18.0935 12.5873C18.0563 12.4598 17.9713 12.4013 17.8331 12.4013C17.7481 12.4013 17.6684 12.4279 17.5833 12.481C17.4983 12.5342 17.4398 12.598 17.4132 12.6671C17.392 12.7362 17.376 12.7946 17.3654 12.8371C17.3548 12.885 17.3495 12.9275 17.3495 12.97C17.3495 13.0763 17.3973 13.1454 17.4983 13.1879C17.5302 13.2145 17.5621 13.2304 17.5939 13.2411C17.6258 13.2517 17.6577 13.257 17.6896 13.257C17.764 13.257 17.8491 13.2198 17.9394 13.1401C18.0457 13.0391 18.1201 12.9753 18.168 12.9381H18.1626ZM7.81451 12.0186L7.76668 11.8379C7.70821 11.7157 7.62849 11.6306 7.52219 11.5775C7.41589 11.5243 7.29365 11.4925 7.15015 11.4925C7.00664 11.4925 6.8844 11.5084 6.75684 11.5456C6.62929 11.5775 6.51236 11.6253 6.39543 11.6838C6.61866 11.8007 6.80468 11.8805 6.95349 11.9336C7.16609 12.008 7.37337 12.0452 7.56471 12.0452C7.64443 12.0452 7.72947 12.0399 7.81451 12.0239V12.0186Z" fill="white"/>
</svg>
