<svg width="24" height="24" viewBox="0 0 24 24" fill="none" xmlns="http://www.w3.org/2000/svg">
<path fill-rule="evenodd" clip-rule="evenodd" d="M21.3178 5.65092C21.1518 6.14262 20.9613 6.60974 20.7585 7.06457C20.5986 7.4149 20.2053 8.18319 19.5784 9.37557C19.5784 9.09284 19.7013 8.71177 19.941 8.24465C20.1807 7.77754 20.3159 7.43334 20.3467 7.21822C19.9533 7.59315 19.4554 7.9189 18.8593 8.18934C18.7486 8.23851 17.8205 8.55811 16.0688 9.14816C16.9416 8.7425 17.5685 8.44748 17.9435 8.2508C18.6994 7.85744 19.3079 7.49481 19.7566 7.15676C20.3344 6.72652 20.8568 6.22253 21.3178 5.64478V5.65092ZM21.9693 12.1598C21.9877 12.2705 22 12.375 22 12.4856V12.8113C22 13.2047 21.9631 13.5981 21.8955 13.9853C21.8279 14.3725 21.7296 14.7474 21.6005 15.1162C21.4038 15.6878 21.1395 16.1918 20.8015 16.6343C20.4204 17.1445 19.9779 17.5194 19.4739 17.753C18.8347 17.9189 18.1955 18.048 17.5624 18.134C16.9293 18.2201 16.2901 18.2692 15.6509 18.2692C16.4007 18.0849 17.0215 17.8943 17.5255 17.7099C18.1955 17.4641 18.8039 17.1568 19.3571 16.7941C19.9656 16.4008 20.4573 15.9582 20.8322 15.4665C21.244 14.9257 21.5206 14.3172 21.6558 13.6349C21.6865 13.469 21.6988 13.303 21.6988 13.1494C21.6988 12.7191 21.5882 12.2459 21.3608 11.7357C21.2932 11.5759 21.158 11.3055 20.9613 10.9244C20.906 11.1887 20.8752 11.7726 20.8568 12.67C20.8384 13.5673 20.74 14.2373 20.5618 14.6675V12.6024C20.5618 11.8833 20.5864 11.2994 20.6355 10.8384C20.6847 10.3836 20.7953 9.91644 20.9613 9.44318C21.2563 9.82425 21.4837 10.2422 21.6497 10.697C21.8095 11.1518 21.9201 11.6374 21.9693 12.1598ZM14.858 10.8199C14.7966 11.0289 14.6798 11.2072 14.4954 11.3485C14.311 11.4899 14.1082 11.5821 13.8808 11.6313C13.9299 11.5514 14.0406 11.4653 14.2065 11.367C14.3725 11.2686 14.4892 11.1764 14.563 11.0842C14.3848 11.0658 14.2495 11.0535 14.1512 11.0535C14.016 11.0535 13.9053 11.0658 13.8193 11.0904C13.7333 11.115 13.6472 11.1641 13.5612 11.244C13.5427 11.2133 13.5489 11.1641 13.5734 11.0965C13.6042 11.0289 13.6349 10.949 13.6779 10.863C13.8746 10.7339 14.1082 10.6724 14.3725 10.6724C14.5569 10.6724 14.7228 10.7216 14.858 10.8199ZM11.4345 11.115C11.2747 11.4776 11.0842 11.7911 10.8568 12.0615C10.7953 12.0123 10.6601 11.957 10.4388 11.8894C10.2176 11.8279 10.1069 11.7357 10.1069 11.619C10.1868 11.3915 10.2975 11.201 10.4388 11.0535C10.5802 10.8998 10.7339 10.8261 10.906 10.8261C11.0904 10.8261 11.2686 10.9244 11.4345 11.1211V11.115ZM19.5476 11.9693C19.5476 11.4653 19.4985 11.0105 19.4001 10.6048C19.3018 10.1992 19.1297 9.84269 18.8838 9.54766C18.7056 10.0762 18.595 10.5987 18.5519 11.1088C18.5089 11.619 18.4843 12.3196 18.4843 13.2047C18.5704 12.3872 18.6687 11.5698 18.7671 10.7585C18.9453 11.1027 19.0621 11.367 19.1235 11.5575C19.2342 11.871 19.2833 12.166 19.2833 12.4426C19.2833 12.6208 19.2588 12.7868 19.2034 12.9343C19.1481 13.0879 19.0621 13.2293 18.9453 13.3707C18.8838 13.4075 18.7978 13.469 18.6749 13.555C18.5519 13.6411 18.4413 13.678 18.343 13.678C18.2815 13.678 18.2262 13.6657 18.1647 13.6349C17.5747 13.1801 17.2428 12.3934 17.169 11.2748C17.0953 10.1561 17.0092 9.43703 16.9109 9.12357C16.8125 9.28952 16.7511 9.44318 16.7203 9.5784C16.6896 9.71361 16.6773 9.88571 16.6773 10.0947C16.6773 10.1746 16.7203 10.5495 16.8125 11.2317C16.8433 11.4592 16.8556 11.6804 16.8556 11.8955C16.2532 12.3381 15.8967 12.6085 15.78 12.7069C15.3743 13.051 15.0916 13.3952 14.9256 13.7394C14.815 13.6226 14.6798 13.555 14.5138 13.5305C14.0529 13.6595 13.6779 13.9668 13.3952 14.4585C13.1616 14.8642 13.0141 15.3252 12.965 15.8476C12.504 16.1119 11.9754 16.2471 11.3854 16.2471C11.2194 16.2471 11.0904 16.2471 11.0043 16.2348C11.0166 16.1734 11.1026 15.8968 11.2686 15.3928C11.3854 15.0363 11.4468 14.7413 11.4468 14.5077C11.4468 14.3233 11.4161 14.1635 11.3485 14.0283C11.287 13.8931 11.1764 13.764 11.0166 13.6349C10.7339 13.6349 10.4696 13.7271 10.236 13.9177C10.0393 14.0775 9.86109 14.2864 9.70744 14.5569C9.54763 14.8273 9.437 15.1285 9.36939 15.4665C9.30178 15.7984 9.2649 16.1303 9.2649 16.4561C8.7732 16.7142 8.23233 16.9171 7.64843 17.0707C7.06454 17.2244 6.47449 17.2981 5.88445 17.2981C5.38046 17.2981 4.91948 17.2428 4.48924 17.126C4.059 17.0154 3.67794 16.831 3.33374 16.5852C3.10018 16.3885 2.90965 16.1734 2.77443 15.9459C2.63921 15.7124 2.56546 15.4665 2.56546 15.2022C2.56546 15.1531 2.57775 15.0609 2.59619 14.9195C2.81131 14.6429 3.08175 14.4032 3.40135 14.1943C3.72096 13.9853 4.20652 13.7763 4.86417 13.555C5.51567 13.3338 5.9705 13.1617 6.22864 13.0449C6.68961 12.8298 7.07068 12.5655 7.3657 12.2459C7.00922 12.4917 6.54825 12.7007 5.97664 12.8789C5.65089 12.9773 5.15304 13.1187 4.48924 13.3092C3.91764 13.4936 3.46281 13.7087 3.11862 13.9423C2.67609 14.2496 2.34419 14.6552 2.11678 15.1654C2.03688 15.4235 2 15.6632 2 15.8906C2 16.5421 2.23356 17.0646 2.70682 17.4702C3.08175 17.7837 3.49355 18.0111 3.94837 18.1463C4.4032 18.2815 4.90105 18.3553 5.45421 18.3553C5.73079 18.3553 6.00123 18.343 6.26552 18.3123C6.88629 18.2447 7.48863 18.1094 8.07867 17.9128C8.66872 17.7161 9.24647 17.4702 9.81807 17.1752C10.1008 17.2858 10.4143 17.335 10.7462 17.335C11.0781 17.335 11.4284 17.2858 11.791 17.1813C12.1537 17.0769 12.5409 16.9478 12.9404 16.788C13.1186 16.622 13.4198 16.5114 13.8377 16.4561C14.2618 16.4008 14.5323 16.3516 14.649 16.3024C15.1715 16.1426 15.6325 15.8599 16.0258 15.4419C16.4253 15.024 16.6589 14.5569 16.7265 14.0467C16.6466 13.9484 16.5605 13.8931 16.4683 13.8746C16.3762 13.8624 16.2225 13.8501 16.0197 13.8501C15.8906 13.8501 15.7677 13.8378 15.6447 13.8193C15.5218 13.8009 15.4235 13.7579 15.3436 13.6841C15.4727 13.5366 15.6755 13.3645 15.9644 13.1678C16.5052 12.7929 16.8371 12.5163 16.9662 12.3258C17.0522 12.9773 17.1444 13.4321 17.2305 13.6964C17.3964 14.1881 17.673 14.5384 18.0541 14.7413C18.1401 14.772 18.2262 14.7843 18.3061 14.7843C18.5642 14.7843 18.7855 14.6737 18.9822 14.4463C19.1666 14.0222 19.3141 13.6104 19.4124 13.217C19.5108 12.8175 19.5599 12.3995 19.5599 11.957L19.5476 11.9693ZM16.1119 14.6982C15.9828 14.6614 15.8291 14.6306 15.657 14.6183C15.4788 14.6061 15.3067 14.5876 15.1408 14.5692C14.9748 14.8949 14.8089 15.2145 14.6368 15.528C14.8703 15.4665 15.1162 15.3682 15.3743 15.2207C15.6325 15.0732 15.8783 14.9011 16.1119 14.7044V14.6982ZM14.6368 14.8335C14.6368 15.0301 14.5261 15.1838 14.311 15.2883C14.1942 15.3498 14.016 15.4235 13.7824 15.5219C13.7148 15.5341 13.6472 15.5096 13.5919 15.4542C13.5304 15.3989 13.4874 15.3436 13.4567 15.2821C13.4382 15.2022 13.4259 15.1531 13.4259 15.1346C13.4259 14.9994 13.4751 14.8765 13.5734 14.7659C13.6349 14.7044 13.7333 14.6306 13.8808 14.5323C13.9791 14.5139 14.0529 14.5016 14.102 14.5016C14.2127 14.5016 14.311 14.5323 14.4093 14.5876C14.5077 14.6491 14.5814 14.7228 14.6306 14.8212L14.6368 14.8335ZM10.8629 15.6018L10.1868 16.0136C10.0578 15.9029 9.97173 15.8107 9.92256 15.7308C9.84266 15.614 9.80578 15.4911 9.80578 15.362C9.80578 15.2821 9.83036 15.2084 9.87953 15.1346C9.9287 15.0609 9.97787 14.9871 10.027 14.9195C10.1438 14.8027 10.279 14.7413 10.4266 14.7413C10.6355 14.7413 10.783 14.8458 10.8691 15.0486C10.8691 15.0978 10.8814 15.1592 10.8998 15.2391C10.9183 15.319 10.9305 15.3743 10.9305 15.4174C10.9305 15.485 10.9121 15.5464 10.8691 15.5956L10.8629 15.6018Z" fill="white"/>
</svg>
