<svg width="24" height="24" viewBox="0 0 24 24" fill="none" xmlns="http://www.w3.org/2000/svg">
<path fill-rule="evenodd" clip-rule="evenodd" d="M21.9091 10.8442C21.9697 11.1386 22 11.4329 22 11.7273C22 12.1862 21.9307 12.6277 21.7922 13.0433C21.5541 13.6104 21.3939 13.9567 21.316 14.0823C21.0823 14.4589 20.7922 14.71 20.4372 14.8399C20.0909 14.9308 19.7273 15.0044 19.3463 15.065C18.9654 15.1256 18.6147 15.1559 18.2857 15.1559C18.2121 15.1559 18.1429 15.1559 18.0736 15.1559C18.0087 15.1559 17.8788 15.1429 17.6926 15.1212C18.1515 15.0433 18.5584 14.9524 18.9134 14.8529C19.3636 14.723 19.7619 14.5671 20.1039 14.3853C20.4762 14.1818 20.7922 13.9264 21.0519 13.6104C21.3117 13.2987 21.5195 12.9221 21.671 12.4806C21.7013 12.3896 21.7229 12.2901 21.7359 12.1819C21.7489 12.0736 21.7576 11.9784 21.7576 11.8918C21.7576 11.5888 21.6926 11.2684 21.5628 10.9308C21.5022 10.7792 21.3636 10.4892 21.1472 10.0606C21.1472 10.2511 21.1558 10.5325 21.1775 10.9091C21.1991 11.2857 21.2078 11.5671 21.2078 11.7576C21.2078 11.9611 21.1948 12.1862 21.1688 12.4329H21.1169C21.0563 12.065 21.0087 11.7013 20.974 11.3377C20.9351 10.9741 20.9177 10.6191 20.9177 10.2771C20.9177 10.026 20.9264 9.78359 20.9481 9.54982C20.9697 9.31606 21.0043 9.09094 21.0519 8.86583C21.4848 9.44592 21.7662 10.1039 21.9048 10.8355L21.9091 10.8442ZM17.9784 9.44592C17.9394 9.48921 17.9091 9.53683 17.8918 9.58445C17.8745 9.63207 17.8528 9.69268 17.8225 9.76627C17.7489 9.75761 17.71 9.71864 17.71 9.64505C17.71 9.61907 17.71 9.58444 17.7186 9.53682C17.7229 9.4892 17.7186 9.4589 17.71 9.44592C17.671 9.46756 17.6234 9.54549 17.5714 9.69267C17.5195 9.83553 17.4329 9.89614 17.316 9.87016C17.2771 9.85718 17.2554 9.83553 17.2554 9.80955C17.2597 9.79656 17.2684 9.77059 17.2771 9.74029C17.2857 9.70998 17.2857 9.67969 17.2684 9.65371H17.2251C17.1991 9.70999 17.1775 9.76194 17.1558 9.81822C17.1342 9.87449 17.1212 9.92211 17.1212 9.9654C17.1212 10.026 17.1429 10.0736 17.1861 10.1126C17.2251 10.1386 17.2641 10.1515 17.303 10.1515C17.3593 10.1515 17.4113 10.1299 17.4675 10.0866C17.5238 10.0433 17.5758 9.9957 17.6234 9.9351C17.6926 10.0087 17.7576 10.039 17.8182 10.026C17.8831 9.95241 17.9307 9.88315 17.961 9.82687C17.9913 9.76626 18.0043 9.697 18.0043 9.61042C18.0043 9.55414 17.9957 9.50219 17.974 9.44592H17.9784ZM18.0216 11.1992L17.5974 10.9741L17.2987 11.407L17.7576 11.9741C17.8139 11.8702 17.8701 11.7576 17.9351 11.6451C18 11.5325 18.0303 11.4199 18.0303 11.3204C18.0303 11.2901 18.026 11.2511 18.0173 11.2035L18.0216 11.1992ZM19.5541 11.5715C19.5671 11.6321 19.5801 11.6883 19.5844 11.749C19.5887 11.8096 19.5931 11.8658 19.5931 11.9178C19.5931 12.2381 19.5022 12.5498 19.316 12.8485C19.0996 13.2035 18.7056 13.5931 18.1429 14.0173C18.1342 13.9178 18.1645 13.7749 18.2338 13.5844C18.303 13.394 18.329 13.2425 18.316 13.1342C18.2338 13.3204 18.1299 13.4892 18.013 13.6407C17.8701 13.8225 17.71 13.9567 17.5368 14.0433C17.4632 14.0779 17.3766 14.0953 17.2771 14.0953C17.1861 14.0953 17.0996 14.0779 17.0087 14.0433C16.7446 13.7922 16.5455 13.4849 16.4069 13.1213C16.2944 12.8225 16.2121 12.4589 16.1688 12.0217C16.1472 11.8832 16.1212 11.5368 16.0779 10.987C16.039 10.4373 15.987 10.0217 15.9221 9.74029C15.8615 9.81821 15.8139 9.92644 15.7749 10.0606C15.7143 10.2641 15.684 10.3723 15.6797 10.3896L16.0736 13.4892C16.1775 13.8702 16.2684 14.1429 16.3506 14.2987C16.4935 14.5801 16.6926 14.7706 16.9437 14.8702C17.0173 14.8831 17.0909 14.8918 17.1602 14.8918C17.355 14.8918 17.5108 14.8399 17.6364 14.736C17.7359 14.5368 17.9091 14.3723 18.1558 14.2468C18.7576 13.9394 19.0909 13.7403 19.1602 13.6537C19.3766 13.2901 19.5455 12.9091 19.6667 12.5109C19.7879 12.1083 19.8442 11.7013 19.8442 11.2857C19.8442 11.0433 19.8182 10.8009 19.7706 10.5628C19.7229 10.3247 19.645 10.1039 19.5411 9.90047C19.4762 9.68835 19.4113 9.46756 19.342 9.24245C19.2727 9.01734 19.1991 8.8312 19.1169 8.67969C19.0043 8.90912 18.9221 9.2035 18.8701 9.57146C18.8442 9.77925 18.8095 10.0953 18.7662 10.5152C18.7662 10.6147 18.7403 10.7316 18.684 10.8658C18.5714 11.1429 18.5108 11.3161 18.5108 11.3853C18.5108 11.4286 18.5195 11.4762 18.5325 11.5195C18.6797 11.3204 18.7836 10.9957 18.8442 10.5455C18.9048 10.0953 18.9567 9.80523 19.0087 9.68402L19.5584 11.5801L19.5541 11.5715ZM14.8788 10.4026C14.8398 10.5325 14.7922 10.658 14.7316 10.7793C14.6753 10.9005 14.6104 11.013 14.5411 11.1169C14.4978 11.0606 14.4286 11.0217 14.3333 10.9914C14.2381 10.9611 14.1385 10.9308 14.0303 10.8961C14.0649 10.7663 14.1082 10.6494 14.1645 10.5455C14.2208 10.4416 14.2944 10.329 14.3853 10.2035C14.5108 10.2295 14.6061 10.2511 14.6797 10.2771C14.7532 10.3031 14.8182 10.342 14.8788 10.4026ZM14.7836 12.5498C14.5844 12.723 14.3939 12.9957 14.2035 13.368C14.1082 13.5628 14.0173 13.7533 13.9264 13.9394C13.7576 14.2511 13.6061 14.4805 13.4719 14.6234C13.2684 14.8355 13.0173 14.9741 12.7229 15.039C12.1688 15.1515 11.7446 15.2295 11.4545 15.2641C11.1645 15.3031 10.8874 15.3204 10.619 15.3204C11.0996 15.2165 11.5065 15.0996 11.8398 14.9697C12.2771 14.8009 12.6494 14.5974 12.9567 14.3507C13.3203 14.065 13.5974 13.723 13.7879 13.3247C13.8571 13.1212 14.0043 12.8355 14.2338 12.4719C14.4978 12.039 14.684 11.8269 14.7922 11.8269C14.8398 11.8269 14.8658 11.8875 14.8658 12.0044C14.8658 12.1039 14.8615 12.1775 14.8528 12.2295C14.8442 12.2814 14.8225 12.3853 14.7879 12.5455L14.7836 12.5498ZM6.85281 10.0217C6.85281 10.0217 6.82251 10.1645 6.77056 10.3853C6.72294 10.6104 6.62771 10.7446 6.49351 10.7922L5.69264 10.9048C5.69264 10.7403 5.71861 10.5844 5.77489 10.4329C5.83117 10.2814 5.91775 10.1819 6.04329 10.1299C6.17316 10.1299 6.30303 10.1169 6.44156 10.0909C6.57576 10.065 6.71429 10.0433 6.85281 10.0173V10.0217ZM13.4372 11.9524C13.2641 12.0087 13.013 12.1472 12.6797 12.3767C12.5108 12.4892 12.3636 12.5845 12.2424 12.658C12.2121 12.6148 12.1991 12.5628 12.1991 12.5022C12.1991 12.4589 12.2165 12.368 12.2554 12.2251C12.2944 12.0866 12.3117 11.9784 12.3117 11.8961C12.3117 11.7576 12.2597 11.6407 12.1515 11.5498C12.0433 11.4589 11.9307 11.3896 11.8052 11.3507C11.6797 11.3074 11.5411 11.2857 11.381 11.2857C11.1126 11.2857 10.8615 11.342 10.6234 11.4589C10.4069 11.5498 10.2597 11.723 10.1861 11.9784C10.1558 12.078 10.1255 12.3031 10.0952 12.6537C10.2641 12.8615 10.4675 13.0217 10.7013 13.1386C10.9351 13.2511 11.1991 13.329 11.4848 13.3637C11.1082 13.7013 10.7056 13.9394 10.2727 14.078C10.2121 14.0866 10.1645 14.0909 10.1299 14.0909C10.0173 14.0909 9.8961 14.0693 9.77489 14.0217C9.64935 13.9741 9.53247 13.9178 9.41991 13.8528C9.24242 13.6624 9.11688 13.4329 9.03896 13.1559C8.98268 12.9481 8.95671 12.6797 8.95671 12.355C9.2684 11.9784 9.58009 11.5974 9.89177 11.2165C10.0823 11 10.2511 10.8312 10.4026 10.7186C10.6061 10.5715 10.8182 10.4719 11.0433 10.4199C11.1429 10.3247 11.2208 10.2078 11.2771 10.065C11.3333 9.9221 11.3636 9.78358 11.3636 9.64505C11.1039 9.70565 10.8658 9.80956 10.6407 9.9654C10.4632 10.0909 10.2597 10.2641 10.039 10.4849C9.91342 10.6104 9.77489 10.7619 9.62338 10.9394C9.2684 11.3464 9.04329 11.5931 8.95238 11.684L8.82684 9.40262C8.70996 9.52816 8.62771 9.65804 8.58009 9.79656C8.5368 9.93509 8.51515 10.0996 8.51515 10.2944C8.51515 10.407 8.54978 10.7143 8.61905 11.2165C8.64935 11.4286 8.66234 11.6147 8.66234 11.7749C8.66234 11.8788 8.65368 11.9827 8.64069 12.078C8.2381 12.5628 7.77056 12.9654 7.23377 13.2814C6.77489 13.5541 6.22944 13.7836 5.60606 13.9741C5.35931 14.013 5.12987 14.0347 4.91342 14.0347C4.48918 14.0347 4.08658 13.9611 3.70996 13.8139C3.33333 13.6667 3.01299 13.4546 2.74459 13.1689C2.57576 12.9914 2.45455 12.8269 2.38095 12.684C2.30736 12.5368 2.2684 12.394 2.2684 12.2554C2.2684 12.1732 2.27706 12.0996 2.2987 12.039C2.34199 11.8961 2.4329 11.7576 2.5671 11.6234C2.67532 11.5195 2.82684 11.407 3.01299 11.2901C3.11255 11.2295 3.25108 11.1559 3.42857 11.0606C3.79654 10.8658 4.0303 10.7403 4.1342 10.6754C4.33333 10.5585 4.49784 10.4329 4.63203 10.3031C4.79221 10.1559 4.90476 10.0044 4.97403 9.84851C4.80952 10.039 4.61905 10.1992 4.4026 10.3334C4.35498 10.3637 3.99567 10.5412 3.32468 10.8615C2.97835 11.0217 2.71429 11.1819 2.5368 11.3464C2.2987 11.5628 2.1342 11.8442 2.03896 12.1775C2.02597 12.2381 2.01299 12.2987 2.00866 12.3593C2.00433 12.4199 2 12.4805 2 12.5412C2 12.8615 2.08658 13.1775 2.25974 13.4762C2.4329 13.7792 2.66234 14.0433 2.94372 14.2641L2.96537 14.2251C3.06061 14.329 3.17749 14.4156 3.32035 14.4849C3.45022 14.5412 3.58009 14.5974 3.71429 14.6537C4.06926 14.7619 4.42424 14.8182 4.77922 14.8182C5.25541 14.8182 5.7316 14.7186 6.21212 14.5195C6.62338 14.3507 7.05195 14.0996 7.49784 13.7706C7.84848 13.5065 8.2381 13.1732 8.65801 12.7663C8.74026 13.4632 8.80087 13.8702 8.8355 13.9784C8.9697 14.4199 9.22078 14.7057 9.59307 14.8312C9.68398 14.8442 9.77056 14.8529 9.86147 14.8529C10.1212 14.8529 10.3766 14.7922 10.6277 14.6667C10.8095 14.5758 11.0303 14.4243 11.2814 14.2122C11.3766 14.1342 11.5758 13.9524 11.8745 13.671C11.8788 13.7057 11.8831 13.7533 11.8831 13.8182C11.8831 13.8875 11.8745 13.9957 11.8528 14.1386C11.8182 14.3896 11.8009 14.5541 11.8009 14.6234C11.8009 14.645 11.8009 14.6754 11.8095 14.7186L12.1212 13.3896C12.2857 13.2468 12.4502 13.1039 12.6104 12.9567C12.8052 12.8009 12.9827 12.71 13.1515 12.6797C13.1645 12.6451 13.2165 12.5238 13.3074 12.316C13.368 12.1775 13.4069 12.052 13.4242 11.9438L13.4372 11.9524ZM11.9957 12.4806C11.9221 12.342 11.8139 12.2425 11.671 12.1775C11.5281 12.1169 11.3723 12.0866 11.1991 12.0866C11.0952 12.0866 11 12.0953 10.9134 12.1083C10.8268 12.1212 10.7359 12.1472 10.6407 12.1732C10.8442 12.3031 10.9957 12.394 11.0952 12.4502C11.2684 12.5412 11.4372 12.6018 11.6017 12.6364C11.697 12.645 11.7662 12.6494 11.8182 12.6494C11.8745 12.6494 11.9177 12.6364 11.9481 12.6148C11.9784 12.5931 11.9957 12.5455 11.9957 12.4762V12.4806Z" fill="white"/>
</svg>
