<svg width="24" height="24" viewBox="0 0 24 24" fill="none" xmlns="http://www.w3.org/2000/svg">
<path fill-rule="evenodd" clip-rule="evenodd" d="M16.6815 8.22766L16.5409 8.60853C16.5409 8.60853 16.5046 8.58133 16.4774 8.57226C16.4502 8.56319 16.4185 8.55412 16.3913 8.55412C16.2961 8.55412 16.1873 8.66294 16.0648 8.88058C15.9197 9.12995 15.7973 9.27958 15.693 9.32946C15.489 9.49722 15.285 9.66498 15.0855 9.83274C14.8452 10.0141 14.6321 10.1411 14.4416 10.2045C14.5278 10.1184 14.759 9.91436 15.1399 9.5879C15.6568 9.13902 15.9696 8.75362 16.0875 8.42717C15.9197 8.34102 15.7973 8.27301 15.7157 8.2322C15.5706 8.15058 15.4709 8.05083 15.4119 7.91934C15.4573 7.71984 15.5434 7.54755 15.6749 7.40245C15.8064 7.25736 15.9696 7.13041 16.1646 7.02612C16.2507 7.02612 16.3097 7.06693 16.346 7.14401C16.3777 7.22109 16.414 7.29817 16.4502 7.37072C16.4638 7.40699 16.4729 7.4614 16.4729 7.53394C16.4729 7.60649 16.4638 7.69264 16.4457 7.79239C16.4276 7.89214 16.4185 7.94655 16.4185 7.95562C16.4185 8.09164 16.5092 8.18232 16.6905 8.22766H16.6815ZM20.9708 11.5784C21.0433 11.2746 21.0796 11.0025 21.0796 10.7622C21.0796 10.0458 20.8665 9.40654 20.4357 8.84884C20.2816 9.003 20.1591 9.21157 20.0639 9.47908C19.9687 9.74659 19.9234 10.0096 19.9234 10.2635C19.9687 10.2862 19.9959 10.2816 20.0095 10.2453C20.0231 10.2136 20.0458 10.2 20.073 10.2091C20.1909 10.4267 20.3088 10.6444 20.4312 10.862C20.4312 10.9119 20.4493 11.0252 20.4811 11.2066C20.5128 11.3879 20.5309 11.5194 20.5309 11.6147C20.5309 11.7371 20.5083 11.8414 20.4584 11.9184C20.4131 12.0001 20.3269 12.059 20.2045 12.1043C20.073 11.9502 19.9596 11.8414 19.869 11.7779C19.7329 11.6827 19.5878 11.6373 19.4337 11.6373C19.3702 11.6373 19.2977 11.6464 19.2161 11.6691C19.0075 11.8776 18.8443 12.1406 18.7354 12.4489C18.6266 12.7572 18.5722 13.0746 18.5722 13.4011C18.6311 13.5235 18.6992 13.6097 18.7808 13.655C18.8624 13.7003 18.9531 13.7276 19.0619 13.7276C19.1435 13.7276 19.2795 13.7003 19.479 13.6505C19.6785 13.6006 19.8236 13.5779 19.9188 13.587C19.6785 14.0812 19.3475 14.5165 18.9168 14.8928C18.5541 15.2102 18.1097 15.5004 17.5883 15.7543C17.153 15.9629 16.5273 16.2122 15.7066 16.4934C15.1535 16.6838 14.7862 16.8108 14.5958 16.8833C15.0583 16.8833 15.5434 16.8697 16.0467 16.847C16.55 16.8198 16.9989 16.7745 17.3888 16.711C17.9601 16.6158 18.4452 16.4072 18.8352 16.0808C19.1843 15.7996 19.479 15.4188 19.7284 14.9382C19.9007 14.6117 20.0866 14.1402 20.2816 13.5235C20.3904 13.188 20.5037 12.8434 20.6171 12.4897C20.735 12.1361 20.8438 11.8323 20.9526 11.5874L20.9708 11.5784ZM21.9955 15.5729L21.5375 16.6838C21.3698 16.7926 21.1521 16.8652 20.8801 16.9105C20.608 16.9558 20.3042 16.974 19.9732 16.974C19.9506 16.7926 19.9914 16.5931 20.0866 16.3755C20.1864 16.1533 20.2816 15.9447 20.3768 15.7407C20.5808 15.6772 20.8257 15.6319 21.1113 15.6047C21.397 15.5775 21.6917 15.5684 22 15.5684L21.9955 15.5729ZM12.1428 7.89667C12.0476 8.09164 11.9524 8.26394 11.8617 8.41356C11.7438 8.60853 11.635 8.77629 11.5262 8.91232L10.6103 8.52238C10.633 8.38636 10.6783 8.2458 10.7508 8.10978C10.7735 8.06444 10.9141 7.85133 11.1771 7.46593C11.5625 7.56568 11.771 7.62463 11.8073 7.63823C11.9161 7.6881 12.0295 7.77425 12.1428 7.89667ZM8.18 7.60649C8.1528 7.69264 8.13466 7.76065 8.1256 7.80146C8.09839 7.89667 8.06212 7.95562 8.02584 7.98736C7.96237 7.96469 7.90342 7.94655 7.85808 7.93295C7.81274 7.91934 7.7674 7.91481 7.72206 7.92388C7.68579 8.0191 7.64498 8.26847 7.60417 8.68108C7.55883 9.09368 7.46815 9.37026 7.32306 9.51535C7.26411 9.46548 7.14169 9.26598 6.95126 8.91685C6.80617 8.65387 6.65201 8.52692 6.49331 8.52692C6.44797 8.52692 6.39356 8.53598 6.33008 8.55866C6.23487 8.53598 6.18953 8.47251 6.18953 8.36369C6.18953 8.29114 6.20766 8.22766 6.24394 8.16872C6.28021 8.0599 6.31195 7.96922 6.34369 7.89667C6.37089 7.82413 6.42077 7.78786 6.48424 7.78786C6.51145 7.78786 6.54772 7.79692 6.59306 7.81959C6.71548 7.93748 6.85151 8.10071 6.9966 8.30928C7.11902 8.49064 7.24144 8.67201 7.3684 8.85337C7.3684 8.57226 7.3956 8.31835 7.44548 8.09164C7.49535 7.86494 7.59057 7.65637 7.72659 7.47047C7.79914 7.44326 7.87622 7.4478 7.9533 7.49314C8.03491 7.53848 8.10746 7.57475 8.18 7.61102V7.60649ZM17.7243 10.336C17.6382 10.531 17.5022 10.8529 17.3208 11.3063C17.1258 11.6781 16.8628 11.9139 16.5364 12.0137L16.5137 11.5013C16.4548 11.5376 16.4094 11.592 16.3777 11.66C16.346 11.728 16.3051 11.8096 16.2643 11.9048C16.1192 12.1361 15.9333 12.331 15.7021 12.4852C15.4754 12.6394 15.2487 12.721 15.022 12.721C15.0084 12.6756 15.0129 12.6076 15.0401 12.5079C15.0673 12.4081 15.0719 12.3265 15.0583 12.263C14.5368 12.662 14.1288 12.9386 13.8386 13.0882C13.358 13.3422 12.8955 13.4691 12.4466 13.4691C12.5826 13.0701 12.6733 12.7618 12.7141 12.5396C12.7549 12.3174 12.7731 12.1089 12.7731 11.9139C12.7731 11.6691 12.7368 11.4378 12.6642 11.2293C12.5192 10.9028 12.2652 10.7622 11.9025 10.803C11.6577 10.9708 11.431 11.193 11.2315 11.465C11.032 11.7416 10.8687 12.0454 10.7372 12.3809C10.5559 12.8661 10.4652 13.324 10.4652 13.7502C10.4652 13.8862 10.4743 14.0177 10.4969 14.1402C9.96645 14.4439 9.41782 14.6933 8.84199 14.8792C8.27069 15.0697 7.66765 15.1966 7.03741 15.2601C6.80617 15.2873 6.54319 15.3054 6.253 15.3054C5.73611 15.3054 5.24643 15.251 4.78395 15.1377C4.32147 15.0243 3.88619 14.8475 3.48719 14.6117C3.20608 14.4439 2.97484 14.2172 2.80254 13.9271C2.63024 13.6369 2.53956 13.3376 2.53956 13.0248V12.8615C2.7436 12.4535 3.04285 12.127 3.43278 11.8822C3.70936 11.7099 4.10837 11.5376 4.63432 11.3698C5.2827 11.1522 5.70438 10.998 5.89934 10.9119C6.37089 10.7033 6.74269 10.4494 7.0102 10.1592C6.74722 10.3496 6.44797 10.5038 6.10791 10.6262C5.91748 10.6897 5.60009 10.7804 5.15575 10.8937C4.7114 11.0071 4.37134 11.1068 4.1401 11.193C3.77737 11.329 3.47812 11.4877 3.23781 11.66C2.86148 11.9502 2.5577 12.2902 2.33552 12.6847C2.10882 13.0746 2 13.4918 2 13.9271C2 14.2807 2.13602 14.6434 2.4126 15.0062C2.5577 15.2011 2.82068 15.4732 3.19701 15.8223C3.61868 16.0626 4.04942 16.2349 4.49377 16.3392C4.93811 16.4435 5.40966 16.4979 5.91748 16.4979C6.37996 16.4979 6.84244 16.4526 7.30038 16.3664C7.99864 16.2349 8.67422 16.0309 9.33621 15.7498C9.99819 15.4687 10.6194 15.1331 11.2088 14.7432C11.2541 14.7523 11.3267 14.7659 11.4264 14.7885H11.7529C12.2018 14.7885 12.6552 14.7069 13.1131 14.5392C13.4759 14.4077 13.8839 14.2036 14.3328 13.9316C14.4053 13.9679 14.4643 13.9905 14.5051 14.0041C14.5504 14.0132 14.6185 14.0223 14.7137 14.0223C14.886 14.0223 15.09 13.9588 15.3212 13.8273C15.9469 13.4782 16.2734 13.3013 16.3006 13.2923C16.822 13.0293 17.2029 12.6076 17.4432 12.0182C17.6336 11.5557 17.7243 10.9935 17.7243 10.3406V10.336ZM16.1555 7.84226C16.1555 7.84226 16.1328 7.78332 16.1056 7.68357C16.0784 7.58382 16.0331 7.52941 15.9696 7.51581L15.8381 7.70171C15.9107 7.75158 15.9651 7.78786 16.0014 7.81053C16.0376 7.8332 16.0875 7.84226 16.1555 7.84226ZM12.3151 13.0112C11.9977 13.256 11.8254 13.383 11.8028 13.392C11.6939 13.4419 11.5806 13.4555 11.4672 13.4374C11.3494 13.392 11.2451 13.3376 11.1499 13.2651C11.0546 13.1925 10.9912 13.1109 10.9549 13.0157C11.0002 12.7981 11.0682 12.6076 11.1635 12.4489C11.2587 12.2902 11.3902 12.1678 11.5534 12.0907C11.6123 12.0771 11.6531 12.0681 11.6849 12.0681C11.8164 12.0681 11.9343 12.1225 12.0431 12.2313C12.1292 12.3174 12.1972 12.4263 12.2516 12.5577C12.2516 12.585 12.2652 12.653 12.2879 12.7573C12.3151 12.8615 12.3242 12.9477 12.3151 13.0112Z" fill="white"/>
</svg>
