<svg width="24" height="24" viewBox="0 0 24 24" fill="none" xmlns="http://www.w3.org/2000/svg">
<path fill-rule="evenodd" clip-rule="evenodd" d="M22 11.9259C22 12.3416 21.9366 12.7642 21.8168 13.194C21.6971 13.6237 21.528 14.0323 21.3237 14.4198C21.0137 15.251 20.3656 15.7512 19.3723 15.9062C18.4917 15.9907 17.6111 16.0823 16.7305 16.1669C17.5055 15.9978 18.1536 15.8146 18.6819 15.6103C19.4146 15.3285 20.0134 14.9904 20.4713 14.6029C21.0278 14.1239 21.4153 13.5462 21.6266 12.8699C21.7112 12.6093 21.7605 12.3345 21.7605 12.0457C21.7605 11.6512 21.683 11.2496 21.528 10.8269C21.4223 10.5381 21.2392 10.1647 20.9926 9.70683C20.9503 9.86886 20.9222 10.0309 20.9151 10.1859C20.901 10.3409 20.894 10.5099 20.894 10.6861C20.894 10.841 20.901 11.0806 20.9222 11.4046C20.9433 11.7287 20.9503 11.9682 20.9503 12.1302C20.9503 12.2923 20.9503 12.4402 20.9292 12.567C20.9151 12.7008 20.8869 12.8558 20.8517 13.039C20.7953 12.7572 20.7601 12.4331 20.7319 12.0668C20.7038 11.7005 20.6897 11.3553 20.6897 11.0453C20.6897 10.6579 20.7038 10.2563 20.739 9.84068C20.7742 9.418 20.8165 9.0094 20.8728 8.6008C21.2744 9.00235 21.5703 9.51662 21.7605 10.1295C21.9225 10.6508 22 11.2637 22 11.9471V11.9259ZM16.5615 9.78433L16.2304 10.5311C16.1388 10.5311 15.9274 10.5522 15.6104 10.6015C15.4273 10.6297 15.3005 10.6438 15.223 10.6438C15.1314 10.6438 15.0328 10.6367 14.9412 10.6156C14.9905 10.4324 15.0398 10.2915 15.0962 10.1929C15.1807 10.0309 15.2934 9.91818 15.4273 9.86182C15.5118 9.86182 15.6245 9.85477 15.7584 9.83363C16.0683 9.78432 16.2585 9.76319 16.3219 9.76319C16.3994 9.76319 16.4769 9.77023 16.5544 9.79137L16.5615 9.78433ZM15.4766 8.6008C15.4766 8.6008 15.1102 8.70648 14.4692 8.96009C13.8352 9.2137 13.4688 9.36164 13.3702 9.41096C13.1659 9.53072 13.0109 9.67865 12.8982 9.85477C13.0955 9.73501 13.5675 9.53776 14.3212 9.25597C14.6946 9.12212 14.9623 8.99532 15.1384 8.8826L15.4695 8.6008H15.4766ZM11.2075 9.4814C11.1582 9.70683 11.0243 9.87591 10.8059 9.99567C10.6439 10.0802 10.4325 10.1577 10.1789 10.207C10.2212 10.1295 10.2917 10.0732 10.3903 10.0238C10.665 9.88295 10.813 9.79841 10.8341 9.78433C10.7073 9.72092 10.5875 9.69274 10.4819 9.69274C10.3621 9.69274 10.2494 9.73501 10.1578 9.8125C10.1226 9.7491 10.1367 9.6857 10.2001 9.60821C10.2635 9.53071 10.3269 9.4814 10.4044 9.45322C10.4819 9.42504 10.5734 9.41096 10.6721 9.41096C10.7566 9.41096 10.8552 9.418 10.9679 9.43913C11.0736 9.46026 11.1582 9.47435 11.2075 9.4814ZM19.1328 12.2288C19.2173 11.8766 19.2666 11.5103 19.2666 11.1299C19.2666 10.5381 19.168 9.94636 18.9708 9.36869C18.7735 8.79102 18.4988 8.25562 18.1536 7.76953C18.0056 8.13586 17.907 8.53036 17.8577 8.95304C17.8084 9.37573 17.7872 9.8759 17.7872 10.4395V12.1302C17.907 11.0735 18.0338 10.0098 18.1606 8.946C18.7383 9.76319 19.0271 10.679 19.0271 11.7005C18.8721 12.0457 18.6678 12.3486 18.4213 12.6093C18.1324 12.9122 17.8436 13.0953 17.5548 13.1587C17.5689 13.0601 17.583 12.9404 17.597 12.8065C17.6111 12.6727 17.6182 12.5529 17.6182 12.4402C17.6182 12.3063 17.6111 12.1795 17.59 12.0668C17.5689 11.9541 17.5336 11.8484 17.4702 11.7498C17.4139 11.6512 17.3505 11.5737 17.28 11.5103C17.2096 11.4469 17.125 11.4187 17.0335 11.4187C16.9701 11.4187 16.9137 11.4328 16.8644 11.461C16.639 11.6653 16.4699 11.9118 16.3572 12.2077C16.2163 12.5811 16.1458 13.0883 16.1458 13.7364C15.6809 14.0182 15.2864 14.2366 14.9694 14.3916C14.5326 14.61 14.0888 14.779 13.6449 14.9058C13.2011 15.0327 12.7644 15.096 12.3417 15.096C11.771 15.096 11.2356 14.9763 10.7425 14.7438C10.3973 14.5536 10.1719 14.2366 10.0662 13.7928C10.0028 13.3983 9.94646 13.0108 9.89715 12.6093C9.65762 12.722 9.46037 12.9263 9.31948 13.2292C9.24199 13.3912 9.12927 13.6378 8.97429 13.9759C8.71363 14.4198 8.36139 14.7861 7.93167 15.0679C7.57238 15.3074 7.12152 15.5117 6.57908 15.6949C6.3466 15.7723 5.8746 15.8992 5.16309 16.0894C5.36034 16.1105 5.55759 16.1175 5.7478 16.1175C5.8112 16.1175 6.02254 16.1105 6.39591 16.0894C6.76928 16.0753 7.07221 16.0612 7.30468 16.0612C7.69214 16.026 8.04438 15.871 8.36844 15.5892C8.61501 15.3708 8.86157 15.0608 9.10814 14.6522C9.2279 14.4479 9.41106 14.1027 9.64354 13.6237C9.67172 13.6941 9.73512 13.9971 9.84783 14.5466C9.92532 14.9552 10.0803 15.2581 10.2917 15.4483C10.5453 15.6526 10.8059 15.7935 11.0736 15.871C11.3343 15.9485 11.6302 15.9837 11.9613 15.9837C12.4262 15.9837 12.9757 15.8921 13.6027 15.7019C13.8492 15.6244 14.3565 15.4483 15.1102 15.1665C15.6527 14.8424 16.1881 14.5184 16.7305 14.1873H17.3364C17.745 14.0746 18.1254 13.821 18.4706 13.4265C18.7735 13.0813 19.006 12.6867 19.161 12.2429L19.1328 12.2288ZM7.6217 11.6441V11.9048C7.6217 12.0668 7.60761 12.2077 7.57238 12.3204C7.53716 12.4331 7.47376 12.5177 7.36809 12.574C7.04403 12.8136 6.73406 13.201 6.43818 13.7153C5.95914 14.5607 5.71257 14.9904 5.69144 15.0186C5.36738 15.4835 4.98697 15.8146 4.55019 16.0119C4.30363 16.0964 4.01479 16.1598 3.68369 16.188C3.35963 16.2162 3.0074 16.2303 2.63403 16.2303H2C2.90877 16.0753 3.69074 15.8005 4.33885 15.4131C5.11377 14.9481 5.67735 14.3282 6.03663 13.5603C6.08595 13.4899 6.23388 13.2081 6.49454 12.7079C6.8186 12.0809 7.19901 11.7216 7.62874 11.6371L7.6217 11.6441ZM17.2166 12.6868C17.1391 12.574 17.0898 12.4965 17.0616 12.4613C16.9841 12.3838 16.9067 12.3416 16.8292 12.3416C16.7799 12.3416 16.7305 12.3627 16.6742 12.405C16.5756 12.5459 16.5122 12.6374 16.491 12.6656C16.4276 12.7713 16.4065 12.877 16.4206 12.9756C16.5262 13.1517 16.6671 13.2362 16.8362 13.2362C16.9489 13.1587 17.0335 13.0883 17.0898 13.046C17.1955 12.9615 17.2518 12.877 17.2518 12.8065C17.2518 12.7572 17.2378 12.722 17.2096 12.6868H17.2166Z" fill="white"/>
</svg>
