<svg width="24" height="24" viewBox="0 0 24 24" fill="none" xmlns="http://www.w3.org/2000/svg">
<path fill-rule="evenodd" clip-rule="evenodd" d="M17.9362 9.32111C17.8737 9.36487 17.7987 9.47741 17.7112 9.65246C17.6236 9.83377 17.5236 9.9213 17.4111 9.9213L16.8671 9.64621C16.9359 9.47116 17.0047 9.33361 17.0735 9.21483C17.1422 9.10229 17.2423 8.98976 17.3611 8.87722C17.4798 8.93349 17.5986 8.98976 17.7237 9.04602C17.8675 9.1273 17.9362 9.22108 17.9362 9.32111ZM21.7624 13.4349C21.925 12.916 22 12.3908 22 11.8594C22 11.253 21.9 10.659 21.7062 10.0838C21.5124 9.50867 21.231 9.00226 20.8684 8.55837C20.6746 9.46491 20.5808 10.3902 20.5808 11.3342C20.5808 11.9844 20.6246 12.6784 20.7121 13.4161C20.7621 13.1848 20.7996 12.941 20.8121 12.6909C20.8309 12.4408 20.8371 12.1783 20.8371 11.9032V10.9716C20.8371 10.7215 20.8371 10.5027 20.8434 10.3152C20.8434 10.1276 20.8621 9.94005 20.8872 9.73374C21.1622 10.1714 21.3686 10.5778 21.5061 10.9591C21.6749 11.4218 21.7562 11.8719 21.7562 12.322C21.5686 13.1473 21.156 13.8413 20.512 14.4165C20.0056 14.8666 19.3117 15.273 18.4176 15.6356C18.1425 15.7481 17.3861 16.0044 16.1482 16.4171C16.8609 16.3233 17.5174 16.2358 18.1175 16.1607C18.7177 16.0795 19.1866 15.9857 19.5242 15.8732C20.0306 15.7419 20.4933 15.423 20.9184 14.9041C21.2623 14.4852 21.5436 13.9913 21.7562 13.4286L21.7624 13.4349ZM12.9284 9.27735C12.6908 9.72123 12.522 10.0026 12.4283 10.1151C12.1719 10.434 11.8781 10.5965 11.5592 10.5965C11.4279 10.6903 11.2842 10.7341 11.1153 10.7341C11.2029 10.6715 11.3529 10.584 11.578 10.4777C11.9281 10.2964 12.1782 10.1339 12.322 9.97756C12.2094 9.97756 12.0969 9.97756 11.9781 9.96506C11.8593 9.96506 11.7468 9.95256 11.6343 9.94631C11.4655 9.94631 11.3279 9.96506 11.2029 9.99632C11.0841 10.0276 10.9716 10.0964 10.8778 10.2026C10.9403 9.99632 11.0341 9.80876 11.1591 9.63996C11.2842 9.47116 11.4467 9.35237 11.6343 9.27109C11.703 9.24608 11.7718 9.23358 11.8343 9.22733C11.9031 9.22733 11.9781 9.21483 12.0656 9.21483C12.1594 9.21483 12.297 9.22733 12.4908 9.23983C12.6846 9.25859 12.8221 9.26484 12.9159 9.26484L12.9284 9.27735ZM19.4492 11.4155C19.3867 11.6906 19.2491 11.9469 19.0241 12.1783C18.8053 12.4096 18.5552 12.5909 18.2801 12.7222C18.2801 12.6659 18.2988 12.5346 18.3301 12.322C18.3614 12.1095 18.3801 11.9532 18.3801 11.8594C18.3801 11.7969 18.3801 11.7344 18.3676 11.6656C18.3614 11.5968 18.3364 11.528 18.2988 11.453C18.2051 11.3092 18.1425 11.228 18.1175 11.1967C18.0425 11.1154 17.9612 11.0779 17.88 11.0779C17.8487 11.0779 17.8112 11.0842 17.7612 11.1029C17.5174 11.2905 17.336 11.5343 17.2173 11.8344C17.0735 12.1908 17.0047 12.7034 17.0047 13.3661C16.8859 13.4286 16.7796 13.4724 16.6796 13.5037C16.5796 13.5349 16.4795 13.5474 16.392 13.5474C16.3045 13.5474 16.2107 13.5287 16.1169 13.4912C15.9606 13.4411 15.8606 13.3661 15.8043 13.2723C15.748 13.1723 15.723 13.0535 15.723 12.9097C15.723 12.8722 15.7293 12.7847 15.748 12.6471C15.7606 12.5096 15.7731 12.4096 15.7731 12.3471C15.7731 12.322 15.7731 12.2845 15.7606 12.2345H15.6605C15.6168 12.2345 15.5667 12.2345 15.498 12.2408C15.4354 12.2408 15.3854 12.2533 15.3542 12.2658C14.6852 12.7784 13.9787 13.1973 13.2348 13.5349C12.4908 13.8725 11.7093 14.1226 10.884 14.2977C10.4526 14.3602 10.065 14.3914 9.71491 14.3914C9.04595 14.3914 8.45827 14.2914 7.96436 14.0976C7.38293 13.8725 6.92029 13.5099 6.58893 13.0223C6.41388 12.4971 6.28259 11.8969 6.19506 11.2092C6.12629 10.7028 6.06377 10.0713 6.0075 9.30235C5.93248 8.3208 5.88246 7.6831 5.8512 7.39551C5.73867 7.58307 5.66365 7.77062 5.62613 7.96444C5.58862 8.15825 5.56361 8.37706 5.56361 8.63339C5.56361 8.82095 5.62613 9.36487 5.75117 10.2652C5.80119 10.6215 5.8262 10.9404 5.8262 11.2217C5.53861 11.4155 5.0447 11.5968 4.35699 11.7531C3.66302 11.9094 3.18787 12.0657 2.92529 12.2158C2.45014 12.4846 2.1563 12.9035 2.03751 13.4662C2.03751 13.5099 2.03126 13.5724 2.0125 13.66C2.00625 13.7287 2 13.835 2 13.9851C2 14.4352 2.08128 14.8541 2.23757 15.2542C2.39387 15.6543 2.6377 15.9982 2.9628 16.292C3.1066 16.4046 3.25664 16.4796 3.42545 16.5296C3.59425 16.5796 3.77556 16.6046 3.96311 16.6046C4.26321 16.6046 4.54455 16.5421 4.80088 16.4171C5.23851 16.1295 5.57612 15.7231 5.8262 15.2042C6.0075 14.8103 6.1513 14.3102 6.25133 13.6975C6.3326 13.86 6.42638 14.0163 6.53892 14.1726C6.65145 14.3289 6.77024 14.4602 6.90153 14.5665C7.27665 14.8291 7.68303 15.0229 8.12066 15.1354C8.5583 15.2542 9.0397 15.3105 9.55236 15.3105C10.065 15.3105 10.5652 15.2605 11.0716 15.1542C11.5717 15.0479 12.0531 14.9041 12.5158 14.7228C12.8096 14.654 13.4348 14.3164 14.3976 13.71C14.8165 13.4474 15.1916 13.2786 15.5292 13.2036C15.5855 13.2411 15.6105 13.3099 15.6105 13.4161C15.6105 13.4974 15.598 13.5849 15.573 13.685C15.573 13.835 15.6293 13.9788 15.7418 14.1164C15.8356 14.2414 15.9544 14.3352 16.1044 14.4102C16.1794 14.429 16.2482 14.4352 16.317 14.4352C16.417 14.4352 16.517 14.4227 16.6296 14.3914C16.7421 14.3664 16.8484 14.3352 16.9547 14.3039C16.9672 14.3039 17.4611 14.0413 18.4364 13.5412C18.7802 13.3599 19.0366 13.1285 19.2054 12.8285C19.3742 12.5346 19.4992 12.2095 19.5805 11.8532C19.6618 11.4968 19.7055 11.1217 19.7055 10.7403C19.7055 10.1901 19.6243 9.63996 19.4617 9.08353C19.2992 8.52711 19.0803 8.02696 18.8053 7.60182C18.6364 8.10823 18.5364 8.6459 18.4864 9.21483C18.4426 9.78375 18.4176 10.4652 18.4176 11.2405H18.4614C18.4614 10.8716 18.4864 10.4465 18.5364 9.95881C18.5677 9.63996 18.6177 9.20232 18.6927 8.63965C18.949 9.14605 19.1366 9.58994 19.2554 9.97756C19.4054 10.4652 19.4742 10.9466 19.4742 11.428L19.4492 11.4155ZM15.1166 15.2417C15.0728 15.5418 14.9478 15.7606 14.7415 15.8982C14.5852 15.9982 14.1726 16.0857 13.4848 16.167L13.4661 16.1858C13.4661 16.1858 13.4598 16.1482 13.4598 16.1232V16.0795C13.4598 15.9357 13.4973 15.7981 13.5786 15.6543C13.6599 15.5105 13.7599 15.3918 13.885 15.2917C13.985 15.2917 14.0975 15.2855 14.2351 15.2667C14.5477 15.223 14.7415 15.2042 14.8165 15.2042C14.929 15.2042 15.0291 15.2167 15.1229 15.2417H15.1166ZM18.0925 12.5409C18.0175 12.6409 17.955 12.7097 17.905 12.7534C17.8174 12.8285 17.7362 12.866 17.6674 12.866C17.5986 12.866 17.5424 12.8472 17.4923 12.8034C17.3986 12.7034 17.3485 12.6471 17.3423 12.6346C17.2923 12.5659 17.2673 12.5034 17.2673 12.4533C17.2673 12.4096 17.286 12.3658 17.3235 12.3158C17.4173 12.172 17.5299 12.0907 17.6674 12.0595C17.7799 12.072 17.8737 12.1345 17.955 12.247C18.0175 12.3283 18.0613 12.4283 18.0925 12.5534V12.5409ZM5.78243 11.3342C5.90747 11.8782 5.96374 12.3846 5.96374 12.866C5.96374 13.3786 5.88872 13.8288 5.73242 14.2289C5.55736 14.6853 5.28853 15.0542 4.91341 15.3417C4.72585 15.4418 4.55705 15.5168 4.3945 15.5731C4.23195 15.6293 4.0694 15.6543 3.90059 15.6543C3.75055 15.6543 3.60675 15.6293 3.45671 15.5731C3.06283 15.3855 2.76274 15.0979 2.55017 14.7103C2.34386 14.3289 2.23757 13.8975 2.23757 13.4224C2.41888 12.9785 2.73773 12.6409 3.20663 12.4096C3.35667 12.3346 3.80056 12.1845 4.54455 11.9594C5.10097 11.7844 5.50735 11.5781 5.78243 11.3342Z" fill="white"/>
</svg>
