<svg width="24" height="24" viewBox="0 0 24 24" fill="none" xmlns="http://www.w3.org/2000/svg">
<path fill-rule="evenodd" clip-rule="evenodd" d="M22 10.6198C22 11.2543 21.9295 11.8725 21.7831 12.4799C21.6421 13.0873 21.4306 13.6621 21.154 14.199C20.9534 14.6328 20.6714 15.0287 20.3026 15.392C19.9338 15.75 19.538 15.9832 19.1095 16.0862C18.3015 16.1621 17.6996 16.2218 17.2983 16.2543C16.615 16.3248 16.0293 16.4007 15.5412 16.4875C16.4414 16.1947 17.0759 15.9723 17.4393 15.8259C18.1605 15.5385 18.7896 15.2239 19.3265 14.8769C19.9664 14.4701 20.4707 14.02 20.8341 13.5211C21.257 12.9571 21.5336 12.3172 21.6529 11.596C21.6855 11.4224 21.7072 11.2218 21.7072 10.9994C21.7072 10.5764 21.6421 10.1751 21.5174 9.80637C21.3926 9.43761 21.2028 9.06342 20.9534 8.67839C20.9534 9.06884 20.9317 9.5081 20.8883 9.99075C20.7852 11.1621 20.731 11.8942 20.731 12.1925H20.6388C20.5521 11.7261 20.5087 11.2055 20.5087 10.6307C20.5087 10.1643 20.5358 9.67079 20.5846 9.16103C20.6388 8.65127 20.7473 7.97882 20.91 7.15453C21.2733 7.58837 21.5445 8.10897 21.7234 8.71634C21.9024 9.32372 21.9892 9.95821 21.9892 10.6144L22 10.6198ZM15.1399 8.46146C15.0206 8.64584 14.8525 8.80854 14.6464 8.95496C14.5054 9.05799 14.2993 9.18272 14.0228 9.3183C13.6432 9.51895 13.4262 9.63283 13.372 9.65452C13.1443 9.77383 12.949 9.9094 12.7755 10.0558C12.846 9.8389 12.9653 9.65452 13.1388 9.50268C13.3124 9.35083 13.5239 9.21526 13.7787 9.09053C14.2289 8.88446 14.6844 8.66754 15.1453 8.45062L15.1399 8.46146ZM6.95119 6.0157C6.96746 6.04823 6.97831 6.10246 6.97831 6.17296C6.97831 6.23261 6.95662 6.33565 6.91323 6.47122C6.86985 6.61222 6.84816 6.71526 6.84816 6.78576C6.77223 6.76949 6.68547 6.78576 6.58785 6.82372C6.3167 6.93761 6.18113 6.99184 6.17028 6.99184C6.07267 6.99184 5.99132 6.94302 5.92082 6.85083C5.92082 6.70983 5.92082 6.61223 5.93167 6.55257C5.94252 6.49292 5.96963 6.41157 6.02386 6.30311C6.02386 6.37361 6.04013 6.43869 6.07809 6.49834C6.11063 6.55799 6.15944 6.59053 6.21909 6.59053C6.2462 6.59053 6.28416 6.56884 6.33839 6.53088C6.39262 6.49292 6.43059 6.41158 6.4577 6.28142C6.48482 6.1567 6.51735 6.07535 6.56074 6.04281L6.61497 6.44411C6.73427 6.47122 6.82104 6.41157 6.86443 6.25973C6.90781 6.11331 6.94035 6.03197 6.95662 6.01028L6.95119 6.0157ZM19.782 10.6035C19.3644 10.8205 18.8167 10.9994 18.1443 11.1458C17.7701 11.2218 17.2007 11.3465 16.4414 11.5092C16.5716 11.2652 16.9512 10.9127 17.5748 10.4571C18.1388 10.0341 18.5022 9.6274 18.6703 9.24779C18.8113 9.00376 18.9089 8.75973 18.9631 8.51028C19.0174 8.26082 19.0499 7.98967 19.0499 7.68598C19.0499 6.87795 18.8764 6.15669 18.5293 5.51135C18.1605 6.04823 17.8568 6.65019 17.6291 7.30637C17.4338 7.85409 17.2657 8.49942 17.1247 9.24779C17.2115 9.04714 17.3633 8.61873 17.5803 7.95713C17.7646 7.40941 17.9382 6.99726 18.1009 6.72069C18.128 6.86168 18.2039 7.11114 18.3341 7.4799C18.4642 7.84867 18.5293 8.1415 18.5293 8.35842C18.5293 8.36927 18.5293 8.4235 18.5184 8.53196C18.5076 8.64042 18.4913 8.73261 18.4642 8.80853C17.987 9.15561 17.6291 9.4376 17.385 9.65452C17.0542 9.94194 16.7722 10.2294 16.539 10.5276C16.2787 10.8313 16.0727 11.1458 15.9262 11.4821C15.7798 11.8183 15.6876 12.1816 15.6551 12.5829C15.9479 12.5124 16.2462 12.4419 16.539 12.3769C17.0434 12.263 17.5206 12.1708 17.9707 12.1057C17.3633 12.6697 16.7072 13.174 16.0076 13.6242C15.346 14.0417 14.6302 14.4159 13.8601 14.7521C13.1822 15.0558 12.5369 15.289 11.9187 15.4571C11.154 15.6632 10.4436 15.7717 9.782 15.7717C8.92516 15.7717 8.21475 15.712 7.6616 15.5873C6.93492 15.43 6.30586 15.1534 5.7744 14.7521C5.29718 14.2586 5.05857 13.6784 5.05857 13.0059C5.05857 12.8866 5.06941 12.7565 5.08568 12.6263C5.10195 12.4962 5.12907 12.3823 5.16161 12.2901C5.57918 12.084 6.01844 11.7912 6.47397 11.417C6.54989 11.3573 6.96746 10.9994 7.72126 10.3487C8.00868 9.88229 8.18764 9.56234 8.26898 9.39965C8.45336 9.02004 8.54013 8.67838 8.54013 8.38554C8.54013 8.23912 8.52386 8.10897 8.4859 7.99508C7.44469 7.99508 6.43601 8.26624 5.45445 8.80311C5.12364 9.00376 4.86876 9.30745 4.68438 9.71417C4.58677 9.91482 4.46746 10.2836 4.32104 10.8205C4.29393 11.0374 4.34816 11.238 4.47831 11.417C4.52169 11.4766 4.59761 11.5688 4.7115 11.6881C3.77332 12.3281 3.06291 13.1144 2.57484 14.0417C2.19523 14.7793 2 15.533 2 16.3031C2 16.4224 2 16.5472 2.01085 16.6773C2.02169 16.8075 2.03254 16.9213 2.04881 17.0244C2.42842 17.545 2.93818 17.9246 3.57267 18.1632C4.12581 18.3801 4.77657 18.4886 5.52495 18.4886C6.15944 18.4886 6.81019 18.4289 7.48265 18.315C8.1551 18.1957 8.82755 18.0493 9.50542 17.8649C9.47288 17.8649 8.68655 17.9029 7.15184 17.9842C6.64208 18.0114 6.1269 18.0222 5.61714 18.0222C4.89046 18.0222 4.25597 17.892 3.71909 17.6372C3.11171 17.3443 2.64534 16.8996 2.31453 16.3031C2.2603 16.1187 2.23861 15.9452 2.23861 15.7717C2.23861 15.4571 2.30911 15.1643 2.44469 14.8823C2.58568 14.6003 2.78091 14.3237 3.03579 14.0471C3.29067 13.776 3.61063 13.494 3.99024 13.2066C4.30477 12.9788 4.61931 12.7565 4.93926 12.5287C4.92299 12.648 4.89046 12.8758 4.84165 13.2012C4.79284 13.5265 4.77115 13.8194 4.77115 14.0797C4.77115 14.1393 4.77115 14.2207 4.77657 14.3183C4.77657 14.4159 4.80911 14.6166 4.85249 14.9094C4.9013 15.2022 5.05314 15.5059 5.31345 15.8205C5.57375 16.135 5.89913 16.3573 6.28959 16.4929C6.68004 16.6285 7.10304 16.7315 7.55314 16.8074C8.00325 16.8834 8.46421 16.9159 8.93059 16.9159C9.37527 16.9159 9.85249 16.878 10.3677 16.7966C10.8829 16.7207 11.3655 16.6176 11.821 16.4983C12.7321 16.2489 13.6052 15.9072 14.4349 15.4842C15.3134 15.0341 16.0835 14.519 16.7505 13.9495C16.8265 13.8899 17.1356 13.6404 17.6725 13.2066C18.0738 12.8866 18.3774 12.6372 18.5944 12.4528C18.9685 12.1383 19.2397 11.8617 19.4132 11.6176C19.6464 11.2868 19.7657 10.9398 19.7657 10.5764L19.782 10.6035ZM10.6822 10.6632L10.5792 11.0265L10.2809 10.8313C10.2104 11.2055 10.1562 11.4821 10.1128 11.6665C10.0369 11.9973 9.92842 12.225 9.79826 12.3552C9.72777 12.2955 9.64642 12.1166 9.55965 11.8237C9.46746 11.5309 9.32104 11.4007 9.12581 11.4333C9.06616 11.379 9.03362 11.314 9.03362 11.238C9.03362 11.1838 9.05531 11.1133 9.0987 11.0157C9.14208 10.9181 9.16377 10.8476 9.16377 10.7934C9.25054 10.7066 9.30477 10.6632 9.32104 10.6632C9.35358 10.6632 9.38612 10.6903 9.41323 10.7391C9.48915 10.8367 9.55965 10.9669 9.61931 11.1404C9.76573 11.558 9.86334 11.802 9.90672 11.8671C10.026 11.3736 10.1562 10.8801 10.2863 10.3812C10.449 10.3812 10.5846 10.4734 10.6876 10.6524L10.6822 10.6632ZM4.51085 15.674C4.47831 15.8476 4.40239 16.0374 4.2885 16.238C4.17462 16.4441 4.07158 16.6393 3.97397 16.8291L3.11714 16.3194C3.21475 16.0428 3.32321 15.8205 3.44252 15.6578C3.59978 15.4409 3.7679 15.3324 3.95228 15.3324C4.04989 15.3324 4.13666 15.3541 4.22343 15.4029C4.31019 15.4517 4.40781 15.5385 4.51085 15.6686V15.674ZM7.97072 9.13934C7.63449 9.51352 7.30369 9.82806 6.98373 10.0884C6.58243 10.4192 6.1974 10.674 5.82321 10.8584C5.66052 10.8259 5.49241 10.7608 5.3243 10.6632C5.15618 10.5656 5.02603 10.4463 4.93926 10.2999C5.31887 9.89313 5.76898 9.59487 6.28416 9.41591C6.79935 9.23153 7.36334 9.14476 7.97072 9.14476V9.13934Z" fill="white"/>
</svg>
