<svg width="24" height="24" viewBox="0 0 24 24" fill="none" xmlns="http://www.w3.org/2000/svg">
<path fill-rule="evenodd" clip-rule="evenodd" d="M17.2207 8.25663V8.46851C17.2207 8.58034 17.2089 8.67453 17.1854 8.73927C17.1619 8.80402 17.1089 8.85698 17.0206 8.89818C16.9676 8.8511 16.9147 8.82756 16.8617 8.82756C16.8146 8.82756 16.7499 8.85698 16.6675 8.91584C16.5851 8.9747 16.5262 9.00412 16.485 9.00412C16.432 9.00412 16.379 8.96881 16.332 8.89229C16.3202 8.83932 16.3143 8.79812 16.3143 8.76869C16.3143 8.70984 16.3261 8.64509 16.3437 8.58034C16.3614 8.5156 16.379 8.46263 16.3967 8.41554C16.4085 8.42731 16.4202 8.46851 16.4261 8.53914C16.432 8.60977 16.4614 8.66275 16.5085 8.69807C16.5851 8.69807 16.6439 8.67452 16.6851 8.62155C16.7263 8.56858 16.7616 8.50971 16.7793 8.4332C16.7793 8.32725 16.8028 8.25663 16.8499 8.23308C16.8617 8.32726 16.8735 8.40967 16.8852 8.4803C16.897 8.55093 16.9264 8.58624 16.9794 8.58624C16.9971 8.58624 17.0324 8.57447 17.0677 8.55681C17.0853 8.53916 17.1089 8.48617 17.1324 8.39789C17.156 8.31548 17.1854 8.26251 17.2207 8.25074V8.25663ZM21.9823 10.7522C21.9411 10.2519 21.8352 9.78695 21.6645 9.34551C21.4938 8.90996 21.2525 8.52738 20.9523 8.20366C20.8935 8.28018 20.8523 8.37434 20.8287 8.48617C20.8111 8.598 20.7816 8.74515 20.7463 8.90995C20.7463 8.93938 20.7404 9.19835 20.7287 9.69865C20.7169 10.1989 20.711 10.5521 20.711 10.7699C20.711 11.0936 20.7228 11.382 20.7463 11.6469C20.7699 11.9058 20.8111 12.1589 20.8699 12.412C20.9288 12.1295 20.97 11.8588 20.9876 11.6057C21.0053 11.3526 21.0112 11.023 21.0112 10.611V9.39848C21.229 9.73397 21.4055 10.0871 21.535 10.452C21.6645 10.8169 21.7293 11.1819 21.7293 11.5409C21.7293 11.7705 21.7057 11.9824 21.6586 12.1766C21.535 12.7004 21.3055 13.1713 20.97 13.5833C20.6816 13.9364 20.2931 14.2602 19.8105 14.5662C19.4868 14.7663 19.1395 14.9488 18.7569 15.1136C18.2919 15.3078 17.6975 15.508 16.9794 15.7081C17.3149 15.7081 17.7034 15.6786 18.1389 15.6139C18.5745 15.5492 19.1807 15.4255 19.9576 15.2372C20.2931 15.1371 20.6051 14.8958 20.8994 14.5191C20.917 14.5015 21.1348 14.1601 21.535 13.5009C21.6822 13.1477 21.7999 12.7828 21.8764 12.4003C21.9588 12.0177 22 11.6292 22 11.2407C22 11.1878 22 11.1171 21.9882 11.023C21.9823 10.9347 21.9765 10.8464 21.9765 10.764L21.9823 10.7522ZM13.4303 8.66275C13.3479 8.79224 13.2478 8.89818 13.1242 8.98647C13.0006 9.07475 12.8476 9.15128 12.6769 9.21602C12.3649 9.31608 12.0589 9.41613 11.7587 9.52208C11.847 9.41613 11.9529 9.31608 12.0824 9.23368C12.2119 9.15128 12.359 9.07475 12.5297 9.00412C12.8299 8.89229 13.136 8.77458 13.442 8.66275H13.4303ZM19.1807 9.8046C19.1807 9.43968 19.1101 9.09242 18.9747 8.75693C18.8393 8.42144 18.651 8.12714 18.4155 7.86227C18.2154 8.58034 18.1095 9.36905 18.1095 10.2401C18.1095 10.6992 18.133 11.1054 18.1801 11.4644C18.2566 10.6933 18.2919 10.2755 18.3037 10.1989C18.3567 9.62213 18.4038 9.20424 18.4332 8.94526C18.6098 9.2219 18.7334 9.5162 18.8099 9.82226C18.8864 10.1283 18.9276 10.4697 18.9276 10.8346C18.9276 10.9229 18.9276 10.9994 18.9276 11.0642C18.9276 11.1289 18.9217 11.1937 18.9099 11.2584C18.7981 11.6292 18.6039 11.9706 18.3449 12.2766C18.1212 12.5474 17.8387 12.8064 17.4856 13.0536C17.1677 13.2772 16.8264 13.4774 16.4673 13.648C16.1848 13.7834 15.8434 13.9188 15.4491 14.06L16.379 12.977C16.6027 12.6533 16.7675 12.3414 16.8852 12.0353C17.0265 11.6704 17.0971 11.329 17.0971 11.0053C17.0971 10.8523 17.0853 10.7051 17.0559 10.5698C16.7145 10.5698 16.379 10.6698 16.0553 10.8758C15.7669 11.0583 15.4962 11.3055 15.249 11.6233C15.3549 11.1878 15.4255 10.8287 15.4609 10.5462C15.4962 10.2696 15.5138 10.0047 15.5138 9.75163C15.5138 9.4338 15.4667 9.12185 15.3667 8.8099C15.2666 8.49795 15.1313 8.23898 14.9488 8.0212C14.731 8.52738 14.5662 9.13362 14.4544 9.83992C14.3896 10.2402 14.3131 10.8699 14.2307 11.741C14.2425 11.6527 14.3131 11.2702 14.4367 10.5933C14.5603 9.91643 14.6722 9.36316 14.7781 8.92761C14.937 9.19247 15.0547 9.45734 15.1254 9.72809C15.196 9.99883 15.2313 10.2813 15.2313 10.5874C15.2313 10.7816 15.2195 10.9759 15.196 11.176C15.1725 11.3702 15.1371 11.5821 15.0901 11.8117C14.8899 12.4356 14.7781 12.7828 14.7546 12.8535C14.6486 13.2301 14.5956 13.5362 14.5956 13.7716C14.2543 14.0483 13.8658 14.2602 13.442 14.4132C13.0182 14.5662 12.5768 14.6427 12.1295 14.6427C11.794 14.6427 11.482 14.6015 11.1878 14.5133C10.6286 14.3367 10.2401 13.9894 10.0283 13.4715C9.88699 13.136 9.79282 12.5827 9.73985 11.8117C9.68687 11.0465 9.62213 10.5168 9.54562 10.2343L9.50441 10.2872C9.44556 10.4403 9.40436 10.5933 9.38081 10.7463C9.36315 10.8994 9.35138 11.0701 9.35138 11.2584C9.35138 11.3997 9.3867 11.8293 9.46321 12.5533C9.49264 12.8181 9.50441 13.0712 9.50441 13.3125C9.49853 13.3891 9.49264 13.4773 9.49264 13.5833C9.49264 13.6892 9.48676 13.7716 9.47499 13.8246C9.4279 14.1071 9.33373 14.3543 9.19247 14.5721C9.03355 14.8134 8.80989 15.0135 8.52737 15.1666C8.45085 15.1842 8.38022 15.196 8.31548 15.196C8.07416 15.196 7.86816 15.1077 7.69747 14.9253C8.0565 14.3308 8.26839 13.6775 8.34491 12.9535C8.34491 12.9123 8.35079 12.8534 8.36257 12.771V12.5886C8.36257 11.9765 8.22719 11.4232 7.95644 10.9288C7.61507 11.4762 7.35609 12.0824 7.19129 12.7593C7.11477 13.0653 7.06769 13.3832 7.03237 13.7128C7.00294 14.0483 6.98529 14.4073 6.98529 14.8017C6.2319 15.1901 5.47852 15.5786 4.71925 15.9612C4.80165 15.9494 5.1548 15.8964 5.77869 15.8081C6.21424 15.7493 6.55562 15.661 6.79694 15.555C6.90288 15.4726 7.00294 15.4314 7.103 15.4314C7.19129 15.4314 7.39729 15.5904 7.7269 15.9141C7.87993 16.0612 8.03296 16.1377 8.18011 16.1377C8.27428 16.1377 8.35668 16.1201 8.4332 16.0848C8.85109 15.9906 9.18069 15.6492 9.41613 15.0547C9.61036 14.5603 9.72219 14.3014 9.73985 14.266C9.86345 14.4897 9.95762 14.6486 10.0341 14.7487C10.1577 14.9076 10.2931 15.0371 10.4461 15.1254C10.6933 15.2725 10.9406 15.3785 11.1819 15.4373C11.4232 15.4962 11.6939 15.5256 11.9882 15.5256C12.1825 15.5256 12.3296 15.5197 12.4238 15.508C12.7769 15.4668 13.1065 15.3961 13.4126 15.2961C13.7245 15.196 14.0365 15.0665 14.3602 14.9135C14.7016 14.5721 15.249 14.2719 15.9965 14.0247C16.9441 13.701 17.5268 13.4832 17.7328 13.3655C18.3214 13.0359 18.7098 12.5533 18.9041 11.9294C19.01 11.6174 19.0865 11.2937 19.1218 10.9465C19.1572 10.5992 19.1748 10.2107 19.1748 9.78106L19.1807 9.8046ZM5.73749 11.1995C5.84932 11.6057 5.90818 12.0059 5.90818 12.4003C5.90818 12.7946 5.84344 13.2243 5.71984 13.6363C5.59623 14.0483 5.41377 14.4309 5.17834 14.7722C4.94291 15.1136 4.6545 15.4138 4.31901 15.6728C4.11889 15.7669 3.91289 15.814 3.701 15.814C3.41848 15.814 3.17716 15.7316 2.97116 15.5727C2.65333 15.2961 2.41201 14.9606 2.2472 14.5603C2.0824 14.1601 2 13.7422 2 13.3067C2 12.9241 2.06474 12.5356 2.20012 12.153C2.31195 11.7528 2.55327 11.3702 2.90642 10.9994C3.03002 10.8699 3.37728 10.5639 3.9482 10.0812C4.38376 9.70455 4.70159 9.36316 4.89582 9.06299C4.83696 9.0571 4.78988 9.05122 4.75456 9.05122C4.62507 9.05122 4.4897 9.06298 4.34255 9.09241C4.19541 9.12184 4.06004 9.14539 3.93055 9.16305C3.93055 9.02768 3.95998 8.88641 4.02472 8.73338C4.08946 8.58035 4.16598 8.4391 4.26015 8.31549C4.4897 8.27429 4.66039 8.25074 4.7781 8.23308C5.00177 8.19777 5.17834 8.18011 5.31371 8.18011C5.3196 8.20954 5.32549 8.24485 5.32549 8.30371C5.32549 8.4744 5.29606 8.62743 5.23131 8.7628C5.16657 8.89818 5.06651 9.06298 4.93114 9.24544C4.66039 9.57505 4.39553 9.90466 4.13067 10.2284C3.8658 10.3873 3.62449 10.5698 3.40082 10.7699C3.17716 10.97 2.97705 11.1878 2.80636 11.4291C2.48264 11.8999 2.32372 12.4473 2.32372 13.0771C2.44732 13.5421 2.55327 13.8776 2.65921 14.0895C2.84167 14.4485 3.08888 14.6898 3.40671 14.8193C3.54797 14.8782 3.701 14.9076 3.85992 14.9076C4.01883 14.9076 4.17187 14.8782 4.30724 14.8193C4.68393 14.5309 4.97234 14.2543 5.17834 14.0012C5.46086 13.6422 5.60212 13.289 5.60212 12.9417C5.60212 12.8299 5.59623 12.7416 5.57858 12.6828C5.56092 12.6239 5.54326 12.5533 5.51972 12.4591C5.49617 12.3708 5.47263 12.3061 5.4432 12.2708C5.39612 12.2825 5.3608 12.3532 5.33726 12.4709C5.31371 12.5945 5.24897 12.6533 5.14891 12.6533C5.09594 12.6651 5.06062 12.671 5.03708 12.671C4.96056 12.671 4.89582 12.6475 4.83696 12.6004C4.77811 12.5533 4.73102 12.4885 4.6957 12.4061C4.6957 12.0942 4.73102 11.8117 4.80165 11.5586C4.87228 11.2996 4.99588 11.0818 5.17834 10.8994C5.31371 10.8994 5.42554 10.917 5.51972 10.9582C5.61389 10.9994 5.67863 11.0759 5.71984 11.1878L5.73749 11.1995ZM16.6439 11.7528C16.4085 12.1295 16.1613 12.465 15.9082 12.7534C15.6021 13.0948 15.2902 13.3832 14.9664 13.6127C15.0194 13.1595 15.1489 12.7593 15.3608 12.412C15.6021 12.0059 15.9258 11.741 16.332 11.6115C16.3496 11.6056 16.3908 11.5939 16.4438 11.5762C16.4968 11.5586 16.5438 11.5527 16.5733 11.5527C16.6498 11.5527 16.6851 11.5821 16.6851 11.6351C16.6851 11.6704 16.6733 11.7116 16.6439 11.7587V11.7528ZM7.99176 13.5421C7.92702 13.7128 7.84461 13.8658 7.75044 14.0071C7.71513 14.0542 7.66804 14.1189 7.60918 14.2013C7.55032 14.2837 7.48558 14.3543 7.42672 14.425C7.32078 14.2072 7.2678 13.9776 7.2678 13.7363C7.2678 13.5597 7.28546 13.3949 7.32078 13.2301C7.35609 13.0712 7.42084 12.8652 7.51501 12.6239C7.60918 12.3826 7.6857 12.1942 7.73867 12.0589C7.79164 12.1707 7.83873 12.2884 7.87993 12.412C7.92113 12.5356 7.95645 12.6651 7.98587 12.8005C8.0153 12.9359 8.03296 13.0771 8.03296 13.2125C8.03296 13.3361 8.02119 13.4479 7.99176 13.548V13.5421Z" fill="white"/>
</svg>
