<svg width="24" height="24" viewBox="0 0 24 24" fill="none" xmlns="http://www.w3.org/2000/svg">
<path fill-rule="evenodd" clip-rule="evenodd" d="M19.9021 7.58508C19.8557 7.68302 19.7835 7.77065 19.6959 7.84281C19.6031 7.90983 19.5052 7.97168 19.3918 8.01807C19.1753 8.11085 18.9588 8.20364 18.7474 8.29127C18.7938 8.18817 18.8557 8.10054 18.933 8.04384C19.0103 7.98198 19.1134 7.92013 19.2526 7.85312C19.4433 7.78095 19.5876 7.7294 19.6907 7.68817C19.7938 7.64693 19.866 7.616 19.9072 7.59023L19.9021 7.58508ZM17.3454 7.97682C17.2732 8.06445 17.201 8.13663 17.1186 8.19849C17.0412 8.25519 16.9433 8.31704 16.8247 8.37374C16.7113 8.43044 16.5979 8.47683 16.4948 8.51291C16.3918 8.54899 16.2887 8.59023 16.1804 8.62115C16.2268 8.52837 16.2938 8.4459 16.3763 8.37889C16.4588 8.31188 16.5567 8.25518 16.6649 8.20879C16.7732 8.1624 16.8969 8.11601 17.0361 8.06962C17.1753 8.02323 17.2784 7.99229 17.3402 7.97682H17.3454ZM11.2217 8.10055C11.1649 8.19333 11.0773 8.28095 10.9639 8.36858C10.8763 8.43559 10.768 8.49746 10.634 8.55416C10.5103 8.60055 10.3866 8.6521 10.268 8.69849C10.1495 8.75003 10.0309 8.80672 9.92783 8.87889C9.96392 8.75518 10.0258 8.65724 10.1082 8.57992C10.1959 8.50776 10.3144 8.43559 10.4691 8.36342C10.7165 8.27579 10.9691 8.18817 11.2217 8.09539V8.10055ZM16.0258 14.9975C15.8608 15.214 15.6959 15.4356 15.5412 15.6624C15.5052 15.6212 15.366 15.5284 15.1237 15.3789C14.9536 15.2706 14.8711 15.1624 14.8866 15.0438C14.9742 14.8944 15.0412 14.7861 15.0825 14.7139C15.1701 14.5748 15.2577 14.4614 15.3402 14.3841C15.3918 14.4304 15.5 14.4974 15.6598 14.5799C15.9072 14.7088 16.0309 14.848 16.0309 14.9975H16.0258ZM22 10.0129C21.7474 10.0902 21.4433 10.2294 21.0979 10.4356C20.9072 10.549 20.6237 10.7242 20.2474 10.9562C20.2732 10.8686 20.2835 10.781 20.2938 10.6933C20.299 10.6057 20.3041 10.5078 20.3041 10.3892V9.73456C20.1907 9.59538 20.0515 9.49229 19.8814 9.43044C19.7113 9.36858 19.5258 9.33766 19.3247 9.33766C19.1237 9.33766 18.933 9.35828 18.732 9.40467C18.5309 9.45106 18.3454 9.51291 18.1701 9.59023C17.9948 9.66755 17.8557 9.84281 17.7577 10.1057C17.7062 10.2449 17.6289 10.4665 17.5361 10.7603C17.6443 11.0696 17.8608 11.3325 18.1907 11.5593C18.4278 11.7191 18.7371 11.8583 19.1186 11.982C18.866 12.1727 18.6134 12.3583 18.3557 12.5387C18.0567 12.7449 17.7784 12.848 17.5258 12.848C17.4588 12.848 17.3866 12.8377 17.2938 12.8222C17.2062 12.8067 17.134 12.781 17.0722 12.75C16.9381 12.683 16.8402 12.6109 16.7887 12.5335C16.7371 12.4562 16.7113 12.3634 16.7113 12.2552C16.7113 12.1676 16.7474 12.0078 16.8196 11.781C16.8918 11.5541 16.9278 11.3789 16.9278 11.2655V11.2088C16.9278 11.2088 16.9278 11.1676 16.9175 11.1418C16.8247 11.0181 16.701 10.9562 16.5464 10.9562C16.2938 11.0284 16.0412 11.0954 15.7835 11.1624C15.5722 11.281 15.2423 11.4665 14.7938 11.7191C14.5052 11.8789 14.1598 12.0541 13.7577 12.25C13.2835 12.4717 12.9278 12.6366 12.6856 12.7346C12.3196 12.8892 11.9433 13.0232 11.5619 13.1366C11.1804 13.25 10.8041 13.3376 10.4381 13.4047C10.0722 13.4665 9.70103 13.4975 9.32474 13.4975C8.94845 13.4975 8.54639 13.4614 8.14433 13.3841C7.74227 13.3067 7.34536 13.1933 6.96392 13.0387C6.68041 12.9201 6.4433 12.7449 6.24742 12.5078C6.01546 12.2243 5.80412 11.7861 5.60309 11.1985C5.51031 11.3067 5.4433 11.4047 5.40206 11.5026C5.36598 11.6006 5.34536 11.7036 5.34536 11.8067C5.34536 11.9047 5.35567 12.0026 5.38144 12.0851C5.40722 12.1727 5.4433 12.281 5.49485 12.415C5.64948 12.7758 5.73196 12.9717 5.74227 13.0078C5.78351 13.1366 5.80412 13.2603 5.80412 13.3686C5.80412 13.4665 5.78866 13.5696 5.75258 13.6676C5.58247 14.0645 5.33505 14.3944 5.01546 14.6676C4.65464 14.9665 4.27835 15.1212 3.88144 15.1212C3.48454 15.1212 3.13918 15.0026 2.88144 14.7603C2.62371 14.5232 2.43814 14.2861 2.33505 14.0541C2.23196 13.8222 2.18041 13.5851 2.18041 13.348C2.18041 13.1469 2.23711 12.9356 2.35567 12.7088C2.44845 12.5335 2.58763 12.3273 2.7732 12.1005C3.12887 11.7088 3.48454 11.317 3.84536 10.9253C4.0567 10.6933 4.21649 10.4974 4.32474 10.3325C4.45876 10.1212 4.5567 9.91498 4.61856 9.71395C4.46907 10.0026 4.24742 10.3067 3.9433 10.6263C3.66495 10.8995 3.39175 11.1675 3.11856 11.4407C2.78866 11.7758 2.54639 12.0645 2.39175 12.3067C2.18557 12.6366 2.06701 12.9407 2.04124 13.2139C2.01546 13.4871 2 13.7139 2 13.8892C2 14.2088 2.03608 14.4923 2.10825 14.7449C2.18041 14.9974 2.28866 15.2088 2.42268 15.3841C2.5567 15.5593 2.74227 15.7088 2.96907 15.8325C3.12371 15.915 3.26804 15.9768 3.40722 16.0129C3.54639 16.049 3.69072 16.0696 3.84536 16.0696C4.02062 16.0696 4.20103 16.0335 4.37629 15.9614C4.86598 15.7346 5.26289 15.3686 5.56186 14.8531C5.80928 14.4356 5.98454 13.9304 6.09278 13.348L6.45361 13.7707C7.25773 14.1882 8.0567 14.3995 8.86083 14.3995C9.66495 14.3995 10.4897 14.2861 11.232 14.0541C11.6031 13.9407 11.9948 13.8016 12.4021 13.6315C12.732 13.4923 13.1031 13.317 13.5155 13.116C14.2217 12.7449 14.933 12.3737 15.6392 12.0026C15.8866 11.8789 16.067 11.817 16.1804 11.817C16.2938 11.817 16.366 11.8583 16.4021 11.9407C16.4381 12.0232 16.4536 12.1418 16.4536 12.3016C16.4485 12.3995 16.4433 12.5026 16.4381 12.6005C16.433 12.6985 16.4278 12.7964 16.4278 12.8892C16.4278 13.0387 16.4433 13.1624 16.4742 13.2655C16.5052 13.3686 16.5619 13.4511 16.6443 13.5078C16.8969 13.683 17.1495 13.7758 17.3969 13.7758C17.5567 13.7758 17.7165 13.7397 17.8814 13.6727C18.0464 13.6057 18.1959 13.5232 18.3351 13.4201C18.4742 13.3222 18.7887 13.049 19.2629 12.616C19.4639 12.4356 19.6392 12.2913 19.7835 12.1933C19.7835 12.3841 19.7835 12.6572 19.7938 13.0232C19.799 13.384 19.8041 13.6366 19.8041 13.781L19.9742 12.0129C20.0979 11.7964 20.3093 11.6005 20.6134 11.4304C21.3454 11.0181 21.7371 10.781 21.7835 10.7243L21.9845 10.0181L22 10.0129ZM6.43814 8.31189C6.45361 8.34797 6.46392 8.39436 6.46392 8.45106C6.46392 8.50776 6.44845 8.54899 6.41237 8.57476C6.37113 8.61085 6.31959 8.61085 6.25258 8.57476C6.15979 8.52322 6.09794 8.49745 6.06701 8.49745C6.02062 8.59539 5.97938 8.8325 5.94845 9.20363C5.91753 9.57477 5.83505 9.80672 5.70619 9.89435C5.5567 9.60054 5.41237 9.30158 5.26289 9.00261C5.25258 9.03354 5.23196 9.05415 5.21134 9.06446C5.18557 9.07477 5.15979 9.07993 5.13402 9.07993H5.01031C4.97938 9.05415 4.95876 9.02838 4.94845 8.99745C4.93814 8.96652 4.93299 8.93044 4.93299 8.88921C4.93299 8.85312 4.93299 8.81703 4.94845 8.78095C4.95876 8.74486 4.97423 8.69332 5 8.62115C5.02577 8.54899 5.04639 8.50776 5.0567 8.49745C5.09278 8.45621 5.13402 8.4356 5.18041 8.4356C5.19072 8.4356 5.22165 8.44591 5.26804 8.47168L5.75258 9.48199C5.77835 9.3892 5.80928 9.18302 5.85567 8.87374C5.90206 8.56446 5.97423 8.3222 6.07217 8.1521C6.13918 8.1521 6.20103 8.16755 6.26289 8.20363C6.32474 8.23971 6.3866 8.27581 6.4433 8.31189H6.43814ZM13.3763 14.3841C13.3814 14.4408 13.3763 14.5078 13.3454 14.5799C13.3196 14.6521 13.2629 14.7449 13.1701 14.8531C13.0155 14.9459 12.866 15.0438 12.7165 15.1469C12.5361 15.2449 12.3608 15.2964 12.201 15.2964C12.1237 15.2964 12.0515 15.2861 11.9897 15.2603C11.9433 15.2294 11.8918 15.2088 11.8351 15.1985C11.7784 15.1882 11.7268 15.183 11.6804 15.183C11.4794 15.183 11.232 15.317 10.9381 15.5851C10.5876 15.8944 10.3402 16.0748 10.1856 16.1212C10.1031 16.1572 10.0155 16.1933 9.92268 16.2346C9.8299 16.2758 9.73711 16.3119 9.63402 16.3377C9.43814 16.3892 9.24227 16.415 9.05155 16.415C9.29897 16.3634 9.54639 16.2707 9.79381 16.1418C9.98454 16.0438 10.2062 15.8995 10.4691 15.7191C10.5412 15.6727 10.701 15.5542 10.9536 15.3686C11.3041 15.116 11.5825 14.9304 11.7938 14.8119C11.8763 14.8016 11.9794 14.8274 12.0979 14.8995C12.2165 14.9717 12.3041 15.0078 12.3608 15.0078C12.4072 15.0078 12.4588 14.9923 12.5103 14.9562C12.5515 14.8428 12.5825 14.7603 12.5979 14.7088C12.6392 14.6005 12.6959 14.5387 12.768 14.5129V14.848C12.8608 14.8325 12.9485 14.7913 13.0309 14.7397C13.1082 14.683 13.2217 14.5645 13.3711 14.3789L13.3763 14.3841ZM19.9381 11.0645C19.6031 11.0645 19.299 11.0129 19.0258 10.915C18.701 10.7964 18.4588 10.616 18.2887 10.3737C18.5206 10.3016 18.7577 10.2655 19.0052 10.2655C19.1959 10.2655 19.366 10.2913 19.5155 10.348C19.6649 10.4047 19.7887 10.4975 19.8814 10.6263L19.933 11.0593L19.9381 11.0645Z" fill="white"/>
</svg>
