<svg width="24" height="24" viewBox="0 0 24 24" fill="none" xmlns="http://www.w3.org/2000/svg">
<path fill-rule="evenodd" clip-rule="evenodd" d="M16.767 7.36347C16.6925 7.67567 16.6272 7.88537 16.576 7.98788C16.4641 8.22553 16.3057 8.36532 16.1053 8.4026L15.2572 8.54705C15.2572 8.39794 15.2805 8.25815 15.3225 8.13234C15.3691 8.00652 15.4436 7.84808 15.5461 7.66169C15.7046 7.60111 15.891 7.54985 16.1146 7.49859C16.3383 7.45199 16.5527 7.4054 16.7623 7.3588L16.767 7.36347ZM21.9767 11.1659C21.9254 10.5554 21.7903 9.97297 21.5666 9.42777C21.3476 8.87791 21.0447 8.42125 20.6533 8.04846C20.602 8.42125 20.5601 8.79403 20.5368 9.16682C20.5089 9.53961 20.4995 9.90307 20.4995 10.2619C20.4995 10.7558 20.5275 11.2218 20.5834 11.6645C20.6393 12.1072 20.7232 12.5033 20.835 12.8434C20.835 12.5825 20.8164 12.2376 20.7791 11.8136C20.7046 10.9655 20.6673 10.411 20.6673 10.1594C20.6673 10.1361 20.6673 10.0242 20.6766 9.81919C20.6859 9.61416 20.6999 9.44641 20.7232 9.31127C21.0587 9.69804 21.3197 10.15 21.5061 10.6626C21.6692 11.1193 21.781 11.6412 21.8416 12.2376C21.767 12.8341 21.5527 13.3933 21.1938 13.9152C20.8816 14.3765 20.4576 14.8052 19.9171 15.2013C19.4418 15.5508 18.9059 15.863 18.3187 16.1286C17.7968 16.3616 17.2656 16.548 16.7204 16.6971C17.4753 16.6971 18.0857 16.6598 18.5564 16.5853C19.2181 16.4827 19.7819 16.2824 20.2432 15.9935C20.7791 15.658 21.1705 15.192 21.4175 14.5955C21.8043 13.7148 22 12.7735 22 11.767V11.4641C22 11.3616 21.9907 11.2591 21.9767 11.1612V11.1659ZM19.5163 9.26467C19.3299 8.30009 18.9245 7.49393 18.2954 6.84155C18.2069 7.13046 18.1463 7.40073 18.123 7.64304C18.0951 7.88536 18.0857 8.20688 18.0857 8.60297C18.0857 8.61695 18.0904 8.81733 18.1044 9.19478C18.1137 9.57688 18.123 9.87977 18.123 10.1128C18.1137 10.2106 18.1137 10.3085 18.1137 10.4017V10.6906C18.1137 10.8677 18.1323 11.0401 18.165 11.2032C18.1976 11.3663 18.2535 11.4921 18.3281 11.5853C18.3374 11.5573 18.356 11.52 18.3886 11.4781C18.4212 11.4362 18.4445 11.4035 18.4492 11.3709C18.4026 10.863 18.384 10.3411 18.384 9.80521C18.384 9.26933 18.4073 8.74277 18.4492 8.20689C18.7102 8.55638 18.9105 8.92917 19.0457 9.32525C19.1855 9.72134 19.274 10.1594 19.3206 10.644C19.2088 11.1053 18.9711 11.5387 18.603 11.9394C18.2395 12.3402 17.8341 12.6011 17.3961 12.7223C17.4334 12.5219 17.4567 12.3728 17.4706 12.2749C17.48 12.1771 17.4893 12.0513 17.4893 11.8928C17.4893 11.6925 17.4706 11.5061 17.4287 11.3383C17.3868 11.1705 17.3169 11.0261 17.2237 10.9096C17.1631 10.835 17.0885 10.7838 17 10.7512C16.9115 10.7232 16.8229 10.7139 16.7297 10.7279C16.52 10.8537 16.3663 11.0168 16.2637 11.2125C16.1612 11.4082 16.0913 11.6412 16.0447 11.9115C16.0214 12.1351 16.0075 12.3774 16.0075 12.643C16.0075 12.9087 16.0028 13.165 16.0028 13.4073C15.5461 13.7148 15.0569 13.9711 14.5256 14.1808C14.0876 14.3532 13.5704 14.507 12.9832 14.6375C13.356 14.4138 13.6636 14.1622 13.9059 13.8826C14.1482 13.603 14.3532 13.2861 14.521 12.932C14.6887 12.5778 14.8145 12.233 14.8938 11.9021C14.9776 11.5713 15.0382 11.1752 15.0848 10.7232C15.0242 10.6626 14.945 10.6347 14.8518 10.6347C14.7912 10.6347 14.6934 10.6533 14.5629 10.6906C14.4324 10.7279 14.3299 10.7465 14.274 10.7465C13.8639 10.8211 13.5005 11.0541 13.1789 11.4408C12.932 11.739 12.7223 12.1212 12.5405 12.5918C12.4567 12.6943 12.3961 12.9925 12.3541 13.4772C12.3122 13.9618 12.1631 14.2041 11.9021 14.2041C11.8509 14.2041 11.7903 14.1948 11.7251 14.1808C11.6598 14.1668 11.6086 14.1528 11.5806 14.1482C11.4455 14.1016 11.3569 14.0363 11.3197 13.9525C11.2777 13.8686 11.2591 13.7661 11.2591 13.6449C11.2591 13.5937 11.2591 13.5098 11.2684 13.3979C11.2684 13.3374 11.2684 13.2861 11.2591 13.2395C11.2498 13.1929 11.2451 13.1649 11.2358 13.151C11.0354 13.2255 10.8024 13.3653 10.5415 13.5657C10.4017 13.6775 10.1873 13.8499 9.90308 14.0783C9.7027 14.2367 9.50699 14.3579 9.3206 14.4464C9.1342 14.5349 8.93849 14.5815 8.7288 14.5815C8.63094 14.5815 8.52843 14.5722 8.41659 14.5489C8.16962 14.4883 7.99254 14.3299 7.88071 14.0783C7.85741 14.0317 7.79683 13.7987 7.68966 13.3793C8.06244 13.2395 8.41659 13.0531 8.75676 12.8201C9.09692 12.5871 9.38117 12.3169 9.61417 12C9.94035 11.534 10.1966 11.068 10.3737 10.602C10.5508 10.1361 10.644 9.66076 10.644 9.1808H10.4203C10.2572 9.1808 10.0801 9.20875 9.89376 9.26001C9.7959 9.28797 9.63747 9.34389 9.41379 9.42777C9.11556 9.54892 8.86393 9.73065 8.65424 9.97762C8.49115 10.1733 8.34669 10.411 8.22554 10.6999C8.10438 10.9888 7.98322 11.343 7.87139 11.7717C7.75955 12.2004 7.69898 12.4334 7.69432 12.4706C7.5685 12.5079 7.43802 12.5359 7.30289 12.5592C7.16775 12.5825 7.03728 12.5918 6.91146 12.5918C6.73439 12.5918 6.55732 12.5685 6.3849 12.5266C6.28239 12.4054 6.17987 12.2842 6.07735 12.1584C5.97484 12.0326 5.9096 11.9068 5.88164 11.7763C5.8164 11.9115 5.77446 12.0233 5.76048 12.1118C5.7465 12.2004 5.71389 12.4613 5.65797 12.8947C5.72321 12.9925 5.83504 13.137 5.99348 13.3327C6.18919 13.617 6.28239 13.8872 6.28239 14.1482C6.12395 14.6188 5.9096 15.0196 5.63467 15.3551C5.30848 15.7558 4.93103 15.9981 4.50699 16.0727C4.39515 16.096 4.28332 16.1053 4.17148 16.1053C3.86393 16.1053 3.57968 16.0214 3.30941 15.849C3.03914 15.6766 2.80615 15.4529 2.60578 15.178C2.44734 14.9683 2.34017 14.7866 2.27493 14.6235C2.20969 14.465 2.18173 14.2973 2.18173 14.1249C2.18173 13.9851 2.20503 13.8406 2.25629 13.6962C2.30289 13.5517 2.38211 13.4026 2.48928 13.2535C2.59646 13.1044 2.80615 12.89 3.10904 12.6151C3.30941 12.452 3.51445 12.2842 3.72414 12.1118C3.97111 11.9114 4.16216 11.739 4.30662 11.5993C4.50699 11.3896 4.66076 11.1892 4.7726 10.9888C4.87978 10.7931 4.94501 10.5787 4.96831 10.3458C4.84716 10.6673 4.6794 10.9515 4.45573 11.2078C4.35322 11.3197 3.92917 11.6738 3.19292 12.2703C2.80615 12.5825 2.5219 12.8807 2.34483 13.1649C2.11184 13.5377 2 13.9618 2 14.4417C2 14.9497 2.05592 15.3691 2.16775 15.7046C2.31687 16.1519 2.57316 16.4781 2.94129 16.6878C3.137 16.8276 3.34203 16.9441 3.55638 17.028C3.77074 17.1118 3.98975 17.1584 4.2041 17.1584C4.41845 17.1584 4.62349 17.1165 4.80988 17.0373C5.16869 16.8882 5.46226 16.6785 5.69525 16.4129C5.90494 16.1752 6.07735 15.877 6.21715 15.5182C6.35694 15.1594 6.4548 14.8052 6.51538 14.4557C6.57596 14.1062 6.60391 13.7334 6.60391 13.3374C6.65051 13.3141 6.69245 13.3048 6.73905 13.3048C6.78565 13.3048 6.88816 13.3374 7.0466 13.3979C7.20503 13.4632 7.34017 13.4911 7.44268 13.4911C7.49394 13.4911 7.53122 13.4911 7.55452 13.4818C7.5452 13.6076 7.54054 13.7335 7.53122 13.8546C7.5219 13.9758 7.5219 14.0969 7.5219 14.2181C7.5219 14.4184 7.54986 14.6002 7.60578 14.7586C7.6617 14.9171 7.75955 15.0568 7.90401 15.1687C8.0438 15.2805 8.17894 15.3597 8.30475 15.411C8.43057 15.4576 8.56104 15.4855 8.69618 15.4855C8.83597 15.4855 8.97577 15.4622 9.1109 15.411C9.24604 15.3597 9.38117 15.2945 9.51165 15.206C9.54893 15.1827 9.85648 14.9636 10.4296 14.5443C10.63 14.3951 10.8117 14.2833 10.9655 14.2087C11.0401 14.2367 11.0774 14.2786 11.0774 14.3299C11.0774 14.3579 11.068 14.4045 11.0447 14.465C11.0214 14.5256 11.0121 14.5676 11.0121 14.5862C11.0401 14.698 11.0867 14.7912 11.1426 14.8658C11.1985 14.9403 11.2777 15.0242 11.3849 15.1221C11.4455 15.1733 11.5387 15.2013 11.6645 15.2013C11.7297 15.2013 11.8276 15.192 11.9534 15.1687C12.0792 15.1454 12.1678 15.1361 12.2237 15.1361V15.616C12.2237 15.6673 12.2237 15.7465 12.233 15.849C12.2377 15.9515 12.2563 16.0261 12.2796 16.0727C12.3635 15.9375 12.4101 15.7372 12.4194 15.4669C12.4287 15.1966 12.438 15.0429 12.4473 14.9963C13.0578 14.8984 13.5564 14.8192 13.9338 14.7493C14.479 14.6514 14.9497 14.5489 15.3551 14.4371C15.4762 14.4091 15.616 14.3439 15.7791 14.246C15.8677 14.1948 15.9981 14.1109 16.1705 13.9991C16.2824 13.9152 16.3802 13.8593 16.4595 13.8313C16.5433 13.8033 16.6319 13.7847 16.7297 13.7847C16.8322 13.7847 16.9441 13.808 17.0559 13.8499C17.5033 13.8499 17.9413 13.6449 18.3746 13.2348C18.6962 12.9273 18.9991 12.5172 19.2926 12.0047C19.5303 11.4548 19.6514 10.8537 19.6514 10.206C19.6514 10.0429 19.6421 9.87045 19.6281 9.69803C19.6142 9.52096 19.5909 9.37184 19.5629 9.24603L19.5163 9.26467ZM6.31966 8.0438C6.28239 8.13233 6.25443 8.20223 6.24045 8.24417C6.19385 8.34202 6.13793 8.36533 6.06337 8.30941C5.98882 8.22553 5.9096 8.17426 5.83038 8.15096C5.7698 8.50045 5.72787 8.76141 5.70923 8.93383C5.65797 9.24604 5.56943 9.47902 5.43896 9.62814C5.42498 9.60018 5.33644 9.39049 5.18267 9.00372C5.11743 8.83131 5.05219 8.70083 4.99161 8.6123C4.91706 8.70083 4.85182 8.74744 4.80056 8.74744C4.77726 8.74744 4.7493 8.73811 4.71202 8.71481C4.65144 8.65424 4.62349 8.59366 4.62349 8.52376C4.62349 8.4725 4.64213 8.40726 4.6794 8.3327C4.71668 8.25815 4.76328 8.17428 4.81454 8.07642C5.02423 8.09972 5.19664 8.27679 5.32712 8.6123C5.41566 8.84529 5.48555 8.9944 5.54147 9.05964C5.54147 8.73811 5.56011 8.47716 5.60205 8.27679C5.64399 8.07642 5.73719 7.89934 5.8863 7.75023C5.97018 7.75023 6.04939 7.78285 6.13327 7.85274C6.17987 7.8807 6.24045 7.94594 6.32432 8.0438H6.31966ZM17.1911 12.6058C17.1072 12.7176 17.0047 12.7735 16.8788 12.7735C16.8136 12.7735 16.7484 12.7642 16.6925 12.7409C16.6365 12.7176 16.5806 12.6943 16.52 12.6617C16.3942 12.5965 16.329 12.4846 16.329 12.3355C16.329 12.2516 16.3523 12.1678 16.3942 12.0792C16.4175 12.028 16.4455 11.9767 16.4781 11.9208C16.5107 11.8649 16.5527 11.8322 16.5946 11.8089C16.7204 11.795 16.8276 11.8229 16.9208 11.8928C17.014 11.9627 17.0652 12.0513 17.0885 12.1538C17.1538 12.3029 17.1911 12.452 17.1911 12.6011V12.6058ZM14.6747 11.7111C14.5769 12.1724 14.2926 12.6151 13.8267 13.0298C13.5377 13.2908 13.0904 13.5983 12.4939 13.9478C12.4846 13.8965 12.4846 13.822 12.4846 13.7241C12.4846 13.3746 12.5685 13.0531 12.7363 12.7642C12.904 12.4753 13.137 12.233 13.4352 12.0466C13.6123 11.9441 13.7987 11.8602 13.9897 11.795C14.1808 11.7297 14.3625 11.7018 14.5443 11.7018C14.5722 11.7018 14.6188 11.7018 14.6794 11.7111H14.6747ZM10.2106 10.2572C10.1267 10.4949 10.0103 10.7232 9.85182 10.9329C9.69338 11.1472 9.51165 11.3383 9.30196 11.5154C9.09226 11.6924 8.87791 11.8462 8.6589 11.9813C8.43989 12.1165 8.2069 12.233 7.95993 12.3402C7.95993 11.9208 8.07176 11.5387 8.30009 11.1845C8.52843 10.8304 8.83597 10.5694 9.22274 10.4063C9.24604 10.4063 9.41379 10.3597 9.726 10.2712C9.83784 10.2432 9.93103 10.2246 10.0056 10.2246C10.0708 10.2246 10.1407 10.2339 10.206 10.2572H10.2106Z" fill="white"/>
</svg>
