<svg width="24" height="24" viewBox="0 0 24 24" fill="none" xmlns="http://www.w3.org/2000/svg">
<path fill-rule="evenodd" clip-rule="evenodd" d="M15.9175 7.10632C15.8853 7.19008 15.866 7.30605 15.866 7.44136V7.85374C15.866 7.95684 15.8467 8.03415 15.808 8.08569C15.7693 8.13724 15.6856 8.17591 15.5567 8.20169C15.1443 8.7687 14.6675 9.23905 14.1263 9.6192C14.558 9.08441 14.9832 8.55605 15.4149 8.02126C15.2925 7.92461 15.1765 7.83442 15.067 7.73777C15.067 7.53803 15.125 7.36405 15.2474 7.20296C15.3698 7.04188 15.5245 6.91946 15.7049 6.82281C15.7564 6.82925 15.8015 6.86792 15.8402 6.92591C15.8789 6.9839 15.9046 7.04833 15.9175 7.10632ZM22 11.7584C22 11.0174 21.8582 10.3022 21.5812 9.61275C21.3041 8.92332 20.9175 8.30476 20.4278 7.76353C20.3247 8.15013 20.2539 8.53028 20.2216 8.91043C20.1894 9.29059 20.1701 9.70942 20.1701 10.1733C20.1701 10.6373 20.1894 11.1205 20.2216 11.5973C20.2539 12.0741 20.3054 12.6025 20.3763 13.1888C20.4472 12.9504 20.4858 12.7313 20.5052 12.5445C20.5245 12.3576 20.5309 12.1128 20.5309 11.8099C20.5245 11.5457 20.5116 11.2751 20.5052 11.011C20.4987 10.7468 20.4923 10.4762 20.4923 10.212C20.4923 9.97359 20.4923 9.78028 20.5052 9.63208C20.5116 9.48388 20.5245 9.38079 20.5309 9.30992C20.8982 9.87693 21.1881 10.4182 21.3943 10.9336C21.6456 11.5586 21.768 12.1514 21.768 12.6991C21.768 13.0406 21.7165 13.395 21.6134 13.7558C21.433 14.3937 21.1108 14.9607 20.6469 15.4697C20.2668 15.8821 19.7642 16.288 19.1392 16.694C18.6044 17.0226 18.0245 17.3061 17.3866 17.5445C16.8454 17.7442 16.2332 17.9182 15.5567 18.0728L16.8196 18.0213C17.2126 17.9633 17.8312 17.8666 18.6624 17.7378C19.8737 17.4865 20.692 16.9195 21.1237 16.0238C21.4394 15.4375 21.6714 14.7545 21.8196 13.9749C21.942 13.3241 22 12.5831 22 11.7584ZM19.1649 13.7171C19.1327 13.7494 19.0296 13.9169 18.8686 14.2068C18.7461 14.4323 18.6302 14.5419 18.5077 14.5419C18.4369 14.5419 18.3595 14.5032 18.2629 14.4259C18.2307 14.3744 18.1147 14.3099 17.9214 14.2262C17.7281 14.1424 17.6508 14.0329 17.6959 13.8976L18.366 12.9826C18.5979 13.1179 18.7655 13.221 18.8686 13.2919C19.0683 13.4272 19.1649 13.569 19.1649 13.7171ZM11.3299 10.2249C11.2719 10.3602 11.1753 10.4955 11.0399 10.6244C10.9046 10.7532 10.7564 10.8692 10.5825 10.9723C10.2474 11.1592 9.91237 11.346 9.57732 11.5264C9.65464 11.3782 9.76417 11.2365 9.91237 11.1012C10.0348 10.9981 10.183 10.8885 10.3634 10.7661C10.6791 10.5857 11.0013 10.4053 11.3299 10.2249ZM18.9201 9.34214C18.482 9.34214 17.8698 9.54188 17.0902 9.93492C16.6327 10.1669 16.2848 10.328 16.0464 10.4117C16.8131 9.77385 17.3544 9.23904 17.6701 8.78801C17.9472 8.40141 18.1405 8.00194 18.2629 7.58957C18.308 7.48003 18.3338 7.39626 18.3402 7.34472C18.3466 7.29317 18.3531 7.21586 18.3531 7.11277C18.3531 6.88081 18.2951 6.62951 18.1791 6.35244C18.0631 6.07538 17.9472 5.81765 17.8376 5.56636C17.7539 5.77899 17.5606 6.13983 17.2706 6.64885C16.8003 7.46715 16.5619 8.11148 16.5619 8.58184C16.7101 8.37565 16.8647 8.11148 17.0258 7.79576C17.2899 7.28029 17.4317 7.01612 17.4381 7.00967C17.509 7.16431 17.5735 7.31894 17.6443 7.48002C17.7152 7.6411 17.7474 7.7893 17.7474 7.92461C17.7474 7.96971 17.741 8.03416 17.7216 8.11792C17.2126 8.56251 16.8518 8.89756 16.6263 9.12307C16.2204 9.529 15.9111 9.91559 15.6856 10.2829C15.4085 10.7403 15.2539 11.1849 15.2088 11.636C15.4343 11.578 15.924 11.346 16.6907 10.953C17.3093 10.6372 17.8312 10.4762 18.2629 10.4762C17.9794 10.8177 17.4704 11.2236 16.7423 11.6875C16.1753 12.0483 15.8402 12.2674 15.7371 12.3447C15.3054 12.654 14.9961 12.9504 14.7964 13.2339C14.5451 13.5947 14.4227 13.9878 14.4227 14.4195C14.4227 14.5548 14.4356 14.7094 14.4613 14.8834C14.0554 15.2442 13.6302 15.4246 13.1856 15.4246C13.0889 15.4246 13.0245 15.4246 12.9794 15.4117C13.0116 15.3151 13.0889 15.154 13.1985 14.9156C13.3338 14.5805 13.4046 14.2906 13.4046 14.0457C13.4046 13.8396 13.3595 13.6591 13.2629 13.4981C13.134 13.4143 12.9923 13.3692 12.8376 13.3628C12.683 13.3628 12.5541 13.3563 12.451 13.3563C12.1933 13.3563 11.9871 13.4272 11.826 13.5689C11.6649 13.7107 11.5103 14.0135 11.3557 14.4839C11.3106 14.587 11.2912 14.6579 11.2912 14.6901C11.2912 14.7932 11.3943 14.8834 11.607 14.9478C11.8196 15.0187 11.942 15.096 11.9871 15.1798C11.6456 15.5148 11.2783 15.7983 10.8918 16.0174C10.5052 16.2365 10.1121 16.3976 9.70618 16.4878C9.30026 16.5844 8.93943 16.6295 8.62371 16.6295C8.06314 16.6295 7.52835 16.5071 7.01289 16.2687C6.78093 16.172 6.58119 15.9852 6.40722 15.6952C6.04639 15.0702 5.77577 14.7287 5.59536 14.6579C5.30541 14.8318 5.05412 15.1476 4.84794 15.6115C4.43557 16.52 4.0683 17.0483 3.73969 17.1836C3.52706 17.1836 3.34021 17.1321 3.17912 17.029C3.01804 16.9259 2.88273 16.7777 2.76031 16.5909C2.58634 16.3589 2.46392 16.1398 2.39304 15.9336C2.32216 15.7275 2.28351 15.5277 2.28351 15.328C2.28351 15.1669 2.30284 15.0251 2.33505 14.9156C2.40593 14.6836 2.52191 14.4646 2.69588 14.2584C2.83119 14.0973 3.03093 13.904 3.28866 13.6914C3.46907 13.5432 3.69459 13.3692 3.97165 13.163C4.32603 12.8988 4.55799 12.7184 4.66753 12.6218C4.89948 12.4349 5.09923 12.2352 5.26031 12.0226C5.42139 11.8099 5.53737 11.5973 5.60825 11.3718C5.50515 11.5329 5.40206 11.7004 5.29897 11.8615C5.16366 12.087 5.00902 12.2352 4.83505 12.3125C4.49356 12.4671 4.1585 12.6604 3.8299 12.886C3.50129 13.1115 3.21778 13.3628 2.96649 13.6269C2.68299 13.9362 2.47036 14.2519 2.32216 14.5676C2.1482 14.9285 2.05155 15.2313 2.03222 15.4697C2.01289 15.7081 2 15.9207 2 16.1012C2 16.6102 2.09021 17.0548 2.26418 17.4349C2.43814 17.8151 2.72809 18.1179 3.13402 18.3434C3.31443 18.4014 3.48196 18.4336 3.6366 18.4336C3.88789 18.4336 4.08763 18.3499 4.24227 18.1759C4.36469 18.047 4.46778 17.8473 4.56443 17.5831C4.79639 16.8937 4.94459 16.5006 5.00258 16.3975C5.13144 16.172 5.29253 16.011 5.49227 15.9079C5.84665 16.4555 6.14304 16.8486 6.39433 17.0999C6.80026 17.5058 7.23196 17.7506 7.69588 17.828C8.0116 17.8731 8.28222 17.8924 8.49485 17.8924C9.1585 17.8924 9.76418 17.7571 10.3247 17.4865C10.7113 17.2932 11.0915 17.0548 11.4588 16.7648C11.7938 16.5135 12.1353 16.2107 12.4897 15.8499C12.6379 16.0367 12.7861 16.172 12.9407 16.2558C13.0954 16.3396 13.25 16.3782 13.4046 16.3782C13.5528 16.3782 13.701 16.346 13.8492 16.2816C13.9974 16.2171 14.1585 16.1269 14.3325 16.0045C14.558 15.8434 14.7835 15.6759 15.0155 15.5019C15.4987 15.1476 15.8982 14.9736 16.2139 14.9736L16.6134 13.7622C16.4588 13.788 16.2977 13.8138 16.1366 13.8396C15.9755 13.8653 15.8209 13.8782 15.6727 13.8782C15.4472 13.8782 15.2603 13.8396 15.1057 13.7622C15.4987 13.4723 15.8982 13.1759 16.2912 12.886C16.7745 12.5251 17.174 12.1836 17.4897 11.8679C17.9021 11.4813 18.2242 11.0947 18.4562 10.7081C18.7204 10.2635 18.875 9.79961 18.9201 9.31637V9.34214ZM6.00773 9.45167C6.00773 9.62564 5.96907 9.81251 5.89175 10.0123C5.81443 10.212 5.73711 10.4117 5.65979 10.5986C5.45361 10.5986 5.16366 10.6308 4.79639 10.7017C4.42912 10.7725 4.13917 10.8048 3.93299 10.8048C3.93299 10.6179 3.96521 10.4246 4.03608 10.2249C4.0683 10.1153 4.15851 9.92203 4.29381 9.65786C4.77706 9.58054 5.25387 9.50323 5.73711 9.42591C5.7951 9.42591 5.88531 9.43234 6.00773 9.45167ZM15.634 7.58312V7.45426C15.6082 7.34473 15.5503 7.28673 15.4536 7.28673C15.4021 7.28673 15.357 7.30606 15.3119 7.35117C15.3183 7.40916 15.3698 7.4607 15.4536 7.49292C15.5374 7.52514 15.6018 7.55734 15.634 7.58312Z" fill="white"/>
</svg>
