<svg width="24" height="24" viewBox="0 0 24 24" fill="none" xmlns="http://www.w3.org/2000/svg">
<path fill-rule="evenodd" clip-rule="evenodd" d="M21.8788 10.5376C21.9614 10.8681 22 11.2151 22 11.5787C22 11.9752 21.9504 12.3663 21.8513 12.7409C21.686 13.2697 21.4767 13.7323 21.2178 14.1234C20.9039 14.5971 20.5293 14.9441 20.0942 15.1755C19.9289 15.2085 19.7031 15.2361 19.4112 15.2691C19.1193 15.3022 18.8769 15.3187 18.6841 15.3187C18.5244 15.3187 18.3812 15.3077 18.249 15.2912C18.0617 15.4619 17.8248 15.5445 17.5384 15.5445C17.4172 15.5445 17.3126 15.528 17.2245 15.4949C17.1363 15.4949 17.0592 15.4509 16.9986 15.3627C16.9105 15.2305 16.8499 15.1534 16.8169 15.1259C16.6571 15.2581 16.4754 15.3517 16.266 15.4013C16.0567 15.4509 15.8199 15.4784 15.561 15.4784C15.4123 15.4784 15.2581 15.4784 15.1093 15.4674C14.9606 15.4619 14.8064 15.4564 14.6577 15.4509C14.7899 15.3958 15.0212 15.3022 15.3572 15.1755C15.908 14.9717 16.3101 14.7789 16.58 14.5916C16.58 13.9967 16.6516 13.4349 16.8003 12.9061C16.949 12.3773 17.1473 11.8926 17.4007 11.4575C17.566 11.7604 17.6486 12.113 17.6486 12.5151V12.818C17.6321 12.9116 17.6155 12.9777 17.61 13.0163C17.5715 13.2807 17.5164 13.5506 17.4503 13.8315C17.3511 14.1785 17.2795 14.4319 17.2355 14.5861C17.3732 14.6797 17.5164 14.7293 17.6596 14.7293C17.7147 14.7293 17.7753 14.7183 17.8303 14.7018C18.1058 14.5751 18.3426 14.3768 18.5409 14.1069C18.7061 13.8811 18.8383 13.6057 18.9375 13.2862C18.9485 13.2256 18.954 13.1595 18.954 13.0879V12.9282C18.954 12.6638 18.9155 12.4049 18.8438 12.146C18.7722 11.8926 18.6676 11.6448 18.5354 11.4134C18.4748 11.5511 18.4142 11.7549 18.3646 12.0193C18.2379 12.6913 18.1719 13.0548 18.1553 13.0989C18.1553 12.5922 18.1939 12.124 18.271 11.6943C18.3481 11.2647 18.4748 10.8516 18.6511 10.4605C18.8549 10.7524 18.9926 11.0995 19.0697 11.5126C19.1248 11.821 19.1523 12.2121 19.1523 12.6858C19.1523 13.0383 19.0862 13.4294 18.954 13.859C18.8604 14.162 18.7227 14.5145 18.5354 14.9166L18.3922 15.0873C19.0476 15.0102 19.6701 14.7569 20.2539 14.3327C20.5348 14.1179 20.7937 13.87 21.0196 13.5891C21.2454 13.3082 21.4272 13.0163 21.5593 12.7133C21.664 12.4434 21.7191 12.1515 21.7191 11.832C21.7191 11.474 21.653 11.1215 21.5263 10.78C21.3996 10.4385 21.2178 10.119 20.981 9.82157C20.9645 9.91521 20.9259 10.5487 20.8763 11.7109C20.8598 12.1625 20.7992 12.5316 20.7056 12.818C20.645 12.807 20.6009 12.7519 20.5844 12.6528C20.5679 12.5536 20.5514 12.4875 20.5459 12.46C20.6615 11.1986 20.7772 9.93725 20.8984 8.67589C21.1407 8.92926 21.339 9.21568 21.5098 9.53515C21.675 9.85463 21.8017 10.1961 21.8843 10.5486L21.8788 10.5376ZM16.222 9.41949L15.6657 9.19365L15.2581 9.69489C15.2581 9.78853 15.3297 9.87114 15.4729 9.94275C15.6657 10.0364 15.7813 10.097 15.8144 10.1245C15.93 9.97581 16.0072 9.86014 16.0512 9.78303C16.1283 9.66185 16.1834 9.54066 16.222 9.42498V9.41949ZM14.7458 9.772L14.1895 9.51863C14.1399 9.5627 14.0738 9.65633 13.9967 9.79404C13.9196 9.93174 13.859 10.0254 13.8204 10.075C13.7929 10.1245 13.7819 10.1576 13.7819 10.1796C13.7819 10.2567 13.848 10.3173 13.9802 10.3614C14.0518 10.3779 14.1509 10.4165 14.2831 10.466C14.4098 10.466 14.509 10.3834 14.575 10.2127C14.6136 10.119 14.6687 9.9703 14.7458 9.77751V9.772ZM9.62875 8.75851C9.55164 8.85765 9.46902 8.95129 9.36987 9.0284C9.27072 9.10551 9.16056 9.18263 9.03387 9.25975L8.35087 9.61226C8.42247 9.51311 8.49959 9.42498 8.58772 9.35338C8.67585 9.28177 8.78601 9.21017 8.9182 9.13305C9.0504 9.06145 9.17158 8.99535 9.28725 8.94027C9.458 8.85214 9.57367 8.79156 9.62875 8.75851ZM16.0017 12.0303C16.0182 11.9036 16.0292 11.7825 16.0292 11.6723C16.0292 11.3694 15.9686 11.094 15.8419 10.8406C15.6381 11.1435 15.5335 11.3033 15.528 11.3143C15.4288 11.5071 15.3847 11.6888 15.4068 11.8541L15.5224 11.7604C15.561 11.8651 15.5941 11.9808 15.6161 12.0909C15.6436 12.2066 15.6546 12.3168 15.6546 12.4214C15.539 12.6142 15.3682 12.7794 15.1369 12.9116C14.9606 13.0108 14.7458 13.0934 14.4924 13.1595C14.553 13.0163 14.6191 12.8621 14.6852 12.7078C14.7513 12.5481 14.7844 12.3994 14.7844 12.2617C14.7844 12.168 14.7733 12.0799 14.7458 11.9973C14.6907 11.8981 14.6467 11.821 14.6136 11.777C14.5585 11.6999 14.4979 11.6613 14.4318 11.6613C14.3988 11.6613 14.3657 11.6723 14.3272 11.6888C13.9636 11.8816 13.6882 12.168 13.5065 12.5426C13.3247 12.9171 13.2311 13.3192 13.2311 13.7379C12.8124 13.9527 12.3883 14.1289 11.9532 14.2666C11.518 14.4043 11.0884 14.498 10.6588 14.553C11.2647 14.2005 11.7659 13.7434 12.1735 13.1815C12.5756 12.6197 12.8124 12.0193 12.873 11.3749C12.515 11.3749 12.1405 11.463 11.7549 11.6337C11.3693 11.8045 11.0388 12.0469 10.7744 12.3553C10.8516 12.0854 10.9066 11.7935 10.9507 11.485C10.9893 11.1766 11.0113 10.8791 11.0113 10.5982C11.0113 10.2071 10.9672 9.82157 10.8846 9.44151C10.802 9.06145 10.6698 8.73097 10.499 8.45557C10.2897 8.8852 10.1245 9.43051 10.0088 10.0915C9.92068 10.6698 9.83255 11.2482 9.74442 11.821C9.83255 11.6448 9.90967 11.3694 9.98127 11.0003C10.1741 9.9703 10.2897 9.41948 10.3118 9.34237C10.455 9.64531 10.5596 9.94827 10.6202 10.2622C10.6808 10.5707 10.7083 10.9067 10.7083 11.2757C10.7083 11.788 10.6478 12.2837 10.5266 12.7684C10.4054 13.2531 10.2402 13.7103 10.0364 14.1289C9.77747 14.2446 9.50757 14.3162 9.23217 14.3548C9.10548 14.3713 8.9843 14.3823 8.87414 14.3823C8.61526 14.3823 8.37841 14.3382 8.16359 14.2501C7.94877 14.162 7.7615 14.0188 7.60727 13.826C7.43652 13.479 7.32085 13.1044 7.25475 12.7078C7.18865 12.3057 7.1556 11.8706 7.1556 11.3969C7.1556 11.105 7.1556 10.6698 7.14459 10.0805C7.13908 9.49659 7.13357 9.06145 7.13357 8.78604C7.04544 8.84663 6.97934 8.94028 6.92977 9.05595C6.8802 9.17162 6.84164 9.28729 6.80308 9.40296L6.8802 12.3168C6.8802 12.9612 6.90774 13.4129 6.95731 13.6773C7.05095 14.173 7.25475 14.5696 7.56321 14.8615C7.71193 14.9772 7.88268 15.0598 8.07546 15.1094C8.26274 15.1645 8.46103 15.192 8.65932 15.192C8.87965 15.192 9.09997 15.17 9.30928 15.1259C9.51859 15.0818 9.74993 15.0212 9.98127 14.9386C10.2842 14.7734 10.6753 14.6797 11.1545 14.6522C11.6337 14.6247 12.0909 14.6026 12.526 14.5861C13.0052 14.5145 13.3853 14.3548 13.6717 14.0959C14.0738 14.0573 14.4263 13.9692 14.7293 13.8315C15.0708 13.6717 15.3517 13.4514 15.572 13.1595C15.6932 12.9998 15.7868 12.829 15.8529 12.6472C15.919 12.4655 15.9686 12.2617 16.0072 12.0303H16.0017ZM4.06555 9.51312L3.97191 9.72243L3.74608 9.53515C3.6965 9.80505 3.65795 10.0033 3.6304 10.119C3.58083 10.3448 3.51473 10.5376 3.44313 10.6974C3.41008 10.6643 3.36051 10.5321 3.29441 10.2953C3.22831 10.0584 3.11815 9.95928 2.96943 9.99783C2.91986 9.97029 2.87579 9.94826 2.84825 9.93174C2.8152 9.91522 2.80419 9.88216 2.80969 9.83809C2.84274 9.74446 2.86478 9.66735 2.88681 9.60125C2.90333 9.54066 2.94189 9.48558 3.00248 9.45254C3.14569 9.49109 3.25585 9.61227 3.32195 9.81056C3.4266 10.1135 3.4927 10.2787 3.50923 10.3008C3.50923 10.2953 3.53126 10.1135 3.57532 9.76099C3.60286 9.54066 3.65795 9.37542 3.74608 9.25975C3.80666 9.25975 3.87276 9.28728 3.93335 9.33685C3.99394 9.38643 4.03801 9.44702 4.06555 9.51863V9.51312ZM6.09804 11.6888C6.12559 11.7274 6.14211 11.777 6.15313 11.8375C6.16414 11.8981 6.16965 11.9532 6.16965 12.0138C6.16965 12.0744 6.16965 12.1295 6.15313 12.1901C6.14211 12.2507 6.11457 12.3553 6.065 12.5095C5.85569 12.6913 5.64087 12.9942 5.42055 13.4184C5.30487 13.6332 5.19471 13.848 5.09006 14.0628C4.90829 14.3768 4.71551 14.6192 4.52272 14.7844C4.26935 14.9992 3.97742 15.1204 3.64142 15.1534C3.59736 15.159 3.41559 15.181 3.09061 15.2195C2.77114 15.2581 2.53429 15.2746 2.38006 15.2746C2.25337 15.2746 2.12669 15.2636 2 15.2471C2.3415 15.1534 2.64445 15.0543 2.90884 14.9551C3.23933 14.8285 3.54227 14.6797 3.8287 14.5035C4.10961 14.3272 4.36299 14.1179 4.58331 13.87C4.80364 13.6222 4.9854 13.3413 5.13412 13.0273C5.24979 12.7739 5.35996 12.5206 5.47563 12.2617C5.64087 11.9753 5.84467 11.7935 6.09254 11.7054L6.09804 11.6888ZM17.2961 13.6662C17.3511 13.5506 17.3787 13.4184 17.3787 13.2587C17.3787 13.1265 17.3622 12.9943 17.3291 12.8731C17.2961 12.7464 17.241 12.5977 17.1749 12.4214C17.0757 12.7133 16.9711 12.9998 16.8719 13.2807C16.8389 13.4239 16.8224 13.5561 16.8224 13.6662C16.8224 13.8425 16.8664 14.0077 16.9546 14.1565C17.0702 13.9912 17.1804 13.826 17.2961 13.6662ZM14.3327 12.9667C14.2831 13.0383 14.228 13.0934 14.173 13.1375C14.1179 13.1815 14.0573 13.2036 14.0022 13.2036C13.9471 13.2036 13.9031 13.1926 13.881 13.1705C13.8535 13.1485 13.8149 13.1209 13.7654 13.0879C13.7103 13.0549 13.6717 13.0273 13.6497 12.9943C13.6497 12.8896 13.6937 12.7905 13.7764 12.7078C13.859 12.6252 13.9581 12.5536 14.0738 12.504C14.1289 12.493 14.184 12.5095 14.2335 12.5591C14.2611 12.5866 14.2886 12.6307 14.3272 12.7023C14.3382 12.7188 14.3437 12.7519 14.3437 12.796C14.3437 12.8345 14.3437 12.8896 14.3327 12.9667ZM12.4489 12.2011C12.2396 12.5646 11.9201 12.9116 11.496 13.2421C11.2261 13.4514 10.835 13.7048 10.3228 13.9967C10.3779 13.6663 10.5211 13.3523 10.7414 13.0493C10.9672 12.7464 11.2316 12.5371 11.5401 12.4269C11.843 12.3498 12.146 12.2727 12.4489 12.2011Z" fill="white"/>
</svg>
