<svg width="24" height="24" viewBox="0 0 24 24" fill="none" xmlns="http://www.w3.org/2000/svg">
<path fill-rule="evenodd" clip-rule="evenodd" d="M16.9616 7.2342C16.9517 7.28869 16.922 7.3531 16.8724 7.42246C16.8229 7.49182 16.7833 7.54631 16.7585 7.57604L16.6891 7.52649C16.595 7.56613 16.5108 7.62062 16.4464 7.68998C16.377 7.75934 16.3473 7.83365 16.3473 7.92283C16.3869 7.96246 16.4761 7.98228 16.6198 7.98228C16.7634 7.98228 16.8477 8.03182 16.8823 8.12595C16.8526 8.38852 16.7139 8.61146 16.4761 8.79972C16.2928 8.94339 16.055 9.05733 15.7627 9.14651L15.7032 9.09697L16.6445 8.46283C16.6148 8.39347 16.5157 8.34889 16.3572 8.32907C16.1987 8.31421 16.1095 8.25971 16.0946 8.16063C16.1491 7.93769 16.2631 7.72466 16.4315 7.51659C16.6 7.30851 16.7783 7.21438 16.9616 7.22924V7.2342ZM21.9455 9.31495C21.891 8.74522 21.7672 8.21512 21.5838 7.72466C21.3956 7.2342 21.138 6.78832 20.806 6.38208C20.7268 6.51584 20.6772 6.74869 20.6574 7.08557C20.6376 7.4175 20.6178 7.61567 20.6029 7.68007C20.6029 7.69494 20.593 7.93769 20.5782 8.41329C20.5633 8.88394 20.5534 9.22082 20.5534 9.41899C20.5534 9.80046 20.5732 10.1373 20.6079 10.4296C20.6426 10.7219 20.707 10.9944 20.806 11.252C20.816 10.6476 20.8209 10.0432 20.8308 9.43881C20.8407 8.8344 20.8407 8.2399 20.8407 7.66026C21.2371 8.3588 21.4947 8.90375 21.6185 9.29513C21.7424 9.68651 21.8018 10.0531 21.8018 10.395C21.8018 10.5436 21.7919 10.7021 21.7672 10.8607C21.6879 11.366 21.4996 11.8614 21.1974 12.337C20.9299 12.7581 20.5732 13.1693 20.1273 13.5656C19.731 13.9322 19.2851 14.2344 18.7897 14.4822C18.2943 14.7299 17.7989 14.8934 17.3084 14.9825L17.6056 14.5763C17.8831 14.2196 18.0912 13.7588 18.2249 13.199C18.3339 12.7333 18.3934 12.1933 18.3934 11.584C18.3934 10.9746 18.329 10.4445 18.2051 9.94909C18.0763 9.45367 17.8682 9.0177 17.5759 8.63623C17.2044 9.56266 17.0161 10.5584 17.0161 11.6186C17.0161 11.9456 17.031 12.228 17.0656 12.4757C17.1449 12.1983 17.2143 11.7623 17.2688 11.1629C17.3233 10.5634 17.3976 10.1324 17.4818 9.87477C17.68 10.2067 17.8385 10.5485 17.9524 10.8953C18.0664 11.2421 18.1258 11.5988 18.1258 11.9654C18.1258 12.4559 17.9921 12.9166 17.7295 13.3427C17.462 13.7688 17.1152 14.1056 16.6792 14.3533C16.59 14.3781 16.5108 14.388 16.4315 14.388C16.2086 14.388 15.9906 14.3236 15.7776 14.1998C15.941 13.7935 16.0649 13.4368 16.1491 13.1198C16.2333 12.8027 16.2977 12.4509 16.3374 12.0596C16.3374 12.0298 16.3473 11.9704 16.3622 11.8911V11.4997C16.3622 11.2124 16.3374 10.935 16.2878 10.6575C16.2383 10.3801 16.159 10.1175 16.05 9.87477C15.8667 10.1819 15.7032 10.5089 15.5645 10.8458C15.4209 11.1827 15.3069 11.5196 15.2128 11.8614C15.1236 12.2032 15.0592 12.555 15.0245 12.9216C14.9898 13.2882 14.97 13.6845 14.97 14.1205C14.6678 14.3831 14.2368 14.6159 13.672 14.824C13.3649 14.933 12.8992 15.1014 12.2799 15.3244C12.4781 15.2748 12.9438 15.2451 13.677 15.2302C14.4102 15.2154 14.9403 15.0965 15.2623 14.8735C15.4209 15.0816 15.5893 15.2203 15.7726 15.2996C15.9559 15.3789 16.159 15.4185 16.3919 15.4185C16.5603 15.4185 16.7535 15.3937 16.9814 15.3491C17.2093 15.2996 17.4471 15.2501 17.6998 15.1956C17.9524 15.1411 18.1853 15.1113 18.4033 15.1113H18.76C19.404 15.1113 19.9985 14.8289 20.5534 14.2691C21.0141 13.8034 21.3758 13.2287 21.6334 12.55C21.8811 11.7673 22 10.9647 22 10.1423C22 10.0085 22 9.86486 21.9901 9.72119C21.9802 9.57257 21.9703 9.44376 21.9554 9.33477L21.9455 9.31495ZM14.1229 7.44723C14.0931 7.56613 14.0486 7.68503 13.9941 7.80393C13.9693 7.84356 13.8652 8.02687 13.672 8.34889C13.563 8.27953 13.4243 8.21017 13.2559 8.15072C13.0874 8.09127 12.9636 8.04668 12.8744 8.012C12.9041 7.85347 12.9636 7.69989 13.0429 7.54631C13.1221 7.39769 13.2212 7.24906 13.3401 7.10539C13.5779 7.15493 13.7166 7.18466 13.7563 7.19952C13.9049 7.24906 14.0287 7.32833 14.1229 7.43732V7.44723ZM11.0562 7.68503C11.0067 7.8287 10.9274 7.95751 10.8184 8.07641C10.7094 8.19531 10.5608 8.30925 10.3825 8.4232C10.2041 8.53219 10.0654 8.61641 9.97127 8.67091C9.79787 8.77495 9.6542 8.86908 9.54521 8.95825C9.58484 8.81458 9.66411 8.68082 9.78301 8.55201C9.87218 8.46283 10.001 8.36375 10.1744 8.24485C10.323 8.16558 10.4815 8.08136 10.6401 7.98723C10.7986 7.89806 10.9373 7.79402 11.0562 7.68503ZM14.5142 10.3851C14.5142 10.6229 14.4796 10.9052 14.4053 11.2273C14.3111 11.5939 14.2418 11.8515 14.2021 12.01C14.0337 12.2775 13.8355 12.5005 13.6076 12.6739C13.3451 12.882 13.0825 12.981 12.8249 12.981H12.597L12.5028 12.7531C12.0917 13.204 11.6507 13.6152 11.1751 13.9917C10.7045 14.3633 10.214 14.6754 9.7087 14.9181C9.30245 15.1064 8.87639 15.26 8.43052 15.369C7.98464 15.4779 7.53381 15.5374 7.08298 15.5374C6.84518 15.5374 6.57766 15.5176 6.27545 15.4779C5.95839 15.3739 5.70572 15.26 5.51251 15.1312C5.24994 14.9578 5.06663 14.7447 4.95269 14.4871C4.87342 14.3286 4.80902 14.1899 4.76443 14.066C4.71489 13.9422 4.66535 13.7737 4.61085 13.5607L4.42259 12.5748C3.94699 12.8621 3.47634 13.1445 3.0057 13.4319C2.77781 13.6053 2.59946 13.7787 2.48055 13.957C2.33688 14.17 2.26753 14.4078 2.26753 14.6704C2.27743 14.7348 2.27743 14.7794 2.27743 14.8141C2.36661 15.0519 2.50037 15.3045 2.68368 15.577C2.81744 15.7653 3.01065 15.9981 3.25341 16.2706C3.46148 16.4936 3.6646 16.7115 3.87268 16.9345C4.11048 17.1921 4.29378 17.42 4.41764 17.6181C3.82314 17.0881 3.43176 16.7313 3.23854 16.548C2.99083 16.3102 2.78771 16.0774 2.61927 15.8495C2.4112 15.5721 2.25762 15.2996 2.15358 15.037C2.04954 14.7695 2 14.4822 2 14.1651C2 13.9768 2.02973 13.7539 2.09413 13.5012C2.22789 13.0207 2.66881 12.55 3.41194 12.0992C3.92717 11.792 4.25415 11.5741 4.39782 11.4452C4.39782 11.1183 4.3681 10.6179 4.30369 9.93918C4.23929 9.2555 4.20956 8.76999 4.20956 8.46779C4.20956 8.20026 4.22442 7.97237 4.2591 7.78907C4.29874 7.46704 4.40277 7.19952 4.56626 6.9964C4.65544 7.60081 4.70498 8.17549 4.71984 8.72045C4.7347 9.26541 4.74461 10.1225 4.74461 11.2867C4.94278 11.1777 5.13104 11.0588 5.30443 10.935C5.47783 10.8111 5.61655 10.6972 5.72058 10.5981L5.90884 9.69642C6.11692 9.56761 6.2705 9.47348 6.37454 9.40908C6.58261 9.28027 6.74114 9.19605 6.85014 9.14651L6.72133 10.3603C6.5727 10.7269 6.31509 11.0836 5.94848 11.4304C5.68591 11.683 5.32425 11.9704 4.8536 12.2875C4.94278 12.7234 5.03691 13.0603 5.14095 13.2981C5.29948 13.6449 5.52737 13.9174 5.81967 14.1056C6.08224 14.2344 6.34481 14.3236 6.61234 14.3781C6.87986 14.4326 7.1573 14.4623 7.44959 14.4623C7.83602 14.4623 8.23731 14.4128 8.64355 14.3088C9.04979 14.2047 9.47089 14.0511 9.89695 13.8381C10.323 13.63 10.7392 13.3823 11.1454 13.095C11.3287 12.9662 11.5071 12.8275 11.6805 12.6788C11.8539 12.5302 12.0173 12.3717 12.166 12.2131C12.1263 12.1339 12.0272 12.0744 11.8687 12.0397C11.7102 12.0051 11.6061 11.9555 11.5616 11.8911C11.6111 11.6385 11.6557 11.3808 11.7052 11.1183C11.7944 10.826 11.9678 10.6773 12.2304 10.6773C12.2997 10.6773 12.3988 10.6674 12.5276 10.6476C12.6564 10.6278 12.7307 10.6179 12.7555 10.6179C12.8596 10.6179 12.9438 10.6377 13.0181 10.6773C13.0676 10.7715 13.0874 10.8706 13.0874 10.9746C13.0874 11.0539 13.0478 11.252 12.9685 11.5691C12.9289 11.7276 12.9091 11.8564 12.9091 11.9506C13.1469 11.9506 13.3896 11.8614 13.6324 11.6781C13.8207 11.5344 14.0139 11.3412 14.2021 11.0935C14.1625 10.7863 14.1328 10.5981 14.1179 10.5337C14.0684 10.3454 13.9841 10.177 13.8553 10.0333C13.7761 10.1274 13.7463 10.2414 13.7612 10.3652H13.7018C13.6919 10.3157 13.6919 10.2662 13.6919 10.2166V10.0928C13.6919 9.64193 13.7959 9.25055 13.999 8.91366C14.1972 9.08211 14.3309 9.28523 14.4053 9.52798C14.4746 9.77074 14.5142 10.0531 14.5142 10.3801V10.3851ZM15.7627 11.0985C15.8519 11.3263 15.9014 11.475 15.9163 11.5394C15.9955 11.8069 16.0352 12.0695 16.0352 12.3221C16.0352 12.4955 16.0104 12.664 15.9658 12.8275C15.9163 12.9909 15.837 13.1297 15.728 13.2486C15.6884 13.2882 15.6388 13.3576 15.5843 13.4616C15.5299 13.5656 15.4654 13.63 15.3961 13.6647C15.2673 13.4368 15.2078 13.1941 15.2078 12.9414C15.2078 12.7581 15.2376 12.5649 15.302 12.3568C15.4506 11.9357 15.6091 11.5146 15.7677 11.0985H15.7627Z" fill="white"/>
</svg>
