<svg width="24" height="24" viewBox="0 0 24 24" fill="none" xmlns="http://www.w3.org/2000/svg">
<path fill-rule="evenodd" clip-rule="evenodd" d="M21.9785 11.2299C21.9785 11.2946 21.9785 11.3753 21.9892 11.4669C21.9946 11.5584 22 11.6607 22 11.7684C22 12.4954 21.8869 13.1685 21.6554 13.7932C21.4561 14.2456 21.2838 14.5848 21.1384 14.8056C20.9015 15.1664 20.616 15.4303 20.2876 15.6026C19.7921 15.7318 19.2375 15.8288 18.6182 15.8988C17.9989 15.9688 17.412 16.0011 16.8519 16.0011C17.6004 15.8126 18.0743 15.6941 18.2736 15.6349C18.8121 15.4787 19.2806 15.2956 19.6844 15.0856C20.1583 14.8433 20.5514 14.5525 20.8691 14.224C21.2138 13.8578 21.4669 13.4163 21.6338 12.8993C21.6715 12.7916 21.6984 12.657 21.72 12.5008C21.7415 12.3446 21.7523 12.1992 21.7523 12.07C21.7523 11.72 21.6984 11.3753 21.5907 11.0361C21.483 10.6968 21.3323 10.363 21.1384 10.0237C21.1007 10.126 21.0792 10.2176 21.0738 10.3091C21.0684 10.4006 21.063 10.5245 21.063 10.6807V10.9499C21.063 11.0361 21.063 11.1222 21.0738 11.2084C21.0738 11.4023 21.063 11.553 21.0469 11.6607C21.0307 11.7684 20.9876 11.8761 20.923 11.9838C20.8745 11.6123 20.8476 11.1976 20.8476 10.7453C20.8476 10.3845 20.8638 10.056 20.9015 9.75983C20.9391 9.46365 21.0038 9.16748 21.0953 8.8713C21.3484 9.17286 21.5477 9.52827 21.6931 9.93753C21.8384 10.3468 21.9354 10.7776 21.9785 11.2299ZM15.5272 9.81906C15.5272 9.89984 15.4895 9.97523 15.4195 10.056C15.3495 10.1368 15.2633 10.1799 15.161 10.196C14.811 10.3468 14.5417 10.4599 14.364 10.5407C14.084 10.6645 13.8148 10.7938 13.5563 10.9391C13.6263 10.7884 13.7394 10.6591 13.8848 10.5568C14.0302 10.4545 14.2079 10.3576 14.4179 10.2714C14.7841 10.1206 15.1556 9.96984 15.5272 9.81906ZM19.8998 10.8315C19.706 10.6968 19.5175 10.5568 19.329 10.4114C19.1136 10.2391 18.9682 10.0614 18.8982 9.87292C18.8982 9.76521 18.8982 9.59289 18.909 9.35595C18.9144 9.11901 18.9198 8.9413 18.9198 8.82822C18.9198 8.41357 18.8875 8.0797 18.8228 7.8266C18.7367 7.48735 18.5805 7.21809 18.3489 7.01885C18.112 8.04739 17.9882 8.59666 17.972 8.67744C17.9074 9.05978 17.8751 9.40441 17.8751 9.72213C18.0205 9.17824 18.1605 8.62897 18.3059 8.08508C18.4297 8.30048 18.5105 8.51589 18.559 8.73667C18.6074 8.95746 18.629 9.21055 18.629 9.49596C18.629 9.66828 18.6182 9.85137 18.5967 10.0399C18.5751 10.2283 18.5482 10.406 18.5213 10.5622C17.9181 10.8799 17.4173 11.2246 17.0135 11.6069C16.4965 12.0969 16.1734 12.6031 16.0442 13.1362C16.1788 13.1362 16.4696 13.1093 16.9165 13.0609C17.1104 13.0393 17.2773 13.0285 17.4227 13.0285C17.5574 13.0285 17.7027 13.0393 17.8535 13.0609C17.3204 13.4109 16.8465 13.707 16.4211 13.944C15.8826 14.2455 15.3818 14.4825 14.9133 14.6548C14.154 14.951 13.3893 15.0964 12.63 15.0964C12.28 15.0964 11.9031 15.0641 11.51 15.0048C11.1169 14.9456 10.7453 14.7733 10.406 14.4986C10.0668 14.224 9.83522 13.8955 9.72213 13.5132C9.65751 13.0555 9.61443 12.6354 9.58751 12.2639C9.56058 11.8923 9.54981 11.3269 9.54981 10.573C9.54981 10.2499 9.54981 9.92138 9.54981 9.59289C9.54981 9.26441 9.5552 8.93053 9.5552 8.59128C9.49596 8.65051 9.43673 8.75282 9.37211 8.90899C9.30749 9.06516 9.25902 9.16209 9.23209 9.20517C9.28056 9.53366 9.30748 9.91061 9.30748 10.336C9.30748 10.4006 9.29671 10.6699 9.28056 11.1438C9.2644 11.6177 9.25363 12.0108 9.25363 12.3177C9.25363 13.0124 9.30749 13.5778 9.41519 14.0086C9.56058 14.5741 9.80829 15.0479 10.1691 15.4195C10.5407 15.6134 10.9122 15.7534 11.2838 15.8449C11.6554 15.9364 12.0377 15.9795 12.4308 15.9795C13.0285 15.9795 13.637 15.8772 14.2671 15.678C14.8971 15.4787 15.538 15.1879 16.2003 14.8164C16.7173 14.5202 17.2989 14.1379 17.9451 13.664C18.2736 13.4432 18.6074 13.217 18.9359 12.9962C19.3236 12.7377 19.5175 12.4093 19.5175 12.0162C19.1352 12.1669 18.7205 12.2423 18.2682 12.2423C18.0474 12.2369 17.8212 12.2262 17.6004 12.2208C17.3796 12.2154 17.1642 12.21 16.9542 12.21C17.1966 11.9677 17.4389 11.7631 17.6758 11.6069C17.9505 11.4292 18.2143 11.2999 18.4728 11.2299C18.5374 11.203 18.6074 11.1869 18.6882 11.1869C18.8174 11.1869 18.9736 11.2461 19.1513 11.37C19.3936 11.5423 19.539 11.6338 19.5821 11.65L19.8945 10.8315H19.8998ZM11.8654 10.0452C11.7954 10.2122 11.7415 10.3306 11.7146 10.4114C11.6554 10.5568 11.5854 10.6753 11.4992 10.7668C11.65 10.5299 11.7254 10.2553 11.7254 9.94831C11.7254 9.67367 11.6661 9.42596 11.5423 9.20517C11.5369 9.14055 11.5423 9.09208 11.5584 9.05439C11.5746 9.01669 11.6123 8.97361 11.6715 8.91437C11.7415 9.00592 11.8008 9.1244 11.8438 9.25902C11.8869 9.39365 11.9085 9.53366 11.9085 9.66828C11.9085 9.81368 11.8923 9.93753 11.8654 10.0452ZM16.238 16.2596C16.1465 16.4265 16.0765 16.545 16.0334 16.6257C15.9526 16.7711 15.8718 16.8896 15.7857 16.9812L14.9672 16.518C15.0749 16.3188 15.1556 16.168 15.2149 16.0765C15.3226 15.8988 15.4518 15.8126 15.6026 15.8287C15.6834 15.8664 15.7641 15.9095 15.8503 15.9688C15.9795 16.0603 16.1088 16.1572 16.238 16.2596ZM8.28971 11.7792C8.35972 12.0969 8.39741 12.4308 8.39741 12.7916C8.39741 13.3139 8.30587 13.7986 8.12816 14.2348C7.95046 14.671 7.65967 15.0479 7.26656 15.3656C7.035 15.581 6.73344 15.7264 6.3511 15.8072C6.09801 15.8557 5.7426 15.8826 5.28487 15.8826C5.05331 15.8826 4.82714 15.8826 4.59558 15.888C4.36403 15.888 4.14863 15.9149 3.93861 15.958C4.63328 15.7803 5.19871 15.6026 5.62951 15.4303C6.29187 15.1718 6.80883 14.881 7.19117 14.5579C7.66505 14.154 8.00431 13.6586 8.21432 13.0609C8.21432 12.8616 8.13355 12.6731 7.97738 12.5008C7.84814 12.3662 7.68121 12.2423 7.48196 12.1346C7.41195 12.1131 7.3581 12.0969 7.32041 12.0915C7.28271 12.0862 7.22886 12.0808 7.15886 12.0808C6.90038 12.0808 6.68498 12.1669 6.51265 12.3393C6.46419 12.4039 6.41034 12.4685 6.35649 12.5385C6.30264 12.6085 6.27571 12.6731 6.27571 12.7377C6.27571 12.7862 6.28648 12.8347 6.30802 12.8778C6.41572 12.9801 6.49111 13.1093 6.53958 13.2762C6.58805 13.4432 6.60958 13.6155 6.60958 13.804C6.60958 13.874 6.60959 13.9817 6.59882 14.1271C6.59343 14.2725 6.58805 14.3694 6.58805 14.4287C6.5665 14.2833 6.44265 14.0625 6.22186 13.7609C6.00108 13.4593 5.88799 13.2062 5.88799 13.007C5.88799 12.8724 5.90953 12.7539 5.95261 12.6624C5.97954 12.3823 6.05493 12.1239 6.17878 11.8923C6.30264 11.6607 6.47496 11.4615 6.69574 11.2946C6.86807 11.2084 7.04577 11.1653 7.23425 11.1653C7.44426 11.1653 7.64351 11.2192 7.83737 11.3269C8.03123 11.4346 8.18201 11.5854 8.28971 11.7792ZM3.3678 10.0022L3.09855 10.7776L2 10.9391C2 10.8153 2.01616 10.6914 2.05385 10.5676C2.09155 10.4437 2.1454 10.2929 2.2154 10.1206C2.3231 10.0775 2.45234 10.0452 2.60851 10.0291C2.76467 10.0129 2.92623 10.0022 3.09855 10.0022H3.3678ZM5.52181 11.2838C5.52181 10.2552 5.2741 9.31825 4.77868 8.4728C4.67097 8.84437 4.5902 9.2644 4.53096 9.72213C4.47173 10.1799 4.4448 10.6322 4.4448 11.0792C4.4448 11.5692 4.47711 12.0215 4.54173 12.447C4.54173 11.9946 4.55789 11.553 4.5902 11.1276C4.62251 10.7022 4.66559 10.196 4.72482 9.61443C4.84868 9.84598 4.93484 10.0452 4.99408 10.2229C5.05331 10.4006 5.11255 10.6268 5.17717 10.9068C5.22025 11.1169 5.25794 11.3215 5.28487 11.5261C5.31179 11.7307 5.32795 11.93 5.32795 12.1239C5.32795 12.5277 5.26333 12.8831 5.13409 13.1901C5.00485 13.497 4.78406 13.7501 4.46634 13.944C4.3748 14.0032 4.27787 14.0302 4.18632 14.0302C4.04093 14.0302 3.89553 13.9117 3.74475 13.6694C3.59397 13.427 3.46473 13.3086 3.35703 13.3086C2.96931 13.4755 2.67851 13.7663 2.48465 14.1809C2.31772 14.531 2.23694 14.9402 2.23694 15.398C2.35003 15.2041 2.4685 15.0048 2.58158 14.8056C2.72698 14.5687 2.88853 14.391 3.07701 14.2779C3.15778 14.2186 3.22779 14.1917 3.29241 14.1917C3.35703 14.1917 3.41626 14.2456 3.46473 14.3533C3.58858 14.6117 3.67474 14.7571 3.73398 14.7841C3.80398 14.8541 3.91169 14.8918 4.05708 14.8918C4.1217 14.8864 4.18632 14.8756 4.25633 14.8702C4.32633 14.8648 4.38557 14.8594 4.4448 14.8594C4.56866 14.8002 4.68174 14.7087 4.79483 14.5848C4.90792 14.461 4.99946 14.3263 5.08024 14.1917C5.2364 13.7663 5.34949 13.3139 5.41949 12.8347C5.4895 12.3554 5.52181 11.8384 5.52181 11.2838ZM7.94507 15.9257C7.85353 15.9957 7.73506 16.0657 7.60043 16.1303C7.51965 16.168 7.40118 16.2219 7.24502 16.2973C7.08885 16.3727 6.97577 16.4373 6.91115 16.4857C6.80883 16.5665 6.72806 16.6581 6.66344 16.7658C6.73344 16.7388 6.85191 16.685 7.00808 16.615C7.16424 16.545 7.28271 16.4857 7.36349 16.4426C7.49273 16.3726 7.60582 16.2972 7.69736 16.2165C7.78891 16.1357 7.87507 16.0388 7.94507 15.9257Z" fill="white"/>
</svg>
