<svg width="24" height="24" viewBox="0 0 24 24" fill="none" xmlns="http://www.w3.org/2000/svg">
<path fill-rule="evenodd" clip-rule="evenodd" d="M18.3133 8.79484C18.2469 8.91662 18.1528 9.02179 18.0255 9.12143C17.8981 9.22107 17.721 9.33177 17.4885 9.45355C17.1951 9.61409 17.0125 9.71374 16.9405 9.75802C17.0014 9.6307 17.0955 9.52553 17.2173 9.43142C17.3114 9.35946 17.5383 9.23213 17.9037 9.03839C18.0753 8.94428 18.2137 8.8668 18.3133 8.79484ZM21.8505 12.2213C21.7232 13.0627 21.2582 13.7934 20.4445 14.4079C19.7968 14.9006 18.9997 15.277 18.0587 15.5316C18.7119 15.443 19.3042 15.3655 19.8301 15.2936C20.3559 15.2216 20.7822 14.9836 21.1032 14.585C21.3302 14.3027 21.5461 13.9263 21.7398 13.4558C21.8284 13.1402 21.8948 12.8358 21.9336 12.548C21.9779 12.2601 22 11.9556 22 11.6346C22 11.0699 21.9225 10.533 21.762 10.0348C21.6014 9.5366 21.3579 9.10481 21.0257 8.745C20.9206 9.1491 20.8486 9.54767 20.7988 9.95177C20.7545 10.3503 20.7268 10.7766 20.7268 11.2194C20.7268 11.4685 20.7324 11.701 20.7434 11.9113C20.7545 12.1217 20.7711 12.3376 20.7932 12.5701C20.8099 12.559 20.8265 12.5479 20.8431 12.5369C20.8707 12.3763 20.8874 12.2546 20.8984 12.166C20.904 12.0774 20.9095 11.9169 20.9095 11.6789V11.0367C20.9095 10.7544 20.915 10.5109 20.9316 10.3116C20.9427 10.1123 20.9759 9.91301 21.0257 9.71373C21.2859 10.0846 21.4907 10.4832 21.6291 10.9094C21.773 11.3356 21.8395 11.773 21.8395 12.2213H21.8505ZM20.1677 11.0423C20.1677 10.4943 20.0847 9.9573 19.9131 9.43142C19.7415 8.91108 19.5035 8.44609 19.1879 8.04199C19.1326 8.1527 19.0938 8.30217 19.0717 8.50145C19.0329 8.82252 19.0163 8.98303 19.0163 8.98857C19.0163 9.01071 19.0163 9.20446 18.9997 9.57534C18.9887 9.94622 18.9831 10.2119 18.9831 10.3669C18.9831 10.5773 18.9942 10.7821 19.0108 10.9703C19.0274 11.1585 19.0606 11.3357 19.0938 11.4907C19.1381 10.6935 19.1824 9.89641 19.2322 9.09929L19.5588 9.7082C19.6972 10.1289 19.7802 10.4112 19.8134 10.5607C19.8909 10.8762 19.9297 11.1751 19.9297 11.4519C19.9297 11.7287 19.8965 11.9612 19.8301 12.166C19.6751 12.4594 19.4979 12.7085 19.2876 12.9022C19.0274 13.1458 18.7617 13.2731 18.5015 13.2731V13.1679C18.5015 13.0849 18.5292 12.9631 18.579 12.8026C18.6288 12.6421 18.6565 12.5147 18.6565 12.4206C18.6565 12.3763 18.6565 12.3431 18.651 12.321C18.5956 12.2546 18.5347 12.2103 18.4683 12.1881C18.4019 12.166 18.3244 12.1549 18.2358 12.1549C18.1306 12.1549 18.0199 12.1715 17.8926 12.2047C17.8262 12.2213 17.7265 12.249 17.5882 12.2933C17.5051 12.5037 17.4553 12.6697 17.4332 12.7804C17.411 12.8911 17.3999 13.0074 17.3999 13.1292C17.5549 13.1624 17.6546 13.1845 17.7044 13.2011C17.8096 13.2399 17.8981 13.2897 17.9756 13.3561C17.8705 13.5222 17.7431 13.6606 17.5826 13.7658C17.4221 13.8709 17.256 13.9263 17.0789 13.9263C16.9183 13.9263 16.7689 13.882 16.6305 13.7935C16.4866 13.7049 16.3703 13.5886 16.2707 13.4447C16.1489 13.0185 16.0603 12.5037 15.9994 11.8947C15.9607 11.3633 15.9219 10.8098 15.8777 10.2341C15.8334 9.65837 15.7559 9.16018 15.6507 8.73394C15.6009 8.78376 15.5621 8.87232 15.5345 9.00518C15.5068 9.13803 15.4791 9.22107 15.457 9.25982C15.5123 9.65285 15.5621 10.223 15.6175 10.9703C15.6673 11.7176 15.7116 12.2601 15.7503 12.5978C15.8223 13.2233 15.9164 13.7602 16.0437 14.2086C16.1157 14.3525 16.2153 14.4688 16.3482 14.5684C16.4644 14.6515 16.6028 14.7179 16.7634 14.7622C16.8409 14.7732 16.8962 14.7788 16.935 14.7788C17.173 14.7788 17.4055 14.6736 17.6269 14.4577C17.7542 14.3359 17.9203 14.1367 18.1251 13.8433L18.7119 13.8986C18.8779 13.8986 19.0385 13.8488 19.1935 13.7436C19.3208 13.6606 19.4426 13.5388 19.5699 13.3783C19.7802 13.0517 19.9352 12.6919 20.0293 12.2933C20.1234 11.8947 20.1733 11.4741 20.1733 11.0257L20.1677 11.0423ZM14.7373 12.5701C14.7097 12.2878 14.5989 12.0608 14.4052 11.8947C14.2336 11.8062 14.1174 11.7564 14.0731 11.7397C13.9347 11.6844 13.8129 11.6567 13.6966 11.6567H13.5638C13.514 11.6733 13.4808 11.6844 13.4642 11.6899C13.2759 11.7674 13.132 11.8394 13.0324 11.9003C12.8719 12.0055 12.7667 12.1272 12.7113 12.2656C12.8774 12.5203 12.9992 12.7251 13.0601 12.869C13.1708 13.107 13.2261 13.3285 13.2261 13.5277C13.2261 13.6717 13.1984 13.8045 13.1431 13.9374C13.1265 13.8986 12.9493 13.644 12.6117 13.179C12.4788 13.0019 12.4013 12.8303 12.3736 12.6753C12.3736 12.2878 12.4456 11.9501 12.5951 11.6567C12.7611 11.3246 13.0102 11.081 13.3313 10.9316C13.4808 10.8651 13.6358 10.8319 13.7963 10.8319C14.1174 10.8319 14.3941 10.926 14.6266 11.1198C14.7207 11.2803 14.7872 11.4519 14.837 11.6401C14.8813 11.8283 14.9089 12.0221 14.9089 12.2213C14.9089 12.5092 14.8757 12.7915 14.8093 13.0628C14.7429 13.334 14.6432 13.6274 14.5104 13.9429C14.3222 14.264 14.1118 14.5463 13.8793 14.7898C13.597 15.0888 13.3147 15.288 13.0324 15.3932C12.5895 15.4597 12.1744 15.4929 11.7758 15.4929C11.5378 15.4929 11.3164 15.4763 11.1226 15.443C11.9696 15.1995 12.6947 14.8673 13.287 14.4577C14.0399 13.9318 14.5214 13.3008 14.7429 12.5701H14.7373ZM7.34736 9.94069C7.34736 10.0569 7.31968 10.1732 7.26432 10.2894C7.24772 10.3282 7.18683 10.4334 7.08718 10.5994L5.86936 10.8098C5.86936 10.6437 5.89704 10.4943 5.95793 10.3503C6.01882 10.2064 6.11293 10.1012 6.24578 10.0293C6.35095 10.0293 6.45613 10.0182 6.57238 9.99605C6.88237 9.93516 7.06504 9.90748 7.1204 9.90748C7.20897 9.90748 7.28647 9.91855 7.34736 9.94069ZM11.9529 9.68606C11.6097 9.68606 11.2167 9.96283 10.7794 10.5108C10.4362 10.9426 10.2369 11.1862 10.176 11.2471C10.1262 10.6437 10.0819 10.0846 10.0432 9.57534C10.0044 9.06607 9.94907 8.66751 9.88265 8.36859C9.80515 8.41841 9.74426 8.50144 9.70551 8.61215C9.68337 8.67858 9.65015 8.77823 9.60587 8.91662C9.60587 9.21554 9.64462 9.68052 9.72211 10.306C9.79961 10.9316 9.83836 11.4021 9.83836 11.7121C9.29588 12.3431 8.75893 12.8524 8.23858 13.2399C7.60753 13.7104 6.97094 14.0204 6.33435 14.1809C5.96346 14.2806 5.58705 14.3304 5.20509 14.3304C4.65154 14.3304 4.15334 14.2308 3.71049 14.0259C3.21782 13.8045 2.8248 13.4724 2.52588 13.0295C2.41517 12.7583 2.36535 12.5092 2.36535 12.2767C2.36535 12.0055 2.44285 11.7674 2.59231 11.5681C2.77498 11.3135 3.19015 11.0146 3.82674 10.6769C4.2253 10.4666 4.51868 10.3005 4.70689 10.1787C4.8951 10.0569 5.06117 9.92409 5.21063 9.78017C5.36009 9.63071 5.47634 9.47016 5.55937 9.29856C5.29366 9.61962 4.90617 9.90748 4.40244 10.1566C4.12012 10.3005 3.68835 10.5053 3.11265 10.7766C2.76944 11.0533 2.50374 11.3412 2.32106 11.6401C2.11071 11.9889 2 12.3487 2 12.7196C2 12.8081 2 12.8967 2.01661 12.9908C2.02768 13.0849 2.04428 13.1624 2.06643 13.2344C2.17714 13.6661 2.43177 14.0481 2.83587 14.3857C3.20122 14.6902 3.60531 14.9061 4.05369 15.0279C4.43565 15.133 4.81207 15.1829 5.18849 15.1829C5.86936 15.1829 6.55577 15.0057 7.24772 14.6515C7.82895 14.3525 8.41572 13.9263 9.01356 13.3672C9.19624 13.1679 9.38444 12.9631 9.57819 12.7638C9.69997 12.631 9.81068 12.5535 9.91032 12.5203C9.938 12.7362 9.97675 13.0683 10.0321 13.5056C10.1041 13.8709 10.2314 14.1643 10.4141 14.3857C10.4805 14.43 10.5469 14.4632 10.6133 14.4909C10.6798 14.5186 10.7517 14.5297 10.8237 14.5297C10.8735 14.5297 10.9289 14.5186 10.9842 14.5075C11.2333 14.2861 11.4271 14.0591 11.5544 13.8322C11.7094 13.5665 11.7813 13.2897 11.7813 13.0074C11.7813 12.9299 11.7813 12.8745 11.7758 12.8358C11.643 13.0185 11.5156 13.2011 11.3939 13.3838C11.2389 13.5997 11.0617 13.7104 10.8569 13.7104C10.5857 13.572 10.403 13.334 10.3089 12.9908C10.2978 12.941 10.2591 12.631 10.1871 12.0497C10.3698 11.7065 10.5801 11.4021 10.8182 11.1419C11.0894 10.8375 11.3772 10.6105 11.6817 10.4555C11.809 10.3946 11.8921 10.2839 11.9363 10.1234C11.9585 10.0348 11.9696 9.89087 11.9696 9.68052L11.9529 9.68606ZM10.4251 15.1663C10.3919 15.3268 10.3642 15.4486 10.3421 15.5316C10.2978 15.6811 10.2314 15.7918 10.1484 15.8693L9.0966 15.9578C9.1132 15.8139 9.13534 15.6811 9.16856 15.5704C9.20177 15.4597 9.25713 15.3434 9.32909 15.2327C9.41212 15.2327 9.55605 15.2161 9.75533 15.1884C9.96014 15.1607 10.0985 15.1441 10.165 15.1441C10.2535 15.1441 10.3366 15.1497 10.4196 15.1663H10.4251Z" fill="white"/>
</svg>
