<svg width="24" height="24" viewBox="0 0 24 24" fill="none" xmlns="http://www.w3.org/2000/svg">
<path fill-rule="evenodd" clip-rule="evenodd" d="M18.8336 7.55749C18.8487 7.63803 18.8588 7.6934 18.8588 7.72864C18.8588 7.82429 18.8085 8.00552 18.7027 8.27232C18.6474 8.41831 18.6172 8.52904 18.6172 8.60959C18.3856 8.64986 18.149 8.7002 17.9174 8.76564C17.6104 8.86129 17.3838 8.93176 17.2278 8.97204C17.2278 8.81095 17.2681 8.63979 17.3436 8.45354C17.4191 8.26728 17.4946 8.09109 17.5651 7.91994C17.6959 7.8696 17.9023 7.81422 18.1943 7.74374C18.4863 7.67327 18.6977 7.61286 18.8336 7.55749ZM15.6924 8.30756C15.6421 8.47872 15.6119 8.59953 15.5968 8.68007C15.5263 8.94687 15.4357 9.15327 15.33 9.29422C15.3803 9.10796 15.4105 8.96197 15.4206 8.85122C15.4307 8.74048 15.4407 8.60457 15.4407 8.43341C15.4407 8.20688 15.4206 8.01558 15.3753 7.85953C15.33 7.70348 15.2394 7.55749 15.1034 7.43164L15.335 7.11953C15.4558 7.25042 15.5464 7.41654 15.6068 7.62797C15.6673 7.8394 15.6975 8.06089 15.6975 8.30252L15.6924 8.30756ZM10.2205 7.63299L10.0896 8.05586C10.004 8.00552 9.93859 7.97028 9.89831 7.94511C9.8077 7.89477 9.74226 7.87463 9.69695 7.87463C9.67178 7.92497 9.58117 8.227 9.42009 8.78074C9.35968 8.99217 9.28417 9.16332 9.20362 9.29924L8.64989 8.22702C8.61465 8.27736 8.56431 8.30252 8.4888 8.30252C8.41329 8.30252 8.35288 8.29245 8.30254 8.26728C8.26227 8.22701 8.24213 8.17667 8.24213 8.11123C8.24213 8.05586 8.26227 7.98537 8.30758 7.8998C8.35288 7.81422 8.37302 7.74878 8.37302 7.69844C8.42839 7.64307 8.4737 7.6028 8.5039 7.57763C8.56934 7.52729 8.62472 7.52729 8.67506 7.56757L9.25396 8.71531C9.28417 8.64987 9.33954 8.47872 9.41002 8.19681C9.52077 7.72865 9.67178 7.49708 9.85804 7.49708C9.96879 7.49708 10.0896 7.54743 10.2205 7.64307V7.63299ZM21.9295 11.1014C21.9799 10.8195 22 10.5426 22 10.2758C22 9.99393 21.9748 9.707 21.9295 9.42007C21.8792 9.13313 21.8188 8.86633 21.7382 8.61463C21.6174 8.23204 21.4614 7.87462 21.2751 7.53735C21.0838 7.20007 20.8573 6.84771 20.5905 6.48022C20.4948 6.51043 20.4344 6.596 20.4143 6.72688C20.3942 6.85777 20.374 6.98866 20.3589 7.10947C20.3589 7.11954 20.3489 7.4115 20.3338 7.99544C20.3187 8.57938 20.3086 9.00224 20.3086 9.25898C20.3086 9.62142 20.3237 9.96373 20.3489 10.2809C20.3791 10.598 20.4193 10.885 20.4747 11.1467C20.5704 10.8346 20.6358 10.4973 20.661 10.145C20.6912 9.79258 20.7012 9.37979 20.7012 8.91163V8.15149C20.9932 8.55421 21.2147 8.967 21.3758 9.37979C21.5369 9.79761 21.6174 10.2356 21.6174 10.6937C21.5117 11.0561 21.2751 11.3682 20.9026 11.635C20.6056 11.8515 20.2633 12.0176 19.8757 12.1284C19.8857 12.0327 19.9008 11.8968 19.926 11.7156C19.9512 11.5394 19.9612 11.3783 19.9612 11.2323C19.9612 11.0611 19.9461 10.9152 19.921 10.7893C19.8908 10.6635 19.8455 10.5426 19.78 10.4218C19.6844 10.2708 19.6189 10.1752 19.5887 10.145C19.5082 10.0543 19.4176 10.0141 19.3119 10.0141C19.2464 10.0141 19.186 10.0292 19.1306 10.0644C18.7783 10.2809 18.5115 10.588 18.3353 10.9806C18.1339 11.4236 18.0332 12.078 18.0332 12.9489L17.1271 13.8449C17.112 13.8953 17.0164 14.1117 16.8502 14.4994C16.7294 14.7712 16.669 14.9977 16.669 15.1739C16.669 15.4004 16.7445 15.5917 16.9006 15.7528C16.6992 15.924 16.5029 16.0549 16.3166 16.1455C16.1253 16.2361 15.929 16.2864 15.7176 16.2864C15.5867 16.2864 15.4709 16.2713 15.3652 16.2361C15.0833 16.0901 14.8719 15.9038 14.7259 15.6723C14.5799 15.4407 14.4742 15.1689 14.4138 14.8467C14.3332 14.2527 14.2577 13.6486 14.1822 13.0445C14.1923 13.0294 14.3735 12.7828 14.7259 12.3096C14.8316 12.1736 14.9524 12.0226 15.0883 11.8615C15.2595 11.6602 15.4407 11.489 15.6421 11.3431C15.8434 11.1971 16.0549 11.1014 16.2814 11.0511C16.3921 11.0813 16.4677 11.1014 16.4979 11.1014C16.5935 11.1014 16.669 11.0712 16.7194 11.0007C16.7697 10.9353 16.81 10.8497 16.8402 10.749C16.8704 10.6483 16.8955 10.5024 16.9257 10.3161C16.956 10.1299 16.9862 10.004 17.0264 9.93857H16.7747C16.2613 9.93857 15.6874 10.296 15.0581 11.0158C14.5245 11.6199 14.2326 11.9522 14.1772 12.0075C14.152 11.8313 14.0816 10.9001 13.9607 9.21871C13.9104 8.58946 13.85 8.04076 13.7795 7.56253C13.6688 7.65817 13.5681 7.81423 13.4875 8.03572C13.4473 8.15654 13.3818 8.33776 13.2963 8.58946C13.4422 9.38483 13.5479 10.0845 13.6184 10.6886C13.6889 11.2927 13.7191 11.9119 13.7191 12.5462C13.1251 13.261 12.5009 13.8802 11.8465 14.4037C11.1367 14.9675 10.4168 15.4105 9.68185 15.7327C8.74553 16.1455 7.81425 16.3468 6.87793 16.3468C6.15303 16.3468 5.41807 16.221 4.67808 15.9743C4.12434 15.7729 3.64108 15.4961 3.23836 15.1387C2.76516 14.7259 2.47823 14.2728 2.38258 13.7745C2.34231 13.5832 2.32217 13.4573 2.32217 13.407V13.2308C2.32217 12.7878 2.44299 12.4002 2.68462 12.073C2.8155 11.8867 2.99673 11.7005 3.23836 11.5192C3.42462 11.3732 3.65115 11.2273 3.91291 11.0863C4.17971 10.9403 4.44148 10.7994 4.69821 10.6635C5.01032 10.4923 5.25698 10.3513 5.43317 10.2305C5.68487 10.0594 5.90133 9.87815 6.08759 9.68183C6.27385 9.4855 6.41983 9.26401 6.52051 9.02238C6.29398 9.32945 5.99698 9.59626 5.62446 9.83286C5.42311 9.96374 5.07073 10.15 4.57236 10.4017C4.1042 10.6282 3.75182 10.8145 3.51019 10.9705C3.13265 11.2122 2.82557 11.489 2.59401 11.8062C2.38258 12.0327 2.23156 12.2844 2.14095 12.5613C2.05034 12.8381 2 13.1452 2 13.4724C2 13.7644 2.04027 14.0715 2.12585 14.4037C2.21143 14.7359 2.31211 15.038 2.43292 15.3098C2.63932 15.7931 2.99169 16.2159 3.47999 16.5784C3.89781 16.8855 4.40624 17.117 5.00025 17.2781C5.59426 17.4392 6.18827 17.5197 6.78228 17.5197C7.82935 17.5197 8.83614 17.2832 9.8077 16.81C10.5074 16.4676 11.1971 16.0045 11.8817 15.4256C12.4858 14.9122 13.0899 14.3081 13.704 13.6184C13.7543 14.1419 13.8047 14.6906 13.8651 15.2595C13.9255 15.8334 14.0513 16.2965 14.2376 16.6489C14.3987 16.9559 14.5698 17.1724 14.7511 17.3033C14.9273 17.4342 15.1236 17.4946 15.335 17.4946C15.481 17.4946 15.632 17.4643 15.7881 17.409C15.9492 17.3536 16.1203 17.268 16.3015 17.1573C16.5683 16.971 16.8402 16.7848 17.117 16.6035C17.6859 16.231 18.1591 16.0498 18.5366 16.0498C18.6474 15.9139 18.738 15.7377 18.8034 15.5313C18.8336 15.4357 18.884 15.2394 18.9494 14.9524C18.6574 14.9222 18.3554 14.887 18.0383 14.8517C17.7211 14.8165 17.4694 14.741 17.2832 14.6302C17.3335 14.3886 17.5147 14.1671 17.8369 13.9657C18.0131 13.855 18.29 13.6889 18.6574 13.4724C18.7682 13.5127 18.9091 13.5328 19.0803 13.5328C19.2313 13.5328 19.3874 13.5127 19.5384 13.4775C19.6894 13.4422 19.8555 13.3969 20.0317 13.3516C20.5452 13.11 20.9731 12.818 21.3103 12.4656C21.703 12.0478 21.9044 11.6048 21.9044 11.1316L21.9295 11.1014ZM9.29424 10.7641L8.70023 11.6099C8.60458 11.5394 8.48377 11.479 8.33778 11.4286C7.92499 11.2977 7.7035 11.2273 7.67329 11.2122C7.78404 10.9856 7.86962 10.8195 7.92499 10.7037C8.02064 10.5275 8.13642 10.3665 8.27737 10.2205C8.29247 10.2305 8.49887 10.2909 8.89152 10.4118C9.14322 10.4822 9.2741 10.603 9.2892 10.7641H9.29424ZM19.5384 11.7055C19.5686 11.7609 19.5887 11.8162 19.5887 11.8615C19.5887 11.9421 19.5384 12.0126 19.4427 12.078C19.3924 12.1082 19.3169 12.1586 19.2112 12.224C19.186 12.2341 19.1457 12.2341 19.0904 12.2341C18.9846 12.2341 18.889 12.2139 18.8085 12.1787C18.7229 12.1434 18.6272 12.0931 18.5266 12.0277C18.5014 11.8666 18.5417 11.7105 18.6423 11.5545C18.743 11.4034 18.8638 11.2826 19.0098 11.2021C19.1457 11.2021 19.2615 11.2524 19.3471 11.3481C19.4377 11.4437 19.4981 11.5595 19.5384 11.7005V11.7055Z" fill="white"/>
</svg>
