<svg width="24" height="24" viewBox="0 0 24 24" fill="none" xmlns="http://www.w3.org/2000/svg">
<path fill-rule="evenodd" clip-rule="evenodd" d="M21.9875 10.2107C21.9875 10.7968 21.9377 11.3578 21.8441 11.894C21.7506 12.4302 21.5948 12.9165 21.389 13.3529C21.1272 14.0075 20.6845 14.4875 20.0736 14.7868C19.6372 14.9987 19.0012 15.1608 18.1658 15.2606C16.9875 15.404 16.3329 15.4913 16.1958 15.5162C17.0686 15.298 17.7544 15.086 18.2593 14.8927C18.6833 14.7369 19.0823 14.5436 19.4688 14.3254C20.0424 13.995 20.4975 13.6397 20.8404 13.2469C21.2519 12.7731 21.5199 12.2431 21.6446 11.6384C21.6883 11.4077 21.707 11.1833 21.707 10.9651C21.707 10.5536 21.6384 10.1484 21.5012 9.7556C21.3641 9.36283 21.1833 8.98255 20.9464 8.60849C20.9152 8.70824 20.8965 8.8454 20.884 9.0075C20.8716 9.17583 20.8653 9.32543 20.8653 9.45012C20.8653 9.5561 20.8653 9.72446 20.8778 9.94266C20.884 10.1609 20.8903 10.3292 20.8903 10.4352C20.8903 10.6471 20.884 10.8217 20.8653 10.9588C20.8466 11.096 20.8092 11.2394 20.7531 11.389C20.6534 10.8965 20.6035 10.3479 20.6035 9.74315C20.6035 8.87034 20.7095 8.05985 20.9152 7.31172C21.2643 7.69202 21.5324 8.12842 21.7194 8.62717C21.9065 9.12592 22 9.65587 22 10.2107H21.9875ZM17.4613 9.28178C17.3678 9.18826 17.2743 9.11346 17.1746 9.06359C17.081 9.00748 16.9688 8.96385 16.8379 8.92021C16.7506 9.05736 16.6696 9.20073 16.5948 9.36283C16.5199 9.52492 16.4638 9.68078 16.4202 9.83041C16.4514 9.84911 16.5262 9.88653 16.6571 9.92394C16.788 9.96758 16.8691 10.0237 16.9127 10.0923C17.0436 10.0923 17.1434 10.0299 17.2244 9.89901C17.3055 9.69328 17.3803 9.48754 17.4613 9.27557V9.28178ZM19.3254 11.0835C19.2319 11.4701 19.0511 11.8192 18.7768 12.1371C18.5025 12.4551 18.1845 12.6484 17.8292 12.7107C17.7855 12.6234 17.7668 12.5424 17.7668 12.4551C17.8042 12.293 17.8416 12.1247 17.8853 11.9501C17.904 11.8504 17.9102 11.7381 17.8978 11.6197C17.8354 11.5324 17.7544 11.4763 17.6671 11.4514C17.5798 11.4202 17.4613 11.4077 17.318 11.4077C17.2369 11.4077 17.1247 11.4077 16.9626 11.4202C16.7506 11.4576 16.601 11.5885 16.5137 11.8192C16.4701 11.9376 16.4015 12.1309 16.308 12.3865C16.2706 12.5237 16.3516 12.6172 16.5511 12.6733C16.7506 12.7294 16.8753 12.7793 16.9127 12.8416C16.9938 12.8853 17.0312 12.9352 17.0312 12.9913C17.0312 13.0349 16.9938 13.0973 16.9252 13.1721C16.8878 13.2095 16.8379 13.2593 16.7756 13.3341C16.5387 13.5648 16.3267 13.7207 16.1334 13.8142C15.9838 13.8828 15.8404 13.9202 15.7032 13.9202H15.6035C15.6035 13.9202 15.5162 13.9015 15.4165 13.8641C15.1546 13.6147 14.9738 13.3279 14.8865 12.9975C14.7993 12.6671 14.7556 12.2743 14.7556 11.8192C14.7556 11.2269 14.7431 10.7344 14.7244 10.3416C14.7057 9.94887 14.6808 9.66209 14.6496 9.48752C14.5623 9.5374 14.4938 9.65586 14.4439 9.84289C14.394 10.0299 14.3628 10.1359 14.3504 10.1671C14.3441 10.3853 14.3379 10.6035 14.3379 10.8217V11.4638C14.3379 12.0748 14.3691 12.6359 14.4377 13.1347C14.5062 13.6334 14.6309 14.0885 14.818 14.5062C14.9364 14.6621 15.086 14.7805 15.2544 14.8678C15.4227 14.9489 15.6035 14.9801 15.7781 14.9614C16.1022 14.9115 16.4077 14.7244 16.707 14.394C16.919 14.1509 17.1247 13.8391 17.318 13.4651C17.3741 13.4464 17.4302 13.4339 17.48 13.4339C17.5362 13.4339 17.6359 13.4464 17.7668 13.4713C17.904 13.4963 17.9975 13.5087 18.0536 13.5087C18.1471 13.5087 18.2219 13.4963 18.2905 13.4651C18.4277 13.4339 18.5586 13.3653 18.6895 13.2469C18.8204 13.1284 18.9576 12.9414 19.101 12.6858C19.2194 12.2743 19.313 11.8629 19.3753 11.4576C19.4377 11.0524 19.4688 10.6409 19.4688 10.2357C19.4688 9.64962 19.4002 9.09477 19.2693 8.57108C19.1384 8.04739 18.9327 7.55484 18.6521 7.09973C18.515 7.60472 18.4339 8.12841 18.3965 8.65833C18.3591 9.18826 18.3404 9.84914 18.3404 10.6347V11.4514H18.4027C18.4027 11.1459 18.4214 10.7406 18.4589 10.2294C18.5274 9.21321 18.5648 8.5586 18.5648 8.24688C18.8017 8.7394 18.9825 9.21945 19.1135 9.68703C19.2444 10.1546 19.313 10.6284 19.313 11.1147L19.3254 11.0835ZM10.6097 8.47131C10.591 8.50872 10.5224 8.66458 10.4165 8.94513C10.3354 9.1384 10.2544 9.28179 10.1608 9.37531C10.1421 9.26932 10.111 9.18827 10.0736 9.1384C10.0175 9.05112 9.94264 9.00749 9.8616 9.00126C9.56234 9.06984 9.2818 9.25687 9.02618 9.54989C8.82045 9.7868 8.64588 10.0736 8.50249 10.4164C8.56484 10.1608 8.63965 9.93642 8.71446 9.74315C8.79551 9.54989 8.90773 9.33791 9.05112 9.11347C9.19451 8.8828 9.34414 8.702 9.48753 8.56484C9.65586 8.39651 9.86783 8.25313 10.111 8.14715C10.1546 8.12844 10.1983 8.11594 10.2419 8.11594C10.3105 8.11594 10.3791 8.13467 10.4352 8.17831C10.5411 8.25936 10.6035 8.3591 10.616 8.47755L10.6097 8.47131ZM15.4726 7.36784C15.485 7.41149 15.4913 7.48004 15.4913 7.57979C15.4913 7.74189 15.4601 7.904 15.3915 8.0661C15.3229 8.22819 15.2294 8.32168 15.111 8.34661C14.7057 8.34661 14.2569 8.52742 13.7706 8.89525C13.4464 9.16956 13.2157 9.35663 13.0661 9.47508C12.8105 9.71822 12.5549 9.98007 12.3055 10.2544C12.1559 10.4289 11.9065 10.7157 11.5698 11.1334C11.3267 11.4264 11.0835 11.7194 10.8342 12.0249C10.5848 12.3242 10.3292 12.6047 10.0736 12.8728C9.78678 13.1721 9.51247 13.4277 9.24439 13.6459C8.97631 13.8578 8.68329 14.0573 8.35287 14.2381C8.02868 14.4189 7.69825 14.5623 7.35536 14.6621C7.0187 14.7618 6.66334 14.8117 6.28928 14.8117H5.89027C5.6596 14.8117 5.46633 14.8367 5.298 14.8865C5.12968 14.9364 4.97382 15.0424 4.83042 15.2107C4.6808 15.2731 4.5187 15.3042 4.35037 15.3042C4.13217 15.3042 3.93267 15.2419 3.76434 15.111C3.66459 15.0299 3.58354 14.8803 3.51496 14.6621C3.45262 14.4439 3.36534 14.3005 3.25935 14.2319C2.99127 14.2755 2.72943 14.4252 2.48005 14.6933C2.26185 14.924 2.09975 15.1796 2 15.4663C2.08105 14.9614 2.21197 14.5374 2.40524 14.1945C2.65461 13.7519 2.98504 13.4464 3.40274 13.2843C3.61471 13.2843 3.78304 13.4588 3.89526 13.8142C4.00748 14.1696 4.19451 14.3442 4.44389 14.3442C4.70574 14.3442 4.94264 14.2756 5.14838 14.1384C5.35411 14.0013 5.52244 13.8142 5.65337 13.5835C5.69701 13.4277 5.72818 13.3217 5.74688 13.2593C5.76559 13.2032 5.80923 13.1222 5.8778 13.0224C5.8778 13.1783 5.8591 13.3529 5.81546 13.5337C5.73441 13.8329 5.6596 14.1321 5.59102 14.4252C5.99002 14.3815 6.35786 14.3067 6.69451 14.1883C7.03117 14.0761 7.39277 13.914 7.77307 13.7082C8.38404 13.3716 9.01372 12.9102 9.65586 12.3242C9.88653 12.1184 10.0985 11.9127 10.298 11.7007C10.5411 11.4514 10.884 11.0711 11.3267 10.5536C11.682 10.1484 11.9501 9.84288 12.1309 9.64338C12.4426 9.29426 12.717 9.00746 12.9539 8.77679C13.5461 8.20322 14.0262 7.82919 14.394 7.64216C14.7618 7.45513 15.1234 7.3616 15.4788 7.3616L15.4726 7.36784ZM7.49875 8.8454C7.17456 9.05113 6.85661 9.25686 6.53242 9.45636C6.33292 9.56858 6.18329 9.67457 6.08354 9.77432C5.95262 9.90524 5.86534 10.0486 5.80299 10.2107C5.90274 10.1297 6.0212 10.0549 6.16459 9.96758C6.30174 9.88654 6.51372 9.76183 6.78803 9.59974C6.95636 9.49375 7.10598 9.3753 7.23067 9.25061C7.35536 9.12592 7.44264 8.98878 7.49252 8.83916L7.49875 8.8454ZM13.197 13.1284C13.1284 13.2407 13.0598 13.3466 12.9975 13.4402C12.9352 13.5337 12.8603 13.5773 12.7668 13.5773C12.7731 13.515 12.7855 13.4464 12.798 13.3716C12.798 13.3279 12.7855 13.2968 12.7668 13.2781C12.7232 13.2905 12.6983 13.3279 12.6795 13.3778C12.6671 13.4339 12.6484 13.4962 12.6234 13.5773C12.5798 13.6895 12.5112 13.7456 12.4177 13.7456C12.4115 13.7456 12.3055 13.7269 12.106 13.6833C12.0374 13.6708 11.9751 13.6708 11.9377 13.6833C11.7693 13.8205 11.5262 14.0324 11.2207 14.3254C11.1334 14.4065 11.0025 14.5312 10.8155 14.6995C10.5973 14.9052 10.404 15.0611 10.2481 15.1733C10.0424 15.3167 9.83042 15.4289 9.61845 15.5162C9.83042 15.5162 10.0424 15.4663 10.2419 15.3603C10.4414 15.2543 10.6471 15.1172 10.8529 14.9489C11.0337 14.7868 11.2082 14.6185 11.389 14.4564C11.5948 14.2693 11.7818 14.1197 11.9439 13.995C12.0499 14.0574 12.1559 14.0885 12.2556 14.0885C12.4115 14.0885 12.5673 14.0262 12.7294 13.9077C12.8853 13.8641 13.0037 13.7581 13.0723 13.5835C13.116 13.4339 13.1596 13.2781 13.2032 13.1222L13.197 13.1284ZM4.00125 10.0985C3.7581 10.0985 3.5399 10.111 3.3404 10.1421C3.1409 10.1733 2.88529 10.217 2.56733 10.2793C2.43641 10.5412 2.3616 10.7282 2.33042 10.8279C2.29925 10.9339 2.28678 11.0461 2.28678 11.1646C2.53616 11.1646 2.78554 11.1459 3.04115 11.1147C3.29676 11.0835 3.51496 11.0337 3.70823 10.9713C3.79551 10.7843 3.85786 10.6284 3.9015 10.4975C3.94514 10.3666 3.97631 10.2294 3.99501 10.0985H4.00125ZM6.4202 15.8591C6.38903 15.9713 6.35162 16.0835 6.30174 16.1895C6.20199 16.389 6.10848 16.5885 6.01496 16.788C5.98379 16.7818 5.94638 16.7756 5.88404 16.7756C5.79676 16.7756 5.6596 16.7943 5.46633 16.8379C5.27307 16.8816 5.12968 16.9002 5.02992 16.9002C4.93017 16.9002 4.83042 16.8816 4.73067 16.8379C4.78055 16.6821 4.83666 16.5324 4.899 16.4015C4.96135 16.2643 5.04239 16.1209 5.14214 15.9651C5.54115 15.8965 5.97132 15.8591 6.42643 15.8591H6.4202Z" fill="white"/>
</svg>
