<svg width="24" height="24" viewBox="0 0 24 24" fill="none" xmlns="http://www.w3.org/2000/svg">
<path fill-rule="evenodd" clip-rule="evenodd" d="M15.0848 6.98796C15.0066 7.16234 14.8924 7.31267 14.748 7.43294C14.5977 7.55922 14.4113 7.67948 14.1948 7.79373C13.9723 7.90798 13.7498 8.02224 13.5334 8.13047C13.3109 8.23871 13.1305 8.35296 12.9862 8.46721C13.0222 8.25675 13.1185 8.08237 13.2628 7.93805C13.4071 7.79975 13.5995 7.67347 13.84 7.57124C14.255 7.37882 14.6699 7.18038 15.0968 6.98195L15.0848 6.98796ZM21.8557 10.5237C21.7294 9.80215 21.5069 9.12867 21.1762 8.50329C20.8515 7.87792 20.4185 7.34274 19.8773 6.90378C19.7931 7.30666 19.733 7.6855 19.6969 8.02825C19.6609 8.37702 19.6488 8.79193 19.6488 9.28501C19.6488 9.88032 19.6849 10.5418 19.7511 11.2634C19.8172 11.985 19.8833 12.6825 19.9555 13.356C20.0216 13.1034 20.0637 12.911 20.0878 12.7667C20.1058 12.6224 20.1179 12.3698 20.1179 12.015C20.1179 11.8587 20.0998 11.5159 20.0698 10.9747C20.0337 10.4335 20.0216 10.0006 20.0216 9.67587C20.0216 9.30907 20.0397 8.97233 20.0818 8.66565C20.5328 9.20684 20.8996 9.79614 21.1882 10.4456C21.4768 11.095 21.6152 11.7444 21.6152 12.3878C21.6152 12.7065 21.5791 13.0132 21.5129 13.3019C21.4468 13.5965 21.3325 13.8911 21.1822 14.1918C20.7853 14.9435 20.3103 15.5869 19.745 16.116C19.1798 16.6512 18.5364 17.0962 17.8028 17.451C17.1413 17.7697 16.3957 18.0403 15.5658 18.2748C14.9705 18.4371 14.2069 18.6236 13.2688 18.822C13.9603 18.822 14.724 18.7558 15.5538 18.6296C16.3836 18.4973 17.1894 18.371 17.9591 18.2447C18.807 18.2447 19.5767 17.8659 20.2682 17.1022C20.8274 16.4889 21.2664 15.7071 21.5971 14.7631C21.8677 13.8491 22 12.929 22 12.009C22 11.5099 21.9579 11.0108 21.8677 10.5237H21.8557ZM11.7234 6.78351L11.2784 8.09439C11.104 8.1425 10.8274 8.19061 10.4486 8.2327C10.0698 8.27479 9.81118 8.31087 9.67889 8.34094C9.66085 8.24473 9.64883 8.17257 9.64883 8.12446C9.64883 7.95008 9.69693 7.75164 9.79314 7.53516C9.85929 7.37281 9.96151 7.1864 10.0938 6.98796C10.4666 6.96992 10.7793 6.95188 11.0319 6.93985C11.2844 6.92783 11.5129 6.87371 11.7234 6.78952V6.78351ZM17.9892 8.74382C17.9892 8.02224 17.8328 7.34274 17.5201 6.69933C17.2075 6.06192 16.7504 5.5508 16.1431 5.17798C16.0349 5.82139 15.9868 6.55501 15.9868 7.37281C15.9868 7.95008 16.0108 8.56944 16.0649 9.22488C16.1191 9.88634 16.1852 10.5418 16.2574 11.1972C16.3175 10.7342 16.3415 10.2471 16.3415 9.72398V9.5075C16.3295 9.17076 16.3235 8.80997 16.3115 8.41911C16.2995 8.02825 16.2995 7.51111 16.2995 6.8677C16.7505 7.25254 17.0932 7.67347 17.3157 8.13649C17.5442 8.59951 17.6524 9.11063 17.6524 9.68189C17.5442 10.0487 17.3879 10.3854 17.1834 10.6921C16.979 10.9988 16.7264 11.2814 16.4317 11.546C16.1371 11.8046 15.8184 12.0331 15.4817 12.2255C15.1389 12.4179 14.8022 12.5682 14.4654 12.6705C14.5496 12.4961 14.6158 12.3097 14.6518 12.1052C14.6879 11.9008 14.712 11.7083 14.712 11.5159V11.3415C14.712 11.2814 14.712 11.2273 14.6999 11.1672C14.3512 11.6302 13.9363 11.985 13.4492 12.2435C12.9621 12.4961 12.4269 12.6284 11.8376 12.6284C11.8376 12.5021 11.8557 12.2676 11.8978 11.9188C11.9339 11.57 11.9579 11.3055 11.9579 11.113C11.9579 10.9387 11.9459 10.7643 11.9158 10.5959C11.8857 10.4275 11.8376 10.2712 11.7715 10.1329C11.7054 10.0006 11.6152 9.89235 11.5129 9.82019C11.4047 9.74803 11.2844 9.71195 11.1521 9.71195C11.086 9.71195 11.0078 9.72398 10.9236 9.75405C10.0938 10.656 9.68491 11.7204 9.68491 12.9411L8.41612 13.5304C8.16356 13.7528 7.97114 14.0776 7.83885 14.5105C7.64642 15.1239 7.52616 15.4786 7.47805 15.5628C7.20746 16.0739 6.85869 16.5129 6.42574 16.8917C6.05292 17.2165 5.59591 17.5051 5.05472 17.7577C4.5917 17.9681 4.08058 18.1545 3.52736 18.3049C3.22069 18.389 2.70956 18.5093 2 18.6657C2.21046 18.6356 2.43295 18.6175 2.65544 18.6055C2.88394 18.5935 3.10042 18.5935 3.31088 18.5935H4.10463C4.48948 18.5935 4.80818 18.5875 5.06675 18.5694C5.3193 18.5574 5.57186 18.5213 5.81239 18.4732C6.47384 18.3169 7.00301 17.908 7.39988 17.2465C7.70054 16.7474 7.92303 16.104 8.07937 15.3103C8.30186 14.9916 8.68671 14.721 9.23391 14.5045C9.94348 14.2159 10.3764 14.0234 10.5207 13.9272C10.9838 14.0234 11.4107 14.0715 11.8076 14.0715C12.0301 14.0715 12.2526 14.0535 12.469 14.0114C12.6915 13.9753 12.89 13.9092 13.0583 13.825C13.2868 13.7288 13.5033 13.6266 13.7017 13.5243C13.9002 13.4161 14.0625 13.2958 14.2008 13.1635C14.5676 13.1034 14.9525 13.0373 15.3554 12.9591C15.7583 12.8809 16.083 12.7667 16.3235 12.6103C16.8527 12.3397 17.2495 11.9489 17.5201 11.4438C17.8449 10.8184 18.0132 9.9164 18.0132 8.7318L17.9892 8.74382ZM14.6999 16.0198C14.6037 16.2724 14.5075 16.5129 14.4113 16.7534C14.267 17.0421 14.0926 17.2104 13.8942 17.2586C13.834 17.1924 13.6777 17.1263 13.4131 17.0661C13.1485 17.006 13.0162 16.9158 13.0162 16.8015C13.0162 16.7414 13.0283 16.6933 13.0463 16.6572C13.1124 16.3806 13.2387 16.1581 13.4131 15.9958C13.5935 15.8334 13.798 15.7492 14.0265 15.7492C14.255 15.7492 14.4835 15.8394 14.706 16.0258L14.6999 16.0198ZM5.43355 8.50329C5.37342 8.822 5.32532 9.0505 5.28322 9.19482C5.24113 9.33913 5.16897 9.50149 5.07276 9.6879C4.66987 9.78411 4.3632 9.85026 4.16476 9.89235C3.76789 9.97654 3.46723 10.0246 3.25676 10.0246C3.23873 9.85026 3.26879 9.65182 3.35298 9.4173C3.43716 9.1888 3.51533 8.96631 3.59351 8.75585C4.0926 8.58147 4.60373 8.49728 5.12087 8.49728C5.26518 8.49728 5.37342 8.49728 5.43957 8.50931L5.43355 8.50329ZM5.50571 12.0691C5.51774 12.2014 5.52977 12.3277 5.54179 12.442C5.55382 12.5562 5.56584 12.7005 5.56584 12.8749C5.56584 13.4642 5.48166 13.9813 5.30728 14.4323C5.10283 14.9615 4.79014 15.3704 4.36921 15.659C4.21287 15.7192 4.1347 15.7432 4.12267 15.7432C3.93025 15.8034 3.7739 15.8274 3.64762 15.8274C3.4552 15.8274 3.29886 15.7673 3.18461 15.653C3.07035 15.4305 3.01022 15.184 3.01022 14.9194C3.01022 14.6969 3.05231 14.4323 3.14251 14.1257C3.37102 13.2898 3.49128 12.8388 3.50331 12.7847C3.65965 12.5442 3.80998 12.2976 3.96633 12.0511C4.17078 11.7745 4.39928 11.6001 4.65785 11.534C4.83824 11.4979 5.00661 11.534 5.15695 11.6362C5.30728 11.7444 5.42153 11.8887 5.51173 12.0691H5.50571ZM11.4348 11.8647C11.4348 11.991 11.3566 12.0992 11.1942 12.1894C11.0319 12.2796 10.9417 12.3457 10.9116 12.3818C10.7853 12.3939 10.6771 12.3698 10.5809 12.3097C10.4847 12.2495 10.3824 12.1714 10.2802 12.0631C10.3584 11.8046 10.4245 11.6181 10.4847 11.5099C10.5448 11.4017 10.617 11.3115 10.7011 11.2453C10.7372 11.2333 10.7853 11.2333 10.8455 11.2333C11.0078 11.2333 11.1401 11.3055 11.2363 11.4498C11.2483 11.4618 11.3145 11.6001 11.4408 11.8707L11.4348 11.8647ZM5.07276 13.4943C5.10283 13.6206 5.06073 13.7468 4.95851 13.8671C4.85027 13.9934 4.73001 14.0956 4.58569 14.1858C4.51954 14.1978 4.40529 14.2339 4.23692 14.294C4.07456 14.3542 3.94829 14.3902 3.8641 14.3902C3.75586 14.3902 3.65965 14.3602 3.56945 14.3061C3.47925 14.2459 3.43115 14.1738 3.43115 14.0776C3.52736 13.8851 3.62357 13.6927 3.71978 13.5003C3.85207 13.1936 4.0926 13.0373 4.44137 13.0373C4.58569 13.0373 4.71798 13.0733 4.83223 13.1515C4.94648 13.2297 5.03067 13.3439 5.07877 13.5003L5.07276 13.4943Z" fill="white"/>
</svg>
