<svg width="24" height="24" viewBox="0 0 24 24" fill="none" xmlns="http://www.w3.org/2000/svg">
<path fill-rule="evenodd" clip-rule="evenodd" d="M21.9508 11.7749C21.9859 12.0071 22 12.2814 22 12.5839C22 13.3718 21.8593 14.1316 21.5779 14.8562C21.388 15.3345 21.1769 15.7215 20.9518 16.031C20.6423 16.4531 20.2976 16.7415 19.9107 16.9104C19.3549 17.0933 18.6655 17.241 17.8354 17.3465C17.1108 17.4169 16.3932 17.4942 15.6757 17.5786C16.2385 17.4309 16.8013 17.2902 17.3641 17.1425C18.0183 16.9596 18.6022 16.7345 19.1298 16.4812C19.7559 16.1717 20.2624 15.827 20.6493 15.4401C21.1136 14.9758 21.4372 14.42 21.6131 13.7869C21.6483 13.6814 21.6694 13.5547 21.6834 13.407C21.6975 13.2593 21.7045 13.1186 21.7045 12.992C21.7045 12.5488 21.6201 12.0915 21.4513 11.6131C21.3317 11.2684 21.1277 10.8463 20.8463 10.3469C20.7408 11.381 20.6352 12.401 20.5297 13.4281C20.4945 13.203 20.4734 12.9849 20.4594 12.7668C20.4453 12.5558 20.4383 12.3166 20.4383 12.0493C20.4383 11.5357 20.4734 11.0152 20.5438 10.4946C20.6141 9.97402 20.7197 9.46751 20.8463 8.97507C21.1418 9.36199 21.388 9.79813 21.5779 10.2765C21.7678 10.7549 21.8874 11.2543 21.9437 11.782L21.9508 11.7749ZM16.7802 10.1218C16.6746 10.171 16.4425 10.2343 16.0767 10.3187C15.7109 10.3961 15.4435 10.4946 15.2747 10.5931C15.2536 10.6494 15.2044 10.7478 15.141 10.8815C15.0707 11.0644 15.0426 11.2403 15.0566 11.4021C15.2817 11.4021 15.5209 11.3739 15.7671 11.3177C16.0134 11.2614 16.2526 11.191 16.4777 11.0996L16.7802 10.1218ZM18.9398 10.0162C18.8765 9.63633 18.7781 9.2846 18.6374 8.96803C18.5037 8.64443 18.3278 8.36304 18.1168 8.10978C17.9339 8.8203 17.8072 9.52379 17.758 10.2273C17.7017 10.9308 17.6736 11.7609 17.6736 12.7106C17.8495 12.3236 17.969 11.6694 18.0253 10.7549C18.0605 10.164 18.0957 9.76297 18.1308 9.54489C18.3419 9.87553 18.4826 10.2273 18.5529 10.6071C18.6233 10.987 18.6585 11.4232 18.6585 11.9297C18.4474 12.5839 18.0816 13.196 17.547 13.7728C17.2726 14.0683 16.9912 14.3215 16.7028 14.5185C16.4144 14.7155 16.1048 14.8632 15.7812 14.9687C15.8586 14.7296 15.9501 14.4833 16.0345 14.2301C16.0837 14.0613 16.0978 13.9135 16.0837 13.7798C15.9852 13.9628 15.8797 14.1316 15.7671 14.2723C15.528 14.5959 15.2606 14.7788 14.9722 14.814C14.8034 14.8351 14.6556 14.814 14.5361 14.7366C14.4165 14.6592 14.3039 14.5467 14.2125 14.406C14.0366 13.9698 13.9029 13.5688 13.8185 13.1889C13.7341 12.809 13.6919 12.4081 13.6919 11.9719C13.6145 11.0222 13.5723 10.164 13.5723 9.39013C14.2054 9.27757 14.7752 9.10168 15.2606 8.86953C15.8164 8.60221 16.2877 8.25751 16.6746 7.82135C16.6746 7.95501 16.5973 8.16606 16.4425 8.44042C16.2877 8.72181 16.2244 8.93989 16.2525 9.1017C16.4988 8.70775 16.7591 8.18717 17.0264 7.53996C17.1741 7.18822 17.3852 6.6606 17.6665 5.97119H17.5962C17.3922 6.44956 17.1178 6.89275 16.7661 7.2867C16.4495 7.63141 16.0626 7.95502 15.6053 8.26455C15.2395 8.4967 14.9019 8.68664 14.5783 8.84141C14.1491 9.05246 13.5723 9.2846 12.8477 9.53785L13.3542 9.51675C13.2909 9.70669 13.2487 9.89663 13.2205 10.0725C13.1994 10.2484 13.1854 10.4594 13.1854 10.6986V11.2543C13.1854 11.4091 13.2065 11.6342 13.2487 11.9438C13.319 12.4925 13.3542 12.8653 13.3542 13.0553C13.3331 13.1608 13.2627 13.2593 13.1502 13.3578C13.0869 13.407 12.9884 13.4844 12.8477 13.5969C12.7844 13.6532 12.7211 13.6814 12.6648 13.6814C12.6015 13.6814 12.5311 13.6462 12.4678 13.5758C12.3975 13.5055 12.306 13.3929 12.1864 13.2382C12.0317 13.1749 11.898 13.1397 11.7854 13.1397C11.6518 13.1397 11.5392 13.1889 11.4618 13.2944C11.3704 13.4773 11.286 13.6743 11.1945 13.8783C11.1031 14.0824 11.0609 14.2653 11.0609 14.4271C11.0609 14.61 11.1312 14.7718 11.2649 14.9125C11.3633 14.9476 11.4759 14.9617 11.6025 14.9617C11.7362 14.9617 11.8558 14.9476 11.9613 14.9265C12.0598 14.9054 12.1512 14.8773 12.2357 14.8562C12.0035 15.4682 11.6236 15.9817 11.1031 16.3898C10.6669 16.7274 10.0971 17.0229 9.40063 17.2691C8.9504 17.4309 8.33134 17.5998 7.55048 17.7756C7.95146 17.7264 8.35948 17.6771 8.7675 17.6279C9.61168 17.5294 10.273 17.4098 10.7513 17.2621C11.2297 17.1144 11.6236 16.7978 11.9472 16.3265C11.9824 16.2772 12.2216 15.8129 12.6718 14.9406C12.7985 14.7084 12.904 14.5255 12.9884 14.3989C13.1009 14.2301 13.2276 14.0753 13.3612 13.9276C13.4597 14.0542 13.5441 14.2864 13.6215 14.61C13.6989 14.9336 13.7622 15.1587 13.8185 15.2712C13.9311 15.4752 14.0506 15.623 14.1702 15.7215C14.325 15.8481 14.4938 15.8973 14.6768 15.8692C14.6979 15.8762 14.7401 15.8833 14.7823 15.8833C14.9511 15.8833 15.1199 15.8199 15.2747 15.6933C15.3169 15.6581 15.4435 15.5386 15.6616 15.3205C16.0274 15.2501 16.3792 15.1165 16.7168 14.9265C17.0616 14.7366 17.3781 14.5044 17.6736 14.223C17.969 13.9417 18.2153 13.6251 18.4122 13.2804C18.6092 12.9357 18.7429 12.605 18.8062 12.2814C18.8695 11.9649 18.9187 11.6764 18.9469 11.4302C18.975 11.184 18.9891 10.9378 18.9891 10.6916C18.9891 10.4454 18.975 10.2202 18.9398 10.0303V10.0162ZM6.25607 10.2906C6.242 10.4172 6.21386 10.5087 6.18572 10.5579C6.15055 10.6072 6.10834 10.6142 6.05206 10.579C5.97467 10.4805 5.88322 10.4454 5.78473 10.4735C5.69328 10.6212 5.60886 10.8745 5.51038 11.2403C5.41189 11.6061 5.3134 11.8664 5.18677 12.0211C5.10939 11.9086 5.02497 11.7257 4.94759 11.4724C4.87021 11.2192 4.77875 11.0363 4.68027 10.9237C4.6662 10.9307 4.65213 10.9589 4.64509 11.0081C4.44108 11.0081 4.28632 10.9307 4.17376 10.7689C4.18079 10.6986 4.18783 10.6212 4.19486 10.5368C4.23004 10.3891 4.30742 10.2906 4.43405 10.2343C4.65916 10.3046 4.83503 10.4876 4.95463 10.776C5.05311 11.0222 5.14457 11.2684 5.24305 11.5146C5.25009 11.5006 5.32044 11.2192 5.46113 10.6845C5.55962 10.3117 5.69328 10.1288 5.86915 10.1288C5.97467 10.1288 6.1013 10.1851 6.242 10.2976L6.25607 10.2906ZM9.84383 15.3627C9.79458 15.7144 9.66092 15.9818 9.43581 16.1787C9.21069 16.3687 8.91523 16.4672 8.55645 16.4672H8.38762C8.29617 16.4883 8.23285 16.5023 8.18361 16.5023C8.1414 16.5023 8.11326 16.4883 8.08512 16.4672C8.17657 16.2139 8.23989 16.024 8.28913 15.8973C8.38762 15.6652 8.50721 15.5175 8.65494 15.4541C8.78157 15.4541 8.96447 15.4401 9.18959 15.4049C9.4147 15.3697 9.5765 15.3556 9.67499 15.3556C9.75237 15.3556 9.81569 15.3557 9.8579 15.3697L9.84383 15.3627ZM9.32325 12.2181C9.35842 12.3236 9.37249 12.4503 9.37249 12.605C9.37249 12.8442 9.32325 13.0623 9.22476 13.2593C9.0911 13.3367 8.98558 13.4 8.9082 13.4422C8.54239 13.6321 8.35948 13.7306 8.35244 13.7306C8.17657 13.8361 8.02884 13.9346 7.91629 14.0261C7.80373 14.1175 7.69117 14.2441 7.57861 14.3919C7.48716 14.7436 7.39571 15.0743 7.29019 15.3697C7.16356 15.7215 7.01583 16.0451 6.85403 16.3265C6.67112 16.636 6.45304 16.9103 6.20682 17.1355C5.96061 17.3606 5.65811 17.5364 5.30637 17.6701C4.86317 17.8389 4.32149 17.9445 3.68836 17.9937C3.35069 18.0148 2.7879 18.0289 2 18.0289C2.57686 17.9163 3.10447 17.7827 3.58283 17.6279C4.14562 17.438 4.65916 17.2128 5.11643 16.9385C5.637 16.6219 6.06613 16.2702 6.39676 15.8903C6.76961 15.4541 7.0299 14.9547 7.1917 14.3919C7.1917 13.8572 7.43088 13.4 7.90222 13.006C8.20471 12.7457 8.67605 12.4854 9.31622 12.2181H9.32325Z" fill="white"/>
</svg>
