<svg width="24" height="24" viewBox="0 0 24 24" fill="none" xmlns="http://www.w3.org/2000/svg">
<path fill-rule="evenodd" clip-rule="evenodd" d="M21.6145 13.7888C21.7147 13.4727 21.761 13.1334 21.761 12.7865C21.761 12.3393 21.6839 11.8998 21.5374 11.468C21.3832 11.0363 21.175 10.6199 20.8975 10.219C20.8049 11.3524 20.7201 12.4858 20.6353 13.6192C20.6045 13.3339 20.5813 13.0486 20.5659 12.7711C20.5505 12.4935 20.5428 12.1851 20.5428 11.8459C20.5428 11.3601 20.5659 10.8821 20.6122 10.404C20.6584 9.93373 20.7278 9.46342 20.8281 9.00852C21.229 9.39403 21.522 9.87977 21.7147 10.458C21.9075 11.0363 22 11.6608 22 12.3162C22 12.7479 21.9614 13.1797 21.8921 13.6115C21.8227 14.0432 21.7224 14.475 21.5914 14.899C21.4063 15.3154 21.1981 15.6701 20.9668 15.9553C20.6816 16.31 20.35 16.5721 19.98 16.7263C19.3015 16.896 18.6692 17.0193 18.0601 17.1041C17.4588 17.1889 16.8265 17.2275 16.1635 17.2275C17.0732 17.0193 17.7826 16.8266 18.2992 16.6492C19.1087 16.364 19.7641 16.017 20.2652 15.6161C20.882 15.1226 21.3292 14.5135 21.6068 13.7888H21.6145ZM19.0547 13.2799C18.8697 13.8042 18.5536 14.3054 18.0987 14.7911C17.6438 15.2768 17.1658 15.6238 16.6646 15.8397C16.7263 15.6469 16.788 15.4542 16.8497 15.246C16.9113 15.0378 16.9499 14.8451 16.9499 14.6754C16.8959 14.7294 16.8188 14.8605 16.7109 15.061C16.6029 15.2691 16.495 15.4156 16.3948 15.5082C16.256 15.6315 16.1557 15.7163 16.0786 15.7549C15.9553 15.832 15.8396 15.8705 15.7163 15.8705C15.6237 15.8705 15.5389 15.8551 15.4695 15.8166C14.9684 15.3925 14.6985 14.6832 14.66 13.6808C14.6214 12.6785 14.5598 12.0232 14.4749 11.7148C14.367 11.815 14.2976 11.9538 14.2591 12.1311C14.2205 12.3085 14.1897 12.4781 14.1665 12.6477C14.2591 13.411 14.3516 14.2129 14.4595 15.0533C14.5598 15.8937 14.8682 16.495 15.377 16.8651C15.6469 16.9037 15.909 16.8343 16.1635 16.6569C16.2097 16.603 16.2791 16.5105 16.3716 16.3871C16.4487 16.2946 16.5258 16.2252 16.6106 16.1712C16.8497 16.0556 17.266 15.8782 17.852 15.6238C18.3377 15.3617 18.6769 15.0147 18.862 14.5906C19.2398 13.7657 19.4325 12.8559 19.4325 11.8613C19.4325 11.283 19.3554 10.7356 19.2089 10.2036C19.0625 9.67931 18.8389 9.2167 18.5459 8.82349C18.2837 9.34006 18.1141 10.0031 18.0447 10.8281C18.0139 11.1828 17.9985 11.923 17.9985 13.0486C17.983 13.118 17.983 13.1797 17.9985 13.2337C18.0139 13.2953 18.0447 13.3185 18.0987 13.3185C18.1758 12.9792 18.2298 12.4395 18.2683 11.6839C18.3069 10.9283 18.3763 10.3809 18.4765 10.0494C18.7078 10.3886 18.8774 10.7587 18.9776 11.1596C19.0779 11.5606 19.1241 12.0078 19.1241 12.5089C19.1241 12.6091 19.1241 12.7094 19.1164 12.8173C19.1164 12.9253 19.101 13.0872 19.0856 13.3031L19.0547 13.2799ZM16.6646 12.401C16.6261 12.3316 16.5875 12.2776 16.5412 12.2391C16.495 12.2005 16.4487 12.1697 16.3948 12.162C16.2791 12.054 16.1789 12 16.1018 12C15.9861 12 15.8705 12.1465 15.7625 12.4472C15.7008 12.6169 15.6546 12.7171 15.616 12.7634C15.5929 12.8867 15.6931 12.9792 15.909 13.0563C16.1249 13.1257 16.256 13.2105 16.3022 13.3031C16.4256 13.0101 16.549 12.7094 16.68 12.401H16.6646ZM19.4942 6.6261C19.1627 6.6261 18.8312 6.68008 18.5073 6.78031C18.1835 6.88055 17.8905 7.02703 17.6284 7.20436C16.9884 7.64384 16.2097 8.2915 15.2768 9.14732C14.0123 10.3115 13.249 11.0054 12.9792 11.2136C12.1002 11.9307 11.2675 12.4627 10.4811 12.8019C9.26291 13.3416 7.83655 13.6115 6.20971 13.6115C6.18658 13.3801 6.01696 13.0795 5.70856 12.7248C5.53123 12.5166 5.40786 12.3624 5.33076 12.2622C5.27679 12.3933 5.23824 12.5166 5.2074 12.6477C5.17656 12.7788 5.16114 12.9098 5.16114 13.0486C5.16114 13.2414 5.30763 13.4881 5.59291 13.7965C5.85505 14.0818 5.97841 14.3439 5.94757 14.5675C5.78566 15.0224 5.59291 15.4002 5.35389 15.7009C5.04549 16.0941 4.68311 16.31 4.28219 16.3486C4.19738 16.3717 4.12028 16.3794 4.04318 16.3794C3.88897 16.3794 3.71164 16.3254 3.49576 16.2098C3.38011 16.1481 3.2182 16.0556 2.9946 15.9245C2.74017 15.7009 2.54742 15.4696 2.42406 15.246C2.30069 15.0224 2.23901 14.8065 2.23901 14.5906C2.23901 14.4056 2.27756 14.2129 2.36237 14.0124C2.92521 13.2799 3.48805 12.5398 4.0586 11.8073C4.20509 11.6068 4.31303 11.4141 4.39013 11.2136C4.46723 11.0132 4.50578 10.8204 4.50578 10.62C4.48265 10.8281 4.42097 11.0132 4.32074 11.1905C4.22051 11.3678 4.08944 11.5529 3.91981 11.7456C3.65767 12.0155 3.38782 12.293 3.12567 12.5629C2.80956 12.8944 2.58597 13.1951 2.4549 13.4495C2.1542 13.9044 2 14.4364 2 15.0378C2 15.2845 2.03084 15.5313 2.10023 15.778C2.16962 16.017 2.26985 16.2329 2.40864 16.4257C2.63994 16.7032 2.88666 16.9345 3.16423 17.1118C3.44179 17.2892 3.72706 17.3817 4.03547 17.3817C4.19738 17.3817 4.35158 17.3586 4.49807 17.3046C4.92213 17.1581 5.26137 16.9037 5.52352 16.5413C5.72398 16.256 5.88589 15.8628 6.00925 15.3848C6.07093 15.1458 6.11719 14.8836 6.15574 14.6138C6.17116 14.4981 6.202 14.2437 6.24826 13.8505C6.47957 13.9507 6.70316 14.0124 6.94217 14.0509C7.18119 14.0818 7.44333 14.1049 7.73631 14.1049C7.95991 14.1049 8.1835 14.0895 8.40709 14.0818C8.63069 14.0818 8.86199 14.0741 9.08558 14.0741C10.0725 13.9199 11.0671 13.465 12.0771 12.7017C12.5783 12.3162 13.4264 11.5297 14.6369 10.3501C15.6931 9.30923 16.5644 8.56906 17.266 8.12958C17.5204 7.99851 17.7826 7.86745 18.037 7.72866C18.3377 7.58217 18.6076 7.51276 18.8312 7.51276C18.9468 7.51276 19.047 7.5282 19.1473 7.55904L19.4788 6.61841L19.4942 6.6261Z" fill="white"/>
</svg>
