<svg width="24" height="24" viewBox="0 0 24 24" fill="none" xmlns="http://www.w3.org/2000/svg">
<g clip-path="url(#clip0_1_233)">
<path fill-rule="evenodd" clip-rule="evenodd" d="M22 11.2848C22 11.8326 21.9407 12.3525 21.8255 12.841C21.7069 13.333 21.5255 13.7796 21.2742 14.1808C20.9777 14.7566 20.4438 15.1055 19.6762 15.2276C19.0063 15.2904 18.3364 15.3497 17.6664 15.4125C18.134 15.2904 18.5492 15.1613 18.9051 15.0287C19.3587 14.8612 19.7634 14.6693 20.1193 14.4495C20.5171 14.2053 20.8416 13.9226 21.0998 13.6051C21.3789 13.2597 21.5813 12.8619 21.7034 12.4153C21.7592 12.192 21.7872 11.9652 21.7872 11.7384C21.7872 11.393 21.7244 11.0196 21.5953 10.6254C21.5499 10.4928 21.4138 10.1439 21.1835 9.58558C21.1556 9.7426 21.1347 9.94148 21.1242 10.1787C21.1137 10.4195 21.1068 10.6463 21.1068 10.8661V11.5849C21.1068 11.8431 21.1033 12.021 21.0928 12.1222C21.0858 12.2234 21.0649 12.356 21.037 12.5235C20.9916 12.3281 20.9602 12.1048 20.9358 11.8501C20.9149 11.5954 20.9009 11.3546 20.9009 11.1243C20.9009 10.8836 20.9079 10.6009 20.9253 10.2695C20.9637 9.50533 20.9846 9.0308 20.9846 8.84588C20.9951 8.76214 21.0126 8.67491 21.0335 8.5807C21.0544 8.48998 21.0963 8.43415 21.1521 8.41671C21.7174 9.26458 21.9965 10.2206 21.9965 11.2813L22 11.2848ZM17.3594 9.58558C17.2303 9.81936 17.1012 10.0531 16.9756 10.2904L16.4068 9.89612L16.8325 9.30296L17.3594 9.58907V9.58558ZM16.194 8.60512C16.1591 8.72376 16.0823 8.81099 15.9602 8.87379C15.7578 8.95055 15.5625 9.0308 15.3671 9.10757C14.91 9.24713 14.5646 9.35181 14.3378 9.4181C13.926 9.5472 13.5876 9.67281 13.3259 9.79494C13.305 9.72864 13.3259 9.65886 13.3852 9.58907C13.448 9.51929 13.5213 9.46346 13.612 9.4181C14.4703 9.14944 15.3357 8.88077 16.201 8.60512H16.194ZM19.6204 10.5067C19.575 10.081 19.4878 9.6763 19.3622 9.28551C19.2331 8.89473 19.0656 8.52487 18.8597 8.17944C18.776 8.27365 18.7132 8.42369 18.6678 8.62257C18.6469 8.73422 18.6085 8.90519 18.5597 9.13199C18.5597 9.34832 18.5492 9.6763 18.5248 10.1125C18.5038 10.5486 18.4899 10.8731 18.4899 11.0824C18.4899 11.2918 18.4899 11.4663 18.4969 11.5919C18.5038 11.721 18.5178 11.864 18.5457 12.0175C18.6225 11.0964 18.7027 10.1718 18.7795 9.24713C18.8842 9.46346 18.9819 9.68328 19.0656 9.89961C19.1493 10.1159 19.2191 10.3358 19.2749 10.5521C19.3657 10.8801 19.4075 11.1941 19.4075 11.4907C19.4075 11.6582 19.3971 11.8082 19.3726 11.9443C19.1982 12.2129 19.0133 12.4258 18.8109 12.5898C18.5666 12.7921 18.3224 12.9108 18.0816 12.9492C18.1026 12.8166 18.1305 12.677 18.1584 12.5339C18.1863 12.3909 18.2003 12.2653 18.2003 12.1536C18.2003 11.9966 18.1724 11.8605 18.113 11.7419C18.0537 11.6233 17.9805 11.5256 17.8967 11.4488C17.8095 11.372 17.7083 11.3406 17.5897 11.3581C17.3385 11.5256 17.1535 11.7489 17.0384 12.028C16.8988 12.356 16.829 12.8445 16.829 13.4935C16.529 13.6714 16.2568 13.8215 16.016 13.9366C15.7195 14.0831 15.4368 14.2053 15.1612 14.3064C14.8262 14.4286 14.5157 14.5193 14.2261 14.5751C13.94 14.6309 13.6294 14.6589 13.3015 14.6589C12.7362 14.6589 12.2617 14.5821 11.8779 14.4251C11.4033 14.2367 11.0614 13.9261 10.8486 13.497C10.7439 13.0887 10.6671 12.6735 10.6183 12.2478C10.5694 11.8222 10.5485 11.372 10.5485 10.8905C10.5485 10.409 10.5345 9.93799 10.5031 9.50882C10.4717 9.07965 10.4229 8.66095 10.3566 8.25272C10.2554 8.30854 10.1786 8.40275 10.1228 8.53883C10.0949 8.6121 10.06 8.7412 10.0216 8.92264C10.0879 9.72515 10.1577 10.5312 10.231 11.3337C10.224 11.4523 10.224 11.5674 10.224 11.6826V12.021C10.224 12.7852 10.2798 13.3679 10.3915 13.7726C10.559 14.3693 10.88 14.8228 11.3545 15.1299C11.8849 15.3462 12.4501 15.4579 13.0468 15.4579C13.5038 15.4579 13.9784 15.3951 14.4669 15.2695C14.9553 15.1439 15.4438 14.9624 15.9288 14.7217C16.365 14.5053 16.8081 14.2402 17.2617 13.9261C18.0642 13.9261 18.7202 13.5981 19.2296 12.9387C19.3796 12.6386 19.4878 12.3316 19.5506 12.0245C19.6134 11.7175 19.6483 11.3895 19.6483 11.0371C19.6483 10.8626 19.6413 10.6882 19.6239 10.5102L19.6204 10.5067ZM8.71668 8.93311C8.67132 9.10757 8.63992 9.23318 8.61549 9.31692C8.57013 9.47742 8.52477 9.60652 8.4829 9.70073C8.27006 9.70073 8.10258 9.70073 7.97697 9.70771C7.85136 9.71468 7.71179 9.73213 7.55478 9.76702C7.55478 9.64839 7.57921 9.5158 7.63154 9.36577C7.63852 9.3553 7.68388 9.22969 7.7746 8.98893C7.98744 8.92264 8.18981 8.88775 8.38521 8.88775C8.48639 8.88775 8.59805 8.9017 8.72017 8.92962L8.71668 8.93311ZM9.52966 14.0238C9.48081 14.1425 9.41103 14.2436 9.32031 14.3309C9.22959 14.4181 9.11793 14.4984 8.97837 14.5786C8.73761 14.7077 8.50035 14.8368 8.26657 14.9729C8.29449 14.8438 8.35729 14.7356 8.4515 14.6449C8.51779 14.5786 8.62945 14.5018 8.78646 14.4181C8.96092 14.3413 9.08653 14.282 9.17027 14.2436C9.32031 14.1704 9.44243 14.0971 9.52966 14.0273V14.0238ZM7.53733 9.60303C7.50244 9.8054 7.47802 9.95893 7.46057 10.0636C7.42568 10.266 7.34194 10.3881 7.20237 10.4335C7.06978 10.4335 6.93371 10.4474 6.79763 10.4718C6.66155 10.4963 6.50454 10.5312 6.33357 10.5765C6.33357 10.3358 6.35799 10.1508 6.40335 10.0252C6.4522 9.89612 6.515 9.79494 6.59874 9.72515C6.91277 9.68677 7.22331 9.64839 7.53733 9.60652V9.60303ZM9.28542 10.9603C9.2575 10.887 9.20865 10.8347 9.14236 10.8068C9.07606 10.7754 8.99581 10.7614 8.90858 10.7614C8.88765 10.7614 8.85276 10.7614 8.8074 10.7684C8.4829 10.8696 8.17237 11.0092 7.8723 11.1871C7.57223 11.3651 7.28611 11.5849 7.01047 11.8396C6.73482 12.0978 6.49756 12.3769 6.30216 12.677C6.10677 12.9771 5.97069 13.2841 5.89044 13.5981C6.14166 13.5353 6.40335 13.4725 6.67202 13.4097C6.94417 13.3469 7.18842 13.2981 7.40475 13.2632C7.05234 13.7272 6.73482 14.0413 6.44871 14.2088C6.20447 14.3553 5.94278 14.4251 5.67062 14.4251C5.55199 14.3762 5.44033 14.2995 5.32868 14.1983C5.25192 14.125 5.09839 13.954 4.86811 13.6889L4.88555 13.6644L4.63433 13.4062C4.418 13.4062 4.24703 13.497 4.12491 13.6819C4.06909 13.7586 3.98883 13.9506 3.88067 14.2506C3.8074 14.4739 3.73412 14.6344 3.65387 14.7286C3.53524 14.8682 3.38172 14.938 3.18632 14.938C3.12003 14.938 3.06769 14.938 3.03629 14.931C2.83043 14.8403 2.65946 14.7007 2.51989 14.5053C2.38381 14.3099 2.29658 14.1006 2.26518 13.8773C2.34194 13.5807 2.50593 13.312 2.75017 13.0643C2.87927 12.9352 3.11654 12.7398 3.46197 12.4781C3.8074 12.2164 4.04815 11.9966 4.18074 11.8256C4.3866 11.557 4.49128 11.2604 4.49128 10.9394C4.36218 11.1732 4.24703 11.3651 4.14236 11.5081C4.03768 11.6547 3.94696 11.7698 3.8702 11.8605C3.73064 12.021 3.58758 12.1606 3.43754 12.2723C3.291 12.3839 3.1305 12.4711 2.96301 12.5305L2.94557 12.513C2.65946 12.7084 2.43266 12.9526 2.2582 13.2457C2.08374 13.5388 2 13.8459 2 14.1634C2 14.5053 2.06978 14.8089 2.20935 15.081C2.34892 15.3532 2.56176 15.5765 2.84438 15.7545C2.99093 15.7998 3.10607 15.8208 3.19679 15.8208C3.36427 15.8208 3.49686 15.7684 3.59107 15.6603C3.66434 15.5835 3.73064 15.4544 3.79344 15.2764C3.95394 14.8298 4.05164 14.5786 4.08653 14.5228C4.17725 14.3762 4.28542 14.2785 4.41452 14.2227C4.57502 14.4181 4.7425 14.617 4.90998 14.8159C5.10537 15.0462 5.30775 15.1927 5.51361 15.259C5.85904 15.2241 6.19051 15.102 6.50105 14.8891C6.78018 14.7042 7.03838 14.46 7.27216 14.1529C7.485 13.8843 7.6769 13.5737 7.85136 13.2248C7.99791 12.9387 8.12352 12.6316 8.23517 12.2967C7.9665 12.4258 7.70133 12.5235 7.43964 12.5933C7.17795 12.663 6.91277 12.6979 6.6441 12.6979C6.98953 12.3525 7.30356 12.0908 7.58269 11.9198C7.93859 11.7035 8.30844 11.5709 8.68876 11.5256C8.75157 11.543 8.79344 11.5674 8.81786 11.6023C8.84229 11.6372 8.85625 11.6756 8.85625 11.721C8.85625 11.7489 8.8388 11.8117 8.8074 11.9059C8.75855 12.0385 8.74459 12.1362 8.76553 12.192C9.00628 11.8291 9.17725 11.4209 9.28542 10.9708V10.9603ZM17.8932 12.7677C17.9107 12.7189 17.9072 12.67 17.8863 12.6282C17.8653 12.5863 17.8444 12.5374 17.8234 12.4781C17.8025 12.4188 17.7537 12.363 17.6769 12.3071C17.6001 12.2513 17.5164 12.2269 17.4257 12.2304C17.321 12.2792 17.2373 12.356 17.1745 12.4607C17.1117 12.5653 17.0872 12.67 17.0977 12.7817C17.1326 12.8654 17.1954 12.9282 17.2896 12.9736C17.3524 13.0224 17.4082 13.0503 17.4571 13.0503C17.5234 13.0503 17.6036 13.012 17.6943 12.9317C17.7851 12.8549 17.8514 12.7991 17.8897 12.7642L17.8932 12.7677Z" fill="white"/>
</g>
<defs>
<clipPath id="clip0_1_233">
<rect width="24" height="24" fill="white"/>
</clipPath>
</defs>
</svg>
