<svg width="24" height="24" viewBox="0 0 24 24" fill="none" xmlns="http://www.w3.org/2000/svg">
<path fill-rule="evenodd" clip-rule="evenodd" d="M21.9471 10.7837C21.9841 11.0376 22 11.2914 22 11.5452C22 12.1428 21.9048 12.7245 21.7092 13.2903C21.5505 13.7451 21.3601 14.1417 21.1274 14.4908C20.8683 14.8768 20.5457 15.2099 20.1544 15.4796C19.6891 15.5748 19.1973 15.6753 18.679 15.7811C18.1608 15.8816 17.706 15.9344 17.3146 15.9344C17.1401 15.9344 16.9656 15.9239 16.7858 15.908C17.3464 15.8128 17.854 15.6859 18.3035 15.5378C18.8324 15.3633 19.3136 15.1359 19.7472 14.8662C20.2232 14.5701 20.6198 14.2316 20.9265 13.8562C21.2861 13.4278 21.5241 12.9519 21.651 12.4284C21.6933 12.2591 21.7144 12.0741 21.7144 11.8731C21.7144 11.5399 21.6457 11.1803 21.5082 10.7996C21.3919 10.4823 21.2332 10.1597 21.0375 9.82655C20.9265 10.789 20.8207 11.7515 20.7203 12.7139C20.6515 12.3438 20.6198 11.9418 20.6198 11.5082C20.6198 10.953 20.6727 10.3236 20.7837 9.63089C20.8736 9.13909 20.9424 8.77949 20.9847 8.54152C21.2438 8.84295 21.4553 9.18669 21.6192 9.57273C21.7832 9.95877 21.8942 10.3607 21.9471 10.7837ZM16.807 8.57854C16.7224 8.63143 16.5902 8.69488 16.4051 8.75834C16.3152 8.79007 16.183 8.83766 16.0085 8.90641C15.834 8.97516 15.6965 9.04919 15.5854 9.1338C15.4744 9.21841 15.3897 9.32948 15.3316 9.46168C15.432 9.38765 15.5695 9.31889 15.7335 9.25543C15.8234 9.21842 15.9556 9.16553 16.1354 9.08621C16.3099 9.01217 16.4421 8.94343 16.5267 8.87998C16.6483 8.79536 16.7435 8.69488 16.807 8.57854ZM20.1597 12.8461C20.0275 12.8144 19.816 12.7721 19.5357 12.7086C19.1232 12.6134 18.8324 12.4336 18.6631 12.1798C18.7002 11.7726 18.7319 11.3601 18.753 10.9424C18.7795 10.5246 18.7901 10.1227 18.7901 9.73666C18.7901 9.35062 18.716 8.94344 18.5627 8.56797C18.4093 8.1978 18.1872 7.87522 17.8911 7.61081C17.6478 8.11319 17.4892 8.74777 17.4204 9.50927C17.3781 9.95348 17.357 10.6304 17.357 11.5452H17.4363C17.5209 11.2808 17.5791 10.826 17.6161 10.1862C17.6531 9.54629 17.7271 9.08621 17.8435 8.81123C17.9545 9.01218 18.0656 9.20784 18.1819 9.4035C18.2718 9.57273 18.3353 9.74724 18.3723 9.93232C18.4093 10.1121 18.4252 10.3025 18.4252 10.5035C18.4252 10.6304 18.4199 10.7626 18.4093 10.9001C18.3987 11.0376 18.3829 11.1539 18.3723 11.2544C18.3617 11.3549 18.3247 11.5505 18.2718 11.8467C18.2189 12.1428 18.1925 12.3755 18.1925 12.55C18.1925 12.6716 18.2084 12.7932 18.2401 12.9202C18.2718 13.0418 18.3141 13.1528 18.3776 13.2427C18.1608 13.4807 17.9492 13.6922 17.7536 13.8879C17.4944 14.147 17.2723 14.348 17.0925 14.4855C16.8493 14.6917 16.606 14.8556 16.3628 14.9826C16.1195 15.1095 15.8604 15.1994 15.596 15.247C15.6118 15.1359 15.6647 14.972 15.7441 14.7552C15.8234 14.5383 15.8763 14.3691 15.8921 14.2475C15.8392 14.2475 15.7916 14.2845 15.7599 14.3586C15.7282 14.4326 15.707 14.4749 15.7017 14.4802C15.4849 14.6864 15.3633 14.7975 15.3369 14.8186C15.0989 15.0037 14.8715 15.0989 14.6547 15.0989C14.5436 15.0989 14.4326 15.0725 14.3109 15.0196C14.0148 14.7552 13.8086 14.4061 13.6922 13.9831C13.6023 13.6552 13.5547 13.2374 13.5547 12.7192C13.5547 12.6875 13.56 12.4654 13.5706 12.0529C13.5812 11.6404 13.5865 11.3443 13.5865 11.1698C13.5865 11.0111 13.5812 10.8313 13.5706 10.6304C13.56 10.4294 13.5389 10.2708 13.5177 10.1544C13.4384 10.2285 13.3644 10.3395 13.3009 10.4982C13.2692 10.5828 13.2216 10.7097 13.1475 10.8789C13.1898 11.1803 13.211 11.5188 13.211 11.8942V12.037C13.2057 12.1957 13.2004 12.3543 13.2004 12.5077V12.973C13.2004 13.6182 13.2374 14.1417 13.3168 14.5331C13.4278 15.0778 13.6288 15.5272 13.9249 15.8763C14.0412 15.9715 14.1787 16.0191 14.3427 16.0191C14.3956 16.0191 14.459 16.0138 14.5331 16.0032C14.6071 15.9926 14.6917 15.9768 14.7869 15.9556C14.9191 15.9186 15.0301 15.8763 15.1148 15.8234C15.1994 15.7705 15.2628 15.7123 15.3051 15.6383C15.4268 15.6066 15.6013 15.5801 15.834 15.559C16.0613 15.5325 16.2359 15.5061 16.3416 15.4796C16.5849 15.4056 16.7964 15.3157 16.9762 15.2047C17.156 15.0936 17.3411 14.9508 17.5209 14.771C17.7007 14.5965 17.8805 14.422 18.055 14.2422C18.2665 14.036 18.4516 13.8773 18.6103 13.761C18.7266 13.6922 18.8588 13.6605 19.0122 13.6605C19.0809 13.6605 19.2131 13.6764 19.4194 13.7081C19.6256 13.7398 19.7684 13.7557 19.8477 13.7557C19.9588 13.6394 20.0381 13.5019 20.0857 13.3485C20.1385 13.1899 20.165 13.0206 20.165 12.8408L20.1597 12.8461ZM15.982 11.2015C15.982 11.3548 15.9186 11.5452 15.7916 11.7726C15.7229 11.889 15.6594 12 15.6013 12.1111C15.4585 12.0106 15.3792 11.9524 15.3633 11.9471C15.2047 11.8467 15.0566 11.7832 14.9191 11.7673C14.9191 11.614 14.9561 11.4606 15.0354 11.302C15.0777 11.2121 15.1676 11.0693 15.3051 10.8736C15.4162 10.8736 15.5272 10.9106 15.6436 10.9847C15.7599 11.0587 15.871 11.1328 15.982 11.1962V11.2015ZM11.5241 8.08674L11.1592 8.84825C11.1222 8.81652 11.0164 8.7795 10.8419 8.73191C10.6674 8.68431 10.5775 8.62085 10.5775 8.54152C10.5775 8.50451 10.5828 8.47279 10.5933 8.45163C10.7097 8.25597 10.7943 8.12905 10.8472 8.07088C10.9582 7.94396 11.064 7.8805 11.175 7.8805C11.2914 7.8805 11.4024 7.94924 11.5188 8.09202L11.5241 8.08674ZM9.17081 9.19198C9.13379 9.32418 9.10206 9.45639 9.07033 9.59389C9.02803 9.72609 8.96986 9.85829 8.89053 9.98521L7.69011 10.1756C7.73242 9.9429 7.77472 9.77368 7.81703 9.66791C7.90164 9.46167 8.01798 9.32946 8.16076 9.266C8.25595 9.266 8.39873 9.25014 8.58911 9.21841C8.77948 9.18668 8.91169 9.17082 8.9963 9.17082C9.0386 9.17082 9.09677 9.17611 9.17081 9.18668V9.19198ZM12.2856 14.5595C12.201 14.6811 12.0846 14.7975 11.9418 14.9032C11.8255 14.9878 11.6827 15.0725 11.5082 15.1571C11.2967 15.247 11.138 15.3157 11.0375 15.358C10.8419 15.4426 10.6885 15.5167 10.5722 15.5854C10.6462 15.4638 10.752 15.3475 10.9001 15.2417C11.0005 15.1624 11.1539 15.0778 11.3443 14.9773C11.6616 14.8398 11.9736 14.697 12.2909 14.5595H12.2856ZM12.2115 10.091C12.1692 10.0328 12.1005 9.93232 12.0106 9.80012C11.9207 9.66791 11.8308 9.57801 11.7462 9.53571C11.7144 9.50927 11.6774 9.49869 11.6351 9.49869C11.5769 9.49869 11.5029 9.53042 11.4289 9.59916C11.4024 9.61503 11.3707 9.64677 11.3178 9.68907C11.2279 9.89002 11.138 10.091 11.0428 10.2866C10.99 10.4136 10.9635 10.5352 10.9635 10.6515C10.9635 10.7837 11.0111 10.9106 11.101 11.0217C11.1856 11.0587 11.2808 11.0746 11.3813 11.0746C11.5452 11.0746 11.6668 11.0217 11.7462 10.9212C11.7938 10.9582 11.8255 11.0006 11.8414 11.0481C11.8572 11.0957 11.8678 11.1592 11.8837 11.2385C11.6245 11.5558 11.376 11.7991 11.138 11.9736C10.8577 12.1851 10.5722 12.3226 10.276 12.3913C10.3184 12.2486 10.3554 12.1005 10.3818 11.9577C10.4082 11.8149 10.4241 11.6721 10.4241 11.5399C10.4241 11.2861 10.3712 11.0799 10.2602 10.9212C10.1809 10.8736 10.1015 10.8208 10.0222 10.7679C9.94289 10.715 9.86885 10.6885 9.79482 10.6885C9.77895 10.6885 9.74194 10.6938 9.69434 10.7044C9.32417 10.9318 9.04918 11.2755 8.86938 11.7197C8.71602 12.0952 8.64199 12.5235 8.64199 13.0101C8.59968 13.0259 8.52565 13.0629 8.42517 13.1105C8.28768 13.1634 8.16076 13.1899 8.055 13.1899C8.03913 13.1105 7.99154 13.0365 7.9175 12.9625C7.86991 12.9149 7.80116 12.8567 7.70598 12.788C7.67425 12.788 7.62665 12.788 7.55791 12.7774C7.48916 12.7721 7.43628 12.7668 7.40984 12.7668C7.33051 12.7668 7.26177 12.7827 7.19831 12.8091C7.13485 12.8356 7.08197 12.8831 7.03966 12.9519C7.03966 13.0418 7.00793 13.1581 6.93919 13.2956C6.80169 13.5865 6.72766 13.7716 6.72766 13.8615C6.72766 13.9408 6.74881 14.0095 6.78583 14.0677C6.82285 14.1259 6.89159 14.1788 6.99207 14.2369C7.06081 14.2528 7.12427 14.2634 7.18244 14.2634C7.21946 14.2634 7.2935 14.2581 7.41512 14.2422C7.53147 14.2263 7.62665 14.2263 7.69011 14.2422C7.44157 14.6917 7.10312 15.0619 6.67478 15.3527C6.34162 15.5748 5.89741 15.7811 5.34744 15.9715C4.88736 16.109 4.42729 16.2517 3.96721 16.3892C4.13644 16.3575 4.57007 16.3311 5.26282 16.2993C5.95558 16.2676 6.46854 16.1777 6.80169 16.0191C7.09783 15.8498 7.34638 15.6066 7.54733 15.284C7.72184 15.0037 7.84876 14.6864 7.92808 14.3321C8.0074 14.1576 8.1872 13.999 8.47277 13.8615C8.88525 13.6605 9.11264 13.5442 9.16552 13.5072C9.67319 13.5072 10.1438 13.3961 10.5775 13.1687C11.0111 12.9466 11.4024 12.6187 11.7515 12.1904C11.9207 11.9365 12.0582 11.6827 12.1534 11.4236C12.2538 11.1645 12.3014 10.9054 12.3014 10.6462C12.3014 10.4611 12.2697 10.2761 12.2115 10.1016V10.091ZM4.65468 12.9043C4.62824 13.0682 4.57007 13.2216 4.47488 13.3644C4.37969 13.5071 4.26864 13.6235 4.14701 13.7134C4.06769 13.6394 3.98308 13.5812 3.8826 13.5389C3.8403 13.523 3.73982 13.486 3.58117 13.4384C3.59175 13.2745 3.6605 13.0947 3.78741 12.8937C3.8403 12.8038 3.91962 12.6981 4.01481 12.5764C4.15759 12.6293 4.26864 12.6716 4.34268 12.7033C4.4643 12.7562 4.56478 12.825 4.64939 12.9043H4.65468ZM6.07192 12.7139C6.01904 13.0841 5.93971 13.4278 5.83395 13.7398C5.73347 14.0571 5.59069 14.3638 5.40561 14.6706C5.22581 14.9773 5.01428 15.2311 4.77102 15.4373C4.50132 15.6753 4.19461 15.8445 3.85616 15.9556C3.81386 15.9609 3.74511 15.9662 3.65521 15.9662C3.38022 15.9662 3.13696 15.9027 2.92544 15.7705C2.70862 15.6383 2.51296 15.4532 2.32787 15.21C2.11105 14.8186 2 14.3533 2 13.8192C2 13.3749 2.0899 12.973 2.26441 12.6029C2.37546 12.3913 2.54997 12.1164 2.79323 11.7832C2.90957 11.6193 3.02591 11.4553 3.14754 11.2914C3.32734 11.0429 3.47541 10.8313 3.59175 10.6568C3.73453 10.4347 3.85087 10.2126 3.93548 10.0011C3.91962 10.128 3.87731 10.2708 3.80857 10.4347C3.73982 10.5934 3.62877 10.8102 3.47012 11.0746L2.77208 12.1164C2.64516 12.3226 2.54997 12.4971 2.4918 12.6452C2.41248 12.825 2.36489 12.9836 2.34902 13.1211C2.33316 13.2586 2.32787 13.3538 2.32787 13.4067C2.32787 13.5812 2.35431 13.7451 2.40719 13.9038C2.46007 14.0571 2.56055 14.2263 2.69804 14.4061C2.81967 14.5701 2.95717 14.7076 3.11052 14.8133C3.26388 14.9244 3.42782 14.9878 3.60762 15.0037C4.05182 15.0037 4.47488 14.8239 4.88736 14.459C5.24696 14.1417 5.52195 13.7663 5.7229 13.3221C5.72819 13.2903 5.73347 13.248 5.73347 13.1846C5.73347 12.9678 5.67002 12.7615 5.5431 12.5606C5.41618 12.3649 5.24696 12.1957 5.03543 12.0582C4.79217 11.9154 4.53834 11.8414 4.26335 11.8414C4.03596 11.8414 3.82443 11.8995 3.63934 12.0159C3.58646 12.0846 3.523 12.1164 3.45955 12.1164C3.50185 11.9101 3.54416 11.7039 3.58646 11.4976C3.66579 11.2438 3.7927 11.0799 3.97779 11.0005C4.15759 10.9265 4.34268 10.8895 4.53305 10.8895C4.72343 10.8895 4.88736 10.9159 5.0513 10.9688C5.21523 11.0217 5.3633 11.101 5.49551 11.2068C5.9027 11.5029 6.10365 11.9048 6.10365 12.4072C6.10365 12.5024 6.09307 12.6029 6.07721 12.7086L6.07192 12.7139ZM9.93231 11.9418C9.96933 12.0159 9.98519 12.0793 9.98519 12.1428C9.98519 12.2961 9.89529 12.3966 9.72078 12.4442C9.67319 12.4918 9.62559 12.5183 9.578 12.5183C9.46695 12.4865 9.36119 12.4601 9.25013 12.4284C9.16552 12.349 9.12322 12.2644 9.12322 12.1745C9.12322 12.1163 9.13908 12.037 9.17081 11.9471C9.24484 11.7885 9.37176 11.7092 9.55156 11.7092C9.73136 11.7092 9.86885 11.7885 9.93231 11.9471V11.9418Z" fill="white"/>
</svg>
