<svg width="24" height="24" viewBox="0 0 24 24" fill="none" xmlns="http://www.w3.org/2000/svg">
<path fill-rule="evenodd" clip-rule="evenodd" d="M21.9575 10.1464C21.9878 10.3591 22 10.6083 22 10.8879C22 11.3072 21.9696 11.6961 21.9088 12.0668C21.8481 12.4375 21.7569 12.8143 21.6293 13.2033C21.368 13.8171 21.1127 14.2789 20.8757 14.5889C20.4989 15.0872 20.0371 15.3911 19.4901 15.4944C18.9432 15.5977 18.5117 15.6645 18.1957 15.7071C17.6487 15.7921 17.1869 15.8347 16.8162 15.8347C17.3388 15.7557 17.8432 15.6281 18.3233 15.4457C18.8095 15.2634 19.2653 15.0143 19.7028 14.7104C20.1404 14.4066 20.5232 14.048 20.8514 13.6469C21.1796 13.2458 21.4287 12.79 21.5989 12.2917C21.7022 12 21.7569 11.6718 21.7569 11.3133C21.7569 10.8392 21.6597 10.3774 21.4652 9.92159C21.2707 9.4658 21.0033 9.05255 20.6691 8.67577C20.6387 8.9614 20.6205 9.35641 20.6083 9.85474C20.5962 10.3531 20.5901 10.7846 20.5901 11.1492V11.9453H20.5354C20.4929 11.6232 20.4564 11.2525 20.4199 10.821C20.3835 10.3895 20.3652 9.99452 20.3652 9.64204C20.3652 9.21664 20.3835 8.83985 20.4199 8.51169C20.4564 8.18352 20.5232 7.8432 20.6144 7.50287C21.0033 7.80673 21.3133 8.20175 21.5442 8.68185C21.7448 9.10725 21.8785 9.5995 21.9514 10.1647L21.9575 10.1464ZM15.9957 8.34152C16.0018 8.42661 15.9654 8.49953 15.8924 8.57246C15.8742 8.59069 15.7891 8.63931 15.6554 8.71831C14.9079 9.06471 14.3549 9.32603 13.9842 9.50227C13.3096 9.82436 12.7627 10.11 12.3373 10.3713C12.4649 10.0978 12.7384 9.85474 13.1699 9.64204C13.5345 9.4658 13.893 9.28956 14.2577 9.10725C14.4886 9.01001 14.7742 8.88239 15.1267 8.73046C15.5764 8.52992 15.8681 8.4023 16.0018 8.34152H15.9957ZM20.0371 12.0365C20.0553 11.9574 20.0675 11.9028 20.0675 11.8602C20.0675 11.6961 19.8851 11.5685 19.5144 11.4773C19.1437 11.3923 18.931 11.2525 18.8642 11.0641C18.8703 10.8332 18.8763 10.6022 18.8824 10.3713C18.8885 10.1404 18.8946 9.90944 18.8946 9.6785C18.8946 9.31387 18.8763 9.01001 18.8399 8.76085C18.7852 8.33545 18.694 7.97689 18.5664 7.68519C18.4205 7.34487 18.2078 7.04709 17.9283 6.78577C17.7764 7.3084 17.6791 7.84927 17.6366 8.4023C17.594 8.9614 17.5758 9.62989 17.5758 10.4138C17.7277 10.1404 17.8067 9.72712 17.8189 9.1741C17.825 8.615 17.8736 8.23214 17.9526 8.01336C18.1653 8.2686 18.3294 8.56638 18.4327 8.89455C18.536 9.22272 18.5907 9.56304 18.5907 9.90944V10.0127C18.5907 10.1404 18.5907 10.2619 18.5907 10.3835C18.5907 10.505 18.5907 10.6265 18.5907 10.742V11.9757L18.1653 12.4011C17.9891 12.5652 17.825 12.6746 17.673 12.7232C17.4421 12.8508 17.2902 12.9116 17.2112 12.9116C17.1322 12.9116 17.0957 12.869 17.0957 12.7779C17.0957 12.7596 17.1383 12.5895 17.2233 12.2674C17.2598 12.1337 17.278 12.0182 17.278 11.9149C17.278 11.8359 17.2659 11.7691 17.2355 11.7083C17.2051 11.6475 17.1565 11.5928 17.0714 11.5564C16.9924 11.5199 16.9012 11.5017 16.7919 11.5017C16.7129 11.5017 16.6095 11.5138 16.4698 11.532C16.33 11.5503 16.2328 11.5624 16.1659 11.5624C15.9836 11.5928 15.8742 11.7204 15.8256 11.9514C15.783 12.1823 15.7344 12.3342 15.698 12.395C15.6797 12.4497 15.6676 12.4983 15.6676 12.5287C15.6676 12.632 15.777 12.711 15.9897 12.7657C16.2024 12.8204 16.33 12.8994 16.3665 13.0088C16.0201 13.3309 15.6615 13.5983 15.3029 13.8231C14.9019 14.0784 14.4947 14.2789 14.0875 14.4126C13.6803 14.5463 13.2671 14.6193 12.8417 14.6193C12.6047 14.6193 12.3677 14.5949 12.1246 14.5463C11.8815 14.4977 11.6506 14.4187 11.4379 14.3154C11.1522 14.1331 10.9335 13.8961 10.7815 13.5983C10.6721 13.3734 10.581 13.0756 10.5081 12.6928L10.1313 6.98631C9.98541 7.17471 9.88818 7.3631 9.83349 7.55757C9.77879 7.75204 9.75448 7.98297 9.75448 8.25644C9.75448 8.45699 9.80918 8.97355 9.91857 9.80005C9.96718 10.1647 9.99149 10.4625 9.99149 10.6995C10.0523 11.5989 10.1191 12.4922 10.1799 13.3917C10.3257 14.4126 10.7633 15.0993 11.4865 15.4457C11.8633 15.543 12.2279 15.5916 12.5804 15.5916C13.1273 15.5916 13.6682 15.4883 14.1969 15.2877C14.6101 15.1358 15.0112 14.9231 15.4123 14.6496C15.8134 14.3762 16.1841 14.0784 16.5245 13.7441C16.6521 13.8049 16.7493 13.8414 16.8222 13.8535C16.8952 13.8657 16.9681 13.8718 17.0349 13.8718C17.2294 13.8718 17.43 13.811 17.6427 13.6834C17.7885 13.5922 17.9587 13.4585 18.1592 13.2762C18.3598 13.0939 18.5117 12.9663 18.615 12.8873C18.9006 12.6746 19.1802 12.5652 19.4597 12.5652C19.5387 12.5652 19.6056 12.5652 19.6664 12.5773C19.7271 12.5834 19.794 12.6016 19.8669 12.632C19.9095 12.5834 19.9398 12.4862 19.9581 12.3403C19.9763 12.1945 20.0006 12.0911 20.031 12.0365H20.0371ZM12.0517 8.93709L11.8633 9.50227C11.8633 9.41719 11.8693 9.26526 11.8815 9.0404C11.8937 8.81554 11.8997 8.68792 11.8997 8.65146C11.8997 8.43876 11.8815 8.25037 11.845 8.09236C11.8086 7.93435 11.7296 7.80066 11.608 7.67911C11.6263 7.63049 11.6506 7.58188 11.6688 7.53326C11.7113 7.47249 11.76 7.4421 11.8146 7.44818C12.0091 7.72773 12.1064 8.06197 12.1064 8.45091C12.1064 8.60892 12.0881 8.773 12.0456 8.93101L12.0517 8.93709ZM14.914 10.8757C14.8958 10.9426 14.8775 11.0094 14.8593 11.0763C14.8229 11.1553 14.7742 11.1796 14.7135 11.1492C14.6588 11.0884 14.598 11.0459 14.5311 11.0276C14.4643 11.0094 14.3731 11.0033 14.2516 11.0033C14.203 11.1127 14.1604 11.374 14.1301 11.7873C14.0997 12.2005 14.0024 12.4558 13.8444 12.5712C13.6925 12.237 13.5406 11.9028 13.3826 11.5685C13.3765 11.6354 13.34 11.6718 13.2792 11.6718C13.1881 11.6414 13.1273 11.6293 13.0909 11.6171C13.0544 11.5746 13.0362 11.526 13.0362 11.4591C13.0362 11.4044 13.0544 11.3315 13.0909 11.2464C13.1273 11.1613 13.1455 11.1066 13.1455 11.0823C13.1881 11.0459 13.2246 11.0155 13.2549 10.9912C13.2853 10.9669 13.3218 10.9608 13.3643 10.9729C13.5102 11.0823 13.6196 11.2525 13.6986 11.4713C13.8019 11.7691 13.8809 11.9574 13.9295 12.0243C13.9599 11.684 13.9964 11.4105 14.0389 11.21C14.0814 11.0094 14.1787 10.821 14.3124 10.6448C14.4582 10.6448 14.5737 10.6569 14.6588 10.6812C14.7438 10.7055 14.8229 10.7663 14.9079 10.8636L14.914 10.8757ZM9.09207 11.0033C9.09815 11.0641 9.1103 11.1431 9.11638 11.2282C9.12853 11.3133 9.13461 11.4044 9.13461 11.4956C9.13461 11.6901 9.10422 11.8602 9.03737 12.0061C8.97053 12.1519 8.85506 12.2856 8.6849 12.4011C8.46004 12.9359 8.24126 13.4707 8.02856 14.0055C7.73686 14.6193 7.36615 15.069 6.92252 15.3607C6.72805 15.4883 6.50319 15.5734 6.24187 15.6159C5.98663 15.6584 5.701 15.6828 5.39714 15.6828C5.29383 15.6828 5.1419 15.6828 4.94743 15.6706C4.75296 15.6645 4.61927 15.6584 4.54026 15.6584C5.03251 15.5734 5.49438 15.4032 5.92586 15.1419C6.35734 14.8806 6.75843 14.5463 7.12306 14.1331C7.45731 13.7563 7.74294 13.337 7.9921 12.8812C8.23519 12.4193 8.42966 11.9514 8.56335 11.4713C8.6302 11.374 8.70313 11.2707 8.76998 11.1674C8.86721 11.0519 8.97053 10.9912 9.08599 10.9912L9.09207 11.0033ZM6.08387 13.1C6.02309 13.0635 5.93194 13.0088 5.82255 12.9359C5.71316 12.8629 5.60985 12.8204 5.51869 12.8143C5.45792 12.9055 5.3546 13.0392 5.20267 13.2093C5.09936 13.3552 5.03251 13.5071 5.00213 13.6591L5.61592 13.9629C5.7557 13.8657 5.86509 13.7381 5.95017 13.574C6.03525 13.416 6.07779 13.2519 6.07779 13.0939L6.08387 13.1ZM8.02249 16.4485C7.45123 16.5639 7.01367 16.649 6.70982 16.6855C6.21756 16.7523 5.7557 16.7888 5.32422 16.7888C4.89274 16.7888 4.46126 16.7463 4.07232 16.6612C3.68338 16.5761 3.3309 16.4485 3.02097 16.2722C2.79003 16.0899 2.60772 15.9015 2.4801 15.7071C2.32817 15.4761 2.24916 15.2391 2.24916 14.99C2.24916 14.911 2.24916 14.8563 2.26132 14.8137C2.37679 14.4734 2.54695 14.1513 2.75965 13.8414C2.94804 13.574 3.17897 13.3066 3.45852 13.0392C3.71376 12.7961 3.92039 12.6138 4.07232 12.4983C4.1574 12.4375 4.52203 12.1701 5.17837 11.6961C5.57338 11.3983 5.85901 11.1735 6.02309 11.0276C6.32088 10.7724 6.57004 10.5293 6.76451 10.2984C6.99544 10.0188 7.18383 9.72712 7.32969 9.41111C7.47554 9.0951 7.5667 8.76085 7.60924 8.39622L7.52416 8.25037C7.0866 8.25037 6.59435 8.31722 6.05348 8.45699C5.81647 8.51776 5.36068 8.65754 4.68611 8.87632C4.33971 9.0404 4.07232 9.31995 3.89 9.70889C3.79277 9.91551 3.68338 10.2801 3.56791 10.8028C3.53753 10.9608 3.59222 11.1249 3.72592 11.2829C3.732 11.289 3.85962 11.4044 4.1027 11.6293C3.76846 11.9331 3.49499 12.2066 3.27621 12.4436C2.99666 12.7475 2.77788 13.0513 2.60772 13.343C2.39502 13.8535 2.25524 14.1938 2.20055 14.364C2.06685 14.7773 2 15.1419 2 15.4701C2 15.6767 2.03039 15.8772 2.08508 16.0595C2.13978 16.2419 2.23701 16.4181 2.36463 16.5761C2.68672 16.807 3.02704 16.9711 3.39775 17.0684C3.76846 17.1656 4.17563 17.2142 4.61926 17.2142C5.15406 17.2142 5.74354 17.1352 6.3938 16.9772C6.92859 16.8435 7.46946 16.6673 8.02249 16.4424V16.4485ZM7.08052 9.21664C6.8192 9.47188 6.55181 9.72712 6.29049 9.97629C5.72531 10.4928 5.21483 10.7481 4.74689 10.7481C4.69827 10.7481 4.61926 10.742 4.5038 10.7299C4.41264 10.6691 4.31541 10.5962 4.21817 10.5232C4.11486 10.4442 4.06624 10.3652 4.06624 10.2741C4.06624 10.2376 4.0784 10.2011 4.09663 10.1586C4.38833 9.91551 4.72865 9.72104 5.11152 9.58735C5.55515 9.42934 6.21149 9.3078 7.0866 9.22272L7.08052 9.21664Z" fill="white"/>
</svg>
