<svg width="24" height="24" viewBox="0 0 24 24" fill="none" xmlns="http://www.w3.org/2000/svg">
<path fill-rule="evenodd" clip-rule="evenodd" d="M21.9672 11.0158C21.9891 11.2509 22 11.4806 22 11.7048C22 12.5085 21.8414 13.2466 21.5298 13.9245C21.2892 14.8376 20.6331 15.4062 19.5615 15.6413C18.6266 15.789 17.6971 15.9311 16.7731 16.0787L16.7403 16.0678C17.4839 15.8546 17.9923 15.7015 18.2603 15.6085C18.8453 15.4062 19.3592 15.1766 19.8021 14.9306C20.3106 14.6298 20.7261 14.2854 21.0487 13.8917C21.4205 13.4379 21.6556 12.924 21.7485 12.3499C21.7485 11.8852 21.6829 11.4259 21.5462 10.9721C21.4095 10.5183 21.2291 10.059 20.994 9.58337C20.9065 9.93329 20.8573 10.48 20.8409 11.2291C20.8245 11.9781 20.8026 12.4757 20.7753 12.7217C20.6659 12.2023 20.6113 11.6555 20.6113 11.0815C20.6113 10.5948 20.6386 10.1356 20.6933 9.70366C20.748 9.27173 20.83 8.80153 20.9393 8.29306C21.2236 8.66485 21.4533 9.08037 21.6227 9.53964C21.7922 9.99891 21.9071 10.491 21.9672 11.0158ZM17.3417 8.75232C17.2324 8.84527 17.0793 8.94367 16.8824 9.04755C16.713 9.12957 16.5489 9.20611 16.3904 9.28812C16.1443 9.41388 15.9639 9.53417 15.8546 9.65992C15.7726 9.75287 15.7179 9.86221 15.6796 9.98796C15.7944 9.86221 15.942 9.75287 16.117 9.65992C16.2756 9.58885 16.4505 9.50683 16.6309 9.41935C16.8114 9.33187 16.9535 9.24985 17.0465 9.16784C17.1832 9.05302 17.2816 8.91088 17.3417 8.75232ZM19.6709 11.8906C19.6326 11.8906 19.5888 11.918 19.5342 11.9727C19.4795 12.0273 19.4412 12.0601 19.4194 12.0765C19.2061 12.0984 18.8398 12.164 18.3095 12.2734C17.7791 12.3827 17.3691 12.4374 17.0683 12.4374C17.3745 12.1695 17.6862 11.8961 17.9978 11.6282C18.3696 11.2947 18.6375 10.9885 18.7961 10.7097C18.9765 10.4527 19.1077 10.1848 19.1843 9.90049C19.2608 9.61619 19.2991 9.29906 19.2991 8.94914C19.2991 8.51721 19.2335 8.09076 19.0968 7.65883C18.9601 7.2269 18.7797 6.85511 18.5555 6.53253C18.4625 6.63641 18.3805 6.8223 18.3149 7.09021C18.2767 7.24876 18.2438 7.36906 18.2056 7.44013C18.1782 7.57135 18.129 7.78458 18.0634 8.08529C17.9923 8.47895 17.9541 8.84526 17.9541 9.18971C17.9541 9.3264 17.9595 9.46856 17.9759 9.60525C17.9923 9.74193 18.0142 9.86222 18.0416 9.9661C18.1454 9.79114 18.211 9.31547 18.2493 8.54456C18.2657 8.18917 18.3313 7.91034 18.4461 7.71351C18.561 7.98141 18.6648 8.24384 18.7523 8.50081C18.8398 8.75778 18.8945 8.99836 18.9163 9.23346C18.9163 9.56698 18.8398 9.88409 18.6867 10.1739C18.5118 10.5074 18.1673 10.901 17.6479 11.3548C17.205 11.7321 16.8879 12.0328 16.7075 12.2515C16.4068 12.6178 16.2318 12.9951 16.1826 13.3887C16.4669 13.3012 16.8442 13.2247 17.3198 13.1591C17.5768 13.1208 17.9486 13.0716 18.4461 13.006C18.1017 13.427 17.7846 13.7715 17.4839 14.0339C17.0957 14.3783 16.713 14.6189 16.3357 14.7665C16.2264 14.8048 16.1006 14.8212 15.953 14.8212C15.5539 14.8212 15.1985 14.6572 14.8923 14.3291C14.7228 13.8699 14.597 13.4051 14.5096 12.9295C14.4221 12.4538 14.3783 11.9727 14.3783 11.4861C14.3619 11.2947 14.3291 10.8409 14.2799 10.1192C14.2307 9.39748 14.1761 8.86714 14.1268 8.53363C13.93 8.83434 13.8316 9.14051 13.8316 9.45216C13.8316 9.84582 13.8644 10.4308 13.9355 11.2072C14.0066 11.9836 14.1159 12.9404 14.269 14.0776C14.3291 14.4768 14.4221 14.8048 14.5533 15.0508C14.7119 15.3516 14.9524 15.5757 15.275 15.7288C15.4226 15.7671 15.5539 15.7835 15.6687 15.7835C15.9475 15.7835 16.2318 15.7015 16.5325 15.5429C16.7676 15.4172 17.0191 15.2422 17.287 15.0071C17.7299 14.5041 18.1782 14.0011 18.632 13.4981C19.1296 12.9076 19.474 12.3718 19.6709 11.8906ZM13.5364 8.00874C13.5145 8.13996 13.4653 8.29852 13.3833 8.47895C13.2685 8.74686 13.2028 8.89994 13.1864 8.93821C13.1372 8.84527 13.0935 8.76873 13.0662 8.71952C13.006 8.61564 12.9295 8.5555 12.8365 8.53363C12.6014 8.53363 12.3882 8.6539 12.1914 8.89447C12.0656 9.05302 11.9344 9.28266 11.7977 9.58337C11.9016 9.19518 12.0328 8.85621 12.2023 8.56643C12.421 8.20011 12.6889 7.9158 13.0005 7.71351C13.0224 7.70804 13.0607 7.70256 13.1099 7.70256C13.2138 7.70256 13.2958 7.72991 13.3614 7.77911C13.427 7.82832 13.4872 7.90486 13.5364 8.00874ZM16.7731 16.6583C16.7458 16.8114 16.6856 16.959 16.5981 17.1066C16.5107 17.2542 16.4068 17.3745 16.281 17.4675C16.1717 17.4292 16.0569 17.3745 15.9311 17.3034C15.8054 17.2324 15.6851 17.1613 15.5703 17.0957C15.6085 16.959 15.6741 16.8168 15.7671 16.6802C15.86 16.5435 15.9584 16.4068 16.0514 16.2755C16.1826 16.2974 16.3084 16.3412 16.4232 16.4068C16.538 16.4724 16.6583 16.5544 16.7731 16.6583ZM10.573 9.21159C10.6003 9.28267 10.5894 9.35921 10.5347 9.43576C10.48 9.5123 10.409 9.5615 10.3215 9.58337C9.49043 9.99343 8.66484 10.398 7.83926 10.7972C7.81739 10.7534 7.82832 10.7042 7.87206 10.6441C7.95407 10.5511 7.99235 10.4964 7.99235 10.491C8.24932 10.3434 8.56643 10.1793 8.94369 9.9989C9.97704 9.50137 10.5238 9.23893 10.573 9.21159ZM7.99235 8.88354C7.92127 8.83433 7.85566 8.80153 7.79552 8.78513C7.73537 8.76872 7.66976 8.76872 7.59869 8.78513C7.47294 8.91088 7.39639 9.05303 7.35812 9.21159C7.31985 9.37014 7.30344 9.56697 7.30344 9.80207C7.19956 9.62164 7.10115 9.43575 7.0082 9.25532C6.88245 9.04209 6.72936 8.93821 6.538 8.93821C6.538 8.98195 6.5216 9.04209 6.48332 9.12411C6.44505 9.20612 6.42865 9.2608 6.42865 9.29907C6.42865 9.37015 6.46692 9.42482 6.538 9.45216C6.62001 9.51777 6.68015 9.50136 6.72389 9.39748C6.89885 9.68179 7.07928 9.96063 7.25971 10.2395C7.35265 10.0919 7.41826 9.92236 7.4456 9.72553C7.462 9.5451 7.47294 9.3592 7.48934 9.16784C7.53308 9.1241 7.57135 9.10223 7.60962 9.10223C7.62603 9.10223 7.66976 9.11864 7.75178 9.14598C7.83379 9.17332 7.8994 9.18424 7.94861 9.16784L7.99235 8.88354ZM5.29142 8.56643C5.29142 8.69765 5.24768 8.86713 5.16566 9.06943C5.08365 9.27172 5.03445 9.39201 5.01804 9.43028C4.79934 9.43028 4.57518 9.44122 4.35101 9.46856C4.12685 9.4959 3.88628 9.53416 3.64024 9.58337C3.64024 9.45215 3.67305 9.31547 3.73319 9.17331C3.79333 9.03116 3.85347 8.88901 3.91361 8.75232C4.12685 8.65938 4.35101 8.60469 4.59705 8.58829C4.84308 8.57189 5.07272 8.56643 5.29142 8.56643ZM13.1864 11.6938C13.1044 11.8032 13.0443 12.0328 13.006 12.3882C12.9677 12.7436 12.8748 12.9732 12.7381 13.0825C12.667 13.1482 12.5905 13.2028 12.5194 13.2411C12.4483 13.2794 12.3718 13.3012 12.3007 13.3012C12.257 13.3012 12.2078 13.2903 12.1476 13.2684C11.9672 13.2083 11.8742 13.1044 11.8742 12.9513C11.8742 12.9021 11.8852 12.8201 11.9071 12.7108C11.9289 12.6014 11.9399 12.5194 11.9399 12.4702C11.9399 12.3991 11.918 12.3226 11.8742 12.2406C11.8086 12.2242 11.743 12.2406 11.6774 12.2734C11.661 12.2788 11.6118 12.3116 11.5243 12.3718C11.24 12.749 10.9502 13.0826 10.6495 13.3669C10.3215 13.6785 9.97704 13.9409 9.62165 14.1432C8.98196 14.4932 8.32586 14.6681 7.65336 14.6681C7.4784 14.6681 7.30344 14.6572 7.12849 14.6353C6.69656 14.6353 6.3029 14.4166 5.94751 13.9792C5.72881 13.7113 5.49918 13.3122 5.25861 12.7873C5.01804 12.7873 4.81575 12.8693 4.65719 13.0279C4.54237 13.1427 4.43302 13.3286 4.32914 13.5746C4.23619 13.8535 4.13778 14.1268 4.04483 14.4057C3.97922 14.5806 3.90815 14.7228 3.82613 14.8321C3.76052 14.9579 3.65118 15.018 3.49809 15.018C3.43248 15.018 3.345 15.0071 3.23565 14.9852C3.1263 14.9634 3.04975 14.9524 3.00601 14.9524C2.79278 14.8595 2.62876 14.6955 2.50301 14.4604C2.421 14.3018 2.34992 14.0831 2.28431 13.8043C2.26244 13.7222 2.24604 13.6457 2.24057 13.5637C2.2351 13.4817 2.22963 13.4106 2.22963 13.345C2.22963 13.0333 2.31165 12.76 2.4702 12.5358C2.57955 12.3827 2.72171 12.2406 2.89667 12.1093C3.02242 12.0219 3.19738 11.907 3.42154 11.7704C3.6129 11.661 3.7988 11.5462 3.99016 11.4314C4.21432 11.2947 4.39475 11.1744 4.52597 11.0705C4.7064 10.9338 4.85949 10.7808 4.98524 10.6113C5.11099 10.4418 5.19847 10.2559 5.24768 10.0426C5.15473 10.2231 5.03991 10.3762 4.91416 10.5019C4.78841 10.6277 4.62985 10.748 4.44943 10.8737C4.32367 10.9557 4.15965 11.0541 3.94642 11.1689C3.83707 11.2291 3.66758 11.3166 3.44341 11.4423C3.27392 11.5353 3.1099 11.6391 2.95134 11.754C2.79278 11.8688 2.65063 11.9836 2.53581 12.0984C2.38819 12.257 2.27884 12.421 2.19683 12.5905C2.11482 12.76 2.06561 12.9513 2.03827 13.17C2.01094 13.3887 2 13.602 2 13.8152C2 14.2581 2.06561 14.6572 2.19136 15.0071C2.31711 15.357 2.54128 15.6468 2.85293 15.871C3.09349 15.9803 3.29579 16.035 3.45435 16.035C3.65664 16.035 3.82067 15.9584 3.94642 15.8054C4.0339 15.696 4.11591 15.5101 4.19792 15.2477C4.35648 14.7009 4.45489 14.3947 4.48223 14.3291C4.62985 14.0175 4.83762 13.8261 5.10552 13.7605C5.49918 14.4604 5.73975 14.8595 5.82723 14.9634C6.02406 15.1985 6.24822 15.3516 6.50519 15.4336C6.89338 15.5648 7.28158 15.6304 7.67523 15.6304C8.63751 15.6304 9.48496 15.3188 10.2231 14.7009C10.5128 14.3674 10.8081 14.0284 11.1088 13.6949C11.3111 13.4707 11.5134 13.3286 11.7102 13.2684C11.7102 13.3395 11.7102 13.4489 11.6993 13.5856C11.6993 13.7113 11.7102 13.8152 11.7376 13.8972C11.7649 13.9792 11.8141 14.0503 11.8961 14.1104C12.0219 14.2198 12.1422 14.2745 12.2679 14.2745C12.3171 14.2745 12.3718 14.2635 12.4319 14.2416C12.7217 14.0284 12.9349 13.7551 13.0662 13.4106C13.1755 13.1263 13.2302 12.7709 13.2302 12.3499C13.2302 12.2406 13.2302 12.1257 13.2192 12.0055C13.2083 11.8852 13.2028 11.7813 13.1864 11.6938ZM11.2182 15.5429C11.2182 15.6687 11.1744 15.8108 11.0869 15.9694C10.9393 16.2373 10.8628 16.3849 10.8573 16.4068C10.6167 16.456 10.4144 16.4943 10.2449 16.5216C10.0755 16.5489 9.91689 16.5599 9.76381 16.5599C9.80208 16.3904 9.84582 16.2209 9.89502 16.0459C9.94423 15.871 10.0262 15.7288 10.1356 15.6195L11.2182 15.5429Z" fill="white"/>
</svg>
