<svg width="24" height="24" viewBox="0 0 24 24" fill="none" xmlns="http://www.w3.org/2000/svg">
<path fill-rule="evenodd" clip-rule="evenodd" d="M21.8557 9.50098C21.9544 9.99471 22 10.4809 22 10.9518C22 11.719 21.8785 12.4482 21.6354 13.1394C21.3847 13.7319 21.0885 14.218 20.7619 14.5978C20.3365 15.084 19.858 15.3954 19.3262 15.5397C18.8021 15.722 18.1489 15.8663 17.3665 15.9803C16.6905 16.0638 16.0068 16.155 15.3308 16.2385C16.1663 16.0107 16.8196 15.8132 17.2981 15.6385C18.0273 15.3726 18.673 15.0612 19.2275 14.7118C19.8959 14.2864 20.4201 13.8306 20.8074 13.3521C21.2784 12.7672 21.5518 12.114 21.6278 11.3923C21.6278 11.3316 21.6278 11.2632 21.6278 11.1873C21.6278 11.1113 21.6278 11.0657 21.6278 11.0353C21.6278 10.4201 21.4607 9.75923 21.1189 9.06801C21.0125 8.84013 20.815 8.47552 20.5188 7.97419C20.4656 8.11852 20.4276 8.27044 20.4049 8.41476C20.3821 8.55908 20.3745 8.7262 20.3745 8.93129C20.3745 9.05282 20.3821 9.2655 20.3973 9.56934C20.4125 9.87317 20.4201 10.0327 20.4201 10.0555C20.4201 10.3137 20.3973 10.5264 20.3593 10.6935C20.3213 10.8606 20.2378 11.0277 20.101 11.2025C20.0403 10.648 20.0099 10.0327 20.0099 9.36425C20.0099 8.80215 20.0327 8.27803 20.0782 7.80708C20.1238 7.33614 20.1998 6.85001 20.3137 6.35628C20.6859 6.76646 21.0049 7.245 21.2632 7.7919C21.5215 8.33881 21.7114 8.9085 21.8253 9.50098H21.8557ZM16.1132 7.62479C16.0068 7.51845 15.8853 7.42729 15.7486 7.33614C15.6118 7.24499 15.4675 7.19183 15.3308 7.15385L14.7687 7.95901C14.7459 8.08814 14.8447 8.20967 15.0801 8.3312C15.3156 8.44514 15.4599 8.5363 15.5131 8.59706C15.6422 8.42995 15.7486 8.27044 15.8397 8.11093C15.9309 7.95141 16.0144 7.79189 16.1132 7.61719V7.62479ZM13.8192 6.81963C13.6901 7.00193 13.5154 7.16144 13.2951 7.30576C13.1204 7.4197 12.9001 7.53364 12.6267 7.64758C12.2317 7.81469 11.9506 7.93622 11.7759 8.01218C11.6012 8.08814 11.4265 8.17928 11.2594 8.27043C11.3809 8.07294 11.5404 7.90584 11.7455 7.77671C11.943 7.64758 12.1709 7.53364 12.414 7.43489C12.6646 7.33615 12.9153 7.24499 13.166 7.14624C13.4166 7.0475 13.6369 6.94116 13.8192 6.81963ZM13.1128 8.68821V8.96166C13.1128 9.14397 13.0976 9.29588 13.0672 9.40982C13.0368 9.52376 12.9685 9.63011 12.8545 9.72886C12.7862 9.66049 12.7102 9.62251 12.6343 9.62251C12.5735 9.62251 12.4899 9.66808 12.376 9.76683C12.2621 9.86557 12.1709 9.91115 12.1025 9.91115C12.0494 9.91115 11.9962 9.89597 11.9354 9.85799C11.8595 9.84279 11.7987 9.78203 11.7683 9.69088C11.7683 9.463 11.8367 9.25791 11.9734 9.07561C11.9658 9.18195 11.9582 9.25791 11.9582 9.31108C11.9582 9.43261 12.019 9.49337 12.1405 9.49337C12.3304 9.49337 12.4596 9.37944 12.5203 9.15156C12.5811 8.92368 12.6494 8.78696 12.7178 8.74139C12.7406 8.78696 12.7406 8.86292 12.7178 8.98445C12.6874 9.09839 12.6722 9.17435 12.6722 9.19713C12.6722 9.30348 12.7482 9.34146 12.8925 9.32626C12.9305 9.12877 12.9533 8.97686 12.9761 8.88571C12.9989 8.79456 13.0444 8.72619 13.128 8.68062L13.1128 8.68821ZM19.0072 9.30348C19.0072 8.73378 18.9237 8.1565 18.749 7.57922C18.5818 7.00193 18.354 6.44743 18.0805 5.93091C17.921 6.39426 17.8223 6.88798 17.7767 7.42729C17.7311 7.959 17.7083 8.56668 17.7083 9.25031V10.8834C17.7083 9.66049 17.7919 8.49072 17.9666 7.38932C18.5135 8.46034 18.7869 9.62251 18.7869 10.8758C18.6806 11.1721 18.5287 11.4379 18.3236 11.6658C18.1185 11.8937 17.8754 12.076 17.602 12.2051C17.4349 12.2431 17.2905 12.2583 17.169 12.2583C16.9032 12.2583 16.7664 12.1519 16.7664 11.9317C16.7664 11.8633 16.7892 11.7418 16.8348 11.5671C16.9107 11.2556 16.9487 11.0353 16.9487 10.9138C16.9487 10.7923 16.9411 10.7011 16.9183 10.6404C16.8956 10.5796 16.8576 10.5188 16.7968 10.4581C16.7133 10.4429 16.6373 10.4353 16.5765 10.4353C16.4474 10.4353 16.3183 10.4505 16.1815 10.4884C16.0524 10.5264 15.9461 10.572 15.8549 10.648C15.3232 11.0809 14.8826 11.4379 14.5256 11.719C14.1686 12 13.8952 12.2127 13.7053 12.357C13.2495 12.6837 12.8849 12.9495 12.6115 13.1394C12.2317 13.3901 11.8519 13.6179 11.4873 13.8154C11.0543 14.0509 10.6441 14.2484 10.2643 14.4003C9.88454 14.5598 9.47436 14.6966 9.0414 14.8181C8.60083 14.9396 8.16787 15.0308 7.7349 15.0916C7.30194 15.1523 6.85378 15.1827 6.38283 15.1827C6.52715 14.932 6.64109 14.6738 6.71705 14.4079C6.79301 14.1421 6.83859 13.8382 6.86897 13.504C6.73984 13.5496 6.65629 13.6559 6.61831 13.8306C6.50437 14.1117 6.32966 14.3168 6.09419 14.4535C5.85872 14.5902 5.58526 14.6586 5.27383 14.6586C5.1447 14.5978 5.01557 14.5067 4.89404 14.3851C4.7725 14.2636 4.67376 14.1345 4.5902 14.0053C4.4003 12.038 4.21041 10.0707 4.01291 8.09573H3.94455C3.78504 8.3312 3.67869 8.55908 3.62552 8.78696C3.57235 9.01484 3.54197 9.2807 3.54197 9.58453C3.54197 9.81241 3.60273 10.3821 3.72427 11.3088C3.77744 11.7038 3.80023 12.038 3.80023 12.3267C3.8534 12.9723 3.90657 13.6104 3.96734 14.256C4.08128 14.9852 4.39271 15.5017 4.89404 15.8056C5.00038 15.8284 5.09913 15.8435 5.19787 15.8435C5.35739 15.8435 5.50931 15.8132 5.67641 15.7448C5.83593 15.6764 6.01063 15.5929 6.20813 15.4941C6.80061 15.5701 7.38549 15.6081 7.97038 15.6081C8.55526 15.6081 9.11736 15.5625 9.62628 15.4789C10.7201 15.2966 11.7227 14.8713 12.6419 14.2104C12.9381 13.9902 13.2343 13.7547 13.5382 13.4964C13.6597 13.3901 13.9483 13.1394 14.3965 12.7368C14.7459 12.4254 15.0422 12.1899 15.2928 12.0456C15.627 11.8481 15.9689 11.7114 16.3259 11.643C16.3866 11.6886 16.4246 11.7418 16.4474 11.8025C16.4702 11.8633 16.4778 11.9393 16.4778 12.0228C16.4778 12.0456 16.4626 12.1519 16.4398 12.3418C16.417 12.5317 16.4018 12.6761 16.417 12.79C16.4626 13.0862 16.6297 13.2913 16.9259 13.4053C17.0247 13.4508 17.131 13.4736 17.2678 13.4736C17.4577 13.4736 17.6627 13.3977 17.883 13.2382C17.9438 13.1926 18.1185 13.0483 18.4147 12.7976C18.6578 12.3039 18.8249 11.7494 18.9085 11.1265C18.9692 10.6935 18.9996 10.0934 18.9996 9.32626L19.0072 9.30348ZM9.09457 7.39691C9.01101 7.50325 8.87429 7.62478 8.68439 7.76151C8.49449 7.89824 8.24383 8.05776 7.9324 8.23246C7.49183 8.46034 7.05127 8.68822 6.61831 8.9085C6.73224 8.7186 6.88416 8.55149 7.07406 8.39957C7.26396 8.25525 7.48424 8.11852 7.72731 7.99698C8.18306 7.79949 8.63881 7.5944 9.09457 7.39691ZM3.38245 6.26512C3.35967 6.36386 3.33688 6.43983 3.32169 6.50819C3.30649 6.57656 3.28371 6.62972 3.23813 6.68289C3.19256 6.63732 3.15458 6.61453 3.109 6.61453C3.03304 6.61453 2.94949 6.6677 2.86593 6.76645C2.78238 6.8652 2.70642 6.96394 2.63806 7.04749C2.67604 7.10067 2.78997 7.13866 2.97987 7.15385C3.17736 7.16904 3.28371 7.23739 3.31409 7.35893C3.31409 7.50325 3.2913 7.62479 3.24573 7.73872C3.20015 7.84507 3.12419 7.95901 3.01785 8.07295C2.75199 8.3464 2.41018 8.47553 2 8.47553C2.05317 8.41476 2.25826 8.27803 2.61527 8.07295C2.88112 7.91343 3.01025 7.76152 2.97987 7.602C2.85074 7.6172 2.7444 7.6172 2.66844 7.602C2.59248 7.57922 2.49373 7.53363 2.3722 7.46527C2.3722 7.21461 2.44816 6.97914 2.59248 6.77405C2.7368 6.56896 2.94189 6.37907 3.19256 6.20436C3.2989 6.20436 3.35967 6.22715 3.39005 6.27272L3.38245 6.26512ZM7.43866 16.9981L6.86137 18.0691C6.86137 18.0691 6.66388 17.9704 6.31447 17.8109C6.09419 17.7045 5.97265 17.6058 5.94987 17.4995L6.56514 16.7323L7.43866 17.0057V16.9981Z" fill="white"/>
</svg>
