<svg width="24" height="24" viewBox="0 0 24 24" fill="none" xmlns="http://www.w3.org/2000/svg">
<path fill-rule="evenodd" clip-rule="evenodd" d="M21.7816 13.0656C21.6625 13.6414 21.3845 14.1774 20.9477 14.6672C20.5109 15.1569 20.0079 15.5408 19.4322 15.8121C18.9557 15.8783 18.3137 15.9643 17.5129 16.0636C17.0827 16.1165 16.6923 16.1629 16.3547 16.2026C17.2614 15.8717 17.8173 15.6599 18.0159 15.5805C18.6645 15.3157 19.2138 15.0444 19.6638 14.7598C20.2462 14.4024 20.7095 14.0186 21.047 13.6149C21.4639 13.1119 21.7088 12.556 21.7882 11.9471C21.7948 11.8743 21.8015 11.8081 21.8081 11.7486C21.8147 11.689 21.8081 11.6493 21.8081 11.6162C21.8081 11.239 21.722 10.8683 21.5566 10.5043C21.4176 10.1999 21.2058 9.88225 20.9212 9.5381C20.8352 10.5441 20.7558 11.5566 20.6698 12.5626C20.63 12.4435 20.6036 12.3111 20.5903 12.1721C20.5771 12.0331 20.5705 11.8942 20.5705 11.7552C20.5705 11.6096 20.5837 11.3846 20.6036 11.0867C20.6234 10.7823 20.6367 10.5507 20.6367 10.3852V10.0808C20.6234 10.008 20.6168 9.95506 20.6168 9.92197C20.6367 9.65724 20.6698 9.38589 20.7028 9.10793C20.7359 8.82997 20.7823 8.57847 20.8418 8.34022C21.2455 8.69098 21.5433 9.1344 21.7419 9.67047C21.914 10.1536 22 10.7029 22 11.3052C22 11.6096 21.9801 11.8942 21.9471 12.1655C21.914 12.4368 21.861 12.7413 21.7816 13.0788V13.0656ZM12.6684 7.67841C12.6883 7.73797 12.7015 7.79754 12.7015 7.85049C12.7015 7.91005 12.6949 7.96299 12.675 8.01594C12.6552 8.06227 12.6221 8.14829 12.5692 8.27404C12.503 8.26742 12.4169 8.27405 12.3177 8.30714C12.0728 8.37994 11.9404 8.41964 11.9206 8.41964C11.8279 8.41964 11.7485 8.38656 11.6823 8.32699C11.6691 8.22772 11.6691 8.14167 11.6823 8.06225C11.7022 7.98283 11.7419 7.89019 11.8015 7.7843C11.8147 7.79754 11.8213 7.86372 11.8213 7.97623C11.8213 8.04241 11.8478 8.09536 11.9007 8.12183C12.0463 8.15492 12.139 8.08873 12.1787 7.92328C12.2184 7.75782 12.278 7.67179 12.3441 7.65855C12.3574 7.67841 12.364 7.71813 12.3441 7.77107C12.3309 7.82402 12.3243 7.88357 12.3177 7.94313C12.3177 7.99607 12.3574 8.02917 12.4434 8.03579C12.4765 7.98947 12.4964 7.94976 12.5096 7.91005C12.5625 7.77107 12.5956 7.69827 12.6023 7.68503H12.6618L12.6684 7.67841ZM12.7942 9.76974C12.7545 9.92196 12.6949 10.0675 12.6023 10.2131C12.4765 10.3918 12.3772 10.5242 12.3177 10.6102L11.7353 10.1668L12.2118 9.49839L12.7942 9.76974ZM10.405 9.78959C10.3719 9.91534 10.319 10.0609 10.233 10.2131C10.1205 10.3918 10.0344 10.5242 9.98147 10.6102L9.36598 10.2462C9.38584 10.1205 9.4454 9.98153 9.53805 9.83593C9.57114 9.78298 9.6638 9.65061 9.82263 9.43883C9.93514 9.47192 10.041 9.51164 10.1403 9.5712C10.2396 9.63077 10.3256 9.70356 10.3984 9.78959H10.405ZM20.1006 11.6096C19.9749 11.5103 19.8425 11.4309 19.7167 11.3713C19.591 11.3118 19.452 11.2721 19.3064 11.2588C19.1939 11.1926 19.1013 11.0934 19.0218 10.961C18.9755 10.8948 18.9226 10.7757 18.8498 10.6102C18.8498 10.1801 18.8432 9.78959 18.8233 9.45206C18.8034 9.10792 18.7704 8.79687 18.7174 8.50567C18.6446 8.14168 18.5255 7.81739 18.3733 7.53943C18.221 7.26147 18.0026 7.0166 17.7114 6.81143C17.6056 7.1291 17.5328 7.4534 17.4864 7.79093C17.4401 8.12183 17.4203 8.63804 17.4203 9.33957C17.4203 9.53149 17.4203 9.7168 17.4203 9.90211C17.4203 10.0874 17.4203 10.2727 17.4203 10.4514C17.5261 9.6109 17.632 8.76379 17.7379 7.91667C17.9497 8.14169 18.1152 8.38655 18.2277 8.65127C18.3402 8.916 18.4196 9.22044 18.4659 9.5712C18.5122 9.92197 18.5387 10.1999 18.552 10.3985C18.5652 10.597 18.5718 10.9279 18.5718 11.3912C18.3071 11.6162 18.0424 11.8412 17.7909 12.0596C17.4931 12.3177 17.2283 12.5295 16.9967 12.6949C16.679 12.9266 16.4011 13.1119 16.1694 13.2376C15.8782 13.3965 15.5804 13.5156 15.2694 13.5884C15.6731 13.231 15.9907 12.8869 16.2224 12.556C16.5003 12.1523 16.679 11.7353 16.7452 11.3052C16.7452 11.2456 16.7651 11.0801 16.8048 10.8154C16.818 10.7095 16.8246 10.6169 16.8246 10.5308C16.8246 10.3323 16.7783 10.1734 16.6856 10.0543C16.3349 10.0543 15.9974 10.1337 15.6598 10.2926C15.3289 10.4514 15.0245 10.6632 14.7531 10.9279C14.7862 10.6632 14.7995 10.3588 14.7995 10.0212C14.7995 9.56458 14.7664 9.14764 14.6936 8.76379C14.6208 8.37994 14.5215 8.02255 14.3891 7.69826C14.2568 7.36735 14.0979 7.06953 13.9193 6.80481C13.7273 7.31441 13.6016 7.85048 13.5354 8.41964C13.4692 8.9888 13.4361 9.64399 13.4361 10.3852H13.5023C13.6214 9.59766 13.7472 8.8101 13.8663 8.02254C14.0582 8.28727 14.2038 8.61819 14.3097 9.00866C14.3693 9.22044 14.4355 9.57782 14.5149 10.0874C14.5546 10.2264 14.5745 10.3257 14.5811 10.3918C14.5877 10.458 14.5943 10.5573 14.5943 10.6764C14.5943 10.9213 14.5414 11.2191 14.4355 11.5765C14.2171 12.3111 14.1046 12.7942 14.1046 13.0325C14.1046 13.0987 14.1112 13.2045 14.1244 13.3369C13.8266 13.5354 13.5288 13.6546 13.2177 13.6877C13.2177 13.6546 13.2442 13.4362 13.2972 13.0192C13.3104 12.9001 13.317 12.7678 13.317 12.6222C13.317 12.4832 13.2972 12.3574 13.2641 12.2383C13.231 12.1192 13.178 12.0199 13.0986 11.9273C13.0258 11.8677 12.953 11.8214 12.8934 11.7949C12.8339 11.7684 12.7677 11.7552 12.6883 11.7552C12.642 11.7552 12.589 11.7684 12.5295 11.7883C12.1787 12.0331 11.9471 12.3839 11.8279 12.8538C11.7551 13.145 11.7154 13.5619 11.7154 14.1179C11.5698 14.184 11.4176 14.2436 11.2588 14.2833C11.0999 14.323 10.9411 14.3429 10.7955 14.3429C10.7028 14.3429 10.6367 14.3429 10.5903 14.3296C10.5903 14.1906 10.6102 14.0186 10.6565 13.8068C10.7558 13.3502 10.8021 13.0656 10.8021 12.9531C10.8021 12.7876 10.7756 12.642 10.7161 12.5163C10.6565 12.3905 10.5903 12.2979 10.4977 12.2317C10.4116 12.1655 10.3124 12.1324 10.2065 12.1324C10.1734 12.1324 10.1337 12.139 10.0675 12.1523C9.87558 12.2913 9.72336 12.4501 9.59762 12.6288C9.47187 12.8141 9.3726 13.0126 9.29318 13.231C9.21377 13.4494 9.16082 13.6612 9.14097 13.8531C9.12111 14.045 9.10788 14.2899 9.10788 14.5679C9.01522 14.6142 8.90933 14.6341 8.79021 14.6341C8.70417 14.6341 8.59828 14.6208 8.4593 14.5877C8.0225 14.2237 7.79087 13.5884 7.77763 12.6883C7.76439 11.7883 7.75116 11.2985 7.74454 11.2191C7.67836 11.2721 7.62541 11.3647 7.58571 11.5037C7.52614 11.7089 7.49305 11.8214 7.48643 11.8412C7.27465 12.1457 6.97684 12.3442 6.58637 12.4302C6.50033 12.4633 6.42091 12.4766 6.34811 12.4766C6.22237 12.4766 6.10986 12.4369 6.01059 12.3574C5.91793 12.278 5.82528 12.1721 5.74586 12.0331C5.67968 11.9934 5.63336 12.0199 5.6135 12.0993C5.59365 12.1854 5.57379 12.2317 5.55394 12.2449C5.55394 12.2582 5.53408 12.3376 5.49437 12.4832C5.45467 12.6288 5.43481 12.7413 5.43481 12.8339C5.43481 12.9067 5.45467 12.9729 5.48776 13.0325C5.52085 13.092 5.58041 13.1384 5.66645 13.1847C5.79219 13.4031 5.87161 13.5553 5.9047 13.6281C5.97088 13.7936 6.00397 13.959 6.00397 14.1179C6.00397 14.2767 5.95764 14.4223 5.86499 14.5745C5.65321 14.9716 5.38848 15.2893 5.07081 15.5275C4.71343 15.7989 4.34282 15.9378 3.94573 15.9378C3.85308 15.9378 3.7869 15.9378 3.74057 15.9246C3.48908 15.9246 3.25083 15.8187 3.01257 15.6069C2.83388 15.4415 2.66843 15.2099 2.51621 14.9253C2.37062 14.6341 2.2912 14.3826 2.2912 14.1509C2.2912 14.0252 2.31767 13.873 2.37723 13.7075C2.4368 13.5421 2.54269 13.3634 2.70152 13.1715C2.7677 13.0854 2.86698 12.9861 2.9861 12.8604C3.10523 12.7347 3.29715 12.5494 3.55526 12.3111C3.64791 12.2118 3.74719 12.0927 3.85308 11.9603C3.99868 11.7883 4.10457 11.6162 4.18398 11.4508C4.25678 11.2853 4.29649 11.1066 4.29649 10.9147C4.23031 11.1926 4.07809 11.4706 3.85308 11.742C3.76042 11.8545 3.52217 12.0927 3.13832 12.4567C2.82065 12.7611 2.58901 13.0126 2.44342 13.2046C2.22502 13.5024 2.09927 13.7803 2.05956 14.045C2.01985 14.3098 2.00662 14.4819 2 14.548C2 14.6208 2 14.7003 2 14.7797C2 15.1106 2.05294 15.415 2.15222 15.6864C2.25149 15.9577 2.42356 16.1893 2.6552 16.3813C2.80741 16.5599 2.9861 16.6923 3.19126 16.7717C3.39643 16.8511 3.62144 16.8909 3.8597 16.8909C3.90602 16.8909 3.95897 16.8909 4.02515 16.8909C4.09133 16.8909 4.21046 16.871 4.39576 16.8379C4.72005 16.6989 5.00463 16.5202 5.23627 16.2952C5.4679 16.0702 5.66645 15.7922 5.82528 15.4746C6.12972 14.8657 6.28193 14.2105 6.28193 13.509C6.36797 13.4229 6.54666 13.3104 6.82462 13.1648C7.10258 13.0192 7.30774 12.8803 7.42687 12.7413C7.42687 13.2112 7.45996 13.6678 7.52614 14.1179C7.56585 14.3627 7.6188 14.5811 7.6916 14.7797C7.76439 14.9782 7.86367 15.1635 7.99603 15.3488C8.08206 15.4746 8.24752 15.5408 8.49901 15.5408C8.6777 15.5408 8.863 15.5209 9.04169 15.4812C9.22038 15.4415 9.45864 15.3819 9.74322 15.3025C10.4778 15.3025 11.0205 15.2562 11.3713 15.1635C11.722 15.0709 12.0463 14.8988 12.3574 14.6605C12.5228 14.7002 12.6618 14.7201 12.7809 14.7201C13.0854 14.7201 13.403 14.6341 13.7472 14.4554C14.0913 14.2767 14.4156 14.098 14.7267 13.9259C15.0841 13.9259 15.4282 13.8994 15.7525 13.8531C16.0834 13.8068 16.3746 13.7208 16.6195 13.6083C17.1886 13.3501 17.7115 12.9597 18.2012 12.4236C18.2872 12.331 18.3666 12.2714 18.4527 12.2383C18.5387 12.2052 18.6314 12.1854 18.7505 12.1854C19.1211 12.2846 19.4983 12.3839 19.8756 12.4832L20.094 11.5632L20.1006 11.6096ZM4.7002 13.7803C4.66711 13.8333 4.6274 13.9524 4.56122 14.1311C4.46856 14.4223 4.35606 14.5745 4.22369 14.5944C4.1906 14.548 4.09795 14.4951 3.92588 14.4355C3.76042 14.376 3.67439 14.3098 3.67439 14.2304C3.67439 14.2171 3.68762 14.1708 3.72071 14.0914C3.76042 14.0583 3.8266 13.9392 3.92588 13.7274C3.99868 13.5619 4.08471 13.4759 4.17737 13.4759C4.23031 13.4759 4.28987 13.4958 4.34944 13.5355L4.7002 13.7737V13.7803ZM7.38054 16.1695C7.34745 16.3283 7.32098 16.4938 7.30113 16.6592C7.2548 16.8379 7.182 16.9901 7.08273 17.1026C6.97022 17.1026 6.79153 17.1159 6.55989 17.149C6.32826 17.182 6.14957 17.1953 6.03706 17.1953C5.97088 17.1953 5.91793 17.1953 5.87823 17.1821C5.95103 16.8379 6.05692 16.5666 6.18266 16.3614C6.3415 16.3151 6.5268 16.2754 6.7452 16.2489C6.9636 16.2158 7.16876 16.1893 7.37392 16.1695H7.38054ZM16.4606 11.0801C16.1893 11.1198 15.9312 11.1794 15.6863 11.272C15.4414 11.3647 15.223 11.4971 15.0311 11.6758C14.8392 11.8545 14.687 12.0729 14.5877 12.3376C14.4884 12.5957 14.4355 12.8803 14.4355 13.1715C14.8855 12.9597 15.2892 12.6685 15.6532 12.3111C16.0569 11.9074 16.3216 11.4971 16.4606 11.0867V11.0801ZM13.006 13.1119C13.0192 13.1979 13.039 13.2774 13.0523 13.3502C13.0523 13.3965 13.0258 13.4362 12.9729 13.4627C12.9662 13.4627 12.8934 13.509 12.7545 13.6083C12.6618 13.6678 12.589 13.7009 12.5295 13.7009C12.4633 13.7009 12.4037 13.6744 12.3508 13.6215C12.1721 13.5355 12.0794 13.4097 12.0794 13.2376C12.0794 13.1317 12.1257 13.0457 12.2184 12.9795C12.2912 12.8538 12.3971 12.7876 12.5361 12.7876C12.7478 12.7876 12.9067 12.9001 13.0126 13.1185L13.006 13.1119ZM10.4116 13.8862C10.2727 14.012 10.1734 14.098 10.1138 14.1377C9.99471 14.2105 9.87558 14.237 9.76307 14.2171C9.67703 14.1973 9.61085 14.1443 9.55791 14.0583C9.50496 13.9723 9.46525 13.8862 9.43216 13.787C9.41893 13.6943 9.45864 13.595 9.56453 13.4825C9.6638 13.37 9.72336 13.2972 9.74322 13.2641C9.8094 13.1979 9.88881 13.1648 9.98147 13.1648C10.0741 13.1648 10.1602 13.1979 10.2462 13.2575C10.3322 13.3171 10.3852 13.3832 10.405 13.4428C10.4249 13.509 10.4381 13.5619 10.458 13.6083C10.4712 13.6546 10.4778 13.6943 10.4778 13.734C10.4778 13.7936 10.458 13.8465 10.4116 13.8928V13.8862Z" fill="white"/>
</svg>
