<svg width="24" height="24" viewBox="0 0 24 24" fill="none" xmlns="http://www.w3.org/2000/svg">
<path fill-rule="evenodd" clip-rule="evenodd" d="M22 11.4106C22 11.8442 21.9606 12.2779 21.8817 12.7076C21.8029 13.1374 21.6925 13.571 21.5466 14.0126C21.3653 14.4738 21.0696 14.8247 20.6675 15.0731C20.3402 15.2742 19.9184 15.42 19.398 15.5068C19.1969 15.5462 18.7317 15.5935 18.0063 15.6566C18.4242 15.5541 18.8421 15.4082 19.2639 15.2111C19.6858 15.014 20.0761 14.7774 20.427 14.5014C20.8449 14.1663 21.1642 13.8352 21.3929 13.5079C21.6767 13.0979 21.8186 12.68 21.8186 12.2503C21.8186 11.8206 21.7477 11.4382 21.6018 11.0833C21.4559 10.7285 21.247 10.3776 20.9671 10.0386V11.1661C20.9671 11.584 20.9671 11.9152 20.975 12.1636C20.9829 12.4119 21.0026 12.6958 21.042 13.0112C20.9395 12.7589 20.8725 12.4711 20.837 12.1517C20.8015 11.8285 20.7857 11.4697 20.7857 11.0715V10.6497C20.7857 10.5077 20.7857 10.3658 20.7936 10.2199C20.7936 9.97552 20.8094 9.74685 20.8449 9.53396C20.8803 9.32107 20.9434 9.15154 21.038 9.0175C21.3653 9.34472 21.6058 9.71137 21.7635 10.1135C21.9172 10.5156 21.9961 10.9493 21.9961 11.4106H22ZM17.9511 9.30924C17.9708 9.34867 17.9748 9.38809 17.959 9.42752C17.9472 9.46694 17.9038 9.53791 17.825 9.63252C17.8052 9.65224 17.7855 9.65618 17.7698 9.64041C17.7185 9.60098 17.683 9.60098 17.6554 9.63252L17.4583 9.86907C17.4898 9.88878 17.5608 9.90849 17.6673 9.93609C17.7737 9.95975 17.8368 10.0149 17.8565 10.0977C17.8683 10.2002 17.8328 10.3067 17.754 10.421C17.7027 10.4841 17.6554 10.5432 17.6121 10.6024C17.4425 10.6852 17.3322 10.7364 17.2809 10.7522C17.135 10.8074 17.0207 10.8389 16.93 10.8389C16.8591 10.8389 16.8039 10.8271 16.7605 10.7995C17.0207 10.697 17.2139 10.6181 17.3479 10.559C17.482 10.4999 17.5845 10.4289 17.6594 10.3461C17.6278 10.2909 17.5726 10.2475 17.4898 10.2239C17.344 10.1726 17.2691 10.149 17.2612 10.149C17.3046 9.95975 17.3873 9.78628 17.5056 9.62464C17.6239 9.463 17.7737 9.36049 17.9511 9.31713V9.30924ZM16.1928 8.64691C16.1494 8.77307 16.0666 8.91894 15.9484 9.08058C15.9286 9.10424 15.8616 9.19097 15.7512 9.33684L15.1441 8.98596C15.1756 8.89135 15.219 8.80461 15.2781 8.72182C15.29 8.70211 15.4082 8.56018 15.629 8.29604C15.7749 8.34729 15.8774 8.38671 15.9405 8.41825C16.0587 8.47345 16.1455 8.5523 16.1967 8.64691H16.1928ZM18.9919 12.2897C18.9525 11.9349 18.8736 11.6077 18.7514 11.3041C18.6292 11.0005 18.4636 10.7443 18.2547 10.5275C18.1206 11.1898 18.0418 11.6313 18.0142 11.8482C17.9866 12.065 17.9708 12.3134 17.9708 12.5894C17.9708 12.7234 17.9787 12.8614 17.9905 13.0112C18.0024 13.161 18.0221 13.2911 18.0457 13.4054C18.1285 13.1965 18.1877 12.9087 18.2271 12.5342C18.2468 12.3331 18.2705 12.0216 18.302 11.6077C18.5937 12.0492 18.7357 12.5736 18.7357 13.1768C18.7357 13.2951 18.7081 13.4252 18.6568 13.5592C18.6016 13.6932 18.4952 13.8785 18.3296 14.1111C18.1088 14.4029 17.8526 14.6315 17.5648 14.8011C17.3637 14.8011 17.2099 14.7932 17.1074 14.7735C17.0049 14.7538 16.9103 14.6986 16.8275 14.6039C16.9616 14.2964 17.0562 14.0283 17.1193 13.7997C17.206 13.4843 17.2533 13.2004 17.2533 12.9481C17.2533 12.6248 17.2296 12.3292 17.1784 12.0532C17.1271 11.7772 17.0365 11.5328 16.9024 11.312C16.7526 11.6668 16.6698 11.8561 16.658 11.8797C16.4924 12.2661 16.3741 12.5972 16.2992 12.8732C16.2362 13.0624 16.1888 13.2517 16.1612 13.437C16.1336 13.6223 16.1179 13.8076 16.1179 13.9889C16.1179 14.0007 16.1179 14.0757 16.1258 14.2097C16.1336 14.3437 16.1455 14.4581 16.1652 14.5448C15.8616 14.805 15.4634 15.0258 14.9746 15.2071C14.5448 15.3451 14.1151 15.4831 13.6893 15.625C14.2492 15.625 14.7144 15.6014 15.081 15.5501C15.6093 15.4752 16.0509 15.3451 16.4057 15.1638C16.4766 15.2387 16.5437 15.3175 16.6146 15.3964C16.6856 15.4752 16.7566 15.5383 16.8315 15.5817C16.9379 15.6526 17.0759 15.6842 17.2494 15.6842C17.3243 15.6842 17.4071 15.6763 17.4898 15.6645C17.5766 15.6526 17.6475 15.6408 17.7106 15.625C18.1916 15.2544 18.5267 14.7971 18.7238 14.2531C18.8263 14.0086 18.9012 13.7642 18.9525 13.5198C19.0037 13.2753 19.0274 13.0151 19.0274 12.7392C19.0274 12.5894 19.0195 12.4356 18.9998 12.2858L18.9919 12.2897ZM12.7865 9.28953C12.7668 9.36444 12.7234 9.43146 12.6525 9.48665C12.5815 9.54185 12.5066 9.58916 12.4238 9.62858C11.7497 9.88878 11.2174 10.0938 10.835 10.2515C10.287 10.4801 9.76661 10.7128 9.2738 10.9532C9.28563 10.8902 9.31717 10.8231 9.36842 10.7482C9.41967 10.6773 9.50246 10.5945 9.62468 10.5077C10.0899 10.3382 10.6024 10.145 11.1583 9.92426C11.7142 9.70743 12.2543 9.49454 12.7865 9.28559V9.28953ZM15.5029 13.9929C15.4319 14.1072 15.3609 14.2255 15.2821 14.3477C15.2032 14.4699 15.1165 14.5842 15.0219 14.6828C14.9903 14.6512 14.8918 14.6 14.7301 14.5251C14.5646 14.4541 14.4857 14.3713 14.4857 14.2846C14.5882 14.1348 14.6671 14.0205 14.7223 13.9456C14.8287 13.7957 14.9312 13.7169 15.0258 13.7169C15.0692 13.7169 15.1126 13.7248 15.148 13.7445C15.2505 13.7957 15.3254 13.8391 15.3806 13.8706C15.4358 13.9061 15.4753 13.9456 15.5068 13.9889L15.5029 13.9929ZM15.7788 10.9256C15.7788 10.9256 15.7355 11.0005 15.6645 11.1346C15.6211 11.2174 15.5778 11.2765 15.5305 11.3159C15.3964 11.4303 15.2427 11.4855 15.0652 11.4855C15.0258 11.4855 14.9706 11.4776 14.8957 11.4658C14.7499 11.4263 14.6473 11.3317 14.5843 11.174C14.5448 11.036 14.5133 10.898 14.4818 10.7561L14.2452 11.4263C14.2452 11.5288 14.2846 11.7851 14.3596 12.203C14.3911 12.3804 14.4069 12.5342 14.4069 12.6682C14.2886 12.818 14.1506 12.9363 13.9968 13.0191C13.8431 13.1019 13.6736 13.1413 13.4922 13.1413C13.4094 13.1019 13.3542 13.0506 13.3266 12.9836C13.299 12.9166 13.2833 12.8298 13.2833 12.7234C13.2833 12.7116 13.2833 12.6721 13.2911 12.6091C13.299 12.546 13.303 12.4829 13.3109 12.4198C13.2399 12.3173 13.1492 12.27 13.0349 12.27C12.9915 12.27 12.96 12.2779 12.9403 12.2897C12.3647 12.6919 12.0217 12.9323 11.9074 13.0073C11.5368 13.2596 11.1859 13.4764 10.8587 13.6617C10.492 13.8706 10.149 14.0481 9.82574 14.19C9.50246 14.3359 9.18313 14.4462 8.85985 14.5251C8.53657 14.6039 8.22511 14.6434 7.92155 14.6434C7.55096 14.6434 7.20402 14.5882 6.88468 14.4738C6.56535 14.3595 6.28149 14.1821 6.02917 13.9337C5.8084 13.5237 5.65464 13.0979 5.56397 12.6524C5.47723 12.2069 5.42992 11.7062 5.42992 11.1425C5.42992 10.5196 5.4181 9.97551 5.39838 9.51031C5.37473 9.0451 5.32348 8.61143 5.24069 8.20142C5.10664 8.41037 5.02385 8.55624 4.98443 8.64691C4.90164 8.82432 4.86221 8.98596 4.86221 9.13972C4.86221 9.26588 4.88192 9.37232 4.91741 9.463C5.02385 9.90455 5.09087 10.5748 5.11453 11.4736C5.13818 12.3725 5.18943 13.0112 5.26434 13.3897C5.39838 14.0914 5.66253 14.6512 6.06071 15.0731C6.32091 15.2387 6.57323 15.3569 6.82555 15.4279C7.07786 15.4989 7.34989 15.5383 7.63769 15.5383C7.80721 15.5383 7.96885 15.5265 8.12655 15.5068C8.28031 15.4831 8.44983 15.4476 8.63118 15.3964C8.98995 15.3018 9.41179 15.1362 9.88882 14.9036C10.0978 14.8011 10.4802 14.5961 11.0321 14.2885C11.4224 14.0126 11.8127 13.7327 12.207 13.4567C12.4711 13.2753 12.7195 13.1413 12.9442 13.0585C13.0309 13.1098 13.0783 13.1847 13.0783 13.2872C13.0783 13.3384 13.0704 13.4094 13.0585 13.504C13.0585 13.5868 13.0783 13.6499 13.1137 13.6932C13.1374 13.7957 13.2005 13.8706 13.299 13.9219C13.3976 13.9731 13.5001 13.9968 13.6065 13.9968C13.8076 13.9968 13.9771 13.9298 14.1191 13.7997C14.2255 13.6972 14.3201 13.5513 14.4029 13.3542C14.4423 13.2596 14.5054 13.0388 14.6 12.6919C14.6434 12.5223 14.6828 12.4001 14.7144 12.3331C14.7538 12.341 14.7932 12.3449 14.8366 12.3528C14.88 12.3607 14.9233 12.3607 14.9588 12.3607C15.0337 12.3607 15.0928 12.3528 15.1402 12.337C15.1835 12.3213 15.219 12.3016 15.2427 12.274C15.4555 12.1596 15.5975 11.9586 15.6684 11.6668C15.7 11.4224 15.7315 11.174 15.7631 10.9296L15.7788 10.9256ZM10.4802 11.5683L10.3935 11.7772L10.1845 11.655C10.1333 11.9586 10.0899 12.1833 10.0465 12.3331C10.0071 12.4829 9.94796 12.6012 9.87305 12.6958C9.81786 12.6524 9.73113 12.4829 9.6168 12.1951C9.534 11.9822 9.40785 11.8837 9.23832 11.9034C9.21467 11.8639 9.21072 11.8206 9.23438 11.7654C9.25803 11.7102 9.28957 11.6589 9.33294 11.6077C9.37236 11.5367 9.43544 11.517 9.53006 11.5407C9.60497 11.6116 9.6641 11.7062 9.71141 11.8324C9.81392 12.1281 9.89277 12.3055 9.94796 12.3607C9.9795 12.1202 10.0071 11.931 10.0347 11.793C10.0899 11.5288 10.1687 11.3948 10.2634 11.3948C10.3343 11.3948 10.4053 11.45 10.4802 11.5643V11.5683ZM7.56673 10.1411C7.54307 10.2475 7.50759 10.354 7.46422 10.4525C7.38932 10.5905 7.33412 10.693 7.30258 10.7561C7.3972 10.5353 7.44451 10.2949 7.44451 10.0386C7.44451 9.86907 7.42086 9.70349 7.37355 9.54579C7.32624 9.38809 7.25527 9.25405 7.16065 9.13972L7.30258 8.92288C7.3972 9.03721 7.47605 9.17126 7.53519 9.32501C7.59432 9.47877 7.62586 9.63252 7.62586 9.78234C7.62586 9.90849 7.60615 10.0268 7.57067 10.1411H7.56673ZM12.5066 14.8444C12.5066 15.0021 12.4593 15.1677 12.3647 15.3451C12.3331 15.4003 12.2701 15.4949 12.1754 15.629C11.9744 15.629 11.7654 15.6487 11.5446 15.6842C11.3278 15.7236 11.1149 15.7591 10.906 15.7985C10.9257 15.6842 10.9651 15.562 11.0282 15.4279C11.1149 15.2781 11.178 15.1638 11.2174 15.0889C11.3515 15.0494 11.5052 15.01 11.6826 14.9666C11.998 14.8839 12.274 14.8444 12.5066 14.8444ZM4.16046 11.9034C4.16046 12.0414 4.13286 12.1951 4.07372 12.3686C4.0619 12.4119 4.00276 12.5657 3.89237 12.822C3.83718 12.7668 3.77016 12.7352 3.69525 12.7352C3.62429 12.7352 3.55332 12.7589 3.48236 12.8022C3.41139 12.8456 3.34043 12.9008 3.27735 12.9639C3.19062 13.0506 3.13542 13.1334 3.11571 13.2083C3.18667 13.2596 3.35226 13.2951 3.6164 13.3187C3.88054 13.3424 4.03824 13.4252 4.08949 13.571C3.98305 13.8943 3.8766 14.2136 3.76621 14.5369C3.5888 14.8957 3.3286 15.077 2.98167 15.077C2.88705 15.077 2.75695 15.0928 2.59531 15.1204C2.42973 15.148 2.31934 15.1638 2.26414 15.1638C2.1577 15.1638 2.06702 15.148 2 15.1165C2.37059 14.9469 2.6505 14.8168 2.83185 14.7301C3.15514 14.5724 3.40351 14.3989 3.58092 14.2097C3.54938 14.186 3.50995 14.1703 3.46265 14.1624C3.41534 14.1545 3.36014 14.1545 3.29706 14.1545C3.21033 14.1624 3.14725 14.1624 3.10783 14.1624C3.01321 14.1624 2.93436 14.1466 2.86734 14.119C2.80032 14.0914 2.74906 14.0323 2.70964 13.9456C2.74906 13.7011 2.80032 13.4606 2.87128 13.232C2.94224 13.0033 3.03292 12.7825 3.14725 12.5775C3.26158 12.3725 3.40351 12.2109 3.57698 12.0887C3.75044 11.9704 3.94362 11.9073 4.16046 11.9073V11.9034ZM17.001 13.4094C16.9616 13.5277 16.9024 13.6538 16.8196 13.7879C16.7684 13.8706 16.6935 13.985 16.591 14.1269C16.4412 13.9771 16.3623 13.8036 16.3623 13.6065C16.3623 13.5552 16.3623 13.5119 16.3702 13.4803C16.3781 13.4449 16.3939 13.37 16.4175 13.2596C16.5318 12.956 16.6462 12.6524 16.7566 12.3528C16.8315 12.5302 16.8906 12.6997 16.93 12.8693C16.9694 13.0348 16.9931 13.2162 16.9931 13.4133L17.001 13.4094Z" fill="white"/>
</svg>
