<svg width="24" height="24" viewBox="0 0 24 24" fill="none" xmlns="http://www.w3.org/2000/svg">
<path fill-rule="evenodd" clip-rule="evenodd" d="M21.9516 11.02C21.9879 11.3708 22 11.7096 22 12.0605C22 13.4519 21.7217 14.7828 21.1773 16.0411C20.7659 17.2631 20.0278 18.1948 18.9631 18.8239C18.092 19.3442 16.9909 19.6951 15.6479 19.8645C14.8857 19.9613 13.712 20.0097 12.1149 20.0097C14.3775 19.683 16.3013 19.0538 17.8742 18.1222C19.8342 16.9607 21.0684 15.3999 21.5886 13.464C21.5886 12.4235 21.4555 11.4555 21.2015 10.5481C20.9353 9.64064 20.536 8.8179 19.9915 8.09195C19.9673 8.27343 19.9552 8.46702 19.9552 8.68481V9.19297C19.9552 9.58015 19.9552 9.99152 19.9794 10.4029C19.9794 10.8143 20.0036 11.2256 20.0157 11.637C20.0157 12.2541 19.9794 12.8106 19.8947 13.3188C19.7858 12.9316 19.7011 12.4598 19.6528 11.9032C19.6044 11.3587 19.5681 10.8143 19.5681 10.2819C19.5681 9.82213 19.5681 9.35026 19.5802 8.87839C19.5802 8.40653 19.6044 7.93466 19.6165 7.46279C19.6407 7.36599 19.677 7.14821 19.7253 6.82153C19.7737 6.48275 19.8584 6.24077 19.9794 6.07138C21.1289 7.45069 21.7943 9.10828 21.9637 11.0321L21.9516 11.02ZM12.6594 7.00302C12.5989 6.90622 12.5384 6.80943 12.49 6.70054C12.4416 6.59164 12.3569 6.54325 12.248 6.55535C12.0302 6.64004 11.8609 6.77313 11.7399 6.97882C11.6189 7.17241 11.5463 7.39019 11.5463 7.63218C11.5463 7.81366 11.6673 7.94675 11.8972 8.03145C12.127 8.11614 12.2722 8.21294 12.3327 8.30973C11.7399 8.91469 11.147 9.51965 10.5662 10.1125C11.1712 9.72534 11.5342 9.48336 11.6552 9.39866C12.0302 9.08408 12.3085 8.7574 12.4779 8.39443C12.5384 8.39443 12.611 8.40652 12.7078 8.40652C12.8772 8.40652 12.9619 8.35813 12.9619 8.26133C12.9619 8.23714 12.9014 8.10404 12.7683 7.87416C12.6473 7.63218 12.5868 7.43859 12.5868 7.2813C12.5868 7.17241 12.611 7.07561 12.6594 6.99092V7.00302ZM9.28373 7.2692C9.07804 7.48698 8.84816 7.68057 8.58197 7.87416C8.43678 7.98305 8.24319 8.10404 8.01331 8.24923C7.67453 8.45492 7.34785 8.64851 7.00907 8.8421C7.05747 8.61221 7.19056 8.40653 7.39625 8.21294C7.61404 8.01935 7.94071 7.83786 8.37629 7.64427C8.67877 7.52328 8.96915 7.40229 9.27163 7.2692H9.28373ZM18.1283 9.76164C18.0315 9.58015 17.9226 9.45916 17.7774 9.39866C17.6443 9.33816 17.4749 9.30187 17.2813 9.30187C17.245 9.30187 16.9062 9.35026 16.265 9.45916C16.0714 9.49545 15.8899 9.49545 15.6963 9.47126C15.539 9.41076 15.4422 9.33816 15.3817 9.26557C15.3333 9.19297 15.297 9.08408 15.297 8.95099C15.297 8.87839 15.3091 8.7816 15.3454 8.63641C15.3817 8.50332 15.418 8.38233 15.4543 8.27343C15.4906 8.17664 15.5632 8.00725 15.6721 7.77737C15.781 7.48698 15.8415 7.2208 15.8657 6.97882C15.9625 6.65214 16.0109 6.34966 16.0109 6.07138C16.0109 5.7084 15.9504 5.34542 15.8173 4.98245C15.6842 4.63157 15.5269 4.29279 15.3212 3.99031C15.1276 3.68783 14.8857 3.38535 14.6195 3.09497C14.2686 3.76043 14.0024 4.61947 13.7967 5.6842C13.6878 6.27706 13.5306 7.17241 13.337 8.38233C13.4096 8.14034 13.5789 7.54748 13.833 6.60374C14.0387 5.87779 14.2081 5.32123 14.3533 4.92195C14.4985 5.05504 14.6316 5.22443 14.7405 5.41802C14.7889 5.50271 14.8736 5.6721 14.9946 5.91409C15.1397 6.26496 15.2123 6.64004 15.2123 7.03931C15.2123 7.43859 15.1155 8.01935 14.9099 8.7937C14.801 9.18087 14.7163 9.53175 14.6558 9.83423C14.2081 10.2819 13.8088 10.8264 13.458 11.4434C13.1071 12.0605 12.9377 12.605 12.9377 13.0647C12.974 13.4035 13.0829 13.6334 13.2644 13.7786C13.0103 13.948 12.5868 14.2262 11.994 14.6376C11.0986 15.2789 10.6509 15.9443 10.6509 16.6219C9.93708 16.755 9.36842 16.9486 8.93285 17.1906C8.35209 17.5293 7.98911 17.9891 7.85602 18.582C7.42045 19.199 6.76709 19.683 5.90805 20.0218C5.1337 20.2759 4.35935 20.5178 3.585 20.7719C3.94797 20.8566 4.23835 20.905 4.46824 20.905C4.69812 20.905 4.91591 20.905 5.0974 20.905H6.27102C6.83969 20.905 7.34785 20.5057 7.78342 19.7072C8.1464 19.0538 8.35209 18.6909 8.38838 18.6425C9.683 18.2795 10.9776 17.9044 12.2843 17.5414C12.732 17.4688 13.0708 17.1906 13.2886 16.7066C13.4217 16.3073 13.5547 15.8959 13.6999 15.4725C13.5185 15.3515 13.2523 15.291 12.9014 15.2789C12.5505 15.2789 12.3327 15.2547 12.248 15.2305L13.9298 14.1778C14.0992 14.202 14.2081 14.2141 14.2686 14.2141C14.5227 14.2141 14.7405 14.1778 14.9462 14.0932C15.1518 14.0206 15.3938 13.8996 15.6963 13.7423C16.4828 13.4277 17.0877 12.8832 17.5112 12.0847C17.8863 11.3829 18.0799 10.6086 18.0799 9.76164H18.1283ZM9.6346 11.2377C9.48941 11.5765 9.38052 11.8306 9.29583 11.9879C9.15064 12.2783 8.98125 12.4356 8.79976 12.484C8.73926 12.3993 8.56987 12.2904 8.27949 12.1573C7.98911 12.0242 7.85602 11.8911 7.85602 11.7701C7.85602 11.7217 7.88022 11.637 7.94071 11.516C7.97701 11.4797 8.06171 11.2982 8.1948 10.9595C8.29159 10.6933 8.41258 10.5723 8.56987 10.5723C8.65457 10.5723 8.73926 10.5965 8.83606 10.657C9.04174 10.7659 9.18693 10.8385 9.25953 10.8869C9.40472 10.9837 9.52571 11.0925 9.6346 11.2256V11.2377ZM4.22626 10.2698C4.15366 10.3787 4.06897 10.5723 3.98427 10.8385C3.89958 11.1167 3.81488 11.3103 3.76649 11.4313C3.68179 11.4313 3.5608 11.4071 3.39141 11.395C3.22202 11.395 3.01633 11.3829 2.76225 11.3829H2.0242C2.0242 11.1651 2.08469 10.9232 2.21779 10.657C2.27828 10.5239 2.41137 10.294 2.60496 9.95522C2.76225 9.95522 2.93164 9.95522 3.10103 9.95522C3.28252 9.95522 3.464 9.93103 3.65759 9.90683C3.83908 9.90683 3.97217 9.93103 4.08106 9.99152C4.17786 10.0399 4.23835 10.1488 4.23835 10.2819L4.22626 10.2698ZM4.98851 14.7465C4.98851 15.9564 4.80702 16.876 4.43194 17.5172C4.12946 18.0254 3.69389 18.3884 3.11313 18.582C3.06473 18.5941 2.99214 18.6062 2.88324 18.6062C2.64126 18.6062 2.41137 18.5215 2.18149 18.3521C2.0605 18.1464 2 17.9407 2 17.7108C2 17.4567 2.0726 17.1301 2.20569 16.7308C2.33878 16.3315 2.42347 16.0532 2.44767 15.9322C2.52027 15.8354 2.68966 15.5572 2.94374 15.0974C3.31881 14.4198 3.71809 14.0811 4.11736 14.0811C4.23835 14.0811 4.34725 14.1053 4.44404 14.1416C4.54083 14.1778 4.63763 14.2625 4.73442 14.3835C4.77072 14.4198 4.85541 14.5408 4.98851 14.7586V14.7465ZM12.3327 7.58378C12.2843 7.49908 12.2359 7.41439 12.1875 7.3297C12.0907 7.2813 12.0061 7.2329 11.9214 7.1845C11.9214 7.2813 11.9577 7.35389 12.0423 7.41439C12.1149 7.47489 12.2117 7.52328 12.3327 7.57168V7.58378ZM17.4749 11.1167C17.4023 11.0079 17.3176 10.9353 17.2208 10.8869C17.124 10.8385 17.0151 10.8143 16.8941 10.8143C16.7489 10.8143 16.5796 10.8385 16.3739 10.899C16.1682 10.9474 15.9867 11.0079 15.8052 11.0563C15.6842 11.5765 15.5148 12.0968 15.2849 12.605C15.66 12.3993 16.0472 12.2057 16.4223 12C16.6279 11.879 16.7731 11.7943 16.8457 11.7338C17.0877 11.5644 17.2934 11.3708 17.4749 11.1288V11.1167ZM14.9583 12.5929C15.0067 12.5082 15.0309 12.4235 15.0309 12.3267C15.0309 12.2904 15.0309 12.2178 14.9946 12.1089C14.9704 12 14.9583 11.9153 14.9583 11.8427C14.9099 11.5765 14.7526 11.4555 14.4743 11.4555C14.3654 11.4555 14.2565 11.4797 14.1476 11.5281C14.0387 11.5765 13.9298 11.637 13.8451 11.7096C13.7604 11.7822 13.712 11.879 13.712 11.9637C13.712 12.0726 13.7483 12.1694 13.833 12.2783C13.9177 12.3872 14.0024 12.4719 14.0992 12.5566C14.1839 12.5808 14.2807 12.605 14.3896 12.6412C14.4985 12.6654 14.5953 12.6896 14.68 12.6896C14.7768 12.6896 14.8736 12.6654 14.9704 12.605L14.9583 12.5929ZM4.32305 16.3073C4.32305 16.5009 4.20206 16.6703 3.94797 16.8034C3.87538 16.8397 3.76649 16.9002 3.62129 16.9849C3.42771 17.0091 3.29462 17.0212 3.23412 17.0212C3.00423 17.0212 2.83485 16.9486 2.70175 16.8034C2.82275 16.3194 3.11313 15.9322 3.5729 15.6661C3.74229 15.6661 3.89958 15.7386 4.03267 15.8838C4.12946 15.9806 4.22626 16.1258 4.32305 16.3073Z" fill="white"/>
</svg>
