<svg width="24" height="24" viewBox="0 0 24 24" fill="none" xmlns="http://www.w3.org/2000/svg">
<path fill-rule="evenodd" clip-rule="evenodd" d="M18.3885 7.88537C18.3769 7.99587 18.3478 8.10637 18.3071 8.21686C18.2954 8.25757 18.2082 8.42041 18.0454 8.71701C17.9988 8.63559 17.9639 8.58325 17.9465 8.55999C17.8942 8.49602 17.836 8.45531 17.7778 8.43786C17.5917 8.50183 17.394 8.64141 17.1905 8.84496C17.0102 9.03106 16.8357 9.21716 16.6612 9.40326C16.7136 9.06595 16.8822 8.72864 17.1614 8.39715C17.394 8.12382 17.6906 7.86793 18.0512 7.62949C18.1151 7.62949 18.1849 7.65856 18.2605 7.7109C18.3361 7.76325 18.3769 7.8214 18.3885 7.89119V7.88537ZM21.9942 11.2526C21.9942 10.7757 21.9244 10.3105 21.7906 9.85688C21.6569 9.40907 21.4591 9.01361 21.2091 8.6763C21.0637 9.10666 20.959 9.58354 20.895 10.0953C20.8311 10.6071 20.802 11.4097 20.802 12.4914H20.8543C20.9067 12.2238 20.9532 11.8749 20.9823 11.4445C21.0462 10.5664 21.116 9.99064 21.18 9.72893C21.3835 10.0895 21.5289 10.4675 21.6162 10.8746C21.6976 11.2759 21.7383 11.7179 21.7383 12.2006C21.5871 12.7938 21.2672 13.3172 20.7787 13.7708C20.3949 14.1314 19.8773 14.4571 19.2434 14.7595C18.9642 14.8932 18.4117 15.1142 17.5976 15.4166H17.7197C18.1617 15.3585 18.8014 15.2654 19.6447 15.1491C20.3309 14.963 20.895 14.5501 21.3312 13.9104C21.558 13.5382 21.7267 13.1253 21.8372 12.6775C21.9477 12.2297 22 11.7586 22 11.2643L21.9942 11.2526ZM18.5571 13.6894C18.5862 13.7417 18.5746 13.8115 18.5281 13.9046C18.5164 13.9395 18.4699 14.0034 18.3885 14.1081C18.15 14.271 18.0163 14.3582 17.9872 14.3698C17.9 14.4105 17.8127 14.428 17.7197 14.428C17.6266 14.428 17.5336 14.3931 17.4405 14.3291C17.2486 14.4047 17.0393 14.5094 16.8124 14.6606C16.5449 14.8467 16.3472 14.9805 16.2134 15.0677C15.975 15.2189 15.754 15.341 15.5563 15.4225C15.3585 15.5039 15.1375 15.5446 14.9049 15.5446C15.1085 15.4864 15.3353 15.3876 15.5737 15.2538C15.7656 15.1491 15.975 15.0154 16.2018 14.8525C16.6147 14.5792 17.0276 14.3058 17.4405 14.0325C17.4871 14.0209 17.551 14.0325 17.6325 14.0848C17.7139 14.1372 17.772 14.1605 17.8069 14.1605C17.8534 14.1605 17.9 14.1256 17.9465 14.0616C17.929 13.9976 17.9349 13.9395 17.9756 13.8871C18.0163 13.8348 18.057 13.7883 18.0977 13.7417H18.15L18.0977 14.0325C18.1617 14.0441 18.2315 14.0325 18.3071 13.9802C18.3827 13.9336 18.4641 13.8348 18.5571 13.6778V13.6894ZM19.9936 9.18808C19.9936 8.83914 19.9529 8.48439 19.8773 8.118C19.8017 7.7458 19.697 7.38523 19.5749 7.02466C19.2725 7.58878 19.0864 7.96098 19.0049 8.13545C18.6735 8.86822 18.5048 9.50212 18.5048 10.043C18.6502 9.63588 18.8014 9.22879 18.9526 8.82169C19.0631 8.54254 19.1736 8.31573 19.2725 8.14126C19.3539 8.3797 19.4353 8.61814 19.5109 8.8624C19.5923 9.13574 19.633 9.38581 19.633 9.62425C19.633 9.70567 19.633 9.76964 19.6214 9.81617C19.4935 10.0604 19.319 10.2814 19.1038 10.4733C18.8828 10.6653 18.6502 10.8106 18.4059 10.9037C18.342 10.863 18.3071 10.8048 18.3071 10.7234C18.3071 10.6711 18.3187 10.5896 18.3361 10.4733C18.3361 10.4268 18.3245 10.3861 18.3071 10.3454C18.2722 10.3803 18.1966 10.5489 18.0744 10.863C17.9872 11.0898 17.8476 11.2003 17.6557 11.2003C17.5801 11.1538 17.5452 11.0665 17.5452 10.9386C17.5568 10.8339 17.5743 10.7234 17.5859 10.6071C17.5045 10.6071 17.4522 10.6653 17.4289 10.7757C17.4056 10.8862 17.3882 10.9502 17.3824 10.956C17.3242 11.1072 17.2195 11.2236 17.0683 11.2933C16.9171 11.3689 16.7485 11.4038 16.5566 11.4038C16.3995 11.3748 16.2716 11.2584 16.1844 11.0549C16.0797 10.7932 15.9924 10.6362 15.9227 10.5838C15.8878 10.5548 15.8354 10.5431 15.754 10.5431C15.6144 10.5431 15.5097 10.5664 15.4341 10.6129C15.2073 10.6943 15.0154 10.8048 14.8642 10.9502C14.713 11.0956 14.5909 11.2701 14.4978 11.462C14.4106 11.6597 14.3408 11.8575 14.3059 12.0552C14.2652 12.2529 14.2303 12.4855 14.207 12.7531C13.5731 13.1311 12.945 13.4393 12.317 13.6836C11.59 13.9627 10.8921 14.1546 10.2175 14.2535C9.89764 14.3 9.56034 14.3233 9.19977 14.3233C8.62983 14.3233 8.08316 14.2477 7.56557 14.1023C7.04798 13.9569 6.56528 13.7243 6.11166 13.4161C6.00698 13.3521 5.90811 13.2241 5.82088 13.0439C5.65223 12.6833 5.50683 12.4681 5.37307 12.3925C5.28002 12.5321 5.2335 12.6775 5.2335 12.8345C5.2335 12.9159 5.24513 13.0031 5.26839 13.1078C5.29165 13.2125 5.344 13.3404 5.42541 13.4917C5.45449 13.5498 5.52428 13.6836 5.64641 13.8813C5.68712 13.9918 5.70457 14.1023 5.70457 14.2012C5.70457 14.3873 5.63478 14.5966 5.4952 14.8293C5.36726 15.0154 5.23931 15.2015 5.11719 15.3876C4.9369 15.6144 4.73335 15.7946 4.50073 15.9226C4.2681 16.0505 4.01803 16.1145 3.75051 16.1145C3.64583 16.1145 3.54115 16.1029 3.44228 16.0854C3.1515 15.9633 2.89561 15.7714 2.67461 15.4981C2.52341 15.3236 2.41291 15.1607 2.35475 15.0095C2.2966 14.8583 2.26752 14.7013 2.26752 14.5385C2.26752 14.4861 2.27915 14.3989 2.2966 14.271C2.31404 14.1488 2.3722 14.0034 2.45362 13.8406C2.54085 13.6778 2.65135 13.5091 2.78511 13.3346C2.83164 13.2765 2.9654 13.1136 3.19221 12.8578C3.36668 12.66 3.49462 12.4972 3.58186 12.3809C3.72725 12.1831 3.84356 11.997 3.92498 11.8342C4.0064 11.6655 4.04711 11.4969 4.04711 11.3224C3.95987 11.462 3.85519 11.6132 3.73888 11.7819C3.61675 11.9505 3.49462 12.1133 3.36668 12.2704L2.5583 13.2009C2.36639 13.4161 2.22099 13.6603 2.13376 13.9336C2.04653 14.2128 2 14.5036 2 14.806C2 15.2771 2.09887 15.7132 2.30241 16.1029C2.47107 16.3704 2.68625 16.5856 2.94795 16.7426C3.20965 16.8996 3.49462 16.9752 3.79122 16.9752C4.28555 16.9287 4.71009 16.7135 5.07066 16.3297C5.48357 15.8877 5.82088 15.1724 6.0884 14.1895L6.89677 14.7595C7.25734 14.9049 7.61791 15.0095 7.97267 15.0619C8.33324 15.12 8.72289 15.1491 9.14161 15.1491C9.40913 15.1491 9.67084 15.1375 9.93254 15.1142C10.1942 15.091 10.4618 15.0561 10.7409 15.0095C11.2992 14.9165 11.9157 14.7071 12.5903 14.3814C12.7938 14.2826 13.358 13.9802 14.2768 13.4742C14.3757 13.4335 14.4687 13.4161 14.556 13.4161C14.713 13.4161 14.8933 13.48 15.0852 13.608C15.2422 13.7301 15.4051 13.8464 15.5621 13.9569L15.7831 13.1602C15.7017 12.9915 15.4981 12.817 15.1608 12.6251C14.8235 12.4332 14.6258 12.2297 14.5676 12.0087C14.6723 11.84 14.8119 11.6946 14.9863 11.5725C15.1608 11.4504 15.3353 11.3806 15.5156 11.3573C15.6261 11.4329 15.7307 11.5376 15.8122 11.6888C15.8587 11.7702 15.9285 11.8982 16.0215 12.0785C16.1495 12.2006 16.2832 12.2587 16.4228 12.2587C16.5042 12.2587 16.7078 12.1948 17.0334 12.061C17.1672 12.0087 17.2835 11.9796 17.394 11.9796C17.458 11.9796 17.522 11.9912 17.5859 12.0087C17.8534 11.8865 18.121 11.7702 18.3943 11.6481C18.7258 11.5027 18.9817 11.3399 19.162 11.1596C19.4527 10.8862 19.6679 10.5838 19.7959 10.2582C19.9238 9.92667 19.9878 9.5661 19.9878 9.17645L19.9936 9.18808Z" fill="white"/>
</svg>
