<svg width="24" height="24" viewBox="0 0 24 24" fill="none" xmlns="http://www.w3.org/2000/svg">
<path fill-rule="evenodd" clip-rule="evenodd" d="M15.1373 6.18622C15.1046 6.48034 15.0588 6.66988 15.0065 6.76792C14.9477 6.85942 14.8497 6.91171 14.719 6.91171C14.634 6.85942 14.5098 6.8725 14.3333 6.95093C14.1569 7.02936 14.0523 7.06857 14.0131 7.06857C13.9216 7.06857 13.8497 6.99668 13.8105 6.85942C13.8235 6.82674 13.8366 6.74178 13.8627 6.61759C13.8889 6.48688 13.9216 6.40844 13.9673 6.36269C13.9542 6.43459 14 6.50648 14.098 6.56531C14.1961 6.62413 14.2876 6.62413 14.3726 6.56531L14.6405 6.06204V6.4542C14.7451 6.49341 14.8431 6.46073 14.9281 6.34962C15.0196 6.23851 15.085 6.18622 15.1373 6.18622ZM21.9935 11.2189C21.9935 10.3692 21.902 9.61106 21.7255 8.94439C21.5163 8.17315 21.1961 7.50648 20.7712 6.95093C20.4771 8.16661 20.3333 9.49995 20.3333 10.9509C20.3333 11.7026 20.366 12.3954 20.4379 13.0228H20.5098C20.549 12.6568 20.5882 11.9901 20.6275 11.0163C20.6667 10.0424 20.719 9.30387 20.7712 8.78753C21.0458 9.24505 21.2549 9.68949 21.3987 10.1209C21.5425 10.5522 21.6209 10.9967 21.6209 11.4542C21.6209 11.7679 21.5817 12.0686 21.5098 12.3496C21.268 13.1993 20.8954 13.9379 20.3987 14.5784C19.9477 15.1405 19.3922 15.6437 18.7386 16.0816C18.1961 16.4346 17.5425 16.7614 16.7778 17.0555C16.2222 17.2647 15.5556 17.4803 14.7712 17.696L14.9935 17.7614C16.0719 17.6045 17.1503 17.4477 18.2222 17.2908C18.8301 17.2058 19.3333 17.0424 19.7255 16.8071C20.1961 16.5261 20.5556 16.1209 20.8105 15.598C21.1895 14.9313 21.4771 14.2189 21.6863 13.4738C21.8954 12.7287 22 11.9771 22 11.2254L21.9935 11.2189ZM15.2157 8.08165L14.7582 9.2908C14.5621 9.35616 14.3007 9.40844 13.9869 9.44766C13.6732 9.48688 13.3725 9.52609 13.0915 9.55877C13.1307 9.27773 13.183 9.04243 13.2353 8.85289C13.2876 8.66335 13.3725 8.4738 13.4837 8.27119C14.0588 8.20583 14.634 8.14701 15.2092 8.08165H15.2157ZM18.1503 8.72217C18.1503 8.02936 18.0654 7.35616 17.8889 6.68949C17.719 6.02282 17.4706 5.44766 17.1438 4.95093C16.9216 5.40844 16.7778 5.90518 16.7059 6.43459C16.634 6.964 16.5948 7.59799 16.5948 8.34308C16.5948 8.42805 16.6078 8.83328 16.6275 9.56531C16.6471 10.2973 16.6601 10.8071 16.6601 11.1013C16.7843 9.68949 16.9085 8.27119 17.0392 6.85289C17.3007 7.27119 17.4837 7.78099 17.5882 8.37576C17.6601 8.80714 17.6993 9.36923 17.6993 10.0686C17.6078 10.4019 17.4641 10.7156 17.2745 11.0098C17.085 11.3039 16.8627 11.5784 16.6078 11.8333C16.3529 12.0882 16.085 12.3104 15.7974 12.4999C15.5686 12.6568 15.2876 12.8267 14.9477 13.0163C14.9281 12.9117 14.915 12.8398 14.915 12.7941C14.915 12.7091 14.9477 12.5653 15.0065 12.3562C15.1111 12.0228 15.1503 11.7679 15.1307 11.6045C15.1176 11.6176 14.9869 11.8529 14.7255 12.3104C14.549 12.6111 14.3595 12.8464 14.1634 13.0163C14.0784 13.1339 14 13.2124 13.9281 13.2647C13.8562 13.3169 13.7843 13.3431 13.7255 13.3431C13.6209 13.3431 13.4967 13.2647 13.3464 13.1078C13.0196 12.7548 12.8039 12.5653 12.6863 12.5457H12.4641C12.3399 12.5457 12.2353 12.5718 12.1569 12.6241C12.0784 12.6764 12.0261 12.7418 11.9935 12.8071C11.9739 12.9248 11.8889 13.1339 11.7451 13.4411C11.6013 13.7483 11.5229 13.9901 11.5229 14.1666C11.5229 14.3758 11.6144 14.5653 11.7908 14.7418C11.915 14.8333 12.0327 14.8921 12.1373 14.9052C12.2418 14.9182 12.4052 14.9313 12.6209 14.9313H12.8889C12.5752 15.5588 12.1111 16.0947 11.4902 16.5326C11 16.8856 10.3922 17.1993 9.6732 17.4738C9.02614 17.696 8.37909 17.9117 7.7451 18.1339C8.54248 18.0294 9.26797 17.9379 9.93464 17.8529C10.6013 17.7679 11.1176 17.6633 11.4967 17.5392C11.9869 17.2777 12.3987 16.866 12.7386 16.2973C12.9804 15.8921 13.1961 15.3562 13.3987 14.696C13.6078 14.6045 13.8497 14.4215 14.1176 14.1601C14.3072 13.9836 14.5033 13.7614 14.7124 13.4999C14.9935 13.415 15.4248 13.2973 16 13.1405C16.4575 12.9705 16.8039 12.7287 17.0327 12.4019C17.3856 11.8594 17.6601 11.2777 17.8562 10.6633C18.0523 10.049 18.1438 9.39537 18.1438 8.71563L18.1503 8.72217ZM11.3268 7.68949C11.183 7.89864 10.9869 8.09472 10.7451 8.28426C10.5033 8.4738 10.2549 8.63067 9.99346 8.75485C9.47059 9.00322 8.94771 9.25812 8.42484 9.50648C8.56863 9.29733 8.77778 9.10125 9.03922 8.92478C9.23529 8.78753 9.47712 8.65027 9.75817 8.51956C10.0392 8.3823 10.3203 8.24505 10.6078 8.11433C10.8889 7.97707 11.1307 7.83982 11.3268 7.68949ZM6.38562 7.53263C6.38562 7.70256 6.33333 7.8921 6.22222 8.11433C6.11111 8.33655 6.01307 8.5457 5.91503 8.74178L4.42484 8.97707C4.42484 8.78099 4.46405 8.57184 4.54902 8.34962C4.60131 8.21237 4.69935 8.00322 4.84967 7.72217C5.15033 7.65027 5.41176 7.59799 5.62092 7.56531C5.83007 7.53263 6 7.51956 6.13726 7.51956C6.2549 7.51956 6.33333 7.51956 6.38562 7.53263ZM9.41177 13.8398C9.24183 14.2189 9.08497 14.5914 8.9281 14.9705C8.70588 15.3888 8.42484 15.6633 8.07843 15.8006C8.01307 15.8333 7.94771 15.8529 7.88235 15.866C7.81699 15.879 7.75817 15.879 7.71895 15.879C7.54248 15.879 7.35948 15.7875 7.16993 15.598C7.07843 15.5065 6.9281 15.3235 6.73203 15.049C6.61438 14.9052 6.51634 14.7875 6.42484 14.7026C6.33333 14.6176 6.24183 14.5784 6.15033 14.5784C5.97386 14.5784 5.77124 14.7483 5.55556 15.0947C5.46405 15.2385 5.37909 15.4607 5.30719 15.7548C5.20261 16.1339 5.13725 16.3692 5.10458 16.4607C5 16.7352 4.88889 16.9379 4.77778 17.0751C4.62092 17.2516 4.4183 17.3562 4.1634 17.3888C3.79739 17.4215 3.45752 17.3169 3.13725 17.0816C2.81699 16.8464 2.55556 16.5457 2.34641 16.1797C2.11765 15.6895 2 15.1666 2 14.6111C2 14.2058 2.05882 13.8333 2.18301 13.5065C2.30065 13.1797 2.49673 12.879 2.77124 12.6045C2.94118 12.3431 3.13072 12.1274 3.35294 11.9509C3.57516 11.781 4.00654 11.513 4.65359 11.1601C5.0719 10.9313 5.39216 10.7222 5.60784 10.5326C5.94118 10.2516 6.18954 9.92478 6.34641 9.55877C6.30719 9.85942 6.19608 10.147 6.01961 10.415C5.84314 10.683 5.59477 10.9444 5.28105 11.2058C5.05882 11.3823 4.76471 11.6111 4.38562 11.879C3.87582 12.245 3.57516 12.4607 3.4902 12.5196C3.18954 12.7614 2.95425 12.9771 2.79739 13.1601C2.58824 13.4019 2.47059 13.5914 2.45098 13.7418C2.43137 13.8856 2.4183 14.0098 2.4183 14.1013C2.4183 14.3627 2.49673 14.6241 2.66013 14.8856C2.82353 15.147 3.0915 15.4477 3.47059 15.7941C3.58824 15.8137 3.71895 15.8464 3.86275 15.879C4.00654 15.9182 4.11111 15.9313 4.17647 15.9313C4.29412 15.9313 4.39869 15.9052 4.50327 15.8529C4.69935 15.6568 4.88235 15.3235 5.05229 14.866C5.13725 14.6372 5.22222 14.4084 5.30065 14.1732C5.42484 13.8398 5.57516 13.5915 5.73856 13.4346C5.96078 13.2254 6.24183 13.1209 6.58824 13.1209C6.62745 13.1731 6.7451 13.3431 6.93464 13.6241C7.19608 14.0228 7.44444 14.2712 7.6732 14.3758C7.75817 14.415 7.84967 14.4411 7.95425 14.4411C8.20261 14.4411 8.44444 14.2647 8.6732 13.9052C8.88235 13.5196 9.0915 13.1339 9.30065 12.7418C9.33333 12.7418 9.35948 12.8267 9.37909 13.0032C9.39869 13.1732 9.41177 13.4477 9.41177 13.8267V13.8398ZM6.91503 17.9182C6.86275 18.1143 6.78431 18.2973 6.68627 18.4607C6.58824 18.6241 6.44444 18.8202 6.2549 19.049C6.15033 19.0294 6.03922 18.9836 5.9281 18.9248C5.75163 18.8333 5.57516 18.7352 5.41176 18.6437C5.5817 18.245 5.79739 17.8594 6.0719 17.4803C6.21569 17.4803 6.37255 17.5261 6.52941 17.6241C6.63399 17.6895 6.76471 17.7875 6.92157 17.9248L6.91503 17.9182Z" fill="white"/>
</svg>
