<svg width="24" height="24" viewBox="0 0 24 24" fill="none" xmlns="http://www.w3.org/2000/svg">
<path fill-rule="evenodd" clip-rule="evenodd" d="M21.7968 11.5675C21.7968 10.9655 21.684 10.3936 21.4582 9.85188C21.2325 9.31012 20.9165 8.7834 20.4951 8.27926C20.45 8.62539 20.4274 8.97904 20.4274 9.33269C20.4274 9.6111 20.4349 9.95722 20.4575 10.356C20.5102 11.2815 20.5327 11.8684 20.5327 12.1092C20.4575 12.1092 20.4123 12.0866 20.3898 12.0114C20.3672 11.9437 20.3446 11.876 20.322 11.8082C20.322 11.5223 20.2844 10.8752 20.2092 9.86692C20.1716 9.36278 20.1565 8.97152 20.1565 8.67807C20.1565 8.33947 20.164 8.04601 20.1866 7.81275C20.2092 7.57949 20.2619 7.31613 20.3446 7.02268C20.8864 7.54939 21.2927 8.17393 21.5786 8.88875C21.857 9.6111 22 10.3711 22 11.1837C22 11.8609 21.8871 12.5456 21.6689 13.2228C21.4432 13.9 21.0369 14.4267 20.45 14.7954C20.006 15.0663 19.3815 15.2695 18.5839 15.4049C17.9142 15.4952 17.2596 15.5855 16.5974 15.6683C17.4929 15.4049 18.2152 15.1491 18.7645 14.9008C19.6072 14.5321 20.2694 14.1107 20.7359 13.6367C21.3378 13.0423 21.684 12.35 21.7893 11.5599L21.7968 11.5675ZM14.3627 7.03021L13.9488 7.87295C13.8284 7.79018 13.6855 7.70741 13.5124 7.61712C13.4748 7.60207 13.377 7.55692 13.2265 7.48167C13.3394 7.21832 13.4146 7.03773 13.4673 6.95496C13.5124 6.87219 13.5801 6.7819 13.6629 6.68408C13.8134 6.70666 13.9413 6.74428 14.0617 6.79696C14.1821 6.84963 14.2799 6.92487 14.3627 7.03021ZM18.4033 12.0866C18.4033 11.5073 18.3356 10.9805 18.2001 10.4915C18.0647 10.0024 17.839 9.58099 17.5229 9.21982C17.4026 9.48318 17.3273 9.78416 17.2822 10.1077C17.2445 10.4313 17.222 10.8075 17.222 11.2289C17.222 11.4245 17.237 11.6276 17.2445 11.8534C17.2445 12.0791 17.2521 12.3575 17.2521 12.7112C17.2521 12.5983 17.2822 12.0791 17.3273 11.1611C17.3424 10.7548 17.3649 10.4538 17.4026 10.2507C17.6132 10.5366 17.7788 10.8225 17.8992 11.1085C18.0271 11.3944 18.1174 11.6954 18.1776 12.0114C18.2002 12.1619 18.2077 12.2973 18.2077 12.4328C18.2077 12.6134 18.1851 12.8015 18.1324 13.0122C18.0798 13.2228 18.0045 13.4034 17.9142 13.569C17.7412 13.8624 17.5756 14.0881 17.4026 14.2311C17.1768 14.4418 16.9285 14.5246 16.6576 14.4869C16.5899 14.4568 16.4846 14.4192 16.3491 14.3666C16.2363 14.3139 16.1535 14.2462 16.1084 14.1634C16.1385 14.0355 16.1911 13.8323 16.2739 13.5539C16.3792 13.1401 16.4319 12.7864 16.4319 12.4854C16.4319 12.4328 16.4319 12.35 16.4545 12.2296V11.9888C16.4545 11.6201 16.4169 11.2815 16.3416 10.9655C16.2664 10.657 16.1384 10.3711 15.9579 10.1077C15.7472 10.6946 15.6042 11.1536 15.5214 11.4997C15.4387 11.8459 15.3785 12.1619 15.3409 12.4553C15.3032 12.7488 15.2882 13.0121 15.2882 13.2454C15.2882 13.5765 15.3108 13.8925 15.3634 14.1784C15.0248 14.4945 14.5959 14.7503 14.0767 14.9309C13.7908 15.0362 13.3243 15.1566 12.6923 15.2996C12.8879 15.2996 13.0835 15.3146 13.2792 15.3222C13.4823 15.3297 13.678 15.3297 13.8661 15.3297C14.2649 15.3297 14.611 15.2996 14.8969 15.2319C15.1828 15.1641 15.4462 15.0287 15.687 14.8331C15.9729 15.1942 16.3491 15.4049 16.8081 15.4651C17.0339 15.4651 17.2521 15.3598 17.4628 15.1566C17.5907 15.0362 17.7412 14.8406 17.9293 14.5697C18.0873 14.1333 18.2001 13.7119 18.2829 13.3131C18.3657 12.9143 18.4033 12.5005 18.4033 12.0791V12.0866ZM16.5372 8.04601L16.4169 8.88122C16.3567 8.96399 16.2739 9.05429 16.161 9.14458C15.9804 9.3026 15.8074 9.45308 15.6268 9.59604C14.9646 10.2657 14.3175 10.9429 13.6629 11.6126L13.7306 12.5682C13.6328 12.5306 13.5651 12.4027 13.5275 12.1769C13.4898 11.9512 13.4597 11.8233 13.4372 11.7781C13.3619 11.8233 13.2716 11.8534 13.1588 11.8684C13.0459 11.8835 12.9782 11.891 12.9556 11.891C12.9029 11.891 12.7675 11.876 12.5568 11.8534C12.3386 11.8308 12.2032 11.8158 12.143 11.8233L12.0451 12.8993C11.9549 13.5614 11.8194 14.0731 11.6313 14.4418C11.383 14.9459 11.0068 15.2996 10.5102 15.5103C10.465 15.5103 10.4048 15.5178 10.3296 15.5178C10.1114 15.5178 9.90068 15.4425 9.68247 15.2996C9.51693 15.1717 9.35892 15.0513 9.20843 14.9309C9.07299 14.9158 8.93755 15.0212 8.79458 15.2394C8.5538 15.3297 8.2453 15.3899 7.88412 15.4275C7.34989 15.4576 6.81565 15.4877 6.28894 15.5253C6.72536 15.3523 7.16178 15.1867 7.59819 15.0287C8.10986 14.8105 8.5237 14.5772 8.83973 14.3064C8.79458 14.028 8.77201 13.7495 8.77201 13.4711C8.77201 13.1476 8.80211 12.7939 8.86983 12.4102C8.93002 12.0264 9.02784 11.6427 9.15576 11.259C9.28367 10.8752 9.44169 10.4839 9.6298 10.0927C9.83296 10.3936 9.9684 10.7473 10.0436 11.1386C10.1189 11.5298 10.1565 11.9663 10.1565 12.4478C10.1565 12.6886 10.1339 12.952 10.0813 13.2379C10.0286 13.5163 9.92325 13.8775 9.77276 14.3064C9.9383 14.4568 10.1339 14.5246 10.3747 14.5246C10.465 14.5246 10.5628 14.5095 10.6757 14.4719C11.0293 14.2537 11.3078 13.9753 11.4959 13.6141C11.6915 13.2605 11.7818 12.8692 11.7818 12.4478C11.7818 12.0565 11.6915 11.6051 11.5184 11.0934C11.1121 9.9196 10.909 9.1822 10.909 8.89627C10.909 8.70064 10.924 8.5351 10.9466 8.39214C10.9692 8.24917 11.0218 8.08363 11.0971 7.89552C11.1196 7.97829 11.2024 8.36956 11.3529 9.06933C11.4582 9.55842 11.5786 9.93464 11.7291 10.198C11.8269 10.3635 11.9323 10.5065 12.0527 10.6269C12.1731 10.7473 12.3311 10.8526 12.5117 10.9354C12.5944 10.9354 12.6546 10.9429 12.6923 10.9429C13.0384 10.9429 13.2942 10.8526 13.4597 10.6645C13.4597 10.5441 13.4597 10.4237 13.4597 10.2958C13.4597 10.1679 13.4597 10.04 13.4597 9.90455C13.4597 9.581 13.4823 9.30259 13.535 9.08438C13.5877 8.85865 13.7005 8.66301 13.8811 8.48243C13.994 8.41471 14.1144 8.36956 14.2498 8.33946C14.3853 8.30936 14.5282 8.29431 14.6637 8.29431C14.7991 8.29431 14.9872 8.30185 15.2205 8.32442C15.4537 8.33947 15.5892 8.35451 15.6268 8.35451C15.7547 8.35451 15.8751 8.34699 16.003 8.32442C16.161 8.27927 16.2664 8.24165 16.3341 8.20403C16.3943 8.1664 16.462 8.1062 16.5372 8.02343V8.04601ZM15.6268 15.9166C15.5892 16.1273 15.4688 16.2928 15.2581 16.4132C15.0926 16.511 14.8969 16.5787 14.6561 16.6239L14.6035 16.5712C14.6486 16.5486 14.7615 16.4885 14.9496 16.3906C15.1377 16.2928 15.2731 16.21 15.3559 16.1423C15.3333 16.1198 15.2506 16.0896 15.1076 16.052C14.9646 16.0144 14.912 15.9467 14.9571 15.8413C15.0173 15.721 15.1076 15.6081 15.2205 15.4877C15.3409 15.3673 15.4537 15.277 15.5741 15.2243C15.6042 15.2469 15.6193 15.2845 15.6193 15.3372C15.6193 15.3974 15.6042 15.4425 15.5816 15.4802C15.5591 15.5178 15.4989 15.5554 15.4011 15.6006C15.3108 15.6382 15.2506 15.6909 15.2205 15.7511C15.2506 15.7661 15.3183 15.7811 15.4236 15.8037C15.529 15.8188 15.5967 15.8639 15.6268 15.9316V15.9166ZM15.9579 16.5035C15.9052 16.5411 15.7171 16.6389 15.3935 16.7894C15.2506 16.8572 15.1527 16.9173 15.085 16.97C15.0173 17.0227 14.9646 17.0829 14.927 17.128C14.8894 17.1807 14.8518 17.2409 14.8292 17.3161C14.8367 17.3161 15.0324 17.2108 15.4086 17.0302C15.5365 16.97 15.6418 16.9023 15.7397 16.8195C15.8375 16.7368 15.9127 16.6314 15.9654 16.496L15.9579 16.5035ZM9.44169 7.41396C9.35139 7.38386 9.24605 7.36881 9.13318 7.36881C8.9225 7.36881 8.70429 7.41396 8.46351 7.51178C8.22272 7.60959 7.99699 7.72999 7.77878 7.86543C7.33484 8.12878 7.04138 8.55015 6.8909 9.12201C6.85327 9.28002 6.79308 9.80674 6.70278 10.7097C6.58239 10.8075 6.40933 10.8903 6.16855 10.9504C6.04063 10.9805 5.85252 11.0332 5.60421 11.1085C5.5064 11.0633 5.42363 11.0031 5.34838 10.9279C5.27314 10.8526 5.20542 10.7699 5.1377 10.6871L5.00226 11.5599C5.01731 11.6126 5.26561 11.8609 5.7547 12.3049C5.94281 12.4779 6.03311 12.651 6.03311 12.8391C5.97291 13.1777 5.86757 13.4862 5.70956 13.7646C5.55154 14.043 5.34086 14.2838 5.06245 14.4794C4.769 14.7503 4.41535 14.8933 4.01655 14.8933C3.85102 14.8933 3.70053 14.8707 3.55004 14.818C3.17381 14.5772 2.88036 14.2988 2.66215 13.9828C2.42137 13.6292 2.29345 13.2529 2.29345 12.8541C2.29345 12.824 2.29345 12.7789 2.29345 12.7112C2.29345 12.6435 2.30098 12.5833 2.3085 12.5306C2.87284 11.748 3.42965 10.958 3.99398 10.1679C4.18962 9.88198 4.32506 9.63367 4.41535 9.42298C4.53574 9.14458 4.59594 8.86618 4.59594 8.60282C4.47555 8.91132 4.36268 9.21983 4.24229 9.5208C3.57261 10.3635 2.91798 11.2063 2.25583 12.049C2.08277 12.365 2 12.7112 2 13.0799C2 13.6743 2.14296 14.2161 2.42889 14.7202C2.71482 15.2168 3.12114 15.5855 3.64033 15.8112C3.79082 15.8564 3.92626 15.879 4.0617 15.879C4.32506 15.879 4.60346 15.7887 4.89691 15.6156C5.10008 15.4877 5.34086 15.2996 5.61926 15.0362C5.845 14.7353 6.00301 14.4042 6.0933 14.058C6.19112 13.7119 6.23627 13.3357 6.23627 12.9294C6.23627 12.5682 6.19112 12.1619 6.10083 11.7179C6.19112 11.6878 6.30399 11.6728 6.44695 11.6728C6.58992 11.6728 6.69526 11.6878 6.77803 11.7179C7.06396 11.5223 7.34989 11.3041 7.63582 11.0483C7.92175 10.7924 8.17005 10.5366 8.37321 10.2883C8.71934 9.85941 8.98269 9.40794 9.15576 8.9339C9.32882 8.45986 9.41911 7.95572 9.41911 7.41396H9.44169ZM14.9571 9.30259C14.611 9.73901 14.1971 10.1453 13.7231 10.5216C13.7005 10.4012 13.6855 10.3259 13.6855 10.2883C13.6855 10.2507 13.6855 10.198 13.6855 10.1228C13.6855 9.88951 13.7381 9.68634 13.851 9.5208C13.994 9.40794 14.1294 9.34775 14.2649 9.32517C14.4003 9.31012 14.6336 9.29507 14.9646 9.29507L14.9571 9.30259ZM16.1986 12.5005C16.1986 12.5532 16.2062 12.6284 16.2062 12.7262C16.2062 12.9143 16.1685 13.0949 16.1008 13.268C16.0331 13.4486 15.9278 13.5991 15.7848 13.7345L15.7622 13.7646C15.6569 13.6141 15.5892 13.4711 15.544 13.3282C15.5064 13.1852 15.4838 13.0272 15.4838 12.8391V12.7187C15.4838 12.666 15.4838 12.6209 15.4913 12.5757C15.5967 12.1167 15.702 11.6578 15.7998 11.1912C15.9503 11.5524 16.0482 11.8233 16.0933 12.0039C16.1384 12.1845 16.1761 12.35 16.1911 12.5005H16.1986ZM9.04289 8.28679C8.8623 8.32442 8.70429 8.36956 8.56132 8.41471C8.41836 8.45986 8.26035 8.52757 8.10233 8.61034C7.71106 8.75331 7.42513 9.03171 7.24454 9.44556C7.1091 9.75406 7.04138 10.1453 7.04138 10.6118C7.22197 10.499 7.40256 10.3711 7.58315 10.2131C7.77126 10.055 7.94432 9.89703 8.10233 9.72397C8.5237 9.26498 8.8322 8.79093 9.03537 8.29431L9.04289 8.28679ZM9.88563 12.3951C9.85553 12.207 9.81038 12.0264 9.75019 11.8383C9.68999 11.6502 9.60722 11.4696 9.50941 11.2815C9.38149 11.6653 9.2611 12.049 9.14071 12.4328C9.09556 12.6359 9.07299 12.8316 9.07299 13.0197C9.07299 13.1852 9.08804 13.3282 9.12566 13.4486C9.15576 13.569 9.22348 13.6969 9.30625 13.8323C9.38901 13.7947 9.46426 13.7194 9.54703 13.6066C9.62227 13.4937 9.69752 13.3809 9.77276 13.2755C9.86306 13.0799 9.9082 12.8767 9.9082 12.666C9.9082 12.5983 9.9082 12.508 9.88563 12.3876V12.3951Z" fill="white"/>
</svg>
