<svg width="24" height="24" viewBox="0 0 24 24" fill="none" xmlns="http://www.w3.org/2000/svg">
<path fill-rule="evenodd" clip-rule="evenodd" d="M17.3416 9.02695C17.3416 9.17271 17.3113 9.33062 17.2445 9.51282C17.2323 9.55534 17.1655 9.70717 17.0501 9.96833C16.6978 10.0777 16.4792 10.1445 16.3881 10.1748C16.1573 10.2599 15.9447 10.357 15.7504 10.4724C15.7868 10.2841 15.8233 10.0898 15.8597 9.88937C15.9265 9.65858 16.0419 9.50674 16.212 9.43386C16.5703 9.26381 16.9469 9.13019 17.3477 9.03301L17.3416 9.02695ZM22 11.1527C22 10.6304 21.9028 10.1262 21.7085 9.62822C21.5141 9.13019 21.2469 8.68075 20.9068 8.29204C20.8643 8.35278 20.8339 8.44997 20.8157 8.58966C20.7974 8.72935 20.7853 8.81437 20.7732 8.85081C20.7732 8.9237 20.7549 9.43386 20.7124 10.3813C20.7003 10.6546 20.6942 10.9583 20.6942 11.2863C20.6942 11.5232 20.7003 11.7661 20.7185 12.009C20.7367 12.252 20.7671 12.4767 20.8096 12.671C20.8825 11.8936 20.9311 11.3166 20.9554 10.9279C20.9797 10.5453 20.9979 10.102 20.9979 9.59786C21.2469 10.0473 21.4352 10.4299 21.5506 10.7518C21.7085 11.183 21.7814 11.6021 21.7814 12.0151C21.7814 12.1487 21.7753 12.2823 21.7571 12.4281C21.5445 13.2602 21.1072 13.9586 20.4513 14.5234C19.9229 14.979 19.2062 15.3737 18.3134 15.7078C17.7971 15.8961 17.0197 16.1269 15.9751 16.388C17.3963 16.2483 18.7264 16.0054 19.9715 15.6531C20.2994 15.562 20.597 15.3737 20.8643 15.0883C21.1679 14.7603 21.4655 14.2502 21.7571 13.5638C21.8603 13.2055 21.9271 12.8472 21.9514 12.4828C21.9818 12.1184 21.9939 11.675 21.9939 11.1587L22 11.1527ZM15.2402 8.21309C15.1187 8.40136 14.9548 8.57143 14.7361 8.7172C14.6025 8.8083 14.4749 8.88725 14.3535 8.96013C14.1288 9.0816 13.898 9.197 13.6732 9.31847C13.7158 9.22129 13.7704 9.13626 13.8372 9.05123C13.904 8.97228 13.983 8.89941 14.068 8.83867C14.1773 8.75364 14.317 8.6686 14.4992 8.5775C14.7422 8.45603 14.9912 8.33456 15.2402 8.21309ZM14.6207 10.2902C14.5843 10.3206 14.56 10.3388 14.5418 10.3449C14.481 10.3813 14.4324 10.3995 14.396 10.3995C14.3717 10.3995 14.3474 10.3935 14.317 10.3753L14.2624 10.3206C14.2016 10.4056 14.1591 10.4603 14.1288 10.4906C14.0741 10.5453 14.0134 10.5817 13.9405 10.606C13.7765 10.6303 13.6793 10.5817 13.6429 10.4542C13.6307 10.3752 13.6307 10.3145 13.6429 10.2599C13.649 10.2113 13.6854 10.0959 13.7461 9.91367C13.7765 9.93797 13.7886 9.96833 13.7886 10.0048C13.7643 10.0898 13.7522 10.1505 13.7522 10.1809C13.7522 10.2356 13.7886 10.272 13.8615 10.2902C13.9344 10.2902 13.9951 10.272 14.0437 10.2295C14.0923 10.193 14.1409 10.1384 14.1834 10.0655C14.147 10.0108 14.1288 9.95619 14.1288 9.89545C14.1288 9.85294 14.1288 9.81043 14.147 9.76792C14.1591 9.7254 14.1773 9.66466 14.2077 9.59178C14.2563 9.62215 14.2806 9.70717 14.2867 9.85294C14.2927 9.9987 14.3292 10.0716 14.4021 10.0716C14.4324 10.0716 14.4749 10.0655 14.5296 10.0473C14.5478 10.0169 14.5539 9.97441 14.5539 9.91367C14.5539 9.87116 14.5539 9.82865 14.5478 9.78614C14.5478 9.74362 14.5357 9.70109 14.5296 9.65858C14.5296 9.60392 14.5478 9.55533 14.5843 9.50674C14.645 9.59177 14.6754 9.70717 14.6754 9.86508C14.6754 9.92581 14.6754 9.9987 14.6572 10.0837C14.645 10.1688 14.6329 10.2356 14.6207 10.2841V10.2902ZM19.6435 10.023C19.5828 9.5857 19.4795 9.16056 19.3277 8.73542C19.1758 8.31634 18.9936 7.93978 18.7811 7.61182C18.6474 7.63004 18.5746 7.76973 18.5624 8.03089C18.5503 8.29205 18.526 8.44995 18.5017 8.49854C18.5017 8.52283 18.5017 8.56535 18.5199 8.63216V8.85689C18.5199 9.04517 18.5017 9.30633 18.4652 9.6343C18.3923 10.2902 18.3559 10.7154 18.3559 10.9037C18.3559 11.0555 18.362 11.2013 18.3802 11.3531C18.3984 11.5049 18.4288 11.6385 18.4713 11.7661C18.5381 11.4381 18.5867 11.0798 18.6231 10.685C18.6596 10.2963 18.7082 9.69502 18.775 8.88117C18.9754 9.27595 19.1333 9.62215 19.2305 9.91975C19.3763 10.3388 19.4431 10.7214 19.4431 11.0676C19.4431 11.262 19.4188 11.4563 19.3702 11.6507C19.3216 11.839 19.2426 12.0151 19.1394 12.1791C18.9633 12.3977 18.8053 12.5678 18.6657 12.6832C18.4652 12.8411 18.2527 12.914 18.0401 12.914C17.949 12.8593 17.8943 12.8107 17.864 12.7682C17.8336 12.7257 17.8214 12.671 17.8214 12.6042C17.8214 12.5496 17.8397 12.4706 17.8822 12.3613C17.9672 12.1548 18.0097 12.009 18.0097 11.9301C18.0097 11.8329 17.9794 11.7479 17.9186 11.6689C17.8579 11.6264 17.7971 11.6082 17.7303 11.6082C17.5421 11.7054 17.3538 11.7965 17.1655 11.8936C16.3517 12.5921 15.8233 13.0415 15.5803 13.2359C15.2584 13.491 14.9365 13.74 14.6146 13.9708C13.8129 14.5417 13.0659 14.9729 12.3674 15.2523C11.5293 15.5863 10.679 15.7564 9.81658 15.7564L10.0474 15.2037C10.0899 14.9547 10.1324 14.6935 10.1871 14.4202C10.2357 14.1469 10.266 13.904 10.266 13.6914C10.266 13.4181 10.2235 13.1873 10.1385 13.0112C10.0352 12.7986 9.87124 12.6224 9.64652 12.4888C10.0109 12.3856 10.3936 12.1669 10.8005 11.8329C10.8551 11.7843 11.1892 11.4746 11.8148 10.9097L11.8755 10.9644C11.8087 11.1162 11.7662 11.2438 11.748 11.3592C11.7297 11.4746 11.7237 11.6142 11.7237 11.7904C11.754 12.1973 11.7844 12.6042 11.8148 13.0112C11.8937 12.6164 11.9848 12.1123 12.082 11.4988C12.167 10.9887 12.252 10.4846 12.331 9.97441C12.4403 9.3124 12.5254 8.81437 12.5922 8.4864H12.5132C12.3553 9.31239 11.9119 10.0898 11.177 10.8308C10.5454 11.4685 9.79229 11.9908 8.92985 12.3977C8.7355 12.4463 8.60796 12.5131 8.56544 12.5921C8.54722 12.6225 8.54115 12.671 8.54115 12.7439C8.54115 12.7804 8.54115 12.835 8.55937 12.914C8.57151 12.9929 8.57759 13.0476 8.57759 13.084C8.57759 13.163 8.55937 13.2359 8.529 13.3027C8.49863 13.3695 8.4379 13.4302 8.35287 13.4849C8.25569 12.7257 8.16459 11.9665 8.07349 11.2013C7.95809 10.2963 7.83662 9.54925 7.69693 8.97227C7.54509 9.23343 7.47221 9.53105 7.47221 9.85901C7.47221 10.0777 7.51473 10.3692 7.59976 10.7275C7.77589 11.4989 7.86699 11.9908 7.86699 12.2034C7.94595 12.9018 8.0249 13.6003 8.10993 14.2927C8.2314 15.1065 8.51078 15.7017 8.95415 16.0843C9.00273 16.0843 9.05132 16.0965 9.09991 16.1026C9.1485 16.1026 9.19708 16.1086 9.24567 16.1086C9.30641 16.1086 9.355 16.1086 9.39144 16.0904C9.42788 16.0783 9.46432 16.054 9.49469 16.0175C9.84087 16.0661 10.1628 16.0904 10.4604 16.0904C10.8734 16.0904 11.2985 16.0601 11.7297 15.9932C12.167 15.9264 12.6043 15.8414 13.0477 15.7321C13.5153 15.562 14.0194 15.2644 14.5721 14.8271C15.0398 14.4323 15.5014 14.0376 15.969 13.6367C16.5217 13.1691 17.0197 12.8411 17.457 12.6407C17.536 12.7257 17.5785 12.8775 17.5846 13.0962C17.5846 13.3148 17.621 13.4667 17.6757 13.5517C17.7 13.6489 17.7607 13.7217 17.8518 13.7643C17.9429 13.8129 18.0462 13.8432 18.1616 13.8554C18.4045 13.8554 18.6353 13.7643 18.8539 13.5881C19.0665 13.412 19.2305 13.1994 19.3459 12.9504C19.5828 12.3248 19.7042 11.6385 19.7042 10.8915C19.7042 10.5939 19.686 10.3024 19.6496 10.0109L19.6435 10.023ZM10.928 8.7172C10.8551 8.91762 10.7094 9.09983 10.4786 9.25167C10.3875 9.31847 10.2539 9.39743 10.0777 9.4946C9.61008 9.74361 9.37322 9.87116 9.36107 9.87723C9.40966 9.76184 9.47039 9.66465 9.55542 9.57962C9.63438 9.49459 9.73155 9.41565 9.8348 9.34884C10.1992 9.14235 10.5636 8.92976 10.928 8.71112V8.7172ZM7.11995 8.58358C7.09566 8.72327 7.05314 8.85689 6.99241 9.00265C6.93167 9.14841 6.87701 9.27595 6.82235 9.40956C6.76162 9.34883 6.70695 9.30633 6.65229 9.26989C6.59763 9.23952 6.54297 9.22129 6.48223 9.22129C6.41543 9.22129 6.35469 9.2456 6.30003 9.29418C6.08139 9.46424 5.89918 9.73755 5.75342 10.1262C5.68053 10.3145 5.61373 10.5089 5.54692 10.6972C5.69876 10.0048 5.82022 9.54319 5.92347 9.30633C6.15427 8.77793 6.50046 8.45604 6.95597 8.34064L7.11995 8.58358ZM6.93167 11.2681C6.96204 11.4017 6.97419 11.5049 6.97419 11.59C6.97419 11.76 6.9256 11.924 6.82842 12.0698C6.73125 12.2155 6.5369 12.3917 6.2393 12.6042C6.02065 12.7621 5.87489 12.8654 5.80808 12.92C5.63195 13.1265 5.48011 13.5578 5.35257 14.2137C5.21895 14.8696 4.99423 15.3191 4.67841 15.5681C4.48406 15.7564 4.25326 15.89 3.99818 15.9629C3.74309 16.0357 3.45764 16.0722 3.14789 16.0722C2.97176 16.0722 2.77133 16.06 2.54661 16.0357C2.32797 16.0114 2.14576 15.9932 2 15.9811C2.77741 15.805 3.43942 15.5316 3.98603 15.149C4.67234 14.6753 5.09141 14.0983 5.23717 13.412C5.23717 12.9018 5.40723 12.4585 5.74734 12.0758C6.0328 11.7539 6.42757 11.4867 6.91953 11.2681H6.93167ZM9.89554 14.6449C9.85302 14.6935 9.78621 14.7725 9.68904 14.8879C9.5372 15.0458 9.39751 15.1187 9.25782 15.1187C9.18494 15.1187 9.11813 15.1065 9.06347 15.0761C8.89341 14.9668 8.76587 14.8271 8.66869 14.6571C8.57152 14.487 8.50471 14.2987 8.47434 14.0983C8.50471 13.9404 8.57152 13.8068 8.67476 13.6792C8.77801 13.5578 8.90556 13.4727 9.04525 13.4302C9.06954 13.4302 9.09991 13.4241 9.14242 13.4241C9.30641 13.4241 9.45217 13.4849 9.59186 13.6063C9.68904 13.6914 9.78621 13.8189 9.89554 14.0011C9.91376 14.0679 9.93198 14.1348 9.9502 14.2076C9.96842 14.2805 9.97449 14.3473 9.97449 14.402C9.97449 14.5052 9.9502 14.5842 9.89554 14.6449Z" fill="white"/>
</svg>
