<svg width="24" height="24" viewBox="0 0 24 24" fill="none" xmlns="http://www.w3.org/2000/svg">
<path fill-rule="evenodd" clip-rule="evenodd" d="M16.3612 6.94653C16.3612 7.13687 16.3517 7.27963 16.3279 7.37004C16.2803 7.5461 16.1946 7.66031 16.0661 7.71265C15.9995 7.67458 15.9044 7.70314 15.7854 7.79831C15.6664 7.89348 15.5855 7.94106 15.5379 7.94106C15.4761 7.94106 15.419 7.89823 15.3666 7.81734C15.3666 7.71741 15.3666 7.61748 15.3714 7.5128C15.3714 7.40811 15.4095 7.32246 15.4666 7.24632L15.557 7.53183C15.6236 7.5461 15.695 7.52231 15.7616 7.45569C15.8282 7.38907 15.8806 7.3177 15.9091 7.24156C15.9234 7.10832 15.9519 7.02267 15.99 6.9846L16.0233 7.30342C16.1375 7.35101 16.2137 7.30342 16.2517 7.17018C16.2898 7.03694 16.3231 6.96081 16.3564 6.94653H16.3612ZM16.5563 8.99269C16.4944 9.11641 16.4373 9.23062 16.385 9.34482C16.285 9.54468 16.1803 9.73502 16.0661 9.92536C16.0566 9.91108 15.9044 9.77309 15.5998 9.51613C15.4856 9.4162 15.4285 9.33054 15.4285 9.25441C15.4285 9.164 15.4951 9.06407 15.6236 8.95938C15.6712 8.93559 15.7283 8.84994 15.7997 8.70242C15.871 8.55491 15.9377 8.47877 15.9995 8.47877C16.0471 8.47877 16.1042 8.51684 16.1803 8.59298C16.2803 8.65484 16.3564 8.71194 16.4135 8.76904C16.4706 8.82614 16.5182 8.90228 16.5563 8.99269ZM21.9477 10.9104C21.8858 10.3917 21.7573 9.90156 21.5575 9.44475C21.3576 8.98793 21.0911 8.56442 20.7485 8.18374C20.582 8.60249 20.4678 9.06883 20.4059 9.5875C20.344 10.1062 20.3155 10.6915 20.3155 11.3482C20.3155 11.3577 20.3202 11.6384 20.3345 12.1999C20.344 12.7614 20.3536 13.2135 20.3536 13.5656C20.4487 13.3087 20.5058 13.0612 20.5344 12.828C20.5582 12.5949 20.5724 12.2999 20.5724 11.943V11.0864C20.5724 10.8485 20.582 10.5963 20.6058 10.3203C20.6296 10.0443 20.6676 9.81115 20.72 9.6113C21.0388 9.96343 21.2815 10.3441 21.4528 10.7629C21.6193 11.1816 21.705 11.6194 21.705 12.0762C21.705 12.3427 21.6764 12.5854 21.6241 12.809C21.4575 13.5704 21.1006 14.227 20.5487 14.7838C20.0918 15.2406 19.4923 15.6451 18.7452 15.9925C18.2646 16.2209 17.7411 16.4112 17.1701 16.5635C16.4944 16.7443 15.5808 16.9108 14.4387 17.0536C15.4808 17.0536 16.2946 17.0346 16.8703 16.9965C17.8458 16.9346 18.6548 16.8109 19.3019 16.6206C19.8492 16.4683 20.3393 16.1067 20.7771 15.5356C21.0816 15.1312 21.3766 14.5982 21.6574 13.9273C21.7621 13.5704 21.8477 13.1992 21.9096 12.8138C21.9714 12.4283 22 12.0524 22 11.6908C22 11.3957 21.9857 11.134 21.9524 10.9151L21.9477 10.9104ZM13.8249 7.75072C13.8534 7.81734 13.8392 7.89823 13.7773 7.98389C13.7154 8.06954 13.6441 8.1314 13.5584 8.15995C12.3783 8.67863 11.2029 9.19731 10.0276 9.71122C10.0561 9.49233 10.1894 9.32103 10.4273 9.19731C10.6272 9.10689 10.827 9.01648 11.0316 8.92131C11.5027 8.75952 12.088 8.52636 12.778 8.2123C13.1206 8.06002 13.468 7.90299 13.8154 7.74596L13.8249 7.75072ZM17.2177 15.2977C17.0274 15.5404 16.7752 15.7355 16.4659 15.8782C16.3897 15.9163 16.247 15.9734 16.0423 16.0543C15.8377 16.1352 15.6759 16.1923 15.5617 16.2304C15.6379 16.0924 15.733 15.9829 15.852 15.8973C15.971 15.8116 16.1185 15.7355 16.3041 15.6594C16.6086 15.5356 16.9132 15.4167 17.2177 15.293V15.2977ZM18.9212 12.2427C18.8356 12.5425 18.669 12.8138 18.4168 13.066C18.1646 13.3182 17.8982 13.4704 17.6174 13.5228C17.1368 13.4324 16.7942 13.0422 16.5896 12.357C16.5277 12.1428 16.4373 11.8383 16.3136 11.4433C16.2232 11.6432 16.1708 11.8145 16.1518 11.9668C16.1375 12.119 16.128 12.2523 16.128 12.3665C16.128 12.7091 16.1899 13.0041 16.3088 13.2563C16.1185 13.5085 15.9519 13.7179 15.8044 13.8844C15.4713 14.2746 15.143 14.5126 14.8242 14.603C14.8242 14.5744 14.8242 14.5268 14.8147 14.465C14.8242 14.365 14.8289 14.2651 14.8384 14.1557C14.848 14.051 14.848 13.9463 14.848 13.8464C14.848 13.7607 14.848 13.7036 14.8384 13.6655C14.71 13.9558 14.5862 14.1795 14.472 14.3413C14.2912 14.6077 14.0818 14.779 13.8534 14.8552C13.8392 14.7933 13.8296 14.7457 13.8296 14.7077C13.8296 14.6315 13.863 14.4459 13.9343 14.1462C13.9629 14.0177 13.9819 13.9082 13.9819 13.8273C13.882 13.894 13.8011 14.0177 13.744 14.1937C13.7154 14.2937 13.6679 14.4412 13.606 14.641C13.4775 14.8599 13.3157 15.036 13.1206 15.1645C12.9255 15.293 12.7209 15.3596 12.4973 15.3596C12.4116 15.3596 12.3545 15.3596 12.3164 15.3501C12.1499 15.2596 12.0404 15.1407 11.9833 14.9979C11.931 14.8552 11.9024 14.6839 11.9024 14.484C11.9024 14.4174 11.9024 14.3222 11.912 14.208C11.9215 14.0938 11.9215 14.0129 11.9215 13.9701C11.6074 14.0462 11.2315 14.2175 10.789 14.4745C10.4226 14.6981 10.0419 14.9218 9.64692 15.1454C9.25196 15.3738 8.87604 15.5166 8.51439 15.5785H8.19557C7.91958 15.5785 7.67214 15.5356 7.45325 15.4547C7.23436 15.3691 7.03926 15.2358 6.87271 15.0455C6.59672 14.3746 6.42065 13.5513 6.335 12.5806C6.28741 12.0857 6.26362 11.2387 6.2541 10.0396C6.24459 8.84042 6.20176 7.94582 6.11611 7.35101C6.0257 7.38907 5.9448 7.489 5.87818 7.64603C5.84963 7.73169 5.79253 7.86017 5.71639 8.03623C5.71639 8.51684 5.74019 9.14496 5.78301 9.9206C5.88294 11.6051 5.93053 12.652 5.93053 13.0612C5.96859 13.4562 6.0257 14.0605 6.10183 14.8647C6.21604 15.5214 6.45872 16.0353 6.83464 16.4064C7.17725 16.5873 7.52938 16.6824 7.89579 16.6824C8.07661 16.6824 8.26695 16.6586 8.46681 16.6063C8.66667 16.5587 8.85701 16.4921 9.04735 16.4064C9.36141 16.2684 9.70402 16.0781 10.0847 15.8354C10.3036 15.6974 10.6272 15.4881 11.0459 15.2073C11.2077 15.1169 11.3267 15.0693 11.4123 15.0693C11.536 15.0693 11.6074 15.2739 11.6312 15.6784C11.655 16.0829 11.774 16.3255 11.9976 16.4017C12.1118 16.4398 12.2118 16.4588 12.2926 16.4588C12.4354 16.4588 12.5829 16.4302 12.7257 16.3684C12.8684 16.3065 13.0588 16.1828 13.2967 15.9925C13.3586 16.0162 13.4157 16.0258 13.468 16.0258C13.5917 16.0258 13.7535 15.9449 13.9629 15.7783C14.1723 15.6165 14.334 15.5309 14.4483 15.5309C14.5387 15.5309 14.6291 15.5594 14.71 15.6118C15.0906 15.5118 15.4428 15.2644 15.7711 14.8694C16.0471 14.5411 16.2565 14.1652 16.4088 13.7369C16.4468 13.7845 16.5087 13.8797 16.5896 14.0272C16.6752 14.1747 16.7514 14.2841 16.8275 14.3508C17.0036 14.5268 17.2225 14.6125 17.4889 14.6125C17.5793 14.6125 17.6793 14.603 17.784 14.5792C17.9505 14.4792 18.1218 14.3508 18.2931 14.1985C18.4644 14.0415 18.5929 13.8844 18.6738 13.7322C18.8641 13.3991 19.0021 13.0469 19.083 12.6805C19.1687 12.3141 19.2068 11.9334 19.2068 11.5385C19.2068 10.9009 19.1021 10.2489 18.8975 9.5875C18.6928 8.92607 18.4264 8.31698 18.098 7.76024C17.9077 8.1885 17.7792 8.65484 17.7173 9.15924C17.6507 9.66364 17.6222 10.2632 17.6222 10.9675V12.6139C17.7173 12.3094 17.784 11.8906 17.822 11.3672C17.922 10.03 17.9838 9.29248 18.0076 9.15448C18.2788 9.56847 18.4835 10.0491 18.6215 10.6106C18.7166 10.9865 18.8023 11.5242 18.8879 12.238L18.9212 12.2427ZM8.24316 9.96343L8.08137 10.2585C8.14323 10.1728 8.18606 10.0824 8.20509 9.98246C8.22888 9.88253 8.2384 9.77309 8.2384 9.64936C8.2384 9.49709 8.21937 9.32579 8.1813 9.13545C8.09089 8.66911 8.0433 8.39788 8.0433 8.31222C8.0433 8.22181 8.05282 8.1314 8.07661 8.05051C8.30502 8.36457 8.41922 8.73573 8.41922 9.16876C8.41922 9.43523 8.35736 9.69695 8.2384 9.95867L8.24316 9.96343ZM4.81704 11.7812C4.81704 12.0096 4.76945 12.2285 4.67904 12.4331C4.58863 12.6377 4.46015 12.8185 4.30312 12.9708C4.30312 12.8947 4.27932 12.8423 4.2365 12.809C4.09374 12.8328 3.94147 12.9089 3.77968 13.0374C3.67499 13.1278 3.54651 13.2563 3.40376 13.4276C3.38948 13.4895 3.37997 13.5323 3.37997 13.5513C3.37997 13.637 3.40852 13.7084 3.46562 13.775C3.52272 13.8416 3.59886 13.8892 3.68927 13.9273H3.95099C4.11753 13.9273 4.25077 13.9463 4.3507 13.9844C4.45063 14.0224 4.52201 14.0986 4.56959 14.2128C4.56959 14.5839 4.48394 14.9408 4.31739 15.2787C4.15084 15.6165 3.91768 15.9068 3.62265 16.14C3.08018 16.2637 2.54247 16.3826 2 16.5064C2.1142 16.4207 2.37592 16.2732 2.78991 16.0591C3.399 15.7403 3.80823 15.4262 4.02236 15.1216C3.94623 15.0455 3.72734 14.9789 3.36569 14.917C3.00404 14.8552 2.82322 14.6934 2.82322 14.4269C2.88984 14.1366 2.98025 13.8559 3.0897 13.5751C3.19914 13.2991 3.33714 13.0327 3.49893 12.7805C3.66072 12.5283 3.84154 12.3236 4.0414 12.1619C4.26981 11.9715 4.52677 11.843 4.81704 11.7717V11.7812Z" fill="white"/>
</svg>
