<svg width="24" height="24" viewBox="0 0 24 24" fill="none" xmlns="http://www.w3.org/2000/svg">
<path fill-rule="evenodd" clip-rule="evenodd" d="M16.9746 8.64582C16.9276 8.78672 16.8493 8.91979 16.7397 9.06069C16.6614 9.16246 16.544 9.27987 16.3953 9.42077C16.1526 9.27987 15.9022 9.14679 15.6595 9.00589C15.7847 8.76323 15.863 8.61451 15.8943 8.56754C15.9961 8.41098 16.1135 8.29357 16.2622 8.19963C16.2857 8.21529 16.411 8.28573 16.6301 8.41098C16.7789 8.48925 16.8885 8.56753 16.9746 8.65363V8.64582ZM21.6869 13.7026C21.8982 13.0529 22 12.3797 22 11.6673C22 11.0333 21.9217 10.4384 21.7573 9.86696C21.593 9.29553 21.3503 8.77106 21.0215 8.29356C20.9041 8.31705 20.8258 8.4188 20.7867 8.60667C20.7476 8.79454 20.7162 8.96674 20.6849 9.13895C20.6849 9.20158 20.6771 9.50688 20.6536 10.0627C20.638 10.6184 20.6223 11.0724 20.6223 11.4247C20.6223 11.8004 20.638 12.1605 20.6771 12.4892C20.7084 12.8258 20.7632 13.1233 20.8337 13.3816C20.8337 12.4501 20.8415 11.5812 20.865 10.7671C20.8806 9.95306 20.9119 9.54601 20.9432 9.53818C21.1937 9.97653 21.3894 10.3757 21.5068 10.728C21.6634 11.1742 21.7339 11.6125 21.7339 12.0352C21.7339 12.2623 21.7104 12.4971 21.6634 12.7319C21.3659 13.7574 20.6693 14.5949 19.589 15.2603C18.7671 15.7613 17.7339 16.1448 16.4971 16.4031C17.1859 16.4031 17.8043 16.3797 18.3679 16.3249C18.9315 16.2701 19.4403 16.1683 19.9022 16.0118C20.317 15.7613 20.6849 15.4168 20.998 14.9941C21.2798 14.6184 21.5147 14.1879 21.6869 13.7026ZM19.3229 11.8161C19.4716 11.2525 19.5421 10.6889 19.5421 10.1174C19.5421 9.45989 19.4403 8.8415 19.2446 8.23876C19.0411 7.64385 18.7358 7.14287 18.3209 6.74365C18.1879 7.11156 18.0939 7.53426 18.0313 7.9961C17.9687 8.45794 17.9374 9.1468 17.9374 10.0627V11.4247C18.0783 10.2975 18.2192 9.17811 18.3679 8.0509C18.6419 8.36402 18.8532 8.73975 18.9863 9.17811C19.1194 9.62429 19.1898 10.3053 19.1898 11.2368C19.0489 11.5421 18.8219 11.8396 18.5088 12.1135C18.2505 12.3484 17.9374 12.5519 17.5851 12.7241V11.8787C17.5851 11.7378 17.5773 11.5969 17.5538 11.4482C17.5303 11.2994 17.4912 11.1742 17.4442 11.0881C17.4051 10.9628 17.3425 10.8924 17.2564 10.8689C17.1703 10.8454 17.045 10.8376 16.8806 10.8376C16.5675 11.0724 16.3483 11.3621 16.2231 11.7221C16.0978 12.0822 16.0352 12.4814 16.0352 12.9198V13.4599C15.6595 13.7182 15.2681 13.9452 14.8767 14.1331C14.5401 14.2975 14.1252 14.454 13.6321 14.6184C13.3425 14.6732 12.865 14.7672 12.2153 14.9081C11.6595 15.0098 11.182 15.0568 10.7671 15.0568C10.1957 15.0568 9.7182 14.9707 9.31898 14.7906C8.84931 14.5793 8.47358 14.2505 8.18395 13.7965C8.07436 13.1233 7.99609 12.4736 7.94912 11.8474C7.90215 11.2133 7.87084 10.6184 7.85519 10.0548C7.84736 9.49121 7.83953 8.70844 7.83953 7.71431C7.72994 7.76911 7.65166 7.86302 7.59687 7.98827C7.58121 8.02741 7.54207 8.15266 7.47945 8.36401C7.41683 8.57536 7.37769 8.74757 7.36204 8.88065C7.34638 9.01372 7.33855 9.26421 7.33855 9.63994C7.33855 9.90609 7.35421 10.2896 7.38552 10.7828C7.41683 11.2759 7.43249 11.6126 7.43249 11.8004C7.36986 11.9648 7.27593 12.1057 7.15851 12.2309C7.0411 12.3562 6.86888 12.4579 6.66536 12.5284C6.62622 12.4423 6.5636 12.3562 6.4775 12.2544C6.39139 12.1605 6.31311 12.0666 6.23483 11.9804C6.17221 11.9257 6.10176 11.9022 6.01566 11.9022C5.86693 11.9022 5.73386 11.9648 5.60078 12.0979C5.56164 12.2074 5.49119 12.3718 5.38943 12.6067C5.31115 12.818 5.27202 12.9902 5.27202 13.139C5.27202 13.272 5.2955 13.3895 5.34247 13.5069C5.49119 13.593 5.68689 13.6321 5.92955 13.6321H6.31311C6.37573 13.7261 6.40704 13.8435 6.40704 13.9765C6.40704 14.1331 6.36008 14.3131 6.26614 14.5088C6.17221 14.7045 6.08611 14.8924 6 15.0646C5.74168 15.4247 5.46771 15.6986 5.17808 15.8943C4.83366 16.137 4.48141 16.2544 4.1135 16.2544C3.95695 16.2544 3.78474 16.2309 3.59687 16.1762C3.409 16.1214 3.20548 15.9883 2.99413 15.7691C2.82975 15.5969 2.68102 15.3855 2.54012 15.135C2.34442 14.7984 2.25049 14.4619 2.25049 14.1331C2.25049 13.9139 2.30528 13.6791 2.41487 13.4521C2.50098 13.2642 2.63405 13.0763 2.80626 12.8728C3.36204 12.364 3.91781 11.8552 4.48141 11.3464C4.64579 11.182 4.78669 11.0176 4.91194 10.8376C5.03718 10.6576 5.13112 10.4853 5.18591 10.3053C5.05284 10.501 4.91976 10.6654 4.77886 10.8141C4.66928 10.9315 4.51272 11.0724 4.3092 11.2525C3.33855 12.09 2.82192 12.5519 2.75147 12.6223C2.46967 12.9511 2.27397 13.2955 2.16438 13.6478C2.05479 14 2 14.3445 2 14.6889C2 15.5578 2.2818 16.2779 2.85323 16.8337C3.06458 16.9824 3.26027 17.0842 3.44031 17.1546C3.62818 17.2172 3.8317 17.2564 4.05088 17.2564H4.18395C4.23875 17.2564 4.30137 17.2564 4.34834 17.2329C4.818 17.139 5.24853 16.8806 5.63992 16.4423C5.97652 16.0587 6.22701 15.6282 6.37573 15.1429C6.40704 15.0489 6.49315 14.7437 6.64188 14.227C6.73581 13.9061 6.82975 13.6086 6.91585 13.3503C7.00978 13.139 7.09589 12.9667 7.182 12.8337C7.2681 12.6928 7.37769 12.5519 7.51859 12.4032C7.57339 12.9041 7.63601 13.4286 7.69863 13.9687C7.76125 14.5088 7.93346 14.9393 8.19961 15.2525C8.5362 15.5421 8.90411 15.7456 9.2955 15.863C9.68689 15.9805 10.1252 16.0352 10.6106 16.0352C11.0959 16.0352 11.6204 15.9726 12.2153 15.8474C12.6145 15.7613 13.1233 15.636 13.726 15.4638C14.7593 14.9159 15.7926 14.3679 16.818 13.8121C17.3659 13.7339 17.8826 13.5069 18.3679 13.1311C18.8845 12.7319 19.2055 12.2857 19.3229 11.7926V11.8161ZM5.85127 8.71627L5.82779 8.95893C5.78865 9.0059 5.74951 9.11548 5.71037 9.29552C5.67123 9.47556 5.63209 9.58514 5.60078 9.63211L4.43444 9.8278C4.43444 9.62428 4.45793 9.44424 4.51272 9.28768C4.55969 9.1233 4.65362 8.98241 4.78669 8.85716C4.9589 8.85716 5.13112 8.84151 5.31898 8.8102C5.50685 8.77889 5.68689 8.74758 5.8591 8.71627H5.85127ZM17.2329 12.6145C17.1624 12.7397 17.0528 12.8024 16.8963 12.8024C16.8728 12.8024 16.818 12.8024 16.7241 12.7789C16.6301 12.7632 16.5519 12.7476 16.4971 12.7319C16.3796 12.6458 16.3249 12.544 16.3249 12.4188C16.3249 12.3562 16.3405 12.2779 16.3875 12.184C16.4501 11.9726 16.591 11.8709 16.8102 11.8709C16.9354 11.8709 17.045 11.91 17.1389 11.9883C17.2329 12.0666 17.2642 12.1761 17.2407 12.317C17.2407 12.364 17.2407 12.411 17.2407 12.4501C17.2407 12.4893 17.2407 12.5441 17.2407 12.6067L17.2329 12.6145Z" fill="white"/>
</svg>
