<svg width="24" height="24" viewBox="0 0 24 24" fill="none" xmlns="http://www.w3.org/2000/svg">
<path fill-rule="evenodd" clip-rule="evenodd" d="M21.6952 12.9294C21.7249 12.8253 21.7472 12.6989 21.7621 12.5651C21.7769 12.4312 21.7844 12.3048 21.7844 12.1784C21.7844 11.7398 21.6952 11.2788 21.5242 10.8104C21.3978 10.4833 21.197 10.0669 20.9145 9.55391C20.8773 9.69518 20.8476 9.84388 20.8327 10C20.8178 10.1561 20.8104 10.3346 20.8104 10.5353C20.8104 10.6989 20.8104 10.8699 20.8178 11.0335C20.8178 11.2045 20.8327 11.368 20.8401 11.5316C20.8401 11.7844 20.8253 11.9926 20.7955 12.1413C20.7658 12.29 20.7063 12.4535 20.6097 12.632V10.7435C20.6097 10.1636 20.6245 9.70261 20.6543 9.35317C20.684 9.00373 20.7435 8.63942 20.8327 8.26767C21.2268 8.71377 21.5167 9.24909 21.71 9.87362C21.9033 10.4982 22 11.145 22 11.8216C22 12.803 21.8067 13.7398 21.4201 14.632C21.2342 14.9963 21.0112 15.3011 20.7584 15.5614C20.4461 15.8736 20.119 16.0669 19.7844 16.1487C19.5019 16.2082 19.1747 16.2454 18.8178 16.2677C18.461 16.29 18.0892 16.3048 17.71 16.3048H17.2862C17.1673 16.3048 17.0409 16.3048 16.9145 16.3048C16.7881 16.3048 16.6691 16.3048 16.5428 16.3048H16.4387C17.2714 16.171 17.9777 16 18.5651 15.8067C19.3532 15.539 19.9926 15.197 20.4758 14.7956C21.0632 14.2974 21.4647 13.6803 21.6729 12.9368L21.6952 12.9294ZM14.6171 9.02604C14.5725 9.09295 14.5279 9.145 14.4758 9.18961C14.4238 9.23422 14.3271 9.30856 14.1784 9.42752C14 9.54648 13.7249 9.68775 13.3532 9.85132C12.9071 10.0446 12.6171 10.1785 12.4981 10.2454L12.6989 10.0074C12.8922 9.81414 13.1896 9.6357 13.6059 9.4647C14.1784 9.22678 14.513 9.08552 14.6097 9.02604H14.6171ZM19.1747 10.9591C19.0855 11.4127 18.9219 11.8141 18.6766 12.1561C18.3792 12.5576 18.0297 12.7956 17.6134 12.8699V12.0669C17.6134 11.9926 17.6134 11.9257 17.6059 11.8662C17.6059 11.8141 17.5836 11.7472 17.5539 11.6877C17.2937 11.5911 17.1301 11.5316 17.0558 11.5167C16.9814 11.5019 16.8922 11.487 16.7807 11.487H16.4981C16.3197 11.487 16.1933 11.5688 16.1264 11.7398C16.0743 11.9034 16.0297 12.0669 15.9851 12.2305C15.9331 12.3197 15.9108 12.4015 15.9108 12.461C15.9108 12.5651 15.9926 12.6617 16.1561 12.7509C16.3792 12.8699 16.5056 12.9517 16.5502 12.9963C16.2156 13.3755 15.7844 13.7026 15.2491 13.9777C15.0632 14.0744 14.5725 14.2974 13.7621 14.632C13.3383 14.7435 12.8996 14.8402 12.4535 14.9071C12.0074 14.9814 11.5836 15.0112 11.1673 15.0112C10.632 15.0112 10.1561 14.9443 9.73978 14.8179C9.25651 14.6692 8.85502 14.4387 8.53532 14.1338C8.22305 13.5539 7.99256 12.8476 7.8513 12.0298C7.77695 11.6134 7.71004 10.8773 7.63569 9.829C7.56134 8.78068 7.47212 8.00002 7.37546 7.47957C7.27137 7.6357 7.18959 7.7844 7.13755 7.92566C7.0855 8.06692 7.0632 8.21562 7.0632 8.37919C7.15985 9.40521 7.26394 10.4312 7.37546 11.4498C7.2342 11.6208 7.0855 11.7695 6.92937 11.8885C6.80297 11.9851 6.65427 12.0818 6.48327 12.1784L5.94795 11.6208C5.94795 11.6208 5.86617 11.5911 5.80669 11.5762C5.74721 11.5614 5.7026 11.5539 5.66543 11.5539C5.50929 11.5539 5.39033 11.6134 5.31598 11.7324C5.31598 11.8439 5.27881 12.0149 5.19703 12.2305C5.11524 12.4535 5.07807 12.6171 5.07807 12.7212C5.07807 12.8476 5.11524 12.974 5.19703 13.093C5.27881 13.1599 5.36059 13.2045 5.44981 13.2268C5.53903 13.2491 5.65056 13.264 5.77695 13.264C5.91078 13.264 6.03717 13.2565 6.16357 13.2342C6.20818 13.3606 6.23048 13.4796 6.23048 13.5985C6.23048 13.829 6.15613 14.0669 6.01487 14.3271C5.92565 14.4907 5.76952 14.6989 5.56877 14.9591C5.33829 15.2193 5.11524 15.4275 4.88476 15.5762C4.60223 15.7621 4.31227 15.8513 4.02974 15.8513C3.98513 15.8513 3.91078 15.8513 3.79182 15.829C3.50186 15.7398 3.22677 15.5688 2.98141 15.3309C2.72862 15.0855 2.55762 14.8253 2.46097 14.5428C2.36431 14.2602 2.3197 14.0075 2.3197 13.777C2.3197 13.5093 2.37918 13.2491 2.49071 12.9963C2.57993 12.7956 2.72862 12.5799 2.92937 12.3346C3.04833 12.2008 3.36803 11.8885 3.88104 11.4052C4.11896 11.1822 4.30483 10.9889 4.45353 10.8179C4.60223 10.6468 4.72119 10.4833 4.81041 10.3197C4.89963 10.1561 4.97398 9.9777 5.02602 9.7844C4.95167 9.9554 4.86245 10.1115 4.75093 10.2602C4.63941 10.4089 4.51301 10.5428 4.36431 10.6692C4.03717 10.9219 3.71004 11.1822 3.39033 11.435C3.01859 11.7472 2.75836 12.0595 2.60223 12.3718C2.41636 12.6617 2.27509 12.9814 2.16357 13.3309C2.05948 13.6803 2 14.0298 2 14.3792C2 14.6469 2.03717 14.9219 2.10409 15.2045C2.17844 15.4796 2.27509 15.7324 2.41636 15.948C2.65428 16.2305 2.88476 16.4461 3.12268 16.6022C3.39777 16.7807 3.69517 16.8699 4 16.8699C4.12639 16.8699 4.25279 16.855 4.36431 16.8253C5.09294 16.5428 5.64312 16.0149 6.02974 15.2565C6.32714 14.6692 6.52788 13.9182 6.62454 13.0037C6.7658 12.9219 6.88476 12.8327 6.98885 12.7361C7.07063 12.6617 7.2119 12.4907 7.42751 12.2008C7.47955 12.513 7.5539 13.0037 7.66543 13.6729C7.86617 14.6469 8.28996 15.3086 8.9368 15.658C9.29368 15.7695 9.64312 15.8513 10 15.9034C10.3494 15.9554 10.7063 15.9777 11.0706 15.9777C12.0074 15.9777 12.9294 15.8067 13.8364 15.4647C14.3792 15.2565 14.9145 14.9889 15.4349 14.6543C15.9256 14.3495 16.4089 13.9851 16.8773 13.5688C16.9665 13.658 17.0781 13.7249 17.1896 13.7547C17.3085 13.7844 17.4498 13.7993 17.6134 13.7993C17.9405 13.7993 18.2528 13.658 18.5427 13.3755C18.803 13.1227 18.9888 12.8253 19.1004 12.4833C19.3532 11.9034 19.4721 11.264 19.4721 10.5651C19.4721 9.92566 19.368 9.30113 19.1599 8.6989C18.9517 8.09667 18.6617 7.57622 18.2751 7.13013C18.2305 7.19704 18.1859 7.25651 18.1338 7.30856C18.1115 7.36804 18.1041 7.54648 18.1041 7.84388C18.1041 7.92566 18.1041 8.14871 18.0818 8.51303C18.0669 8.87734 18.0595 9.17473 18.0595 9.40522C18.0595 9.75466 18.0818 10.1041 18.119 10.4461C18.1561 10.7955 18.223 11.0781 18.3048 11.3086C18.3866 10.9442 18.4312 10.5948 18.4461 10.2454C18.461 9.89593 18.4758 9.45726 18.4758 8.91451V8.57251C18.7138 8.92195 18.8848 9.29369 19.0037 9.68031C19.1227 10.0744 19.1822 10.4907 19.1822 10.9368L19.1747 10.9591ZM5.44981 8.15614C5.44981 8.36432 5.41264 8.55764 5.33085 8.73608C5.24907 8.91452 5.13011 9.04091 4.96654 9.10782C4.74349 9.13756 4.52788 9.15987 4.3197 9.18961C4.11152 9.21191 3.89591 9.25652 3.67286 9.32343C3.65799 9.24908 3.65056 9.20448 3.65056 9.17474C3.65056 9.07808 3.6803 8.93682 3.73978 8.76581C3.79926 8.59481 3.83643 8.49072 3.84387 8.44612C4.04461 8.34203 4.28996 8.27511 4.58736 8.24537C4.88476 8.21563 5.16729 8.18588 5.44238 8.15614H5.44981Z" fill="white"/>
</svg>
