<svg width="24" height="24" viewBox="0 0 24 24" fill="none" xmlns="http://www.w3.org/2000/svg">
<path fill-rule="evenodd" clip-rule="evenodd" d="M15.1509 6.18029C15.1007 6.23553 15.0806 6.31587 15.0806 6.42132C15.0806 6.5117 15.1157 6.64226 15.1911 6.81801C15.2312 6.91342 15.2513 6.9787 15.2513 7.00882C15.2513 7.09921 15.1609 7.13937 14.9751 7.13937C14.8245 7.41052 14.6136 7.67164 14.3525 7.91769C14.0914 8.16373 13.8102 8.36458 13.5039 8.52526L14.8797 7.04396C14.8797 7.04396 14.7642 6.97367 14.6086 6.91342C14.4529 6.84814 14.3726 6.77783 14.3726 6.69749C14.3726 6.64225 14.3876 6.58702 14.4228 6.52676C14.4479 6.43136 14.5182 6.31085 14.6387 6.17025C14.7592 6.02966 14.8647 5.95935 14.95 5.95935C15.0354 5.95935 15.1057 6.02966 15.1559 6.17528L15.1509 6.18029ZM15.7283 7.63649L15.5476 8.06832C15.4271 8.09343 15.3668 8.06831 15.3668 7.99801C15.3668 7.96789 15.3769 7.89257 15.402 7.7821C15.402 7.74193 15.3919 7.70176 15.3668 7.66159L15.3317 7.69675C15.2814 7.83232 15.2312 7.97793 15.181 8.12355C15.1308 8.27419 15.0254 8.31939 14.8747 8.26416L14.8396 7.91266C14.7743 8.01811 14.7341 8.11351 14.714 8.20389C14.6939 8.29427 14.6839 8.41479 14.6839 8.56543C14.7642 8.62066 14.8446 8.6508 14.9249 8.6508C14.9952 8.6508 15.1157 8.60057 15.2764 8.50015C15.4371 8.39972 15.5677 8.34951 15.6731 8.34951C15.6731 8.33445 15.6932 8.25913 15.7334 8.1336C15.7735 8.00304 15.7936 7.90763 15.7936 7.84235C15.7936 7.75197 15.7735 7.68671 15.7334 7.63649H15.7283ZM21.995 12.1908C21.995 12.929 21.9498 13.5516 21.8644 14.0588C21.754 14.6915 21.5531 15.2589 21.2719 15.756C21.0058 16.3184 20.6191 16.7402 20.1019 17.0214C19.6852 17.2523 19.1479 17.403 18.5001 17.4683C18.1135 17.5084 17.536 17.5285 16.7627 17.5285C16.5518 17.5436 16.346 17.5637 16.1351 17.5888C16.8029 17.4532 17.3954 17.2875 17.9177 17.0967C18.5503 16.8657 19.1228 16.5795 19.6299 16.2431C20.1923 15.8815 20.6543 15.4698 21.0158 15.0028C21.4175 14.4906 21.6887 13.9132 21.8343 13.2805C21.8343 12.7482 21.7288 12.2059 21.523 11.6536C21.3774 11.277 21.1313 10.7849 20.7748 10.1823C20.7447 10.4133 20.7196 11.0309 20.7045 12.0302C20.6894 13.0294 20.6091 13.5667 20.4635 13.637C20.4635 13.3658 20.4635 13.0846 20.4584 12.8034C20.4584 12.5222 20.4534 12.231 20.4534 11.9348C20.4534 11.1163 20.4836 10.4735 20.5388 10.0066C20.594 9.53957 20.6744 9.13285 20.7798 8.77633C21.1564 9.26842 21.4527 9.80068 21.6736 10.3832C21.8895 10.9656 22 11.5682 22 12.1858L21.995 12.1908ZM16.6322 9.22825C16.4715 9.05752 16.2807 8.97718 16.0648 8.97718C15.5978 9.21821 15.2262 9.61991 14.945 10.1823C14.7743 10.5187 14.6036 11.0259 14.4278 11.6988C14.6036 11.287 14.7542 10.9857 14.8747 10.7849C15.0756 10.4635 15.3116 10.2225 15.5877 10.0618C15.658 10.0116 15.7283 9.99149 15.7936 9.99149C15.8639 9.99149 15.9543 10.0216 16.0598 10.0769C16.115 10.102 16.1953 10.1472 16.3008 10.2225C16.3912 10.0518 16.4615 9.88604 16.5217 9.71532C16.582 9.54459 16.6221 9.38391 16.6372 9.23327L16.6322 9.22825ZM11.174 9.09769C11.0786 9.24331 10.9581 9.36885 10.8175 9.47932C10.6769 9.58978 10.5162 9.69022 10.3304 9.78563C9.999 9.97644 9.67261 10.1723 9.3412 10.3631C9.39643 10.2124 9.49686 10.0718 9.63746 9.94129C9.77806 9.81073 9.93874 9.70527 10.1145 9.61489C10.466 9.44416 10.8225 9.27344 11.174 9.09769ZM19.188 10.338C19.188 9.91115 19.1178 9.43915 18.9721 8.91693C18.9018 8.6508 18.7512 8.2039 18.5252 7.58125C18.229 8.07836 17.993 8.71105 17.8122 9.47429C17.6816 10.1572 17.5611 10.8351 17.4406 11.513C17.5461 11.2418 17.6666 10.805 17.8072 10.2074C17.9478 9.60988 18.0834 9.15795 18.2089 8.85165C18.3294 9.24331 18.4549 9.65506 18.5905 10.0769C18.7211 10.4986 18.7914 10.8903 18.7914 11.2518C18.6809 11.6284 18.4348 11.99 18.0582 12.3365C17.7871 12.5875 17.4256 12.8436 16.9837 13.1098C16.9284 13.0545 16.8983 13.0043 16.8933 12.9591C16.8933 12.9139 16.8883 12.8737 16.8883 12.8336C16.8883 12.7633 16.8983 12.6478 16.9134 12.4971C16.9134 12.4319 16.9033 12.3666 16.8782 12.3063C16.8079 12.3766 16.7577 12.4971 16.7326 12.6679C16.7075 12.8386 16.6774 12.9491 16.6372 13.0043C16.5669 13.0947 16.4916 13.18 16.4213 13.2704C16.2706 13.4562 16.125 13.5366 15.9895 13.5115C15.9493 13.4462 15.9292 13.3809 15.9292 13.3056C15.9392 13.2403 15.9443 13.175 15.9543 13.1148C15.9643 13.0495 15.9643 12.9842 15.9643 12.924C15.9643 12.8537 15.9643 12.7984 15.9543 12.7683C15.884 12.7984 15.8338 12.8587 15.8087 12.944C15.7836 13.0294 15.7585 13.1349 15.7384 13.2654C15.5877 13.4512 15.4522 13.5918 15.3417 13.6872C15.181 13.8228 15.0153 13.9031 14.8496 13.9282C14.7843 13.8378 14.7542 13.7424 14.7542 13.637C14.7542 13.5667 14.7642 13.4713 14.7894 13.3608C14.8145 13.2503 14.8245 13.17 14.8245 13.1198C14.8245 13.0294 14.8145 12.9691 14.7894 12.929C14.7592 13.0093 14.7241 13.0897 14.6939 13.165C14.6638 13.2403 14.6437 13.3257 14.6437 13.411C14.4579 13.6521 14.237 13.8429 13.9809 13.9835C13.7248 14.1241 13.4587 14.1944 13.1875 14.1944C13.0821 14.1944 12.9967 14.1893 12.9214 14.1743C12.8511 14.1642 12.7708 14.104 12.6904 13.9985C12.6402 13.9332 12.595 13.8479 12.5448 13.7324C12.7155 13.5466 12.8361 13.2855 12.9164 12.9491C12.9566 12.7633 13.0118 12.4771 13.0871 12.0954C13.1022 11.9599 13.0369 11.8544 12.8812 11.7841C12.7306 11.7138 12.6402 11.6536 12.6151 11.6033C12.4394 11.6033 12.2787 11.6184 12.1381 11.6435C11.9975 11.6736 11.877 11.7239 11.7715 11.7942C11.5857 11.8745 11.4702 12.0603 11.4301 12.3565C11.3849 12.6478 11.3447 12.8386 11.3045 12.929C11.3297 12.9792 11.3949 13.0294 11.5104 13.0796C11.6209 13.1298 11.6912 13.1851 11.7163 13.2403C11.41 13.3708 11.1489 13.4914 10.933 13.6119C10.6618 13.7625 10.4359 13.9232 10.2601 14.0839C10.0291 14.2948 9.85338 14.5157 9.74291 14.7467C9.63244 14.9777 9.57218 15.2539 9.57218 15.5652C9.39644 15.9418 9.15541 16.2581 8.84911 16.5192C8.61813 16.7201 8.29676 16.9159 7.88501 17.1118C7.73939 17.177 7.38288 17.3226 6.81044 17.5587C6.37861 17.7344 6.04218 17.8951 5.8112 18.0407C6.16269 17.9202 6.68491 17.8399 7.37283 17.7997C8.06076 17.7595 8.47753 17.7294 8.63319 17.7043C9.01983 17.5135 9.32614 17.1971 9.54708 16.7653C9.63746 16.5946 9.70274 16.4439 9.74793 16.3134C9.79312 16.1828 9.86844 15.9117 9.96887 15.51C10.1145 15.284 10.3103 15.0831 10.5614 14.9074C10.6568 14.8421 10.8074 14.7567 11.0083 14.6563C11.2091 14.5509 11.415 14.4454 11.6209 14.345C11.887 14.2094 12.0879 14.0939 12.2235 13.9935C12.2385 14.0487 12.2636 14.2144 12.2887 14.4956C12.3189 14.7718 12.3841 14.9676 12.4896 15.0781C12.58 15.1484 12.6703 15.1986 12.7607 15.2288C12.8511 15.2589 12.9566 15.2689 13.067 15.2689C13.1976 15.2689 13.3784 15.2338 13.6194 15.1585C14.0713 15.0229 14.3374 14.9526 14.4278 14.9526C14.4931 14.9827 14.5684 15.0028 14.6588 15.0028C14.7693 15.0028 15.0053 14.8973 15.3568 14.6915C15.5024 14.6111 15.6229 14.576 15.7183 14.581C15.7886 14.6312 15.8639 14.6513 15.9342 14.6513C16.0547 14.6513 16.1853 14.581 16.3209 14.4354C16.3912 14.3651 16.4916 14.2496 16.6221 14.099C16.9284 14.099 17.2448 13.9835 17.5762 13.7475C17.8323 13.5717 18.1034 13.3206 18.3846 12.9993C18.696 12.6478 18.9169 12.226 19.0475 11.7439C19.1529 11.3573 19.2031 10.8953 19.2031 10.358L19.188 10.338ZM17.3101 15.2288C17.2448 15.2589 17.1896 15.3342 17.1393 15.4447C17.0891 15.5551 17.059 15.6204 17.0439 15.6355C16.9787 15.6606 16.9134 15.6857 16.8431 15.7208C16.7728 15.751 16.7175 15.751 16.6673 15.7208C16.6824 15.6656 16.6975 15.6054 16.7175 15.5401C16.7326 15.4748 16.7276 15.4246 16.6924 15.3844L16.4514 15.8414C16.4012 15.8916 16.356 15.9117 16.3058 15.9117C16.2757 15.9117 16.1903 15.8765 16.0547 15.8012C15.9895 15.7711 15.9392 15.751 15.8991 15.751C15.7233 15.8564 15.4873 16.0221 15.2011 16.2431C15.0505 16.3636 14.8195 16.5494 14.5132 16.7954C14.1617 17.1017 13.8704 17.3277 13.6445 17.4683C13.4687 17.5787 13.288 17.6792 13.1022 17.7595C13.3432 17.7344 13.5893 17.6541 13.8353 17.5185C14.0211 17.4231 14.227 17.2825 14.463 17.1017C14.699 16.9209 14.9149 16.7502 15.1258 16.5845C15.3367 16.4188 15.5476 16.2732 15.7635 16.1426C15.8589 16.238 15.9744 16.2883 16.115 16.2883C16.2204 16.2883 16.3761 16.238 16.587 16.1326C16.7979 16.0271 16.9485 15.9619 17.0439 15.9418C17.1092 15.8213 17.1745 15.6957 17.2448 15.5702C17.3151 15.4396 17.3352 15.3242 17.3101 15.2187V15.2288ZM13.298 16.469C13.1624 16.6046 12.9967 16.7603 12.7959 16.926C12.6001 17.0967 12.4143 17.2272 12.2486 17.3226C11.9824 17.4733 11.7163 17.5536 11.4401 17.5536C11.2945 17.5536 11.1388 17.5235 10.9681 17.4582C10.9028 17.393 10.8727 17.3176 10.8727 17.2272C10.8727 17.1469 10.9028 17.0565 10.9681 16.9511C11.0334 16.8456 11.0936 16.7502 11.1489 16.6598L11.2945 16.5042C11.1589 16.4389 11.0886 16.3334 11.0886 16.1778C11.0886 16.1276 11.0987 16.0824 11.1238 16.0322C11.2142 15.8966 11.2845 15.8012 11.3397 15.7409C11.4502 15.6204 11.5506 15.5602 11.6309 15.5602C11.7012 15.5602 11.7615 15.6104 11.8017 15.7158C11.8017 15.756 11.7715 15.8062 11.7113 15.8614C11.651 15.9167 11.6159 15.9619 11.6108 15.992C11.5456 15.9619 11.4853 15.9317 11.4301 15.9066C11.3999 15.9066 11.3698 15.9217 11.3447 15.9568C11.3598 16.0271 11.4251 16.0774 11.5305 16.1075C11.641 16.1376 11.7113 16.1677 11.7414 16.1979C11.8217 16.1326 11.8971 16.0774 11.9623 16.0372C12.0326 15.992 12.0929 15.9769 12.1481 15.997C12.0778 16.1326 11.9021 16.2883 11.6309 16.454C11.3598 16.6247 11.2041 16.8055 11.174 16.9963C11.3347 17.1168 11.5054 17.177 11.6912 17.177C11.877 17.177 12.0678 17.1168 12.2937 16.9963C12.9465 16.6498 13.2779 16.474 13.293 16.464L13.298 16.469ZM8.00552 11.5883C8.03565 11.8444 8.05574 12.1356 8.05574 12.457C8.05574 13.3307 7.9051 14.1341 7.60884 14.8572C7.32764 15.6305 6.91589 16.2883 6.36857 16.8356C5.72583 17.4783 5.04795 17.7997 4.3299 17.7997C4.01858 17.8499 3.75747 17.88 3.55662 17.9001C3.35576 17.9202 3.13482 17.9302 2.8938 17.9302C2.60256 17.9302 2.3063 17.9001 2 17.8348C2.8938 17.5687 3.61687 17.3076 4.17926 17.0515C4.6111 16.8607 5.03289 16.6247 5.44464 16.3535C6.0472 15.9669 6.52423 15.5602 6.88074 15.1233C7.30756 14.6111 7.57369 14.0337 7.67412 13.401C7.70424 13.1851 7.72433 13.0294 7.72935 12.939C7.72935 12.8486 7.73437 12.7733 7.73437 12.7181C7.73437 12.2511 7.66407 11.8042 7.52348 11.3673C7.38288 10.9355 7.177 10.4987 6.90083 10.0668C6.8707 10.2275 6.84559 10.4535 6.83053 10.7397C6.81547 11.0309 6.80542 11.277 6.80542 11.4879V12.236C6.80542 12.6679 6.79538 12.9943 6.77529 13.2052C6.75521 13.4161 6.71504 13.632 6.6598 13.8479H6.5644C6.5644 13.4612 6.5644 13.0746 6.55436 12.6779C6.54431 12.2862 6.53929 11.8845 6.52925 11.4828C6.52925 10.8903 6.54934 10.3681 6.58448 9.92622C6.61963 9.48434 6.69495 9.04747 6.80542 8.61062C7.12679 9.00228 7.3879 9.4542 7.58875 9.96136C7.78961 10.4685 7.92518 11.0108 8.0005 11.5883H8.00552ZM4.46046 12.2862L4.3299 12.1657C4.05875 12.2712 3.81773 12.4218 3.61185 12.6177C3.40598 12.8135 3.23023 13.0495 3.07959 13.3156C2.92895 13.5868 2.81848 13.8579 2.73814 14.1341C2.6578 14.4103 2.60256 14.6965 2.56741 14.9827C2.64775 15.053 2.73814 15.1032 2.84359 15.1334C2.94903 15.1635 3.06955 15.1735 3.20512 15.1735C3.27542 15.1735 3.39593 15.1735 3.55662 15.1635C3.58674 15.3643 3.41602 15.5802 3.03942 15.8162C2.83856 15.9368 2.53226 16.1175 2.12553 16.3586C2.24605 16.3586 2.4469 16.3083 2.72307 16.2079C2.99925 16.1075 3.22019 16.0573 3.38087 16.0573C3.67211 15.9217 3.89305 15.6857 4.04369 15.3442C4.13909 15.1283 4.22948 14.812 4.30982 14.3902C4.25458 14.2697 4.1893 14.1944 4.10896 14.1692C4.03364 14.1391 3.9282 14.1291 3.7876 14.1291C3.73236 14.1291 3.64198 14.1291 3.52147 14.1391C3.43108 14.1391 3.35074 14.1291 3.27542 14.114C3.2001 14.099 3.13482 14.0638 3.08963 14.0186C3.08963 13.9081 3.14487 13.7927 3.26036 13.6772C3.37083 13.5617 3.48632 13.4462 3.59679 13.3357C3.66709 13.2654 3.74743 13.2252 3.83781 13.2252C3.90811 13.2252 3.96837 13.2554 4.01858 13.3106C4.10896 13.1499 4.20437 12.9792 4.30982 12.7984C4.41527 12.6177 4.46548 12.4469 4.46548 12.2862H4.46046ZM14.8948 6.56192C14.9048 6.52175 14.8848 6.45145 14.8345 6.35604C14.7944 6.3711 14.7542 6.38618 14.7191 6.39622C14.6839 6.40626 14.6688 6.43638 14.6789 6.47655L14.8948 6.56192Z" fill="white"/>
</svg>
