<svg width="24" height="24" viewBox="0 0 24 24" fill="none" xmlns="http://www.w3.org/2000/svg">
<path fill-rule="evenodd" clip-rule="evenodd" d="M17.3792 8.2083C17.3589 8.30436 17.3488 8.39028 17.3488 8.47117V8.66329C17.3488 8.80484 17.3286 8.9009 17.2932 8.9464C17.2578 8.9919 17.1972 9.03236 17.1163 9.05764C16.9798 9.25481 16.8433 9.42668 16.7017 9.57329C16.5197 9.76035 16.3428 9.90192 16.1658 9.99798L17.0859 8.9464C17.0607 8.90595 17.0101 8.87058 16.9343 8.83519C16.7927 8.76947 16.7118 8.69867 16.6916 8.62283C16.7321 8.48128 16.7776 8.37007 16.8231 8.28918C16.8989 8.16784 16.9949 8.092 17.1163 8.05661C17.1719 8.04144 17.2174 8.05158 17.2629 8.08191C17.3084 8.11224 17.3438 8.15269 17.3792 8.2083ZM21.9393 12.3539C21.9798 12.6572 22 12.9656 22 13.274C22 13.7543 21.9545 14.2093 21.8635 14.639C21.7725 15.0688 21.6309 15.4985 21.4338 15.9231C21.2518 16.2315 21.0445 16.4843 20.8069 16.6714C20.5238 16.8989 20.2255 17.0152 19.907 17.0152C19.8413 17.0152 19.7856 17.0152 19.7452 17.005C19.4671 17.005 19.2042 16.9039 18.9464 16.7017C18.6886 16.4995 18.5167 16.2619 18.4307 15.9838C18.365 15.7361 18.3296 15.4682 18.3296 15.185C18.3296 14.8615 18.3751 14.5126 18.4712 14.1385C18.5672 13.7644 18.7543 13.2538 19.0374 12.6067C18.8756 13.2942 18.7189 13.9767 18.5622 14.6592C18.5622 14.8412 18.5875 15.0081 18.638 15.1648C18.6886 15.3215 18.7745 15.4681 18.8908 15.6097C19.0071 15.7512 19.1436 15.8574 19.3003 15.9231C19.4065 15.9686 19.5683 16.0192 19.7755 16.0647C19.8311 16.0698 19.8716 16.0748 19.8969 16.0748C20.185 16.0748 20.4682 15.9636 20.7361 15.7411C20.9434 15.5743 21.1507 15.3367 21.3529 15.0334C21.4944 14.7958 21.6006 14.548 21.6714 14.2851C21.7422 14.0222 21.7776 13.7543 21.7776 13.4864C21.7776 13.178 21.7321 12.8342 21.636 12.4651C21.5399 12.0961 21.3883 11.6967 21.1709 11.272C21.004 10.9434 20.7917 10.5794 20.5339 10.1901C20.458 11.1001 20.3873 12.0101 20.3114 12.9201C20.2659 12.7634 20.2305 12.5915 20.2103 12.3994C20.1901 12.2073 20.18 12.0202 20.18 11.8382C20.18 11.5703 20.1951 11.2619 20.2305 10.9181C20.3114 10.089 20.3519 9.57834 20.3519 9.38117C20.367 9.31545 20.3771 9.24468 20.3923 9.16885C20.4176 9.09301 20.4681 9.05764 20.5339 9.05764C20.913 9.50759 21.2164 10.0131 21.454 10.5693C21.6916 11.1254 21.8534 11.7219 21.9393 12.3539ZM16.3782 10.7361C16.3428 10.8221 16.3276 10.8928 16.3276 10.9484C16.3276 11.0142 16.3428 11.095 16.3782 11.1911C16.4136 11.2871 16.4287 11.3478 16.4287 11.3731C16.4287 11.459 16.3832 11.55 16.2973 11.636C16.277 11.6309 16.2518 11.6107 16.2164 11.5854C16.181 11.545 16.1507 11.5248 16.1254 11.5248C15.8878 11.8028 15.7664 11.9495 15.7513 11.9697C15.4732 12.2781 15.2204 12.4853 14.9828 12.5864C15.0688 12.4651 15.2912 12.2427 15.64 11.9191C15.817 11.7573 15.9484 11.6208 16.0344 11.5147C16.0091 11.4793 15.9484 11.4338 15.8524 11.3731C15.7563 11.3124 15.7058 11.2467 15.6906 11.181C15.7664 10.9232 15.9333 10.731 16.1962 10.6047C16.3023 10.64 16.363 10.6805 16.3782 10.7361ZM19.27 10.3721C19.088 10.3721 18.8605 10.4075 18.5824 10.4833C17.8999 10.6653 17.541 10.7614 17.5005 10.7664C17.8797 10.5035 18.1931 10.2255 18.4408 9.93731C18.729 9.59353 18.9211 9.23458 19.0071 8.86552C19.0425 8.75936 19.0627 8.67844 19.0677 8.62283C19.0728 8.56722 19.0779 8.49141 19.0779 8.39029C19.0779 8.14257 19.0273 7.88979 18.9262 7.63195C18.8807 7.50556 18.7695 7.27301 18.5925 6.9444C18.1021 7.89991 17.8392 8.42569 17.8038 8.52175C17.6673 8.88069 17.6016 9.21435 17.6016 9.52275C17.8291 8.99191 18.0617 8.45603 18.2993 7.92519C18.3802 8.10213 18.4611 8.274 18.542 8.44084C18.6229 8.63801 18.6633 8.82506 18.6633 9.00706V9.10818C18.6633 9.15368 18.6582 9.19919 18.6431 9.23963C18.4358 9.42164 18.2285 9.60365 18.0263 9.78565C17.7887 9.99293 17.6016 10.185 17.4601 10.3519C17.273 10.5592 17.1213 10.7816 17.0152 11.0091C16.909 11.2366 16.8534 11.4793 16.8534 11.7371C17.5005 11.459 17.8493 11.3175 17.8948 11.3023C18.1173 11.2366 18.3448 11.2012 18.5723 11.2012C18.6127 11.2012 18.6684 11.2012 18.7442 11.2113C18.1375 11.5602 17.5308 11.914 16.9242 12.2629C16.5804 12.4803 16.3225 12.6977 16.1456 12.9201C15.9232 13.1881 15.7867 13.5066 15.731 13.8706C15.8928 13.8706 16.1001 13.8402 16.3478 13.7796C16.8483 13.6582 17.1769 13.5976 17.3387 13.5976C17.4247 13.5976 17.4904 13.5976 17.5308 13.6077C16.7573 13.9767 15.9838 14.3458 15.2154 14.7098C15.1345 15.0738 14.9828 15.3873 14.7604 15.6501C14.5733 15.8726 14.3104 16.0799 13.9717 16.277C13.7037 16.4338 13.3903 16.5753 13.0313 16.7017C12.8493 16.7674 12.541 16.8685 12.1112 17.005C12.273 17.0253 12.4247 17.0404 12.5662 17.0455C12.7078 17.0506 12.8443 17.0556 12.9707 17.0556H13.6279C14.0475 17.0556 14.4014 16.7674 14.6997 16.1962C14.9171 15.7765 15.0536 15.5288 15.1143 15.4479C15.5187 15.271 15.9232 15.0991 16.3276 14.9323C16.5956 14.8109 16.8382 14.6896 17.0556 14.5682C17.3994 14.366 17.6673 14.1436 17.8645 13.9009C18.1021 13.6127 18.2437 13.2791 18.2993 12.8999C18.183 12.8544 18.0516 12.8291 17.905 12.8291C17.7583 12.8291 17.5511 12.8544 17.2679 12.91C16.9848 12.9656 16.7826 12.9909 16.6613 12.9909C16.7573 12.9353 17.0101 12.7937 17.4297 12.5561C17.9555 12.2578 18.36 11.9848 18.6431 11.7371C18.7846 11.5602 18.9312 11.3832 19.0779 11.2012C19.2548 10.9788 19.3407 10.7917 19.3407 10.635C19.3407 10.549 19.3155 10.458 19.27 10.3721ZM17.4196 16.004C17.3134 16.3023 17.1314 16.5349 16.8736 16.7118C16.8483 16.6764 16.7068 16.5955 16.4591 16.459C16.3529 16.4034 16.2973 16.3529 16.2973 16.3074C16.2973 16.2669 16.3225 16.2315 16.3782 16.1962L17.0455 15.6704L17.4196 16.004ZM13.6684 12.4449C13.6684 12.9151 13.5925 13.4105 13.4459 13.9312C13.3296 14.3306 13.1628 14.7755 12.9403 15.2659C12.6724 15.8675 12.2224 16.2922 11.5956 16.5399C11.095 16.7422 10.453 16.8433 9.66431 16.8433L8.97674 16.7927C9.42669 16.727 9.8817 16.6056 10.3316 16.4338C10.7816 16.2619 11.2113 16.0394 11.6208 15.7614C12.0303 15.4833 12.3842 15.1598 12.6825 14.7806C12.9808 14.4014 13.2032 13.9767 13.3448 13.5066C13.4206 13.2487 13.456 13.0061 13.456 12.7786C13.456 12.4348 13.3903 12.096 13.2639 11.7573C13.1628 11.4894 12.996 11.186 12.7685 10.8473C12.723 11.1456 12.6825 11.5349 12.6572 12.0202C12.5915 13.2386 12.5511 13.9009 12.5359 14.002C12.4752 13.5217 12.4449 13.0263 12.4449 12.5056C12.4449 11.9848 12.4702 11.5349 12.5258 11.09C12.5814 10.6451 12.6724 10.2052 12.7988 9.76541C13.1223 10.0839 13.3549 10.4884 13.4965 10.9889C13.6127 11.3933 13.6684 11.8787 13.6684 12.4449ZM7.61173 9.35084C7.56623 9.41657 7.53589 9.48737 7.53084 9.5632C7.49039 9.56826 7.42973 9.56318 7.34884 9.54296C7.26795 9.52274 7.22245 9.51263 7.20728 9.51263C7.13145 9.51263 7.08595 9.55814 7.06572 9.6542C7.02528 10.0131 6.99495 10.2457 6.96967 10.3519C6.94439 10.458 6.90394 10.5794 6.84328 10.7159C6.78261 10.6754 6.727 10.5895 6.67139 10.4631C6.51466 10.1193 6.42366 9.93225 6.39838 9.89686C6.37816 9.94236 6.34783 9.96764 6.30738 9.96764C6.27199 9.96764 6.24166 9.95753 6.21133 9.93731C6.18099 9.91709 6.16077 9.90191 6.15571 9.89686C6.11527 9.86147 6.09505 9.82103 6.09505 9.77553C6.09505 9.75025 6.12032 9.67948 6.16582 9.5632C6.1911 9.49748 6.20627 9.44691 6.20627 9.42163C6.22144 9.38118 6.25177 9.36096 6.30738 9.36096C6.34783 9.36096 6.38322 9.36601 6.40849 9.38117C6.50455 9.48734 6.58544 9.61879 6.65622 9.76541C6.727 9.91202 6.79778 10.0536 6.8635 10.1901C6.90394 10.0131 6.94439 9.8362 6.98483 9.6542C7.0455 9.44692 7.1365 9.2902 7.25784 9.18909C7.38423 9.16381 7.50556 9.21434 7.61173 9.35084ZM7.80384 11.3327C7.75834 11.5551 7.7179 11.7219 7.69262 11.8281C7.63195 12.0303 7.5359 12.1567 7.39939 12.2123C7.02022 12.273 6.64611 12.3337 6.26694 12.3943C6.2821 12.2932 6.30233 12.1719 6.33772 12.0354C6.3731 11.8989 6.43377 11.727 6.51972 11.5248C6.94439 11.4641 7.37412 11.3984 7.80384 11.3327ZM11.7169 11.6562C11.2568 11.8129 10.7816 12.2528 10.2912 12.9808C9.92214 13.542 9.68959 13.8756 9.59353 13.9818C9.22447 14.4216 8.81497 14.7907 8.37007 15.094C7.92518 15.3974 7.46006 15.6198 6.96967 15.7664C6.47927 15.913 5.97877 15.9838 5.46815 15.9838C4.88675 15.9838 4.33569 15.8979 3.80991 15.7209C3.39029 15.5794 3.0364 15.3873 2.74823 15.1446C2.38423 14.8412 2.20222 14.5076 2.20222 14.1436C2.20222 13.6431 2.3185 13.2386 2.55612 12.9201C2.74318 12.6724 3.04651 12.4297 3.45602 12.2022C3.73407 12.0607 4.01213 11.9141 4.29525 11.7674C4.85642 11.4692 5.23559 11.1557 5.43782 10.817C5.25076 11.0546 5.00809 11.2568 4.71992 11.4237C4.59353 11.4995 4.32558 11.6208 3.92113 11.7978C3.55713 11.9444 3.28918 12.0758 3.12235 12.1921C2.8544 12.3691 2.63701 12.5865 2.47523 12.8493C2.31345 13.0566 2.19211 13.2892 2.11628 13.547C2.04045 13.8049 2 14.0779 2 14.366C2 14.8261 2.09606 15.2406 2.28311 15.6198C2.6269 16.0647 3.04651 16.3933 3.53691 16.6107C4.0273 16.8281 4.5632 16.9343 5.14459 16.9343C5.75632 16.9343 6.3276 16.8584 6.85844 16.7068C7.38928 16.5551 7.87462 16.3225 8.31952 16.004C8.76441 15.6855 9.17391 15.3064 9.54297 14.8615C9.91203 14.4166 10.2255 13.9464 10.4732 13.4459C10.549 13.2892 10.6805 13.1325 10.8675 12.9707C11.3124 12.5814 11.5399 12.3741 11.5551 12.3539L11.7169 11.6562ZM17.1365 8.52175V8.47117C17.0809 8.39534 17.0202 8.38523 16.9545 8.44084L17.1365 8.52175ZM16.1658 11.1304V11.0496C16.1658 10.9939 16.1304 10.9686 16.0647 10.9686C16.0091 10.9686 15.9838 10.9889 15.9838 11.0293C15.9889 11.0495 16.0142 11.0698 16.0546 11.0849C16.095 11.1001 16.1304 11.1153 16.1658 11.1304Z" fill="white"/>
</svg>
