<svg width="24" height="24" viewBox="0 0 24 24" fill="none" xmlns="http://www.w3.org/2000/svg">
<path fill-rule="evenodd" clip-rule="evenodd" d="M17.1283 4.7864C17.1789 4.83699 17.2006 4.89482 17.2006 4.9671C17.2006 5.03938 17.1789 5.11889 17.1355 5.19839C17.0922 5.2779 17.0488 5.35741 17.0126 5.42969H16.8464C16.7741 5.42969 16.6729 5.45138 16.5356 5.50198C16.3983 5.55257 16.2971 5.57426 16.2392 5.57426C16.1236 5.57426 16.0152 5.52366 15.9284 5.42969C15.9574 5.22731 16.0369 5.04661 16.1597 4.89482C16.1308 4.98878 16.1164 5.06106 16.1164 5.11166C16.167 5.19117 16.2465 5.22731 16.3621 5.22731H16.5211L16.7524 4.77917C16.7524 4.77917 16.7524 4.84422 16.738 4.89482C16.7163 4.94541 16.7018 4.99601 16.6802 5.03938C16.7163 5.13334 16.8103 5.16948 16.9548 5.1478C16.9621 5.0972 16.991 5.03215 17.0271 4.95264C17.0632 4.87313 17.0994 4.81531 17.1283 4.77194V4.7864ZM17.0126 6.73797C16.8898 6.99095 16.7597 7.23671 16.6368 7.48969C16.4127 7.41018 16.2537 7.35235 16.1453 7.30176C15.9501 7.21502 15.8634 7.09214 15.8851 6.94036L16.3043 6.17418C16.485 6.26814 16.6729 6.36934 16.8536 6.4633C16.9621 6.54281 17.0126 6.62955 17.0126 6.73797ZM22 9.6581C22 9.13045 21.8988 8.61726 21.6892 8.12575C21.4796 7.63425 21.1977 7.19333 20.8291 6.79579C20.764 7.19333 20.7062 7.59088 20.67 8.00288C20.6339 8.41488 20.6122 8.82687 20.6122 9.25333C20.6122 9.95445 20.6773 10.5905 20.8001 11.1615C20.8074 11.1037 20.8291 11.0097 20.858 10.8724V10.4098C20.858 10.2363 20.8507 9.98336 20.8291 9.64364C20.8074 9.30392 20.8001 9.05817 20.8001 8.89193C20.8001 8.58112 20.8218 8.31369 20.858 8.08239C21.1688 8.53775 21.4001 8.98589 21.5663 9.43403C21.7326 9.88217 21.8121 10.3592 21.8121 10.8724C21.8121 11.4145 21.6241 11.9422 21.2483 12.4626C20.9519 12.8746 20.5327 13.2866 20.0051 13.6913C19.5352 14.0383 19.0365 14.3274 18.5161 14.5587C17.9957 14.79 17.468 14.9563 16.9259 15.0647C17.4174 15.0647 17.9234 15.0358 18.4366 14.9852C18.9498 14.9346 19.4051 14.8551 19.7882 14.7611C20.1713 14.6238 20.5327 14.3563 20.858 13.9516C21.0242 13.7492 21.2627 13.3733 21.5808 12.824C21.7326 12.3614 21.841 11.8699 21.906 11.3422C21.9711 10.8146 22 10.258 22 9.6581ZM11.3314 9.09431C11.2736 9.26778 11.2085 9.41235 11.129 9.528C11.0206 9.69424 10.905 9.79543 10.7748 9.84603C10.6447 9.89662 10.5363 9.91831 10.4496 9.91831C10.3556 9.91831 10.2689 9.88217 10.1894 9.81711C10.1243 9.70869 10.0882 9.59304 10.0882 9.45571C10.0882 9.30392 10.1388 9.12322 10.2472 8.92084C10.3918 8.68954 10.493 8.5233 10.5508 8.41488C10.5508 8.49439 10.5074 8.62449 10.4134 8.81965C10.3195 9.0148 10.2761 9.14491 10.2761 9.22441C10.2761 9.39066 10.3701 9.49185 10.5508 9.54245C10.6375 9.53522 10.7315 9.51354 10.8254 9.49185C10.9194 9.47017 10.9989 9.41957 11.0567 9.34007C11.0278 9.26056 10.9628 9.19551 10.8688 9.13768C10.717 9.05095 10.6303 9.00035 10.6086 8.97866L10.7532 8.64617C10.8688 8.704 10.9845 8.7546 11.1001 8.80519C11.223 8.8847 11.3025 8.97866 11.3314 9.09431ZM15.914 14.6165C15.8778 14.725 15.82 14.8334 15.755 14.949C15.7261 14.9996 15.6032 15.1803 15.3791 15.4984C15.184 15.4188 15.0466 15.361 14.9599 15.3177C14.7864 15.2381 14.6852 15.137 14.6563 15.0213C14.7503 14.7683 14.8081 14.631 14.8298 14.6021C14.9237 14.4286 15.0394 14.313 15.1767 14.2407C15.4369 14.3274 15.6827 14.4503 15.914 14.6165ZM19.0799 7.47523C19.0799 7.1572 19.022 6.78856 18.9064 6.36211C18.8269 6.06576 18.7185 5.71882 18.5739 5.32128C18.292 5.61762 18.0969 6.09468 18.0029 6.73797C17.9523 7.09215 17.8872 7.63425 17.8005 8.35705C17.8656 8.03179 17.9378 7.69207 18.0173 7.34512C18.0969 6.99818 18.1764 6.70183 18.2631 6.44885C18.3787 6.79579 18.5016 7.1572 18.6245 7.52583C18.7474 7.89446 18.8124 8.23417 18.8124 8.53052C18.5739 8.92807 18.1908 9.12322 17.6704 9.12322C17.5764 9.12322 17.5258 9.09431 17.5258 9.03649C17.5258 9.02926 17.5475 8.97144 17.5837 8.87747C17.6198 8.78351 17.627 8.71123 17.5981 8.67509C17.2295 8.7546 16.8753 8.89193 16.5356 9.10154C16.1959 9.31115 15.8778 9.56413 15.5815 9.87494C15.2851 10.1857 15.0394 10.5038 14.837 10.8363C14.6346 11.1688 14.4828 11.5157 14.3744 11.8699C14.8009 11.8048 15.1912 11.7542 15.5526 11.7181C15.914 11.682 16.2682 11.6675 16.6151 11.6675C15.8634 12.2096 15.0466 12.6722 14.1576 13.0697C13.7022 13.2649 13.2468 13.4311 12.7842 13.5829C12.3216 13.7347 11.8663 13.8504 11.4109 13.9371C10.9555 14.0238 10.5869 14.0744 10.2978 14.0889C10.0087 14.1033 9.53885 14.1106 8.8811 14.1106H8.5197C8.0571 14.1106 7.60173 14.0528 7.1536 13.9371C6.70546 13.8215 6.22118 13.6552 5.70076 13.4456C5.3755 13.0408 5.17311 12.8023 5.0936 12.7372C4.83339 12.5132 4.5515 12.4192 4.25515 12.4481C3.85761 12.4481 3.48175 12.5782 3.11312 12.8384C2.74449 13.0986 2.46982 13.4239 2.28912 13.807C2.17347 14.0383 2.09396 14.2407 2.05782 14.4142C2.02168 14.5876 2 14.7828 2 15.0069C2 15.3249 2.0506 15.6357 2.15179 15.932C2.25298 16.2284 2.39754 16.5247 2.5927 16.8139C2.824 17.168 3.16372 17.5873 3.60463 18.0715C3.84315 18.3318 4.20455 18.7148 4.68883 19.228C4.58041 18.975 4.43585 18.7221 4.25515 18.4546C4.21901 18.3968 3.90098 17.9848 3.3155 17.2186C3.0047 16.8139 2.78063 16.4741 2.63607 16.185C2.43368 15.7947 2.31803 15.4044 2.28912 15.0213C2.38309 14.79 2.49874 14.5804 2.63607 14.378C2.7734 14.1756 2.92519 14.0166 3.09866 13.8937C3.17817 13.8576 3.30828 13.7853 3.49621 13.6841C3.68413 13.5829 3.84315 13.5323 3.96603 13.5323C4.07445 13.5323 4.16841 13.5612 4.25515 13.6191C4.27683 13.8287 4.32743 14.0383 4.40694 14.2479C4.48645 14.4575 4.59487 14.6599 4.7322 14.8551C4.99241 15.1948 5.31767 15.5128 5.70076 15.8019C5.85255 15.6791 5.95374 15.4405 6.00434 15.0936C6.02602 14.949 6.03325 14.6382 6.03325 14.1684C6.51753 14.5081 7.08132 14.7394 7.72461 14.8767C8.19443 14.9707 8.81605 15.0213 9.58945 15.0213C10.2255 15.0213 10.8471 14.949 11.4615 14.8117C12.0759 14.6744 12.6758 14.4792 13.2758 14.2407C14.1793 13.8576 14.9671 13.4528 15.6321 13.0408C16.4633 12.5204 17.1428 11.9566 17.6849 11.3495C17.8945 11.1109 18.0896 10.8435 18.2631 10.5544C18.227 10.5327 18.1908 10.5399 18.1619 10.5688C18.133 10.5977 18.0969 10.6339 18.0607 10.67C17.1283 10.7784 16.2031 10.829 15.2851 10.829C15.6104 10.4604 15.9068 10.193 16.167 10.0195C16.5211 9.78098 16.8753 9.6581 17.2223 9.6581L17.2656 10.034C17.3813 10.0918 17.5042 10.1207 17.627 10.1207C17.7933 10.1207 17.9668 10.0701 18.1619 9.96168C18.2559 9.90385 18.4149 9.79543 18.639 9.62919C18.8052 9.36175 18.9209 9.08709 18.9859 8.80519C19.051 8.5233 19.0871 8.21972 19.0871 7.89446V7.47523H19.0799Z" fill="white"/>
</svg>
