<svg width="24" height="24" viewBox="0 0 24 24" fill="none" xmlns="http://www.w3.org/2000/svg">
<path fill-rule="evenodd" clip-rule="evenodd" d="M15.8694 5.74414C15.9127 5.79602 15.93 5.8652 15.93 5.95167C15.93 6.06408 15.9127 6.16784 15.8694 6.26295C15.8262 6.35807 15.7916 6.44453 15.757 6.5137C15.6187 6.57423 15.489 6.62611 15.3506 6.67799C15.2123 6.74717 15.0912 6.83364 14.9788 6.9547H14.7108C14.6243 6.9374 14.5638 6.88552 14.5205 6.79041C14.5205 6.75582 14.5119 6.70394 14.5119 6.62612C14.5119 6.49641 14.5378 6.37537 14.5984 6.25431C14.6157 6.31484 14.6416 6.37536 14.6675 6.42724C14.6935 6.47912 14.7367 6.52235 14.7886 6.53964C14.8405 6.55694 14.8751 6.56558 14.901 6.56558H14.9529C15.0999 6.56558 15.1863 6.45318 15.2209 6.21972C15.2555 5.98625 15.3247 5.85655 15.4284 5.81332V6.21972C15.4976 6.24566 15.5409 6.25431 15.5668 6.25431C15.636 6.25431 15.6879 6.20242 15.7311 6.1073C15.7743 6.00354 15.8176 5.89114 15.8694 5.7528V5.74414ZM16.6563 7.77614C16.6563 7.94907 16.5958 8.13065 16.4834 8.31224C16.3709 8.49382 16.2585 8.66676 16.1548 8.83105C15.9905 8.76187 15.8348 8.6927 15.6792 8.61488C15.4976 8.51112 15.4112 8.3987 15.4112 8.2863L15.9213 7.39568C16.0683 7.41297 16.2153 7.4735 16.3796 7.58591C16.4661 7.64644 16.5525 7.71561 16.6476 7.77614H16.6563ZM21.7147 12.774C21.4207 13.8375 20.8413 14.7368 19.9939 15.4804C19.2503 16.1203 18.3251 16.6391 17.201 17.0368C16.345 17.3395 15.3074 17.5902 14.0882 17.7805C14.7626 17.7372 15.463 17.694 16.1894 17.6594C16.9243 17.6248 17.5383 17.5384 18.0484 17.4087C18.8612 17.3395 19.6135 16.985 20.3052 16.3364C20.9537 15.7312 21.3861 15.0308 21.6195 14.218C21.8703 13.5003 22 12.7394 22 11.9352C22 11.1311 21.8703 10.3788 21.6109 9.63519C21.3515 8.89157 20.9797 8.26901 20.4955 7.77614C20.3658 8.22577 20.2879 8.65812 20.2447 9.06451C20.2015 9.47091 20.1842 9.98107 20.1842 10.5777C20.1842 10.7333 20.1928 11.1484 20.2188 11.8401C20.2361 12.5319 20.2534 13.068 20.2534 13.4484H20.3571C20.3571 12.5405 20.3658 11.7623 20.3917 11.1311C20.409 10.4912 20.4609 9.83407 20.5387 9.14233C20.9364 9.62655 21.2304 10.1799 21.4293 10.8025C21.6195 11.4251 21.7147 12.0822 21.7147 12.7826V12.774ZM11.8227 8.32089C11.8487 8.37277 11.8573 8.41599 11.8573 8.45923C11.8573 8.53705 11.8227 8.62352 11.7536 8.72728C11.6325 8.90021 11.572 8.98669 11.572 8.99534C11.4596 9.12504 11.3299 9.22015 11.1829 9.28933C11.0359 9.3585 10.8629 9.41902 10.6641 9.4709C10.7332 9.34985 10.8802 9.2288 11.1137 9.0991C11.3472 8.96939 11.5028 8.84833 11.5633 8.72728H11.3126C11.1483 8.72728 11.0099 8.73593 10.8889 8.76187C10.7678 8.77916 10.6641 8.83104 10.5776 8.89157C10.5344 8.83969 10.5344 8.77052 10.5776 8.68405C10.6208 8.59759 10.6554 8.53705 10.6641 8.50247C10.7592 8.42464 10.8716 8.37277 11.0099 8.34683C11.1483 8.32089 11.2953 8.31224 11.4596 8.31224H11.8141L11.8227 8.32089ZM19.1812 9.8946C19.1812 9.25474 19.0687 8.63217 18.8353 8.01825C18.6018 7.40433 18.2992 6.83364 17.9014 6.31483C17.789 6.678 17.7198 7.04981 17.6766 7.41298C17.642 7.77614 17.6161 8.21713 17.6161 8.73593C17.6161 8.80511 17.6247 9.17691 17.642 9.85136C17.6593 10.5258 17.668 10.9927 17.668 11.2608C17.7112 10.8544 17.7458 10.2318 17.7804 9.38444C17.8063 8.5457 17.8495 7.94907 17.9014 7.61185C18.2646 8.1393 18.5153 8.70999 18.671 9.31526C18.818 9.92054 18.8958 10.595 18.8958 11.3213C18.7315 11.6758 18.5153 11.9698 18.2473 12.2033C17.936 12.4713 17.6074 12.601 17.2616 12.601C17.1059 12.5665 17.0281 12.4886 17.0281 12.3589C17.0281 12.2898 17.054 12.186 17.0973 12.0476C17.1405 11.9093 17.1665 11.8142 17.1665 11.7623C17.1146 11.7018 17.0627 11.6758 17.0108 11.6758C16.9416 11.6758 16.8379 11.7018 16.6909 11.7623C15.8954 12.5146 15.1518 13.1198 14.4687 13.5695C13.6386 14.1142 12.8085 14.486 11.9957 14.6936C12.3156 14.4515 12.6182 14.1748 12.8863 13.8808C13.1543 13.5868 13.3965 13.2755 13.604 12.9642C14.1228 12.1255 14.4427 11.1916 14.5638 10.1713C14.4687 10.1454 14.3735 10.1367 14.2871 10.1367C14.0623 10.1367 13.7856 10.2059 13.4483 10.3442C13.1716 10.4739 12.8949 10.595 12.6182 10.716C12.0562 11.0187 11.6585 11.5115 11.4336 12.186C11.3904 12.3157 11.2607 12.9296 11.0359 14.0364C10.8284 14.2439 10.5517 14.339 10.2058 14.339H9.96368C9.76481 14.339 9.63511 14.3131 9.56593 14.2699C9.49676 14.2266 9.45352 14.1488 9.45352 14.0451C9.45352 13.9672 9.48811 13.8289 9.56593 13.6214C9.64375 13.4138 9.67834 13.2582 9.67834 13.1458C9.67834 13.0334 9.66105 12.9383 9.61781 12.8604C9.54864 12.8259 9.47082 12.8086 9.3757 12.8086C9.23735 12.8086 9.02983 12.8604 8.75314 12.9728C8.47644 13.0853 8.28621 13.1544 8.19109 13.1804C7.84522 13.336 7.57717 13.6127 7.40424 14.0105C7.28318 14.365 7.16213 14.7195 7.04972 15.0827C6.79896 15.7312 6.36662 16.2759 5.77864 16.7255C5.31172 17.0714 4.70644 17.3827 3.95417 17.6594C3.87635 17.6853 3.22784 17.8842 2 18.256C2.67445 18.256 3.32296 18.2128 3.95417 18.1177C4.58539 18.0312 5.20796 17.8929 5.81323 17.7026C6.34933 17.4605 6.76438 17.0368 7.06701 16.4316C7.27454 15.8782 7.48206 15.3248 7.68958 14.78C7.86252 14.5379 8.07869 14.365 8.35538 14.2612C8.62343 14.1488 8.92607 14.0969 9.26329 14.0969V14.6157C9.26329 14.7627 9.28924 14.8924 9.33247 15.0135C9.3757 15.1345 9.46217 15.2297 9.58323 15.2902C9.73022 15.4199 9.94639 15.4804 10.2231 15.4804C10.4566 15.4804 10.6727 15.4458 10.8543 15.368V16.5699C10.9494 16.1203 11.0445 15.662 11.1483 15.2037C11.8573 15.0567 12.5318 14.8924 13.1889 14.6936C13.9239 14.4687 14.5638 14.2353 15.1172 13.9759C15.2642 13.8981 15.5149 13.6905 15.8694 13.3533C16.1634 13.0766 16.4315 12.9037 16.6563 12.8432C16.7773 12.8432 16.8379 12.8864 16.8379 12.9728C16.8379 13.0074 16.8292 13.0593 16.8119 13.1371C16.7946 13.215 16.786 13.2668 16.786 13.3014C16.786 13.3533 16.786 13.3965 16.8119 13.4311C16.8292 13.4657 16.8638 13.5262 16.9243 13.6214C16.9762 13.7165 17.0454 13.7597 17.1232 13.7597H17.3307C17.5988 13.7597 17.8755 13.6646 18.1435 13.4657C18.3251 13.3274 18.5413 13.1198 18.792 12.8259C18.9477 12.3935 19.0514 11.9352 19.1033 11.4597C19.1552 10.9754 19.1898 10.4566 19.1898 9.90324L19.1812 9.8946ZM14.0277 11.304C13.8029 11.6499 13.5867 11.9698 13.3619 12.2465C13.1025 12.5751 12.8431 12.8604 12.5837 13.1026C12.1686 13.483 11.7363 13.777 11.2953 13.9672C11.2953 13.5263 11.4163 13.1112 11.6498 12.7394C11.8919 12.3589 12.1946 12.0563 12.5837 11.8315C13.016 11.6067 13.5002 11.4337 14.0277 11.3127V11.304Z" fill="white"/>
</svg>
