<svg width="24" height="24" viewBox="0 0 24 24" fill="none" xmlns="http://www.w3.org/2000/svg">
<path fill-rule="evenodd" clip-rule="evenodd" d="M16.6348 7.68061C16.6348 7.68061 16.5684 7.87982 16.4622 8.25166C16.3891 8.49071 16.2696 8.60359 16.0903 8.58367L15.174 8.63679C15.1939 8.47079 15.2205 8.31806 15.2603 8.17862C15.3001 8.03918 15.3665 7.89974 15.4529 7.7603C15.5525 7.7603 15.7052 7.74701 15.9177 7.72045C16.1301 7.69389 16.2895 7.68061 16.3958 7.68061H16.6348ZM21.8274 12.7205C21.7145 13.4442 21.4887 14.0817 21.1633 14.6328C20.7849 15.2769 20.2802 15.7483 19.6627 16.0405C19.3705 16.1268 19.0717 16.1866 18.7596 16.2198C18.4475 16.253 18.089 16.2663 17.6707 16.2663H17.2191C17.0664 16.2663 16.9203 16.2663 16.7809 16.253C17.3054 16.18 17.8167 16.0538 18.3214 15.8612C18.826 15.6687 19.2975 15.423 19.7291 15.1242C20.2271 14.7855 20.6255 14.4336 20.9243 14.0618C21.2895 13.6102 21.5153 13.1255 21.6149 12.6142C21.6481 12.4482 21.668 12.2623 21.668 12.0697C21.668 11.5916 21.5551 11.1003 21.3227 10.5956C21.1301 10.1707 20.8513 9.73241 20.4861 9.28088C20.4861 9.50001 20.4993 9.76561 20.5259 10.0777C20.5857 10.7948 20.6189 11.2397 20.6189 11.4057C20.6189 11.5983 20.6122 11.7842 20.5923 11.9568C20.5724 12.1295 20.5325 12.3021 20.4728 12.4814C20.4728 12.1361 20.4329 11.6116 20.3533 10.9143C20.2736 10.2171 20.2337 9.68593 20.2337 9.334C20.2337 8.87583 20.2802 8.45087 20.3798 8.07238C20.6521 8.38447 20.9177 8.72311 21.1633 9.1016C21.409 9.48008 21.6016 9.84529 21.7344 10.1972C21.9137 10.6753 22 11.1534 22 11.6315C22 11.8108 21.9867 11.9834 21.9602 12.1627C21.9336 12.342 21.8871 12.5279 21.8274 12.7205ZM12.4515 10.2902C12.3386 10.4296 12.1859 10.5624 11.9934 10.6886C11.8008 10.8147 11.595 10.921 11.3758 11.0206C10.9774 11.1999 10.579 11.3725 10.1806 11.5518C10.3134 11.3725 10.4728 11.2264 10.6587 11.1135C10.7849 11.0339 10.9774 10.9343 11.243 10.8214C11.502 10.7218 11.7543 10.6222 12.0133 10.5159C12.1726 10.4429 12.3187 10.3699 12.4515 10.2902ZM19.0252 9.95817C19.0252 9.57968 18.9124 9.12816 18.6932 8.61687C18.3745 7.86654 18.1952 7.43493 18.162 7.32869C18.0226 7.51461 17.9296 7.71382 17.8898 7.91966C17.8499 8.1255 17.83 8.41102 17.83 8.76295V9.89177C17.8234 9.97809 17.8167 10.091 17.8167 10.2304C17.8167 10.3699 17.8101 10.4695 17.7902 10.5425C17.8699 10.2171 17.923 9.89841 17.9562 9.59296C17.9894 9.28752 18.0027 8.9356 18.0027 8.53719C18.1554 8.88247 18.3081 9.22776 18.4675 9.57969C18.6335 9.98473 18.7198 10.3566 18.7198 10.6819C18.3679 11.1932 17.9296 11.4987 17.405 11.585C17.4515 11.4256 17.4847 11.2729 17.5113 11.1335C17.5378 10.994 17.5511 10.8479 17.5511 10.6952C17.5511 10.589 17.5445 10.4827 17.5246 10.3699C17.5046 10.257 17.4781 10.164 17.4449 10.0843C17.3851 9.95153 17.3054 9.84529 17.2125 9.76561C17.1195 9.68593 17.0133 9.66601 16.8871 9.69921C16.595 9.91169 16.3825 10.1707 16.2497 10.4827C16.1899 10.6355 16.0837 11.1799 15.9442 12.1295C15.5525 12.2822 15.247 12.5611 15.0146 12.9794C14.8486 13.2782 14.7158 13.6634 14.6162 14.1348C13.9323 14.5133 13.2151 14.8121 12.4515 15.0246C11.6879 15.2371 10.9177 15.3433 10.1408 15.3433C9.74236 15.3433 9.33732 15.3167 8.93227 15.2703C8.52722 15.2238 8.13546 15.1441 7.76361 15.0379C7.39177 14.9316 6.99336 14.7656 6.56175 14.5398C6.13015 14.3141 5.76494 14.075 5.45286 13.8161C5.41965 13.6501 5.38645 13.4774 5.35989 13.3114C5.27357 12.9197 5.10093 12.5478 4.85525 12.1826C4.75564 12.2689 4.69588 12.3884 4.67596 12.5345C4.65604 12.6806 4.63612 12.8665 4.6162 13.0857C4.88181 13.4774 5.02789 13.6899 5.05445 13.7364C5.12749 13.8692 5.17397 14.0086 5.20053 14.1614C4.95485 14.7922 4.50996 15.33 3.87251 15.7815C3.3413 16.16 2.71713 16.4588 2 16.6713C2.01992 16.6713 2.25896 16.6647 2.72377 16.6514C3.18858 16.6381 3.49402 16.6182 3.63347 16.5916C4.11819 16.5053 4.54316 16.2132 4.89509 15.7151C5.19389 15.2902 5.39309 14.8121 5.47942 14.2942C5.60558 14.4801 5.77158 14.6793 5.98406 14.8918C6.16999 15.0777 6.36255 15.2437 6.56839 15.3964C7.02656 15.7483 7.51129 16.0007 8.02258 16.1468C8.53386 16.2928 9.08499 16.3659 9.67596 16.3659C9.86853 16.3659 10.0611 16.3592 10.247 16.3393C10.4329 16.3194 10.6321 16.2995 10.8446 16.2729C11.5418 16.16 12.2855 15.9608 13.0624 15.6886C13.7198 15.4562 14.3838 15.1773 15.0544 14.8386C15.0876 14.8386 15.1474 14.8254 15.2271 14.7988C15.2869 14.7922 15.3798 14.7855 15.506 14.7855C15.6454 14.7855 15.7782 14.8121 15.8911 14.8586C16.004 14.905 16.1036 14.9914 16.1833 15.1043C16.2961 15.0246 16.3758 14.8984 16.4223 14.7258C16.4688 14.5531 16.5086 14.3805 16.5551 14.2145C16.4422 14.0352 16.2297 13.8891 15.9177 13.7762C15.5193 13.6235 15.2736 13.5239 15.1873 13.4708C15.1341 13.4442 15.1208 13.4044 15.1474 13.3513L15.2404 13.2583C15.4861 12.9595 15.9243 12.7802 16.5418 12.7205C17.1594 12.6607 17.5843 12.5478 17.8167 12.3818C18.2417 12.176 18.5471 11.8307 18.7331 11.3327C18.8061 11.1467 18.8991 10.6886 19.0252 9.96481V9.95817ZM17.0996 10.9807C17.0664 10.7882 16.9602 10.6886 16.7942 10.6886C16.7145 10.6886 16.6282 10.7218 16.5418 10.7815C16.4555 10.8413 16.3958 10.9143 16.3692 10.994C16.3094 11.1003 16.2762 11.1999 16.2762 11.2995C16.2762 11.4124 16.3293 11.5053 16.429 11.5651C16.5286 11.6248 16.6348 11.658 16.741 11.658C16.7676 11.658 16.8141 11.6514 16.8871 11.6315C17.093 11.5784 17.1926 11.4522 17.1926 11.2596C17.1926 11.1799 17.1594 11.087 17.0996 10.9807Z" fill="white"/>
</svg>
