<svg width="24" height="24" viewBox="0 0 24 24" fill="none" xmlns="http://www.w3.org/2000/svg">
<path fill-rule="evenodd" clip-rule="evenodd" d="M17.869 9.40901L17.4123 10.1083C17.2264 9.97893 17.0364 9.84555 16.8504 9.71216C16.8949 9.57069 16.9475 9.44539 17.0121 9.33221C17.0728 9.22308 17.1617 9.11394 17.2789 9.01289C17.4285 9.07756 17.5376 9.12606 17.6103 9.15839C17.7316 9.22307 17.8205 9.30796 17.8731 9.40901H17.869ZM22 11.5513C22 11.0865 21.9353 10.6337 21.81 10.1972C21.6847 9.76066 21.4988 9.36454 21.2522 9.00884C21.0703 9.39688 20.9369 9.82533 20.844 10.2983C20.7551 10.7712 20.7065 11.2562 20.7065 11.7534C20.7065 12.1091 20.7308 12.4729 20.7833 12.8488C20.7833 11.8908 20.9006 10.9531 21.131 10.0355C21.3492 10.4236 21.5109 10.7671 21.616 11.0622C21.7575 11.4624 21.8302 11.8464 21.8302 12.2061C21.8302 12.3031 21.8262 12.4042 21.8141 12.5133C21.806 12.6184 21.7939 12.6952 21.7817 12.7396C21.6847 13.1924 21.4745 13.6087 21.1512 13.9927C20.8844 14.308 20.5327 14.6111 20.0922 14.894C19.7809 15.0961 19.4697 15.2619 19.1625 15.3993C18.7542 15.5812 18.2288 15.7671 17.5821 15.9611C18.2732 15.9611 18.7987 15.9369 19.1544 15.8924C19.7365 15.8197 20.2134 15.6701 20.5893 15.4357C21.042 15.1568 21.3694 14.7485 21.5675 14.215C21.8504 13.3742 21.996 12.485 21.996 11.5472L22 11.5513ZM14.3282 8.85524C14.3282 9.02501 14.2999 9.18669 14.2474 9.34029C14.1908 9.49389 14.1019 9.61919 13.9806 9.70812L13.0792 9.83342C13.059 9.71216 13.0873 9.57473 13.156 9.42922C13.2288 9.2837 13.2935 9.14223 13.3581 9.00884C13.4632 9.00884 13.6572 8.97651 13.9483 8.91184C14.1221 8.87142 14.2474 8.85524 14.3282 8.85524ZM19.7607 9.97893C19.7607 9.6111 19.7041 9.25136 19.595 8.90779C19.4859 8.56017 19.3323 8.22873 19.1382 7.91345C19.0534 8.03471 18.9846 8.19235 18.9281 8.38233C18.8715 8.57231 18.7906 8.86737 18.6815 9.25945C18.6613 9.43325 18.6249 9.67578 18.5643 9.98702C18.4592 10.5367 18.4107 10.945 18.4107 11.2077C18.4107 11.3128 18.4188 11.4219 18.4309 11.5432C18.443 11.6645 18.4632 11.7655 18.4875 11.8504C18.5724 11.2481 18.6572 10.6459 18.7502 10.0355C18.8149 9.61515 18.9038 9.27157 19.0129 9.00884C19.3282 9.58281 19.4899 10.2174 19.4899 10.9086C19.4899 10.9531 19.4899 11.0137 19.4859 11.0824C19.4859 11.1552 19.4778 11.236 19.4697 11.3249C19.3323 11.6079 19.1382 11.8625 18.8795 12.0848C18.6209 12.3071 18.3541 12.4446 18.0752 12.4971C18.0954 12.3799 18.1156 12.2627 18.1318 12.1374C18.152 12.0161 18.1601 11.9029 18.1601 11.7978C18.1601 11.6442 18.1318 11.4987 18.0792 11.3654C18.0226 11.232 17.9337 11.1228 17.8044 11.042C17.5699 11.042 17.384 11.1107 17.2425 11.2441C17.1253 11.3532 17.0323 11.5189 16.9596 11.7372C16.8626 12.1495 16.7656 12.5618 16.6686 12.97C16.4543 13.0226 16.2603 13.1075 16.0825 13.2328C15.9046 13.354 15.747 13.4996 15.6055 13.6653C15.4681 13.831 15.3347 14.0169 15.2134 14.2231C15.1407 14.3403 15.0396 14.5262 14.9022 14.7849C14.7203 14.9708 14.5222 15.1325 14.312 15.27C14.1261 15.3872 13.9038 15.4923 13.6532 15.5893C13.4713 15.662 13.2247 15.7469 12.9175 15.852C12.6063 15.9571 12.3921 16.0339 12.2668 16.0865C12.6629 16.0865 13.0388 16.0743 13.4026 16.0541C13.7664 16.0299 14.0857 15.9854 14.3646 15.9126C14.6112 15.8156 14.8173 15.6297 14.9871 15.3589C15.076 15.2093 15.1892 14.9547 15.3266 14.5909C15.6621 14.2554 16.0137 13.9927 16.3775 13.7987C16.7413 13.6087 17.1374 13.5117 17.5578 13.5117C17.9458 13.4793 18.3137 13.3338 18.6572 13.0751C19.0049 12.8164 19.2757 12.5012 19.4778 12.1333C19.5829 11.8666 19.6556 11.5917 19.7001 11.3007C19.7445 11.0097 19.7688 10.565 19.7688 9.97085L19.7607 9.97893ZM12.0081 10.278C11.8989 10.4316 11.7575 10.565 11.5918 10.6742C11.4624 10.759 11.2846 10.848 11.0582 10.945C10.8723 11.0218 10.6863 11.0986 10.5044 11.1673C10.3023 11.2562 10.1326 11.3613 9.99111 11.4785C10.076 11.3088 10.2013 11.1632 10.3711 11.042C10.5085 10.945 10.6823 10.852 10.8965 10.759C11.2643 10.5974 11.6362 10.4357 12.0121 10.274L12.0081 10.278ZM11.7171 11.9959C11.7171 12.0363 11.6968 12.0889 11.6524 12.1576C11.612 12.2263 11.5877 12.2748 11.5796 12.3071L11.4907 12.2182C11.4341 12.1535 11.3775 12.1212 11.325 12.1212C11.3007 12.3274 11.2563 12.5173 11.1956 12.6871C11.135 12.8569 11.0461 13.0226 10.9289 13.1762C10.8642 13.1317 10.8076 12.9983 10.7591 12.7841C10.7106 12.5658 10.6459 12.4607 10.561 12.4607C10.5206 12.4607 10.4802 12.4729 10.4357 12.5012C10.4276 12.481 10.4276 12.4486 10.4276 12.4041C10.4276 12.3274 10.4479 12.2506 10.4923 12.1697C10.5327 12.0929 10.5893 12.0161 10.6621 11.9474C10.7591 12.0121 10.8319 12.1495 10.8804 12.3556C10.9289 12.5618 10.9814 12.6992 11.042 12.7639C11.0542 12.7396 11.0986 12.5497 11.1795 12.202C11.2361 11.9312 11.3169 11.7938 11.422 11.7938C11.4665 11.7938 11.5109 11.81 11.5594 11.8383C11.6039 11.8666 11.6605 11.9191 11.7251 11.9999L11.7171 11.9959ZM15.2983 11.5028C15.2983 11.2886 15.266 11.0986 15.2013 10.9288C15.1366 10.759 15.0194 10.6418 14.8537 10.5691C14.595 10.6459 14.3929 10.8318 14.2514 11.1228C14.1948 11.2441 14.114 11.5109 14.0089 11.9191C14.0089 12.0161 14.0574 12.0848 14.1544 12.1212C14.2272 12.1414 14.2878 12.1495 14.3403 12.1495C14.4373 12.1495 14.5263 12.1293 14.6112 12.0848C14.696 12.0444 14.7769 11.9878 14.8537 11.9151C14.8658 11.9676 14.8779 12.0202 14.8941 12.0767C14.9062 12.1333 14.9103 12.1818 14.9022 12.2263C14.7203 12.485 14.5141 12.7275 14.2757 12.9579C14.0412 13.1883 13.7906 13.4066 13.5319 13.6127C13.3056 13.7825 13.0388 13.9644 12.7357 14.1665C12.485 14.3362 12.2142 14.4979 11.9313 14.6596C11.519 14.8132 11.131 14.9345 10.7672 15.0153C10.4034 15.0962 10.0356 15.1366 9.65966 15.1366C9.28375 15.1366 8.92401 15.08 8.60065 14.9708C8.27728 14.8617 7.98221 14.6839 7.71948 14.4373C7.53759 14.0412 7.41229 13.6329 7.34761 13.2085C7.2789 12.7841 7.24656 12.3112 7.24656 11.7857V11.6887C7.24656 11.5715 7.24656 11.4543 7.25061 11.3411C7.25061 11.2239 7.25465 11.1067 7.25465 10.9935V10.6055C7.25465 10.274 7.25465 9.98702 7.24656 9.73641C7.23848 9.48581 7.22231 9.2352 7.19806 8.97651C7.10913 9.02906 7.03638 9.1099 6.98383 9.21903C6.94341 9.32413 6.90703 9.42113 6.86661 9.51814C6.90703 9.95064 6.9232 10.6216 6.9232 11.5311C6.9232 12.4405 6.94745 13.0953 6.99192 13.4955C7.06871 14.2069 7.22635 14.8132 7.45675 15.3104C7.6831 15.561 7.96605 15.7469 8.30154 15.8641C8.58448 15.9612 8.91593 16.0097 9.29184 16.0097C9.54244 16.0097 9.84964 15.9854 10.2053 15.9329C10.3468 15.9126 10.6338 15.8641 11.0582 15.7873C11.5109 15.6135 11.9677 15.3912 12.4244 15.1164C12.9216 14.8173 13.3622 14.502 13.7421 14.1665C14.1706 13.7865 14.5182 13.3662 14.793 12.9135C15.0679 12.4607 15.2336 11.9878 15.2943 11.4987L15.2983 11.5028ZM8.70978 10.3387C8.69766 10.2295 8.68149 10.1123 8.66532 9.98297C8.64915 9.85767 8.64107 9.76066 8.64107 9.69599C8.64107 9.61111 8.64915 9.53027 8.66936 9.45347C8.81083 9.65961 8.88359 9.93042 8.88359 10.2578C8.88359 10.5852 8.81892 10.8641 8.68957 11.1228C8.66532 11.1633 8.63703 11.1956 8.61277 11.2279C8.69766 11.0905 8.73808 10.9126 8.73808 10.6944C8.73808 10.5731 8.72999 10.4518 8.70978 10.3346V10.3387ZM5.66209 12.9013C5.64188 13.0832 5.60954 13.2611 5.56508 13.4349C5.48828 13.7259 5.41148 14.0129 5.34276 14.2999C5.16087 14.696 4.93452 15.0234 4.6637 15.2902C4.33226 15.6054 3.97656 15.7833 3.58852 15.8237C3.55618 15.8318 3.50364 15.8318 3.43492 15.8318C3.18836 15.8318 2.95392 15.7429 2.72757 15.5691C2.53355 15.4195 2.35166 15.2174 2.18593 14.9587C2.06467 14.6273 2 14.2877 2 13.9401C2 13.54 2.08084 13.1358 2.24252 12.7275C2.37187 12.4122 2.56993 12.0768 2.83266 11.7291C3.05093 11.4381 3.3177 11.139 3.62894 10.8358C3.80275 10.5367 3.97656 10.2376 4.15441 9.93447C4.12207 10.1204 4.06144 10.3063 3.96847 10.4842C3.87955 10.662 3.76233 10.848 3.62086 11.042C3.34196 11.3896 3.0671 11.7372 2.79628 12.0808C2.60226 12.3476 2.47292 12.5578 2.4042 12.7113C2.33549 12.8649 2.29103 13.0064 2.27486 13.1317C2.25465 13.257 2.24656 13.35 2.24656 13.4066C2.24656 13.5683 2.2789 13.7299 2.33953 13.8916C2.40016 14.0533 2.50121 14.2231 2.6346 14.3969C2.78416 14.5707 2.9135 14.7 3.02264 14.7849C3.17623 14.9021 3.33791 14.9587 3.50768 14.9587C3.91593 14.9587 4.308 14.7849 4.67987 14.4333C4.98302 14.1503 5.23767 13.7906 5.43573 13.3581C5.41148 13.1196 5.34681 12.9134 5.24171 12.7356C5.12045 12.5335 4.95473 12.4001 4.74859 12.3274C4.69604 12.3031 4.63137 12.2829 4.55053 12.2708C4.46968 12.2586 4.38884 12.2506 4.31205 12.2506C4.20695 12.2506 4.10994 12.2586 4.01293 12.2788C3.92805 12.3233 3.85125 12.3799 3.78658 12.4446C3.71787 12.5092 3.65319 12.578 3.58852 12.6467C3.58852 12.3759 3.62894 12.1374 3.71382 11.9272C3.82296 11.6604 3.99272 11.4785 4.21908 11.3734C4.31609 11.3532 4.40905 11.3451 4.50202 11.3451C4.77284 11.3451 5.03153 11.4219 5.27809 11.5796C5.41956 11.717 5.52466 11.8706 5.59337 12.0444C5.66209 12.2182 5.69442 12.4082 5.69442 12.6184V12.7558C5.6823 12.8205 5.67421 12.869 5.67421 12.9013H5.66209ZM4.54648 13.2206C4.49394 13.1479 4.40501 13.0832 4.27567 13.0226C4.14632 12.962 4.0574 12.9094 4.00485 12.8609C3.89976 12.966 3.81487 13.0873 3.74616 13.2247C3.67745 13.3621 3.62086 13.5036 3.57639 13.6451C3.77041 13.7865 3.9806 13.8876 4.20695 13.9442L4.54648 13.2166V13.2206ZM17.8165 12.3071C17.8165 12.3071 17.7357 12.3597 17.5942 12.4607C17.5053 12.5254 17.4244 12.5577 17.3597 12.5577C17.3072 12.5577 17.2546 12.5416 17.194 12.5092C17.1374 12.4769 17.1051 12.4324 17.1051 12.3718C17.1374 12.2829 17.1738 12.1859 17.2102 12.0889C17.2506 11.9919 17.3153 11.9434 17.4042 11.9434C17.477 11.9434 17.5497 11.9717 17.6225 12.0242C17.6952 12.0808 17.7437 12.1374 17.7599 12.194C17.7761 12.2506 17.7922 12.2869 17.8124 12.2991L17.8165 12.3071Z" fill="white"/>
</svg>
