<svg width="24" height="24" viewBox="0 0 24 24" fill="none" xmlns="http://www.w3.org/2000/svg">
<path fill-rule="evenodd" clip-rule="evenodd" d="M21.8655 10.4449C21.9069 10.6416 21.9379 10.8537 21.9638 11.0763C21.9897 11.2988 22 11.5213 22 11.749C22 12.4424 21.881 13.0892 21.6378 13.6791C21.3997 14.269 21.1565 14.7399 20.9185 15.0866C20.5977 15.5575 20.2251 15.9145 19.8111 16.1526C19.304 16.3285 18.7762 16.4527 18.2173 16.5303C17.6585 16.6079 17.0737 16.6493 16.458 16.6493C17.0116 16.5096 17.5446 16.3285 18.0466 16.1164C18.6158 15.8783 19.1281 15.5937 19.5731 15.2729C20.1009 14.9003 20.5356 14.5122 20.8668 14.1034C21.2652 13.617 21.5188 13.0944 21.6223 12.5407C21.6533 12.3751 21.674 12.1836 21.674 11.9715C21.674 11.485 21.555 10.9521 21.3118 10.3828C21.1721 10.0517 20.9133 9.56525 20.5408 8.91842C20.5097 9.05814 20.4838 9.2496 20.4683 9.48763C20.4528 9.72567 20.4424 9.93783 20.4424 10.1189C20.4424 10.2587 20.4424 10.4812 20.4528 10.7916C20.4631 11.0969 20.4631 11.3298 20.4631 11.485C20.4631 11.7645 20.4528 12.0336 20.4269 12.2923C20.401 12.551 20.3545 12.7942 20.2768 13.0271C20.1423 12.2561 20.0802 11.485 20.0802 10.7037C20.0802 9.54456 20.2096 8.47858 20.4631 7.50057C21.1772 8.35439 21.6378 9.3324 21.8551 10.4449H21.8655ZM15.1074 8.60794C15.0091 8.78906 14.8693 8.9443 14.6986 9.06849C14.5847 9.15128 14.3984 9.2496 14.1397 9.36862C13.8189 9.51868 13.6171 9.61183 13.5446 9.65322C13.3221 9.76707 13.141 9.89126 12.9961 10.0258C13.0893 9.84468 13.2135 9.68427 13.3687 9.54973C13.5239 9.41519 13.7102 9.291 13.9276 9.18233C14.3157 8.99087 14.7089 8.79941 15.1074 8.61312V8.60794ZM20.0026 12.8046C19.8887 12.6493 19.6041 12.52 19.1591 12.4268C18.7141 12.3337 18.445 12.1319 18.3622 11.8266C18.3622 11.3557 18.3415 10.8951 18.3053 10.4398C18.2691 9.98957 18.207 9.56525 18.1242 9.17198C18.0414 8.77871 17.9172 8.39061 17.7516 8.00251C17.586 7.61959 17.379 7.27806 17.1307 6.98828C16.9237 7.48505 16.7995 8.15775 16.7633 9.00122C16.727 9.84468 16.7012 10.3363 16.6805 10.4656C16.6805 10.5174 16.6701 10.6468 16.6494 10.8641C16.6287 11.0814 16.6184 11.247 16.6184 11.3712C16.6184 11.485 16.6287 11.5989 16.6546 11.7076C16.6805 11.8162 16.7219 11.9042 16.7788 11.9818C16.903 10.8072 17.0323 9.62735 17.1617 8.44236C17.379 8.78388 17.5446 9.13576 17.6688 9.50316C17.793 9.87056 17.8551 10.2431 17.8551 10.6157V11.335C17.8551 11.8162 17.8758 12.1784 17.9224 12.4268C17.969 12.6752 18.0259 12.8719 18.1035 13.0219C17.6326 13.3945 17.3273 13.6325 17.1979 13.7308C16.8978 13.9534 16.5873 14.1707 16.2665 14.3777C15.9457 14.5847 15.6145 14.7658 15.273 14.9262C14.9314 15.0814 14.5899 15.2056 14.2432 15.2988C13.8965 15.3919 13.6223 15.4437 13.4308 15.4643C13.2393 15.485 13.0375 15.4954 12.8305 15.4954C12.3907 15.4954 11.9819 15.423 11.6093 15.2832C11.2316 15.1435 10.9263 14.921 10.6831 14.6261C10.4761 14.0206 10.3001 13.2962 10.1501 12.4527C10.0362 11.6972 9.91721 10.9417 9.80336 10.181C9.6533 9.2703 9.49806 8.5355 9.33247 7.98181C9.23933 8.08013 9.17206 8.19915 9.12548 8.34404C9.07891 8.48375 9.02717 8.66487 8.97024 8.89255C9.10996 9.46176 9.23415 10.0413 9.34282 10.6312C9.45149 11.2211 9.56015 11.8731 9.67917 12.5924C9.87581 13.8033 9.9793 14.4242 9.98965 14.4553C10.1552 15.0452 10.2846 15.423 10.3726 15.5989C10.5796 16.0025 10.8693 16.2664 11.2419 16.3803C11.4799 16.4631 11.7232 16.52 11.9612 16.5562C12.1992 16.5924 12.4476 16.6079 12.7063 16.6079C13.3376 16.6079 13.9534 16.5045 14.5589 16.2923C15.1643 16.0801 15.7283 15.7904 16.2458 15.4178C16.4942 15.3195 16.8357 15.0659 17.2755 14.6623C17.5084 14.4449 17.705 14.269 17.8706 14.1293C18.0776 13.9637 18.2691 13.8395 18.4398 13.7567C18.6158 13.6739 18.7969 13.6325 18.9884 13.6325C19.2264 13.6325 19.4696 13.705 19.7076 13.855L19.9922 12.8098L20.0026 12.8046ZM8.21475 9.91196C8.1837 10.1345 8.06986 10.3363 7.88357 10.5122C7.69728 10.6882 7.4903 10.802 7.25744 10.8537C7.25744 10.7451 7.36093 10.6364 7.56792 10.5174C7.7749 10.3984 7.8784 10.2949 7.8784 10.1966C7.8784 10.1448 7.86805 10.1086 7.85252 10.0827C7.78008 10.1086 7.70246 10.1189 7.63001 10.1189C7.47995 10.1189 7.36611 10.0775 7.28331 9.99475C7.36611 9.73084 7.47477 9.50833 7.60414 9.33757C7.78525 9.09954 7.98189 8.99087 8.18887 9.01674C8.15783 9.08401 8.12678 9.14611 8.09573 9.20303C8.06468 9.25995 8.02329 9.31687 7.96636 9.36344C7.92497 9.32205 7.8784 9.31687 7.82147 9.35309C7.76973 9.38414 7.71281 9.43071 7.65589 9.48763C7.62484 9.5549 7.59379 9.617 7.56792 9.67392C7.61966 9.72567 7.68176 9.74637 7.76455 9.74637C7.86287 9.73602 7.93532 9.73602 7.97671 9.73602C8.09056 9.73602 8.17335 9.79294 8.21475 9.91196ZM4.66494 8.57172C4.5925 8.91842 4.5304 9.15646 4.47865 9.28065C4.42691 9.40484 4.36481 9.51868 4.28202 9.617L2.95213 9.83951C2.94179 9.80846 2.94179 9.76189 2.94179 9.70497C2.94179 9.56525 2.97283 9.41519 3.0401 9.25995C3.10737 9.10471 3.17464 8.94947 3.23674 8.79941C3.54204 8.73214 3.7749 8.68556 3.93014 8.66487C4.23027 8.60794 4.47348 8.5769 4.66494 8.5769V8.57172ZM8.88745 15.4126C8.83053 15.5368 8.73739 15.6558 8.61319 15.7748C8.52005 15.8576 8.39586 15.9508 8.23027 16.0594C7.94049 16.2354 7.65589 16.401 7.37128 16.5665C7.40233 16.4579 7.46442 16.3544 7.55239 16.2509C7.64036 16.1474 7.79043 16.0336 8.00776 15.9094C8.25614 15.7852 8.44243 15.692 8.56662 15.6248C8.69081 15.5575 8.79948 15.4902 8.88745 15.4126ZM8.16818 12.3699C8.13713 12.4372 8.08538 12.7114 8.02329 13.1875C7.96119 13.6687 7.79043 13.9585 7.50582 14.0568C7.4075 14.0724 7.34023 14.0827 7.30919 14.0827C7.07115 14.0827 6.90039 13.8861 6.80207 13.4928C6.70375 13.0995 6.61578 12.8719 6.54334 12.8046C6.3881 12.9288 6.25356 13.1047 6.13972 13.3376C6.02587 13.5704 5.88616 13.9275 5.71022 14.4191C5.37904 15.04 4.89263 15.5575 4.2458 15.9715C3.82147 16.2457 3.19017 16.5407 2.3467 16.8512C2.25356 16.8925 2.16559 16.9339 2.07245 16.9753C2.04657 16.9857 2.0207 16.996 2 17.0116C2.08279 16.996 2.16041 16.9805 2.22768 16.9702C2.30013 16.9598 2.38292 16.9495 2.48124 16.9495L4.5925 16.6907C5.16171 16.4941 5.62743 15.9766 5.98448 15.1383C6.26391 14.476 6.43467 14.0982 6.49159 14.0103C6.56404 14.1086 6.63648 14.2897 6.69858 14.5588C6.76067 14.8227 6.84864 15.0038 6.96766 15.1073C7.1022 15.2004 7.25226 15.2418 7.4282 15.2418C7.52135 15.2418 7.59896 15.2263 7.66623 15.1901C7.89909 15.0245 8.05951 14.8072 8.15265 14.5433C8.21992 14.3466 8.25097 14.0672 8.25097 13.7101C8.25097 13.5549 8.24062 13.322 8.21475 13.0167C8.18887 12.7114 8.17852 12.4941 8.17852 12.3699H8.16818ZM4.56662 12.0232C4.51488 12.5458 4.4683 13.0633 4.41656 13.5756C4.30272 14.1707 4.01294 14.5691 3.54722 14.7658C3.4489 14.7916 3.36093 14.8123 3.28849 14.8279C3.21604 14.8434 3.14877 14.8537 3.09185 14.8537C2.98318 14.8537 2.89004 14.8227 2.80724 14.7658C2.69858 14.5174 2.64683 14.2431 2.64683 13.9482C2.64683 13.6532 2.70893 13.3169 2.83312 12.965C2.95731 12.6183 3.11255 12.2923 3.30401 11.9818C3.36093 11.8317 3.43855 11.7231 3.54204 11.6506C3.64554 11.5782 3.75938 11.5471 3.88875 11.5471C4.20957 11.5471 4.43726 11.7024 4.5718 12.018L4.56662 12.0232ZM4.23027 13.1306C4.15783 13.3117 4.04398 13.4514 3.88875 13.5394C3.73351 13.6325 3.55239 13.6946 3.33506 13.736C3.13842 13.736 3.00906 13.6584 2.95213 13.498C3.00388 13.322 3.07633 13.1616 3.17982 13.0116C3.28331 12.8615 3.4075 12.7528 3.54722 12.6752C3.68176 12.6752 3.80595 12.7166 3.93014 12.8046C4.05433 12.8925 4.15265 12.996 4.23027 13.1202V13.1306Z" fill="white"/>
</svg>
