<svg width="24" height="24" viewBox="0 0 24 24" fill="none" xmlns="http://www.w3.org/2000/svg">
<path fill-rule="evenodd" clip-rule="evenodd" d="M16.1851 7.52822C16.1738 7.59068 16.1397 7.62475 16.0772 7.62475C15.9693 7.59636 15.8614 7.56797 15.7479 7.52822C15.5378 7.90868 15.2368 8.2494 14.8507 8.55036C14.5043 8.81158 14.1181 9.03305 13.6922 9.2034C14.2998 8.64122 14.9074 8.07336 15.5207 7.49983C15.5037 7.47711 15.3277 7.35786 15.004 7.14775C14.8677 7.06257 14.7655 6.96604 14.703 6.85814C14.703 6.54014 14.8393 6.25621 15.1119 6.00068C15.2822 5.84736 15.4753 5.76786 15.6854 5.76786C15.7876 5.76786 15.8728 5.79625 15.9466 5.85871C16.0204 5.9155 16.0602 6.01203 16.0716 6.13696C16.0602 6.18239 16.0602 6.24486 16.0602 6.33004V6.57422C16.0602 6.74457 16.0261 6.8695 15.9637 6.94332C16.0375 7.00011 16.1113 7.04554 16.1794 7.09097C16.2589 7.16479 16.3044 7.23861 16.3044 7.30675C16.3044 7.3749 16.2703 7.4544 16.1965 7.52254L16.1851 7.52822ZM21.5571 10.0382C21.364 10.4357 21.0857 10.7877 20.711 11.0887C20.3362 11.3897 19.9443 11.5998 19.5241 11.7304C19.5412 11.6111 19.5696 11.4408 19.6036 11.2136C19.6377 10.9865 19.6604 10.7764 19.6604 10.589C19.6604 10.3334 19.6263 10.1063 19.5639 9.90755C19.473 9.74287 19.3595 9.61226 19.2232 9.5214C19.0869 9.42487 18.9392 9.37944 18.7859 9.37944C18.7518 9.37944 18.6837 9.3908 18.5928 9.40783C18.1499 9.69744 17.8262 10.1517 17.6275 10.7707C17.5253 11.0773 17.4174 11.6509 17.2981 12.4856C17.1959 12.8207 16.9461 13.0705 16.5372 13.2352C16.3101 13.3261 15.958 13.451 15.4753 13.6043C15.3958 13.5475 15.2652 13.4056 15.0948 13.1671C14.8393 12.8207 14.5838 12.673 14.3169 12.7185C14.0784 12.8661 13.891 13.0819 13.7433 13.3715C13.6525 13.5532 13.5162 14.0302 13.3345 14.8025C13.4367 15.0296 13.6354 15.1716 13.9307 15.2227C14.1806 15.2511 14.4361 15.2738 14.6973 15.2909C14.402 15.7792 14.0443 16.1994 13.6184 16.5458C13.2436 16.8525 12.7893 17.125 12.2612 17.3635C11.8126 17.5623 11.3129 17.7383 10.7507 17.8973C10.3759 18.0052 9.86485 18.1358 9.21749 18.2778C9.47871 18.2891 9.75128 18.2948 10.0239 18.3062C10.2964 18.3175 10.5747 18.3175 10.8529 18.3175C11.2902 18.3175 11.682 18.2948 12.0341 18.2437C12.3861 18.1926 12.7098 18.1018 13.0108 17.9655C13.5389 17.8178 13.9989 17.4885 14.385 16.9717C14.72 16.5288 14.9642 16.012 15.1062 15.4328C16.0716 14.8536 17.0369 14.2687 18.0079 13.6895C18.7235 13.6895 19.3992 13.4851 20.0238 13.0819C20.6485 12.6787 21.1369 12.1563 21.4832 11.5089C21.6536 11.0092 21.7842 10.5549 21.8694 10.1347C21.9546 9.71448 22 9.2829 22 8.83997C22 8.39704 21.9375 7.97683 21.8183 7.57365C21.6934 7.17615 21.5003 6.82407 21.2391 6.52879C21.0233 6.13129 20.7394 5.81328 20.3873 5.58614C20.0352 5.35332 19.6604 5.23975 19.2629 5.23975C19.0471 5.23975 18.8427 5.27382 18.6496 5.33628C18.0931 5.69403 17.7297 6.25054 17.548 7.00011C17.4401 7.44304 17.3833 8.12447 17.3833 9.0444C17.5082 8.90812 17.6104 8.64122 17.6843 8.23804C17.7581 7.84054 17.8206 7.57933 17.8773 7.46008C17.9966 7.2159 18.167 7.03986 18.3884 6.92629C18.6099 6.81839 18.8768 6.76161 19.1834 6.76161C19.8308 6.95468 20.3646 7.39193 20.7905 8.08472C21.1085 8.59579 21.364 9.24883 21.5514 10.0495L21.5571 10.0382ZM11.6763 10.5947C11.7331 10.9694 11.7558 11.3329 11.7558 11.6963C11.7558 12.7696 11.5344 13.7974 11.0857 14.7911C10.7791 15.4442 10.3873 16.0461 9.92164 16.5969C9.45599 17.1478 8.89949 17.6418 8.25213 18.0904C7.38898 18.3743 6.35548 18.5617 5.14594 18.6639C4.37365 18.7264 3.32311 18.7605 2 18.7605C2.89154 18.5163 3.78308 18.2721 4.66894 18.0223C5.72516 17.7156 6.61102 17.3919 7.32652 17.0569C8.24645 16.631 9.01874 16.1256 9.65474 15.5464C10.3816 14.882 10.9438 14.087 11.347 13.1614C11.2447 12.4686 11.063 11.9575 10.8018 11.6225C10.586 11.3499 10.3078 11.1796 9.97274 11.1057C9.75696 11.0887 9.59796 11.0717 9.49574 11.066C9.39353 11.0546 9.30267 11.0546 9.22317 11.0546C9.01306 11.0546 8.83702 11.0773 8.68938 11.1171C8.54174 11.1568 8.39977 11.242 8.25213 11.3669C8.03634 11.5657 7.87734 11.719 7.78648 11.8156C7.61613 11.9973 7.52527 12.1733 7.52527 12.3493C7.78648 12.6673 8.00227 13.0081 8.17263 13.3772C8.34299 13.7463 8.42249 14.104 8.42249 14.4618C8.42249 14.7911 8.34867 15.0978 8.2067 15.3874C8.14424 15.2341 7.88302 14.8593 7.42873 14.2687C7.08234 13.8258 6.91198 13.4112 6.91198 13.0308C7.0937 11.9064 7.36627 11.0717 7.7297 10.5379C8.0477 10.0722 8.46224 9.74855 8.96763 9.55548C9.20613 9.47598 9.44463 9.43055 9.68881 9.43055C10.109 9.43055 10.4952 9.53844 10.8529 9.74855C11.2107 9.96433 11.4832 10.2483 11.665 10.6003L11.6763 10.5947ZM15.7081 6.80704V6.72754C15.7195 6.63668 15.6854 6.54582 15.6116 6.46064C15.5378 6.37546 15.4583 6.33004 15.3674 6.33004C15.2652 6.33004 15.197 6.38682 15.163 6.50607C15.2198 6.57989 15.2822 6.64236 15.3617 6.68779C15.4412 6.73889 15.5548 6.77864 15.7081 6.80136V6.80704ZM19.1266 11.6338C19.0074 11.7247 18.8881 11.8156 18.7632 11.9064C18.6383 11.9973 18.5133 12.0427 18.3884 12.0427C18.2862 12.0427 18.1953 12.0086 18.1045 11.9348C18.0136 11.861 17.9455 11.7985 17.9001 11.7361C17.8546 11.6793 17.8319 11.6168 17.8319 11.5543C17.8319 11.4919 17.866 11.4294 17.9398 11.3613C18.042 11.242 18.1215 11.1625 18.184 11.1171C18.2862 11.0433 18.3941 11.0092 18.5133 11.0092C18.6667 11.0262 18.803 11.0944 18.9222 11.2136C19.0415 11.3329 19.1096 11.4748 19.1266 11.6338Z" fill="white"/>
</svg>
