<svg width="24" height="24" viewBox="0 0 24 24" fill="none" xmlns="http://www.w3.org/2000/svg">
<path fill-rule="evenodd" clip-rule="evenodd" d="M21.6884 11.504C21.7048 11.4466 21.7212 11.3564 21.7294 11.2252C21.7376 11.094 21.7458 10.971 21.7458 10.8562C21.7458 10.2658 21.59 9.64258 21.2784 8.98658C21.2046 8.83897 21.0242 8.50277 20.7208 7.98617C20.6962 8.26497 20.688 8.53557 20.688 8.80617C20.688 9.06858 20.688 9.33098 20.6962 9.59339C20.7044 9.85579 20.7126 10.1264 20.7208 10.397C20.7208 10.7988 20.6962 11.1678 20.6388 11.504C20.565 11.2416 20.5158 10.9464 20.483 10.5938C20.4502 10.2494 20.4338 9.88039 20.4338 9.49499C20.4338 9.15059 20.442 8.69137 20.4666 8.12557C20.483 7.55976 20.4994 7.23176 20.4994 7.14156C20.4994 7.01856 20.5158 6.90376 20.5404 6.79716C20.565 6.69876 20.6224 6.62496 20.6962 6.60036C21.1308 7.14157 21.4506 7.75657 21.672 8.44538C21.8934 9.13419 22 9.85579 22 10.6102C22 11.504 21.8524 12.365 21.549 13.2014C21.3194 13.7672 20.9996 14.2756 20.5814 14.7184C20.114 15.2186 19.6138 15.5384 19.089 15.686C18.638 15.768 18.064 15.85 17.3506 15.9485C16.7601 16.0223 16.1779 16.096 15.5957 16.1698C17.0144 15.6614 17.8344 15.358 18.0476 15.2596C19.048 14.8332 19.8188 14.3658 20.3682 13.8574C21.0816 13.2014 21.5244 12.406 21.6966 11.4876L21.6884 11.504ZM15.4973 7.69096L15.3579 8.28137C15.2349 8.28137 15.0791 8.33057 14.8905 8.42077C14.7019 8.51097 14.5461 8.56018 14.4231 8.56838C14.3329 8.51918 14.2837 8.42898 14.2837 8.28958C14.2837 8.22398 14.2837 8.16657 14.2919 8.10097C14.2919 8.03537 14.3083 7.97797 14.3165 7.91237C14.3329 7.86317 14.3493 7.82216 14.3575 7.78116C14.3657 7.74016 14.3985 7.71557 14.4313 7.69917C14.4313 7.81397 14.4231 7.90417 14.4231 7.96157C14.4231 8.04357 14.4477 8.10918 14.4969 8.17478C14.5543 8.20758 14.6117 8.20758 14.6773 8.17478C14.7593 8.11738 14.8085 8.08457 14.8413 8.06817C14.8823 8.01077 14.9069 7.91237 14.9151 7.75656C14.9151 7.60076 14.9561 7.50237 15.0217 7.44497L15.0791 7.99437C15.1857 8.05177 15.2677 8.01077 15.3251 7.88777C15.3579 7.73197 15.3907 7.57617 15.4153 7.42037C15.4317 7.45317 15.4481 7.49416 15.4645 7.55156C15.4809 7.60896 15.4973 7.65817 15.5055 7.70737L15.4973 7.69096ZM17.3424 14.415C17.2768 14.292 17.1702 14.1854 17.0226 14.1116C16.9323 14.0624 16.8011 14.0132 16.6207 13.9476C16.5305 14.0296 16.4321 14.1362 16.3255 14.2756C16.2681 14.3576 16.1861 14.4724 16.0631 14.6282C16.0631 14.7594 16.1779 14.8824 16.4157 14.9808C16.5387 15.03 16.7191 15.1038 16.9487 15.2022C17.0389 15.112 17.121 14.989 17.1702 14.8414C17.2276 14.6938 17.2768 14.5544 17.3342 14.415H17.3424ZM10.8889 9.12598C10.8889 9.33098 10.7823 9.54419 10.5691 9.77379C10.4625 9.88039 10.3559 9.98699 10.2493 10.0936C10.2657 9.98699 10.1509 9.87219 9.91308 9.77379C9.67528 9.66719 9.55228 9.56879 9.55228 9.47039C9.55228 9.38839 9.60968 9.29818 9.71628 9.19158C9.74908 9.02758 9.79828 8.91278 9.86388 8.84718C9.92948 8.78158 10.0197 8.75698 10.1263 8.75698C10.2329 8.75698 10.3641 8.79798 10.5117 8.88818C10.6183 8.95378 10.7413 9.03578 10.8725 9.13418L10.8889 9.12598ZM18.9496 9.63439C18.9496 10.2412 18.7774 10.8234 18.4412 11.3646C18.105 11.9058 17.6458 12.3076 17.0718 12.5782C17.121 12.2256 17.1702 11.8648 17.2276 11.504C17.1702 11.5614 17.1046 11.6844 17.0144 11.873C16.9242 12.0616 16.834 12.1928 16.7355 12.2748C16.6207 12.3486 16.5223 12.3978 16.4567 12.4224C16.3829 12.447 16.2927 12.4634 16.1861 12.4634C16.1369 12.4634 16.0795 12.4634 15.9975 12.4388C15.6613 12.2092 15.4235 11.8648 15.2759 11.4056C15.2431 11.3072 15.1693 10.8808 15.0381 10.1346C14.9397 10.2248 14.8741 10.3478 14.8249 10.52C14.7921 10.6758 14.7675 10.7988 14.7511 10.8972C14.7347 10.9956 14.7183 11.0694 14.7183 11.135C14.7183 11.2498 14.7593 11.4302 14.8413 11.6598C14.9233 11.8894 14.9643 12.0616 14.9643 12.16C14.9643 12.2502 14.9397 12.3322 14.8905 12.4224C14.8413 12.5126 14.7675 12.5864 14.6691 12.6602C14.4723 12.8324 14.2673 12.9226 14.0541 12.9226C14.0131 12.9226 13.9639 12.9226 13.8983 12.898C13.8081 12.8488 13.7507 12.7914 13.7179 12.7176C13.6851 12.6438 13.6687 12.57 13.6687 12.4798C13.6687 12.406 13.6851 12.2994 13.7179 12.1518C13.7507 12.0042 13.7671 11.8894 13.7671 11.8238C13.7671 11.7336 13.7425 11.6434 13.6933 11.5532C13.5703 11.4548 13.4227 11.4138 13.2587 11.4384C12.3321 12.0698 11.4055 12.693 10.4789 13.308C10.0607 13.5868 9.65068 13.8082 9.24067 13.9722C8.83067 14.1362 8.41246 14.21 7.98606 14.21C7.76466 14.21 7.52686 14.1854 7.28085 14.1362C6.83805 14.0952 6.43624 13.8738 6.05904 13.4638C5.74744 13.1358 5.50144 12.734 5.32103 12.2748C5.25543 12.2584 5.21443 12.2502 5.18163 12.2502C4.97663 12.2502 4.80443 12.3896 4.64863 12.6602C4.56663 12.8078 4.46003 13.0292 4.30422 13.3326C4.20582 13.6032 4.10742 13.882 4.00902 14.1526C3.87782 14.4724 3.68102 14.6364 3.41861 14.6364H3.36941C3.36941 14.6364 3.32021 14.6364 3.28741 14.6282C3.00041 14.4396 2.76261 14.21 2.59041 13.9312C2.41 13.6524 2.328 13.3572 2.328 13.0456C2.328 12.734 2.4018 12.4634 2.54941 12.2174C2.69701 11.9714 3.00041 11.7008 3.47601 11.4138C3.65642 11.3072 3.83682 11.2006 4.01722 11.094C4.39442 10.8808 4.66503 10.6922 4.82903 10.5364C4.99303 10.3724 5.12423 10.2084 5.21443 10.028C5.30463 9.84759 5.37023 9.64259 5.40303 9.41298C5.32103 9.45398 5.24723 9.55238 5.18163 9.71638C5.16523 9.76558 5.13243 9.83119 5.09143 9.92959C4.90283 10.1428 4.63223 10.3642 4.28782 10.5856C3.99262 10.7742 3.68922 10.9546 3.39401 11.135C2.94301 11.4138 2.60681 11.6926 2.4018 11.955C2.1312 12.3076 2 12.7422 2 13.2506V13.5704C2 14.333 2.3034 14.9644 2.90201 15.481C3.17261 15.6286 3.40221 15.7025 3.57442 15.7025C3.88602 15.7025 4.14022 15.3334 4.33702 14.5954C4.52563 13.8574 4.78803 13.431 5.13243 13.3162C5.35383 13.7754 5.61624 14.1526 5.92784 14.4724C6.31324 14.8579 6.71505 15.0956 7.14965 15.1776C7.33005 15.2186 7.46126 15.2432 7.55146 15.2514C7.64166 15.2514 7.76466 15.2596 7.93686 15.2596C8.42886 15.2596 8.92907 15.1531 9.42928 14.9316C9.83928 14.7594 10.2739 14.497 10.7331 14.1526C11.1431 13.8574 11.5449 13.554 11.9549 13.2424C12.4305 12.898 12.8487 12.6438 13.2095 12.488C13.3161 12.5372 13.3981 12.5946 13.4391 12.6684C13.4801 12.7422 13.5047 12.816 13.5047 12.9062C13.5047 12.9226 13.4965 12.9964 13.4719 13.1276C13.4555 13.2588 13.4391 13.3572 13.4391 13.4392C13.4391 13.5294 13.4555 13.6032 13.4801 13.6688C13.5047 13.7344 13.5539 13.8 13.6113 13.8492C13.7343 13.9148 13.8573 13.9394 13.9639 13.9394C14.0705 13.9394 14.2017 13.9148 14.3493 13.8574C14.5461 13.7672 14.7101 13.6114 14.8577 13.3982C14.9971 13.185 15.0955 12.9636 15.1365 12.7422L15.4645 13.2588C15.5465 13.349 15.6285 13.4064 15.7105 13.4392C15.8007 13.472 15.8827 13.4884 15.9729 13.4884C16.0959 13.4884 16.2599 13.4474 16.4649 13.3572C16.8913 13.1768 17.1702 13.0866 17.3014 13.0866C17.6458 13.0866 17.9492 12.9144 18.2116 12.57C18.3018 12.4634 18.474 12.1518 18.7446 11.627C19.048 10.889 19.2038 10.11 19.2038 9.27358C19.2038 8.66678 19.1136 8.08458 18.9414 7.53517C18.761 6.98577 18.4986 6.51836 18.1378 6.12476C18.064 6.20676 18.023 6.34615 17.9984 6.55115C17.9738 6.75615 17.9492 6.89556 17.9164 6.96936C17.9164 7.05136 17.8918 7.60897 17.8344 8.65038C17.818 8.94559 17.8098 9.28178 17.8098 9.64259C17.8098 10.1182 17.8426 10.5364 17.9 10.8808C17.9902 10.3314 18.0722 9.75739 18.1214 9.16698C18.1788 8.57657 18.2034 8.00258 18.2034 7.44497C18.4494 7.81397 18.6298 8.17477 18.7528 8.51918C18.8758 8.86358 18.9414 9.24078 18.9414 9.64259L18.9496 9.63439ZM15.4317 16.8751L15.0545 17.8263C14.8495 17.8263 14.5871 17.8263 14.2509 17.8509C13.9229 17.8673 13.7343 17.8755 13.6851 17.8755C13.6851 17.7279 13.7261 17.5639 13.7999 17.3835C13.8819 17.2031 13.9721 17.0555 14.0787 16.9325C14.2591 16.9325 14.5133 16.9243 14.8331 16.8997C15.1529 16.8833 15.3497 16.8669 15.4235 16.8669L15.4317 16.8751ZM5.69824 8.28137C5.69824 8.55197 5.61624 8.73238 5.46043 8.82258C5.34563 8.89638 5.14883 8.92918 4.88643 8.92918H4.68143C4.61583 8.92918 4.55023 8.92917 4.47643 8.92097C4.29602 8.92097 4.13202 8.94558 3.99262 8.99478C3.99262 8.81438 4.02542 8.64217 4.08282 8.48637C4.14022 8.32237 4.23042 8.19117 4.36162 8.07637C4.41902 8.07637 4.55843 8.05997 4.78803 8.02717C5.01763 7.99437 5.18163 7.97797 5.28003 7.97797C5.41123 7.97797 5.51784 8.00257 5.59164 8.05177C5.66544 8.10097 5.70644 8.18297 5.70644 8.29777L5.69824 8.28137Z" fill="white"/>
</svg>
