<svg width="24" height="24" viewBox="0 0 24 24" fill="none" xmlns="http://www.w3.org/2000/svg">
<path fill-rule="evenodd" clip-rule="evenodd" d="M15.2576 5.00759C15.2273 5.06062 15.2045 5.12123 15.197 5.18941C15.1894 5.25759 15.1818 5.32577 15.1818 5.40153V5.79547C15.1818 5.9091 15.1591 5.98486 15.1061 6.03789C15.053 6.09092 14.9697 6.0985 14.8333 6.0682C14.4697 6.54547 14.0227 6.90153 13.4848 7.12122C13.5758 7.00001 13.7121 6.86365 13.8864 6.71214C14.3788 6.28032 14.6439 6.03789 14.697 5.99244C14.5379 5.87123 14.3864 5.74244 14.2424 5.61365C14.2424 5.42426 14.303 5.24244 14.4318 5.0682C14.5606 4.90153 14.7121 4.78789 14.8939 4.73486C15.0833 4.73486 15.2045 4.82577 15.2576 5.00759ZM15.4697 7.08335C15.4697 7.08335 15.4545 7.02274 15.4242 6.92426C15.3939 6.82577 15.3485 6.78032 15.2955 6.78032C15.2879 6.81062 15.2727 6.90153 15.2652 7.06062C15.2576 7.21971 15.1894 7.30304 15.0758 7.31062C15.0152 7.26516 14.9773 7.20456 14.9545 7.13638C14.9394 7.0682 14.9167 6.99244 14.8939 6.90153C14.7955 6.96214 14.75 7.0682 14.7727 7.22729C14.7727 7.40153 14.6742 7.49244 14.4697 7.49244C14.4167 7.45456 14.3939 7.3485 14.3939 7.18941C14.3939 7.10607 14.3788 7.05305 14.3561 7.02274H14.2424L14.197 7.68941C14.2727 7.86365 14.3712 7.94698 14.4924 7.94698C14.5682 7.94698 14.6818 7.91668 14.8333 7.85607C14.9924 7.79547 15.1061 7.76517 15.1742 7.76517C15.4167 7.62123 15.5152 7.39395 15.4621 7.08335H15.4697ZM21.9242 12.2046C21.9773 12.5909 22 12.947 22 13.2803C22 14.0985 21.8864 14.894 21.6515 15.6743C21.3409 16.4697 20.9091 17.1515 20.3636 17.7197C19.697 18.4091 19 18.75 18.2727 18.75C17.7879 18.8182 17.2424 18.8712 16.6288 18.9091C16.0152 18.947 15.4242 18.9621 14.8485 18.9621C15.6894 18.7803 16.3864 18.5985 16.9394 18.4167C17.6742 18.1667 18.3561 17.8637 18.9697 17.5076C19.6439 17.1212 20.2045 16.6743 20.6515 16.1591C21.1439 15.5833 21.4924 14.9318 21.697 14.2046C21.697 13.5303 21.6061 12.894 21.4167 12.3106C21.2273 11.7273 20.9318 11.1894 20.5303 10.7046C20.4697 11.0909 20.4394 11.4697 20.4394 11.8561C20.4394 12.2197 20.4394 12.4924 20.4545 12.6743C20.5076 13.5909 20.5303 14.0682 20.5303 14.0985L20.4394 14.1288C20.25 13.3788 20.1515 12.5455 20.1515 11.6137C20.1515 10.6818 20.2424 9.8788 20.4242 9.1591C20.8485 9.55304 21.1818 10 21.4242 10.5076C21.6667 11.0152 21.8333 11.5758 21.9242 12.2046ZM18.4848 9.50759C18.2727 8.48486 17.7955 7.57577 17.0455 6.78032C16.9318 6.8788 16.8561 7.03032 16.8106 7.21971C16.7652 7.4091 16.7424 7.63638 16.7424 7.88638C16.7424 7.96971 16.7424 8.06062 16.75 8.16668C16.75 8.27274 16.7652 8.39395 16.7727 8.52274C16.7727 9.21971 16.803 9.87122 16.8712 10.4849C16.9394 11.0985 17.0606 11.6212 17.2424 12.053V11.4924C17.2424 11.3106 17.2197 10.9924 17.1818 10.5379C17.1136 9.75001 17.0758 9.21971 17.0758 8.94698C17.0758 8.8788 17.0758 8.79547 17.0833 8.69698C17.0833 8.5985 17.0985 8.48486 17.1061 8.35607C17.4773 8.8182 17.7652 9.30304 17.9545 9.81062C18.1439 10.3182 18.2424 10.8636 18.2424 11.4621C18.0076 12.0152 17.697 12.5076 17.303 12.9318C16.947 13.303 16.5076 13.6515 15.9848 13.9773C15.5909 14.2197 15.2121 14.4243 14.8485 14.5833C14.3712 14.7955 13.7348 15.0227 12.9394 15.2652C13.3864 14.9394 13.7727 14.553 14.1136 14.1061C14.4545 13.6591 14.7348 13.1818 14.9545 12.6894C14.9621 12.6212 15.0227 12.4015 15.1212 12.0379C15.2197 11.6743 15.2727 11.3712 15.2727 11.1288C15.2727 10.9167 15.2348 10.7273 15.1515 10.5682C14.553 10.5682 14.0076 10.7046 13.5076 10.9849C13.0076 11.2652 12.6136 11.6364 12.3182 12.1136C12.447 11.4546 12.5152 10.8106 12.5152 10.1743C12.5152 9.75759 12.4924 9.39395 12.4545 9.0682C12.3864 8.55305 12.2576 8.06062 12.0833 7.59092C11.9091 7.12123 11.6742 6.71214 11.3939 6.35607C11.2045 7.00001 11.0606 7.71213 10.9697 8.47729C10.8788 9.24244 10.8333 10.3409 10.8333 11.7652C10.9167 11.394 10.9773 10.894 11.0303 10.2803C11.1288 9.03789 11.2348 8.22729 11.3333 7.84092C11.5455 8.15153 11.7045 8.46971 11.8106 8.78032C11.9167 9.09092 11.9924 9.41668 12.0455 9.74244C12.0985 10.0682 12.1212 10.394 12.1212 10.7046V12.1288C12.1212 12.3788 12.0909 12.7273 12.0379 13.1591C11.9242 14.0303 11.8636 14.5833 11.8636 14.8258C11.7803 14.8561 11.6439 14.9091 11.4545 14.9924C11.303 15.0303 11.1742 15.0379 11.0606 15.0076L10.7727 14.5833C10.5682 14.4091 10.3561 14.3258 10.1212 14.3258C10.053 14.3258 9.99242 14.3258 9.95454 14.3409C9.62879 14.7121 9.4697 15.144 9.4697 15.6288C9.4697 15.8409 9.51515 16.0455 9.60606 16.25C9.72727 16.3409 9.84091 16.394 9.93939 16.4091C10.0379 16.4243 10.2045 16.4318 10.4394 16.4318H10.7121C10.2879 17.2197 9.61364 17.8409 8.69697 18.2955C8.25 18.5152 7.40151 18.8182 6.15151 19.1894C6.68939 19.1894 7.23485 19.144 7.78788 19.053C8.34091 18.9621 8.85606 18.8485 9.31818 18.7121C9.7803 18.5758 10.1742 18.2424 10.5 17.7046C10.7652 17.2727 10.9394 16.803 11.0303 16.2955C11.303 16.2349 11.5455 16.1515 11.7576 16.0455C11.9697 15.9394 12.1742 15.7879 12.3788 15.5985C14.9318 15 16.3182 14.6515 16.5303 14.5379C17.3258 14.1137 17.8864 13.4697 18.197 12.5985C18.4621 11.9015 18.5909 11.2121 18.5909 10.5379C18.5909 10.1743 18.553 9.83334 18.4848 9.50759ZM5.36364 8.68941C5.36364 8.68941 5.33333 8.78789 5.33333 8.90153C5.33333 8.95456 5.31818 8.99244 5.28788 9.02274L4.92424 8.93183C4.85606 9.44698 4.7803 9.95456 4.71212 10.4621C4.62879 10.4015 4.54545 10.2879 4.45455 10.1288C4.20455 9.68183 4.06061 9.43941 4.0303 9.40153C4.00758 9.48486 3.9697 9.53789 3.91667 9.56819C3.86364 9.5985 3.79545 9.59092 3.72727 9.55305C3.60606 9.48486 3.54546 9.38637 3.54546 9.26516C3.54546 9.20456 3.56818 9.10607 3.62121 8.97729C3.64394 8.92426 3.66667 8.8788 3.68939 8.83335C3.71212 8.78789 3.75 8.74244 3.78788 8.68941C3.97727 8.78032 4.14394 8.95456 4.28788 9.21971C4.40152 9.43941 4.51515 9.66668 4.63636 9.88637C4.66667 9.77274 4.69697 9.56062 4.7197 9.23486C4.74242 8.90911 4.80303 8.67426 4.89394 8.52274C4.98485 8.50001 5.06061 8.50759 5.12121 8.53032C5.18182 8.55304 5.26515 8.60607 5.36364 8.68941ZM8.34848 13.75C8.37121 13.894 8.37879 14.0076 8.37879 14.0985C8.37879 14.2197 8.37121 14.3561 8.34848 14.5152C8.32576 14.6743 8.31061 14.8182 8.28788 14.9621C8.10606 15.0909 7.93182 15.2652 7.77273 15.4773C7.61364 15.6894 7.43182 16.0152 7.24242 16.4621C7 17.0909 6.70455 17.644 6.36364 18.1212C6.02273 18.5985 5.58333 18.9243 5.04545 19.0985C4.64394 19.2121 4.09848 19.2652 3.42424 19.2652H2C2.61364 19.0758 3.06818 18.9243 3.34849 18.8258C3.83333 18.644 4.27273 18.447 4.66667 18.2349C5.50758 17.7803 6.18939 17.1061 6.72727 16.2046C6.73485 16.197 6.94697 15.7349 7.34849 14.8258C7.59091 14.2803 7.92424 13.9243 8.34848 13.75ZM14.9848 5.40911C15.0152 5.27274 14.947 5.20456 14.7727 5.20456C14.6591 5.20456 14.5985 5.25002 14.5758 5.33335L14.7576 5.43183C14.8106 5.46971 14.8712 5.49244 14.9545 5.49244L14.9848 5.40911ZM14.8485 11.7955C14.6061 11.8333 14.3712 11.8712 14.1364 11.9015C13.9015 11.9546 13.6894 12.0379 13.4848 12.1591C13.0076 12.3333 12.6742 12.6364 12.4773 13.0833C12.2803 13.5303 12.1818 14.0303 12.1818 14.5985C12.7803 14.2727 13.3106 13.8788 13.7727 13.4167C14.3182 12.8712 14.6742 12.3333 14.8485 11.7955Z" fill="white"/>
</svg>
