<svg width="24" height="24" viewBox="0 0 24 24" fill="none" xmlns="http://www.w3.org/2000/svg">
<path fill-rule="evenodd" clip-rule="evenodd" d="M21.9714 10.8232C21.9886 11.0175 22 11.2174 22 11.4173C22 12.04 21.9029 12.6398 21.7144 13.2225C21.4744 13.8452 21.2688 14.2965 21.1088 14.5764C20.8289 15.0563 20.4861 15.4219 20.0863 15.6847C19.4122 15.8618 18.7781 15.9989 18.1839 16.1017C17.5898 16.2045 17.0014 16.2502 16.4302 16.2559C17.0243 16.1303 17.5556 15.9932 18.0297 15.8332C18.6238 15.6333 19.1551 15.3876 19.6293 15.1077C20.172 14.7878 20.6118 14.4222 20.9432 14.0109C21.3316 13.5424 21.5773 13.0112 21.6915 12.4342C21.7087 12.3542 21.7258 12.2685 21.7315 12.1714C21.7372 12.08 21.7429 11.9772 21.7429 11.8629C21.7429 11.5145 21.6858 11.1774 21.5773 10.8404C21.4687 10.509 21.3145 10.1891 21.1145 9.88063C21.086 10.0863 21.0574 10.5433 21.0174 11.2688C20.9774 11.9943 20.8803 12.4856 20.7204 12.7427C20.7204 12.0743 20.7204 11.5316 20.7375 11.1145C20.7489 10.6975 20.7775 10.2862 20.8289 9.88063C20.8803 9.47503 20.9774 9.06374 21.1145 8.64671C21.3545 8.92092 21.5487 9.24651 21.6915 9.61783C21.8343 9.98916 21.9314 10.3948 21.9771 10.8232H21.9714ZM15.9903 9.00089L15.8646 9.22938C15.4533 9.38362 14.9734 9.57215 14.425 9.77781C13.6995 10.052 13.2197 10.2348 12.9854 10.3262C12.5056 10.509 12.0314 10.7032 11.563 10.9032C11.5801 10.8175 11.6372 10.7318 11.7286 10.6461C11.7915 10.589 11.8772 10.5319 11.9743 10.4805L15.996 9.00089H15.9903ZM19.8178 11.7487C19.5093 11.9258 19.0923 12.0457 18.5724 12.1029C18.2811 12.1371 17.8412 12.1771 17.2585 12.2228C17.6984 11.9372 18.0754 11.6173 18.3953 11.2574C18.7609 10.8518 19.0123 10.4347 19.1437 10.012C19.2465 9.76065 19.2979 9.49789 19.2979 9.20654C19.2979 8.9609 19.2579 8.70384 19.1779 8.43535C19.098 8.16114 19.0066 7.93261 18.8923 7.73267C18.6524 8.00116 18.4467 8.36677 18.2754 8.8352C18.1497 9.2408 18.024 9.6464 17.904 10.0463C17.9212 10.0063 18.024 9.78351 18.2011 9.37791C18.3211 9.10371 18.4296 8.89235 18.5324 8.74954C18.6352 8.92091 18.7095 9.09228 18.7552 9.26937C18.7952 9.44646 18.8181 9.64071 18.8181 9.85779C18.8181 10.012 18.8066 10.172 18.7895 10.3262C18.3268 10.7433 17.8583 11.1603 17.3956 11.5716C17.1442 11.8001 16.9614 12.0286 16.8358 12.2514C16.6929 12.5142 16.6187 12.7998 16.6187 13.114C16.8872 13.034 17.0928 12.9883 17.2414 12.9655C17.3899 12.9483 17.7955 12.9083 18.4639 12.8455C17.8469 13.3254 17.3099 13.7081 16.8529 13.9937C16.2702 14.3594 15.7047 14.6564 15.1448 14.8792C14.7335 15.0449 14.3222 15.1705 13.9109 15.2562C13.4996 15.3419 13.0825 15.3876 12.6655 15.3876C12.2142 15.3876 11.7572 15.3362 11.3002 15.2334C10.609 15.0791 10.112 14.7021 9.8092 14.108C9.57498 13.6453 9.45501 13.0226 9.45501 12.2457C9.45501 11.9772 9.46644 11.5602 9.48358 11.0003C9.50071 10.4405 9.51214 10.0177 9.51214 9.74353C9.51214 9.45219 9.50071 9.17225 9.48358 8.90947C9.46644 8.64669 9.43216 8.41248 9.39789 8.20111C9.30077 8.29251 9.23222 8.37821 9.18652 8.45818C9.14653 8.53816 9.07227 8.72096 8.96373 9.01801C9.00371 9.25794 9.02656 9.49788 9.03799 9.73209C9.05513 9.96631 9.06084 10.2348 9.06084 10.549V12.1486C9.06084 13.3711 9.21508 14.2794 9.52356 14.8678C9.78063 15.3591 10.1634 15.7475 10.6832 16.0389C10.9689 16.1246 11.2374 16.1817 11.483 16.216C11.7286 16.2503 11.9914 16.2674 12.2714 16.2674C12.6655 16.2674 13.0426 16.2331 13.4025 16.1645C13.7681 16.096 14.1394 15.9932 14.5164 15.8561C15.0877 15.6561 15.6647 15.3819 16.2531 15.0392C16.7386 14.7593 17.2699 14.3993 17.8526 13.9709C18.2468 13.6453 18.641 13.3139 19.0408 12.9769C19.5093 12.577 19.7721 12.1714 19.8178 11.7601V11.7487ZM14.8363 11.463C14.7906 11.6059 14.7564 11.6916 14.7278 11.7201L14.4022 11.5659C14.345 11.6744 14.2651 11.9029 14.168 12.24C14.0708 12.5827 13.9566 12.8169 13.8366 12.954C13.8081 12.9198 13.7395 12.7084 13.631 12.3142C13.5567 12.0514 13.3967 11.9201 13.1511 11.9201C13.0883 11.8858 13.054 11.8401 13.054 11.7715C13.054 11.7372 13.0597 11.6972 13.0768 11.6515C13.094 11.6058 13.1168 11.543 13.1397 11.463C13.1682 11.3831 13.2368 11.3431 13.3568 11.3431C13.391 11.3431 13.4196 11.3545 13.4539 11.3716C13.5624 11.5202 13.6595 11.6801 13.7338 11.8515C13.8081 12.0229 13.8709 12.2114 13.9166 12.4228C13.928 12.4056 14.0023 12.1771 14.1451 11.7487C14.2479 11.4288 14.3679 11.2688 14.5107 11.2688C14.6078 11.2688 14.7221 11.3316 14.842 11.4573L14.8363 11.463ZM11.1402 9.83492C11.1231 9.9149 11.0888 9.98345 11.0546 10.052C10.9974 10.1434 10.9517 10.2063 10.9289 10.2462C11.0031 10.1091 11.0374 9.94349 11.0374 9.75497C11.0374 9.57788 11.0031 9.36649 10.9403 9.12655C10.9117 9.02373 10.8546 8.83522 10.7632 8.56673C10.8146 8.54959 10.8546 8.53817 10.8832 8.53817C10.9117 8.53817 10.9403 8.54959 10.9803 8.56673C11.0431 8.67527 11.1003 8.81235 11.1345 8.9723C11.1745 9.13226 11.1917 9.28653 11.1917 9.42934C11.1917 9.54931 11.1745 9.68067 11.1402 9.8292V9.83492ZM7.77549 9.13799C7.76407 9.28081 7.7355 9.4179 7.6898 9.555C7.64981 9.6864 7.59269 9.82921 7.51842 9.98345H7.2842C7.15853 9.98345 7.03856 9.98345 6.91859 9.98345C6.79863 9.98345 6.67295 10.0063 6.52442 10.0349C6.513 9.89207 6.53585 9.74353 6.6044 9.595C6.66724 9.44647 6.75864 9.30366 6.87861 9.17227C6.95858 9.17227 7.07284 9.16085 7.22137 9.14371C7.36989 9.12657 7.48415 9.11512 7.5527 9.11512C7.60411 9.11512 7.67838 9.12085 7.76978 9.13227L7.77549 9.13799ZM5.22194 9.30365C5.2048 9.41219 5.16481 9.5493 5.10768 9.70354C5.05056 9.85778 4.99343 10.0063 4.92488 10.1491L3.74807 10.2462C3.76521 10.0634 3.8052 9.89778 3.86232 9.75497C3.91945 9.61215 4.00514 9.49218 4.11939 9.38935C4.21651 9.38935 4.33648 9.37793 4.47358 9.36079C4.79349 9.31509 4.98772 9.29224 5.06198 9.29224C5.13625 9.29224 5.18766 9.29222 5.21622 9.30365H5.22194ZM8.11825 12.697C8.11825 13.0226 8.10683 13.314 8.08398 13.5767C8.06113 13.8338 8.00971 14.0909 7.92402 14.3422C7.83833 14.5936 7.71837 14.8107 7.56984 14.9935C7.39275 15.1991 7.17566 15.3533 6.91288 15.4447C6.83862 15.4676 6.77007 15.4847 6.6958 15.4847C6.55299 15.4847 6.38732 15.4276 6.20451 15.3191C6.07883 15.2334 5.98743 15.1705 5.93031 15.1306C5.80463 15.0677 5.69037 14.8792 5.57612 14.5764C5.46758 14.2737 5.33619 14.1194 5.19337 14.1194C5.13053 14.1194 5.05056 14.1366 4.95915 14.1766C4.74779 14.3194 4.54784 14.725 4.35361 15.3934C4.18795 15.9475 3.91374 16.2274 3.51957 16.2274C3.43959 16.2274 3.38246 16.2274 3.34247 16.216C2.95401 16.0389 2.64553 15.8046 2.41131 15.5076C2.1371 15.1648 2 14.7992 2 14.3993C2 14.028 2.07426 13.6796 2.22279 13.3597C2.37132 13.0397 2.58269 12.7427 2.85119 12.4742C3.0854 12.2457 3.37675 12.0229 3.7138 11.8058C3.97658 11.6401 4.29077 11.463 4.65638 11.2745C4.82776 10.9889 4.99914 10.6975 5.17624 10.4005C5.17624 10.629 5.09626 10.8575 4.94202 11.086C4.81063 11.2745 4.62782 11.4745 4.3936 11.6744C4.26221 11.7944 4.09654 11.9258 3.90231 12.0686C3.34819 12.4799 3.06255 12.6913 3.05113 12.7084C2.81691 12.8855 2.63982 13.0512 2.51985 13.2111C2.37704 13.3939 2.29706 13.5824 2.27421 13.7824C2.24564 13.9823 2.30848 14.1994 2.4513 14.4279C2.59412 14.6564 2.83976 14.9078 3.18823 15.182C3.3082 15.2334 3.42816 15.2619 3.55955 15.2619C3.63953 15.2619 3.7138 15.2505 3.78235 15.2334C3.96515 15.0963 4.19937 14.685 4.47929 14.0052C4.70209 13.4625 5.02771 13.1882 5.46187 13.1882C5.59897 13.451 5.73608 13.7081 5.87318 13.9652C6.06741 14.2622 6.30163 14.4393 6.57012 14.5022C6.79863 14.5193 7.02142 14.4622 7.2385 14.3137C7.40988 14.2051 7.58126 14.0395 7.74693 13.8224C7.79834 13.7652 7.82691 13.691 7.82691 13.6053C7.82691 13.5539 7.82119 13.5025 7.80406 13.451C7.78692 13.3996 7.75835 13.3368 7.71837 13.2625C7.67838 13.3425 7.6441 13.4168 7.60983 13.4967C7.5527 13.5939 7.47843 13.651 7.38132 13.6624C7.26135 13.6795 7.15853 13.6624 7.07284 13.6053C6.98715 13.5482 6.90717 13.4567 6.84433 13.3425C6.84433 12.9826 6.87861 12.6741 6.94716 12.4228C7.01571 12.1657 7.16424 11.9543 7.38132 11.7772C7.58698 11.8115 7.75264 11.9201 7.88403 12.1086C7.97544 12.2514 8.05541 12.4456 8.11825 12.6855V12.697Z" fill="white"/>
</svg>
