<svg width="24" height="24" viewBox="0 0 24 24" fill="none" xmlns="http://www.w3.org/2000/svg">
<path fill-rule="evenodd" clip-rule="evenodd" d="M21.9793 10.7009C21.9793 11.3556 21.938 11.9621 21.8622 12.5204C21.7864 13.0786 21.6416 13.5955 21.4349 14.0572C21.1661 14.7188 20.7319 15.2219 20.1323 15.5596C19.643 15.8353 19.0159 16.0145 18.2509 16.1041C17.8236 16.1523 17.1482 16.173 16.2178 16.173C17.2447 15.856 18.0028 15.5941 18.4921 15.3942C19.3742 15.0152 20.0634 14.5879 20.5665 14.1193C21.1868 13.5266 21.5727 12.8167 21.7174 11.9897C21.7174 11.4246 21.6485 10.9008 21.5107 10.4321C21.3728 9.9635 21.1523 9.52931 20.8422 9.13648C20.8284 9.22608 20.8146 9.35013 20.8146 9.51553C20.8146 9.68093 20.8146 9.81877 20.8146 9.91526C20.8146 10.1496 20.8146 10.3908 20.8284 10.6389C20.8353 10.8801 20.8422 11.1213 20.8491 11.3625C20.8491 11.6451 20.8422 11.8725 20.8215 12.0448C20.8008 12.2171 20.7595 12.4032 20.6975 12.6168C20.6285 11.9277 20.5803 11.3694 20.5527 10.9421C20.5252 10.5148 20.5114 10.1289 20.5114 9.7912C20.5114 9.35702 20.5252 8.97797 20.5527 8.65406C20.5803 8.33014 20.6285 7.99244 20.6975 7.63407C21.0834 8.02001 21.3866 8.47487 21.6003 8.99865C21.8139 9.52242 21.9449 10.0876 22 10.694L21.9793 10.7009ZM15.5975 7.99934L15.4459 8.30947C14.7016 8.67473 14.1296 8.94351 13.7161 9.1227C13.3784 9.26743 13.0131 9.40526 12.6272 9.54999C12.6272 9.41905 12.6892 9.30878 12.8063 9.23297C12.8408 9.21229 12.9442 9.15716 13.1165 9.08824C13.2957 9.01243 13.6058 8.87459 14.0606 8.66784C14.7223 8.3646 15.2391 8.14406 15.5975 8.00623V7.99934ZM19.0641 11.9139C18.9056 12.1689 18.7195 12.3756 18.499 12.5341C18.2853 12.6927 18.0441 12.7754 17.796 12.7754C17.7202 12.7754 17.6513 12.7754 17.6099 12.7616C17.4307 12.6927 17.3411 12.5824 17.3411 12.4308C17.3411 12.3825 17.3687 12.2723 17.4307 12.0931C17.4928 11.9139 17.5203 11.7829 17.5203 11.6864C17.5203 11.5969 17.5065 11.5279 17.4721 11.459H17.224C16.9001 11.6589 16.4314 12.0035 15.8181 12.5066C15.1427 13.0579 14.674 13.4232 14.419 13.5886C13.8884 13.9401 13.3784 14.1744 12.8822 14.3053C12.3928 14.4018 12.0207 14.4638 11.7588 14.4914C11.4969 14.519 11.2488 14.5328 11.0145 14.5328C10.5389 14.5328 10.0979 14.4638 9.69814 14.3329C9.29152 14.202 8.93315 13.9745 8.62991 13.6713C8.32667 13.0855 8.10613 12.3894 7.9683 11.5762C7.89938 11.1489 7.82357 10.4115 7.74087 9.35702C7.65817 8.30257 7.57547 7.53069 7.48587 7.03448C7.41006 7.11029 7.34114 7.23435 7.29979 7.39286C7.25155 7.55137 7.20331 7.73056 7.15507 7.93042L7.76154 13.4094L7.56168 14.0159C7.43763 14.1882 7.34804 14.3053 7.2929 14.3605C7.16885 14.4776 7.0448 14.5397 6.92764 14.5397C6.85183 14.5397 6.77602 14.519 6.71399 14.4776C6.34873 14.3122 6.1213 13.9952 6.01792 13.5335C5.96278 13.2716 5.88008 12.8856 5.76981 12.3618C5.694 12.3825 5.61819 12.4445 5.55617 12.541C5.52171 12.5893 5.47347 12.6651 5.40455 12.7754C5.34252 13.1889 5.19779 13.5679 4.97037 13.9125C4.74294 14.2571 4.46037 14.5741 4.12267 14.8498C3.86079 15.0634 3.60579 15.2495 3.35079 15.408C3.01999 15.6079 2.57202 15.8353 2 16.0972H2.54445C2.63405 16.0972 2.74431 16.0972 2.89593 16.0972C3.04066 16.0972 3.14404 16.111 3.19917 16.1179C3.25431 16.1317 3.32323 16.1385 3.41282 16.1385C4.00551 16.1385 4.49483 15.8146 4.88077 15.1668C5.14266 14.6155 5.40455 14.0641 5.67333 13.5128C5.74225 13.878 5.81806 14.2364 5.90076 14.6017C5.96278 14.8291 6.05927 15.0221 6.19711 15.1806C6.31427 15.3391 6.4521 15.4563 6.59683 15.5321C6.74845 15.6079 6.91385 15.6354 7.09304 15.6079C7.38939 15.4976 7.60992 15.2633 7.74087 14.9118C7.75465 14.8567 7.83046 14.5397 7.95451 13.9676C8.08546 14.2847 8.24397 14.5465 8.41627 14.7602C8.62991 15.0221 8.87802 15.2082 9.16747 15.3253C9.45693 15.4425 9.75327 15.5252 10.0565 15.5803C10.3598 15.6354 10.663 15.663 10.9731 15.663C11.3522 15.663 11.7381 15.6148 12.1241 15.5252C12.5169 15.4356 12.8959 15.3115 13.275 15.153C13.8815 14.8911 14.4948 14.5397 15.1082 14.0848C15.6527 13.692 16.204 13.2233 16.7553 12.6789C16.8656 12.6237 16.9621 12.5962 17.0379 12.5962C17.1688 12.5962 17.2378 12.7822 17.2378 13.1475C17.2378 13.5128 17.3274 13.7264 17.5065 13.7953C17.6513 13.8367 17.7684 13.8574 17.8718 13.8574C18.0855 13.8574 18.2922 13.7953 18.4921 13.6782C18.6919 13.561 18.8711 13.4094 19.0159 13.2164C19.3053 12.4308 19.4569 11.59 19.4569 10.694C19.4569 9.99796 19.3673 9.32256 19.1813 8.66784C18.9952 8.01312 18.7264 7.4411 18.368 6.95178C18.1957 7.76501 18.1061 8.66095 18.1061 9.6258C18.1061 10.3357 18.1475 11.0179 18.2371 11.6727V10.8112C18.2371 10.4252 18.244 9.95661 18.2578 9.40526C18.2715 8.85392 18.2991 8.42663 18.3267 8.1096C18.7264 9.01932 18.9331 9.48107 18.94 9.49486C19.1468 10.0393 19.2502 10.5355 19.2502 10.9766C19.2502 11.3281 19.1881 11.6451 19.071 11.9346L19.0641 11.9139ZM14.9704 16.173L14.3915 17.0483C14.3294 16.9725 14.1778 16.8829 13.9366 16.7864C13.6954 16.6899 13.5782 16.5796 13.5782 16.4556C13.6816 16.2695 13.7574 16.1248 13.8057 16.0421C13.9021 15.8767 14.0055 15.7526 14.1227 15.6768C14.2743 15.7319 14.4259 15.794 14.5775 15.8629C14.7292 15.9318 14.8601 16.0352 14.9773 16.173H14.9704ZM4.5224 8.24744L4.4397 8.55757C4.39145 8.56446 4.32943 8.55757 4.25362 8.51622C4.17781 8.48176 4.13646 8.46109 4.11578 8.46109C4.06065 8.46109 4.0193 8.50244 3.99862 8.57825C4.0193 8.73676 4.03308 8.88838 4.03308 9.04C4.03308 9.43283 3.96416 9.77053 3.81944 10.0462C3.75052 9.90147 3.65403 9.74296 3.53687 9.57067C3.48863 9.50175 3.38525 9.35013 3.21985 9.12959C3.19917 9.17094 3.14404 9.19162 3.06823 9.19162C2.99242 9.19162 2.91661 9.17783 2.85458 9.14337C2.75121 9.10892 2.70296 9.04 2.70296 8.92973C2.70296 8.87459 2.70986 8.79878 2.73053 8.7023C2.75121 8.60581 2.7581 8.55757 2.7581 8.55068C2.81323 8.48176 2.85458 8.42663 2.87526 8.39906C3.06134 8.48865 3.24742 8.65406 3.43349 8.89527C3.56444 9.09513 3.70227 9.2881 3.847 9.48796C3.847 9.07446 3.85389 8.785 3.87457 8.59892C3.89524 8.41974 3.96416 8.24055 4.09511 8.06825C4.24673 8.06825 4.38456 8.13028 4.5224 8.24744Z" fill="white"/>
</svg>
