<svg width="24" height="24" viewBox="0 0 24 24" fill="none" xmlns="http://www.w3.org/2000/svg">
<path fill-rule="evenodd" clip-rule="evenodd" d="M21.102 11.5748C21.102 11.8333 20.8639 11.9966 20.3946 12.0646C19.9184 12.1326 19.6871 12.2687 19.6871 12.4728C19.6871 12.5816 19.7279 12.7108 19.8027 12.8673C19.8027 12.9626 19.8367 13.1122 19.898 13.3095C19.9592 13.5068 19.9932 13.6496 19.9932 13.7517C19.9932 13.8741 19.966 13.9762 19.9116 14.0646C19.7483 13.6972 19.6327 13.3979 19.5714 13.1462C19.5034 12.9013 19.4762 12.6836 19.4762 12.4932C19.4762 12.2959 19.517 12.0918 19.6054 11.8809C19.6735 11.8265 19.7823 11.7585 19.9456 11.6836C20.1088 11.602 20.2245 11.5476 20.2857 11.5C20.2109 11.4591 20.1293 11.4591 20.0408 11.5068C19.9524 11.5612 19.8708 11.602 19.7959 11.6428C19.8299 11.4591 19.8707 11.3163 19.9252 11.2279C19.9796 11.1326 20.0816 11.0646 20.2381 11.0102C20.3605 10.9966 20.4762 11.0306 20.5986 11.0986C20.7211 11.1666 20.8844 11.3299 21.102 11.5816V11.5748ZM22 6.82649C21.8776 6.81289 21.6871 6.8401 21.4218 6.90813C21.1565 6.97615 20.9524 6.99656 20.8095 6.97616C20.551 6.97616 20.3537 7.13942 20.2245 7.46595C20.1565 7.64282 20.068 7.90813 19.9456 8.26867C19.551 8.3435 19.2109 8.47275 18.9184 8.66323C18.6259 8.8469 18.3401 9.0918 18.068 9.39792C17.7959 9.70404 17.5646 10.0442 17.3673 10.4251C17.1701 10.8061 17.0068 11.2074 16.8776 11.636C16.4218 12.3095 15.7687 12.8469 14.9184 13.2551C14.5238 13.4387 13.7551 13.7108 12.5986 14.0714C13.3197 14.0714 13.9728 14.0374 14.5714 13.9762C15.1701 13.9081 15.6871 13.7789 16.1156 13.5748C16.5442 13.3707 16.8776 13.0306 17.102 12.5408C17.1156 12.5068 17.2653 12.0714 17.5578 11.2347C17.6871 10.8741 17.9116 10.5748 18.2245 10.3367C18.4422 10.1734 18.7687 9.99656 19.2041 9.79928C19.4626 9.69044 19.7347 9.57479 20.0068 9.45915C20.551 9.22105 20.9592 8.98296 21.2313 8.75847C21.5034 8.50677 21.7007 8.22105 21.8163 7.89452C21.9388 7.56799 21.9932 7.22105 21.9932 6.8469L22 6.82649ZM12.1088 6.48636C11.9592 6.67003 11.7959 6.81289 11.619 6.90813C11.4422 7.00336 11.2177 7.0918 10.932 7.16663C10.7143 7.24146 10.4966 7.32309 10.2721 7.41153C10.0476 7.49996 9.85714 7.60881 9.69388 7.73806C9.78231 7.54078 9.91157 7.38432 10.0884 7.26187C10.2653 7.13942 10.483 7.03058 10.7415 6.93534C11.1429 6.81289 11.4354 6.73126 11.6122 6.67683C11.7891 6.62241 11.9592 6.55438 12.1088 6.47955V6.48636ZM16.1088 5.79248C16.2925 6.13262 16.3878 6.49316 16.3878 6.87411C16.3878 7.14622 16.3401 7.43874 16.2381 7.75847C16.2041 7.86731 16.0068 8.3435 15.6531 9.19384C15.1973 9.86051 14.6803 10.4455 14.102 10.9694C13.5238 11.4864 12.9048 11.9149 12.2381 12.2483C11.1701 12.7925 10.0476 13.0646 8.87755 13.0646C8.57143 13.0646 8.21769 13.0374 7.81633 12.983L6.47619 12.4796C6.47619 12.8061 6.46258 13.0782 6.43537 13.2959C6.40816 13.5136 6.31973 13.983 6.16327 14.6972C5.7415 14.5884 5.34014 14.3503 4.96599 13.9898C4.59184 13.6224 4.36735 13.2211 4.28571 12.7721C3.88435 12.7721 3.48299 12.8945 3.09524 13.1394C2.70748 13.3843 2.42857 13.7108 2.26531 14.1122C2.26531 14.4115 2.33333 14.7245 2.47619 15.0374C2.61905 15.3503 2.92517 15.7721 3.38776 16.2891C3.89796 16.8061 4.27891 17.2006 4.52381 17.4728C4.76871 17.7449 4.95918 17.9898 5.08844 18.2074C4.38095 17.6224 3.98639 17.2891 3.89796 17.2143C3.44218 16.8129 3.08163 16.4387 2.80952 16.0918C2.54422 15.7449 2.34014 15.4115 2.20408 15.0782C2.06803 14.7517 2 14.3843 2 13.983C2 13.8197 2 13.6904 2.01361 13.5952C2.02721 13.5 2.05442 13.3503 2.10884 13.1598C2.23129 12.704 2.4966 12.3163 2.91156 11.9966C3.32653 11.6768 3.78231 11.466 4.28571 11.3571C4.37415 11.1326 4.5034 11.017 4.68027 11.017C4.80952 11.017 5.02041 11.0986 5.29932 11.2619C5.58503 11.4251 5.78231 11.5068 5.90476 11.5068C6.7551 11.7245 7.59184 11.8333 8.42177 11.8333C9.38095 11.8333 10.3061 11.6972 11.1973 11.4183C12.0884 11.1394 12.9048 10.7517 13.6395 10.2483C14.3742 9.74486 15.0272 9.11901 15.5918 8.37071C15.7211 8.18704 15.7891 7.97615 15.7891 7.73126C15.7891 7.53398 15.7483 7.37752 15.6599 7.25507L15.4286 7.3367C15.4286 7.02377 15.4898 6.71085 15.6054 6.40473C15.7279 6.0986 15.8912 5.90132 16.1088 5.79928V5.79248ZM11.4694 14.6292C11.3401 14.6292 10.9048 14.67 10.1633 14.7449C9.85034 14.7789 9.58503 14.7925 9.38095 14.7925C9.2381 14.983 9.12925 15.1802 9.05442 15.3911C9.02041 15.4796 8.95918 15.6904 8.87755 16.0374H9.12245C9.27211 16.0374 9.65986 15.9898 10.2789 15.8877C10.551 15.8469 10.7823 15.8197 10.9796 15.8197L11.4694 14.6292Z" fill="white"/>
</svg>
