<svg width="24" height="24" viewBox="0 0 24 24" fill="none" xmlns="http://www.w3.org/2000/svg">
<path fill-rule="evenodd" clip-rule="evenodd" d="M17.588 8.99C17.5415 9.25578 17.515 9.39532 17.5083 9.41526C17.4618 9.55479 17.3953 9.68767 17.2957 9.81391C17.2226 9.78069 17.1561 9.74084 17.0831 9.70762C17.01 9.6744 16.9435 9.65445 16.8704 9.65445C16.7841 9.65445 16.7043 9.68768 16.6445 9.76077C16.4651 9.94017 16.3123 10.1129 16.186 10.279C16.0598 10.4451 15.9468 10.6379 15.8605 10.8505C15.9336 10.4186 16.0731 10.0199 16.2857 9.65445C16.5316 9.23585 16.8439 8.9302 17.2159 8.72422C17.289 8.72422 17.3555 8.75079 17.4219 8.7973C17.4884 8.84381 17.5415 8.91026 17.588 8.99ZM15.4219 6.98336C15.4419 7.03652 15.4551 7.0963 15.4618 7.15611C15.4684 7.21591 15.4751 7.27571 15.4751 7.32887C15.4751 7.57472 15.3621 7.84714 15.1296 8.1395C14.9967 8.29897 14.8704 8.45844 14.7442 8.61791L13.8937 9.24249L13.8405 9.18935C14.1661 8.91692 14.4053 8.7043 14.5581 8.56476C14.8439 8.30562 15.0166 8.05312 15.0897 7.80728C15.0631 7.7807 14.99 7.74083 14.8638 7.68103C14.7375 7.62123 14.6645 7.55478 14.6379 7.47505C14.6379 7.32223 14.6777 7.18934 14.7575 7.06309C14.8372 6.93685 14.9502 6.8239 15.0897 6.71758C15.1495 6.71094 15.2159 6.73086 15.2824 6.79066C15.3488 6.85047 15.3953 6.91027 15.4219 6.98336ZM15.9269 9.29564C15.9269 9.29564 15.9269 9.22256 15.9468 9.16276C15.9601 9.10296 15.9668 9.04315 15.9668 8.99C15.9668 8.85711 15.9336 8.77073 15.8605 8.72422C15.8272 8.7508 15.8007 8.82389 15.794 8.95013C15.7874 9.07638 15.7475 9.14282 15.6744 9.14946C15.6146 9.08966 15.5748 9.00993 15.5548 8.92355V8.67107C15.4153 8.77739 15.3555 8.95014 15.3821 9.18935C15.3223 9.26908 15.2691 9.31559 15.2359 9.33553C15.2027 9.35546 15.1229 9.38204 15.01 9.41526C14.9502 9.38868 14.9169 9.32223 14.9169 9.22256C14.9169 9.12289 14.897 9.0631 14.8638 9.04317C14.804 9.10297 14.7708 9.20927 14.7708 9.36209V9.65445C14.8239 9.74083 14.8837 9.78735 14.9568 9.78735C15.0897 9.71426 15.2159 9.65445 15.3289 9.59465C15.4419 9.53485 15.5415 9.52822 15.6213 9.56144C15.6744 9.56144 15.7209 9.54149 15.7674 9.50827C15.814 9.47505 15.8671 9.40195 15.9269 9.29564ZM22 12.0465C22 11.5614 21.9136 11.0764 21.7409 10.598C21.5681 10.1196 21.3355 9.68767 21.0432 9.29564C20.8571 9.92687 20.7442 10.5448 20.7043 11.1561C20.6645 11.7674 20.6445 12.598 20.6445 13.6545C20.7973 13.3156 20.8837 12.7707 20.9169 12.0199C20.9502 11.2691 20.99 10.7774 21.0432 10.5581C21.3422 11.0897 21.5548 11.5747 21.6678 12.0066C21.7475 12.3056 21.7874 12.6179 21.7874 12.9368C21.7874 13.1561 21.7674 13.3554 21.7342 13.5348C21.608 14.1196 21.3422 14.6578 20.9236 15.1428C20.5781 15.5481 20.1196 15.9269 19.5548 16.2724C19.0498 16.5714 18.4983 16.8239 17.907 17.0166C17.4219 17.1761 16.8505 17.3156 16.206 17.4285C16.2126 17.4285 16.4186 17.4285 16.8173 17.4485C17.2159 17.4618 17.5415 17.4684 17.8007 17.4684C17.8339 17.4684 17.9668 17.4684 18.186 17.4551C18.4053 17.4418 18.5914 17.4285 18.7442 17.402C19.3754 17.402 19.9601 17.1362 20.4983 16.6046C20.9169 16.1993 21.2757 15.6611 21.588 14.9966C21.7542 14.5648 21.8671 14.1196 21.9203 13.6744C21.9734 13.2292 22 12.6844 22 12.0465ZM19.4086 10.3322C19.3621 9.99333 19.2425 9.4817 19.0365 8.79067C18.9369 8.4518 18.8571 8.14615 18.7841 7.87372C18.4452 8.34549 18.206 9.1694 18.0532 10.3588C17.9535 11.1096 17.8738 11.6212 17.8007 11.887C18.0332 10.9501 18.2591 10.0066 18.4917 9.06973C18.5781 9.38867 18.6645 9.70097 18.7508 10.0133C18.8372 10.3256 18.9103 10.6511 18.9834 10.9967C19.0033 11.1229 19.01 11.2159 19.01 11.2757C19.01 11.6212 18.8771 11.9468 18.6113 12.2591C18.4851 12.4119 18.3189 12.578 18.1063 12.7641C17.9934 12.8637 17.8206 13.0099 17.588 13.2026C17.5415 13.1495 17.5216 13.083 17.5216 13.0033V12.7375C17.4219 12.9036 17.3289 13.0764 17.2425 13.2425C17.1096 13.4551 16.9568 13.5681 16.7907 13.588L16.804 12.99C16.7243 13.0232 16.6777 13.0897 16.6578 13.1761C16.6379 13.2624 16.6246 13.3355 16.6179 13.3887C16.3721 13.8073 16.0133 14.0332 15.5548 14.0797C15.5017 13.9535 15.4751 13.7807 15.4751 13.5614C15.4751 13.5083 15.4817 13.3754 15.5017 13.1628C15.5216 12.9501 15.5349 12.7707 15.5548 12.6179C15.3488 12.6711 15.0963 12.8106 14.7841 13.0432C14.1528 13.5216 13.7409 13.794 13.5482 13.8538C13.4086 13.6345 13.2824 13.475 13.1761 13.3887C13.01 13.2358 12.8239 13.1628 12.6312 13.1628C12.4186 13.3289 12.2658 13.5614 12.1794 13.8538C12.1462 13.9667 12.093 14.2458 12.0332 14.6777C12.1063 14.804 12.1993 14.8903 12.3189 14.9369C12.4385 14.9834 12.5847 15.0099 12.7508 15.0099C12.8239 15.0099 12.8837 15.0099 12.9435 15.0099C13.0033 15.0099 13.0698 14.9966 13.1495 14.9767C12.7973 15.6412 12.2326 16.206 11.4618 16.6644C10.99 16.9501 10.2857 17.2691 9.33555 17.6345C9.42193 17.6279 9.701 17.6013 10.1728 17.5681C10.6445 17.5349 10.99 17.4817 11.2226 17.4086C11.8073 17.3289 12.3189 17.0033 12.7508 16.4385C13.103 15.98 13.3555 15.4285 13.495 14.7907C13.6877 14.7176 13.9668 14.5249 14.3189 14.2126C14.6711 13.9003 14.9701 13.7076 15.2093 13.6478C15.2159 13.681 15.2226 13.7342 15.2226 13.8073C15.2226 13.9069 15.2093 14.0531 15.1827 14.2458C15.1561 14.4385 15.1429 14.5847 15.1429 14.6711C15.1429 14.7707 15.1429 14.8372 15.1561 14.8837C15.2027 14.9966 15.2957 15.0564 15.4352 15.0564C15.5083 15.0564 15.588 15.0498 15.6744 15.0299C15.9468 15.0033 16.1728 14.8903 16.3522 14.6844C16.4319 14.6777 16.5316 14.6578 16.6578 14.6312C16.7841 14.6046 16.897 14.5448 17.0033 14.4451C17.8007 14.0531 18.4186 13.4883 18.8505 12.7441C19.0565 12.392 19.196 12.0199 19.2824 11.6279C19.3688 11.2358 19.4086 10.8106 19.4086 10.3388V10.3322ZM11.6346 8.95013C11.5748 9.10296 11.4817 9.22921 11.3555 9.33553C11.2957 9.38868 11.2027 9.44847 11.0897 9.50827C10.8571 9.64781 10.6312 9.79399 10.3987 9.93353C10.4186 9.80064 10.4651 9.68768 10.5449 9.6013C10.6246 9.51492 10.7375 9.42854 10.8904 9.34881C11.1362 9.21592 11.3887 9.08302 11.6346 8.95013ZM17.8007 15.3422C17.8007 15.4817 17.7542 15.6279 17.6611 15.7807C17.5681 15.9335 17.4485 16.0398 17.2957 16.0996C17.2093 16.0797 17.0565 16.1395 16.8439 16.2724C16.7309 16.3455 16.6379 16.3787 16.5781 16.3787C16.4718 16.3787 16.3787 16.3189 16.299 16.206C16.113 16.3322 15.907 16.4917 15.6877 16.6844C15.3621 16.9767 15.1628 17.1495 15.0897 17.2026C14.8571 17.3953 14.6312 17.5482 14.412 17.6611C14.1927 17.7741 13.9601 17.8272 13.7209 17.8272C13.9668 17.7674 14.2326 17.6345 14.505 17.4418C14.6977 17.3023 14.9435 17.0963 15.2425 16.8239C15.5415 16.5515 15.7608 16.3588 15.9136 16.2458C16.1728 16.0531 16.392 15.9335 16.5781 15.887C16.6578 15.9601 16.7176 16 16.7641 16.0199C16.897 16.0398 16.99 15.9601 17.0365 15.794C17.0831 15.6279 17.1561 15.5282 17.2425 15.5016V15.794C17.3754 15.794 17.4817 15.7408 17.5615 15.6412C17.6412 15.5415 17.7209 15.4418 17.8007 15.3422ZM4.6711 6.63783C4.69767 6.76408 4.71096 6.87705 4.71096 6.98336C4.71096 7.18934 4.6711 7.39532 4.59136 7.60795C4.56478 7.68104 4.47176 7.87373 4.31229 8.19267C4.37209 8.02656 4.42525 7.86044 4.47176 7.70761C4.51827 7.55479 4.53821 7.39532 4.53821 7.23586C4.53821 7.10297 4.52492 6.99 4.49169 6.89698C4.45847 6.80396 4.40532 6.71757 4.32558 6.63783C4.2392 6.60461 4.19269 6.53817 4.19269 6.45179C4.19269 6.36541 4.23256 6.2724 4.31229 6.17273C4.39867 6.19266 4.47841 6.24583 4.53821 6.34549C4.59801 6.48503 4.64452 6.58468 4.6711 6.63783ZM11.1163 12.5648C11.1362 12.6246 11.1429 12.7109 11.1429 12.8172C11.1429 12.9036 11.1429 12.9966 11.1229 13.083C11.1096 13.1694 11.0698 13.3289 10.9967 13.5614C10.7508 13.6943 10.5382 13.887 10.3721 14.1328C10.2591 14.2923 10.1262 14.5382 9.97342 14.8771C9.71429 15.4684 9.56811 15.8006 9.53488 15.8737C9.42857 16.0531 9.28904 16.2259 9.10964 16.4053C8.71096 16.9966 8.01993 17.3355 7.03654 17.4152C6.53821 17.4418 6.04651 17.4684 5.56146 17.495C6.08638 17.382 6.59801 17.1827 7.10963 16.897C7.62126 16.6113 8.08638 16.2724 8.51827 15.8671C8.95017 15.4618 9.32226 15.0166 9.64784 14.5182C9.97342 14.0199 10.2326 13.5149 10.4252 12.99C10.4718 12.8638 10.5581 12.7641 10.691 12.6843C10.8239 12.6046 10.9635 12.5648 11.1163 12.5648ZM7.99336 10.186C7.90698 10.0465 7.76744 9.97339 7.5814 9.97339C7.48173 9.97339 7.40199 9.99332 7.34219 10.0265C6.97674 10.1661 6.63787 10.3654 6.31894 10.6245C6 10.8837 5.72093 11.1694 5.48173 11.4883C4.97674 12.1462 4.72425 12.8837 4.72425 13.7076C4.78405 13.9667 5.01661 14.1329 5.40864 14.2059C5.80066 14.279 6.04651 14.3787 6.14618 14.505C6.14618 14.897 6.01329 15.2624 5.75415 15.6146C5.49502 15.9667 5.16944 16.2192 4.7907 16.3787C4.73754 16.3853 4.66445 16.3986 4.56478 16.4119C4.46512 16.4252 4.37874 16.4319 4.299 16.4319C3.92691 16.4319 3.62126 16.3388 3.38206 16.1528C2.69103 15.5681 2.34551 14.9701 2.34551 14.3588C2.34551 14.3256 2.34551 14.2658 2.33223 14.186C2.33223 13.9202 2.37209 13.6611 2.45183 13.4086C2.53156 13.1561 2.65781 12.877 2.82392 12.578C2.95681 12.3322 3.13621 12.0332 3.35548 11.6877C3.48173 11.495 3.66777 11.2026 3.91362 10.8106C4.15947 10.4186 4.33887 10.1262 4.44518 9.92023C4.59801 9.62787 4.70432 9.34215 4.76412 9.06973C4.65781 9.36873 4.48505 9.71425 4.24585 10.093C4.07973 10.3654 3.85382 10.691 3.5814 11.0631C3.18272 11.6212 2.95017 11.9468 2.89037 12.0465C2.6711 12.392 2.49834 12.7242 2.37874 13.0365C2.25914 13.3488 2.16611 13.6677 2.09967 13.98C2.03322 14.2923 2 14.598 2 14.8903C2 15.2558 2.05316 15.588 2.15282 15.9003C2.25249 16.2126 2.4186 16.485 2.63787 16.7242C2.87708 16.9568 3.12292 17.1428 3.38206 17.2824C3.6412 17.4219 3.90033 17.495 4.16611 17.495C4.26578 17.495 4.33223 17.495 4.37209 17.4817C4.41196 17.475 4.49169 17.4551 4.61794 17.4285C4.95681 17.3422 5.24917 17.1561 5.50831 16.8704C5.71429 16.6511 5.89369 16.3588 6.05316 16.0066C6.1794 15.7142 6.27907 15.382 6.3588 15.0099C6.41196 14.7442 6.46512 14.3986 6.51827 13.9734C6.52492 13.9202 6.53156 13.8538 6.53156 13.7741C6.53156 13.4817 6.31229 13.3089 5.87375 13.2491C5.43522 13.1893 5.18937 13.0631 5.13621 12.8571C5.32226 12.4385 5.58804 12.0598 5.93355 11.7143C6.32558 11.3222 6.72425 11.0697 7.14286 10.9568C7.19601 10.9368 7.24252 10.9302 7.27575 10.9302C7.45515 10.9302 7.62791 11.0033 7.79402 11.1561C7.87375 11.0166 7.92691 10.8638 7.95349 10.7043C7.98007 10.5448 7.99336 10.3721 7.99336 10.186ZM15.1827 7.38204V7.30229C15.1827 7.18933 15.1163 7.12954 14.9834 7.12954C14.9369 7.12954 14.9103 7.15612 14.8904 7.20927C14.9169 7.25578 14.9568 7.28901 15.0166 7.31559C15.0764 7.34217 15.1296 7.3621 15.1827 7.38204Z" fill="white"/>
</svg>
