<svg width="24" height="24" viewBox="0 0 24 24" fill="none" xmlns="http://www.w3.org/2000/svg">
<path fill-rule="evenodd" clip-rule="evenodd" d="M21.9519 11.8051C21.9519 12.3584 21.8268 12.878 21.5766 13.3591C21.3264 13.8402 20.9752 14.2684 20.5182 14.6485C19.9793 14.7928 19.4212 14.9179 18.8487 15.019C18.2762 15.12 17.7566 15.1681 17.2947 15.1681C17.0493 15.1152 16.8328 14.9853 16.65 14.788C16.3036 14.9035 15.8513 15.0045 15.2884 15.0863C14.7255 15.1729 14.2492 15.2114 13.8547 15.2114C14.4802 15.0286 14.8939 14.8939 15.1008 14.8169C15.5482 14.6485 15.9379 14.4368 16.2795 14.1818C16.2555 13.9798 16.2459 13.7777 16.2459 13.5708C16.2459 13.21 16.2843 12.8588 16.3613 12.5268C16.4383 12.19 16.5345 11.9013 16.65 11.6512C16.7655 11.401 16.9098 11.1797 17.0878 10.9872C17.2129 11.2037 17.2947 11.4395 17.338 11.6896C17.3813 11.9446 17.4005 12.2333 17.4005 12.5557C17.4005 12.8155 17.3717 13.0704 17.3139 13.311C17.2562 13.5516 17.1696 13.8306 17.0541 14.1385C17.1937 14.2299 17.3524 14.2781 17.5401 14.2781C17.7277 14.2781 17.8865 14.2299 18.026 14.1385C18.3195 13.9316 18.5504 13.6718 18.7188 13.3591C18.8872 13.0464 18.9978 12.7096 19.0556 12.3488C19.0556 12.0649 19.0026 11.7859 18.892 11.5164C18.7861 11.247 18.637 11.0113 18.4542 10.814C18.4301 10.9199 18.4109 11.2133 18.3964 11.6848C18.382 12.1563 18.3243 12.4883 18.2232 12.6711C18.1944 12.5172 18.1751 12.3728 18.1655 12.2381C18.1559 12.1034 18.1559 11.9398 18.1559 11.7474C18.1559 11.3625 18.1896 10.9343 18.2617 10.4676C18.2858 10.3137 18.3291 10.0635 18.3868 9.71707C18.6466 9.95763 18.8535 10.2463 18.9978 10.5927C19.1422 10.9391 19.2384 11.3192 19.2769 11.7378C19.2913 11.8244 19.3009 11.911 19.3009 11.9976V12.2574C19.3009 12.5653 19.2721 12.8732 19.2191 13.1763C19.1662 13.4794 19.0844 13.7488 18.9834 13.9846C18.8776 14.2203 18.7861 14.3935 18.6995 14.509C18.5841 14.6774 18.4446 14.8121 18.2858 14.9131C19.1181 14.7447 19.8687 14.3454 20.5374 13.7248C20.8694 13.4265 21.1484 13.0801 21.3794 12.6952C21.6103 12.3103 21.7594 11.9158 21.8316 11.5068C21.7691 11.0353 21.6632 10.6023 21.5093 10.203C21.3553 9.80367 21.134 9.44283 20.8501 9.13011C20.8405 9.18303 20.8405 9.24558 20.8405 9.31293V9.47651C20.8405 9.66896 20.8598 9.95282 20.8982 10.3329C20.9367 10.7082 20.956 10.9968 20.956 11.1893V11.4106C20.9464 11.4635 20.9464 11.5068 20.9464 11.5357C20.7683 10.8958 20.6817 10.1982 20.6817 9.44764C20.6817 8.9954 20.7154 8.55277 20.7876 8.11976C21.033 8.33627 21.2398 8.58164 21.3986 8.85106C21.5622 9.1253 21.7017 9.46208 21.822 9.8614C21.9423 10.2607 22 10.6985 22 11.1797C22 11.3962 21.9904 11.6079 21.9663 11.8147L21.9519 11.8051ZM13.5468 8.78852C13.4987 8.96653 13.4554 9.09643 13.4073 9.18303C13.3303 9.32737 13.2244 9.42359 13.0849 9.4717C13.0176 9.51981 12.9406 9.515 12.8636 9.46689C12.7866 9.41878 12.7385 9.35142 12.7241 9.26482C12.7241 9.16379 12.7433 9.06756 12.7818 8.97615C12.7962 8.93766 12.8492 8.85106 12.931 8.71154C12.9069 8.81257 12.8973 8.89436 12.8973 8.96653C12.8973 9.09162 12.9454 9.1686 13.0368 9.19746C13.1667 9.17341 13.2726 9.1253 13.3495 9.04832C13.3351 8.9954 13.2918 8.94728 13.2293 8.90879C13.1619 8.87031 13.1042 8.83182 13.0512 8.79333L13.1667 8.56239C13.2581 8.59126 13.3351 8.62494 13.3928 8.6538C13.4506 8.68267 13.5035 8.73078 13.5468 8.79333V8.78852ZM19.2721 7.12866C19.2192 7.07574 19.1566 7.04688 19.0892 7.04688C18.9257 7.0998 18.7669 7.15272 18.6033 7.19602C18.2184 7.41733 17.8287 7.67714 17.439 7.97062C17.1215 8.20155 16.751 8.49985 16.318 8.86068C16.0775 9.06756 15.7118 9.3851 15.2211 9.80848C14.8362 10.1308 14.4609 10.4291 14.1001 10.6985C13.6767 11.0305 13.2918 11.3048 12.9454 11.5164C12.5509 11.7618 12.1467 11.9687 11.733 12.1323C11.3192 12.2959 10.891 12.4113 10.4532 12.4787C10.0154 12.546 9.51504 12.5749 8.95213 12.5749C8.95213 12.3536 8.8944 12.1323 8.77893 11.9158C8.69233 11.7618 8.56724 11.579 8.39885 11.3721C8.36036 11.4347 8.32187 11.4972 8.28338 11.5549C8.23527 11.6704 8.18715 11.8147 8.13423 11.9927C8.23527 12.1371 8.3363 12.291 8.44215 12.445C8.54799 12.599 8.62497 12.7385 8.67789 12.8588C8.57686 13.2196 8.40366 13.5419 8.15829 13.8306C7.94179 14.076 7.66755 14.3021 7.34039 14.4994C7.06134 14.6678 6.72937 14.8265 6.33486 14.9709C6.05581 15.0719 5.72384 15.1729 5.32932 15.2836C5.48328 15.2595 5.85374 15.2403 6.44551 15.2259C7.03248 15.2114 7.46548 15.1537 7.74453 15.0526C8.13904 14.7736 8.44215 14.4416 8.65865 14.0519C8.87515 13.6622 8.981 13.2437 8.981 12.7866C9.50541 12.9165 10.0202 12.9838 10.5302 12.9838C10.5831 12.9838 10.6553 12.9838 10.7515 12.979C10.8429 12.979 10.9295 12.9694 11.0065 12.9598C11.6993 12.8924 12.3248 12.6807 12.8877 12.3343C13.3495 12.0505 13.8595 11.656 14.4224 11.1556C14.8987 10.7082 15.3798 10.2607 15.8658 9.8181C16.4431 9.29369 16.9435 8.89436 17.3669 8.61531C17.9442 8.24004 18.5119 7.98505 19.0652 7.85515C19.1037 7.73006 19.1422 7.60978 19.1855 7.48469C19.2288 7.3596 19.2624 7.23932 19.2817 7.11423L19.2721 7.12866ZM16.5923 15.1874C16.5008 15.1874 16.4191 15.2162 16.3421 15.2692C16.2699 15.3221 16.1544 15.4424 16.0005 15.6252C15.9524 15.7118 15.9812 15.7695 16.0871 15.808C16.1929 15.8465 16.2459 15.8754 16.2555 15.8898C16.2074 15.9523 16.1304 16.0101 16.0245 16.063C15.7455 16.1929 15.606 16.2651 15.5963 16.2699C15.7792 16.2699 15.9476 16.241 16.0967 16.1833C16.2459 16.1255 16.3709 16.0245 16.472 15.8754C16.496 15.8272 16.5057 15.7888 16.5057 15.7503C16.5057 15.6973 16.4672 15.6444 16.3854 15.5867C16.3036 15.5338 16.2603 15.5001 16.2507 15.4953C16.318 15.4568 16.3613 15.4472 16.3758 15.4616C16.3854 15.4472 16.4335 15.3894 16.5249 15.2884C16.5538 15.2595 16.573 15.221 16.5826 15.1825L16.5923 15.1874ZM9.8037 8.91842C9.74116 9.02426 9.65937 9.11567 9.56315 9.18784C9.46211 9.26001 9.35146 9.32255 9.22637 9.38029C8.98581 9.49576 8.75006 9.60641 8.5095 9.71707C8.54799 9.6016 8.61054 9.50538 8.69233 9.43321C8.77893 9.36104 8.90402 9.29369 9.0676 9.23114C9.23118 9.1686 9.35627 9.1253 9.44287 9.09162C9.5872 9.0387 9.70748 8.98096 9.79889 8.91842H9.8037ZM16.5923 16.2747C16.5297 16.3757 16.4575 16.4575 16.3709 16.5297C16.2843 16.6018 16.1929 16.6596 16.0871 16.7077C15.9812 16.7558 15.8802 16.7991 15.7792 16.8328C15.6781 16.8665 15.5579 16.9098 15.4231 16.9531C15.4713 16.8616 15.5386 16.7799 15.6348 16.7029C15.7311 16.6307 15.8273 16.573 15.9235 16.5345C16.0197 16.496 16.1352 16.4527 16.2747 16.4094C16.4142 16.3661 16.5153 16.318 16.5874 16.2699L16.5923 16.2747ZM14.2492 12.9935C14.2107 13.0175 14.153 13.0945 14.0712 13.2244C13.9894 13.3543 13.9076 13.4217 13.821 13.4217C13.8114 13.4217 13.7777 13.412 13.7152 13.3976C13.7152 13.3736 13.7296 13.3351 13.7633 13.2773C13.7922 13.2196 13.7922 13.1763 13.7633 13.1426C13.7248 13.1667 13.6767 13.2388 13.6141 13.3639C13.5516 13.489 13.4891 13.5419 13.4169 13.5275C13.3399 13.5131 13.287 13.5035 13.2533 13.5035C13.0609 13.5035 12.8636 13.5708 12.6663 13.7103C12.5364 13.8017 12.3632 13.9605 12.1467 14.1818C11.8484 14.4897 11.6368 14.6918 11.5213 14.7832C11.2759 14.9853 11.0354 15.1008 10.8044 15.1392H10.9103C11.1172 15.1392 11.3192 15.0863 11.5117 14.9757C11.6416 14.9083 11.81 14.7736 12.0072 14.5812C12.0938 14.5042 12.2285 14.3791 12.4114 14.2107C12.6712 13.9894 12.9213 13.8499 13.1619 13.7969C13.21 13.8643 13.2581 13.9028 13.311 13.9028C13.388 13.8499 13.4602 13.7969 13.5324 13.7536C13.5997 13.7055 13.6719 13.6959 13.7392 13.72C13.8836 13.6815 13.999 13.5949 14.0856 13.4602C14.1722 13.3254 14.2252 13.1715 14.2492 12.9935ZM6.70051 10.5927C6.71013 10.6985 6.71494 10.7948 6.71975 10.8814C6.71975 10.968 6.72456 11.0401 6.72456 11.1027C6.72456 11.8725 6.58023 12.5893 6.29637 13.2485C6.04138 13.7248 5.80563 14.0952 5.5795 14.355C5.24272 14.7544 4.87707 14.9997 4.49218 15.0815C4.23238 15.0815 3.91965 15.1104 3.55882 15.1633C2.73611 15.2884 2.2165 15.3461 2 15.3461C2.9911 15.221 3.8956 14.865 4.7135 14.2732C5.12726 13.9749 5.48809 13.6237 5.7912 13.2244C6.0943 12.8251 6.32042 12.3921 6.46476 11.9302C6.47919 11.8628 6.48881 11.7859 6.48881 11.7041V11.5261C6.48881 11.1412 6.42146 10.7515 6.29156 10.3618C6.19052 10.0539 6.02694 9.69782 5.79601 9.2985C5.75752 9.56792 5.72865 10.1068 5.71422 10.9102C5.69978 11.7137 5.66611 12.3007 5.62281 12.6711H5.57469C5.57469 12.3151 5.56988 11.8532 5.55545 11.2759C5.54583 10.6985 5.5362 10.4051 5.5362 10.4003C5.5362 9.92395 5.55064 9.52462 5.57469 9.20709C5.60356 8.88955 5.65648 8.53834 5.74308 8.16306C6.04138 8.48541 6.27712 8.85587 6.4407 9.27925C6.60428 9.69782 6.69088 10.1405 6.69088 10.6023L6.70051 10.5927ZM4.16021 12.6952C4.09286 12.5172 3.91965 12.4258 3.64061 12.4113C3.36156 12.3969 3.18355 12.368 3.09694 12.3151C3.08732 12.2381 3.121 12.1611 3.19317 12.0793C3.26534 11.9976 3.34231 11.9206 3.41929 11.8436C3.48665 11.7955 3.54438 11.7666 3.59249 11.7474C3.64061 11.7281 3.6791 11.7185 3.70796 11.7185C3.76089 11.7185 3.80419 11.7329 3.83305 11.7666C3.88598 11.6367 3.94371 11.4972 4.00625 11.3432C4.0688 11.1941 4.09286 11.0546 4.07361 10.9343C3.65985 11.0738 3.33269 11.3673 3.09213 11.8099C2.90931 12.1467 2.7746 12.5797 2.69762 13.1041C2.74573 13.1667 2.80346 13.2052 2.87563 13.2244C2.9478 13.2437 3.02959 13.2533 3.12581 13.2533H3.28939C3.39524 13.2533 3.48184 13.2629 3.54919 13.2821C3.61655 13.3014 3.66466 13.3399 3.70315 13.4024C3.50108 13.5804 3.28458 13.7392 3.04402 13.8883C2.95742 13.9413 2.74092 14.0712 2.38489 14.2684C2.65432 14.2299 2.92374 14.1866 3.19317 14.1433C3.47703 14.0904 3.69353 13.898 3.83786 13.566C3.9389 13.2821 4.03993 12.9935 4.15059 12.7L4.16021 12.6952ZM17.1744 12.8924C17.1888 12.7481 17.1648 12.5941 17.107 12.4306C17.0204 12.2381 16.9627 12.0986 16.9242 12.0168C16.7991 12.3007 16.6789 12.5845 16.5538 12.8732C16.5153 13.0031 16.496 13.1282 16.496 13.2437C16.496 13.3351 16.5105 13.4265 16.5345 13.5083C16.5634 13.5949 16.6067 13.6767 16.6692 13.7633C16.7847 13.6382 16.8809 13.5131 16.9579 13.3784C17.0349 13.2437 17.107 13.0849 17.1792 12.8972L17.1744 12.8924Z" fill="white"/>
</svg>
