<svg width="24" height="24" viewBox="0 0 24 24" fill="none" xmlns="http://www.w3.org/2000/svg">
<path fill-rule="evenodd" clip-rule="evenodd" d="M22 11.3394C21.9663 10.9333 21.8924 10.5593 21.7785 10.2142C21.6645 9.86902 21.5072 9.55439 21.3049 9.26865C21.2279 9.5287 21.1717 9.81444 21.1348 10.1259C21.0978 10.4373 21.0802 10.7599 21.0802 11.0922C21.0802 11.3378 21.0882 11.5899 21.1059 11.8451C21.1235 12.1003 21.1476 12.362 21.1813 12.6269C21.2102 12.5017 21.2311 12.3508 21.2423 12.1742C21.2552 11.9976 21.26 11.8034 21.26 11.5915C21.26 11.3603 21.26 11.1211 21.2632 10.8755C21.2664 10.6299 21.2857 10.41 21.3242 10.2174C21.4783 10.4678 21.6035 10.7391 21.7014 11.0312C21.7977 11.3234 21.8459 11.6123 21.8459 11.8965C21.8459 12.0554 21.8266 12.2239 21.7881 12.4037C21.6918 12.8339 21.4863 13.2192 21.1733 13.5627C20.9132 13.8517 20.5697 14.1133 20.1459 14.3445C19.8907 14.4938 19.5985 14.6318 19.2694 14.7571C18.8681 14.9112 18.3544 15.0733 17.7268 15.2418C17.746 15.237 17.7782 15.2322 17.8215 15.2274C17.8648 15.2226 17.9066 15.221 17.9451 15.221H18.0398C18.1506 15.221 18.2357 15.2065 18.2934 15.1776C18.95 15.0717 19.6082 14.9673 20.2695 14.8662C20.9983 14.6495 21.4622 14.2097 21.6597 13.5483C21.7897 13.2593 21.8796 12.927 21.9278 12.553C21.9759 12.179 22 11.7745 22 11.341V11.3394ZM17.4314 10.4774C17.4218 10.5689 17.4105 10.646 17.3945 10.7086C17.38 10.7712 17.3431 10.8129 17.2853 10.8322C17.2468 10.8081 17.2083 10.7953 17.1698 10.7953C17.1216 10.7953 17.0558 10.8258 16.9707 10.8852C16.8856 10.9445 16.8246 10.975 16.7861 10.975C16.7331 10.975 16.6802 10.9365 16.6272 10.8595C16.6127 10.8161 16.6047 10.768 16.6047 10.715C16.6047 10.6139 16.6336 10.5416 16.6914 10.4983C16.7058 10.5079 16.7219 10.5432 16.7428 10.6026C16.762 10.6636 16.7941 10.6909 16.8375 10.6861C16.9242 10.6861 16.9835 10.6299 17.014 10.5192C17.0462 10.4084 17.0734 10.3458 17.0975 10.3313C17.1168 10.3506 17.1216 10.3859 17.112 10.4357C17.1023 10.487 17.0975 10.5159 17.0975 10.5256C17.0975 10.5689 17.1312 10.5866 17.1987 10.5769C17.2324 10.524 17.2613 10.4726 17.2853 10.4244C17.3335 10.3281 17.3704 10.28 17.3945 10.28C17.4186 10.28 17.4314 10.3458 17.4314 10.4758V10.4774ZM19.9806 10.3169C20.0095 10.5336 20.0239 10.7519 20.0239 10.9686C20.0239 11.4037 19.9661 11.8162 19.8506 12.2063C19.735 12.7328 19.4139 13.1614 18.8874 13.4889C18.4861 13.7345 17.9724 13.9191 17.3447 14.0395C17.2773 14.0732 17.1328 14.1214 16.9097 14.184C16.77 14.2225 16.6609 14.261 16.5838 14.2996C16.579 14.3381 16.571 14.4713 16.5582 14.6977C16.5469 14.924 16.5212 15.0909 16.4827 15.1969C16.4586 15.1584 16.4442 15.1214 16.4394 15.0845C16.4345 15.0476 16.4329 14.9994 16.4329 14.9368C16.4329 14.8839 16.4345 14.8293 16.4394 14.7747C16.4442 14.7185 16.449 14.6656 16.4538 14.611C16.4538 14.5098 16.4329 14.4344 16.388 14.3862C16.099 14.4007 15.8085 14.4183 15.5195 14.4376C15.4425 14.4954 15.367 14.5419 15.2948 14.5789C15.2226 14.6158 15.1551 14.6415 15.0925 14.6591C15.0299 14.6752 14.977 14.6848 14.9336 14.6848C14.8806 14.6848 14.8132 14.6672 14.7314 14.6334C14.6495 14.5997 14.5885 14.5757 14.55 14.5612C14.2803 14.1358 14.1101 13.5531 14.0427 12.8099C13.9994 12.1726 13.956 11.5353 13.9127 10.898C13.9127 10.768 13.9416 10.6331 13.9994 10.4919C14.0379 10.3907 14.1005 10.28 14.1872 10.1596C14.2257 10.4244 14.253 10.7102 14.2706 11.0168C14.2883 11.3234 14.2963 11.6573 14.2963 12.0201C14.2963 12.3427 14.3333 12.6525 14.4087 12.9463C14.4841 13.2401 14.5981 13.513 14.7522 13.765C14.8726 13.8661 15.0026 13.9175 15.1439 13.9175C15.221 13.9175 15.2932 13.895 15.3606 13.8517C15.4569 13.818 15.5484 13.7425 15.6351 13.6269C15.6977 13.5403 15.7603 13.4536 15.8229 13.3669C15.8374 13.4102 15.8454 13.452 15.8454 13.4905C15.8454 13.5338 15.8326 13.6077 15.8053 13.712C15.778 13.8164 15.7652 13.8822 15.7652 13.9111C15.7652 13.9496 15.7716 13.9913 15.786 14.0347L16.5822 13.6574C16.6352 13.2176 16.6882 12.8965 16.7412 12.6943C16.8375 12.3267 16.9675 12.0329 17.1328 11.8114C17.3303 11.5465 17.6016 11.3667 17.9435 11.2752C18.0543 11.2415 18.1361 11.2174 18.1891 11.203C18.2854 11.1741 18.3753 11.1661 18.4572 11.1805C18.4572 11.4647 18.4363 11.7295 18.3962 11.9735C18.3544 12.2175 18.2822 12.4615 18.1795 12.7055C18.0751 12.9495 17.9419 13.1727 17.7782 13.3749C17.6144 13.5772 17.4138 13.7586 17.1778 13.9175C17.4667 13.8212 17.7332 13.7104 17.974 13.5852C18.2389 13.4455 18.4957 13.2786 18.7445 13.086C18.9933 12.8933 19.2084 12.6766 19.3931 12.4374C19.576 12.1983 19.7157 11.9366 19.8136 11.6525C19.8136 11.2319 19.7799 10.8707 19.7125 10.5673C19.6306 10.1949 19.491 9.86741 19.2919 9.58168C19.2052 9.82728 19.1555 10.2029 19.1442 10.707C19.1314 11.211 19.1169 11.5337 19.0977 11.6733C19.064 11.5192 19.0383 11.3651 19.0222 11.2142C19.0046 11.0617 18.9965 10.8916 18.9965 10.7038C18.9965 10.3907 19.0238 10.0424 19.0768 9.66194C19.1105 9.4067 19.1683 9.06639 19.2502 8.64099C19.4476 8.85449 19.6082 9.10491 19.7318 9.39547C19.8554 9.68441 19.9388 9.99423 19.9822 10.3217L19.9806 10.3169ZM12.7553 9.26865L12.4583 9.8626C12.3138 9.81926 12.2079 9.78715 12.1405 9.76789C12.0153 9.72936 11.9575 9.66676 11.9671 9.58007H12.0104C11.9815 9.50302 12.0104 9.40189 12.0971 9.27668C12.1356 9.2237 12.187 9.1611 12.2496 9.08886C12.3411 9.08886 12.431 9.10491 12.5177 9.13541C12.6044 9.16752 12.6846 9.21086 12.7569 9.26865H12.7553ZM7.79661 10.4774C7.80143 10.5015 7.80303 10.5352 7.80303 10.5785C7.80303 10.67 7.77574 10.768 7.72277 10.8723C7.6698 10.9767 7.61843 11.073 7.57027 11.1661C7.45951 11.1661 7.33109 11.1805 7.18661 11.2094C6.8479 11.2768 6.64885 11.3105 6.58624 11.3105C6.51882 11.3105 6.45622 11.3041 6.39843 11.2881C6.39843 11.1966 6.41608 11.1099 6.4498 11.028C6.50759 10.8932 6.56858 10.7583 6.63119 10.6219C6.73714 10.6219 6.94903 10.5882 7.26848 10.5208C7.4274 10.487 7.56064 10.4694 7.66659 10.4694C7.72438 10.4694 7.76772 10.471 7.79661 10.4758V10.4774ZM13.0603 12.8949C12.9495 12.6012 12.8917 12.4503 12.8869 12.4455C12.805 12.2865 12.6911 12.1854 12.5466 12.1421C12.3877 12.2288 12.2641 12.3524 12.1774 12.5113C12.0763 12.6991 12.0056 12.9752 11.9671 13.3364C12.0056 13.4134 12.0682 13.4696 12.1549 13.5033C12.2031 13.5226 12.2833 13.537 12.3941 13.5467C12.5482 13.5467 12.6525 13.4616 12.7055 13.293C12.7392 13.3412 12.7617 13.3974 12.7745 13.46C12.7874 13.5226 12.797 13.5836 12.8066 13.6414C12.7103 13.8003 12.5996 13.9287 12.4744 14.0251C12.3251 14.1406 12.1726 14.1984 12.0185 14.1984C11.9799 14.1984 11.951 14.1952 11.9318 14.1904C11.7488 14.0893 11.6091 13.956 11.516 13.7923C11.4213 13.6286 11.3555 13.4375 11.317 13.2208C11.2736 12.8099 11.2303 12.4005 11.1869 11.9896C11.5 11.6236 11.7054 11.394 11.8018 11.3025C12.0522 11.0617 12.301 10.9012 12.5482 10.8242C12.6253 10.646 12.667 10.5513 12.6718 10.5416C12.7103 10.4357 12.7296 10.3394 12.7296 10.2527C12.7296 10.1901 12.7248 10.1419 12.7151 10.1082C12.4984 10.1804 12.2833 10.2992 12.0714 10.463C11.8981 10.5978 11.5963 10.8948 11.1661 11.3539C11.1564 11.2768 11.1291 11.0473 11.0858 10.6668C11.0425 10.2848 10.9959 9.97497 10.9477 9.73257C10.837 9.84333 10.7599 9.94126 10.7198 10.0263C10.6781 10.1114 10.6604 10.182 10.6652 10.2398C10.6652 10.3988 10.6989 10.646 10.7664 10.9783C10.8338 11.3105 10.8675 11.5642 10.8675 11.7375C10.4469 12.2448 9.99583 12.6927 9.50943 13.0844C9.02464 13.476 8.51577 13.7923 7.98603 14.0331C7.18501 14.4055 6.34224 14.5901 5.45935 14.5901C5.09335 14.5901 4.73056 14.558 4.37419 14.4954C4.01621 14.3943 3.71121 14.2851 3.45437 14.1695C3.09158 14.0058 2.81708 13.8244 2.62926 13.6269C2.39329 13.3765 2.2745 13.0892 2.2745 12.7649C2.2745 12.5386 2.34513 12.3187 2.48479 12.1068C2.58592 11.9527 2.74484 11.7809 2.96316 11.5931C3.098 11.4727 3.31792 11.3491 3.62132 11.2239C3.88137 11.1179 4.02424 11.0601 4.04832 11.0505C4.26503 10.9542 4.43198 10.853 4.54756 10.7471C4.69685 10.6123 4.79637 10.4453 4.84453 10.2479C4.6519 10.4598 4.37579 10.6412 4.01942 10.7904C3.43992 11.036 3.14616 11.1629 3.13653 11.1677C2.74003 11.3844 2.44626 11.699 2.25363 12.1084C2.08508 12.4695 2 12.8933 2 13.3749C2.07224 13.8051 2.29858 14.184 2.68063 14.5114C3.00811 14.7956 3.4014 15.0043 3.8605 15.1343C4.36777 15.2836 4.87342 15.359 5.38069 15.359C5.79164 15.359 6.18974 15.3173 6.57501 15.2322C6.96187 15.1471 7.35035 15.0235 7.74043 14.8598C8.33919 14.6094 8.90425 14.2739 9.43398 13.8565C9.96533 13.4391 10.4549 12.9559 10.9044 12.4053C10.9285 12.545 10.951 12.7135 10.9702 12.9126C11.0136 13.3332 11.0473 13.6125 11.0714 13.7522C11.1195 13.9929 11.1853 14.2016 11.2672 14.375C11.3683 14.5869 11.4984 14.7619 11.6589 14.8967C11.7263 14.9497 11.821 14.977 11.9414 14.977C12.0329 14.977 12.1228 14.9593 12.2095 14.9256C12.3925 14.8389 12.5402 14.7153 12.6509 14.5564C12.7424 14.4216 12.8179 14.2498 12.8757 14.0427C12.9142 13.9079 12.9463 13.7618 12.9704 13.6045C12.9945 13.4472 13.0266 13.2128 13.0651 12.8982L13.0603 12.8949ZM18.2292 11.9462C18.157 12.1822 18.0189 12.4166 17.8167 12.6477C17.5711 12.927 17.2019 13.2272 16.709 13.5451C16.7476 13.2369 16.8182 12.9784 16.9193 12.7697C17.0494 12.5097 17.2372 12.3138 17.4844 12.1838C17.6096 12.1212 17.7348 12.0698 17.8568 12.0281C17.9804 11.9864 18.104 11.9591 18.2292 11.9446V11.9462Z" fill="white"/>
</svg>
