<svg width="24" height="24" viewBox="0 0 24 24" fill="none" xmlns="http://www.w3.org/2000/svg">
<path fill-rule="evenodd" clip-rule="evenodd" d="M18.2659 9.84532C18.2659 10.0481 18.1952 10.2131 18.0585 10.3451C17.95 10.4205 17.8746 10.4771 17.8227 10.5148C17.7237 10.5855 17.6294 10.6186 17.5493 10.6186C17.5304 10.6186 17.4974 10.6138 17.4455 10.5997C17.488 10.5478 17.5917 10.4771 17.752 10.3828C17.9123 10.2885 18.0207 10.1989 18.0773 10.1093C18.0537 10.0716 17.9783 10.0481 17.8604 10.0339C17.7426 10.0198 17.6813 9.96791 17.6813 9.87361C17.7237 9.72274 17.7803 9.59073 17.8416 9.48229C17.9029 9.37385 17.9925 9.28426 18.1056 9.22297C18.1575 9.21826 18.1858 9.23713 18.1999 9.27956C18.2141 9.32199 18.2141 9.36914 18.1999 9.41157C18.1763 9.4823 18.115 9.52944 18.0255 9.55301C17.9359 9.57659 17.884 9.63316 17.8699 9.71331C17.9029 9.73689 17.9689 9.75575 18.0726 9.76046C18.1763 9.76518 18.2423 9.79346 18.2659 9.84532ZM21.9246 10.7506C21.8491 10.2838 21.7218 9.84532 21.538 9.43042C21.3541 9.01552 21.1183 8.6525 20.8307 8.33661L20.7553 8.46862C20.694 8.88824 20.661 9.33614 20.661 9.80761C20.661 10.0386 20.6846 10.595 20.727 11.4766C20.7459 11.8538 20.7553 12.1744 20.7553 12.4384C20.8072 12.2451 20.8402 12.0518 20.8543 11.8632C20.8685 11.6746 20.8779 11.4436 20.8779 11.1655C20.8732 11.0335 20.8685 10.9014 20.8685 10.7694V10.3734C20.8685 10.3498 20.8685 10.2225 20.8779 9.9962C20.8873 9.76989 20.8967 9.58602 20.9156 9.43986C21.2221 9.84062 21.4437 10.3357 21.5757 10.9203C21.6841 11.3918 21.736 11.9481 21.736 12.5893C21.6605 12.9429 21.5191 13.273 21.3069 13.5888C21.0948 13.9047 20.8402 14.1829 20.5431 14.4328C20.2461 14.6827 19.9302 14.8901 19.6049 15.0551C19.2796 15.2202 18.9401 15.3474 18.5959 15.4276C18.8364 15.1636 19.0203 14.8854 19.1523 14.5978C19.3833 14.0839 19.5012 13.5276 19.5012 12.9288C19.5012 12.7543 19.4917 12.5799 19.4729 12.4102C19.4352 12.0141 19.3456 11.6511 19.1994 11.3258C19.0533 11.0004 18.8553 10.7081 18.5959 10.4583C18.4875 10.9439 18.4215 11.255 18.3979 11.3918C18.3413 11.7359 18.3131 12.066 18.3131 12.3819C18.3131 12.7166 18.3555 13.0184 18.4356 13.2871C18.5111 12.9712 18.5677 12.6742 18.6054 12.3913C18.6431 12.1084 18.662 11.8067 18.662 11.4861C18.8175 11.6699 18.9496 11.901 19.0486 12.1839C19.1193 12.3724 19.19 12.6317 19.2654 12.9571C19.2654 13.3767 19.1617 13.7633 18.9543 14.1122C18.7468 14.4611 18.4545 14.7251 18.0773 14.8995C18.0396 14.9137 17.9783 14.9184 17.8887 14.9184C17.686 14.9184 17.5163 14.8665 17.3701 14.7581C17.389 14.6591 17.4503 14.4328 17.5587 14.0792C17.6954 13.6266 17.7661 13.2305 17.7661 12.8911C17.7661 12.6082 17.7379 12.3347 17.6813 12.0707C17.6247 11.8067 17.5446 11.5898 17.4361 11.4201C17.1721 11.967 16.9646 12.5045 16.8138 13.0325C16.7619 13.2258 16.7242 13.4285 16.6912 13.6407C16.6582 13.8529 16.644 14.0509 16.644 14.2395C16.644 14.4281 16.6582 14.6072 16.6818 14.7581C16.479 14.909 16.2244 15.041 15.918 15.1589C15.6115 15.2767 15.1495 15.4276 14.5318 15.6162C14.5695 15.6162 14.8147 15.6303 15.2673 15.6539C15.3805 15.6586 15.5266 15.6633 15.7105 15.6633C15.9745 15.6633 16.2056 15.6398 16.4036 15.5973C16.6016 15.5549 16.7855 15.4748 16.9552 15.3616C17.1249 15.4983 17.2428 15.5926 17.3135 15.635C17.4503 15.7152 17.587 15.7576 17.719 15.7576C18.4781 15.6398 18.9213 15.5643 19.0486 15.5408C19.553 15.4465 19.9774 15.338 20.3215 15.2201C20.6657 15.1023 20.9675 14.8618 21.2268 14.5035C21.4295 14.2253 21.5992 13.8859 21.736 13.4757C21.9104 12.8911 22 12.3017 22 11.7029C22 11.4012 21.9764 11.0853 21.9246 10.7506ZM13.24 8.24231C13.0844 8.49219 12.8109 8.71378 12.4196 8.90237C12.0849 9.06739 11.7548 9.2277 11.4201 9.38329C11.4201 9.27485 11.4719 9.18054 11.571 9.09096C11.7926 8.99667 12 8.89766 12.2027 8.78922C12.8392 8.44976 13.1834 8.26588 13.24 8.24231ZM12.7402 9.84532C12.7072 9.98205 12.6789 10.1188 12.6554 10.2508C12.6129 10.4205 12.5469 10.5478 12.4668 10.628C12.297 10.628 12.1273 10.6468 11.9576 10.6798C11.7878 10.7128 11.6087 10.76 11.4201 10.8166C11.4201 10.496 11.5238 10.2225 11.7313 9.9962C12.066 9.94434 12.4008 9.89719 12.7402 9.84532ZM17.1909 10.4583L16.9175 11.2598C16.5592 11.5379 16.2904 11.7454 16.1066 11.8915C15.7812 12.1508 15.5408 12.4007 15.3899 12.6459C15.3098 12.7732 15.1495 12.9618 14.909 13.2117C14.513 13.6219 14.3149 13.9707 14.3149 14.2583L14.2301 14.0603C13.867 14.3856 13.5559 14.6261 13.2966 14.777C12.9382 14.9844 12.5799 15.0881 12.2216 15.0881H12.1084C12.0519 15.074 12.0094 15.0693 11.9859 15.0693C11.7218 15.2249 11.5238 15.3333 11.3918 15.3899C11.1513 15.4983 10.9345 15.5502 10.7317 15.5502C10.6327 15.5502 10.5243 15.536 10.4111 15.503C10.1471 15.3852 9.95851 15.1683 9.84536 14.8618C9.78878 14.7157 9.72749 14.4234 9.66619 13.9849C9.55304 12.4054 9.43989 10.8307 9.32673 9.25127C9.38331 9.08626 9.42574 8.97309 9.45875 8.90237C9.51532 8.77036 9.58604 8.6855 9.66619 8.64779C9.72277 9.08154 9.77464 9.7746 9.81707 10.727C9.8595 11.6794 9.88779 12.2451 9.90193 12.4196C9.95851 13.1127 10.0528 13.7209 10.1848 14.2489C10.2603 14.3621 10.3404 14.4564 10.4253 14.5318C10.5101 14.6072 10.6091 14.6685 10.7223 14.711C10.7742 14.7251 10.8449 14.7298 10.9392 14.7298C11.1419 14.7298 11.3116 14.678 11.4484 14.5789C11.4484 14.3715 11.4484 14.1546 11.4484 13.933C11.4484 13.7114 11.4814 13.4946 11.5332 13.2824C11.5851 13.0702 11.6605 12.9005 11.7548 12.7685C11.8727 12.6129 12.033 12.4997 12.2357 12.4384C12.33 12.4573 12.4196 12.5045 12.5045 12.5799C12.5893 12.6553 12.6506 12.7496 12.6884 12.8628C12.7261 12.9759 12.7449 13.1221 12.7449 13.306C12.7449 13.4144 12.7449 13.5134 12.7308 13.6077C12.7214 13.702 12.6931 13.8953 12.6412 14.1923C12.943 14.1923 13.2777 14.0509 13.6407 13.768C13.7539 13.6784 13.9378 13.5181 14.1971 13.2871V12.7685C14.1971 12.264 14.2301 11.8915 14.2914 11.6464C14.3904 11.2645 14.5884 10.9627 14.876 10.7411C15.0269 10.6987 15.1919 10.6751 15.3663 10.6751C15.4418 10.6751 15.6445 10.6893 15.9793 10.7223C16.1113 10.7364 16.2339 10.7411 16.347 10.7411C16.5167 10.7411 16.6723 10.7223 16.8138 10.6798C16.9552 10.6374 17.0778 10.5667 17.1862 10.4583H17.1909ZM8.0066 9.38329C7.93116 9.56716 7.87459 9.69917 7.83687 9.78875C7.76143 9.95377 7.67185 10.0434 7.57284 10.0622C7.54927 10.0245 7.45969 9.98678 7.30882 9.94434C7.15794 9.90191 7.08251 9.85004 7.08251 9.78875C7.08251 9.75575 7.10608 9.7086 7.15794 9.63787C7.18152 9.60016 7.21924 9.52472 7.2711 9.40686C7.32296 9.28899 7.37954 9.20884 7.45026 9.15697C7.61999 9.18998 7.73786 9.21827 7.80387 9.24656C7.86987 9.27484 7.93588 9.322 8.0066 9.38329ZM5.51721 11.8821L5.47006 12.1839C5.47006 12.1839 5.39934 12.1508 5.31919 12.0896C5.28147 12.0566 5.24847 12.0424 5.22489 12.0424C5.19189 12.0424 5.16832 12.0754 5.14946 12.1367C5.14946 12.3253 5.1306 12.4997 5.0976 12.6553C5.06459 12.8109 5.0033 12.9335 4.91372 13.0231C4.89015 12.9665 4.85714 12.8863 4.81943 12.7779C4.75813 12.594 4.69213 12.462 4.62141 12.3724C4.5884 12.3866 4.56011 12.396 4.52711 12.4102C4.49411 12.4243 4.4611 12.4243 4.42339 12.4196C4.39038 12.3866 4.37624 12.3347 4.37624 12.2593C4.37624 12.1508 4.40453 12.0471 4.4611 11.9481C4.51297 11.8963 4.56483 11.8774 4.62141 11.8821C4.69684 11.9811 4.76756 12.1037 4.82885 12.2404C4.86657 12.33 4.91372 12.462 4.9703 12.6365C4.99387 12.4809 5.02687 12.3112 5.06459 12.1367C5.10231 11.9623 5.16832 11.8208 5.26261 11.7218C5.30033 11.7218 5.33333 11.7312 5.36634 11.7501C5.39934 11.7689 5.44649 11.8114 5.51721 11.8821ZM8.63838 12.5893C8.6761 12.4432 8.69496 12.3017 8.69496 12.165C8.69496 11.7548 8.55351 11.4248 8.27063 11.1655C8.15747 11.0665 8.0396 11.0146 7.92174 11.0146C7.8793 11.0146 7.83216 11.024 7.78029 11.0429C7.45497 11.4012 7.28996 11.8302 7.28996 12.3253C7.34654 12.4243 7.42197 12.5092 7.51627 12.5752C7.61056 12.6412 7.70957 12.6742 7.80858 12.6742C7.90288 12.66 7.98774 12.6223 8.05846 12.5516C8.12918 12.4809 8.18576 12.4054 8.22348 12.3253C8.28006 12.3866 8.31306 12.4337 8.3272 12.4667C8.34135 12.4997 8.36021 12.6176 8.39321 12.8251C7.98303 13.3201 7.49741 13.7256 6.93164 14.032C6.4083 14.3149 5.8331 14.5082 5.19661 14.6167C5.05045 14.6402 4.91843 14.6591 4.80057 14.6685C4.6827 14.678 4.56954 14.6827 4.47053 14.6827C4.03206 14.6827 3.63131 14.6025 3.2777 14.4469C2.92409 14.2913 2.62706 14.0368 2.38661 13.6831C2.29231 13.537 2.24517 13.3672 2.24517 13.1739C2.24517 13.0372 2.26403 12.9099 2.30174 12.7968C2.4479 12.5563 2.61763 12.3536 2.82037 12.1839C3.05139 11.9905 3.40971 11.7831 3.89533 11.5615C4.38095 11.3399 4.70156 11.1843 4.85714 11.09C5.19189 10.8967 5.45592 10.6704 5.65865 10.4111C5.42763 10.6327 5.10703 10.8354 4.69684 11.024C4.33852 11.1749 3.98491 11.3258 3.63131 11.4766C3.21641 11.6652 2.8958 11.8632 2.6695 12.0707C2.37247 12.3394 2.16973 12.6789 2.05658 13.0797C2.01886 13.2258 2 13.3673 2 13.504C2 13.735 2.04715 13.966 2.14616 14.1923C2.24517 14.4186 2.37247 14.6308 2.52805 14.8241C2.74965 15.0693 3.00424 15.2437 3.29184 15.3427C3.57944 15.4417 3.90948 15.4936 4.27251 15.4936C4.61669 15.4936 5.01273 15.4417 5.4512 15.3333C5.78595 15.2532 6.13484 15.1447 6.50731 15.0127C7.28524 14.5978 7.85101 14.1688 8.20462 13.7209C8.49222 13.3578 8.63838 12.9806 8.63838 12.5893ZM17.5021 13.2588C17.4833 13.4521 17.4267 13.6643 17.3324 13.8906C17.2758 14.0226 17.1815 14.2159 17.0495 14.4658C16.9882 14.3668 16.9458 14.2678 16.9222 14.1782C16.8986 14.0886 16.8892 13.9755 16.8892 13.8434C16.8892 13.6879 16.9081 13.5323 16.9458 13.3814C17.0637 13.0561 17.1862 12.726 17.3041 12.4007C17.3795 12.5375 17.4314 12.6789 17.4597 12.8156C17.488 12.9524 17.5021 13.1032 17.5021 13.2588ZM15.7199 11.5615L14.4187 13.0514C14.414 12.9759 14.4092 12.9005 14.4092 12.8251V12.5987C14.4092 12.3394 14.4375 12.1273 14.4988 11.9528C14.5601 11.7784 14.678 11.6511 14.8524 11.5615C14.909 11.5568 14.9797 11.5473 15.0646 11.5379C15.1495 11.5285 15.2249 11.5238 15.2862 11.5238C15.3663 11.5238 15.4323 11.5238 15.4842 11.5238C15.5361 11.5238 15.6115 11.5379 15.7199 11.5568V11.5615ZM12.495 13.8906C12.495 13.8293 12.4856 13.768 12.4668 13.7067C12.4479 13.6454 12.4338 13.6077 12.429 13.5888C12.3536 13.471 12.3017 13.4003 12.2782 13.3814C12.2074 13.3107 12.1273 13.2871 12.033 13.306C12.0141 13.3201 11.967 13.3437 11.8916 13.3861C11.8161 13.4285 11.769 13.471 11.7501 13.5134C11.7077 13.5747 11.6841 13.6501 11.6841 13.7303C11.6841 13.8812 11.7548 14.0179 11.8916 14.1358C11.9434 14.1782 11.9906 14.2018 12.0424 14.2018C12.1037 14.2018 12.1886 14.1546 12.2923 14.0556C12.396 13.9566 12.462 13.9047 12.495 13.8906Z" fill="white"/>
</svg>
