<svg width="24" height="24" viewBox="0 0 24 24" fill="none" xmlns="http://www.w3.org/2000/svg">
<path fill-rule="evenodd" clip-rule="evenodd" d="M18.0584 8.02312C17.8606 8.13615 17.7193 8.22091 17.6299 8.28213C17.465 8.38573 17.3332 8.48934 17.2343 8.58823C17.2578 8.41399 17.3238 8.268 17.4368 8.14556C17.5263 8.05609 17.6722 7.9619 17.8653 7.86772C18.0631 7.77354 18.2138 7.7029 18.3174 7.66052C18.4963 7.57104 18.6423 7.48157 18.7459 7.38738C18.6847 7.51453 18.5905 7.63697 18.4634 7.74999C18.3739 7.82534 18.2373 7.91481 18.0584 8.02312ZM21.4161 12.7936C21.6044 12.3273 21.7504 11.8423 21.8493 11.3337C21.9529 10.8298 22 10.3071 22 9.77495C22 9.24281 21.9152 8.71538 21.741 8.22562C21.5668 7.73586 21.3125 7.31203 20.9734 6.94943C20.7615 7.89127 20.6579 8.90846 20.6579 10.001C20.6579 10.0528 20.6579 10.2365 20.6673 10.5473C20.6767 10.8581 20.6908 11.1171 20.7144 11.3196C20.7285 11.1783 20.7756 10.5096 20.851 9.31816C20.8792 8.85194 20.9216 8.46108 20.9734 8.15498C21.223 8.54585 21.4113 8.91316 21.5385 9.25223C21.6986 9.66664 21.774 10.0716 21.774 10.4625C21.774 10.6367 21.7598 10.7968 21.7269 10.9475C21.6421 11.4279 21.449 11.88 21.1382 12.3038C20.8745 12.657 20.5213 12.9913 20.0739 13.3116C19.6831 13.5847 19.2404 13.8202 18.7506 14.0227C18.3268 14.2016 17.8747 14.357 17.3944 14.4842C17.5969 14.4842 17.8889 14.4606 18.2656 14.4182C19.0097 14.3288 19.5041 14.2817 19.7443 14.2817C20.0928 14.2299 20.4224 14.0462 20.7379 13.7401C21.0016 13.4858 21.223 13.1656 21.4066 12.7888L21.4161 12.7936ZM21.7316 14.3099C21.6704 14.3335 21.6091 14.3617 21.5526 14.3994C21.4113 14.4842 21.2983 14.5218 21.2136 14.5218C21.1665 14.5218 21.1147 14.5124 21.0534 14.4889C21.1147 14.4418 21.2277 14.3853 21.3972 14.3146C21.5668 14.244 21.6798 14.1639 21.7316 14.0839C21.6327 14.0368 21.5573 14.0038 21.5055 13.9803C21.4019 13.9285 21.3454 13.872 21.3454 13.8107C21.3454 13.7731 21.369 13.726 21.4113 13.6648C21.5856 13.4528 21.6798 13.3398 21.6939 13.3257C21.7598 13.2645 21.8399 13.2315 21.9294 13.2221C21.9435 13.288 21.9294 13.3539 21.8729 13.4152C21.7834 13.5188 21.7316 13.5753 21.7269 13.5847C21.6609 13.5753 21.6233 13.5847 21.6138 13.5941C21.6374 13.6318 21.7033 13.6695 21.8163 13.7024C21.9294 13.7354 21.9859 13.7919 21.9859 13.8672C22 13.9426 21.9765 14.0179 21.9105 14.0933C21.8446 14.1686 21.7834 14.2393 21.7222 14.3099H21.7316ZM18.972 13.1562C18.9343 13.1091 18.8119 13.0478 18.6047 12.9678C18.3975 12.8877 18.3127 12.7841 18.3504 12.657C18.4398 12.5063 18.5058 12.3933 18.5434 12.3179C18.6188 12.1908 18.7036 12.0825 18.8024 12.0024C18.9531 12.0024 19.0803 12.0212 19.1886 12.0636C19.2922 12.106 19.3958 12.1814 19.4947 12.2944C19.4947 12.3462 19.4099 12.5063 19.2357 12.77C19.1839 12.8548 19.0944 12.9819 18.9767 13.1562H18.972ZM19.0285 10.8486C19.0944 10.7262 19.1462 10.6179 19.1792 10.5143C19.2121 10.4107 19.231 10.3071 19.231 10.2035C19.231 10.0528 19.1886 9.93035 19.1085 9.84088L18.3739 10.2365C17.9501 10.4719 17.6628 10.7309 17.5027 11.0182C17.4368 11.1453 17.3332 11.4561 17.2013 11.9459C17.0695 12.4357 16.9611 12.7653 16.8811 12.9395C16.7069 13.288 16.4573 13.547 16.137 13.7213C16.0899 13.7354 16.0287 13.7448 15.944 13.7448C15.8309 13.7448 15.7273 13.726 15.6284 13.6883C15.5295 13.6506 15.4212 13.5894 15.2988 13.5093C15.5908 13.0714 15.8168 12.6005 15.9722 12.0919C16.1276 11.5833 16.203 11.0559 16.203 10.5049C16.203 9.9539 16.1512 9.38408 16.0523 8.85665C15.9534 8.32922 15.7886 7.86772 15.5719 7.46744C15.5484 7.53337 15.3553 8.13615 14.9974 9.27577C14.8985 9.58658 14.7949 9.95861 14.6819 10.3966C14.5689 10.8345 14.4841 11.2065 14.4323 11.5221C14.3805 11.8329 14.3522 12.1672 14.3522 12.5204C14.3522 12.8454 14.3805 13.1515 14.4323 13.4481C13.919 13.8013 13.1467 14.1357 12.1154 14.4418C11.3713 14.6678 10.891 14.8185 10.6791 14.8939C11.3713 14.8279 12.106 14.7526 12.883 14.6678C13.66 14.583 14.2863 14.4135 14.7714 14.1592C14.9833 14.3853 15.1434 14.5407 15.2564 14.6207C15.4542 14.762 15.652 14.8373 15.8545 14.8373C15.9392 14.8373 16.0429 14.8185 16.17 14.7808C16.4431 14.6207 16.6598 14.4324 16.8246 14.2063C16.9611 14.0179 17.0836 13.7731 17.1966 13.4717C17.3379 12.9348 17.4886 12.398 17.6393 11.8564C17.7617 11.6398 17.9689 11.442 18.2703 11.2678C18.4351 11.1783 18.6894 11.0417 19.0285 10.8628V10.8486ZM7.39204 8.04667C7.39204 8.04667 7.34495 8.02312 7.28844 7.99958C7.20367 7.95249 7.13774 7.93836 7.08594 7.95249C7.0624 8.05138 7.04356 8.27742 7.02472 8.63061C7.00589 8.9838 6.95879 9.2381 6.88345 9.38879C6.8599 9.37467 6.72804 9.16275 6.48787 8.75776C6.3984 8.59765 6.29009 8.5223 6.17236 8.5223C6.10643 8.5223 6.02637 8.54585 5.9369 8.58823C5.838 8.61177 5.7862 8.57881 5.77678 8.49875C5.77678 8.38573 5.79562 8.27271 5.838 8.1644C5.88039 8.05609 5.94161 7.97603 6.02637 7.93365C6.23829 7.93365 6.42194 8.07493 6.58206 8.36219C6.7045 8.5741 6.78455 8.70596 6.83165 8.75776C6.85519 8.55997 6.88345 8.35748 6.92112 8.14085C6.95879 7.92423 7.03414 7.74999 7.14716 7.61342C7.25076 7.61342 7.32611 7.61813 7.3732 7.63226C7.4203 7.64639 7.46268 7.68406 7.50977 7.74999L7.39675 8.04196L7.39204 8.04667ZM13.4292 10.3306C13.255 10.6838 12.9913 10.9664 12.6381 11.1783C12.5251 11.2442 12.186 11.3996 11.6209 11.6398C11.4467 11.7151 11.296 11.7952 11.1641 11.8753C11.0323 11.96 10.9004 12.0589 10.7638 12.1814C10.6885 12.219 10.599 12.2379 10.4907 12.2379C10.3683 12.2379 10.2364 12.2049 10.0951 12.1343C10.0198 12.0966 9.89734 12.0259 9.73252 11.9176C9.66659 11.8564 9.61479 11.7481 9.58653 11.5974C9.55828 11.442 9.51118 11.3384 9.44996 11.2866C9.1627 11.4467 8.80009 11.6822 8.36685 11.9977C7.84883 12.3744 7.4721 12.6287 7.24135 12.7606C7.0106 12.8924 6.76101 13.0008 6.49729 13.0808C6.22887 13.1656 5.96515 13.2033 5.70144 13.2033C5.38592 13.2033 5.0704 13.142 4.75018 13.0243C4.80198 13.1279 4.83965 13.2503 4.8632 13.3869C4.88674 13.5235 4.89616 13.66 4.89616 13.806C4.89616 14.098 4.86791 14.39 4.80669 14.6772C4.52884 14.5124 4.251 14.3429 3.96845 14.1686C3.64351 13.9426 3.44573 13.6883 3.37038 13.401C3.13492 13.4528 2.91359 13.5706 2.70167 13.7495C2.48976 13.9285 2.34848 14.1357 2.27313 14.3711C2.32494 14.6113 2.42383 14.8656 2.5651 15.1293C2.664 15.3036 2.8194 15.5343 3.02661 15.831C3.19143 16.057 3.36096 16.2925 3.5352 16.5327C3.70944 16.7728 3.84601 17.013 3.94019 17.2438C3.57758 16.8764 3.30916 16.5939 3.1255 16.4055C2.78644 16.0523 2.53685 15.7462 2.38145 15.4919C2.2543 15.2941 2.1554 15.1011 2.09418 14.9033C2.02826 14.7055 2 14.4936 2 14.2581C2 13.9096 2.08947 13.5564 2.27313 13.1938C2.36261 13.0196 2.50389 12.8642 2.69225 12.7323C2.82882 12.6334 3.00777 12.5345 3.23381 12.4262C3.27149 12.3791 3.29032 12.3132 3.29032 12.2237V11.9977C3.29974 11.9694 3.33741 11.9412 3.40334 11.9176C3.55404 12.0919 3.7377 12.2284 3.95903 12.332C4.17565 12.4357 4.41582 12.5016 4.67012 12.5298C4.73605 12.5393 4.80198 12.544 4.8632 12.5487C4.92442 12.5487 4.99976 12.5534 5.08924 12.5534C5.46598 12.5534 5.82388 12.5016 6.16294 12.3933C6.44078 12.3179 6.74217 12.1908 7.06711 12.0071C7.29315 11.88 7.57099 11.6963 7.90534 11.4656C8.4469 11.0747 8.98846 10.6838 9.53473 10.2883L9.8267 10.3212C9.85025 10.3683 9.85967 10.4154 9.85967 10.4672C9.85967 10.5284 9.85025 10.5991 9.8267 10.6838C9.76548 10.8957 9.73723 11.0135 9.73723 11.0464C9.73723 11.183 9.82199 11.2819 9.98681 11.3384C10.0904 11.362 10.1893 11.3714 10.2788 11.3714C10.4154 11.3714 10.5519 11.3525 10.6838 11.3102C10.8203 11.2678 10.9475 11.2065 11.0699 11.1218C11.183 10.4342 11.2489 10.0481 11.2724 9.95861C11.3996 9.53478 11.6209 9.21926 11.927 9.00735C11.9788 8.97909 12.0306 8.96026 12.0871 8.96026C12.1719 8.96026 12.2472 9.00264 12.3226 9.0827C12.3697 9.12979 12.4262 9.20514 12.4921 9.31816V9.56774C12.4921 9.65251 12.4921 9.73257 12.5015 9.81733C12.5015 9.91623 12.5015 10.001 12.4921 10.0716C12.4827 10.1423 12.4639 10.2129 12.4356 10.2788C12.6098 10.2317 12.7935 10.114 12.9913 9.91623C13.1279 9.77966 13.2738 9.60071 13.434 9.37467C13.3115 8.89904 13.1702 8.54585 13.0054 8.31039C12.8688 8.1126 12.6946 7.9619 12.4733 7.8583C12.4073 7.83476 12.3226 7.81121 12.2237 7.78295C12.1248 7.7547 12.0447 7.74528 11.9882 7.74528C11.8846 7.74528 11.7904 7.77354 11.7057 7.83476C11.5314 7.94778 11.4043 8.1126 11.3195 8.33393C11.2206 8.67299 11.1217 9.00735 11.0275 9.3417C11.0275 8.70125 11.0746 8.20678 11.1735 7.86301C11.3384 7.29791 11.6492 6.93059 12.1012 6.75635C12.4026 6.75635 12.6805 6.8364 12.9395 7.00123C13.1938 7.16134 13.3727 7.38267 13.4716 7.66052C13.5611 7.83947 13.6317 8.03725 13.6741 8.25388C13.7212 8.4705 13.7401 8.68241 13.7401 8.89433C13.7401 9.37467 13.6364 9.8503 13.434 10.3165L13.4292 10.3306ZM9.53002 14.4889L9.78903 13.6648C9.69955 13.6177 9.59595 13.5988 9.48293 13.5988C9.43584 13.5988 9.32753 13.613 9.14858 13.6365C8.96963 13.6648 8.82835 13.6742 8.72475 13.6742C8.63527 13.6742 8.56463 13.6742 8.52225 13.6648C8.41865 13.7872 8.33388 13.9379 8.27737 14.1168C8.22086 14.2958 8.19261 14.4794 8.19261 14.6584L9.52531 14.4889H9.53002ZM15.4401 8.83782C15.5295 9.12979 15.6049 9.38408 15.6661 9.596C15.8074 10.1328 15.8827 10.5944 15.8827 10.9852C15.8827 11.2583 15.8451 11.5126 15.7744 11.7481C15.7038 11.9836 15.5908 12.1861 15.4401 12.3509L14.9409 12.9066C14.8561 12.7936 14.7996 12.6617 14.7667 12.5157C14.7337 12.3697 14.7149 12.1955 14.7149 12.0024C14.7149 11.8235 14.729 11.6304 14.7619 11.4326C14.7902 11.2348 14.8279 11.0464 14.8656 10.8722C14.875 10.8439 15.0021 10.4107 15.2517 9.58187C15.3365 9.30403 15.3977 9.05444 15.4448 8.83782H15.4401ZM11.7339 10.0716C11.781 10.0481 11.8234 10.0387 11.8705 10.0387C12.0353 10.0387 12.1436 10.1187 12.186 10.2741C12.1483 10.3353 12.1107 10.3871 12.0683 10.4248C12.0259 10.4672 11.96 10.519 11.8705 10.5755C11.8234 10.5991 11.7857 10.6085 11.7481 10.6085C11.7104 10.6085 11.6586 10.5991 11.5974 10.5755C11.5314 10.552 11.4843 10.5331 11.4467 10.519C11.4372 10.4201 11.4655 10.3353 11.522 10.26C11.5785 10.1846 11.6539 10.1187 11.7433 10.0669L11.7339 10.0716Z" fill="white"/>
</svg>
