<svg width="24" height="24" viewBox="0 0 24 24" fill="none" xmlns="http://www.w3.org/2000/svg">
<path fill-rule="evenodd" clip-rule="evenodd" d="M16.4118 6.72339C16.3838 6.89146 16.3277 7.05253 16.2507 7.2136C16.1737 7.37466 16.0686 7.54271 15.9356 7.71778C15.8866 7.64075 15.7535 7.56374 15.5294 7.47971C15.3053 7.39568 15.1933 7.30464 15.1933 7.2136C15.1933 7.12957 15.2493 7.03154 15.3613 6.91949L15.7115 6.30324C15.9076 6.40829 16.0616 6.48529 16.1667 6.54131C16.2717 6.59734 16.3557 6.66037 16.4118 6.72339ZM21.958 10.0147C21.881 9.41948 21.7479 8.84525 21.5448 8.30603C21.3417 7.76682 21.0756 7.29064 20.7395 6.87748C20.4874 7.47272 20.3613 8.29202 20.3613 9.34944C20.3613 10.4069 20.3403 11.0932 20.3053 11.4153C20.3123 11.5203 20.3263 11.6324 20.3473 11.7514C20.3683 11.8634 20.4104 11.9265 20.4874 11.9335C20.5784 10.778 20.6765 9.61557 20.7815 8.4461C21.0616 8.91529 21.2787 9.37747 21.4258 9.84666C21.5728 10.3158 21.6499 10.806 21.6499 11.3172C21.6499 11.3382 21.6499 11.4433 21.6359 11.6464C21.6218 11.8495 21.6078 12.0105 21.5798 12.1436C21.4608 12.8088 21.1527 13.3971 20.6555 13.9083C20.2563 14.3284 19.7241 14.7066 19.0588 15.0427C18.5336 15.3158 17.9174 15.5539 17.2101 15.757C16.7549 15.8901 16.1247 16.0441 15.3333 16.2192C16.0126 16.2192 16.7199 16.1842 17.4412 16.1142C18.1625 16.0441 18.7857 15.9391 19.3039 15.792C19.8221 15.645 20.2913 15.3439 20.7115 14.8747C21.0826 14.4615 21.3767 13.9923 21.5798 13.4601C21.8599 12.6548 22 11.7934 22 10.869C22 10.5819 21.986 10.2948 21.958 10.0147ZM13.4566 6.75143C13.3095 6.95451 13.1134 7.14358 12.8824 7.31165C12.7073 7.4307 12.4622 7.57072 12.1541 7.71778C11.5378 7.99789 11.2157 8.14496 11.1877 8.16597C11.0476 8.243 10.8725 8.36908 10.6555 8.54415C10.7745 8.31306 10.9566 8.10994 11.1877 7.94187C11.3627 7.80882 11.6078 7.6758 11.916 7.53574C12.2801 7.36768 12.5462 7.24861 12.7143 7.17158C13.0434 7.02452 13.2885 6.88449 13.4566 6.75143ZM13.2745 9.04833C13.2955 9.09035 13.2885 9.13938 13.2675 9.1954C13.2465 9.25143 13.2395 9.30042 13.2465 9.34243C13.2115 9.36344 13.1555 9.34244 13.0784 9.30743C13.0014 9.26541 12.9454 9.25142 12.8964 9.27242L12.6723 10.631C12.5322 10.5819 12.3992 10.3999 12.2731 10.0778C12.1471 9.75563 12.021 9.59457 11.888 9.59457C11.7969 9.59457 11.6849 9.64355 11.5658 9.73459C11.5588 9.64355 11.5518 9.57353 11.5518 9.52451C11.5518 9.27942 11.6429 9.12536 11.8179 9.04833C12.014 9.08334 12.1681 9.2304 12.2801 9.4825C12.4412 9.83964 12.5392 10.0427 12.5882 10.0987C12.6653 10.0077 12.7073 9.79762 12.7143 9.47549C12.7213 9.15336 12.7913 8.93628 12.9244 8.82423C12.9804 8.82423 13.0364 8.85224 13.0994 8.90126C13.1625 8.95728 13.2185 9.00631 13.2745 9.04833ZM7.37815 7.19958C7.32913 7.37465 7.28711 7.52171 7.2451 7.64076C7.20308 7.75981 7.13305 7.9279 7.02801 8.15199C6.63585 8.20101 6.34174 8.23601 6.15266 8.26402C5.96359 8.29203 5.77451 8.32703 5.59944 8.37604C5.57843 8.32002 5.57143 8.27102 5.57143 8.222C5.57143 8.08195 5.63445 7.89288 5.76751 7.66179C5.82353 7.55675 5.88655 7.45169 5.94958 7.33964C6.33473 7.2346 6.71989 7.1856 7.11204 7.1856C7.23109 7.1856 7.32213 7.18557 7.37815 7.19958ZM19.3389 8.11694C19.2899 7.63375 19.1499 6.95451 18.9048 6.09317C18.7437 5.51194 18.6457 5.14779 18.6106 5.00073C18.3305 5.52594 18.1415 6.15617 18.0364 6.90547C17.9804 7.58475 17.9244 8.26403 17.8683 8.9363C17.9524 8.46712 18.0364 7.99791 18.1204 7.52172C18.1975 7.17859 18.2675 6.91248 18.3445 6.73741C18.6737 7.50772 18.8908 8.34803 19.0028 9.2514C18.7857 9.58053 18.5336 9.86066 18.2395 10.1058C17.9454 10.3509 17.6443 10.4979 17.3361 10.5539C17.3852 10.2738 17.4132 10.0777 17.4342 9.95868C17.4552 9.83964 17.4622 9.7136 17.4622 9.57354C17.4622 9.46149 17.4552 9.34946 17.4342 9.23742C17.4132 9.12537 17.3852 9.02033 17.3361 8.92929C17.2521 8.78924 17.1471 8.68418 17.021 8.60715C16.895 8.53012 16.7549 8.5161 16.6078 8.55112C16.2997 8.79621 16.0686 9.09737 15.9216 9.46151C15.7325 9.90969 15.6415 10.5399 15.6415 11.3522C15.2563 11.5973 14.8081 11.8144 14.2969 12.0105C13.9678 12.1436 13.5056 12.2977 12.8964 12.4867C12.5952 12.5357 12.112 12.6198 11.4398 12.7388C10.8796 12.8229 10.3613 12.8649 9.88515 12.8649C9.2409 12.8649 8.68767 12.7738 8.23249 12.5847C7.70028 12.3676 7.28011 12.0175 6.97199 11.5203C6.88796 11.4363 6.84594 11.3382 6.84594 11.2262C6.84594 11.1912 6.87395 11.0792 6.92997 10.9041C6.98599 10.729 7 10.582 6.97199 10.4699C6.83193 10.3299 6.68487 10.2808 6.53781 10.3158C6.16667 10.4839 5.76751 10.701 5.35434 10.9601C4.94118 11.2192 4.57003 11.4923 4.2409 11.7724C3.86975 12.1086 3.56162 12.4517 3.33053 12.7948C3.07143 13.187 2.90336 13.5862 2.84034 13.9993C3.31653 13.8242 3.70168 13.6982 4.0028 13.6212C4.42297 13.5161 4.83613 13.4671 5.23529 13.4671C4.80812 13.7682 4.507 13.9853 4.33894 14.1254C4.05882 14.3495 3.76471 14.6085 3.46359 14.9027C3.16246 15.1968 2.89636 15.4909 2.67227 15.778C2.44818 16.0651 2.2591 16.3733 2.09804 16.7024C2.06303 16.8354 2.03501 16.9405 2.02101 17.0315C2.007 17.1226 2 17.1996 2 17.2766C2 17.4727 2.03501 17.6548 2.09804 17.8298C2.16106 18.0049 2.27311 18.152 2.42017 18.271C2.76331 18.5441 3.12745 18.7332 3.5056 18.8382C3.88375 18.9433 4.31092 18.9993 4.78711 18.9993C5.31232 18.9993 5.90056 18.9153 6.56583 18.7472C7.07703 18.6141 7.61625 18.4391 8.17647 18.215C7.67927 18.299 7.15406 18.3901 6.59384 18.4811C6.03361 18.5722 5.53641 18.6211 5.10924 18.6211C4.52101 18.6211 4.02381 18.5441 3.62465 18.3831C3.14846 18.194 2.77031 17.8859 2.4902 17.4447C2.44118 17.3046 2.42017 17.1716 2.42017 17.0525C2.42017 16.9195 2.42017 16.8145 2.44118 16.7234C2.45518 16.6324 2.4902 16.5133 2.54622 16.3663C2.76331 16.0581 3.07143 15.75 3.48459 15.4419C3.84874 15.1898 4.21289 14.9307 4.57703 14.6716C5.01821 14.3565 5.34034 14.0693 5.54342 13.8172C5.82353 13.4741 5.9986 13.0819 6.07563 12.6408C5.97059 12.5567 5.87955 12.5007 5.78852 12.4797C5.69748 12.4587 5.57843 12.4447 5.43137 12.4447C4.93417 12.5357 4.44398 12.6338 3.96078 12.7248C4.21289 12.5077 4.46499 12.2976 4.71709 12.0806C5.2493 11.6394 5.71849 11.4223 6.13165 11.4223C6.18067 11.4223 6.22269 11.4223 6.27171 11.4363C6.32073 11.4433 6.39076 11.4573 6.4958 11.4783C6.4958 11.8915 6.57983 12.2626 6.7409 12.6058C6.90196 12.9489 7.14706 13.236 7.47619 13.4671C8.29552 13.7752 9.17087 13.9293 10.0952 13.9293C10.7395 13.9293 11.4048 13.8593 12.091 13.7122C12.7773 13.5652 13.4706 13.341 14.1779 13.0329C14.8852 12.7248 15.5504 12.3607 16.1877 11.9405C17.035 11.9405 17.7563 11.6394 18.3445 11.0301C18.7297 10.701 18.9958 10.3509 19.1429 9.9727C19.2899 9.59455 19.3669 9.1674 19.3669 8.6772C19.3669 8.61418 19.3669 8.53714 19.3669 8.4461C19.3669 8.35506 19.3529 8.25 19.3459 8.11694H19.3389ZM17.112 10.4699C17.007 10.554 16.916 10.6169 16.8319 10.659C16.7479 10.701 16.6569 10.722 16.5518 10.722C16.4958 10.722 16.4328 10.708 16.3557 10.68C16.1947 10.596 16.1176 10.4839 16.1176 10.3369C16.1176 10.2528 16.1387 10.1758 16.1737 10.0987C16.2087 10.0217 16.2507 9.94468 16.2857 9.86765C16.3697 9.78361 16.4538 9.7416 16.5378 9.7416C16.6429 9.7416 16.7409 9.79063 16.8459 9.88867C16.951 9.98671 17.021 10.0708 17.056 10.1548C17.091 10.2318 17.112 10.3368 17.112 10.4769V10.4699Z" fill="white"/>
</svg>
