<svg width="24" height="24" viewBox="0 0 24 24" fill="none" xmlns="http://www.w3.org/2000/svg">
<path fill-rule="evenodd" clip-rule="evenodd" d="M17.7723 9.35236C17.6928 9.32725 17.5797 9.33981 17.4416 9.39422C17.2993 9.44864 17.2114 9.47794 17.1695 9.47794C17.0774 9.47794 16.9979 9.43608 16.9393 9.35236C16.9267 9.27283 16.9267 9.1933 16.9393 9.11796C16.9519 9.04261 16.9853 8.96727 17.0398 8.89192C17.0481 8.95889 17.0523 9.0175 17.0607 9.06773C17.0691 9.11796 17.1026 9.15144 17.1612 9.17237C17.27 9.1933 17.3453 9.14307 17.3914 9.02168C17.4374 8.90029 17.4751 8.83332 17.5002 8.82076C17.5211 8.84169 17.5253 8.87099 17.5211 8.90448C17.5128 8.94215 17.5128 8.97564 17.5128 9.00912C17.5128 9.06354 17.5504 9.09284 17.6216 9.10121C17.6676 9.08866 17.7011 9.03843 17.7221 8.95052C17.743 8.86262 17.7807 8.82076 17.8434 8.82076C17.8644 8.85843 17.8727 8.90448 17.8727 8.94634C17.8727 8.98401 17.856 9.05098 17.8267 9.14726C17.7974 9.24353 17.7765 9.30632 17.7723 9.34818V9.35236ZM21.64 13.8312C21.8828 13.2285 22 12.5671 22 11.8429C22 11.6337 21.9916 11.4244 21.9707 11.2109C21.9163 10.7546 21.8033 10.3193 21.6233 9.90071C21.4475 9.48213 21.2172 9.12633 20.9368 8.82913C20.8698 8.89611 20.828 9.0175 20.8154 9.18912C20.8028 9.36492 20.7861 9.46957 20.7652 9.51143C20.7652 9.57003 20.7568 9.80444 20.7401 10.2063C20.7233 10.6081 20.7149 10.9304 20.7149 11.169C20.7149 11.4955 20.7317 11.7802 20.7652 12.0146C20.7987 12.249 20.8614 12.4708 20.9577 12.6759V11.2904C20.9577 11.0434 20.9577 10.8258 20.9661 10.6416C20.9745 10.4574 20.9912 10.2733 21.0163 10.0849C21.2424 10.4281 21.4182 10.7463 21.5396 11.0476C21.6944 11.4285 21.7698 11.7885 21.7698 12.1234C21.7698 12.3159 21.753 12.4834 21.7195 12.6257C21.6107 13.128 21.3931 13.5717 21.0582 13.961C20.7777 14.2875 20.3968 14.5931 19.9113 14.8735C19.501 15.1079 19.049 15.3088 18.5467 15.4763C18.1239 15.6186 17.6551 15.7358 17.1402 15.8362C17.5881 15.8362 18.0527 15.8195 18.5257 15.786C19.0029 15.7525 19.4341 15.7023 19.8234 15.6353C20.2252 15.5935 20.6019 15.3716 20.9577 14.9614C21.2256 14.6517 21.4517 14.2749 21.64 13.827V13.8312ZM19.0866 12.902C19.229 12.609 19.3252 12.3243 19.3838 12.0481C19.4424 11.7718 19.4676 11.4746 19.4676 11.1439C19.4676 10.8844 19.455 10.6542 19.4257 10.4616C19.3797 10.0807 19.2918 9.69142 19.1704 9.29376C19.0448 8.89611 18.9025 8.49845 18.735 8.10498C18.5341 8.48589 18.4002 8.90029 18.3374 9.33981C18.2746 9.78351 18.2411 10.3067 18.2411 10.9179V12.1318C18.3834 11.2067 18.5341 10.2816 18.6848 9.36074C18.8606 9.80444 18.9946 10.2314 19.0908 10.6416C19.1871 11.0518 19.2373 11.462 19.2373 11.8722C19.1494 12.0815 18.9862 12.2615 18.7434 12.4248C18.1281 12.835 17.7974 13.0694 17.7472 13.1364C17.6928 13.4838 17.5797 13.8019 17.4039 14.0949C17.2281 14.3879 17.0105 14.6517 16.7426 14.8944C16.2152 15.3465 15.6124 15.6563 14.9343 15.8153C15.0892 15.8614 15.2189 15.8865 15.3278 15.8907C15.4366 15.8907 15.5329 15.8949 15.6208 15.8949C15.8133 15.8949 15.9933 15.8865 16.1524 15.8697C16.3114 15.853 16.5082 15.8279 16.7342 15.7944C16.9602 15.6395 17.136 15.4512 17.2574 15.2335C17.3118 15.133 17.45 14.7479 17.6676 14.0698C17.7681 13.8815 17.9314 13.714 18.1616 13.5675C18.7099 13.2201 19.0197 12.9982 19.0866 12.9062V12.902ZM10.6898 10.9555C10.6103 10.9681 10.5391 10.9765 10.4805 10.9765C10.3466 10.9765 10.2545 10.9262 10.2001 10.83C10.1875 10.7337 10.2001 10.6416 10.2294 10.5621C10.2629 10.4784 10.355 10.3486 10.5098 10.1644C10.5182 10.1895 10.4889 10.2607 10.4303 10.3779C10.3968 10.4407 10.3801 10.4909 10.3801 10.5202C10.3801 10.5872 10.4219 10.6332 10.5098 10.6667C10.5768 10.6877 10.6396 10.6835 10.694 10.6583C10.7526 10.6332 10.8112 10.5914 10.8782 10.537C10.7987 10.4574 10.7401 10.3988 10.7066 10.3653C10.6312 10.29 10.5977 10.2272 10.5977 10.1728C10.5977 10.1058 10.6396 10.043 10.7191 9.98024C10.8782 10.0681 10.9787 10.1267 11.0163 10.1602C11.054 10.1937 11.0875 10.2523 11.121 10.3319C11.0666 10.4532 11.008 10.5746 10.9452 10.7002C10.8824 10.8258 10.7945 10.9095 10.6898 10.9555ZM17.1486 11.4746C17.0733 11.5416 16.8681 11.6671 16.5249 11.8555C16.2361 12.0146 16.0184 12.1778 15.8719 12.3452C15.7798 12.5127 15.7045 12.7848 15.6542 13.1657C15.604 13.5466 15.5496 13.8187 15.4868 13.9861C15.4868 13.8396 15.4952 13.7057 15.5077 13.5843C15.5538 13.1615 15.5789 12.9313 15.5789 12.8894C15.5789 12.7889 15.5789 12.7136 15.5705 12.6676C15.2105 12.948 14.8882 13.1908 14.6078 13.3917C14.2813 13.6261 13.938 13.8563 13.5823 14.0782C13.2265 14.3042 12.8665 14.5135 12.4981 14.7061C12.1298 14.8986 11.753 15.0702 11.3721 15.2126C10.9912 15.3549 10.6061 15.4721 10.2168 15.56C9.82754 15.6479 9.44663 15.6897 9.0699 15.6897C8.64295 15.6897 8.22436 15.6563 7.82252 15.5851C7.42068 15.5139 7.02721 15.4009 6.6463 15.2377C6.26538 15.0786 6.01005 14.8023 5.88447 14.4131C5.82587 14.2247 5.76727 13.8522 5.71285 13.2996C5.63751 13.3875 5.41984 13.7601 5.05986 14.4131C4.80033 14.8902 4.49477 15.2 4.14734 15.3465C3.83759 15.4386 3.49435 15.5098 3.10925 15.5558C2.72415 15.6018 2.3558 15.627 2 15.627C2.61532 15.4846 3.16367 15.2753 3.64923 14.9949C4.19339 14.681 4.63709 14.2749 4.98451 13.781C5.06404 13.6931 5.20636 13.4252 5.40728 12.9773C5.56216 12.6424 5.75471 12.4373 5.98912 12.3662C5.99749 12.408 6.01842 12.6843 6.05609 13.2033C6.09376 13.7224 6.29468 14.0656 6.66304 14.2331C7.01046 14.4131 7.37045 14.5512 7.74299 14.6517C8.11553 14.7479 8.47551 14.7982 8.82294 14.7982C9.19966 14.7982 9.56383 14.7772 9.91963 14.7396C10.2754 14.6977 10.6229 14.6307 10.9661 14.5303C11.3093 14.4298 11.64 14.3126 11.9665 14.1745C12.293 14.0363 12.6362 13.8647 13.0046 13.6554C13.6325 13.3122 14.2436 12.9145 14.8338 12.4583C14.591 12.3829 14.3566 12.3076 14.1222 12.228C13.8334 12.115 13.6283 11.9518 13.4985 11.7341C13.5571 11.3113 13.599 11.0686 13.6199 11.0016C13.6995 10.7421 13.8334 10.5411 14.0218 10.4072C14.2018 10.3402 14.3943 10.2816 14.5952 10.2314C14.7961 10.1812 14.9803 10.156 15.1478 10.156C15.3947 10.156 15.6082 10.2063 15.7798 10.3109C15.8803 10.4198 15.9389 10.5621 15.9598 10.7379C15.9724 11.0141 15.9849 11.2862 16.0017 11.5625C16.5123 11.1816 17.0356 10.8802 17.5797 10.6583L17.157 11.4704L17.1486 11.4746ZM15.491 11.2276C15.537 11.2695 15.5705 11.3072 15.5915 11.349C15.6124 11.3909 15.6333 11.4746 15.6626 11.6085C15.2943 11.5625 15.0264 11.5164 14.8589 11.4788C14.591 11.4202 14.3441 11.3281 14.1139 11.2067C14.3022 11.1397 14.4278 11.0979 14.4948 11.0853C14.6413 11.0518 14.7836 11.0351 14.9175 11.0351C15.0389 11.0351 15.1436 11.0518 15.2398 11.0811C15.3319 11.1104 15.4157 11.1607 15.491 11.2276Z" fill="white"/>
</svg>
