<svg width="24" height="24" viewBox="0 0 24 24" fill="none" xmlns="http://www.w3.org/2000/svg">
<path fill-rule="evenodd" clip-rule="evenodd" d="M16.4632 7.10273C16.4084 7.1941 16.3627 7.25804 16.317 7.31286C16.2714 7.35854 16.1983 7.43163 16.0978 7.50472C15.9059 7.66004 15.5952 7.80625 15.1658 7.95243C14.8917 8.0438 14.6999 8.11688 14.5719 8.1717C14.6359 8.08033 14.6999 8.00725 14.7547 7.95243C14.8095 7.89761 14.9009 7.83366 15.0288 7.76057C15.1567 7.68748 15.3212 7.60523 15.5313 7.51386C16.0978 7.27631 16.4084 7.1484 16.4632 7.11185V7.10273ZM22 11.6071C22 10.8853 21.8904 10.1909 21.6802 9.51478C21.4609 8.83867 21.1503 8.23565 20.7483 7.70572C20.5838 8.10774 20.4742 8.53717 20.4194 9.00313C20.3645 9.45996 20.328 9.98076 20.328 10.5564C20.328 10.6934 20.3371 11.0863 20.3645 11.7533C20.3828 12.4111 20.4011 12.9319 20.4011 13.3065H20.4833C20.5473 13.0324 20.5838 12.7857 20.593 12.5755C20.6112 12.3654 20.6112 12.0273 20.6112 11.5705V10.7391C20.6112 10.3919 20.6112 10.1087 20.6204 9.89853C20.6204 9.68839 20.6569 9.4691 20.7026 9.23155C21.0681 10.0356 21.2965 10.5564 21.3878 10.8122C21.6071 11.4152 21.7076 11.9817 21.7076 12.5116C21.7076 12.7035 21.6985 12.8862 21.6711 13.078C21.4427 14.01 20.9584 14.8323 20.2184 15.5267C19.5697 16.1297 18.7565 16.6231 17.7789 17.0068C17.0023 17.3083 16.0978 17.5641 15.0471 17.7651C15.3486 17.7651 15.8237 17.7469 16.4632 17.7103C17.1028 17.6738 17.5779 17.6555 17.8885 17.6555C18.6103 17.6555 19.259 17.4362 19.8529 16.9977C20.3645 16.6231 20.8122 16.0931 21.196 15.417C21.4609 14.8597 21.6619 14.2567 21.799 13.6171C21.9269 12.9775 21.9909 12.3106 21.9909 11.6162L22 11.6071ZM11.0087 8.28133C11.0087 8.28133 11.0361 8.33615 11.0361 8.36356V8.42752C11.0361 8.55544 10.9813 8.67421 10.8625 8.79298C10.8442 8.81125 10.7346 8.90263 10.5244 9.05795C10.36 9.12191 10.2321 9.16759 10.1224 9.20414C10.0128 9.23155 9.90315 9.24068 9.80265 9.2224C10.1133 9.03053 10.4331 8.84781 10.7437 8.65594C10.6249 8.63767 10.4879 8.61027 10.3234 8.58286C10.159 8.55545 10.0402 8.53716 9.95797 8.53716C9.8392 8.53716 9.72042 8.55544 9.61078 8.60112C9.6656 8.4458 9.72042 8.3453 9.77524 8.29048C9.83006 8.23566 9.89402 8.20825 9.97624 8.20825C10.0767 8.18084 10.1681 8.1717 10.2503 8.1717C10.3326 8.1717 10.4605 8.18997 10.6249 8.22652C10.7894 8.26306 10.9265 8.28133 11.0178 8.28133H11.0087ZM18.8661 9.82542C18.8661 9.09449 18.7656 8.43667 18.5738 7.83365C18.3454 7.16668 18.0164 6.60021 17.5596 6.11597C17.4043 6.47229 17.3038 6.81036 17.2581 7.15755C17.2124 7.49561 17.185 7.90674 17.185 8.37271C17.185 8.57371 17.2033 8.99399 17.2398 9.65182C17.2764 10.3005 17.2947 10.7665 17.2947 11.0315C17.3952 10.9675 17.4591 10.8396 17.5048 10.6569C17.5413 10.465 17.5688 10.2274 17.5688 9.92594C17.5688 9.68839 17.5505 9.45084 17.5413 9.21329C17.5413 8.9666 17.5322 8.72903 17.5322 8.48234C17.5322 8.13515 17.5596 7.82453 17.6144 7.55956C17.9342 8.13517 18.1626 8.61026 18.2997 8.97572C18.5007 9.50565 18.5921 10.0264 18.5921 10.5381V10.7025C18.5921 10.7756 18.5921 10.8487 18.5829 10.9127C18.4733 11.4335 18.19 11.8994 17.7332 12.3106C17.2764 12.7217 16.7921 12.9684 16.2805 13.0506C16.2805 12.9684 16.3536 12.7217 16.4724 12.2923C16.5546 11.9908 16.5911 11.735 16.5911 11.5248C16.5911 11.4883 16.5911 11.4335 16.582 11.3512C16.4724 11.2142 16.3353 11.1502 16.1617 11.1502C16.0612 11.1502 15.9333 11.1776 15.7688 11.2325C15.4308 11.3512 15.2206 11.4061 15.1384 11.4061C15.0379 11.6436 14.9648 11.8446 14.9191 12.0365C14.8735 12.2192 14.846 12.4111 14.846 12.5938C15.0014 12.5938 15.1658 12.6486 15.3486 12.7674C15.4308 12.8222 15.5222 12.8862 15.6318 12.9593C15.0105 13.608 14.243 14.147 13.3111 14.5765C12.5984 14.8962 11.7305 15.1886 10.698 15.4536C11.5477 14.7318 12.1964 13.9278 12.635 13.0324C12.836 12.6395 12.9822 12.2558 13.0827 11.8903C13.1832 11.5248 13.2563 11.1045 13.302 10.6477C13.1466 10.5381 12.9822 10.4833 12.7903 10.4833C12.571 10.4833 12.3243 10.5472 12.0411 10.6751C11.7579 10.803 11.4929 10.9218 11.2554 11.0406C10.8899 11.2325 10.5975 11.5157 10.3783 11.8903C10.2229 12.1644 10.095 12.5481 9.98538 13.0232C9.92143 13.2882 9.87574 13.5349 9.8392 13.7724C9.80265 14.01 9.7661 14.2475 9.73869 14.4759C9.71128 14.7135 9.64733 14.8414 9.55596 14.878C9.3915 14.9054 9.23618 14.9328 9.08086 14.9602C8.86158 14.878 8.70626 14.7592 8.60576 14.5856C8.50525 14.4211 8.45043 14.1288 8.45043 13.6994V13.1877C8.45043 13.1329 8.45043 13.078 8.4413 13.0232C7.7926 13.0232 7.21699 13.2973 6.71448 13.8455C6.28506 14.3115 5.96528 14.8962 5.77341 15.5998C5.43536 16.221 4.85975 16.6961 4.0466 17.0433C3.36135 17.29 2.68524 17.5276 2 17.7743C2.41115 17.8474 2.82229 17.8839 3.2243 17.8839C3.82732 17.8839 4.38465 17.8199 4.8963 17.6829C5.30745 17.4453 5.65464 17.0799 5.9196 16.5682C6.01096 16.4038 6.1937 15.9561 6.46779 15.2069C6.6688 14.9328 6.91549 14.7135 7.20786 14.5673C7.50023 14.4211 7.82001 14.3298 8.1672 14.3023C8.20375 14.6313 8.24029 14.9602 8.27684 15.2891C8.3408 15.6546 8.50525 15.9378 8.77935 16.1205C8.84331 16.1571 8.90726 16.1754 8.98036 16.1754C9.00777 16.1754 9.09 16.1571 9.21791 16.1297C9.34582 16.1023 9.44632 16.0931 9.51941 16.1297V16.3946C9.51941 16.3946 9.52855 16.6048 9.54682 16.9246C9.54682 17.0068 9.54682 17.1073 9.54682 17.2169C9.59251 17.0251 9.63819 16.8332 9.69301 16.6322C9.74783 16.4312 9.77524 16.2302 9.77524 16.0474C10.8168 15.8099 11.8584 15.5815 12.9 15.3439C14.0968 15.0333 15.0014 14.5034 15.6227 13.7633C15.8693 13.8181 16.0247 13.8455 16.0978 13.8547C16.1709 13.8547 16.2622 13.8638 16.381 13.8638C16.5089 13.8638 16.6368 13.8547 16.7739 13.8273C17.1119 13.7268 17.4317 13.5714 17.7149 13.3522C17.9982 13.1329 18.2266 12.8679 18.391 12.539C18.7108 11.6436 18.8753 10.73 18.8753 9.8163L18.8661 9.82542ZM12.8177 11.6619C12.571 12.2101 12.2513 12.7308 11.831 13.2151C11.3102 13.8272 10.6889 14.3206 9.96711 14.6952C9.96711 14.147 10.0493 13.6719 10.2138 13.2699C10.4239 12.7583 10.7437 12.3928 11.1731 12.1644C11.6757 11.8903 12.2238 11.7258 12.8177 11.6619Z" fill="white"/>
</svg>
