<svg width="24" height="24" viewBox="0 0 24 24" fill="none" xmlns="http://www.w3.org/2000/svg">
<path fill-rule="evenodd" clip-rule="evenodd" d="M20.4304 3.40308C20.2521 4.18786 19.9905 5.04398 19.6219 5.95956C19.2652 6.87513 18.9084 7.76693 18.5755 8.62305C18.5755 8.21877 18.635 7.81449 18.7658 7.38643C18.8847 6.97026 19.063 6.5422 19.3008 6.12603C18.5161 6.83946 17.5291 7.4221 16.3163 7.87395C15.9001 8.02852 14.7824 8.34957 12.9631 8.86087C14.6159 8.00475 16.2687 7.14862 17.9215 6.29249L17.874 6.25682C18.4328 6.05468 18.956 5.66229 19.4554 5.06776C19.9073 4.52079 20.2045 3.96193 20.3472 3.40308H20.4304ZM21.5482 15.258C21.5838 15.0083 21.5957 14.7705 21.5957 14.5208C21.5957 13.3436 21.2152 12.2735 20.4542 11.3103C20.371 11.6789 20.3353 12.0832 20.3353 12.5232C20.3353 12.761 20.3353 12.9988 20.3472 13.2366C20.3472 13.4863 20.371 13.7241 20.3829 13.95C20.3829 14.3068 20.3591 14.604 20.3115 14.8299C20.264 15.0559 20.1688 15.2937 20.0143 15.5434V12.9869C20.0143 12.2497 20.038 11.6314 20.0737 11.1201C20.1094 10.6088 20.2045 10.0975 20.3472 9.56241C20.8942 10.1213 21.3103 10.8109 21.5838 11.6195C21.8573 12.4281 22 13.2842 22 14.1997C22 15.4364 21.7622 16.5303 21.2985 17.4816C20.918 18.4209 20.2996 19.1106 19.4792 19.5624C18.8133 19.931 17.9334 20.1807 16.8514 20.2758C16.2687 20.3353 15.3294 20.3591 14.0333 20.3591C15.4245 20.0143 16.4352 19.7289 17.0654 19.503C18.2307 19.0868 19.1581 18.5755 19.8478 17.981C20.7158 17.2437 21.2747 16.3282 21.5482 15.2461V15.258ZM18.3734 15.4126C18.6468 14.6754 18.7776 13.8906 18.7776 13.0583C18.7776 12.3686 18.6706 11.7027 18.4566 11.0487C18.2426 10.3948 17.9215 9.85967 17.5054 9.43161C17.4102 9.7051 17.327 9.96669 17.2438 10.2164C17.1367 11.025 17.0773 11.5006 17.0654 11.6314C17.0178 12.0951 16.9941 12.5588 16.9941 13.0107C16.9941 13.2842 16.9941 13.5577 17.0297 13.8549C17.0535 14.1522 17.0892 14.4019 17.1367 14.6278C17.2556 13.4506 17.3746 12.2616 17.5054 11.0844C17.7551 11.3103 17.9334 11.6314 18.0642 12.0476C18.1474 12.4043 18.2307 12.7729 18.3258 13.1296C18.3734 13.308 18.3971 13.4982 18.3971 13.7122C18.3971 14.069 18.3258 14.4019 18.1831 14.6992C18.0404 14.9964 17.8264 15.2818 17.5291 15.5791C17.3032 15.7455 17.0654 15.8288 16.7919 15.8288C16.6611 15.8288 16.566 15.8288 16.5065 15.7931C15.7574 15.044 15.2818 13.7122 15.0916 11.7978C14.9489 10.5018 14.8181 9.63375 14.7111 9.18191C14.5565 9.39594 14.4495 9.60997 14.39 9.82401C14.3306 10.038 14.3068 10.2759 14.3068 10.5137C14.3068 10.7515 14.4257 11.4292 14.6516 12.4756C14.7586 12.9393 14.8062 13.3317 14.8062 13.629C14.5208 14.176 14.1046 14.6397 13.5458 14.9964C13.4269 14.7586 13.2723 14.5802 13.0583 14.4376C12.8561 14.2949 12.6302 14.2235 12.3805 14.2235C12.1189 14.4019 11.9524 14.6754 11.8692 15.0678C11.8335 15.2818 11.786 15.6147 11.7146 16.0666C11.7622 16.2687 11.8454 16.3995 11.9643 16.4471C12.0832 16.5065 12.2497 16.5303 12.4756 16.5303C12.6421 16.5303 12.7848 16.5065 12.9037 16.4946C13.0226 16.4946 13.1296 16.4828 13.2128 16.4828C12.8561 17.5291 12.1546 18.3852 11.1082 19.063C10.2521 19.61 9.22949 20.0261 8.04043 20.2877C8.19501 20.264 8.3258 20.2521 8.4566 20.2521H9.68133C10.0975 20.2521 10.4542 20.2283 10.7277 20.1926C11.0131 20.1569 11.2747 20.0618 11.5125 19.9191C12.1427 19.5862 12.6302 19.063 12.9869 18.3377C13.2604 17.7788 13.4507 17.0773 13.5815 16.2568C13.9382 15.9477 14.2235 15.6385 14.4495 15.3294C14.6754 15.0083 14.8419 14.6635 14.937 14.283L15.3769 16.019C15.5553 16.3401 15.7455 16.5898 15.9596 16.7681C16.2449 17.0178 16.5541 17.1367 16.9108 17.1367C17.2675 17.1367 17.5767 16.9346 17.8621 16.5184C18.0285 16.2806 18.2069 15.912 18.3853 15.4007L18.3734 15.4126ZM10.6207 10.1569C10.5256 10.5255 10.4661 10.7515 10.4423 10.8109C10.3591 11.0606 10.264 11.2271 10.1451 11.3222C10.0618 11.0963 9.89536 10.9893 9.63377 10.9893C9.57432 10.9893 9.51486 10.9893 9.45541 11.025C9.39596 11.0487 9.32461 11.0725 9.27705 11.1082C9.00357 11.2866 8.76576 11.5244 8.53983 11.8097C8.37337 12.0238 8.19501 12.3091 8.01665 12.654C8.26635 11.7978 8.57551 11.1439 8.94411 10.6801C9.25327 10.2996 9.62188 10.0261 10.0499 9.85968C10.1926 9.85968 10.3115 9.88346 10.4067 9.91913C10.5018 9.9548 10.5731 10.038 10.6326 10.1569H10.6207ZM5.09156 10.4423L5.044 10.8585C4.96076 10.8228 4.88942 10.799 4.81807 10.7753C4.74673 10.7515 4.68728 10.7396 4.63971 10.7396C4.52081 10.7396 4.44947 10.8109 4.41379 10.9536C4.39001 11.2747 4.37812 11.5838 4.36623 11.8811C4.33056 12.2378 4.24732 12.4994 4.10464 12.654C4.04518 12.5945 3.89061 12.321 3.65279 11.8454C3.47444 11.5006 3.24851 11.346 2.95125 11.4055C2.86801 11.3817 2.82045 11.3341 2.79667 11.2509C2.79667 11.1082 2.83234 10.9655 2.85612 10.8228C2.8799 10.6801 2.96314 10.585 3.09394 10.5374C3.29608 10.6445 3.47444 10.8585 3.6409 11.1676C3.86683 11.6195 3.99762 11.8811 4.05708 11.9524C4.12842 11.5481 4.18787 11.1914 4.23543 10.9061C4.283 10.6207 4.41379 10.3948 4.59215 10.2283C4.68728 10.2164 4.77051 10.2283 4.84186 10.264C4.9132 10.2996 4.99643 10.3591 5.10345 10.4423H5.09156ZM9.77646 14.2949L9.63377 15.1867C8.86088 15.5077 8.26635 15.8644 7.86207 16.233C7.30321 16.7443 7.01784 17.3508 7.01784 18.0523C6.9346 18.516 6.75624 18.9441 6.47087 19.3246C6.18549 19.7051 5.81688 19.9786 5.38882 20.1451C4.94887 20.3115 4.42568 20.4304 3.83115 20.4899C3.22473 20.5612 2.61831 20.5969 2 20.5969C3.28419 20.1807 4.22354 19.7883 4.81807 19.4435C5.82878 18.849 6.50654 18.088 6.85137 17.1724C7.1843 16.1379 7.38644 15.5434 7.48157 15.4126C7.6956 15.0559 7.98098 14.8062 8.33769 14.6397C8.43282 14.6397 8.67063 14.5208 9.05113 14.3305C9.24138 14.2354 9.38407 14.1879 9.49108 14.1879C9.58621 14.1879 9.68133 14.2235 9.77646 14.2949Z" fill="white"/>
</svg>
