<svg width="24" height="24" viewBox="0 0 24 24" fill="none" xmlns="http://www.w3.org/2000/svg">
<path fill-rule="evenodd" clip-rule="evenodd" d="M21.7064 12.1835C21.7169 12.1101 21.7274 12.0472 21.7326 11.9843C21.7379 11.9266 21.7431 11.8532 21.7431 11.7694C21.7431 11.4548 21.6907 11.156 21.5911 10.8729C21.4915 10.5898 21.3342 10.3015 21.1298 10.0184C21.0773 10.3539 21.0354 10.7366 21.0092 11.1665C20.983 11.5964 20.9672 12.021 20.9672 12.4404L20.8781 12.54C20.7942 12.1259 20.7523 11.6645 20.7523 11.156C20.7523 10.3696 20.8467 9.59374 21.0406 8.83359C21.3604 9.16911 21.5963 9.57801 21.7588 10.0551C21.9214 10.5321 22 11.0302 22 11.5544C22 11.8795 21.9738 12.1835 21.9214 12.4771C21.8689 12.7707 21.7851 13.059 21.6802 13.3526C21.5177 13.7615 21.3185 14.118 21.0878 14.422C20.8047 14.789 20.4849 15.0564 20.1232 15.2241C19.5885 15.3971 18.865 15.5492 17.9528 15.6855C17.5072 15.7432 17.0668 15.8061 16.6212 15.8742C17.1298 15.7065 17.6435 15.5387 18.1625 15.3709C18.7706 15.1612 19.2792 14.9463 19.7038 14.7209C20.2438 14.4168 20.6737 14.0918 20.9934 13.73C21.3814 13.2844 21.6225 12.7707 21.7117 12.1888L21.7064 12.1835ZM17.114 9.31065C16.7785 9.36307 16.443 9.42074 16.1075 9.47316C16.0288 9.53083 15.9659 9.61471 15.924 9.7248C15.8768 9.8349 15.8191 10.0027 15.751 10.2281C15.7562 10.2281 15.772 10.2333 15.7982 10.2438H15.8768C15.9554 10.2438 16.0917 10.2176 16.291 10.1704C16.4902 10.1232 16.637 10.097 16.7418 10.097C16.8257 10.0551 16.8886 9.97644 16.9358 9.85587C16.983 9.73529 17.0406 9.5518 17.1193 9.30541L17.114 9.31065ZM14.2412 9.45219C14.2516 9.49938 14.2307 9.56229 14.173 9.63568C14.1153 9.70908 14.0524 9.7615 13.9895 9.78771L11.8453 10.789L11.9659 10.5217L14.2412 9.45219ZM19.4207 10.6422C19.4207 10.1809 19.3263 9.70383 19.1429 9.22152C18.9803 8.80213 18.7654 8.39846 18.4928 8.00528C18.3932 8.30934 18.3145 8.66583 18.2569 9.0695C18.2045 9.47317 18.1782 10.0446 18.1782 10.7838V11.7117C18.2674 10.8467 18.3617 9.98169 18.4561 9.11144C18.713 9.48365 18.9017 9.89256 19.0118 10.3434C19.1271 10.7943 19.1848 11.2818 19.1848 11.8008C19.1848 12.1311 19.0275 12.4456 18.7077 12.7392C18.4928 12.9384 18.1992 13.1324 17.8322 13.3264C17.8375 13.2897 17.8637 13.1586 17.9109 12.928C17.9581 12.6973 17.9843 12.5295 17.9843 12.4194C17.9843 12.3146 17.9685 12.215 17.9371 12.1206C17.9056 12.021 17.8585 11.9371 17.7851 11.8637C17.6907 11.7641 17.5649 11.7169 17.4076 11.7169H17.3657C17.3657 11.7169 17.3237 11.7169 17.308 11.7274C16.9882 11.9581 16.7785 12.3041 16.6789 12.7707C16.6212 13.0433 16.5898 13.4522 16.5898 13.9974C16.4902 14.0708 16.3591 14.1075 16.2123 14.1075C16.0865 14.097 15.9607 14.0813 15.8349 14.0708C15.709 14.0289 15.6252 13.9817 15.578 13.924C15.5308 13.8663 15.5098 13.7982 15.5098 13.7143C15.5098 13.6409 15.536 13.5361 15.5832 13.3893C15.6304 13.2425 15.6566 13.1376 15.6566 13.0643C15.6566 12.9699 15.6304 12.8913 15.578 12.8283C15.2792 12.9542 14.8807 13.1796 14.3827 13.4994C13.7693 13.8926 13.3814 14.1285 13.2136 14.2124C12.768 14.443 12.3381 14.5846 11.924 14.637C11.7877 14.6632 11.6619 14.6789 11.5518 14.6842C11.4417 14.6947 11.3368 14.6999 11.232 14.6999C10.865 14.6999 10.54 14.637 10.2464 14.5112C9.95282 14.3853 9.72739 14.1757 9.56488 13.8926C9.29751 13.3998 9.11402 12.7812 9.0249 12.0262C8.97772 11.6173 8.94102 10.9515 8.91481 10.0236C8.8886 9.09571 8.84142 8.41418 8.77326 7.97382L8.43775 8.77067C8.43775 8.94892 8.47969 9.44695 8.56357 10.2595C8.60026 10.6108 8.61599 10.9044 8.61599 11.1508C8.61599 11.7903 8.63696 12.3513 8.68414 12.8388C8.73132 13.3264 8.83093 13.7563 8.99345 14.139C9.1979 14.6108 9.49672 14.9987 9.89515 15.2923C10.3093 15.4601 10.7235 15.5439 11.1376 15.5439C11.3893 15.5439 11.6356 15.5177 11.8716 15.4653C12.1075 15.4129 12.3486 15.3342 12.595 15.2346C12.983 15.0774 13.3971 14.8624 13.8375 14.5846C14.1258 14.4011 14.5085 14.139 14.9803 13.7982C15.0957 13.751 15.1743 13.7248 15.2215 13.7248C15.3159 13.7248 15.363 13.7982 15.363 13.9397C15.3578 14.0131 15.3526 14.0813 15.3473 14.1547C15.3421 14.2281 15.3368 14.2962 15.3368 14.3696C15.3368 14.485 15.3526 14.5793 15.384 14.658C15.4155 14.7366 15.4784 14.7943 15.5675 14.831C15.73 14.9201 15.9083 14.9673 16.1075 14.9673C16.3067 14.9673 16.4954 14.9201 16.6579 14.831C16.8309 14.658 17.2031 14.4483 17.7746 14.2019C18.2621 13.9869 18.6081 13.7143 18.8231 13.3893C19.038 13.0642 19.19 12.7182 19.2896 12.3565C19.3893 11.9895 19.4364 11.5964 19.4364 11.1665C19.4364 10.9987 19.4259 10.8257 19.4102 10.6527L19.4207 10.6422ZM14.9541 15.0983L14.713 15.8795L13.5334 16.0262C13.5334 15.8742 13.5544 15.7222 13.6016 15.5754C13.6488 15.4286 13.7221 15.3028 13.8218 15.1979C14.1468 15.1612 14.4718 15.1245 14.8021 15.0878C14.8702 15.0878 14.9174 15.0878 14.9541 15.0983ZM4.64744 9.42598C4.62123 9.59898 4.60026 9.74053 4.56881 9.85587C4.5426 9.96596 4.49541 10.0918 4.42726 10.2386L3.3578 10.3644C3.34731 10.291 3.34207 10.2333 3.34207 10.1914C3.34207 9.89256 3.44168 9.67762 3.64613 9.54132C3.72477 9.52559 3.88204 9.50462 4.11271 9.4889C4.34862 9.47317 4.52163 9.45219 4.6422 9.42598H4.64744ZM7.63565 12.1154C7.64089 12.1992 7.64613 12.2674 7.65138 12.3251C7.65138 12.3827 7.65138 12.4299 7.65138 12.4719C7.65138 12.5977 7.64089 12.7025 7.61992 12.7864C7.59895 12.8703 7.55701 12.9437 7.49934 13.0118C7.37877 13.0276 7.26868 13.0695 7.16907 13.1272C7.06946 13.1848 6.96986 13.2687 6.86501 13.3736C6.7654 13.4784 6.66579 13.5833 6.57667 13.6829C6.48755 13.7825 6.39843 13.8821 6.31455 13.9817C6.21494 14.0813 6.11533 14.1652 6.02097 14.2228C5.92661 14.2805 5.83748 14.3067 5.74836 14.3067C5.52294 14.3067 5.29751 14.1547 5.08257 13.8454C5.05636 13.8087 5.01442 13.7248 4.95151 13.5885C4.8886 13.4522 4.82045 13.3631 4.74705 13.3159C4.42726 13.3998 4.19135 13.751 4.03408 14.3749C3.8768 14.9987 3.64613 15.308 3.33159 15.308C3.19528 15.308 3.02752 15.2713 2.83879 15.1927C2.58716 15.0511 2.3827 14.8572 2.23067 14.616C2.07864 14.3749 2 14.1075 2 13.8139C2 13.3736 2.08388 12.9804 2.25688 12.6344C2.42988 12.2884 2.69201 12.0158 3.04325 11.8218C3.33683 11.7432 3.61468 11.5911 3.87156 11.3709C4.12844 11.1508 4.31193 10.8991 4.42202 10.6213C4.40629 10.7576 4.36435 10.8939 4.31193 11.0197C4.25426 11.1508 4.18611 11.2608 4.10747 11.3552C4.02883 11.4496 3.92398 11.5439 3.80341 11.6383C3.70904 11.7169 3.58847 11.8008 3.44168 11.8952C3.30013 11.9895 3.1848 12.0577 3.10616 12.1049C2.98034 12.1835 2.85976 12.2674 2.74443 12.3618C2.6291 12.4561 2.53473 12.5557 2.45085 12.6606C2.37222 12.7654 2.30406 12.886 2.25688 13.0276C2.24115 13.0695 2.22543 13.1272 2.22018 13.1953C2.21494 13.2635 2.2097 13.3002 2.2097 13.3054C2.2097 13.4312 2.23591 13.557 2.29358 13.6881C2.35125 13.8192 2.42464 13.9345 2.52425 14.0341C2.72346 14.2805 2.95937 14.4011 3.23722 14.4011C3.3211 14.4011 3.39974 14.3906 3.47313 14.3644C3.57274 14.2438 3.67235 14.0656 3.77195 13.8349C3.87156 13.557 3.9502 13.3578 3.99738 13.232C4.0865 12.9909 4.18087 12.8179 4.28571 12.7078C4.42202 12.5557 4.6055 12.4666 4.83617 12.4404C4.95151 12.6501 5.06684 12.8598 5.18742 13.0695C5.34993 13.3002 5.55439 13.3998 5.80079 13.3736C5.93185 13.384 6.06291 13.3369 6.18873 13.232C6.23067 13.1953 6.33028 13.0852 6.49279 12.8965C6.49279 12.7392 6.50328 12.6029 6.52425 12.4928C6.54522 12.3775 6.58191 12.2255 6.63434 12.0315C6.70249 12.0682 6.79685 12.0892 6.91743 12.1049C7.03801 12.1154 7.1114 12.1206 7.12713 12.1206C7.17955 12.1206 7.26343 12.1206 7.37877 12.1101C7.4941 12.1049 7.57274 12.0996 7.61992 12.0996L7.63565 12.1154ZM17.6488 12.8912C17.5754 12.713 17.4338 12.6186 17.2189 12.6186C17.1193 12.6501 17.0354 12.7182 16.9725 12.8231C16.9096 12.9279 16.8729 13.038 16.8624 13.1534C16.9463 13.3526 17.0931 13.4522 17.2923 13.4522C17.4024 13.3526 17.4758 13.2739 17.5282 13.2268C17.6225 13.1376 17.6697 13.0538 17.6697 12.9751C17.6697 12.9594 17.6645 12.928 17.654 12.8965L17.6488 12.8912Z" fill="white"/>
</svg>
