<svg width="24" height="24" viewBox="0 0 24 24" fill="none" xmlns="http://www.w3.org/2000/svg">
<path fill-rule="evenodd" clip-rule="evenodd" d="M17.1788 8.31936L16.8127 9.25994L15.5061 9.4458C15.5061 9.27683 15.5398 9.1135 15.6018 8.95016C15.6638 8.78683 15.7539 8.62349 15.8609 8.47142C16.0805 8.47142 16.3002 8.45453 16.5199 8.42073C16.7395 8.38694 16.9592 8.35879 17.1788 8.32499V8.31936ZM21.938 10.775C21.8592 10.2512 21.724 9.7612 21.5213 9.30499C21.3241 8.84879 21.0594 8.44326 20.7384 8.08843C20.5244 9.08534 20.4173 10.1442 20.4173 11.2537C20.4173 11.7043 20.4342 12.1436 20.4737 12.5717C20.5807 12.2112 20.6595 11.6536 20.699 10.8989C20.7384 10.1442 20.7722 9.67672 20.7947 9.49649C21.1608 10.0428 21.4142 10.5328 21.5607 10.9552C21.679 11.2988 21.7353 11.6255 21.7353 11.9409C21.7353 12.0479 21.7353 12.1324 21.724 12.183C21.7184 12.2337 21.7071 12.3182 21.6846 12.4365C21.5494 13.1067 21.2509 13.6925 20.7947 14.1881C20.4061 14.6162 19.8936 14.9823 19.2571 15.2977C18.8854 15.4892 18.4855 15.6638 18.0574 15.8102C17.742 15.9172 17.3196 16.0468 16.8015 16.1876C16.3959 16.2889 15.9904 16.396 15.5849 16.5086C16.058 16.5086 16.6494 16.4579 17.3703 16.3565C18.0912 16.2551 18.6995 16.1425 19.1952 16.013C19.8203 15.8609 20.3216 15.6243 20.7046 15.3089C21.1495 14.9372 21.448 14.4247 21.6057 13.7826C21.8705 13.1067 22 12.3914 22 11.6424C22 11.3495 21.9831 11.0679 21.9437 10.7806L21.938 10.775ZM13.929 8.26303C13.8333 8.4151 13.7094 8.55028 13.5686 8.65729C13.4221 8.76431 13.2532 8.87131 13.0504 8.96706C12.6899 9.14166 12.3295 9.31625 11.9747 9.49085C12.0535 9.34441 12.1662 9.20925 12.3126 9.09661C12.459 8.98396 12.6336 8.88258 12.8364 8.79246C13.0898 8.68545 13.2757 8.60097 13.3996 8.55028C13.6249 8.45453 13.8051 8.35879 13.929 8.25741V8.26303ZM14.7119 10.1217C14.6781 10.2287 14.6105 10.3695 14.5092 10.5385C14.3571 10.7975 14.267 10.944 14.2501 10.9721C14.1262 10.9327 13.9966 10.8764 13.8558 10.8032C13.715 10.7299 13.5798 10.6455 13.4503 10.5441L13.9741 9.72177C14.0811 9.73867 14.2106 9.795 14.3515 9.88511C14.5711 10.0259 14.695 10.1048 14.7175 10.116L14.7119 10.1217ZM19.2402 10.4596C19.2402 9.88511 19.1614 9.33315 19.0037 8.80372C18.846 8.27429 18.6207 7.81246 18.3222 7.42947C18.1814 8.05465 18.08 8.5728 18.0237 8.98395C17.9392 9.55281 17.8997 10.0822 17.8997 10.5779C17.8997 11.0735 17.9392 11.5128 18.0237 11.9521C18.0518 11.7381 18.0969 11.1918 18.1701 10.3075C18.2208 9.64856 18.2884 9.1135 18.3616 8.70234C18.5306 9.06281 18.6601 9.44017 18.7558 9.84006C18.8347 10.1724 18.8966 10.5779 18.9473 11.0566C18.9473 11.7212 18.722 12.3633 18.2771 12.9659C17.8265 13.5686 17.2858 14.0023 16.6494 14.267C16.7001 14.1093 16.7564 13.9403 16.8127 13.7713C16.8691 13.5967 16.8972 13.4334 16.8972 13.2757C16.717 13.5967 16.4635 13.8502 16.1312 14.0417C15.8046 14.2276 15.4497 14.3402 15.078 14.3796C15.1569 14.0361 15.2357 13.6981 15.3202 13.3546C15.3202 13.2701 15.2977 13.1969 15.247 13.1293C15.1963 13.0617 15.1174 13.011 15.0104 12.9716C14.9203 12.9265 14.8246 12.904 14.7288 12.904C14.6049 12.904 14.481 12.9378 14.3458 12.9997C14.2106 13.0617 14.0867 13.1293 13.9628 13.1912C13.9572 13.2363 13.9121 13.3658 13.8389 13.5855C13.7882 13.7319 13.7601 13.8615 13.7601 13.9741C13.7601 14.0248 13.7601 14.0642 13.7713 14.0924C13.9685 14.0924 14.1487 14.1712 14.3008 14.3233C14.0304 14.5092 13.7601 14.695 13.4954 14.8865C13.056 15.0611 12.6899 15.1794 12.3971 15.2357C12.1042 15.292 11.8395 15.3202 11.5973 15.3202C11.2368 15.3202 10.9045 15.2695 10.5948 15.1625C10.285 15.0555 10.0315 14.8865 9.81752 14.6387C9.58096 14.098 9.412 13.5348 9.32188 12.9434C9.22613 12.3577 9.18108 11.6931 9.18108 10.9665C9.18108 10.1104 9.17544 9.39512 9.15855 8.82063C9.14165 8.24615 9.09659 7.69418 9.01774 7.17038C8.95579 7.2436 8.88257 7.35062 8.80372 7.49706C8.69671 7.72235 8.63475 7.84061 8.61785 7.85751C8.61785 8.92763 8.64038 9.94143 8.67981 10.8989C8.71923 11.8564 8.79245 12.7801 8.89947 13.6756C9.12475 14.7007 9.25429 15.247 9.28809 15.3202C9.45142 15.6469 9.68234 15.8778 9.99211 16.0073C10.2118 16.1031 10.4314 16.1707 10.6455 16.2157C10.8595 16.2551 11.096 16.2777 11.3438 16.2777C11.7099 16.2777 12.0817 16.227 12.4534 16.1256C12.8251 16.0242 13.2025 15.8609 13.5742 15.6469C13.9459 15.4329 14.2782 15.1794 14.5711 14.8978V15.3315C14.65 15.3878 14.7344 15.416 14.8246 15.416C14.9034 15.416 14.9992 15.3991 15.1174 15.3596C15.3878 15.2695 15.5511 15.2188 15.6131 15.2132C16.12 15.0273 16.6325 14.8415 17.1507 14.6612C17.7477 14.4303 18.1757 14.0755 18.4348 13.608C18.6883 13.1405 18.8854 12.6393 19.0262 12.1155C19.167 11.5917 19.2346 11.0397 19.2346 10.4709L19.2402 10.4596ZM8.2067 15.3089C8.08279 15.523 7.99268 15.6807 7.92509 15.7877C7.80682 15.9848 7.68854 16.0749 7.559 16.0637C7.47451 16.0186 7.39566 15.9792 7.31681 15.9397C7.12532 15.8327 6.97888 15.7651 6.88876 15.7483C6.93382 15.5624 6.99578 15.3991 7.07463 15.2583C7.15348 15.1174 7.26612 14.9935 7.40693 14.8753C7.67164 15.0161 7.93636 15.1625 8.20107 15.3089H8.2067ZM7.66601 10.347C7.58716 10.6567 7.43509 10.944 7.19854 11.2143C6.96198 11.4847 6.69164 11.6593 6.38186 11.7494C6.30865 11.7888 6.25232 11.8057 6.20727 11.8057C6.10589 11.8057 5.99887 11.7156 5.89749 11.5353C5.83554 11.4171 5.79048 11.3495 5.76232 11.3213C5.6722 11.4058 5.60462 11.5466 5.55956 11.7494C5.48634 12.0704 5.45255 12.245 5.44128 12.2619C5.61025 12.5041 5.77922 12.7632 5.95945 13.0335C6.13968 13.3039 6.22416 13.5629 6.22416 13.822C6.22416 13.8952 6.22416 13.9459 6.2129 13.9854C6.06646 14.4134 5.81864 14.7908 5.47508 15.1287C5.11462 15.4892 4.73162 15.7088 4.32611 15.7877C4.26978 15.7989 4.17967 15.8046 4.06702 15.8046C3.79668 15.8046 3.54323 15.737 3.30104 15.5962C3.06449 15.4554 2.8561 15.2639 2.6815 15.0217C2.54633 14.8358 2.45058 14.6669 2.39426 14.5204C2.33793 14.374 2.30977 14.2163 2.30977 14.0586C2.30977 13.9347 2.32667 13.8051 2.36046 13.6643C2.39426 13.5235 2.47311 13.3602 2.59701 13.1687C2.69276 13.0166 2.82794 12.842 2.99127 12.6449C3.1884 12.4309 3.39116 12.2169 3.58828 11.9972C3.6953 11.8733 3.80231 11.7437 3.90932 11.6029C4.06139 11.3889 4.17967 11.1918 4.25852 11.0059C4.33737 10.8201 4.3768 10.6229 4.3768 10.4033C4.29794 10.4765 4.23599 10.5779 4.1853 10.713C4.04449 11.0679 3.96564 11.2594 3.94311 11.2932C3.49817 11.7437 3.16587 12.1098 2.94621 12.3971C2.76035 12.6336 2.60265 12.8702 2.47311 13.1011C2.32667 13.3714 2.20839 13.6531 2.12391 13.9516C2.03943 14.2501 2 14.5486 2 14.8527C2 15.0048 2.01126 15.1625 2.02816 15.3146C2.08448 15.5849 2.24219 15.8553 2.50127 16.12C2.71529 16.334 2.96874 16.5199 3.26725 16.6832C3.47564 16.7789 3.6953 16.8296 3.92622 16.8296C4.33174 16.8296 4.6922 16.7226 5.00197 16.503C5.31174 16.2889 5.56519 16.0411 5.76795 15.7595C5.96508 15.4779 6.12278 15.1681 6.22979 14.8302C6.33681 14.4923 6.41003 14.1656 6.44382 13.8558C6.47761 13.546 6.49451 13.1462 6.49451 12.6562C6.91129 12.4703 7.22106 12.1493 7.42382 11.6874C7.58716 11.3157 7.66601 10.8707 7.66601 10.3526V10.347ZM5.10335 13.4109C5.10335 13.4109 5.0245 13.5742 4.88933 13.884C4.79921 14.0755 4.69783 14.205 4.57955 14.267C4.52323 14.1769 4.43875 14.1093 4.33737 14.0642C4.1684 14.0023 4.00507 13.9347 3.84173 13.8615C3.89806 13.6812 3.96001 13.5292 4.0276 13.3996C4.08955 13.2701 4.17967 13.1349 4.29794 12.9885C4.34863 13.0279 4.47818 13.073 4.6922 13.1293C4.90059 13.1856 5.0414 13.2813 5.10335 13.4109Z" fill="white"/>
</svg>
