<svg width="24" height="24" viewBox="0 0 24 24" fill="none" xmlns="http://www.w3.org/2000/svg">
<path fill-rule="evenodd" clip-rule="evenodd" d="M17.1704 7.90741C17.2148 7.98149 17.2074 8.06293 17.1481 8.15182C17.0889 8.24071 17.0296 8.32221 16.9704 8.4037L16.9037 8.29998C16.7926 8.29998 16.6815 8.37405 16.5704 8.52961C16.6074 8.61109 16.6963 8.66296 16.8444 8.68518C16.9926 8.7 17.0889 8.73701 17.1333 8.79626C17.1333 9.0333 17.0519 9.25553 16.8815 9.45553C16.7111 9.65553 16.4963 9.81851 16.2444 9.92962C16.1852 9.92962 16.1037 9.94443 15.9926 9.96665C15.8815 9.98887 15.8074 10.0037 15.763 9.98889C15.837 9.92963 15.9926 9.84071 16.2222 9.72219C16.5852 9.53701 16.8 9.33701 16.8741 9.12219C16.8222 9.09997 16.7481 9.07036 16.6444 9.04814C16.4593 8.99628 16.3333 8.93702 16.2741 8.85554C16.3259 8.64072 16.437 8.44814 16.6074 8.26295C16.7778 8.07777 16.9704 7.95926 17.1778 7.9L17.1704 7.90741ZM11.9259 6.92963C11.8519 7.18889 11.6741 7.38149 11.4074 7.4926C11.2667 7.55186 11.0148 7.60369 10.6593 7.65554C10.9481 7.49998 11.237 7.35184 11.5333 7.19628C11.3926 7.12221 11.2222 7.08516 11.037 7.08516C10.8519 7.08516 10.6815 7.12221 10.5185 7.19628C10.5407 7.07777 10.6222 6.97408 10.7481 6.8926C10.7926 6.87038 10.9037 6.8111 11.0889 6.72961H11.3185C11.4815 6.72961 11.6074 6.73701 11.6963 6.75923C11.7852 6.78145 11.8667 6.84074 11.9333 6.92963H11.9259ZM22 11.537C22 10.8481 21.9111 10.1963 21.7407 9.56666C21.5704 8.93703 21.3111 8.3889 20.9704 7.91483C20.8741 7.92964 20.8148 8.01112 20.7852 8.14445C20.7556 8.27779 20.7185 8.44815 20.6667 8.64074C20.6667 8.98148 20.637 9.40368 20.5778 9.91479C20.4519 11.0111 20.3852 11.7148 20.3852 12.0259C20.3852 12.2185 20.3926 12.4111 20.4074 12.6037C20.4222 12.7963 20.4519 12.9741 20.4963 13.1445C20.5407 12.863 20.5926 12.2777 20.6593 11.3889C20.7259 10.5 20.8148 9.84073 20.9259 9.41851C21.1704 9.83332 21.363 10.2556 21.4889 10.6926C21.6222 11.1222 21.6889 11.5815 21.6889 12.0555C21.6889 12.3444 21.6519 12.6481 21.5852 12.9741C21.4667 13.4926 21.2296 13.9889 20.8889 14.4629C20.5778 14.8778 20.1852 15.2629 19.7185 15.6185C19.2889 15.9444 18.8148 16.2185 18.2963 16.4481C17.7778 16.6778 17.2593 16.8481 16.7481 16.9592C16.9037 16.8407 17.0296 16.7148 17.1407 16.574C17.2222 16.4703 17.3259 16.3296 17.4296 16.1519C17.7037 15.7445 17.9037 15.2778 18.037 14.7593C18.1704 14.2407 18.237 13.6926 18.237 13.1222C18.237 12.5518 18.1704 12.0111 18.037 11.4926C17.9037 10.9741 17.7037 10.5148 17.4296 10.1074C17.1185 10.5963 16.8963 11.2259 16.7704 11.9741C16.6741 12.537 16.6296 13.2333 16.6296 14.0704C16.8074 13.8852 16.9259 13.6111 16.9852 13.2407C17.1481 12.2259 17.237 11.6852 17.2667 11.6407C17.4815 11.9296 17.6296 12.2926 17.7111 12.737C17.7704 13.0481 17.8 13.4778 17.8 14.0111C17.6 14.537 17.3852 14.9444 17.1778 15.2481C16.8667 15.6778 16.4963 15.9444 16.0815 16.0481C16.0074 16.0704 15.9259 16.0852 15.837 16.0852C15.7037 16.0852 15.5778 16.0629 15.4519 16.0185C15.3333 15.974 15.2074 15.9074 15.0815 15.8185C15.2444 15.4556 15.3778 15.063 15.4889 14.6556C15.6 14.2481 15.6741 13.8482 15.7185 13.463C15.7185 12.9593 15.6889 12.5296 15.6296 12.1741C15.5704 11.8111 15.4444 11.5 15.2444 11.2407C14.9852 11.7593 14.8444 12.0259 14.837 12.0407C14.6148 12.5148 14.4444 12.9741 14.3185 13.4111C14.2519 13.6556 14.1926 13.9074 14.1556 14.1666C14.1111 14.4259 14.0889 14.6778 14.0889 14.9222C14.0889 15.2259 14.1185 15.5222 14.1778 15.8111C13.7259 16.1815 13.1407 16.4778 12.4222 16.7C11.7778 16.863 11.1407 17.0185 10.5037 17.1815C10.8741 17.1963 11.2 17.2185 11.4667 17.2333C11.7333 17.2481 12.0222 17.2556 12.3407 17.2556C12.8074 17.2556 13.2222 17.2111 13.5778 17.1148C13.9407 17.0185 14.2519 16.8481 14.5259 16.5963C14.6963 16.8704 14.8889 17.0556 15.0963 17.1593C15.3111 17.263 15.5556 17.3148 15.8444 17.3148C16.037 17.3148 16.5111 17.2333 17.2593 17.0704C17.5704 17.0037 17.837 16.9667 18.0593 16.9667C18.837 16.8555 19.437 16.7074 19.8519 16.5222C20.4815 16.2407 20.9111 15.8111 21.1333 15.2407C21.7037 14.1741 21.9852 12.937 21.9852 11.537H22ZM4.58519 7.95927C4.52593 8.13705 4.45926 8.3148 4.39259 8.49258C4.32593 8.67036 4.22222 8.82593 4.08889 8.96667C4.28148 8.67037 4.37778 8.31482 4.37778 7.90741C4.37778 7.72963 4.35556 7.58146 4.31111 7.46294C4.21481 7.24072 4.12593 7.01853 4.02963 6.80372C4.02963 6.70001 4.08889 6.61112 4.20741 6.52223C4.32593 6.6926 4.42222 6.87775 4.48889 7.08516C4.55556 7.29256 4.59259 7.51479 4.59259 7.73701C4.59259 7.83331 4.59259 7.9 4.57778 7.95185L4.58519 7.95927ZM14.5926 10.0037C14.363 10.1148 14.1407 10.2482 13.9185 10.4111C13.837 10.4704 13.4889 10.7444 12.8889 11.2407C12.8444 11.2185 12.8222 11.2037 12.8148 11.2185C12.8148 11.1518 12.8148 11.0333 12.8296 10.8555C12.837 10.6778 12.8444 10.5445 12.8444 10.4556C12.8444 10.2407 12.8296 10.0629 12.8 9.90738C12.7704 9.75182 12.7111 9.61111 12.6296 9.47778C12.3333 9.23333 11.9481 9.10741 11.4741 9.10741C11 9.10741 10.5852 9.21111 10.2296 9.42592C9.99259 9.53703 9.82963 9.75185 9.73333 10.0778C9.68148 10.2556 9.61482 10.537 9.53333 10.9148C9.64444 11.3296 9.93333 11.6481 10.4074 11.8778C10.8222 12.0407 11.2444 12.1963 11.6667 12.3519C11.3852 12.5963 11.1852 12.7593 11.0593 12.8481C10.8222 13.0111 10.5852 13.1222 10.363 13.1889C10.2444 13.2333 10.1037 13.2555 9.93333 13.2555C9.51852 13.2555 9.18519 13.1 8.92593 12.7815C8.68889 12.337 8.51111 11.8629 8.4 11.3518C8.28889 10.8407 8.2 10.2629 8.14074 9.63331C8.14074 8.54442 8.04444 7.42594 7.85926 6.2926C7.73333 6.47038 7.64444 6.66293 7.58519 6.85553C7.53333 7.05553 7.5037 7.26296 7.5037 7.48518C7.5037 7.67037 7.51852 7.87775 7.55556 8.10738C7.59259 8.33701 7.62963 8.58146 7.66667 8.84812C7.71111 9.10738 7.73333 9.35924 7.73333 9.59628C7.73333 9.67776 7.72593 9.79631 7.71111 9.95186C7.57778 10.1296 7.41481 10.3 7.22963 10.4629C7.04444 10.6037 6.85185 10.7593 6.65926 10.9148C6.46667 11.0704 6.2963 11.2259 6.14815 11.3667C5.96296 11.5518 5.81482 11.737 5.7037 11.9222C5.60741 12.1518 5.51852 12.3815 5.43704 12.6111C5.32593 12.9 5.27407 13.1296 5.27407 13.3074C5.27407 13.4037 5.28889 13.5074 5.32593 13.6185C5.36296 13.7296 5.40741 13.8333 5.48148 13.9148C5.54815 13.9741 5.60741 14.0111 5.65926 14.0259C5.71111 14.0408 5.79259 14.0481 5.91111 14.0481H6.12593C6.23704 14.0481 6.34074 14.0629 6.44444 14.0852C6.66667 14.1666 6.78519 14.3296 6.81482 14.5592C6.6 15.0481 6.36296 15.4555 6.08889 15.7667C5.72593 16.1815 5.33333 16.4111 4.9037 16.4481C4.73333 16.5 4.57037 16.5222 4.42222 16.5222C3.99259 16.5222 3.62963 16.3815 3.34074 16.0926C3 15.7518 2.76296 15.4259 2.62222 15.1074C2.48148 14.7889 2.41481 14.4555 2.41481 14.0926C2.41481 13.7963 2.48889 13.4852 2.64444 13.1667C2.76296 12.9148 2.94815 12.6185 3.19259 12.2778C3.65185 11.6926 4.11111 11.1074 4.57778 10.5222C4.82222 10.2185 5.03704 9.9148 5.20741 9.60369C5.38519 9.29999 5.5037 9.00368 5.57037 8.71479C5.47407 8.96665 5.34815 9.21852 5.18519 9.47778C5.02222 9.72963 4.84444 9.98148 4.65185 10.2185L3.42963 11.6037C3.20741 11.8556 3.01481 12.1 2.85185 12.337C2.68889 12.5667 2.53333 12.8185 2.4 13.0778C2.14815 13.5889 2.01481 14.1815 2.01481 14.8556C2.00741 14.9148 2 14.9963 2 15.1074C2 15.5963 2.14074 16.0629 2.42222 16.4926C2.66667 16.8778 3.01481 17.2111 3.46667 17.5074C3.6 17.5889 3.72593 17.6481 3.84444 17.6704C3.96296 17.6926 4.11111 17.7074 4.27407 17.7074C4.47407 17.7074 4.68889 17.6778 4.8963 17.6259C5.11111 17.5741 5.3037 17.5 5.4963 17.4037C6.11852 16.9593 6.56296 16.3741 6.82963 15.6259C7.05926 15.0037 7.17037 14.2704 7.17037 13.4111C7.12593 13.1074 6.91852 12.9296 6.53333 12.8926C6.14815 12.8481 5.91852 12.8111 5.83704 12.7815C6.47407 12.0259 7.11111 11.2704 7.75556 10.5222C7.85926 11.2037 7.96296 11.8778 8.07407 12.5518C8.14815 12.9148 8.26667 13.2481 8.42222 13.537C8.57778 13.8259 8.8 14.0778 9.07407 14.2778C9.20741 14.337 9.32593 14.3741 9.42222 14.3889C9.51852 14.4037 9.62963 14.4111 9.75556 14.4111C10.1852 14.4111 10.637 14.2407 11.1037 13.8926C11.3407 13.7148 11.7333 13.3518 12.2741 12.8037C12.2741 12.8407 12.2815 12.8852 12.2963 12.9593V13.1C12.2963 13.2111 12.2815 13.3815 12.2444 13.6111C12.1852 14.0185 12.1556 14.2852 12.1556 14.4111C12.1556 14.4259 12.1556 14.4926 12.1704 14.6111C12.1778 14.7296 12.1926 14.8259 12.2222 14.9074C12.2889 14.7815 12.3333 14.6481 12.3407 14.5074C12.3556 14.3667 12.363 14.1741 12.363 13.9148C12.3037 13.7296 12.2741 13.5444 12.2741 13.3667C12.2741 12.9148 12.5259 12.4778 13.0222 12.0555C14.0815 11.1592 14.6148 10.5296 14.6148 10.1741C14.6148 10.1 14.6148 10.0407 14.6 10.0111L14.5926 10.0037ZM15.3037 13.9889C15.237 14.4703 15.0444 14.8852 14.7185 15.2333C14.563 14.9963 14.4889 14.7296 14.4889 14.4333C14.4889 14.2704 14.5111 14.1074 14.5481 13.937C14.5852 13.7666 14.6444 13.5815 14.7333 13.3815C14.8148 13.1815 14.9333 12.9296 15.0889 12.6259C15.2519 12.937 15.3333 13.2778 15.3333 13.6407C15.3333 13.7148 15.3259 13.8333 15.3111 13.9815L15.3037 13.9889ZM12.3556 11.1296C12.3556 11.1296 12.2667 11.1444 12.1926 11.1444C11.8889 11.1444 11.5037 11.0111 11.037 10.7518C10.6519 10.5296 10.4519 10.4185 10.4296 10.4111C10.6593 10.3445 10.9037 10.3074 11.1704 10.3074C11.2444 10.3074 11.363 10.3148 11.5111 10.3296C11.7111 10.374 11.8815 10.4407 12.0222 10.5296C12.163 10.6185 12.2593 10.7444 12.3259 10.9074L12.363 11.137L12.3556 11.1296Z" fill="white"/>
</svg>
