<svg width="24" height="24" viewBox="0 0 24 24" fill="none" xmlns="http://www.w3.org/2000/svg">
<path fill-rule="evenodd" clip-rule="evenodd" d="M21.9612 11.448C21.9889 11.742 22 12.036 22 12.3245C22 13.2399 21.8724 14.1331 21.6117 14.9986C21.3731 15.5478 21.1068 16.0028 20.8128 16.3578C20.43 16.8183 20.0083 17.1234 19.5478 17.2788C19.1817 17.2788 18.4938 17.3342 17.473 17.4508C16.9237 17.5118 16.5076 17.5451 16.2191 17.5451C16.8682 17.4119 17.4286 17.2621 17.8946 17.0901C18.4716 16.8849 19.0042 16.6297 19.4924 16.319C20.025 15.9806 20.4632 15.6033 20.8128 15.1872C21.2122 14.7101 21.4896 14.1775 21.6394 13.6005C21.7282 13.2788 21.7725 12.9459 21.7725 12.6019C21.7725 12.086 21.6838 11.5811 21.5062 11.0763C21.3287 10.577 21.0846 10.0943 20.7739 9.63382C20.7462 9.77807 20.7295 9.93341 20.7184 10.0998C20.7074 10.2663 20.7074 10.4605 20.7074 10.6713C20.7074 10.9487 20.7074 11.2205 20.7184 11.4979C20.7295 11.7753 20.7351 12.0416 20.7462 12.3079C20.7462 12.4244 20.7462 12.5353 20.7406 12.6408C20.7406 12.7462 20.7184 12.9403 20.6796 13.2288C20.5354 12.552 20.4688 11.8252 20.4688 11.043C20.4688 10.6102 20.4799 10.2552 20.4965 9.98334C20.5132 9.7115 20.5742 9.13452 20.6852 8.24686C21.0402 8.64631 21.3232 9.11787 21.5395 9.66711C21.7503 10.2108 21.8946 10.8044 21.9667 11.4424L21.9612 11.448ZM14.0388 7.64215C13.9501 7.8807 13.8003 8.06933 13.595 8.20248C13.3842 8.33563 13.1456 8.41885 12.8682 8.45768C12.9126 8.34118 13.0291 8.24686 13.2122 8.16365C13.4619 8.05824 13.6116 7.98057 13.6671 7.93618C13.5673 7.90844 13.4619 7.87516 13.3454 7.83633C13.2288 7.79749 13.1345 7.7753 13.0513 7.7753C12.9071 7.7753 12.7961 7.81968 12.7074 7.90844C12.785 7.66988 12.9459 7.509 13.1845 7.43133C13.4175 7.44797 13.595 7.47017 13.7171 7.49791C13.8391 7.52565 13.9501 7.57557 14.0388 7.64215ZM15.8474 10.0111C15.8474 10.1331 15.7642 10.2441 15.6033 10.3439C15.4369 10.4438 15.337 10.5326 15.3037 10.6213C15.337 10.6657 15.3981 10.6879 15.4757 10.6879H15.6865C15.6865 10.6879 15.7309 10.7434 15.742 10.81C15.742 11.0041 15.681 11.1872 15.5645 11.3537C15.4424 11.5201 15.2871 11.6643 15.0929 11.7808C14.9875 11.8141 14.8821 11.8474 14.7878 11.8752C14.7878 11.7698 14.932 11.6255 15.2261 11.448C15.3759 11.3592 15.4591 11.2482 15.4646 11.1151C15.3426 11.0874 15.2316 11.0652 15.1429 11.0485C15.0541 11.0319 15.0097 10.9875 15.0097 10.9154C15.0097 10.8821 15.0208 10.8377 15.0485 10.7822C15.1817 10.4826 15.2982 10.2718 15.4036 10.1553C15.5035 10.0388 15.6144 9.98334 15.7309 9.98334C15.7587 9.98334 15.7975 9.99444 15.853 10.0111H15.8474ZM19.7476 11.7143C19.5978 11.6699 19.3481 11.5922 19.0042 11.4868C18.4993 11.3093 18.1831 11.043 18.061 10.6879C18.061 10.233 18.0388 9.79471 18 9.36753C17.9612 8.94034 17.9001 8.52425 17.8225 8.12481C17.7448 7.71981 17.6172 7.35366 17.4508 7.02634C17.2566 6.65463 16.9958 6.32731 16.6796 6.03882C16.5576 6.31621 16.4743 6.58805 16.4355 6.8599C16.3967 7.13174 16.3745 7.47017 16.3745 7.88071C16.3745 8.09153 16.3967 8.54645 16.4466 9.23993C16.4965 9.93341 16.5187 10.405 16.5187 10.6657V9.40081C16.5187 8.94034 16.5187 8.56863 16.5298 8.28015C16.5409 7.99721 16.5631 7.67543 16.6075 7.32037C16.9071 7.60331 17.1456 7.93063 17.3121 8.30789C17.4452 8.61857 17.5506 9.00137 17.6338 9.45074C17.706 10.2774 17.7781 11.0985 17.8613 11.914C17.828 11.9473 17.6505 12.1692 17.3398 12.5797C17.1345 12.8571 16.9348 13.0458 16.7406 13.1512C16.6241 12.9293 16.4632 12.7462 16.2635 12.6075C16.1581 12.552 16.0749 12.5243 16.025 12.5132C15.9695 12.5021 15.9196 12.5021 15.8641 12.5021C15.7143 12.5021 15.5922 12.5575 15.5035 12.6741C15.4036 12.896 15.3093 13.1234 15.2094 13.362C15.1096 13.595 15.0652 13.8058 15.0652 13.9944C15.0652 14.1609 15.1096 14.3218 15.1983 14.4715C15.3148 14.5603 15.448 14.6047 15.5978 14.6047C15.6533 14.6047 15.7531 14.5881 15.9029 14.5492C16.1969 14.4771 16.3467 14.4438 16.3578 14.4438C16.1082 15.0041 15.7587 15.4813 15.3037 15.8807C14.9209 16.2191 14.4494 16.5243 13.8779 16.8016C12.8128 17.1844 11.7476 17.5673 10.6824 17.9612L12.4244 17.7059C13.2566 17.7059 14.0111 17.5395 14.6768 17.2011C15.4424 16.8127 15.9528 16.2524 16.2191 15.5256C16.2746 15.3814 16.3467 15.1872 16.4466 14.932C16.5465 14.6768 16.6463 14.4605 16.7517 14.2718C16.9626 13.8724 17.2399 13.4896 17.5784 13.129C17.8724 12.8349 18.2441 12.6907 18.699 12.6907C19.0097 12.6907 19.3037 12.7517 19.5756 12.8793C19.6089 12.6851 19.6477 12.4854 19.6865 12.2857C19.7254 12.086 19.7476 11.8974 19.7476 11.7198V11.7143ZM11.2926 9.09014C11.1595 9.41746 10.9986 9.73923 10.8155 10.0499C10.7822 10.0166 10.5936 9.92231 10.2552 9.77252C10.0333 9.67266 9.94452 9.54506 9.9889 9.38417C10.0777 9.19554 10.1442 9.06239 10.1886 8.97363C10.2663 8.81274 10.3606 8.69624 10.466 8.62966C10.6768 8.71843 10.8155 8.77945 10.8766 8.81829C11.0374 8.90705 11.1761 9.00137 11.2871 9.09568L11.2926 9.09014ZM10.466 7.68099C10.466 7.68099 10.4438 7.59777 10.3939 7.45352C10.344 7.30928 10.3218 7.19277 10.3218 7.09291C10.3218 7.02078 10.3218 6.97086 10.3329 6.93202C10.2885 6.8599 10.2497 6.78778 10.2108 6.7212C10.1553 6.64908 10.0888 6.62134 10 6.62689C9.83911 6.72675 9.70042 6.84326 9.57282 6.98195C9.45076 7.12065 9.37864 7.27044 9.362 7.42578C9.41748 7.48681 9.48405 7.54229 9.57282 7.59222C9.66158 7.64215 9.78363 7.70317 9.94452 7.76975C9.77809 8.04714 9.52288 8.33008 9.18447 8.62412C8.31345 9.38972 7.86408 9.78916 7.82524 9.83355C8.80166 9.11233 9.32316 8.72953 9.38419 8.67405C9.70596 8.38001 9.94452 8.08042 10.1054 7.76975C10.1387 7.76975 10.1775 7.79194 10.2108 7.83633C10.2441 7.88071 10.2774 7.9029 10.3051 7.9029L10.466 7.67543V7.68099ZM14.0721 14.3772C13.9834 14.5381 13.8779 14.6657 13.7614 14.7656C13.6394 14.8654 13.4674 14.9709 13.2344 15.0929C13.0014 15.215 12.8294 15.3037 12.7074 15.3703C12.5853 15.4369 12.4632 15.509 12.3412 15.5922C12.4022 15.4424 12.5076 15.2982 12.6463 15.165C12.7517 15.0652 12.9015 14.9598 13.1012 14.8433C13.2067 14.7822 13.3232 14.7212 13.4452 14.6546C13.5673 14.5936 13.7781 14.4993 14.0721 14.3772ZM14.3939 10.172C14.4494 10.3606 14.4716 10.5048 14.4716 10.6103C14.4716 10.7434 14.4327 10.8821 14.3495 11.0319C14.2718 11.1761 14.2053 11.2926 14.1609 11.3703C13.9723 11.3869 13.8003 11.4313 13.6338 11.4979C13.4674 11.5645 13.301 11.6588 13.1345 11.7753C12.9681 11.8973 12.7684 12.0693 12.5354 12.3023C12.3412 12.5076 12.147 12.7073 11.9473 12.9015C11.7087 13.1401 11.4979 13.3231 11.3204 13.4452C11.0818 13.6116 10.8322 13.7281 10.577 13.7892C10.5326 13.8335 10.4494 13.9334 10.3329 14.0887C10.2108 14.2441 10.111 14.3329 10.0333 14.3495C9.82802 15.104 9.70042 15.5478 9.64494 15.681C9.43967 16.2136 9.16782 16.6241 8.81831 16.9071L8.84605 17.0014L8.77947 16.9459C8.35229 17.3731 7.70874 17.6172 6.84882 17.6782C6.12205 17.7059 5.39528 17.7337 4.67961 17.7725C5.49515 17.5229 5.97781 17.3786 6.1165 17.3342C6.66019 17.1456 7.13176 16.9459 7.5423 16.7351C8.03051 16.4854 8.44105 16.1969 8.77947 15.8696C9.16227 15.4979 9.45631 15.0596 9.67268 14.5659C9.60055 14.5659 9.51179 14.577 9.40638 14.6047C9.15673 14.6657 8.99584 14.699 8.92927 14.699C8.80721 14.699 8.69626 14.6657 8.59639 14.6047C8.51872 14.5326 8.4577 14.4605 8.42441 14.3772C8.39112 14.2996 8.36893 14.2108 8.36893 14.1109C8.36893 14.0055 8.39667 13.8724 8.4466 13.7115C8.57975 13.3121 8.65187 13.0846 8.65742 13.0347C8.72954 12.9126 8.81831 12.8127 8.92927 12.7462C9.04022 12.6796 9.15673 12.6629 9.28433 12.7018C9.47295 12.7184 9.60055 12.7628 9.67268 12.8349C9.77809 12.9958 9.88904 13.1512 10.0055 13.301C10.1997 13.2399 10.3717 13.0568 10.527 12.7573C10.6325 12.5354 10.7379 12.3079 10.8488 12.0804H10.9431C10.9598 12.1581 10.9542 12.2746 10.9154 12.4244C10.8821 12.5742 10.8599 12.6796 10.8599 12.7295C10.8599 12.7906 10.871 12.8516 10.8988 12.9015C11.165 12.6907 11.4313 12.4688 11.6976 12.2469C12.0083 11.9806 12.2302 11.7198 12.3634 11.4591C12.4078 11.3592 12.4632 11.165 12.5354 10.871C12.6075 10.577 12.6408 10.3883 12.6408 10.2996C12.7018 10.3107 12.8405 10.3273 13.0513 10.3606C13.2621 10.3939 13.4341 10.405 13.5562 10.405C13.7226 10.405 13.8669 10.3883 13.9834 10.3606C14.0999 10.3273 14.233 10.2663 14.3828 10.1664L14.3939 10.172ZM5.36754 13.767C5.27878 13.6671 5.12899 13.5728 4.92372 13.4729C4.7129 13.3731 4.5742 13.301 4.50208 13.2455C4.38558 13.3231 4.28571 13.4618 4.19695 13.656C4.0749 13.9112 3.99168 14.0666 3.95839 14.122C3.95839 14.2718 4.09154 14.405 4.35784 14.5159C4.62413 14.6269 4.79057 14.7157 4.8516 14.7878C5.00139 14.5548 5.1068 14.3883 5.15673 14.2829C5.25659 14.1054 5.32316 13.9334 5.36754 13.7614V13.767ZM6.75451 12.1415C6.638 11.9029 6.48821 11.7087 6.29404 11.57C6.10541 11.4258 5.87795 11.3148 5.62275 11.2372C5.50069 11.1817 5.37309 11.1595 5.25104 11.1595C5.05687 11.1595 4.85714 11.215 4.65187 11.3204C4.50208 11.398 4.33565 11.5145 4.15811 11.6643C4.0527 11.8863 3.98058 12.0527 3.9473 12.1581C3.88627 12.3467 3.85298 12.5243 3.85298 12.6907C3.85298 12.7906 3.85298 12.8571 3.86408 12.9015C4.06935 12.7573 4.27462 12.613 4.47434 12.4632C4.59085 12.3745 4.71845 12.3301 4.86269 12.3301C5.11234 12.3856 5.362 12.4355 5.62275 12.491C5.92233 12.6519 6.14979 12.8682 6.29404 13.1456C6.43828 13.423 6.51595 13.7337 6.51595 14.0887C6.42718 14.4549 6.22746 14.7933 5.91678 15.1151C5.66713 15.3703 5.3509 15.6144 4.957 15.8474C4.83495 15.8807 4.72954 15.9084 4.64632 15.9195C4.56311 15.9306 4.47989 15.9417 4.40222 15.9417C3.95839 15.9417 3.58669 15.8086 3.28155 15.5478C2.98197 15.2871 2.7656 15.0374 2.638 14.7933C2.5104 14.5548 2.44383 14.3107 2.44383 14.061C2.44383 13.7503 2.54369 13.4008 2.74896 13.0069C2.82108 12.8738 3.08738 12.4466 3.54785 11.7309C3.87517 11.2261 4.08044 10.81 4.15811 10.4937C3.70319 11.1151 3.25936 11.7365 2.81553 12.3578C2.54924 12.7295 2.35506 13.0735 2.22746 13.3842C2.07767 13.7559 2 14.1387 2 14.527C2 15.0041 2.10541 15.448 2.31068 15.853C2.5215 16.258 2.82108 16.5853 3.22053 16.846C3.49792 17.0236 3.83079 17.1123 4.21914 17.1123C4.56311 17.1123 4.86824 17.0347 5.12344 16.8738C5.51179 16.6186 5.83356 16.3134 6.08322 15.9639C6.33287 15.6144 6.52705 15.215 6.67129 14.7711C6.74896 14.5492 6.80999 14.3162 6.84327 14.0721C6.87656 13.828 6.89875 13.5839 6.89875 13.3453C6.89875 12.9015 6.84882 12.5021 6.75451 12.147V12.1415ZM10.0555 7.29263C10.0111 7.28153 9.96671 7.27045 9.92233 7.24825C9.87795 7.22606 9.84466 7.20387 9.81692 7.18723C9.75589 7.15394 9.7337 7.12065 9.75589 7.09846C9.77809 7.07627 9.82247 7.05408 9.88349 7.03743L10.0555 7.29263Z" fill="white"/>
</svg>
