<svg width="24" height="24" viewBox="0 0 24 24" fill="none" xmlns="http://www.w3.org/2000/svg">
<path fill-rule="evenodd" clip-rule="evenodd" d="M16.0788 6.54952C16.0788 6.89665 15.9052 7.2371 15.5648 7.56421C15.2844 7.83791 14.9439 8.0582 14.5367 8.23176C14.4499 8.27182 14.3431 8.29852 14.2163 8.29852C14.0694 8.29852 13.8491 8.25847 13.5621 8.17836C13.275 8.09825 13.0614 8.0582 12.9212 8.0582C12.761 8.0582 12.6208 8.10493 12.5073 8.20506C12.3872 8.29852 12.2937 8.46541 12.2203 8.69905C12.2203 8.44538 12.3405 8.14498 12.5875 7.80453C12.6809 7.67769 12.8211 7.5108 13.0013 7.31054C13.2684 7.32389 13.4686 7.33724 13.6088 7.34391C13.749 7.35059 13.8758 7.35726 13.996 7.35726C14.2296 7.35726 14.4766 7.33724 14.7303 7.30386C14.984 7.27048 15.231 7.19037 15.4579 7.07021C15.6849 6.95005 15.8919 6.77649 16.0721 6.56287L16.0788 6.54952ZM13.4486 11.1023C13.4486 11.1757 13.4286 11.2625 13.3952 11.3559C13.3551 11.4494 13.3418 11.5295 13.3418 11.5829C13.1682 11.4427 13.0414 11.376 12.9546 11.376C12.781 11.5028 12.6742 11.7898 12.6342 12.2304C12.5941 12.671 12.5541 12.9514 12.5207 13.0582C12.3471 12.938 12.1936 12.7578 12.0534 12.5041C11.9132 12.2505 11.7797 12.0101 11.6529 11.7765C11.6128 11.8699 11.5461 11.9234 11.4593 11.9234C11.3124 11.8699 11.1989 11.8432 11.1255 11.8432C11.0921 11.7765 11.0788 11.7031 11.0788 11.6163C11.0788 11.5095 11.0921 11.416 11.1121 11.3359C11.1322 11.2558 11.1589 11.1757 11.1856 11.1023C11.2123 11.0288 11.2924 10.9888 11.4192 10.9888C11.4593 10.9888 11.5127 11.0021 11.5794 11.0222C11.753 11.1957 11.9065 11.4093 12.0467 11.6697C12.1869 11.93 12.3204 12.177 12.4473 12.4173C12.4873 12.0302 12.534 11.7164 12.5808 11.4694C12.6275 11.2224 12.7477 11.0288 12.9413 10.8753C13.028 10.8953 13.1215 10.9153 13.2283 10.9287C13.3351 10.942 13.4085 11.0021 13.4553 11.0956L13.4486 11.1023ZM21.9733 9.90066C21.0254 10.0609 20.3578 10.2144 19.984 10.3679C19.2897 10.6483 18.789 11.0689 18.4753 11.6363C18.5154 11.2625 18.5487 10.922 18.5621 10.6083C18.5754 10.3012 18.5888 10.0008 18.5888 9.71374C18.5888 8.94605 18.522 8.23176 18.3952 7.57756C18.2684 6.91668 18.0614 6.3092 17.7677 5.75513C17.6742 5.82188 17.6075 5.90199 17.5674 5.99545C17.5274 6.08891 17.494 6.22242 17.4539 6.39598C17.4139 6.56287 17.267 7.23043 17 8.39198C16.8198 9.17969 16.7263 9.8339 16.7263 10.3479C16.7263 10.4213 16.7263 10.5215 16.733 10.635C16.733 10.7551 16.7597 10.9487 16.8064 11.2291C17.0067 9.84057 17.2403 8.56554 17.494 7.39732C17.7744 7.97142 17.9613 8.61227 18.0547 9.30653C18.1482 10.0008 18.2016 10.7952 18.2016 11.6964C18.2016 12.1436 18.1749 12.5842 18.1148 13.0181C18.0547 13.4521 17.9279 14.0662 17.721 14.8673C17.1736 15.2211 16.5728 15.5215 15.9119 15.7618C15.3645 15.9621 14.7236 16.149 13.9893 16.3225C13.6288 16.376 13.2417 16.416 12.8411 16.4494C12.4406 16.4828 12.0668 16.4961 11.7263 16.4961C10.5113 16.4961 9.46996 16.3092 8.60214 15.9354C7.58745 15.4948 6.82643 14.8005 6.32577 13.8526C5.86515 14.0662 5.48465 14.5335 5.19092 15.2478C4.83044 16.1223 4.53672 16.6764 4.3231 16.8966C4.28304 16.9167 4.20961 16.93 4.11615 16.93C3.81575 16.93 3.51535 16.7431 3.2016 16.3693C2.70761 15.7818 2.46729 15.2611 2.46729 14.8139C2.46729 14.7271 2.49399 14.5802 2.55407 14.3666C2.61415 14.153 2.74766 13.9327 2.96128 13.7124C3.1215 13.5388 3.37517 13.3319 3.7223 13.0849C4.06943 12.8379 4.42991 12.5909 4.80374 12.3306C5.01736 12.1837 5.21762 12.0168 5.41122 11.8366C5.71162 11.5562 5.93859 11.2892 6.09212 11.0355C6.24566 10.7818 6.32577 10.4881 6.32577 10.1677C6.20561 10.8085 5.67156 11.3826 4.71028 11.8966C4.02937 12.2571 3.60214 12.5041 3.44192 12.631C2.97463 13.0248 2.61415 13.4654 2.36716 13.9527C2.12016 14.44 2 14.9607 2 15.5148C2 15.6416 2 15.7551 2.01335 15.8619C2.0267 15.9621 2.04005 16.0689 2.06008 16.1757C2.23364 16.6363 2.48732 17.0569 2.82777 17.444C3.16822 17.8312 3.55541 18.0983 3.98264 18.2451C4.36983 18.2451 4.66355 18.1316 4.87717 17.9113C5.02403 17.7511 5.15754 17.4774 5.2777 17.0969C5.34446 16.8966 5.43124 16.5695 5.5514 16.1223C5.67156 15.7485 5.8251 15.4681 6.01869 15.2745C6.05207 15.2611 6.0988 15.2611 6.16555 15.2611C6.3992 15.2611 6.65955 15.4547 6.95327 15.8352C7.30708 16.3025 7.56075 16.5896 7.72096 16.683C8.43525 17.1103 9.22964 17.4173 10.1108 17.5976C10.8451 17.7444 11.7196 17.8246 12.721 17.8246C13.5754 17.8246 14.4366 17.6777 15.2977 17.3906C16.1589 17.1036 16.9466 16.7164 17.6542 16.2358C18.2083 15.8486 18.7423 15.4347 19.2563 14.9874C19.8104 14.4934 20.2911 14.0061 20.6983 13.5121C21.1055 13.0181 21.4192 12.5175 21.6529 11.9968C21.8798 11.4761 22 10.9487 22 10.4013C22 10.3479 22 10.2812 21.9933 10.2011C21.9933 10.1209 21.98 10.0275 21.9666 9.92068L21.9733 9.90066ZM6.51268 9.56688C6.23231 9.56688 6.01869 9.62696 5.85848 9.74044C5.69826 9.8606 5.53138 10.0609 5.36449 10.3479C4.97063 10.7084 4.64352 10.9888 4.38985 11.1824C4.02937 11.4494 3.66222 11.6497 3.30174 11.7765C3.42857 11.6497 3.82243 11.3159 4.48999 10.7818C4.99065 10.3746 5.35781 9.99411 5.5781 9.62696C5.43792 9.62696 5.33778 9.57355 5.27103 9.46674C5.20427 9.35993 5.17757 9.2331 5.17757 9.07956C5.17757 9.00613 5.19092 8.91267 5.21095 8.80586C5.30441 8.73911 5.35781 8.659 5.35781 8.55219C5.35781 8.51214 5.34446 8.43871 5.31776 8.34525C5.29105 8.25179 5.2777 8.18503 5.2777 8.15166C5.2777 8.06487 5.31776 7.98477 5.40454 7.91133C5.60481 7.91133 5.7717 7.93804 5.89853 7.98477C6.02537 8.0315 6.13885 8.13163 6.23231 8.27849C6.47931 8.52549 6.59947 8.81254 6.59947 9.14631C6.59947 9.30653 6.57276 9.44672 6.51936 9.5602L6.51268 9.56688ZM21.3324 11.2958C21.0654 11.8633 20.6115 12.444 19.9706 13.0448C19.5834 13.4053 19.0027 13.886 18.2216 14.4868C18.3084 13.7792 18.4085 13.2718 18.5287 12.9514C18.7423 12.3773 19.0961 11.9968 19.5834 11.8165C19.9973 11.643 20.2844 11.5362 20.4312 11.4961C20.7383 11.4027 21.0387 11.3359 21.3258 11.3025L21.3324 11.2958ZM6.28571 9.09958H6.03204L6.06542 8.81254C6.17223 8.83256 6.24566 8.9327 6.29239 9.09958H6.28571ZM5.80507 9.03283C5.76502 9.06621 5.69826 9.06621 5.60481 9.03951C5.51135 9.0128 5.45127 8.99946 5.41789 8.99946L5.498 8.80586C5.61816 8.81921 5.71829 8.89264 5.80507 9.03283Z" fill="white"/>
</svg>
