<svg width="24" height="24" viewBox="0 0 24 24" fill="none" xmlns="http://www.w3.org/2000/svg">
<path fill-rule="evenodd" clip-rule="evenodd" d="M21.9485 10.1088C21.9853 10.3811 22 10.6828 22 11.0286C22 12.0735 21.8087 13.0596 21.4334 13.9867C21.0802 14.6048 20.727 15.0757 20.3812 15.4142C19.8808 15.8999 19.3731 16.1501 18.8506 16.1501C18.1148 16.2016 17.3863 16.2531 16.6652 16.3119L16.702 16.2751C16.702 16.2751 16.6505 16.2384 16.5916 16.2384C17.1729 16.0838 17.7322 15.8852 18.262 15.635C18.8433 15.3553 19.3731 15.0242 19.844 14.6342C20.3591 14.2222 20.7859 13.7659 21.1244 13.2656C21.4628 12.7652 21.6909 12.2207 21.8013 11.6394C21.8013 10.9845 21.6909 10.3296 21.4628 9.68206C21.2936 9.20377 21.014 8.61511 20.6313 7.91606C20.6093 8.18096 20.5872 8.50471 20.5798 8.88735C20.5725 9.26998 20.5651 9.49074 20.5651 9.53489V10.6313C20.5651 11.1758 20.5283 11.6688 20.4621 12.1103C20.4106 11.5437 20.3738 11.0581 20.3517 10.6534C20.3297 10.2413 20.3149 9.77772 20.3149 9.24056C20.3149 8.78434 20.3297 8.32812 20.3664 7.87926C20.4032 7.42304 20.4547 6.98155 20.5283 6.55476C20.9257 7.04042 21.2421 7.58493 21.4849 8.18832C21.7277 8.78435 21.8823 9.43188 21.9559 10.1236L21.9485 10.1088ZM16.1133 6.83438C16.0692 6.90797 16.0471 6.99626 16.0471 7.09927C16.0471 7.19493 16.0692 7.31267 16.106 7.45248C16.1428 7.59229 16.1648 7.68059 16.1648 7.70266C16.1648 7.77625 16.1428 7.83512 16.106 7.87192C16.0692 7.90871 15.9882 7.93813 15.8631 7.95285C15.7086 8.29869 15.4437 8.60773 15.0537 8.88735C14.7226 9.13017 14.362 9.32886 13.9573 9.46866C14.0677 9.36565 14.3105 9.18905 14.6784 8.93886C15.2597 8.54151 15.6277 8.16624 15.7896 7.79833C15.7675 7.75418 15.6497 7.68794 15.4364 7.59964C15.223 7.50398 15.1199 7.39362 15.1199 7.26852C15.1199 7.23173 15.1347 7.17287 15.1714 7.09193C15.245 6.98156 15.326 6.87116 15.4143 6.75343C15.5026 6.6357 15.6056 6.55476 15.7233 6.50325C15.7969 6.48853 15.8705 6.50326 15.9441 6.55476C16.0177 6.60627 16.0692 6.69458 16.1133 6.83438ZM13.4349 6.99627C13.3392 7.09193 13.2951 7.18759 13.2951 7.29796C13.2951 7.40098 13.3319 7.52607 13.4128 7.68059C13.4937 7.83512 13.5305 7.91606 13.5305 7.93077C13.5305 7.97492 13.4864 7.99699 13.4054 7.99699C13.3245 7.99699 13.2436 7.98964 13.1773 7.97492C13.0081 8.29869 12.7506 8.60037 12.4047 8.88735C12.1619 9.08602 11.8381 9.30679 11.4408 9.54225C11.4628 9.50546 11.816 9.1964 12.493 8.59302C12.7506 8.36491 12.9345 8.13681 13.0375 7.9087C13.0155 7.88662 12.8977 7.80569 12.699 7.66588C12.5445 7.57022 12.4709 7.47456 12.4709 7.36419C12.4709 7.30532 12.4857 7.24644 12.5224 7.18757C12.6255 6.93739 12.8021 6.74609 13.067 6.62835C13.3098 6.67986 13.4349 6.79759 13.4349 6.99627ZM18.6446 8.85057C18.5489 8.24718 18.3797 7.67324 18.1295 7.13608C17.8793 6.59892 17.5556 6.12798 17.1656 5.72327C17.0478 6.41495 16.989 7.12871 16.989 7.85718C16.989 8.87999 17.0846 9.79245 17.2686 10.6092C17.3201 10.337 17.3422 10.0721 17.3422 9.7998C17.3422 9.68942 17.3274 9.42451 17.298 9.00508C17.2686 8.58566 17.2539 8.25454 17.2539 8.01907C17.2539 7.73209 17.2759 7.44512 17.3274 7.14342C17.6806 7.65115 17.9529 8.17361 18.1369 8.72549C18.3208 9.27736 18.4165 9.84395 18.4165 10.4473C18.3355 10.749 18.1589 11.0434 17.894 11.3156C17.6291 11.5952 17.3422 11.816 17.0258 11.9852C16.908 11.9999 16.8197 12.0073 16.7609 12.0073C16.4592 12.0073 16.2237 11.9264 16.0545 11.7571C15.9809 11.6835 15.9294 11.5879 15.8999 11.4849C15.8705 11.3819 15.8558 11.2567 15.8558 11.1243C15.8558 11.0581 15.8558 10.9919 15.8558 10.9256C15.8558 10.8594 15.8558 10.8005 15.8558 10.7417L15.223 10.9918C14.8918 11.0286 14.6269 11.1317 14.4283 11.3083C14.259 11.4481 14.1192 11.6688 14.0015 11.9632C13.8322 12.4856 13.663 13.008 13.4937 13.5305C13.3319 13.9131 13.1332 14.2369 12.8904 14.5091C12.6475 14.7814 12.3458 15.0316 11.9926 15.2597C11.6983 15.4363 11.3451 15.6129 10.9404 15.7748C10.6019 15.9072 10.2487 16.0323 9.88079 16.1427C9.88815 16.1501 9.89551 16.1648 9.90287 16.1721C9.91023 16.1869 9.91023 16.1942 9.90287 16.2016C9.99853 16.2016 10.2119 16.2163 10.5504 16.2457C10.8889 16.2751 11.1464 16.2899 11.3304 16.2899C11.5806 16.2899 11.8234 16.2604 12.0515 16.2016C12.4121 16.0985 12.7211 15.9219 12.9713 15.6717C13.17 15.4731 13.3687 15.1861 13.5526 14.8255C13.6777 14.5533 13.7954 14.2222 13.9058 13.8175C13.9794 13.5452 14.0603 13.2141 14.1486 12.8094C14.3105 12.5592 14.5607 12.3531 14.9065 12.206C15.1935 12.103 15.4805 12.0073 15.7748 11.9043L15.7969 12.5739C15.922 12.8241 16.1207 13.008 16.3929 13.1184C16.5475 13.1552 16.6505 13.1699 16.7241 13.1699C16.9816 13.1699 17.2391 13.0816 17.4967 12.905C17.6365 12.802 17.8572 12.6107 18.1442 12.3237C18.5269 11.5511 18.7108 10.7049 18.7108 9.7998C18.7108 9.48339 18.6887 9.15962 18.6372 8.83586L18.6446 8.85057ZM15.8779 15.1935C15.7969 15.3921 15.716 15.5614 15.635 15.7012C15.5246 15.8851 15.4069 16.0397 15.2671 16.1721C15.2524 16.1574 15.0979 16.0765 14.8109 15.9293C14.6269 15.8336 14.5313 15.7306 14.5166 15.6129C14.6269 15.3995 14.7226 15.2376 14.8035 15.1125C14.8845 14.9874 14.9875 14.8697 15.1273 14.7372L15.8705 15.1935H15.8779ZM11.0655 10.9256C11.1906 11.1832 11.2568 11.4848 11.2568 11.8086C11.2568 12.1324 11.1759 12.596 11.014 13.1626C10.8889 13.6188 10.8153 13.8763 10.8006 13.9426C10.5578 14.5754 10.2046 15.1125 9.74099 15.5614C9.19647 16.0912 8.61516 16.3561 7.99706 16.3561L5.68653 16.4665C6.57689 16.2089 7.26858 15.9661 7.74687 15.7601C8.51214 15.4289 9.1376 15.0537 9.63061 14.6195C10.2266 14.0971 10.6608 13.479 10.9183 12.7726C10.9183 12.6475 10.911 12.5445 10.8962 12.4635C10.8815 12.3826 10.8374 12.3164 10.7712 12.2575C10.7712 12.3531 10.727 12.4267 10.6461 12.5003C10.5651 12.5665 10.4621 12.6254 10.3444 12.6622C10.1825 12.699 10.0353 12.6696 9.90287 12.5886C9.77042 12.5077 9.66004 12.3752 9.57174 12.206C9.57174 11.6467 9.64533 11.2126 9.78514 10.9036C9.90287 10.6534 10.0795 10.4547 10.3149 10.3222C10.4842 10.3222 10.6313 10.3811 10.7712 10.4988C10.8815 10.5945 10.9845 10.7269 11.0728 10.9183L11.0655 10.9256ZM7.43782 13.6703C7.32009 13.5599 7.195 13.4642 7.06255 13.3759C6.9301 13.2876 6.84915 13.2362 6.805 13.2288L6.0986 14.0529C6.06181 14.1927 6.16483 14.3178 6.39294 14.4135C6.62104 14.5091 6.75349 14.5974 6.79764 14.671C6.93745 14.568 7.0699 14.4208 7.18764 14.2295C7.2833 14.075 7.36424 13.891 7.43782 13.6703ZM9.39514 17.7174C9.27741 17.7174 8.88006 17.7247 8.19573 17.7468C7.51141 17.7689 6.96689 17.7762 6.55482 17.7762C6.11332 17.7762 5.67182 17.7615 5.20824 17.7247C4.75202 17.6879 4.3326 17.6364 3.94996 17.5629C3.50846 17.423 3.14055 17.2097 2.82414 16.93C2.45622 16.5916 2.2649 16.2236 2.2649 15.8189C2.39735 15.3921 2.58867 14.9948 2.83149 14.6342C3.07432 14.2737 3.3613 13.9278 3.69242 13.5967C3.9426 13.3465 4.28845 13.0448 4.71523 12.699C5.06843 12.4194 5.42163 12.1398 5.77483 11.8675C6.34143 11.426 6.77557 11.0654 7.07726 10.7785C7.32745 10.5356 7.55556 10.2928 7.74687 10.0573C8.04121 9.70415 8.28403 9.32887 8.46799 8.93152C8.65195 8.53417 8.77704 8.10738 8.83591 7.64381L8.76232 7.48192C8.23252 7.48192 7.69536 7.55551 7.16556 7.71003C6.6284 7.86456 6.11332 8.06321 5.60559 8.3134C5.24503 8.49 4.97277 8.79171 4.79617 9.22585C4.6858 9.61584 4.57542 9.99847 4.46505 10.3738C4.44297 10.5724 4.48712 10.7711 4.61957 10.9698C4.71523 11.1096 4.85504 11.2715 5.04636 11.4407C4.54599 11.8528 4.12656 12.2428 3.77336 12.618C3.3613 13.0595 3.00809 13.5011 2.72112 13.9426C2.48565 14.3399 2.30905 14.7299 2.18396 15.1272C2.05887 15.5172 2 15.9219 2 16.3487C2 16.5989 2.02208 16.8638 2.07358 17.1287C2.1766 17.3642 2.36056 17.5629 2.64018 17.7247C2.7947 17.8057 3.02281 17.9381 3.33186 18.1C3.73657 18.1736 4.14128 18.2251 4.56071 18.2472C4.97277 18.2692 5.47314 18.2766 6.06181 18.2766H6.4518C6.9301 18.2766 7.43046 18.2251 7.94555 18.1221C8.46063 18.0191 8.93893 17.8866 9.38778 17.7247L9.39514 17.7174ZM15.8116 7.30531V7.09927C15.819 6.98154 15.7675 6.92268 15.6571 6.92268C15.6056 6.92268 15.5541 6.9374 15.5026 6.9742C15.4511 7.01099 15.429 7.04777 15.429 7.09927L15.8116 7.30531ZM13.1847 7.41568V7.31267C13.1994 7.24645 13.1847 7.18759 13.1332 7.13608C13.0817 7.08457 13.0228 7.06249 12.9419 7.06249C12.8609 7.06249 12.8021 7.10663 12.78 7.18757L13.1847 7.41568ZM8.2546 8.60038C8.18102 8.57831 8.10007 8.5636 8.01177 8.5636C7.94555 8.5636 7.83517 8.5783 7.68065 8.61509C7.52612 8.65189 7.41575 8.66661 7.34216 8.66661C6.56954 8.90207 6.14275 9.03452 6.06917 9.07131C5.59088 9.26262 5.25975 9.52755 5.06843 9.85131C5.34069 10.2339 5.67918 10.4179 6.09124 10.4179C6.15011 10.4179 6.23105 10.4105 6.33407 10.3958C6.74614 10.1015 7.08462 9.82923 7.35688 9.5864C7.71008 9.26263 8.01177 8.93887 8.2546 8.60038Z" fill="white"/>
</svg>
