<svg width="24" height="24" viewBox="0 0 24 24" fill="none" xmlns="http://www.w3.org/2000/svg">
<path fill-rule="evenodd" clip-rule="evenodd" d="M21.9931 7.41699C21.9931 7.58864 21.9382 7.79461 21.8284 8.03491C21.746 8.20655 21.691 8.32327 21.6567 8.3988C21.4645 8.3988 21.2448 8.41939 21.0113 8.46059C20.7779 8.50178 20.5445 8.53611 20.3248 8.57044C20.3728 8.3782 20.4209 8.18596 20.4689 7.99371C20.5513 7.78088 20.6749 7.6367 20.8466 7.58177C21.231 7.52684 21.6155 7.47192 22 7.41699H21.9931ZM21.6087 10.0191C21.8284 10.3075 21.9451 10.6439 21.9451 11.0284C21.9451 11.2687 21.9039 11.5159 21.8215 11.7699C21.7391 12.0171 21.6292 12.2642 21.4919 12.4977C21.3958 12.6144 21.0319 12.8478 20.3865 13.2048C20.1119 13.3628 19.9197 13.5344 19.8098 13.7335C19.6862 14.2278 19.5352 14.6261 19.3567 14.9419C19.1095 15.3607 18.7868 15.6422 18.4023 15.7795C18.0453 15.8894 17.5098 15.9649 16.8095 15.9992C16.1023 16.0404 15.656 16.0747 15.4706 16.1022C16.0336 15.9306 16.5898 15.7658 17.1528 15.5941C17.8256 15.3676 18.3543 15.0998 18.7319 14.7977C18.9447 14.6192 19.1232 14.4201 19.2743 14.1866C19.4253 13.9601 19.5421 13.6992 19.6244 13.4177C19.6244 12.992 19.8579 12.6281 20.3248 12.3329C20.723 12.1063 21.1212 11.8729 21.5263 11.6326C21.5263 11.4609 21.4713 11.3099 21.3546 11.1794C21.2585 11.255 21.1555 11.3305 21.0457 11.406C20.9358 11.4815 20.826 11.5227 20.7298 11.5227C20.6886 11.5227 20.6406 11.5159 20.5857 11.4953C20.5033 11.3785 20.4621 11.2412 20.4621 11.0833C20.4621 10.9391 20.5033 10.7744 20.5857 10.5752C20.668 10.3761 20.7436 10.1839 20.8191 10.0054C20.9083 9.86121 21.0251 9.79255 21.183 9.79255C21.3683 9.79255 21.5125 9.86807 21.6155 10.026L21.6087 10.0191ZM13.9121 8.337C13.9121 8.52925 13.8641 8.72149 13.7611 8.92746C13.6924 9.06478 13.5894 9.22269 13.459 9.4012C13.4246 9.33254 13.3972 9.26388 13.3697 9.18836C13.3217 9.10597 13.2667 9.05105 13.1981 9.01672C12.9372 9.01672 12.69 9.12657 12.4566 9.33941C12.3879 9.4012 12.1133 9.77882 11.6395 10.486C12.0172 9.59344 12.2437 9.09224 12.3055 8.98925C12.6488 8.41939 13.0814 8.1379 13.5894 8.1379L13.9121 8.34387V8.337ZM18.0041 13.6854C17.9286 13.658 17.8393 13.6442 17.7432 13.6442C17.6883 13.6442 17.5578 13.6648 17.3519 13.6992C17.1459 13.7335 17.0017 13.7541 16.9125 13.7541C16.8163 13.7541 16.7477 13.7541 16.6996 13.7335C16.5829 13.8571 16.5005 14.0013 16.4456 14.1729C16.3907 14.3446 16.3563 14.5231 16.3357 14.7153L17.5922 14.6123L18.0041 13.6786V13.6854ZM18.9997 7.46505C18.8143 7.65729 18.6976 7.88386 18.6358 8.15163C18.6152 8.26835 18.6083 8.3782 18.6083 8.48805C18.6083 8.65283 18.6289 8.81761 18.6701 8.99612C18.471 9.33254 18.2101 9.66896 17.8874 10.0054C17.6334 10.2732 17.3038 10.5684 16.9125 10.8842C16.6722 11.0902 16.3289 11.3442 15.9032 11.6669C15.2029 12.1406 14.3996 12.4977 13.5002 12.7448C12.6008 12.992 11.6807 13.1156 10.7333 13.1156C10.0398 13.1156 9.36011 13.0469 8.701 12.9096C8.04188 12.7723 7.43083 12.5663 6.8747 12.2986C6.71679 12.2093 6.57261 12.0583 6.42842 11.8454C6.09887 11.3236 5.89289 11.0353 5.82424 10.9872C5.74185 11.1794 5.70065 11.3717 5.70065 11.5571C5.70065 11.7905 5.75558 12.0239 5.86543 12.2574C5.95469 12.4496 6.08514 12.6487 6.27051 12.8616C6.30484 12.9371 6.31857 13.0263 6.31857 13.1224C6.31857 13.2186 6.29797 13.3216 6.24991 13.4451C6.16753 13.6168 6.092 13.7816 6.01648 13.9532C5.74185 14.3171 5.50841 14.578 5.3299 14.7428C5.02781 15.0105 4.72571 15.1479 4.41675 15.1479C4.38242 15.1479 4.32063 15.1479 4.22451 15.1273C3.88122 15.0929 3.53793 14.9144 3.20151 14.5917C2.92688 14.324 2.70031 14.0013 2.5218 13.6305C2.41195 13.3902 2.35702 13.1568 2.35702 12.9439C2.35702 12.5732 2.53553 12.1887 2.89255 11.7905C3.90869 10.6439 4.42362 10.0672 4.43048 10.0603C4.47168 9.96419 4.50601 9.86807 4.53347 9.76509C4.56093 9.6621 4.57467 9.55911 4.57467 9.45613C4.57467 9.3806 4.57467 9.32568 4.56093 9.29135C4.5472 9.29135 4.40989 9.50419 4.14899 9.93673C3.88809 10.3693 3.70958 10.6302 3.62032 10.7194C2.82389 11.5502 2.39135 12.0239 2.31583 12.1475C2.10985 12.4839 2 12.8478 2 13.2323V13.4657C2 14.0219 2.17164 14.5368 2.50807 15.0174C2.85136 15.498 3.2839 15.855 3.81256 16.0885C3.99107 16.1297 4.16272 16.1503 4.34123 16.1503C4.56093 16.1503 4.77377 16.1091 4.97975 16.0335C5.17885 15.958 5.35736 15.8413 5.49468 15.6834C5.90663 15.3332 6.20185 14.8595 6.38036 14.2553C6.38036 14.2416 6.49708 13.6854 6.71679 12.5938C7.02575 12.9233 7.31411 13.1911 7.57501 13.3833C7.91143 13.6305 8.23412 13.7953 8.54995 13.8708C9.23653 14.0425 9.92997 14.1249 10.6371 14.1249C11.6052 14.1249 12.5527 13.9807 13.4864 13.6923C14.4888 13.3765 15.4295 12.8959 16.2945 12.2436C17.1596 11.5982 17.908 10.8087 18.5465 9.87494C18.7731 9.48359 18.9379 9.13344 19.0203 8.82448C19.0889 8.59104 19.1232 8.36447 19.1232 8.14476C19.1232 7.92506 19.082 7.70535 18.9997 7.48565V7.46505ZM14.3721 14.166C14.379 14.2484 14.3447 14.3377 14.276 14.4338C14.2073 14.5299 14.1387 14.6261 14.0769 14.7153C13.9464 14.7153 13.7748 14.8046 13.5482 14.9899C13.3285 15.1753 13.15 15.244 13.0196 15.2096C12.9166 15.1685 12.8205 15.1479 12.7243 15.1479C12.5733 15.1479 12.4222 15.189 12.2575 15.2783C12.1476 15.3401 12.0034 15.4499 11.8249 15.601C11.6739 15.7177 11.5297 15.8413 11.3924 15.9649C11.2345 16.0816 11.0766 16.1709 10.9118 16.2464C10.747 16.315 10.5685 16.3906 10.3831 16.4661C10.1977 16.5416 10.0398 16.5828 9.90251 16.5828C9.85445 16.5828 9.82012 16.5828 9.79265 16.5828C10.0879 16.5141 10.4037 16.37 10.7333 16.1571C10.9255 16.0335 11.2001 15.8207 11.5709 15.5186C11.8524 15.292 12.0858 15.1273 12.2643 15.0174C12.4428 14.9076 12.6076 14.8183 12.7655 14.7565C12.8342 14.729 12.9303 14.7565 13.0676 14.8252C13.2049 14.8938 13.2873 14.935 13.3354 14.935C13.4178 14.935 13.4864 14.8732 13.5345 14.7496C13.5688 14.5437 13.6512 14.4064 13.7885 14.3377V14.6123C13.9053 14.5917 14.0082 14.5368 14.0975 14.4407C14.1868 14.3446 14.276 14.2553 14.3653 14.166H14.3721Z" fill="white"/>
</svg>
