<svg width="24" height="24" viewBox="0 0 24 24" fill="none" xmlns="http://www.w3.org/2000/svg">
<path fill-rule="evenodd" clip-rule="evenodd" d="M18.0863 8.55368C18.1222 8.62045 18.1376 8.68208 18.1376 8.72831C18.1376 8.79508 18.1171 8.86698 18.0812 8.93375C18.0452 9.00052 17.999 9.07243 17.9425 9.1392C17.8603 9.13406 17.7576 9.14947 17.6343 9.19056C17.511 9.23164 17.434 9.25219 17.4083 9.25219C17.3261 9.25219 17.2542 9.22137 17.1926 9.15974C17.1875 9.09297 17.1926 9.0262 17.2132 8.95943C17.2337 8.89266 17.2594 8.82589 17.2851 8.75912C17.2902 8.77453 17.3005 8.81048 17.3056 8.87212C17.3107 8.93375 17.3416 8.9697 17.3878 8.97484C17.4956 9.01079 17.5727 8.97484 17.6138 8.88239C17.6549 8.7848 17.6959 8.69235 17.737 8.59477V8.93375C17.8449 8.94916 17.9271 8.89266 17.9733 8.7694C18.0195 8.64613 18.0606 8.57422 18.0863 8.55368ZM21.9795 11.1217C21.9795 10.6543 21.887 10.2024 21.7072 9.7658C21.5275 9.32923 21.2758 8.94916 20.9625 8.63586C20.906 8.92862 20.8701 9.18542 20.8546 9.40627C20.8392 9.62713 20.829 9.92502 20.829 10.3C20.829 10.4027 20.8392 10.7211 20.8546 11.2501C20.8701 11.7792 20.8803 12.2003 20.8803 12.5085C20.9676 12.2209 21.0139 11.8767 21.0139 11.471C21.0087 11.2912 20.9985 11.1115 20.9933 10.9266C20.9882 10.7417 20.9831 10.5619 20.9831 10.3821C20.9831 10.3616 20.9831 10.264 20.9933 10.0842C20.9985 9.90448 21.0139 9.76066 21.0344 9.64253C21.2861 10.0534 21.471 10.4078 21.5788 10.7006C21.7278 11.1063 21.8048 11.4967 21.8048 11.8819C21.8048 12.0873 21.7792 12.3082 21.7227 12.5496C21.6199 12.981 21.4402 13.3611 21.1834 13.6846C20.9266 14.0082 20.6081 14.301 20.2229 14.5527C19.8737 14.7786 19.4884 14.9789 19.0724 15.1484C18.718 15.2923 18.3174 15.4207 17.8808 15.5388C18.5023 15.4617 19.1289 15.3898 19.7504 15.3231C20.1767 15.2563 20.5157 15.1433 20.7776 14.9944C20.9214 14.8557 21.0498 14.7119 21.1577 14.5527C21.2964 14.3523 21.4248 14.1264 21.548 13.8644C21.8511 13.171 22 12.4263 22 11.6251C22 11.5634 22 11.4915 21.9949 11.4094C21.9949 11.3272 21.9846 11.2296 21.9795 11.1217ZM18.3328 10.454C18.2917 10.5979 18.2558 10.6954 18.2301 10.7519C18.1479 10.9317 18.0452 11.0704 17.9219 11.1731C17.886 11.1269 17.7833 11.0704 17.6138 11.0087C17.4443 10.9471 17.3724 10.8598 17.4083 10.7417C17.5059 10.5157 17.6189 10.3205 17.7576 10.1561C17.9887 10.2126 18.1839 10.3102 18.3328 10.454ZM19.9147 10.6698C19.8685 10.1767 19.7658 9.71444 19.6066 9.28301C19.4474 8.85157 19.2316 8.4715 18.9594 8.14279C18.9029 8.39446 18.8516 8.65127 18.8053 8.90294C18.8053 9.05188 18.7797 9.43195 18.7334 10.0329C18.7129 10.2948 18.7026 10.5105 18.7026 10.6903C18.7026 10.8803 18.718 11.0704 18.7437 11.2604C18.7694 11.4504 18.8156 11.6148 18.8772 11.7586V11.0909C18.8772 10.6543 18.8875 10.2845 18.9029 9.98152C18.9183 9.67849 18.9543 9.38059 19.0005 9.08784C19.1649 9.42168 19.2727 9.65794 19.3292 9.78634C19.5141 10.2229 19.6425 10.6441 19.7196 11.0498C19.7607 11.2707 19.7812 11.4813 19.7812 11.6867C19.7812 11.9332 19.7504 12.1746 19.6836 12.4109C19.6168 12.6472 19.5193 12.8629 19.3909 13.0529C19.2881 13.171 19.1854 13.2584 19.0827 13.3149C18.98 13.3713 18.8618 13.4022 18.7334 13.4022C18.5537 13.3457 18.4458 13.2224 18.3996 13.0324C18.3534 12.8423 18.3123 12.6574 18.2712 12.4777C18.1941 12.4777 18.1325 12.5033 18.076 12.5496C18.0298 12.6061 17.9836 12.6574 17.9425 12.7037C17.8449 13.0529 17.7011 13.3765 17.5008 13.6744C17.3005 13.9723 17.0693 14.2445 16.7971 14.4859C16.5249 14.7273 16.2322 14.9379 15.9086 15.1125C15.585 15.2871 15.2614 15.4207 14.9327 15.508C15.02 15.5285 15.1125 15.5439 15.2049 15.5491C15.2974 15.5542 15.3898 15.5593 15.4771 15.5593C15.662 15.5593 15.8521 15.5439 16.0421 15.5182C16.2322 15.4926 16.4273 15.4617 16.6174 15.4258C16.8279 15.3231 17.0128 15.1844 17.1618 15.0149C17.2799 14.8865 17.4032 14.7067 17.5316 14.4807C17.6549 14.2342 17.7833 13.9877 17.9117 13.7411C17.999 13.5768 18.0812 13.4381 18.1582 13.3303C18.1941 13.3765 18.2198 13.4741 18.2404 13.6179C18.2609 13.7617 18.2763 13.8439 18.2917 13.8644C18.3328 13.9723 18.3996 14.0647 18.4972 14.1366C18.5948 14.2085 18.6975 14.2393 18.8053 14.2342C18.9954 14.2342 19.1751 14.1469 19.3395 13.9671C19.4422 13.849 19.5501 13.6846 19.6579 13.4741C19.7607 13.0889 19.8326 12.7345 19.8788 12.4109C19.925 12.0873 19.9456 11.7329 19.9456 11.358C19.9456 11.1269 19.9353 10.8957 19.9147 10.6698ZM15.9702 12.9194C15.7648 13.5152 15.5131 14.0082 15.2203 14.3986C14.83 14.9173 14.3729 15.2203 13.8541 15.3025C13.3354 15.3847 12.9245 15.4463 12.6317 15.4823C12.339 15.5182 12.0925 15.5388 11.9024 15.5388C12.8269 15.359 13.6692 14.9584 14.4294 14.3369C15.2717 13.6436 15.7853 12.8475 15.9702 11.9435C15.9702 11.435 15.8983 10.9676 15.7494 10.5311C15.6004 10.0945 15.3796 9.67849 15.0868 9.28301C15.0868 9.42168 15.1022 9.78121 15.1382 10.3719C15.1536 10.603 15.1587 10.8238 15.1587 11.0293C15.1587 11.4042 15.1228 11.7329 15.0457 12.0154C14.9789 11.5583 14.9224 11.1525 14.8865 10.8084C14.8505 10.4643 14.83 10.0894 14.83 9.68362C14.83 9.14433 14.8865 8.64099 14.9944 8.18388C15.3847 8.5999 15.6826 9.09297 15.8932 9.65281C16.1038 10.2126 16.2065 10.7982 16.2065 11.4094C16.2065 11.6559 16.1859 11.9076 16.1448 12.1644C16.1038 12.4212 16.0473 12.6728 15.9702 12.9194ZM13.4638 12.0257C13.2378 12.113 13.0478 12.2517 12.8885 12.4366C12.7601 12.5804 12.6266 12.7807 12.4982 13.0324C12.4314 13.1762 12.3287 13.3816 12.1952 13.6538C12.0616 13.926 11.9281 14.1469 11.7894 14.3164C11.5172 14.6605 11.1885 14.9379 10.8136 15.1484C10.3975 15.3898 9.75039 15.6107 8.87211 15.8161C8.93888 15.8213 9.0416 15.8315 9.18028 15.8418C9.31895 15.8521 9.45249 15.8572 9.58089 15.8572C9.88906 15.8572 10.1921 15.8315 10.49 15.7802C10.7879 15.7288 11.0601 15.6466 11.3015 15.5336C11.5429 15.4207 11.7586 15.246 11.9435 15.0046C12.0873 14.8197 12.2311 14.5783 12.3749 14.2753C12.4623 14.075 12.5547 13.8798 12.6523 13.6795C12.8372 13.2892 13.0478 13.0272 13.2789 12.8988C13.3611 12.8423 13.4176 12.7704 13.4484 12.6831C13.4792 12.5958 13.4946 12.4828 13.4946 12.3441C13.4946 12.2363 13.4843 12.1284 13.4638 12.0257ZM6.73549 10.454C6.73549 10.5516 6.70981 10.6749 6.66359 10.8238C6.59682 11.0344 6.55573 11.1628 6.55059 11.2039C6.44787 11.2039 6.29379 11.2245 6.08834 11.2655C5.8829 11.3066 5.73395 11.3272 5.64664 11.3272C5.59014 11.3272 5.54905 11.3272 5.52337 11.3169C5.55932 11.1063 5.585 10.9625 5.60555 10.8957C5.66204 10.7468 5.74422 10.6338 5.85208 10.567C6.14484 10.5311 6.44273 10.4951 6.73549 10.454ZM11.4813 9.22137C11.4813 9.4525 11.471 9.61685 11.4504 9.70417C11.4093 9.88393 11.322 9.99692 11.1834 10.0534C10.9779 10.1356 10.7879 10.2537 10.6184 10.4027C10.49 10.5208 10.3359 10.6852 10.1664 10.906C10.0431 11.0652 9.91474 11.2501 9.77607 11.4607C9.57062 11.774 9.44736 11.9589 9.40627 12.0154C9.45249 12.3184 9.50385 12.6163 9.56035 12.9091C9.65794 13.2429 9.83256 13.4689 10.0945 13.5871C10.3359 13.5871 10.5413 13.4535 10.7108 13.1864C10.9214 12.8526 11.0806 12.6574 11.1834 12.6009C11.1474 12.9553 11.0344 13.3046 10.8444 13.6384C10.6338 14.0031 10.3719 14.265 10.0637 14.4294C9.92501 14.4088 9.80688 14.3678 9.7093 14.301C9.61171 14.2342 9.53467 14.1469 9.47817 14.039C9.37031 13.8541 9.28814 13.623 9.23677 13.3457C9.18541 13.0683 9.13919 12.8012 9.0981 12.5496C8.81561 12.9553 8.50745 13.32 8.1736 13.6487C7.83975 13.9774 7.47509 14.2599 7.08475 14.491C6.73549 14.7016 6.37083 14.8762 5.99076 15.0046C5.61068 15.133 5.23061 15.1998 4.8454 15.1998C4.717 15.1998 4.58346 15.1895 4.44479 15.169C3.9774 15.1125 3.56651 14.9892 3.21212 14.7889C2.7961 14.5578 2.48279 14.2393 2.27735 13.8439C2.19004 13.6179 2.11813 13.4227 2.07191 13.2532C2.02568 13.0837 2 12.904 2 12.7139C2 12.6112 2 12.5342 2.01027 12.4777C2.01541 12.4212 2.03595 12.3441 2.07191 12.2414C2.13867 11.887 2.28249 11.5891 2.50334 11.3477C2.6831 11.1474 2.93477 10.9728 3.26348 10.8136C3.83873 10.5311 4.41911 10.2537 4.99949 9.97124C5.04571 9.91475 5.0868 9.87366 5.11762 9.84284C5.14843 9.81203 5.18439 9.79148 5.22548 9.78634C5.02517 10.0945 4.63996 10.3873 4.06472 10.6698C3.78223 10.8084 3.50488 10.942 3.22239 11.0806C2.91423 11.245 2.68824 11.4145 2.54443 11.584C2.35953 11.8048 2.26708 12.0616 2.26708 12.3544C2.26708 12.5393 2.30817 12.7499 2.39034 12.9913C2.65742 13.4278 3.01181 13.7668 3.45865 14.0031C3.9055 14.2394 4.38829 14.3575 4.90704 14.3575C5.15357 14.3575 5.40524 14.3267 5.66718 14.265C6.3246 14.1212 6.95121 13.8285 7.547 13.3919C8.10683 12.981 8.5999 12.4674 9.0262 11.8511C8.97997 11.4248 8.93374 11.0036 8.89266 10.5773C8.83102 10.0842 8.73857 9.67335 8.61531 9.34464C8.6718 9.17515 8.71289 9.04675 8.73857 8.96457C8.79507 8.81562 8.86184 8.70263 8.94402 8.63586C9.0416 9.00052 9.11864 9.43195 9.18028 9.93016C9.24191 10.4284 9.29841 10.9112 9.35491 11.3683C9.45763 11.245 9.57576 11.0961 9.70416 10.9163C10.0534 10.4284 10.2486 10.1613 10.2897 10.1151C10.4746 9.88907 10.6543 9.7093 10.8238 9.57063C11.0293 9.40627 11.2501 9.28814 11.4813 9.22137ZM8.96456 14.7581L8.7283 15.4463L7.8038 15.5388C7.8038 15.3898 7.83462 15.2409 7.89112 15.0971C7.94761 14.9533 8.03493 14.8403 8.14278 14.7581C8.22496 14.7581 8.33282 14.7478 8.4715 14.7324C8.61017 14.717 8.68721 14.7067 8.70776 14.7067C8.81561 14.7067 8.90293 14.7221 8.96456 14.7581Z" fill="white"/>
</svg>
