<svg width="24" height="24" viewBox="0 0 24 24" fill="none" xmlns="http://www.w3.org/2000/svg">
<path fill-rule="evenodd" clip-rule="evenodd" d="M21.9268 9.99346C21.9414 10.1912 21.9561 10.3743 21.9707 10.5573C21.9854 10.7331 22 10.9382 22 11.1725C22 11.8902 21.9341 12.5786 21.7949 13.2523C21.6558 13.9188 21.4361 14.5559 21.1358 15.1564C20.777 16.0938 20.0666 16.7236 19.0048 17.0605C18.3017 17.2802 17.3057 17.39 16.0242 17.39C16.6466 17.2289 17.2765 16.9872 17.9136 16.665C18.5507 16.3428 19.1439 15.9473 19.6858 15.486C20.2351 15.0246 20.6964 14.49 21.0699 13.8895C21.4434 13.2889 21.6778 12.6518 21.773 11.9854C21.6924 11.0407 21.5313 10.1472 21.297 9.31238C21.0553 8.47752 20.7184 7.67196 20.2863 6.89568V11.2604C20.1838 10.3743 20.1033 9.61997 20.052 9.01945C20.0007 8.41162 19.9714 7.75984 19.9714 7.07145C19.9714 6.82978 19.9714 6.56614 19.9788 6.27321C19.9788 5.9876 20.03 5.60678 20.1106 5.14541C20.5866 5.78254 20.9821 6.5222 21.297 7.37902C21.6119 8.23585 21.8242 9.10733 21.9268 9.99346ZM15.3285 5.68001C15.3504 5.87774 15.3211 6.09012 15.2332 6.32446C15.1454 6.55881 15.0648 6.77119 14.9843 6.96892C14.9037 6.86639 14.8305 6.79316 14.7792 6.7419C14.6767 6.66134 14.5741 6.6174 14.4643 6.6174C14.4057 6.6174 14.3471 6.63204 14.2885 6.66866C14.0103 6.9323 13.7539 7.25453 13.5269 7.6207C13.461 7.73787 13.2706 8.08206 12.9557 8.66061C13.0363 8.00151 13.2267 7.39367 13.5196 6.82978C13.8125 6.26588 14.2226 5.77521 14.7426 5.35046C14.8598 5.32849 14.9623 5.35047 15.0575 5.43835C15.1527 5.5189 15.2406 5.59945 15.3358 5.68001H15.3285ZM18.0161 6.96892C17.9356 6.14871 17.7891 5.45299 17.584 4.89642C17.3204 4.17141 16.9469 3.65145 16.4782 3.3512C16.3537 3.87115 16.2878 4.45702 16.2878 5.11612C16.4123 6.46361 16.5441 7.8111 16.6686 9.15859C16.7126 8.91692 16.7345 8.63864 16.7345 8.33106C16.7345 8.14798 16.7126 7.82575 16.6686 7.37902C16.5881 6.58811 16.5441 6.06083 16.5441 5.80451C16.5441 5.453 16.5881 5.11611 16.6686 4.80121C16.9323 5.13808 17.152 5.49693 17.3204 5.87774C17.4888 6.25855 17.628 6.66866 17.7451 7.1227C17.7818 7.32776 17.7964 7.53281 17.7964 7.73054C17.7964 8.33105 17.6353 8.92425 17.3131 9.51012C17.0494 9.99345 16.654 10.4988 16.134 11.0114C15.8777 11.297 15.7019 11.4435 15.5994 11.4435C15.5408 11.4435 15.5115 11.3849 15.5115 11.2677C15.5262 11.1432 15.5408 10.9967 15.5628 10.843C15.5848 10.6892 15.5994 10.5427 15.5994 10.4036C15.5994 10.0887 15.5262 9.90557 15.3724 9.84698C15.3358 9.92754 15.3065 10.0813 15.2845 10.301C15.2625 10.5207 15.2259 10.6818 15.182 10.7844C15.0209 11.0187 14.8744 11.1872 14.7499 11.3043C14.5522 11.4801 14.3618 11.5606 14.1787 11.546C14.1201 11.2677 14.0615 10.9821 14.0029 10.6965C13.9443 11.0553 13.8565 11.3483 13.7466 11.5826C13.5928 11.8829 13.3804 12.1026 13.1022 12.2417C12.9264 12.3442 12.7946 12.3955 12.7067 12.3955C12.5456 12.3955 12.4504 12.2051 12.4138 11.817C12.3772 11.4288 12.2966 11.2164 12.1721 11.1652C11.5276 11.3849 10.9857 11.7584 10.561 12.293C10.3266 12.5713 10.1509 12.8569 10.0337 13.1571C9.90919 13.4574 9.85061 13.7723 9.85061 14.0945C9.72611 14.5925 9.49176 15.0392 9.15489 15.4274C8.8766 15.7496 8.50311 16.0498 8.0271 16.3281C7.14097 16.7309 6.25485 17.1337 5.37605 17.5218C6.15233 17.5218 6.84072 17.4852 7.45588 17.4193C8.07104 17.3534 8.61296 17.1923 9.08166 16.9506C9.50641 16.6723 9.82131 16.2769 10.019 15.7569C10.1362 15.4567 10.2461 14.9513 10.3486 14.2483C10.4511 13.8675 10.6781 13.5306 11.0297 13.2377C11.3812 12.9448 11.7473 12.769 12.1282 12.7104C12.1501 12.8935 12.1794 13.0839 12.216 13.2816C12.2527 13.4794 12.3405 13.6258 12.4724 13.7137C12.758 13.7137 13.0289 13.6478 13.2852 13.5086C13.5416 13.3695 13.7539 13.1864 13.9297 12.9521H14.1714C14.3471 12.9521 14.5375 12.8642 14.7572 12.6958C15.2406 12.3003 15.5628 12.1026 15.7093 12.0879C16.2073 11.9854 16.6393 11.7364 17.0201 11.3336C17.3936 10.9382 17.6426 10.5061 17.7598 10.052C17.877 9.59799 17.9502 9.18789 17.9795 8.82172C18.0088 8.45555 18.0234 7.97221 18.0234 7.36438V6.96892H18.0161ZM10.7953 19.4845C10.7587 19.587 10.6049 19.6895 10.3266 19.7921C10.2094 19.8506 10.0996 19.9166 9.99707 19.9825C9.4112 20.1216 8.95716 20.2241 8.64226 20.2901C7.5877 20.5317 6.76016 20.6489 6.145 20.6489C5.30282 20.6489 4.64372 20.6049 4.1677 20.5244C3.50128 20.4072 2.92274 20.1802 2.43208 19.8506C2.14647 19.4845 2 19.0231 2 18.4812C2 18.1223 2.05859 17.7269 2.17576 17.2875C2.24167 17.0312 2.35884 16.6943 2.51996 16.2622C2.68107 15.8375 2.88612 15.4347 3.12779 15.0685C3.31087 14.7829 3.57451 14.4241 3.90406 14.014C4.16038 13.6917 4.43867 13.3549 4.75357 13.0107C4.83413 12.9155 5.14171 12.6006 5.66899 12.0586C5.47126 12 5.32479 11.9561 5.23691 11.9195C5.06115 11.8536 4.9513 11.7437 4.90736 11.6046C4.81216 11.4069 4.76822 11.1872 4.76822 10.9455C4.76822 10.6818 4.83413 10.3816 4.95862 10.0447C5.08312 9.70784 5.20762 9.39294 5.32479 9.09268C5.90333 8.43358 6.5844 7.93559 7.36067 7.5914C8.13695 7.2472 8.96448 7.07877 9.82863 7.07877L9.98242 7.33509C9.98242 7.75252 9.91651 8.14065 9.79202 8.50681C9.66752 8.87298 9.47712 9.24648 9.23545 9.62729C9.03772 9.94219 8.79604 10.2498 8.51776 10.5573C8.23215 10.8649 7.92457 11.1652 7.5877 11.4654L5.64702 13.1644C5.2662 13.5086 4.95862 13.8016 4.7316 14.0286C4.43134 14.3435 4.1677 14.6584 3.93336 14.9806C3.57451 15.4567 3.223 15.9254 2.8788 16.4014C2.51263 16.9653 2.32223 17.4925 2.32223 17.9759C2.32223 18.2615 2.38081 18.5471 2.49799 18.8254C2.98133 19.3234 3.57452 19.6749 4.28488 19.8799C4.87074 20.0557 5.59575 20.1363 6.45258 20.1363C7.17759 20.1363 8.10765 20.0264 9.24277 19.7994C9.74808 19.6895 10.268 19.5797 10.788 19.4772L10.7953 19.4845ZM9.33797 8.41162L9.32332 8.65329C8.50311 9.5687 8.07836 10.0301 8.05639 10.0594C7.51446 10.5647 7.00915 10.821 6.53314 10.821C6.46723 10.821 6.35738 10.8063 6.21824 10.7844C6.17429 10.7477 6.02051 10.6892 5.77151 10.6086C5.5152 10.5281 5.37605 10.4109 5.33944 10.2644C5.53717 9.96416 5.78616 9.70052 6.09374 9.46618C6.40132 9.23183 6.73087 9.04874 7.08239 8.90228C7.43391 8.75581 7.71952 8.66061 7.93922 8.61667C8.29806 8.53611 8.76675 8.46288 9.34529 8.41162H9.33797Z" fill="white"/>
</svg>
