<svg width="24" height="24" viewBox="0 0 24 24" fill="none" xmlns="http://www.w3.org/2000/svg">
<path fill-rule="evenodd" clip-rule="evenodd" d="M21.9476 11.3044C21.985 11.5512 22 11.8429 22 12.1795C22 12.905 21.9028 13.6305 21.7083 14.3486C21.5138 14.8572 21.3119 15.2611 21.1025 15.5677C20.8183 15.994 20.4892 16.3156 20.1152 16.5176C19.5393 16.6971 18.911 16.8467 18.2154 16.9514C17.5198 17.0636 16.8915 17.1159 16.3306 17.1159C16.9289 17.0336 17.4899 16.899 18.0135 16.727C18.537 16.555 19.0381 16.3156 19.5318 16.009C20.0628 15.6649 20.4966 15.3059 20.8257 14.917C21.1997 14.4682 21.4839 13.9671 21.6634 13.4136C21.7457 13.1519 21.7906 12.8676 21.7906 12.5759C21.7906 12.1272 21.6933 11.6559 21.4914 11.1473C21.3792 10.8631 21.1698 10.4293 20.8482 9.83844C20.8332 10.003 20.8183 10.19 20.8108 10.4069C20.8033 10.6238 20.7958 10.8332 20.7958 11.0351C20.7958 11.3418 20.7958 11.656 20.8108 11.9626C20.8183 12.2768 20.8257 12.5834 20.8332 12.8901C20.8332 13.2042 20.8183 13.5183 20.7958 13.8175C20.736 13.3687 20.6836 12.8901 20.6387 12.374C20.5939 11.8579 20.5714 11.3717 20.5714 10.9305C20.5714 10.1152 20.6387 9.34478 20.7659 8.60432C21.1025 8.97829 21.3643 9.38967 21.5512 9.83095C21.7382 10.2722 21.8729 10.7584 21.9476 11.2895V11.3044ZM16.9663 6.61481C16.727 7.14585 16.3904 7.63951 15.9641 8.08828C15.5827 8.49217 15.1189 8.85865 14.5879 9.20271C14.1017 9.51684 13.5782 9.80853 13.0247 10.0778C12.7704 10.1975 12.2393 10.4218 11.4465 10.7584C12.4413 10.5639 13.2939 10.3096 14.012 10.0105C14.8871 9.65144 15.6425 9.18773 16.2708 8.62678C16.2334 8.75393 16.2034 8.88854 16.1735 9.03065C16.1436 9.17276 16.1286 9.29247 16.1286 9.39718C16.1286 9.51685 16.1361 9.60659 16.1511 9.66643H16.2633C16.4054 9.15783 16.5625 8.63424 16.7195 8.09572C16.8766 7.5572 16.9589 7.06358 16.9589 6.62229L16.9663 6.61481ZM19.988 12.8003C19.816 12.8003 19.6215 12.7629 19.3972 12.6956C19.2775 12.6582 19.0905 12.5984 18.8287 12.5161C18.7091 12.4563 18.6193 12.374 18.552 12.2618C18.4847 12.1496 18.4473 12.0299 18.4323 11.8878V10.9903C18.4323 10.6911 18.4323 10.4218 18.4099 10.175C18.3949 9.9282 18.38 9.7113 18.35 9.52432C18.2827 9.11295 18.178 8.73898 18.0434 8.4024C17.9088 8.06583 17.7292 7.74419 17.5049 7.44501C17.3403 7.50485 17.2431 7.65447 17.2132 7.90129C17.1758 8.14811 17.1458 8.44726 17.1234 8.80628C17.1234 8.98578 17.0935 9.44203 17.0337 10.1675C17.0112 10.4742 16.9963 10.7435 16.9963 10.9604C16.9963 11.1997 17.0112 11.4166 17.0337 11.6111C17.0561 11.8055 17.1085 11.9925 17.1758 12.172C17.288 11.0875 17.4001 9.9955 17.5123 8.89602C17.7218 9.1578 17.8714 9.4869 17.9536 9.87583C18.0135 10.16 18.0359 10.534 18.0359 11.0052C18.0359 11.1473 18.0209 11.3717 17.9985 11.6709C17.9761 11.9701 17.9611 12.1945 17.9611 12.3366C17.9611 12.5311 17.9835 12.718 18.0284 12.8826C18.0733 13.0471 18.1406 13.1818 18.2304 13.2715C17.9461 13.5183 17.7367 13.6904 17.6021 13.7726C17.3628 13.9297 17.1234 14.0194 16.8841 14.0419C16.1286 13.8325 15.7322 13.2042 15.6874 12.1496C15.6425 11.095 15.5602 10.4293 15.4405 10.1526L15.3508 10.2797C15.276 10.4368 15.2236 10.5789 15.1937 10.7135C15.1638 10.8482 15.1488 10.9978 15.1488 11.1698C15.1488 11.282 15.1638 11.4465 15.2012 11.6559C15.2087 11.7158 15.2536 11.985 15.3433 12.4637C15.3583 12.5759 15.3957 12.7479 15.448 12.9798C15.4705 13.1369 15.4854 13.3014 15.4854 13.4809C15.4854 13.6829 15.4555 13.8773 15.3882 14.0494C15.3209 14.2214 15.2087 14.3934 15.0516 14.558C14.9095 14.6402 14.8197 14.6926 14.7973 14.715C14.6926 14.7674 14.6028 14.7898 14.5131 14.7898C14.4533 14.7898 14.3859 14.7749 14.3111 14.7524C14.0643 14.5879 13.8848 14.371 13.7726 14.0942C13.6978 13.8923 13.6305 13.5482 13.5782 13.0696C13.5258 12.5909 13.4734 12.2618 13.4211 12.0823C13.3687 11.8953 13.2865 11.7232 13.1743 11.5587C13.0621 11.5737 12.9723 11.5961 12.9125 11.626C12.8452 11.6485 12.7928 11.6933 12.7554 11.7532C12.3964 12.2468 12.0374 12.7106 11.6859 13.1294C11.267 13.6231 10.8631 14.0568 10.4667 14.4158C10.018 14.8347 9.55423 15.1937 9.0531 15.5004C8.55946 15.807 8.05834 16.0314 7.54974 16.1735C7.04114 16.3157 6.53254 16.3904 6.02393 16.3904C5.36574 16.3904 4.74495 16.2708 4.15408 16.0239C3.57068 15.7771 3.08452 15.4256 2.71055 14.9544C2.37397 14.543 2.20942 14.1466 2.20942 13.7726C2.20942 13.6978 2.20942 13.6305 2.22438 13.5782C2.23186 13.5258 2.24682 13.4735 2.26178 13.4136C2.32162 13.2042 2.43381 12.9948 2.59088 12.7853C2.74794 12.5684 2.92745 12.374 3.12191 12.202C3.31638 12.0299 3.59312 11.813 3.94465 11.5662C4.1466 11.4241 4.31862 11.3044 4.44577 11.2072C4.70008 11.0352 4.9095 10.8781 5.07405 10.7285C5.27599 10.549 5.44054 10.3845 5.55273 10.2274C5.19372 10.534 4.95438 10.736 4.82723 10.8182C4.70007 10.9005 4.55049 10.9903 4.37098 11.0726C4.13912 11.2147 3.89978 11.3717 3.65295 11.5288C3.40613 11.6859 3.20419 11.8504 3.04712 12.0224C2.68063 12.3216 2.41137 12.6732 2.24682 13.0696C2.08227 13.466 2 13.9073 2 14.3859C2 14.558 2.00748 14.7076 2.02244 14.8422C2.0374 14.9768 2.06731 15.1189 2.09723 15.276C2.23186 15.7547 2.55348 16.1735 3.04712 16.5251C3.44353 16.8093 3.8923 17.0187 4.4009 17.1683C4.9095 17.3104 5.41062 17.3852 5.89678 17.3852C6.65221 17.3852 7.39267 17.2281 8.11818 16.914C8.84368 16.5999 9.51683 16.1735 10.1227 15.62C11.0277 14.6103 11.9402 13.6006 12.8601 12.5909C13.077 12.8601 13.2341 13.3388 13.3388 14.0269C13.4435 14.7225 13.5856 15.2012 13.7577 15.463C13.9297 15.7023 14.1541 15.822 14.4233 15.822H14.4981C14.4981 15.822 14.5654 15.822 14.6028 15.807C14.9095 15.7322 15.1563 15.5228 15.3508 15.1788C15.463 14.9843 15.5752 14.6776 15.6874 14.2663C15.8519 14.5579 16.0165 14.7674 16.1735 14.8945C16.3381 15.0217 16.5026 15.089 16.6746 15.089C16.8018 15.089 16.9439 15.0516 17.1085 14.9768C17.2655 14.902 17.4301 14.8048 17.5871 14.6851C18.2528 14.1989 18.6268 13.9372 18.6941 13.8998C18.9409 13.7726 19.1803 13.7053 19.3972 13.7053C19.5243 13.7053 19.644 13.7203 19.7412 13.7577C19.7861 13.638 19.8384 13.436 19.9058 13.1443C19.9207 13.0695 19.9506 12.9499 19.9955 12.7853L19.988 12.8003ZM8.46971 11.2446C8.35752 11.5587 8.25281 11.8728 8.14809 12.172C7.98355 12.531 7.72925 12.7255 7.39267 12.7704C7.273 12.7704 7.07853 12.8078 6.80927 12.8751C6.63725 12.92 6.53254 12.9424 6.49514 12.9424C6.84667 12.7554 7.19821 12.561 7.54974 12.3665C7.76664 12.2094 7.88631 12.0449 7.90875 11.8654C7.86388 11.8579 7.79656 11.8504 7.70681 11.8504H7.36275C7.24308 11.8504 7.14585 11.8429 7.07853 11.8205C7.01122 11.7981 6.95138 11.7457 6.89903 11.6634C7.0187 10.9604 7.20569 10.4518 7.46747 10.1152C7.69185 9.82348 7.96111 9.66644 8.2902 9.62904C8.3276 9.76367 8.2902 9.91323 8.20793 10.0628C8.12566 10.2124 8.02842 10.362 7.94615 10.4966C7.89379 10.4742 7.84892 10.4592 7.80404 10.4592C7.73672 10.4592 7.66193 10.4892 7.58714 10.5415C7.51234 10.5939 7.45251 10.6387 7.42259 10.6612C7.37023 10.736 7.37023 10.7883 7.40763 10.8033C7.47494 10.8631 7.6021 10.8931 7.7816 10.8931H8.06582C8.20045 10.8931 8.30516 10.9155 8.37996 10.9604C8.45475 11.0052 8.49215 11.095 8.49215 11.2371L8.46971 11.2446Z" fill="white"/>
</svg>
