<svg width="24" height="24" viewBox="0 0 24 24" fill="none" xmlns="http://www.w3.org/2000/svg">
<path fill-rule="evenodd" clip-rule="evenodd" d="M18.2673 9.69713C18.2673 9.79235 18.2292 9.89392 18.153 9.99549C18.1086 10.0526 18.0641 10.1034 18.0229 10.1542C17.9467 10.2209 17.8388 10.2685 17.7023 10.3002C17.6324 10.3161 17.5055 10.3319 17.3214 10.3446C17.3658 10.278 17.4833 10.2145 17.6705 10.1542C17.8578 10.0939 17.9752 10.0145 18.0197 9.91931C17.9943 9.86853 17.9149 9.83361 17.7784 9.81774C17.6451 9.7987 17.5753 9.75426 17.5753 9.68443C17.5753 9.66539 17.5817 9.63364 17.5975 9.59238C17.7181 9.41463 17.7943 9.30671 17.8261 9.26545C17.9276 9.14483 18.0355 9.06866 18.1466 9.04326C18.1974 9.05913 18.2228 9.08453 18.2228 9.11944C18.2228 9.15118 18.2101 9.18292 18.1816 9.22101C18.153 9.2591 18.1276 9.29402 18.1022 9.32258C18.0355 9.33845 17.9752 9.35115 17.9245 9.36385C17.8705 9.37654 17.8292 9.40828 17.7975 9.45907C17.8324 9.50033 17.9118 9.5289 18.0324 9.55112C18.153 9.57016 18.2292 9.62095 18.2609 9.69713H18.2673ZM22 10.9858C22 10.497 21.9302 10.0368 21.7937 9.59873C21.6572 9.1607 21.4509 8.78299 21.1779 8.4624C21.0763 8.77664 21.0065 9.11309 20.9716 9.46859C20.9367 9.82409 20.9176 10.2272 20.9176 10.6811C20.9176 10.8335 20.9176 11.062 20.924 11.3667C20.9303 11.6714 20.9303 11.8936 20.9303 12.0364C20.9811 11.8143 21.0224 11.2842 21.0509 10.4526C21.0668 10.0526 21.0986 9.74156 21.1493 9.52255C21.3461 9.85901 21.5048 10.2082 21.6255 10.5732C21.7461 10.9382 21.8032 11.3032 21.8032 11.6619C21.8032 11.846 21.7873 12.0237 21.7524 12.1983C21.7207 12.3729 21.6699 12.5411 21.6032 12.6967C21.4509 13.0426 21.2414 13.3632 20.9779 13.6648C20.7335 13.9377 20.451 14.1853 20.1273 14.4043C19.8035 14.6233 19.4671 14.7979 19.1147 14.9344C18.7624 15.0677 18.4037 15.1629 18.0451 15.2137L18.5783 14.5345C18.7878 14.2805 18.9275 13.9409 18.9973 13.5124C19.0481 13.2172 19.0735 12.8236 19.0735 12.3316C19.0735 11.5254 18.8418 10.8176 18.3815 10.2145C18.1466 10.9414 18.007 11.4238 17.9562 11.6619C17.8895 11.9761 17.8578 12.2777 17.8578 12.5697C17.8578 12.6713 17.861 12.7697 17.8705 12.8617C17.8768 12.9569 17.8864 13.0268 17.8959 13.0712C17.9816 12.9284 18.0546 12.7284 18.1181 12.4681C18.28 11.7984 18.3688 11.4461 18.3847 11.408C18.5053 11.6809 18.5974 11.9158 18.6577 12.1094C18.7402 12.3729 18.7783 12.6236 18.7783 12.8649V12.9664C18.7783 13.0109 18.7783 13.0522 18.7719 13.0934C18.645 13.4394 18.499 13.7219 18.3371 13.9377C18.1244 14.2266 17.8768 14.4265 17.5975 14.5313C17.3944 14.5313 17.2484 14.5249 17.1627 14.5091C17.004 14.4773 16.8802 14.417 16.7881 14.325C17.0833 13.7505 17.2293 13.1252 17.2293 12.4427C17.2293 12.1983 17.2071 11.9507 17.1595 11.6968C17.1151 11.4429 17.0484 11.2112 16.9627 11.0049C16.5882 11.5032 16.312 12.0301 16.1406 12.5887C16.0073 13.0109 15.9438 13.4426 15.9438 13.8838C15.9438 13.9758 15.9438 14.0679 15.9502 14.1631C15.9565 14.2583 15.9629 14.3408 15.9724 14.4107C15.6264 14.6646 15.2043 14.8677 14.6996 15.0201C14.5123 15.0772 14.0489 15.182 13.3125 15.3407C13.395 15.3724 13.4744 15.4042 13.5569 15.4391C13.7918 15.42 14.1473 15.3883 14.6297 15.347C15.3407 15.2772 15.8994 15.1471 16.3057 14.9598C16.458 15.1471 16.6262 15.2772 16.8135 15.347C16.9976 15.4169 17.2103 15.4549 17.4483 15.4549C17.5912 15.4549 17.7784 15.4391 18.0133 15.4105C18.5275 15.3438 18.8449 15.3121 18.9656 15.3121C19.0163 15.3121 19.0893 15.3121 19.1877 15.3185C19.6956 15.3185 20.1654 15.1598 20.597 14.8392C20.9875 14.5503 21.3049 14.1694 21.5493 13.6965C21.8445 12.8681 21.9905 11.9634 21.9905 10.9858H22ZM17.004 9.66856L16.6929 10.5383C16.2454 10.8493 15.801 11.154 15.3598 11.4588C15.309 12.1094 15.2614 12.7601 15.2138 13.4076H15.182C15.182 13.2458 15.182 13.0807 15.1757 12.9125C15.1693 12.7443 15.1662 12.576 15.1598 12.4015C15.1598 12.2396 15.1662 12.0904 15.1757 11.9507C15.1852 11.8143 15.2074 11.6809 15.236 11.554C15.0995 11.6555 14.7631 11.8396 14.2298 12.1094C13.7569 12.3475 13.4268 12.5633 13.2395 12.757C12.9443 13.0553 12.7983 13.4267 12.7983 13.8679C12.7158 14.3694 12.6078 14.7344 12.4745 14.9598C12.3412 15.1851 12.1698 15.3534 11.9603 15.4581C11.9032 15.4772 11.8429 15.4899 11.7762 15.4899C11.6842 15.4899 11.6048 15.4772 11.5413 15.4486C11.4747 15.42 11.389 15.3692 11.2811 15.2931L10.8462 14.7376C10.6272 14.9217 10.3415 15.0487 9.98603 15.1185C9.43691 15.1883 8.89097 15.2645 8.3482 15.3407C8.44342 15.2835 8.71639 15.1598 9.16394 14.9661C9.84003 14.6709 10.3288 14.3757 10.6336 14.0742C10.6145 13.8774 10.6018 13.6616 10.6018 13.4267C10.6018 13.1315 10.6209 12.8331 10.6621 12.5284C10.7034 12.2237 10.7573 11.9253 10.8303 11.6365C10.9224 11.2651 11.0398 10.8906 11.1795 10.5097C11.2906 10.2113 11.4398 9.85583 11.6302 9.4432C11.7508 9.71617 11.8429 10.0018 11.9 10.3002C11.9571 10.5986 11.9889 10.9096 11.9889 11.2334C11.9889 11.3096 11.9889 11.3794 11.9857 11.4461C11.9857 11.5127 11.973 11.646 11.9508 11.8492C11.9064 12.2618 11.827 12.6586 11.7159 13.0426C11.6048 13.4267 11.4588 13.8044 11.2811 14.1726C11.2715 14.2678 11.3065 14.344 11.389 14.398C11.4715 14.4519 11.5509 14.4995 11.6334 14.5472C11.6905 14.5535 11.7286 14.5535 11.754 14.5535C11.8397 14.5535 11.9191 14.5408 11.9857 14.5154C12.0555 14.49 12.1127 14.4456 12.1571 14.3789C12.3158 14.1821 12.4491 13.906 12.5602 13.5568C12.6459 13.2585 12.738 12.9538 12.8332 12.6427C12.9284 12.3316 13.0681 12.0809 13.2522 11.8873C13.4648 11.6651 13.7727 11.4778 14.1727 11.3318C13.8584 11.1699 13.5823 10.9699 13.3411 10.7287C13.3411 10.4145 13.3728 10.1574 13.4331 9.96058C13.5156 9.6876 13.6616 9.48129 13.8743 9.3448C13.9949 9.30354 14.1314 9.26862 14.2806 9.24323C14.4298 9.21466 14.5726 9.20197 14.7123 9.20197C14.9218 9.20197 15.0995 9.23371 15.2455 9.29402C15.3915 9.35432 15.5058 9.46542 15.5883 9.62095C15.6201 9.6876 15.6328 9.76696 15.6328 9.86535C15.6328 9.92566 15.6232 10.0177 15.601 10.1383C15.582 10.2589 15.5693 10.3478 15.5693 10.3986C15.5693 10.4653 15.5756 10.5129 15.5851 10.5446C15.8994 10.3669 16.1374 10.2335 16.293 10.1415C16.5882 9.97327 16.8199 9.81774 16.9944 9.66856H17.004ZM8.84336 8.83695C8.75766 8.7449 8.66561 8.68459 8.56404 8.6592C8.46564 8.63063 8.34503 8.61793 8.20219 8.61793C8.10062 8.72903 8.01809 8.84647 7.95461 8.96708C7.89113 9.0877 7.84034 9.22101 7.79908 9.36385C7.89113 9.42415 7.96731 9.46542 8.02761 9.49081C8.08792 9.51303 8.1514 9.52573 8.21806 9.52573C8.37994 9.52573 8.52595 9.42098 8.65291 9.21466C8.67831 9.1734 8.74179 9.04961 8.84336 8.84012V8.83695ZM7.12934 9.07183L7.05317 9.32258L6.77067 9.19245C6.73576 9.27815 6.69132 9.45272 6.64053 9.713C6.58975 9.97327 6.52309 10.1669 6.44374 10.2875C6.37391 10.2177 6.31043 10.1193 6.25964 9.99867C6.12633 9.68443 6.0438 9.50351 6.00889 9.45907C6.00889 9.5416 5.9708 9.57969 5.89462 9.57969C5.86288 9.57969 5.83114 9.57334 5.79305 9.56064C5.75496 9.54794 5.71687 9.53525 5.68196 9.51938C5.68196 9.38289 5.69465 9.26545 5.71687 9.1734C5.73909 9.07818 5.79622 9.00835 5.88827 8.96391C6.07554 9.04009 6.22473 9.22101 6.32947 9.50351C6.412 9.713 6.46596 9.84314 6.4977 9.90027C6.54214 9.64634 6.57705 9.45907 6.5961 9.33528C6.64053 9.11627 6.72623 8.96074 6.84685 8.86234C6.91668 8.86234 6.98016 8.87821 7.03412 8.91312C7.08808 8.94487 7.11982 8.99883 7.12934 9.06866V9.07183ZM9.99238 11.0366C9.9416 10.9287 9.86224 10.7414 9.7575 10.4716C9.64006 10.2589 9.475 10.151 9.26234 10.151C9.04015 10.278 8.86558 10.4748 8.74496 10.7382C8.65291 10.935 8.57991 11.1921 8.52277 11.5064C8.58943 11.5984 8.66561 11.6619 8.75131 11.7C8.83701 11.7381 8.93858 11.7571 9.05602 11.7571C9.14172 11.7571 9.21473 11.7222 9.26869 11.6492C9.30043 11.6079 9.34804 11.5413 9.4147 11.4524C9.49722 11.5603 9.54801 11.6841 9.5734 11.8269C9.58292 11.8936 9.58927 12.0269 9.58927 12.2301C9.09094 12.8649 8.52277 13.3854 7.88161 13.7949C7.24044 14.2043 6.55801 14.4741 5.83114 14.6075H5.75496C5.66926 14.6075 5.58038 14.6075 5.49151 14.6106C5.40263 14.6106 5.31376 14.6138 5.22806 14.6138H5.13601C4.36788 14.6138 3.79337 14.5313 3.40613 14.3631C3.06967 14.2202 2.80305 14.0044 2.5999 13.7155C2.37137 13.4013 2.2571 13.1125 2.2571 12.8458C2.2571 12.7093 2.28884 12.5665 2.35233 12.4205C2.41581 12.2745 2.5269 12.1285 2.68243 11.9857C2.79987 11.8841 2.97445 11.7635 3.20933 11.6206C3.62196 11.408 4.0346 11.1953 4.4504 10.9795C4.67259 10.8525 4.85986 10.7319 5.00587 10.6144C5.18997 10.4716 5.32328 10.3319 5.40898 10.1955C5.1868 10.3891 4.89478 10.5732 4.53928 10.7509C4.22822 10.8969 3.92033 11.0461 3.60927 11.1921C3.25377 11.3762 2.9681 11.5603 2.75544 11.7476C2.47611 11.992 2.26662 12.2808 2.13014 12.6173C2.04444 12.8649 2 13.122 2 13.3854C2 13.6489 2.04444 13.9187 2.13331 14.1599C2.22219 14.4011 2.3555 14.6075 2.53325 14.782C2.80305 15.0455 3.14268 15.2423 3.55531 15.3692C3.92033 15.4803 4.33296 15.5375 4.79003 15.5375C5.19632 15.5375 5.60895 15.4867 6.02793 15.3883C6.44691 15.2899 6.81828 15.1566 7.14522 14.9884C7.53563 14.7852 7.89113 14.5535 8.21171 14.2964C8.55769 14.0234 8.86558 13.7155 9.14172 13.3759C9.70671 12.6967 9.98603 11.9158 9.98603 11.0366H9.99238ZM15.255 10.5351C14.9821 10.5351 14.7345 10.5033 14.5155 10.443C14.2965 10.3827 14.1155 10.2748 13.9759 10.1225C14.0457 10.1225 14.1219 10.1225 14.1981 10.1193C14.2742 10.1193 14.3504 10.1161 14.4266 10.1161C14.6361 10.1161 14.8075 10.1383 14.9472 10.1859C15.0868 10.2304 15.1884 10.3256 15.255 10.4684V10.5383V10.5351ZM16.7627 12.1348C16.7881 12.2459 16.8167 12.357 16.8453 12.4618C16.9024 12.6967 16.9278 12.8871 16.9278 13.0395C16.9278 13.1728 16.9087 13.2934 16.8707 13.4013C16.8326 13.5092 16.7691 13.6076 16.677 13.6933C16.6516 13.7124 16.6167 13.7568 16.5691 13.8235C16.5247 13.8901 16.4771 13.9377 16.4326 13.9695C16.3628 13.9187 16.312 13.8552 16.2866 13.779C16.2803 13.7631 16.2612 13.6203 16.2263 13.3442C16.2454 13.2362 16.2771 13.1347 16.3152 13.0363C16.3533 12.9379 16.4009 12.8363 16.4548 12.7347C16.512 12.6332 16.5659 12.5316 16.6231 12.43C16.6802 12.3285 16.7246 12.2301 16.7596 12.1317L16.7627 12.1348ZM11.4334 10.4653C11.389 10.6367 11.2906 10.9382 11.1446 11.3635C10.916 12.0237 10.8018 12.5411 10.8018 12.9188C10.8018 13.0521 10.8113 13.1855 10.8335 13.3188C10.8526 13.4521 10.8907 13.5854 10.9414 13.7187L11.0874 13.5981C11.3001 13.3632 11.462 13.0966 11.5667 12.795C11.6747 12.4935 11.7254 12.1698 11.7254 11.8238C11.7254 11.3604 11.6302 10.9096 11.4366 10.4684L11.4334 10.4653Z" fill="white"/>
</svg>
