<svg width="24" height="24" viewBox="0 0 24 24" fill="none" xmlns="http://www.w3.org/2000/svg">
<path fill-rule="evenodd" clip-rule="evenodd" d="M18.0381 9.69533C18.048 9.71505 18.0546 9.73478 18.0546 9.75451V9.80711C18.0546 9.87616 18.025 9.95178 17.9691 10.0373C17.8803 10.1622 17.831 10.2345 17.8277 10.251C17.7061 10.3397 17.5943 10.4088 17.4891 10.4548C17.3839 10.5008 17.2721 10.5272 17.1504 10.5272C17.1964 10.468 17.3411 10.3693 17.5778 10.228C17.6929 10.1589 17.785 10.0899 17.854 10.0142C17.8113 9.9715 17.7291 9.94191 17.6107 9.92876C17.4891 9.91232 17.4069 9.88273 17.3674 9.83342C17.3839 9.65587 17.4332 9.49148 17.5219 9.34353C17.6074 9.19557 17.7291 9.08379 17.8803 9.00488C17.9 8.9983 17.9329 9.00159 17.9757 9.00816C18.0184 9.01474 18.0414 9.04104 18.048 9.08379L17.9362 9.36654C17.9099 9.33366 17.8705 9.32051 17.8179 9.32051C17.7324 9.32051 17.6666 9.35996 17.6206 9.43887L17.5417 9.55066C17.5844 9.58354 17.6666 9.60327 17.7916 9.61313C17.9165 9.62299 18.002 9.65258 18.048 9.69861L18.0381 9.69533ZM16.0194 8.56759C15.9241 8.74185 15.855 8.87007 15.8057 8.95556C15.7202 9.10351 15.638 9.22187 15.5525 9.31065C15.5262 9.28434 15.4111 9.2153 15.204 9.1068C15.0561 9.02789 14.9837 8.93912 14.9837 8.8372L15.4572 8.18291C15.6577 8.27826 15.8451 8.40649 16.0161 8.57088L16.0194 8.56759ZM21.954 11.1321C21.8915 10.6126 21.7567 10.1195 21.5529 9.65258C21.349 9.18571 21.0794 8.78459 20.7473 8.44923C20.6224 9.19557 20.5566 9.89917 20.5566 10.5567C20.5566 10.8526 20.5698 11.1453 20.5961 11.4379C20.6224 11.7305 20.6651 12.0034 20.721 12.2533C20.7539 12.0231 20.7671 11.77 20.7671 11.4971V10.7935C20.7671 10.5896 20.7736 10.3792 20.7835 10.1655C20.7934 9.95178 20.8164 9.77095 20.846 9.61642C21.0367 9.87945 21.1945 10.1458 21.326 10.4121C21.4772 10.7178 21.5923 11.0105 21.6646 11.2932C21.737 11.576 21.7764 11.8456 21.7764 12.102C21.7764 12.4768 21.6975 12.8319 21.543 13.1739C21.3885 13.5158 21.1978 13.8249 20.9709 14.0978C20.744 14.3706 20.4843 14.6074 20.1851 14.8046C19.8892 15.0019 19.5703 15.1696 19.2349 15.3044C18.9357 15.4261 18.6102 15.5214 18.265 15.597C18.4327 15.3537 18.5609 15.1532 18.653 14.9888C18.7779 14.7586 18.8667 14.5416 18.9127 14.3411C18.9818 14.0715 19.0311 13.815 19.0672 13.5684C19.1001 13.3218 19.1198 13.0621 19.1198 12.7958C19.1198 12.6314 19.1133 12.467 19.0968 12.2993C19.0541 11.9376 18.9653 11.6089 18.8272 11.3162C18.6891 11.0236 18.4984 10.7836 18.2518 10.5929C18.1105 11.0236 18.0151 11.4773 17.9724 11.9541C17.9264 12.4308 17.9066 12.993 17.9066 13.6375H17.9625C18.0579 12.9733 18.1532 12.3125 18.2551 11.6483C18.4491 11.9179 18.5938 12.1579 18.6891 12.3749C18.8141 12.6577 18.8798 12.9371 18.8798 13.21C18.8798 13.3152 18.8667 13.4402 18.8404 13.5816C18.745 13.8873 18.6135 14.1537 18.4458 14.3871C18.2453 14.66 18.0151 14.854 17.7521 14.9625C17.7192 14.969 17.6699 14.9789 17.6009 14.9953H17.5154C17.3313 14.9953 17.1669 14.9394 17.0255 14.8309C17.1471 14.4726 17.2129 14.2753 17.2228 14.2391C17.3345 13.8512 17.3871 13.4862 17.3871 13.1509C17.3871 12.8155 17.3674 12.4933 17.3313 12.2171C17.2951 11.9409 17.2195 11.6911 17.1011 11.4708C16.8446 12.0231 16.6572 12.4768 16.5422 12.8286C16.3679 13.3613 16.2824 13.8545 16.2824 14.3115C16.2824 14.3542 16.2824 14.4101 16.2857 14.4824C16.2857 14.5548 16.2989 14.6698 16.3219 14.8342C16.0062 15.1071 15.6314 15.3406 15.2007 15.528C14.8752 15.6694 14.461 15.8074 13.9612 15.939C14.4182 15.939 14.8752 15.8995 15.3289 15.8239C15.7827 15.7483 16.2035 15.6398 16.5882 15.4951C16.7526 15.6595 16.9236 15.7746 17.1077 15.8436C17.2918 15.9127 17.4956 15.9455 17.7159 15.9455C17.8935 15.9455 18.1565 15.9127 18.505 15.8436C19.1724 15.7121 19.6064 15.6463 19.807 15.6463C20.195 15.6463 20.5632 15.4819 20.9117 15.1564C21.2011 14.8836 21.4312 14.5416 21.6055 14.1306C21.8685 13.4468 22 12.707 22 11.9146C22 11.6582 21.9836 11.3951 21.954 11.1321ZM14.1552 9.12653C14.1289 9.23174 14.073 9.35668 13.9908 9.49805C13.9316 9.5934 13.8461 9.71834 13.7311 9.87616L13.0044 9.54408C13.0307 9.42901 13.0669 9.3238 13.1096 9.23174C13.1557 9.13968 13.2642 8.972 13.4384 8.73198C13.7015 8.80432 13.9415 8.93583 14.1552 9.12653ZM11.6926 9.20544C11.5676 9.33695 11.423 9.45531 11.2652 9.56052C11.1337 9.6493 10.9693 9.74464 10.7687 9.84328C10.4794 9.97479 10.2657 10.0734 10.1243 10.1392C9.98619 10.2049 9.85468 10.2707 9.73303 10.3397C9.81851 10.2017 9.93359 10.08 10.0815 9.9715C10.2295 9.86301 10.4037 9.76108 10.601 9.65916C10.7424 9.59011 10.9265 9.51121 11.1534 9.42243C11.4427 9.30736 11.6203 9.23174 11.6893 9.20215L11.6926 9.20544ZM15.9372 12.6774C16.0227 12.4571 16.0852 12.2467 16.1279 12.0461C16.1706 11.8456 16.1904 11.6319 16.1904 11.4083C16.1904 11.1847 16.1608 10.9579 16.0983 10.7705C16.0358 10.583 15.9339 10.4121 15.786 10.2641C15.6216 10.3233 15.4999 10.4943 15.4144 10.7836C15.352 11.0006 15.3191 11.2439 15.3191 11.5168C15.3783 11.5168 15.4243 11.4806 15.4572 11.4116C15.4901 11.3425 15.5229 11.2998 15.5492 11.2899C15.638 11.4116 15.7071 11.5267 15.7531 11.6384C15.7991 11.7502 15.8254 11.8653 15.8254 11.987C15.8254 12.0593 15.8188 12.1152 15.809 12.1514C15.6446 12.3881 15.4539 12.5886 15.2369 12.7497C15.0199 12.9141 14.793 13.0193 14.5629 13.0654C14.6155 12.7695 14.6451 12.6084 14.6484 12.5755C14.6812 12.3749 14.6944 12.2072 14.6944 12.0692C14.6944 11.9015 14.6747 11.7469 14.6385 11.6023C14.5925 11.4971 14.5333 11.4116 14.4642 11.3491C14.3755 11.2636 14.2834 11.2275 14.1881 11.2373C13.81 11.4741 13.5436 11.8291 13.3924 12.3026C13.2806 12.6445 13.228 13.0884 13.228 13.6375C12.6658 13.9465 12.1825 14.1734 11.7846 14.3148C11.2389 14.5087 10.7095 14.6074 10.1999 14.6074C9.55877 14.6074 9.02285 14.512 8.58885 14.3246C8.04636 14.0879 7.68141 13.7032 7.49071 13.1739C7.37893 12.7169 7.30002 12.1612 7.25399 11.5102C7.23426 11.1946 7.20796 10.6455 7.17837 9.86629C7.14878 9.08379 7.11261 8.50841 7.07315 8.1336C6.94164 8.26511 6.85287 8.40978 6.80355 8.56759C6.75752 8.72541 6.73122 8.90624 6.73122 9.11338C6.73122 9.22845 6.75423 9.50463 6.80355 9.94191C6.82328 10.1359 6.83643 10.297 6.83643 10.4219C6.69834 10.5337 6.54381 10.6258 6.36955 10.6981C6.24462 10.7507 6.07694 10.8033 5.87309 10.8559C5.83692 10.6357 5.78761 10.3792 5.72842 10.0866C5.66924 9.79396 5.61006 9.56052 5.55746 9.37969C5.48841 9.14954 5.39964 8.9161 5.29443 8.68595C5.18593 8.45581 5.06757 8.24538 4.93605 8.05469C4.77823 8.45581 4.67631 8.95885 4.62699 9.57039C4.60069 9.89588 4.58754 10.4252 4.58754 11.1551C4.27848 11.2176 4.02203 11.2768 3.82147 11.3294C3.53871 11.4017 3.2987 11.4872 3.10472 11.5826C2.85813 11.7305 2.64771 11.9113 2.47674 12.1283C2.30577 12.3453 2.18741 12.5821 2.11836 12.8385C2.0822 13.0062 2.05261 13.1739 2.03288 13.3383C2.01315 13.5027 2 13.6703 2 13.838C2 14.2128 2.06247 14.5548 2.18412 14.8638C2.30906 15.1729 2.5129 15.4228 2.79566 15.6135C3.06855 15.8305 3.39734 15.9357 3.78202 15.9357C4.09765 15.9357 4.36725 15.8568 4.58754 15.6989C4.91304 15.4622 5.17278 15.1532 5.36018 14.7685C5.51143 14.4594 5.62979 14.078 5.71527 13.6243C5.77445 13.3284 5.81391 13.0128 5.83692 12.6708C5.85994 12.3289 5.87309 11.8193 5.87309 11.1387C5.952 11.0762 6.10324 10.994 6.32352 10.8987C6.54381 10.8 6.7082 10.7014 6.81341 10.6028C6.87588 11.4379 6.93835 12.273 7.00411 13.1048C7.06658 13.5684 7.17508 13.9531 7.32632 14.2556C7.51701 14.6403 7.78991 14.946 8.14828 15.1795C8.42775 15.2945 8.70722 15.38 8.99326 15.4359C9.27602 15.4918 9.56535 15.5181 9.86125 15.5181C10.2624 15.5181 10.6635 15.4721 11.0679 15.3767C11.5348 15.2617 11.9984 15.094 12.4554 14.8803C12.8663 14.6863 13.2905 14.4364 13.7245 14.1306C14.2078 14.1306 14.6484 13.9958 15.0462 13.7295C15.444 13.4632 15.7399 13.1114 15.9339 12.6807L15.9372 12.6774ZM16.917 14.1306L16.7033 14.4298C16.6441 14.3345 16.6046 14.249 16.5816 14.1701C16.5586 14.0912 16.5455 14.0024 16.5455 13.9005C16.5455 13.8314 16.552 13.7657 16.5619 13.7032C16.5718 13.6407 16.5849 13.575 16.6013 13.5059C16.7066 13.2002 16.8118 12.8944 16.917 12.5919C16.986 12.7169 17.0386 12.855 17.0781 13.0062C17.1175 13.1574 17.1373 13.3021 17.1373 13.4435C17.1373 13.5684 17.1175 13.6934 17.0814 13.815C17.0452 13.9367 16.9893 14.0419 16.917 14.1306ZM14.3755 12.9076C14.3031 12.9799 14.2275 13.0391 14.1552 13.0818C14.0829 13.1246 14.0039 13.1443 13.9185 13.1443C13.8396 13.1443 13.7672 13.118 13.6982 13.0654C13.6028 13.0062 13.5568 12.9273 13.5568 12.8221C13.5568 12.7366 13.5897 12.6445 13.6521 12.5459C13.7146 12.3552 13.8428 12.2631 14.0302 12.2631C14.1157 12.2631 14.1881 12.2894 14.2505 12.342C14.313 12.3947 14.3492 12.4736 14.3623 12.5788C14.3557 12.6051 14.3623 12.6544 14.3755 12.7234C14.3886 12.7925 14.3886 12.855 14.3788 12.9076H14.3755ZM5.53115 10.9579C5.45224 10.9842 5.33388 11.0072 5.17606 11.0236C5.01825 11.0433 4.90646 11.0631 4.83742 11.0828V10.6159C4.83742 10.3989 4.84399 10.1622 4.86043 9.90575C4.87687 9.6493 4.90317 9.4323 4.93934 9.25804C5.06099 9.4586 5.15634 9.65916 5.23196 9.86629C5.25826 9.93863 5.3569 10.3036 5.53115 10.9546V10.9579ZM5.56403 13.0489C5.39964 13.6276 5.1136 14.1537 4.70261 14.6271C4.62371 14.6633 4.49877 14.7257 4.32451 14.8178C4.06148 14.9394 3.83462 14.9986 3.64721 14.9986C3.45981 14.9986 3.29541 14.9427 3.14088 14.8342C2.83183 14.6863 2.59839 14.4561 2.44715 14.1405C2.32221 13.8709 2.25645 13.552 2.25645 13.1772C2.25645 12.9076 2.32879 12.6708 2.47345 12.4604C2.61812 12.25 2.81539 12.0889 3.06198 11.9804C3.26253 11.8423 3.50584 11.7338 3.79517 11.6483C4.05162 11.5858 4.31465 11.5201 4.57768 11.451C4.59411 11.4938 4.60069 11.5628 4.60069 11.6647C4.59412 11.7239 4.59412 11.7765 4.59412 11.8291V11.987C4.59412 12.0757 4.60398 12.1579 4.62699 12.2368C4.64672 12.3125 4.68617 12.3716 4.73878 12.4144C4.78152 12.2993 4.80783 12.1744 4.82098 12.0396C4.83413 11.9048 4.8407 11.7502 4.8407 11.5793V11.4543C4.91304 11.4083 5.00181 11.3688 5.10373 11.336C5.20566 11.3031 5.36018 11.2636 5.56403 11.2176C5.64952 11.5168 5.68897 11.8226 5.68897 12.1316C5.68897 12.4275 5.64623 12.7333 5.56403 13.0555V13.0489Z" fill="white"/>
</svg>
