<svg width="24" height="24" viewBox="0 0 24 24" fill="none" xmlns="http://www.w3.org/2000/svg">
<path fill-rule="evenodd" clip-rule="evenodd" d="M20.1359 5.92882C20.0777 6.01297 20.0453 6.11003 20.0453 6.21359C20.0453 6.29126 20.0647 6.38837 20.0971 6.51134C20.1295 6.63432 20.1489 6.71199 20.1489 6.7573C20.1489 6.8285 20.123 6.87379 20.0777 6.90616C20.0324 6.93852 19.9353 6.95147 19.7994 6.95147C19.7023 7.08739 19.5858 7.21683 19.4498 7.32686C19.4045 7.35923 19.178 7.51457 18.7638 7.77995L18.712 7.76701C19.0227 7.47575 19.3398 7.17801 19.657 6.8738C19.5275 6.71846 19.4498 6.62137 19.4239 6.58901C19.3463 6.46603 19.3074 6.35601 19.3074 6.25245C19.3074 6.22656 19.3139 6.18125 19.3333 6.11005C19.4175 5.9806 19.4822 5.88351 19.5146 5.82526C19.5922 5.71523 19.6764 5.63755 19.7735 5.59224C19.8447 5.59224 19.9094 5.61167 19.9676 5.64403C20.0777 5.71523 20.1359 5.80585 20.1359 5.92882ZM16.2006 9.11328C16.1748 9.31393 16.0841 9.48222 15.9223 9.62461C15.7605 9.767 15.5793 9.85761 15.3722 9.90292H15.2945C15.3204 9.83173 15.3786 9.76701 15.4628 9.70876C15.5922 9.62461 15.7282 9.53398 15.8641 9.44984C15.8058 9.3657 15.6893 9.3204 15.5275 9.3204H15.411C15.3786 9.33982 15.3528 9.34628 15.3463 9.35276C15.3398 9.35923 15.3139 9.37865 15.2751 9.41749C15.2362 9.45632 15.1974 9.46926 15.165 9.44984C15.2104 9.3657 15.2492 9.27509 15.2945 9.17801C15.3528 9.08092 15.4369 9.00972 15.5405 8.95794C15.5858 8.95147 15.6505 8.94499 15.7346 8.94499C15.9612 8.94499 16.1165 9.00325 16.2006 9.11328ZM14.5566 8.46603C14.4725 8.85438 14.4272 9.05503 14.4272 9.06151C14.356 9.28804 14.2524 9.45632 14.1165 9.5793C14.0583 9.55988 13.9676 9.5534 13.8576 9.5534C13.754 9.5534 13.5987 9.57283 13.3916 9.60519C13.1845 9.63756 13.0291 9.65696 12.9256 9.65696C12.9256 9.44337 12.9838 9.20389 13.0939 8.94499C13.0939 8.93851 13.165 8.8026 13.301 8.5437C13.4045 8.52428 13.5534 8.50486 13.7476 8.47897C13.9417 8.45308 14.0906 8.44013 14.1942 8.44013C14.356 8.44013 14.479 8.44661 14.5566 8.46603ZM12.7314 7.41749C12.6343 7.5793 12.4984 7.73464 12.3172 7.88351C12.1812 7.99354 11.9871 8.11652 11.7346 8.24597C11.4498 8.37542 11.2362 8.47251 11.1003 8.53076C10.8414 8.65373 10.6408 8.75729 10.4919 8.85438C10.5955 8.66668 10.7379 8.4984 10.9191 8.34953C11.068 8.2395 11.2492 8.12947 11.4757 8.03238C11.7023 7.9353 11.9288 7.83173 12.1553 7.72817C12.3819 7.62461 12.5761 7.52105 12.7314 7.41749ZM9.80583 7.41749C9.70874 7.60519 9.56634 7.77348 9.37864 7.9094C9.27508 7.98707 9.07443 8.10356 8.77023 8.2589C8.41424 8.41424 8.20065 8.51135 8.12298 8.55665C7.90939 8.66669 7.71521 8.80907 7.5534 8.97088C7.60518 8.76376 7.71521 8.58254 7.88997 8.4272C8.01942 8.31716 8.21359 8.19419 8.47249 8.06474C8.91262 7.85115 9.35922 7.63108 9.80583 7.41749ZM22 12.4272C22 11.0227 21.5663 9.83173 20.6926 8.85438C20.5307 9.46927 20.4142 9.96117 20.343 10.343C20.246 10.8803 20.2006 11.3981 20.2006 11.8964C20.2006 12.2265 20.2265 12.5502 20.2783 12.8803C20.2783 12.5761 20.3042 12.233 20.356 11.8447C20.4078 11.4563 20.5049 10.8932 20.6537 10.1618C20.9385 10.5178 21.165 10.9191 21.3269 11.3787C21.3981 11.5664 21.521 12.013 21.7023 12.712C21.7282 12.822 21.7476 12.9385 21.754 13.055C21.7605 13.1715 21.767 13.288 21.767 13.3981C21.767 13.9418 21.6311 14.479 21.3528 15.0033C21.1133 15.4628 20.7638 15.9029 20.3042 16.3366C19.9353 16.602 19.534 16.7379 19.1003 16.7379C18.835 16.7379 18.589 16.6796 18.3754 16.5696C18.0194 16.356 17.7735 16.1036 17.6311 15.8252C17.4887 15.5469 17.4175 15.2168 17.4175 14.8479C17.6246 13.8576 17.8382 12.8608 18.0518 11.8576C17.9288 11.8641 17.8123 11.8706 17.6958 11.8706H17.3657C17.178 11.8706 16.9968 11.8512 16.835 11.8123C16.6731 11.7735 16.5178 11.7088 16.3819 11.6246C16.6214 11.3916 16.8997 11.2233 17.2104 11.1133C17.521 11.0032 17.8576 10.9515 18.2201 10.9515C18.5566 10.9515 18.8803 10.9968 19.1909 11.0939C19.3139 10.9709 19.4045 10.8479 19.4628 10.7185C19.4951 10.6408 19.5599 10.4143 19.657 10.0324C19.4304 9.9094 19.2104 9.7929 18.9968 9.66992C18.7379 9.51458 18.5631 9.32687 18.479 9.11328C18.5566 8.77671 18.5955 8.43366 18.5955 8.07768C18.5955 7.5534 18.5178 7.06798 18.356 6.63432C18.1942 6.20066 17.9547 5.83172 17.6375 5.52751C17.4887 5.96764 17.3463 6.40131 17.2104 6.83497C16.932 7.70875 16.7961 8.45955 16.7961 9.08738C16.9709 8.86085 17.1133 8.52428 17.2362 8.07768C17.2945 7.83819 17.3981 7.46927 17.534 6.97736C17.8706 7.44986 18.0388 8.03237 18.0388 8.71199C18.0388 9.08092 17.9806 9.48221 17.8706 9.90292C17.7346 9.90292 17.5663 9.96118 17.3786 10.0712C17.2751 10.1295 17.1197 10.2201 16.9126 10.343C16.4725 10.5307 16.1424 10.8673 15.9159 11.3528C15.7282 11.7605 15.6311 12.2136 15.6311 12.712C15.3786 12.9191 15.1068 13.0227 14.8026 13.0227C14.6472 13.0227 14.4984 12.9838 14.3495 12.9062C14.2718 12.7961 14.2201 12.6732 14.1877 12.5372C14.1553 12.4013 14.1424 12.2395 14.1424 12.0518C14.1165 11.9288 14.0388 11.8511 13.9094 11.8188C13.7994 11.7994 13.6828 11.7864 13.5728 11.767C13.1003 11.8965 12.6343 12.0647 12.1812 12.2783C11.7282 12.4919 11.301 12.7508 10.8932 13.055C10.4854 13.3592 10.1489 13.7023 9.8835 14.0712C9.59223 14.479 9.39806 14.9126 9.30097 15.3786C9.58576 15.1392 9.9288 15.0032 10.3366 14.9709C10.7443 14.9385 11.2427 14.9126 11.8382 14.8867C10.9061 15.6311 10.1877 16.1295 9.68932 16.3884C9.19094 16.6473 8.69903 16.822 8.22654 16.9191C8.27832 16.7638 8.31715 16.6019 8.34304 16.4337C8.36893 16.2654 8.38188 16.0324 8.38188 15.7282C8.38188 15.7346 8.36246 15.767 8.3301 15.8252C8.29774 15.8835 8.27832 15.9288 8.27832 15.9612C8.15534 16.1489 8.01295 16.3107 7.85113 16.4466C7.68932 16.5825 7.50809 16.6473 7.30744 16.6473C6.9644 16.5696 6.65372 16.3301 6.3754 15.9223C6.22654 15.6958 6.02589 15.3592 5.76699 14.9126C5.27508 14.9126 4.90615 15.2945 4.66019 16.0518C4.41424 16.8091 4.0712 17.2233 3.63107 17.2816C3.41748 17.1845 3.24272 17.0939 3.11327 17.0097C2.93851 16.8867 2.80259 16.7508 2.69903 16.5955C2.56958 16.3884 2.47896 16.2071 2.42718 16.0453C2.3754 15.8835 2.34951 15.7217 2.34951 15.5599C2.34951 15.4563 2.35599 15.3657 2.3754 15.2945C2.39482 15.2233 2.42071 15.1456 2.45307 15.068C2.53722 14.8803 2.67314 14.6861 2.85437 14.4984C2.98382 14.3689 3.17799 14.2007 3.43689 13.9935C3.57282 13.89 3.78641 13.7346 4.07767 13.5275C4.36893 13.3204 4.58252 13.1456 4.73139 13.0097C4.94498 12.8091 5.11327 12.6084 5.23625 12.3948C5.35922 12.1812 5.41748 11.9547 5.41748 11.7023C5.33333 12.0194 5.17799 12.3042 4.95146 12.5437C4.78964 12.7184 4.54369 12.8997 4.22654 13.1003C4.09709 13.178 3.8835 13.2945 3.59223 13.4499C3.18447 13.6829 2.88026 13.9223 2.67314 14.1748C2.40777 14.466 2.22654 14.8026 2.13592 15.178C2.04531 15.5534 2 16.0065 2 16.5307C2.11003 16.9774 2.26537 17.3657 2.46602 17.6829C2.72492 18.0906 3.04207 18.3366 3.411 18.4337C3.51456 18.4596 3.61165 18.4725 3.69579 18.4725C3.90939 18.4725 4.07767 18.4078 4.19417 18.2848C4.31068 18.1618 4.41424 17.9871 4.49838 17.7735C4.58252 17.4693 4.67314 17.1715 4.75728 16.8673C4.81553 16.6796 4.8932 16.5243 4.97735 16.4142C5.16505 16.2265 5.33333 16.1295 5.46926 16.1295C5.61812 16.1295 5.78641 16.3689 5.98058 16.8479C6.17476 17.3269 6.40129 17.5922 6.66019 17.644C6.83495 17.7476 7.01618 17.7994 7.21683 17.7994C7.39159 17.7994 7.54693 17.767 7.68285 17.6958C7.7411 17.5469 7.81877 17.4498 7.90938 17.4045C8 17.3592 8.11003 17.3334 8.23948 17.3334C8.29773 17.3334 8.4013 17.3398 8.53722 17.3592C8.67314 17.3786 8.7767 17.3851 8.8479 17.3851C8.89968 17.3851 8.97735 17.3786 9.08091 17.3592C9.50162 17.2621 9.9288 17.0939 10.3495 16.8479C10.7702 16.602 11.178 16.3042 11.5728 15.9547C11.9676 15.6052 12.3042 15.2427 12.589 14.8673C12.8738 14.4919 13.1133 14.0906 13.301 13.657C13.2168 13.6634 12.932 13.7023 12.4595 13.7735C11.9871 13.8447 11.6246 13.877 11.3851 13.877H11.1586C11.0874 13.877 11.0097 13.8706 10.932 13.8511C11.3981 13.521 11.754 13.301 12.0065 13.178C12.4142 12.9774 12.8155 12.8803 13.2104 12.8803C13.411 12.9515 13.5469 13.1456 13.6181 13.4693C13.6893 13.7929 13.7864 14 13.9094 14.0971C14.0841 14.1489 14.2395 14.1748 14.3754 14.1748C14.6084 14.1748 14.8544 14.1165 15.1133 14.0065C15.2751 13.9353 15.4951 13.8188 15.7605 13.644C16.2006 13.3592 16.5049 13.1845 16.6667 13.1262C16.8285 13.068 17.0162 13.0356 17.2233 13.0356C17.2751 13.0356 17.3333 13.0356 17.3981 13.0486C17.4628 13.055 17.5275 13.068 17.5987 13.0874C17.5146 13.3981 17.4304 13.7023 17.3528 14.0065C17.1974 14.6473 17.1197 15.1845 17.1197 15.6246C17.1197 15.9288 17.1586 16.2071 17.2298 16.4596C17.301 16.712 17.4304 16.9579 17.6117 17.1974C17.7929 17.4369 18.0065 17.6181 18.2524 17.7541C18.4984 17.89 18.7638 17.9547 19.0485 17.9547C19.178 17.9547 19.3269 17.9353 19.5016 17.89C19.8835 17.8123 20.233 17.6246 20.5631 17.3204C20.8932 17.0162 21.1392 16.6796 21.301 16.2977C21.5534 15.7088 21.7282 15.1003 21.8382 14.466C21.9482 13.8317 22 13.1521 22 12.4272ZM9.33981 11.3787C9.30744 11.5599 9.24919 11.7346 9.17152 11.9094C9.09385 12.0842 8.98382 12.2719 8.8479 12.479C8.69256 12.4531 8.57605 12.4272 8.49838 12.4013C8.42071 12.3754 8.22654 12.2977 7.91586 12.1683L8.42071 11.1068C8.55016 11.1262 8.69903 11.1586 8.86084 11.2168C9.02265 11.2751 9.18447 11.3269 9.33981 11.3787ZM14.2848 16.8155C14.123 17.1068 13.8576 17.3528 13.5016 17.5469C13.1456 17.7411 12.7767 17.8382 12.3948 17.8382C12.2913 17.8382 12.2136 17.8382 12.1618 17.8252C12.1036 17.7735 12.0453 17.7217 11.9871 17.6699C11.9288 17.6181 11.9029 17.5599 11.9029 17.4887C11.9029 17.4369 11.9094 17.3916 11.9288 17.3592C11.9806 17.2104 12.0647 17.068 12.1877 16.9191C12.2654 16.822 12.4013 16.6926 12.589 16.5307C12.5307 16.4596 12.4531 16.4272 12.356 16.4272C12.3042 16.4272 12.246 16.4401 12.1748 16.4596C12.1036 16.479 12.0388 16.5049 11.9806 16.5307L11.8382 16.6473C11.8382 16.5113 11.8964 16.3884 12.0065 16.2848C12.1165 16.1813 12.246 16.0971 12.3948 16.0259C12.4919 16.0065 12.5696 16.013 12.6408 16.0389C12.712 16.0647 12.8026 16.1165 12.9256 16.1942C12.8932 16.3495 12.8285 16.4984 12.7314 16.6408C12.6343 16.7832 12.4466 16.9773 12.1618 17.2168C12.3495 17.3463 12.5696 17.411 12.8091 17.411C13.0097 17.411 13.2168 17.3722 13.4369 17.2945C13.657 17.2168 13.9417 17.055 14.2848 16.8155ZM5.65049 9.82526C5.6246 9.87056 5.5534 10.0906 5.44337 10.4854C5.3657 10.7508 5.23625 10.9191 5.05502 10.9774C4.53074 10.9774 4.05178 11.0356 3.63107 11.1456C3.63107 10.8868 3.67638 10.6473 3.76699 10.4272C3.85761 10.2071 4 10.0518 4.20065 9.96765C4.36246 9.96765 4.62136 9.94175 4.9644 9.89644C5.30744 9.85114 5.54045 9.82526 5.65049 9.82526ZM19.8382 6.36895V6.22655C19.7929 6.15535 19.7605 6.10357 19.7346 6.06474C19.7087 6.0259 19.6634 6.01295 19.6052 6.03237C19.5987 6.09062 19.6246 6.15535 19.6828 6.22655C19.7605 6.29775 19.8123 6.34306 19.8382 6.36895Z" fill="white"/>
</svg>
