<svg width="24" height="24" viewBox="0 0 24 24" fill="none" xmlns="http://www.w3.org/2000/svg">
<path fill-rule="evenodd" clip-rule="evenodd" d="M13.9936 4.93835C13.9936 5.3787 13.7774 5.747 13.3451 6.03523C13.0408 5.97918 12.7766 5.84308 12.5364 5.6189C12.6565 5.33067 12.7766 5.09848 12.8887 4.93835C13.0568 4.69015 13.241 4.57006 13.4251 4.57006C13.6093 4.57006 13.7934 4.69015 13.9936 4.93835ZM21.6237 11.4235C21.3755 12.5444 20.8151 13.4652 19.9424 14.1858C19.2458 14.7702 18.293 15.2586 17.1001 15.6669C16.7478 15.787 15.707 16.0673 13.9856 16.5236C14.7942 16.5236 15.6349 16.4756 16.4996 16.3795C17.3723 16.2834 18.1889 16.1553 18.9496 15.9952C19.5661 15.779 20.1185 15.3787 20.6149 14.7862C21.0552 14.2498 21.3755 13.6493 21.5837 12.9928C21.7118 12.5204 21.8159 12.04 21.8879 11.5516C21.96 11.0633 22 10.5749 22 10.0945C22 9.30184 21.8959 8.54123 21.6877 7.81265C21.4796 7.08407 21.1513 6.46757 20.711 5.94716C20.5428 6.72378 20.4227 7.33227 20.3587 7.77262C20.2626 8.43715 20.2146 9.06966 20.2146 9.66213C20.2146 9.93435 20.2226 10.2066 20.2466 10.4868C20.2706 10.767 20.3026 11.0072 20.3427 11.2154C20.4788 10.0865 20.6229 8.95757 20.759 7.82866C21.0472 8.32506 21.2634 8.82146 21.4155 9.32586C21.5596 9.83027 21.6317 10.3667 21.6317 10.9432C21.6317 11.1673 21.6317 11.3355 21.6157 11.4396L21.6237 11.4235ZM6.55564 7.73259C6.49159 8.02082 6.41153 8.28503 6.31545 8.52522C6.21938 8.76541 6.09127 9.02963 5.94716 9.33387C6.06725 8.92554 6.15532 8.61329 6.20336 8.39712C6.30745 7.98078 6.36349 7.63651 6.36349 7.38031C6.36349 7.02802 6.27542 6.69976 6.09127 6.41153C6.1313 6.32346 6.17934 6.24339 6.22738 6.17134C6.27542 6.09928 6.33147 6.05925 6.39552 6.05925C6.54764 6.3715 6.6197 6.71577 6.6197 7.09207C6.6197 7.34027 6.59568 7.55644 6.55564 7.74059V7.73259ZM16.2354 13.4572C16.1073 14.0577 15.739 14.466 15.1385 14.6661C15.0504 14.6902 14.9944 14.6982 14.9624 14.6982C14.8743 14.6982 14.7622 14.6661 14.6261 14.6021C14.49 14.538 14.3859 14.506 14.3219 14.506C14.2258 14.506 14.1457 14.53 14.0817 14.5861C13.5693 15.0024 13.257 15.2506 13.1609 15.3307C12.8567 15.5548 12.5284 15.779 12.1761 15.9952C11.8239 16.2114 11.4716 16.3875 11.1273 16.5156C10.783 16.6517 10.4227 16.7158 10.0464 16.7158C10.4548 16.6197 10.8551 16.4676 11.2394 16.2674C11.5516 16.1073 11.9199 15.8831 12.3523 15.5869C13.0729 15.0905 13.7934 14.5941 14.514 14.1057C14.5861 14.1457 14.6661 14.1697 14.7382 14.1697C14.8743 14.1697 15.1305 13.9776 15.4988 13.6013C15.6829 13.4171 15.8351 13.3291 15.9472 13.3291C16.0432 13.3291 16.1393 13.3691 16.2354 13.4572ZM18.5092 6.68375C18.3811 6.11529 18.261 5.58687 18.1489 5.08246C18.0368 4.58607 17.9327 4.20977 17.8527 3.94556C17.5965 4.50601 17.3723 5.13851 17.1721 5.84308C17.02 6.39552 16.8679 7.06805 16.7238 7.88471C16.996 7.22018 17.2602 6.55565 17.5324 5.8751C17.7726 6.65172 17.9087 7.13211 17.9408 7.31625C17.9808 7.50841 17.9968 7.7486 17.9968 8.05285V8.27703C17.9968 8.3731 17.9888 8.46918 17.9648 8.54924C17.6205 9.15773 17.1241 9.69416 16.4836 10.1585C15.8911 10.5829 15.2586 10.9031 14.5781 11.1113C15.2026 10.4868 15.6749 9.78222 16.0032 8.9976C16.3315 8.20496 16.4916 7.3723 16.4916 6.49159C16.2354 6.49159 15.8591 6.59568 15.3627 6.81185C15.1145 6.91593 14.9063 6.996 14.7302 7.05205C14.1457 7.42835 13.7054 7.9968 13.4091 8.74139C13.281 9.06165 13.0969 9.7502 12.8567 10.799C12.6645 10.799 12.4644 10.759 12.2642 10.6789C12.0641 10.5989 11.8799 10.4948 11.7118 10.3667C11.6797 10.3267 11.6637 10.2626 11.6637 10.1745C11.6637 10.1105 11.7118 9.97438 11.8159 9.77422C11.9199 9.56605 11.944 9.38991 11.9039 9.2458C11.8719 9.20577 11.8319 9.15773 11.7918 9.11769C11.7518 9.07766 11.7118 9.04564 11.6797 9.03763C11.1833 9.07766 10.703 9.21377 10.2466 9.42194C9.78223 9.63811 9.33387 9.91833 8.90953 10.2626C8.47718 10.6149 8.11689 10.9912 7.81265 11.4075C7.50841 11.8239 7.27622 12.2562 7.11609 12.7046C7.46837 12.5765 7.84468 12.4404 8.245 12.3123C8.64532 12.1761 9.0056 12.1121 9.34187 12.1121C9.47798 12.1121 9.59007 12.1121 9.66213 12.1281C8.94155 12.5364 8.22098 12.9448 7.5004 13.3531C7.06005 13.6333 6.72378 14.0096 6.4996 14.482C6.31545 14.8583 6.19536 15.3227 6.1313 15.8831C6.23539 16.0753 6.47558 16.2194 6.84388 16.3155C7.21217 16.4115 7.42834 16.4836 7.50841 16.5396C7.38831 17.004 7.1241 17.4364 6.69976 17.8287C6.28343 18.221 5.83507 18.5012 5.36269 18.6613C5.20256 18.7174 5.01041 18.7414 4.77822 18.7414C4.11369 18.7414 3.56125 18.4692 3.1289 17.9247C2.90472 17.6445 2.73659 17.3803 2.64051 17.1241C2.53643 16.8679 2.48839 16.6197 2.48839 16.3635C2.48839 16.0192 2.57646 15.6669 2.76061 15.3147C2.89672 15.0424 3.1209 14.7302 3.41713 14.3699C3.71337 14.0096 4.17774 13.4732 4.81025 12.7526C5.28263 12.1281 5.54684 11.5436 5.60288 10.9992C5.53883 11.2474 5.41873 11.5036 5.25861 11.7678C5.09047 12.04 4.81025 12.4003 4.40993 12.8487C3.79343 13.5132 3.46517 13.8735 3.42514 13.9295C3.20096 14.2018 3.02482 14.4099 2.90472 14.5781C2.61649 14.9544 2.39231 15.3547 2.23219 15.795C2.08006 16.2274 2 16.6837 2 17.1561C2 17.7486 2.13611 18.253 2.40833 18.6854C2.68054 19.1177 2.97678 19.438 3.28903 19.6541C3.66533 19.9263 4.07366 20.0544 4.51401 20.0544C4.63411 20.0544 4.72218 20.0544 4.78623 20.0384C5.34668 19.9664 5.82706 19.7582 6.21938 19.4219C6.55564 19.1417 6.85188 18.7574 7.10809 18.261C7.32426 17.8527 7.50841 17.3723 7.67654 16.8119C7.80464 16.3395 7.93275 15.8671 8.06085 15.3947C7.96477 15.2426 7.7486 15.1305 7.40432 15.0585C7.06805 14.9864 6.84387 14.8903 6.7478 14.7702C7.53243 14.2658 8.32506 13.7534 9.11769 13.241C9.55805 12.9448 9.91033 12.6325 10.1665 12.3203C10.4788 11.944 10.695 11.5356 10.8151 11.0793C10.6309 11.0232 10.4628 10.9992 10.3026 10.9992C10.1825 10.9992 9.82226 11.0552 9.20576 11.1593C8.95757 11.1994 8.7494 11.2234 8.57326 11.2234C9.06966 10.8871 9.45396 10.6549 9.73419 10.5268C10.1745 10.3187 10.6069 10.2226 11.0392 10.2226C11.0633 10.2466 11.1113 10.2786 11.1994 10.3347C11.2554 10.3907 11.2714 10.4468 11.2474 10.5108C11.2474 10.5348 11.2234 10.5589 11.1833 10.5909C11.1593 10.695 11.1593 10.791 11.1833 10.8711C11.1994 10.9512 11.2234 11.0552 11.2554 11.1833C11.3915 11.5036 11.6557 11.7438 12.048 11.8879C12.4323 12.032 12.6485 12.1281 12.6966 12.1681L12.7926 12.7526L13.0328 12.9928L13.0969 12.1361C13.233 12.04 13.4412 11.9279 13.7134 11.8078C13.9856 11.6878 14.2418 11.5597 14.506 11.4476C14.6421 11.4235 14.9704 11.3755 15.4908 11.3034C16.0032 11.2314 16.4195 11.0873 16.7158 10.8871C17.3803 10.4388 17.8607 9.82226 18.1489 9.04564C18.3891 8.41313 18.5012 7.6205 18.5012 6.67574L18.5092 6.68375ZM16.0112 7.84468C15.9392 8.16493 15.811 8.46918 15.6429 8.7494C15.4748 9.02962 15.2426 9.31786 14.9624 9.6221C14.6821 9.87831 14.3939 10.1025 14.0897 10.2946C13.7854 10.4868 13.4812 10.6229 13.1689 10.719C13.1689 10.2386 13.289 9.79023 13.5212 9.38191C13.7614 8.97358 14.0897 8.63731 14.506 8.38111C14.6261 8.34107 14.8102 8.253 15.0584 8.1249C15.4027 7.97278 15.723 7.88471 16.0112 7.85269V7.84468ZM15.8191 13.7694C15.8591 13.8655 15.8191 13.9536 15.691 14.0256C15.6269 14.0577 15.5228 14.1057 15.3867 14.1777H15.1785C15.3066 14.0416 15.4107 13.9456 15.4748 13.8895C15.5468 13.8415 15.6029 13.8095 15.6429 13.7934C15.6829 13.7774 15.747 13.7694 15.8191 13.7694Z" fill="white"/>
</svg>
