<svg width="24" height="24" viewBox="0 0 24 24" fill="none" xmlns="http://www.w3.org/2000/svg">
<path fill-rule="evenodd" clip-rule="evenodd" d="M16.4164 8.04357C16.3787 8.19419 16.3088 8.31792 16.2066 8.40936C16.1044 8.50081 15.9699 8.58688 15.8031 8.66757C15.6364 8.74825 15.5126 8.80742 15.4266 8.85046C15.2706 8.93115 15.1469 9.01184 15.0608 9.09791C15.0984 8.94729 15.1737 8.81818 15.2867 8.7106C15.3728 8.62991 15.5019 8.54922 15.674 8.46315C15.8462 8.37708 15.9753 8.31791 16.0613 8.28026C16.2119 8.21033 16.3303 8.12964 16.4164 8.04357ZM21.9032 11.7983C21.801 11.1313 21.6235 10.5019 21.3599 9.90479C21.0963 9.3077 20.752 8.76439 20.3217 8.2695C20.2571 8.23184 20.2141 8.2426 20.1926 8.2964C20.1711 8.35019 20.1442 8.41474 20.1173 8.49543C20.0904 8.8128 20.0689 9.10328 20.0581 9.37224C20.0473 9.64121 20.042 9.88865 20.042 10.12C20.042 10.6095 20.0527 11.0344 20.0689 11.4056C20.085 11.7768 20.1226 12.234 20.1711 12.7773C20.2733 12.5406 20.3378 12.3039 20.3701 12.0726C20.4024 11.8413 20.4185 11.5455 20.4185 11.1958C20.4185 11.1528 20.4131 10.9215 20.397 10.4965C20.3808 10.0715 20.3755 9.78106 20.3755 9.61431C20.8058 10.0931 21.1339 10.6633 21.3545 11.3141C21.5428 11.8521 21.6719 12.4976 21.7418 13.2507C21.7418 13.8962 21.5643 14.4933 21.2039 15.042C20.8435 15.5906 20.3701 15.9833 19.773 16.22C19.6224 16.2415 19.4718 16.2523 19.3211 16.2523C19.0414 16.2523 18.7886 16.2092 18.5573 16.1178C18.326 16.0264 18.1431 15.8757 18.0086 15.6606C17.8795 15.4884 17.7881 15.3163 17.7396 15.1495C17.6912 14.9828 17.6643 14.7945 17.6643 14.5955C17.6643 14.2996 17.7235 13.9715 17.8365 13.6057C17.8849 13.4389 18.0032 13.1323 18.1915 12.6912C18.3798 12.3523 18.5089 12.0135 18.5896 11.6692C18.6703 11.3249 18.7079 10.9537 18.7079 10.5611C18.7079 10.2222 18.6756 9.88865 18.6111 9.54976C18.525 9.02797 18.369 8.51157 18.1431 8.0113C17.9172 7.51103 17.6536 7.05917 17.3523 6.66649C17.1802 7.19903 17.0726 7.92523 17.0296 8.84508C16.9866 9.77031 16.9489 10.3674 16.922 10.6471C16.9274 10.6633 16.9381 10.7224 16.9489 10.8246C16.9597 10.9268 16.9973 10.986 17.0619 10.9914C17.2609 10.0016 17.3631 9.01722 17.3631 8.0382C17.6912 8.54384 17.9441 9.071 18.1162 9.63045C18.2883 10.1899 18.3744 10.787 18.3744 11.4164C18.2614 11.6746 18.1001 11.922 17.8903 12.1587C17.7127 12.3685 17.4868 12.5729 17.2232 12.7719C17.0995 12.5729 16.9704 12.4115 16.8252 12.2985C16.6369 12.1479 16.4433 12.0726 16.2442 12.0726C16.1635 12.078 16.1044 12.121 16.0613 12.2017C15.9968 12.3093 15.9591 12.3685 15.943 12.3846C15.9376 12.4115 15.8946 12.5514 15.8139 12.7934C15.7117 13.1001 15.6633 13.3475 15.6633 13.525C15.6633 13.6541 15.6848 13.7671 15.7332 13.8693C15.7816 13.9715 15.8569 14.0576 15.9645 14.1382C16.0506 14.1598 16.1313 14.1705 16.2119 14.1705C16.3195 14.1705 16.4325 14.1544 16.5508 14.1221C16.6692 14.0898 16.7768 14.0576 16.8682 14.0199C16.6692 14.6278 16.3034 15.1603 15.7708 15.6122C15.3459 15.9726 14.7972 16.2953 14.1248 16.5804C13.5277 16.801 12.936 17.0269 12.3497 17.2474C12.9252 17.2098 13.4954 17.1775 14.071 17.1399C15.2598 17.0484 16.0667 16.6288 16.4917 15.8811C16.7337 15.6283 16.9274 15.1872 17.0619 14.5578C17.1533 14.1114 17.2232 13.8316 17.2663 13.7079L17.6751 13.4497C17.546 13.9069 17.4707 14.1974 17.4492 14.3211C17.3846 14.6385 17.3523 14.9397 17.3523 15.2356C17.3523 15.752 17.4707 16.1877 17.7074 16.5481C17.8634 16.8332 18.0893 17.043 18.3744 17.1721C18.6111 17.2797 18.9069 17.3335 19.2566 17.3335C19.4072 17.3335 19.5202 17.3335 19.5901 17.3228C19.9935 17.2797 20.3809 17.0914 20.752 16.7526C21.0802 16.4513 21.333 16.0963 21.5051 15.6821C21.6772 15.2679 21.801 14.8429 21.8817 14.4072C21.9623 13.9715 22 13.5143 22 13.0409C22 12.6159 21.9677 12.2017 21.9032 11.7929V11.7983ZM10.7359 7.64551C10.709 7.81764 10.6767 7.98978 10.6498 8.16192C10.6014 8.38246 10.51 8.53308 10.3808 8.61377L9.11135 8.79667C9.09521 8.68909 9.11135 8.57611 9.14363 8.45239C9.21356 8.26412 9.28886 8.07585 9.36955 7.88219C9.82679 7.7262 10.284 7.64551 10.7359 7.64551ZM14.2431 11.142C14.2431 11.7821 14.1947 12.39 14.1033 12.9763C14.0118 13.5627 13.8612 14.1167 13.6514 14.6385C13.3448 15.284 12.9467 15.8219 12.4572 16.2523C11.8709 16.7687 11.2469 17.0269 10.596 17.0269C10.4024 17.0538 10.1926 17.0699 9.97203 17.0699C9.84293 17.0699 9.62238 17.0646 9.31038 17.0484C8.99839 17.0323 8.81549 17.0269 8.76708 17.0269C9.34266 16.8817 9.90748 16.688 10.4669 16.4459C11.0855 16.1716 11.6342 15.8596 12.113 15.4992C12.6778 15.0635 13.1189 14.617 13.4363 14.1651C13.8289 13.6003 14.028 13.014 14.028 12.4115C14.028 11.809 13.9473 11.2442 13.7859 10.7117C13.6245 10.1791 13.3771 9.67348 13.049 9.18397C13.0221 9.46907 13.0005 9.74342 12.9952 10.007C12.9898 10.2706 12.9844 10.5772 12.9844 10.9376V12.2717C12.9844 12.4223 12.9844 12.5783 12.9736 12.7343C12.9683 12.8903 12.9521 13.0409 12.9306 13.1861C12.9306 12.8418 12.9199 12.433 12.8983 11.9597C12.8499 10.8623 12.823 10.1791 12.823 9.90479C12.823 9.55514 12.8338 9.21624 12.8553 8.89887C12.8768 8.58149 12.9198 8.2695 12.9844 7.96826C13.3878 8.36095 13.6945 8.8397 13.915 9.39914C14.1356 9.95858 14.2431 10.5395 14.2431 11.142ZM9.00377 9.43142C8.88004 9.52286 8.7348 9.61431 8.56267 9.70038C8.30446 9.8241 8.05164 9.93706 7.80957 10.05C7.56751 10.163 7.37386 10.2813 7.22862 10.4104C7.05648 10.5664 6.93276 10.7601 6.85207 10.9914C6.98117 10.8354 7.15331 10.7009 7.37386 10.5879C7.59441 10.475 7.8042 10.3728 8.01399 10.2706C8.26681 10.1469 8.46046 10.0393 8.59494 9.93707C8.7886 9.79183 8.92308 9.62507 9.00377 9.43142ZM5.78698 8.34481C5.73857 8.42012 5.68478 8.55998 5.62561 8.76439C5.56643 8.9688 5.50188 9.10866 5.43195 9.18397L3.95804 9.31307C3.9957 9.02797 4.04949 8.80205 4.13018 8.63529C4.18935 8.52771 4.27542 8.42012 4.38838 8.31253C4.47983 8.31253 4.64658 8.29102 4.88327 8.24799C5.11996 8.20495 5.29209 8.18343 5.39968 8.18343C5.58795 8.18343 5.71705 8.23722 5.78698 8.34481ZM11.4244 12.4008C11.4244 12.4008 11.4298 12.3416 11.4459 12.2824V12.0027C11.4459 11.7821 11.4137 11.5562 11.3545 11.3357C11.2953 11.1151 11.2039 10.9107 11.0802 10.7332C10.9887 10.631 10.9026 10.5557 10.8219 10.5073C10.7144 10.4373 10.6175 10.4104 10.5315 10.432C10.4239 10.475 10.3271 10.5342 10.2464 10.6041C10.1657 10.674 10.1065 10.7493 10.0796 10.83C10.0581 10.9215 10.0151 11.0613 9.95051 11.2496C9.83755 11.5724 9.77838 11.8144 9.77838 11.9812C9.77838 12.0834 9.79451 12.1802 9.83217 12.277C9.86982 12.3739 9.92899 12.4599 10.0151 12.5299C10.1011 12.5729 10.1926 12.5944 10.2948 12.5944C10.4723 12.5944 10.6337 12.546 10.7789 12.4438C10.7951 12.4277 10.8166 12.3362 10.8542 12.1641C10.8704 12.1049 10.8919 12.0672 10.9295 12.0457C11.0317 12.2555 11.0909 12.4868 11.1124 12.745C10.8542 13.1162 10.5476 13.412 10.198 13.6218C9.84831 13.8316 9.47176 13.9392 9.06832 13.9392C9.0737 13.9016 9.13825 13.6487 9.25121 13.1754C9.29424 13.0032 9.31576 12.858 9.31576 12.7343C9.31576 12.6643 9.31038 12.589 9.29424 12.5191C9.27811 12.4492 9.25659 12.3846 9.22969 12.3254C9.09521 12.2555 8.95535 12.2179 8.81011 12.2179C8.75094 12.2179 8.68101 12.2232 8.58956 12.2394C8.49812 12.2555 8.41743 12.2663 8.3475 12.2717C8.09467 12.2717 7.94944 12.4115 7.9064 12.6859C7.86337 12.9602 7.83109 13.1323 7.8042 13.1915C7.7773 13.2507 7.76654 13.2991 7.76654 13.3367C7.76654 13.4443 7.86875 13.5412 8.07316 13.6326C8.27757 13.724 8.39591 13.8155 8.43357 13.9069C8.34212 14.0629 8.2184 14.2082 8.06778 14.3427C7.91716 14.4771 7.76654 14.5632 7.61592 14.6062C7.44917 14.6869 7.29317 14.7246 7.14255 14.7246C6.84131 14.7246 6.54545 14.504 6.26035 14.0683C5.92146 13.5573 5.68478 13.2668 5.5503 13.1969C5.28671 13.3098 5.07692 13.4981 4.9263 13.7563C4.84562 13.8854 4.74879 14.1382 4.62507 14.5094C4.47445 14.9398 4.32921 15.2356 4.18397 15.3916C4.03873 15.5476 3.86659 15.6552 3.6568 15.7144C3.25336 15.6014 2.93061 15.3486 2.67778 14.9613C2.45724 14.617 2.32275 14.2243 2.27972 13.7886C2.3873 13.3636 2.61861 12.9871 2.96826 12.659C3.16729 12.4653 3.51694 12.2125 4.01721 11.9059C4.51748 11.5993 4.87789 11.341 5.1092 11.1313C5.47499 10.8031 5.72243 10.4266 5.85153 10.0124C5.64174 10.3728 5.32975 10.6955 4.91555 10.9914C4.59279 11.2227 4.20549 11.4325 3.75363 11.6261C3.19419 11.922 2.76385 12.3308 2.45723 12.8526C2.15062 13.3744 2 13.9446 2 14.5632C2 14.6009 2 14.6439 2 14.7031C2 14.7622 2.01076 14.8268 2.01614 14.9075C2.08607 15.3109 2.24744 15.6821 2.49489 16.0264C2.74233 16.3706 3.04895 16.6181 3.41474 16.7687C3.46315 16.7741 3.53308 16.7795 3.61915 16.7795C3.90425 16.7795 4.13018 16.688 4.28618 16.5105C4.4099 16.376 4.5121 16.1608 4.59817 15.865C4.72727 15.3862 4.80796 15.0958 4.84562 15.0043C4.96934 14.6869 5.13609 14.461 5.35126 14.3265C5.56105 14.348 5.74933 14.5256 5.92146 14.8537C6.12049 15.241 6.29263 15.4831 6.42711 15.5745C6.51318 15.6552 6.59925 15.7036 6.68531 15.7251C6.77138 15.7466 6.88435 15.7574 7.01883 15.7574C7.12103 15.7574 7.20172 15.7574 7.27165 15.7466C7.34158 15.7413 7.41151 15.7305 7.4922 15.7144C7.69123 15.7144 7.88488 15.6014 8.07316 15.3701C8.46046 14.8913 8.70253 14.6493 8.80473 14.6493C8.90694 14.6493 9.02528 14.6977 9.15976 14.7891C9.21894 14.8053 9.29962 14.8107 9.40721 14.8107C9.66541 14.8107 9.92361 14.73 10.1818 14.5632C10.3593 14.4502 10.5745 14.2673 10.8273 14.0253C10.9726 13.7725 11.0963 13.5143 11.1985 13.2399C11.3007 12.9656 11.376 12.6859 11.419 12.4008H11.4244Z" fill="white"/>
</svg>
