<svg width="24" height="24" viewBox="0 0 24 24" fill="none" xmlns="http://www.w3.org/2000/svg">
<path fill-rule="evenodd" clip-rule="evenodd" d="M14.7411 6.19981C14.7065 6.26894 14.6927 6.33809 14.6927 6.41414C14.6927 6.50401 14.7204 6.62153 14.7688 6.77362C14.8171 6.92571 14.8448 7.01558 14.8448 7.05014C14.8448 7.17458 14.748 7.22989 14.5614 7.22989C14.354 7.61704 13.9945 8.00417 13.4829 8.39131C13.1303 8.6471 12.8676 8.83377 12.7017 8.9582L12.6533 8.92362C13.2478 8.39131 13.635 8.04566 13.8009 7.87974C14.0567 7.62395 14.2572 7.3889 14.3954 7.16768C14.2503 7.09163 14.1466 7.02941 14.0774 6.98793C13.9323 6.89114 13.8631 6.78054 13.8631 6.66992C13.8631 6.61462 13.8769 6.55239 13.9115 6.49017C13.9323 6.39339 14.0083 6.27587 14.1327 6.15143C14.2572 6.02699 14.3747 5.95786 14.4715 5.95786C14.5959 5.95786 14.6789 6.04081 14.7342 6.20673L14.7411 6.19981ZM15.3909 8.05947C15.3356 8.15626 15.308 8.28761 15.308 8.45353V8.66094C15.1628 8.77846 15.0453 8.7992 14.9416 8.72316L14.8586 8.25996C14.8033 8.31527 14.7688 8.45353 14.748 8.66784C14.7342 8.88215 14.6374 8.99276 14.4577 8.99276C14.3332 8.97202 14.2779 8.88215 14.2779 8.73005V8.55033C14.2779 8.47428 14.2641 8.42589 14.2295 8.39823C14.2157 8.46737 14.1811 8.57798 14.112 8.74389C14.0982 8.7992 14.0982 8.86833 14.0982 8.9582C14.0982 9.04808 14.112 9.13795 14.1466 9.22091C14.2364 9.36609 14.3194 9.43522 14.3954 9.43522C14.4507 9.43522 14.5406 9.39372 14.672 9.31076C14.7964 9.22781 14.9001 9.18633 14.9761 9.18633H15.1282C15.3356 9.06189 15.4462 8.82685 15.4462 8.48119C15.4462 8.35675 15.4324 8.21156 15.3979 8.05947H15.3909ZM21.8756 10.2648C21.7511 9.58038 21.5437 8.93054 21.2395 8.32218C20.9354 7.71381 20.5482 7.19533 20.085 6.7598C19.9191 7.58939 19.8362 8.4881 19.8362 9.44904C19.8362 10.41 19.9053 11.3709 20.0505 12.3526L20.2026 12.2558C20.2026 12.2005 20.1887 11.841 20.168 11.1843C20.1473 10.5275 20.1334 10.0505 20.1334 9.76704C20.1334 9.4836 20.1334 9.24165 20.1473 9.02734C20.1611 8.81303 20.1818 8.59871 20.2164 8.39131C20.7833 9.03424 21.1773 9.76705 21.4124 10.5966C21.5576 11.0737 21.6267 11.5852 21.6267 12.1383C21.6267 12.2143 21.6267 12.318 21.6198 12.4425C21.6198 12.5669 21.5921 12.802 21.5437 13.1476C21.4331 13.4242 21.3018 13.6869 21.1428 13.9426C20.9907 14.1984 20.8109 14.4335 20.6104 14.6547C20.41 14.8759 20.1956 15.0557 19.9537 15.2009C19.7186 15.346 19.4974 15.4359 19.29 15.4636C19.0826 15.4981 18.9582 15.5119 18.9029 15.5119C18.6816 15.5119 18.4881 15.4705 18.3222 15.3875C18.1562 15.3045 17.9696 15.1732 17.7553 15.0004C17.4926 14.7791 17.3059 14.5441 17.2022 14.2883C17.0985 14.0325 17.0432 13.7353 17.0432 13.3896C17.0432 13.1476 17.0709 12.878 17.1331 12.5877C17.1953 12.2973 17.2644 12.0139 17.3405 11.7442C17.5963 11.2811 17.7691 10.7625 17.8728 10.1957C17.9696 9.62877 18.0249 9.00659 18.0249 8.3291C18.0249 7.73456 17.935 7.15385 17.7484 6.58697C17.5617 6.02008 17.3197 5.49466 17.0086 4.98999C16.7529 5.69514 16.58 6.46943 16.4971 7.31285C16.4072 8.15626 16.3657 9.09646 16.3657 10.1334C16.5316 8.93054 16.7045 7.71382 16.8773 6.49709C16.9672 6.57314 17.0432 6.7114 17.0985 6.90497C17.1607 7.09854 17.2091 7.22299 17.2575 7.27829C17.2783 7.43038 17.3681 7.78294 17.5202 8.32218C17.6447 8.7508 17.7 9.10338 17.7 9.36608C17.7 9.60113 17.6792 9.78087 17.6308 9.91913C17.5894 10.0574 17.5271 10.1818 17.4511 10.2925C16.6215 10.7003 15.9717 11.2396 15.5085 11.9032C15.2458 12.2696 15.0384 12.6222 14.8932 12.9541C14.748 13.2928 14.6305 13.6868 14.5475 14.1293C14.3125 14.551 14.0429 14.8967 13.7249 15.1663C13.4068 15.4359 13.0543 15.671 12.6533 15.8714C12.2523 16.0719 11.8514 16.2309 11.4504 16.3623C11.0494 16.4867 10.6485 16.6112 10.2475 16.7356C10.4895 16.7563 10.7729 16.7771 11.0909 16.8047C11.4089 16.8255 11.6993 16.8393 11.9551 16.8393C12.0449 16.8393 12.1625 16.8393 12.3146 16.8255C12.4666 16.8116 12.6049 16.8116 12.7363 16.8116C13.158 16.8116 13.5658 16.6181 13.9668 16.2309C14.2641 15.9544 14.5406 15.588 14.7964 15.1386C14.8724 14.7308 14.9692 14.3644 15.0798 14.0533C15.1905 13.7352 15.3426 13.4242 15.5292 13.1061C15.7159 12.7881 15.944 12.5185 16.1998 12.2904C16.4625 12.0623 16.7667 11.8963 17.1193 11.7857C17.0225 12.1383 16.9257 12.5047 16.8289 12.878C16.7321 13.2513 16.6906 13.6108 16.6906 13.9426C16.6768 14.0187 16.6768 14.1362 16.6768 14.2883C16.6768 14.634 16.7252 14.9381 16.8151 15.2078C16.9119 15.4774 17.0709 15.7332 17.3059 15.9613C17.541 16.1964 17.7484 16.3692 17.935 16.4936C18.1908 16.6595 18.4466 16.7425 18.6955 16.7425H19.0135C19.6011 16.7425 20.1403 16.4729 20.6381 15.9267C21.0598 15.4705 21.3709 14.9382 21.5645 14.316C21.6958 13.8873 21.7995 13.4449 21.8825 12.9886C21.9585 12.5323 22 12.0899 22 11.6613C22 11.3986 21.9862 11.1497 21.9654 10.9285C21.9447 10.7073 21.9101 10.4791 21.8686 10.251L21.8756 10.2648ZM11.5057 11.4401C11.5057 12.0069 11.4711 12.5254 11.3951 13.0025C11.326 13.4795 11.1877 13.9288 10.9941 14.3644C10.8006 14.793 10.5378 15.1939 10.206 15.5534C9.87418 15.9129 9.48012 16.2102 9.03076 16.4383C8.45696 16.6043 7.84169 16.7356 7.19184 16.8255C6.542 16.9223 5.90598 16.9637 5.29762 16.9637C5.94746 16.7563 6.51434 16.5489 6.99136 16.3485C7.61355 16.0927 8.16661 15.823 8.65054 15.5327C9.20359 15.2008 9.68061 14.8275 10.0747 14.4197C10.5309 13.9565 10.8766 13.438 11.1186 12.878C11.1531 12.7121 11.1186 12.5738 11.0218 12.4632C10.9526 12.6084 10.9043 12.7052 10.8697 12.7605C10.8006 12.8849 10.7176 12.9471 10.607 12.961C10.4618 12.9955 10.3235 12.9748 10.1922 12.9057C10.0608 12.8365 9.95714 12.7328 9.87418 12.6015C9.87418 11.9724 9.92948 11.5092 10.047 11.2257C10.1645 10.9354 10.3374 10.7142 10.5724 10.5482C10.8075 10.5482 11.001 10.645 11.167 10.8455C11.2637 10.9699 11.3744 11.1635 11.4988 11.4401H11.5057ZM7.15728 9.64261C7.08814 9.532 7.01901 9.4767 6.94297 9.4767C6.88766 9.4767 6.76322 9.54583 6.56274 9.69101C6.36225 9.83618 6.20325 9.89841 6.07881 9.87076C5.87141 9.9468 5.74698 10.092 5.7055 10.2925C5.66402 10.4999 5.65019 10.804 5.65019 11.2119C4.91739 11.7097 4.1915 12.2074 3.45869 12.7052C3.03007 13.0232 2.70515 13.3205 2.49775 13.5832C2.23505 13.9357 2.06913 14.3436 2 14.793C2 15.6779 2.38714 16.5213 3.16142 17.3163C3.673 17.8417 4.42655 18.4086 5.43588 19.01C4.84134 18.4777 4.2468 17.9454 3.65918 17.42C3.34117 17.1158 3.06464 16.8116 2.84341 16.5074C2.58762 16.148 2.41479 15.8023 2.31109 15.4566C2.49775 15.0142 2.76737 14.6201 3.12686 14.2814C3.38265 14.0256 3.74905 13.7422 4.23989 13.438L5.13861 12.8434C5.76771 12.4217 6.23782 12.0415 6.54891 11.6958C6.83927 11.4608 7.00518 11.0875 7.04666 10.5759C7.08814 10.0643 7.12962 9.7463 7.16419 9.63569L7.15728 9.64261ZM14.4577 6.55931C14.4369 6.49018 14.3885 6.4487 14.3263 6.42796C14.271 6.38648 14.2295 6.40721 14.2088 6.50399C14.2295 6.53164 14.271 6.55931 14.3263 6.58005C14.3816 6.60079 14.4231 6.59388 14.4577 6.55931Z" fill="white"/>
</svg>
