<svg width="24" height="24" viewBox="0 0 24 24" fill="none" xmlns="http://www.w3.org/2000/svg">
<path fill-rule="evenodd" clip-rule="evenodd" d="M22 11.6371C22 12.1425 21.9409 12.6264 21.828 13.0887C21.7151 13.5511 21.5376 13.9705 21.3064 14.3522C20.9946 15.0403 20.4032 15.4489 19.543 15.5726C18.7849 15.621 18.0269 15.6694 17.2742 15.7178L17.1183 15.6801C17.7097 15.5672 18.1559 15.4758 18.457 15.3952C18.9516 15.2608 19.3925 15.0887 19.7849 14.8898C20.2366 14.664 20.6075 14.3898 20.9032 14.078C21.2419 13.7231 21.4892 13.3038 21.6398 12.8307C21.7151 12.5887 21.7527 12.3468 21.7527 12.0995C21.7527 11.7715 21.6989 11.4328 21.586 11.0834C21.5 10.8092 21.3656 10.5027 21.1882 10.1694C21.1505 10.3468 21.1183 10.7446 21.086 11.3629C21.0538 11.9758 20.9731 12.4167 20.8387 12.6855C20.8387 11.7178 20.871 10.9651 20.9301 10.4221C20.9892 9.87906 21.0753 9.39519 21.1882 8.97045C21.4516 9.33605 21.6559 9.74465 21.7903 10.1963C21.9301 10.6532 22 11.1317 22 11.6371ZM19.6075 11.4651C19.5323 11.4113 19.4409 11.3844 19.328 11.3844C19.2688 11.3844 19.1505 11.4059 18.9839 11.4543C18.8172 11.5027 18.6935 11.5242 18.6075 11.5242C18.5538 11.5242 18.5108 11.5242 18.4892 11.5135C18.6021 11.2285 18.6882 10.9382 18.7473 10.6317C18.8065 10.3253 18.8387 10.0135 18.8387 9.69626C18.8387 9.37905 18.7903 9.05109 18.6935 8.7554C18.5968 8.4597 18.4516 8.20163 18.2473 7.9812C18.0914 8.43281 17.9839 8.91132 17.9247 9.43282C17.8656 9.95433 17.8333 10.5027 17.8333 11.0887C17.9516 10.4113 18.0699 9.73389 18.1935 9.05647C18.3226 9.23927 18.414 9.42744 18.4677 9.61561C18.5215 9.80379 18.5484 10.0135 18.5484 10.25C18.5484 10.535 18.5054 10.8307 18.4194 11.1425C18.3333 11.4543 18.2312 11.75 18.1075 12.0296C18.1075 12.1855 18.043 12.3307 17.914 12.4543C17.8548 12.5135 17.7097 12.6156 17.4839 12.7608C17.2581 12.9006 17.1075 13.0296 17.0323 13.1479C16.957 13.2661 16.9194 13.3952 16.9194 13.535C16.8387 13.9113 16.6828 14.25 16.4462 14.5511C16.2366 14.8199 15.9731 15.0565 15.6452 15.25C15.3226 15.4489 14.9785 15.6102 14.6183 15.7393C14.328 15.836 13.9785 15.9274 13.5645 16.0188C13.7043 16.0188 14.0699 15.9973 14.6559 15.9543C14.9086 15.9382 15.1183 15.9274 15.2903 15.9274C15.5914 15.9274 15.8387 15.8683 16.0376 15.7446C16.2634 15.5995 16.4785 15.293 16.6828 14.8307C16.8871 14.3683 17.0161 14.0887 17.0806 13.992C17.2581 13.6963 17.4785 13.492 17.7473 13.3737C18.0914 13.2285 18.3065 13.1317 18.3925 13.0887C18.6344 12.9704 18.8387 12.8468 19.0108 12.7178C19.2097 12.5726 19.3548 12.3952 19.457 12.1963C19.5591 11.9973 19.6075 11.7554 19.6075 11.4812V11.4651ZM16.0914 11.2661C16.1183 11.3683 16.129 11.4866 16.129 11.6156C16.129 11.9059 16.0591 12.1748 15.9247 12.4328C15.7903 12.6855 15.5968 12.9006 15.3548 13.0672C15.2151 13.0565 15.0538 13.1049 14.8817 13.2124C14.4839 13.4758 14.2366 13.6102 14.1452 13.6102C14.086 13.6102 14.0323 13.6049 13.9839 13.5887C13.9355 13.5726 13.8817 13.5457 13.8226 13.5027C13.7312 13.5887 13.6237 13.6479 13.5054 13.6801C13.3871 13.7124 13.2527 13.7285 13.1021 13.7285C13.0054 13.7285 12.9086 13.7285 12.8172 13.7178C12.7258 13.7124 12.6344 13.707 12.5484 13.7016C12.5161 13.9167 12.4731 14.121 12.414 14.3145C12.3548 14.5081 12.2688 14.7124 12.1505 14.9274C12.0323 15.1425 11.9194 15.3145 11.8065 15.4436C11.6505 15.621 11.4839 15.7446 11.3065 15.8038C11.2366 15.8307 11.1828 15.8414 11.129 15.8522C11.0806 15.8575 11.0269 15.8629 10.9624 15.8629C10.7957 15.8629 10.6129 15.8038 10.4194 15.6801C10.1613 15.5188 9.97849 15.4274 9.87634 15.3952C9.69892 15.4866 9.48387 15.5511 9.23118 15.5834C8.97849 15.6156 8.69892 15.6317 8.39247 15.6317C8.27419 15.6317 8.10753 15.6317 7.8871 15.621C7.66667 15.6156 7.51075 15.6102 7.41398 15.6102C8.23118 15.4328 8.72043 15.3145 8.87097 15.2608C9.19355 15.1425 9.46237 14.9812 9.6828 14.7823C9.62903 14.5135 9.60215 14.2446 9.60215 13.9812C9.60215 13.5726 9.66129 13.1909 9.77957 12.836C9.87634 12.5296 10.0108 12.2339 10.172 11.9597C10.3333 11.6801 10.5323 11.4221 10.7581 11.1748C10.8548 11.3575 10.9301 11.5672 10.9785 11.793C11.0269 12.0188 11.0538 12.25 11.0538 12.4758C11.0538 12.621 11.0484 12.7393 11.0376 12.8199C11.0269 12.9006 11.0215 12.9597 11.0215 13.0027C10.9731 13.3145 10.8978 13.621 10.8011 13.9167C10.7043 14.2124 10.5806 14.4973 10.4301 14.7662C10.6344 14.9274 10.8495 15.0081 11.0753 15.0081C11.1505 15.0081 11.2204 14.9973 11.2957 14.9812C11.5054 14.8844 11.6989 14.7339 11.871 14.535C12.0484 14.336 12.1882 14.1156 12.2903 13.8844C12.2903 13.5941 12.2419 13.2178 12.1452 12.7608C12.0968 12.535 12.0484 12.3038 12 12.0672C11.9731 11.9651 11.9516 11.8414 11.9355 11.6963C11.9194 11.5565 11.9086 11.4274 11.9086 11.3199C11.9086 11.1317 11.9301 10.9543 11.9677 10.7984C12.0054 10.6425 12.0753 10.4812 12.1774 10.3145C12.2258 10.3898 12.2527 10.4812 12.2527 10.5941C12.2527 10.6532 12.2527 10.7178 12.2419 10.7769C12.2366 10.836 12.2312 10.9006 12.2258 10.9597C12.2258 11.0188 12.2366 11.0834 12.2527 11.1532L12.586 12.7339C12.7634 12.8307 12.9731 12.8791 13.2043 12.8791C13.4839 12.8791 13.7204 12.8145 13.9247 12.6855C14.0161 12.6371 14.0968 12.5618 14.1667 12.4705C14.2366 12.3737 14.3011 12.2823 14.3602 12.1909C14.3656 12.2285 14.3656 12.2715 14.3602 12.3307C14.3602 12.3844 14.3602 12.4436 14.3602 12.4973C14.3602 12.5995 14.3602 12.664 14.3602 12.6748C14.3602 12.6909 14.3871 12.7178 14.4301 12.7608C14.629 12.6801 14.7957 12.5619 14.9409 12.4059C15.086 12.25 15.172 12.0726 15.1935 11.8737C15.2366 11.8898 15.2581 11.9436 15.2581 12.0296C15.2581 12.1694 15.2849 12.2554 15.3333 12.2769C15.543 12.2231 15.7043 12.078 15.8226 11.8414C15.914 11.6532 16.0054 11.4597 16.1021 11.2715L16.0914 11.2661ZM6.82258 10.0941C6.76882 10.3629 6.65591 10.6425 6.47849 10.9328C6.31183 10.9328 6.14516 10.9436 5.97312 10.9705C5.80107 10.9973 5.59677 11.0296 5.35484 11.0834C5.38172 10.8629 5.41398 10.6963 5.45699 10.5834C5.52688 10.3952 5.62366 10.2769 5.76344 10.2339C5.85484 10.2339 6.04839 10.2016 6.34409 10.1425C6.49462 10.1102 6.6129 10.0941 6.7043 10.0941H6.82258ZM10.2312 9.86292C9.76882 10.1264 9.33871 10.6425 8.94086 11.4113C8.6129 12.0403 8.42473 12.3952 8.37634 12.4812C8 13.1532 7.53226 13.6801 6.97312 14.0672C6.36559 14.492 5.70968 14.7016 5.01613 14.7016C4.82796 14.7016 4.62903 14.6855 4.42473 14.6479C3.95161 14.5995 3.52688 14.4382 3.15054 14.1586C2.74194 13.8575 2.48387 13.4812 2.36559 13.035C2.33333 12.9221 2.3172 12.8468 2.31183 12.793C2.30645 12.7446 2.30108 12.6748 2.30108 12.5834C2.30108 12.3038 2.38172 12.0618 2.54301 11.8468C2.66129 11.6855 2.85484 11.5135 3.13441 11.3199C3.76344 10.8791 4.1129 10.6156 4.18817 10.5457C4.37634 10.3575 4.50538 10.1479 4.56452 9.92744C4.48387 10.0619 4.38172 10.1855 4.25806 10.2984C4.17742 10.3737 4.11828 10.4221 4.07527 10.4543C4.03226 10.4866 3.96774 10.5296 3.88172 10.5834L3.47312 10.8145L3.08602 11.0619C2.74731 11.3307 2.48925 11.6102 2.31183 11.8952C2.10215 12.2339 2 12.5887 2 12.9651C2 13.0511 2 13.1156 2.01075 13.1586C2.08065 13.6425 2.21505 14.0672 2.42473 14.4221C2.67742 14.8522 3.01075 15.1317 3.43011 15.2608C3.89247 15.4597 4.39785 15.5565 4.94624 15.5565C5.40323 15.5565 5.83333 15.4812 6.24731 15.3307C6.66129 15.1801 7.01075 14.9543 7.30108 14.6532C7.6828 14.3307 8.03226 13.8898 8.35484 13.3253C8.60753 12.8468 8.86021 12.3629 9.12366 11.8737C9.44624 11.3253 9.7957 10.9059 10.1774 10.6156C10.1935 10.5565 10.2204 10.4758 10.2527 10.3844C10.2849 10.293 10.3011 10.1963 10.3011 10.0995C10.3011 10.0242 10.2849 9.94357 10.2473 9.85755L10.2312 9.86292ZM10.7366 13.4651C10.7634 13.3683 10.7742 13.2608 10.7742 13.1532C10.7742 13.0135 10.7634 12.8844 10.7419 12.7769C10.7204 12.6694 10.6559 12.4597 10.543 12.1532L10.0699 12.8253C10 12.9167 9.95161 13.0188 9.91935 13.1317C9.8871 13.2446 9.87097 13.3576 9.87097 13.4812C9.87097 13.6371 9.89785 13.793 9.94624 13.9489C9.99462 14.1049 10.0591 14.25 10.1398 14.3791C10.2634 14.2608 10.3763 14.1156 10.4839 13.9436C10.5645 13.8199 10.6505 13.6586 10.7419 13.4651H10.7366Z" fill="white"/>
</svg>
