<svg width="24" height="24" viewBox="0 0 24 24" fill="none" xmlns="http://www.w3.org/2000/svg">
<path fill-rule="evenodd" clip-rule="evenodd" d="M18.4261 7.71973C18.4029 7.76604 18.3798 7.80463 18.3489 7.84323C18.3257 7.88182 18.2794 7.92814 18.2331 7.98217C18.1405 8.06708 18.0015 8.15971 17.8008 8.26778C17.384 8.49935 17.1216 8.65372 17.0135 8.74635C17.0907 8.55338 17.2142 8.399 17.3763 8.28321C17.4612 8.22146 17.6773 8.10567 18.0401 7.94357C18.2022 7.86638 18.3257 7.79691 18.4261 7.72744V7.71973ZM22 12.1504C22 12.5132 21.946 12.8683 21.8456 13.2002C21.7453 13.5399 21.5986 13.8795 21.4211 14.2191C21.1278 14.7826 20.6955 15.1917 20.132 15.4619C19.7306 15.6549 19.198 15.7861 18.5264 15.8633C17.8549 15.9405 17.2219 16.01 16.6276 16.0794C17.6928 15.7861 18.4029 15.57 18.758 15.431C19.5839 15.1146 20.2323 14.744 20.7032 14.3118C21.2976 13.7792 21.6526 13.123 21.7839 12.3434C21.7839 11.9189 21.7298 11.5252 21.6218 11.1624C21.5137 10.7996 21.3593 10.4368 21.1432 10.0663C21.066 10.4831 21.0197 10.954 20.9888 11.4712C20.9579 11.9883 20.9502 12.5596 20.9502 13.1694C20.8962 13.0304 20.8576 12.8838 20.8344 12.7217C20.8113 12.5596 20.8036 12.3897 20.8036 12.2122C20.8036 12.1196 20.8036 11.9806 20.8113 11.7954C20.8113 11.6101 20.819 11.4635 20.819 11.3708C20.8421 10.9694 20.873 10.5526 20.9039 10.1126C20.9348 9.67264 21.012 9.30984 21.1355 9.01652C21.4442 9.37931 21.6758 9.85789 21.8225 10.4523C21.9382 10.9308 21.9923 11.4943 21.9923 12.1504H22ZM20.3173 12.9455C20.2401 12.8529 20.0934 12.8066 19.8695 12.7911C19.6457 12.7834 19.5068 12.7603 19.4373 12.7371C19.2134 12.6522 19.0976 12.4978 19.0976 12.2585L19.198 11.1084C19.198 10.8073 19.1903 10.5295 19.1671 10.2824C19.1517 10.0354 19.0976 9.80386 19.005 9.58773C18.9201 9.3716 18.8506 9.2095 18.7966 9.09371C18.6577 8.82355 18.4956 8.61513 18.3103 8.47619C18.2022 9.01652 18.1328 9.36388 18.1019 9.52598C17.9861 10.1898 17.9321 10.7765 17.9321 11.3014C17.9321 11.34 17.9321 11.4557 17.9398 11.6564C17.9475 11.8571 17.9629 12.0269 17.9861 12.1659C18.0556 11.9112 18.1019 11.5638 18.1328 11.1393C18.1945 10.2902 18.2717 9.72667 18.3643 9.44107C18.4956 9.6186 18.5882 9.78842 18.6577 9.95824C18.7194 10.1281 18.7734 10.3288 18.8043 10.5603C18.8352 10.7919 18.8584 11.0621 18.8584 11.3631V12.2508C18.812 12.4515 18.7889 12.629 18.7889 12.7834C18.7889 12.9918 18.8275 13.1694 18.9047 13.316C18.5573 13.702 18.3103 13.949 18.1791 14.0416C18.0015 14.1728 17.8317 14.2577 17.6542 14.2886C17.4149 14.2886 17.1988 14.1805 16.9904 13.9567C16.8283 13.6634 16.7125 13.3546 16.6276 13.0381C16.5426 12.7217 16.4886 12.4129 16.45 12.1118C16.4191 11.8108 16.3651 11.2242 16.3034 10.3596C16.2416 9.48738 16.149 8.8467 16.0332 8.42216C15.9328 8.47619 15.8711 8.5611 15.8325 8.67688C15.8016 8.79267 15.7707 8.90845 15.7476 9.02424C15.956 9.85789 16.0563 10.7533 16.0563 11.7027C16.0563 12.2585 16.1027 12.768 16.1953 13.2311C16.2879 13.6943 16.4346 14.1265 16.6198 14.5202C16.7588 14.7518 16.89 14.9216 17.0212 15.0219C17.1524 15.1223 17.2914 15.1686 17.4381 15.1686H17.4921C17.4921 15.1686 17.5461 15.1686 17.5693 15.1609C17.7854 15.1146 18.0865 14.883 18.4878 14.4662C18.7117 14.2269 18.897 14.057 19.0359 13.9413C19.252 13.7483 19.3678 13.6557 19.3755 13.6557C19.445 13.6171 19.5222 13.6016 19.6148 13.6016C19.7229 13.6016 19.8618 13.6325 20.0471 13.702C20.1397 13.6634 20.1937 13.5785 20.2169 13.4395C20.2401 13.3006 20.2709 13.1308 20.3095 12.9301L20.3173 12.9455ZM13.1231 9.15546C13.1231 9.15546 13.0691 9.15546 13.0228 9.1323C12.9842 9.10143 12.9456 9.08599 12.9224 9.08599C12.8838 9.08599 12.853 9.10915 12.8298 9.15546C12.6909 9.37159 12.5056 9.55685 12.274 9.72667C12.1196 9.84246 11.8958 9.97368 11.5948 10.1358C11.6488 10.0817 11.8572 9.91193 12.22 9.62632C12.4979 9.40247 12.6909 9.20178 12.7912 9.02424C12.6986 8.99336 12.6291 8.95477 12.5673 8.91617C12.5133 8.87758 12.467 8.83126 12.4361 8.78495C12.4052 8.73092 12.4052 8.66916 12.4361 8.60741C12.467 8.54566 12.4902 8.49934 12.5056 8.46847C12.5828 8.38356 12.6445 8.32181 12.6909 8.28321C12.7758 8.21374 12.853 8.18287 12.9224 8.18287C12.9996 8.18287 13.0536 8.22918 13.0845 8.32181C13.0922 8.42988 13.0922 8.50706 13.0922 8.5611C13.0922 8.66145 13.0768 8.73092 13.0382 8.77723C13.1 8.80811 13.1463 8.8467 13.1772 8.89302C13.208 8.93933 13.2235 8.98564 13.2235 9.03196C13.2235 9.09371 13.1926 9.14003 13.1308 9.1709L13.1231 9.15546ZM16.1644 14.8675C15.9483 15.1377 15.7013 15.3616 15.408 15.5314C15.1146 15.7012 14.8059 15.7861 14.4817 15.7861C14.3041 15.7861 14.1575 15.7707 14.034 15.7321C13.9645 15.6703 13.9336 15.6009 13.9336 15.5159C13.9336 15.4696 13.9336 15.431 13.9413 15.4079C13.9413 15.3847 13.9722 15.3307 14.0185 15.2535L14.2655 14.9139C14.1343 14.8598 14.0726 14.7749 14.0726 14.6514C14.0726 14.5819 14.1034 14.5202 14.1729 14.4584C14.2115 14.3967 14.2655 14.3426 14.3427 14.2963C14.4199 14.25 14.4894 14.2191 14.5511 14.2191C14.636 14.2191 14.6901 14.2577 14.721 14.3349C14.7364 14.389 14.721 14.4353 14.6901 14.4662C14.6515 14.497 14.6129 14.5356 14.5743 14.5742C14.5357 14.5433 14.5048 14.5202 14.4817 14.5047C14.4354 14.4662 14.389 14.4584 14.335 14.4816L14.2887 14.5279C14.3582 14.6591 14.4585 14.7209 14.582 14.7209C14.6592 14.7209 14.7287 14.7132 14.8059 14.69C14.8753 14.6669 14.9525 14.6437 15.0297 14.6205C15.0066 14.7132 14.8059 14.8444 14.4276 15.0296C14.2501 15.1146 14.1652 15.1917 14.1652 15.2689C14.1652 15.3384 14.2269 15.4233 14.3582 15.5159C14.4045 15.5159 14.4662 15.5237 14.5511 15.5237C14.8213 15.5237 15.0915 15.4619 15.3616 15.3461C15.6241 15.2303 15.8942 15.0682 16.1567 14.8598L16.1644 14.8675ZM15.516 10.7379C15.2613 10.9077 15.0066 11.0698 14.7518 11.2242C14.5897 11.3245 14.4431 11.4017 14.2964 11.4635C14.2964 11.3014 14.281 11.1779 14.2578 11.0775C14.2347 10.9772 14.1961 10.8768 14.1575 10.7842C14.0571 10.6066 13.9336 10.4909 13.787 10.4214C13.6403 10.3519 13.455 10.321 13.2466 10.321C12.961 10.321 12.6831 10.3751 12.413 10.4909C12.22 10.5758 12.0888 10.7147 12.0039 10.9231C12.0039 10.9463 11.9421 11.1393 11.8418 11.502C11.7954 11.7799 11.9267 12.0038 12.2431 12.1736C12.413 12.2662 12.6754 12.382 13.0305 12.5287L12.2123 13.1308C12.1042 13.0227 11.9961 12.9146 11.8958 12.8143C11.7337 12.6676 11.587 12.5982 11.4481 12.5982C11.2397 12.6753 11.1085 12.8529 11.039 13.1308C11.0081 13.3701 10.9849 13.6093 10.9618 13.8486C11.0081 13.9567 11.0699 14.0262 11.147 14.057C11.2242 14.0879 11.3169 14.1111 11.4327 14.1111C11.479 14.1111 11.5484 14.1111 11.6411 14.1034C11.7337 14.1034 11.8032 14.0956 11.8418 14.0956C11.5793 14.6977 11.0776 15.1686 10.352 15.5159C9.71131 15.763 9.07835 16.0177 8.45311 16.2801C8.61521 16.2492 8.94712 16.1952 9.4643 16.1103C10.1822 15.9868 10.7302 15.8556 11.1007 15.7089C11.3863 15.5159 11.6102 15.2612 11.7723 14.9216C11.8804 14.7054 11.9884 14.3735 12.0888 13.9413C12.3203 13.756 12.5596 13.5785 12.8066 13.3932C13.3007 13.015 13.6943 12.6985 13.9799 12.436C13.9799 12.6599 13.9722 12.9609 13.9491 13.3237C13.9259 13.6865 13.9027 13.9799 13.8796 14.2037C13.9105 14.1111 13.9876 13.6865 14.1034 12.9146C14.1497 12.6213 14.2115 12.3743 14.2964 12.1736C14.5203 12.0192 14.7441 11.8726 14.968 11.7182C15.1301 11.6024 15.2381 11.5098 15.3076 11.4326L15.516 10.7379ZM7.69664 8.93161C7.66577 9.0088 7.63489 9.08599 7.60401 9.16318C7.5191 9.12459 7.45735 9.10143 7.41104 9.08599C7.36472 9.07827 7.32613 9.07055 7.28753 9.08599C7.24894 9.14774 7.17947 9.37159 7.0714 9.76526C7.02509 9.93508 6.97105 10.0586 6.90158 10.1435C6.7858 9.89649 6.67773 9.64176 6.56966 9.39475L6.47704 9.5337C6.34581 9.47966 6.2609 9.39475 6.21459 9.28669C6.24547 9.18634 6.26862 9.10915 6.28406 9.03968C6.2995 8.97793 6.33809 8.93161 6.39985 8.90074C6.55423 8.94705 6.66229 9.05511 6.73948 9.24037C6.81667 9.41791 6.88614 9.58773 6.95562 9.75755C7.01737 9.48738 7.06368 9.28668 7.10228 9.15546C7.17947 8.92389 7.31841 8.80039 7.52682 8.80039C7.58086 8.85442 7.63489 8.90074 7.69664 8.94705V8.93161ZM6.87843 11.3785C6.7472 11.6101 6.6237 11.8494 6.49247 12.081C6.40756 12.0038 6.27634 11.9343 6.0988 11.8726C5.92127 11.8108 5.79776 11.7645 5.74373 11.7259L6.19143 11.0312C6.19143 11.0312 6.32266 11.1007 6.53879 11.1933C6.75492 11.2859 6.87071 11.3477 6.88614 11.3785H6.87843ZM11.2242 10.1358C11.2551 10.2207 11.2706 10.3133 11.2706 10.4214C11.2706 10.5989 11.232 10.7533 11.147 10.9C10.9309 11.0235 10.7457 11.1624 10.5758 11.3322C9.86569 12.3511 9.15554 13.3623 8.44539 14.3812C7.98225 14.7981 7.48051 15.1223 6.94018 15.3616C6.39985 15.6008 5.83636 15.7166 5.24971 15.7166C4.81745 15.7166 4.37746 15.6394 3.92976 15.4773C3.50521 15.3538 3.11154 15.1223 2.74875 14.7749C2.38595 14.4276 2.15438 14.0416 2.04631 13.6093C2.01544 13.4858 2 13.3546 2 13.2002C2 12.8683 2.08491 12.5518 2.24701 12.2508C2.40911 11.9497 2.63296 11.6873 2.91085 11.4557C3.11926 11.2859 3.39714 11.1161 3.76766 10.9463C4.23852 10.7301 4.53184 10.5758 4.65535 10.4986C4.94095 10.321 5.18024 10.1126 5.35778 9.87333C5.29602 10.0046 5.22655 10.1203 5.14936 10.2361C5.07217 10.3519 4.97954 10.46 4.87148 10.5526C4.72482 10.6916 4.26939 10.9772 3.50521 11.4094C2.91085 11.7413 2.51717 12.1196 2.30876 12.5441C2.30876 12.5904 2.30104 12.6522 2.30104 12.7371C2.30104 13.069 2.40911 13.3855 2.61752 13.6788C2.83365 13.9721 3.10382 14.2037 3.43574 14.3658C3.99923 14.6746 4.62447 14.829 5.3269 14.829C5.79776 14.829 6.23775 14.7672 6.65457 14.636C7.0714 14.5048 7.44191 14.3041 7.78927 14.0339C8.17522 13.7946 8.53802 13.4627 8.86993 13.0304C9.00888 12.8452 9.27132 12.4438 9.66499 11.8262C9.98147 11.3168 10.2671 10.9308 10.5218 10.6761C10.6222 10.5758 10.7225 10.4754 10.8151 10.3673C10.9309 10.2593 11.0621 10.1821 11.2242 10.1281V10.1358ZM12.8607 8.7232C12.8607 8.58425 12.8375 8.49935 12.7912 8.46075L12.6523 8.58425L12.8607 8.7232ZM13.9568 11.6564C13.841 11.6796 13.7329 11.6873 13.6403 11.6873C13.4473 11.6873 13.2929 11.6641 13.154 11.6256C13.0228 11.587 12.8915 11.5329 12.7603 11.4635C12.6291 11.4017 12.5133 11.3322 12.3975 11.2628C12.5673 11.1547 12.7603 11.1007 12.9919 11.1007C13.0614 11.1007 13.1463 11.1007 13.2543 11.1238C13.4242 11.1624 13.5631 11.2242 13.6789 11.3091C13.7947 11.394 13.8873 11.5098 13.9568 11.641V11.6564Z" fill="white"/>
</svg>
