<svg width="24" height="24" viewBox="0 0 24 24" fill="none" xmlns="http://www.w3.org/2000/svg">
<path fill-rule="evenodd" clip-rule="evenodd" d="M21.893 10.9717C21.9618 11.4381 22 11.8739 22 12.2867C22 12.7836 21.9465 13.2806 21.8471 13.7622C21.7477 14.2515 21.5948 14.7102 21.3884 15.1537C21.182 15.5971 20.8991 16.0176 20.5321 16.4228C20.1651 16.828 19.7523 17.1338 19.3012 17.3555C18.7049 17.5008 17.948 17.6078 17.0229 17.6537C16.0979 17.7072 15.2339 17.7607 14.4159 17.8142C15.7309 17.5161 16.6407 17.2867 17.1605 17.1185C18.2615 16.7592 19.156 16.3158 19.8364 15.7806C20.6927 15.1154 21.2813 14.2821 21.5948 13.2882C21.6101 13.1888 21.6177 13.0895 21.6177 12.9824V12.7301C21.6177 12.0803 21.5031 11.4151 21.2737 10.7194C21.0979 10.1766 20.8226 9.55734 20.448 8.85398C20.3945 9.08334 20.3563 9.31269 20.3333 9.55734C20.3104 9.79434 20.3028 10.0772 20.3028 10.3907C20.3028 10.5512 20.3028 10.7882 20.318 11.1093C20.3257 11.4304 20.3333 11.6674 20.3333 11.8203C20.3333 12.1797 20.3257 12.4549 20.3028 12.646C20.2798 12.8372 20.2339 13.0512 20.1498 13.2882C20.081 12.5161 20.0428 11.7898 20.0428 11.094C20.0428 10.4518 20.0657 9.81728 20.1116 9.17508C20.1575 8.53288 20.2339 7.86774 20.3257 7.17967C20.7079 7.69955 21.0367 8.28058 21.3043 8.93043C21.5719 9.58028 21.763 10.2607 21.8853 10.9717H21.893ZM11.5107 6.28517C11.526 6.34633 11.5336 6.44572 11.5336 6.57569C11.5336 6.82034 11.4878 7.01912 11.3884 7.17967C11.3196 7.15673 11.2584 7.14144 11.2202 7.14144C11.1208 7.14144 10.9373 7.24083 10.6697 7.43961C10.5398 7.53899 10.4251 7.58487 10.3257 7.58487C10.2187 7.58487 10.1193 7.53899 10.0275 7.43961C10.0199 7.41667 10.0122 7.38609 10.0122 7.35551V7.29434C10.0122 7.14908 10.0352 7.01147 10.081 6.89679C10.1269 6.78211 10.1881 6.65214 10.2798 6.49924C10.2875 6.55275 10.2875 6.62156 10.2798 6.70566C10.2722 6.78976 10.2645 6.86621 10.2569 6.93502C10.2569 7.01911 10.2798 7.09557 10.3257 7.14144C10.4939 7.17967 10.6162 7.11851 10.7079 6.95796C10.7691 6.82034 10.8379 6.67508 10.9067 6.53747C10.922 6.4763 10.9373 6.42279 10.945 6.38456C10.9526 6.34634 10.9832 6.3234 11.0214 6.31575L11.0902 6.85092C11.2661 6.90444 11.3654 6.82799 11.396 6.62156C11.419 6.41514 11.4648 6.30046 11.526 6.26988L11.5107 6.28517ZM14.737 10.5359C14.607 10.406 14.4694 10.2989 14.3318 10.2301C14.1942 10.1537 14.0413 10.1154 13.8731 10.1154C13.7278 10.2378 13.6055 10.3907 13.5061 10.5742C13.445 10.6965 13.3761 10.8723 13.3073 11.1017L14.1636 11.6292C14.2783 11.4534 14.393 11.2699 14.5153 11.0864C14.63 10.8953 14.7064 10.7194 14.7446 10.5436L14.737 10.5359ZM19.4388 7.80658C19.4159 7.63074 19.3089 7.54664 19.1254 7.54664C19.0719 7.54664 19.0183 7.56193 18.9648 7.58487C18.8272 7.62309 18.7125 7.69954 18.6208 7.83716C18.5367 7.96713 18.4679 8.11239 18.422 8.27294C18.4602 8.37997 18.552 8.47936 18.6972 8.57875C18.8425 8.67814 18.9342 8.7393 18.9572 8.76988C18.7584 9.00688 18.5061 9.24389 18.208 9.48089C17.9557 9.67967 17.6804 9.87845 17.3823 10.0696C17.4205 9.82493 17.4358 9.5497 17.4358 9.25918C17.4358 8.60933 17.3364 7.96713 17.1453 7.33257C16.9541 6.69802 16.6865 6.10168 16.3425 5.54358C16.1437 6.04817 15.9985 6.59098 15.9067 7.16438C15.8226 7.73777 15.7691 8.25765 15.7462 8.71636C15.7309 9.18272 15.7232 9.8708 15.7232 10.7882C15.8609 10.4824 15.9602 10.0466 16.0291 9.47325C16.1972 7.96713 16.2813 7.2026 16.289 7.17202C16.5183 7.56958 16.6865 7.99771 16.7859 8.45643C16.893 8.92279 16.9465 9.40444 16.9465 9.91667C16.9465 10.9564 16.7783 11.8891 16.4495 12.7148C16.2737 12.8907 16.0138 13.0665 15.6621 13.2424C14.9358 13.594 14.4771 13.8769 14.2936 14.0986C14.1101 14.9625 13.6743 15.6812 12.9939 16.2546C12.4511 16.7133 11.7171 17.0879 10.792 17.3861C10.4327 17.5008 9.62997 17.7072 8.37615 18.0054C8.55199 17.9824 8.72018 17.9595 8.89602 17.9518C9.06422 17.9442 9.24006 17.9366 9.4159 17.9366C9.59174 17.9366 9.76758 17.9366 9.94342 17.9366C10.1193 17.9366 10.2951 17.9366 10.4709 17.9366C10.8456 17.9366 11.2049 17.9136 11.5566 17.8754C11.9006 17.8372 12.2141 17.7607 12.4817 17.6613C12.948 17.5314 13.3303 17.2179 13.6361 16.7133C13.8119 16.4228 14.0107 15.9641 14.2248 15.3372C14.4771 15.039 14.8823 14.7485 15.448 14.4732C15.945 14.2515 16.4495 14.0298 16.9465 13.8005C17.5275 13.5329 17.9404 13.2729 18.1927 13.0283L18.5367 11.6216C18.4144 11.568 18.292 11.5451 18.1697 11.5451C18.0856 11.5451 17.841 11.591 17.4358 11.6904C17.2905 11.7286 17.1453 11.7439 17.0153 11.7439C17.0841 11.461 17.1606 11.1781 17.237 10.8876C17.2752 10.7194 17.2905 10.5436 17.2905 10.3601C17.3135 10.3448 17.6422 10.1078 18.2615 9.64909C18.6667 9.35857 18.9495 9.07569 19.1254 8.79281L19.1942 8.86162C19.3242 8.77753 19.4006 8.70108 19.4159 8.64756C19.4312 8.59404 19.4388 8.51759 19.4388 8.43349C19.4388 8.38762 19.4388 8.31881 19.4235 8.22707C19.4159 8.13532 19.4083 8.06652 19.4083 8.02065C19.4083 7.97478 19.4159 7.90597 19.4312 7.79893L19.4388 7.80658ZM12.13 14.0986C12.0459 14.2821 11.9312 14.4427 11.7859 14.5879C11.6789 14.6873 11.5183 14.8096 11.289 14.9702C11.2278 15.0161 11.0902 15.1002 10.8761 15.2301C10.6621 15.3601 10.448 15.4901 10.2263 15.62C10.2875 15.4365 10.3945 15.2684 10.5398 15.1231C10.6544 15.0084 10.8303 14.8861 11.0673 14.7638C11.3043 14.6338 11.4801 14.5421 11.6024 14.4656C11.8089 14.3509 11.9847 14.2286 12.13 14.0986ZM5.13456 7.0497L5.00459 7.44725C4.93578 7.40138 4.87462 7.3708 4.83639 7.34022C4.75229 7.2867 4.67584 7.26376 4.62997 7.26376C4.56116 7.26376 4.52294 7.32493 4.52294 7.44725C4.52294 8.06652 4.38532 8.61697 4.11774 9.09863C3.92661 8.70107 3.73547 8.31117 3.5367 7.91361C3.52905 8.013 3.46789 8.05887 3.3685 8.05887C3.34557 8.05887 3.29205 8.05123 3.22324 8.03594C3.15443 8.02064 3.10856 8.013 3.07798 8.013C2.97095 8.013 2.91743 7.95948 2.91743 7.8448C2.94037 7.72248 2.9633 7.63074 2.97095 7.58487C2.97859 7.53135 3.00917 7.47018 3.0474 7.40138C3.12385 7.27141 3.2156 7.19496 3.32263 7.16438C3.55199 7.26376 3.72783 7.4549 3.8578 7.74542C3.96483 7.99771 4.06422 8.25 4.17125 8.50994C4.22477 8.10474 4.27064 7.77599 4.32416 7.50841C4.37003 7.24083 4.47706 7.01912 4.64526 6.84328C4.80581 6.84328 4.91284 6.85857 4.98165 6.89679C5.05046 6.93502 5.09633 6.98854 5.13456 7.06499V7.0497ZM12.841 9.30505C12.7875 9.30505 12.5505 9.3127 12.1376 9.33563C11.7248 9.35857 11.3884 9.36621 11.1437 9.36621C11.0367 9.67966 10.9755 9.89373 10.945 9.99312C10.8914 10.1995 10.8685 10.406 10.8685 10.6124C10.685 10.8341 10.4939 11.0176 10.2875 11.1628C10.1498 11.2699 9.93578 11.3999 9.64526 11.568C9.56881 11.6063 9.47706 11.6216 9.38532 11.6216C9.24771 11.6216 9.11009 11.5833 8.98012 11.5069C8.85015 11.4304 8.70489 11.331 8.55963 11.2011C8.27676 9.68731 8.10092 8.70872 8.03211 8.25765C7.93272 7.65367 7.85627 7.05734 7.79511 6.46101C7.51223 6.84328 7.37462 7.26376 7.37462 7.70719C7.53517 8.71636 7.68807 9.71789 7.84862 10.7118C7.56575 10.8265 6.80122 11.0482 5.53976 11.3846C4.56116 11.6445 3.81957 11.9427 3.32263 12.2791C2.63456 12.7531 2.19113 13.4106 2 14.2592C2 15.0084 2.06881 15.6353 2.20642 16.1399C2.38226 16.7821 2.69572 17.302 3.13914 17.7148C3.44495 17.906 3.66667 18.0359 3.81193 18.1124C4.27064 18.3417 4.67584 18.4564 5.04281 18.4564C5.1422 18.4564 5.24159 18.4488 5.35627 18.4335C5.47095 18.4182 5.57034 18.3876 5.65443 18.357C6.20489 18.1583 6.6789 17.8448 7.06881 17.4243C7.4052 17.065 7.69572 16.6063 7.94801 16.0482C8.14679 15.5895 8.32263 15.0619 8.47553 14.458C8.58257 14.0375 8.6896 13.4947 8.80428 12.8295C8.9266 12.8525 9.04128 12.8677 9.14832 12.8677C9.45413 12.8677 9.737 12.7684 10.0046 12.5772C10.2034 12.4396 10.4327 12.2102 10.6774 11.9044C11.0826 11.4304 11.3349 11.1476 11.4495 11.0482C11.763 10.7653 12.0917 10.6047 12.4358 10.5512C12.6193 10.2607 12.7339 10.0313 12.7798 9.86315C12.8257 9.69496 12.8486 9.50383 12.8486 9.30505H12.841ZM19.133 8.24236V8.12768C19.1177 8.02829 19.0566 7.98242 18.9495 7.98242C18.896 7.98242 18.8654 8.00535 18.8425 8.05887C18.8578 8.07416 18.9037 8.10475 18.9725 8.13533C19.0413 8.17355 19.0948 8.20413 19.133 8.24236ZM8.20795 14.3891C8.07798 15.0466 7.66514 15.6659 6.97706 16.2546C6.28899 16.8433 5.61621 17.1338 4.95872 17.1338C4.36239 17.065 3.81957 16.7974 3.32263 16.3387C2.82569 15.88 2.51223 15.3601 2.38226 14.7714C2.37462 14.7102 2.36697 14.6109 2.36697 14.4809C2.36697 14.0986 2.45107 13.7393 2.61927 13.4106C2.78746 13.0818 3.03211 12.8142 3.35321 12.6154C3.7737 12.3708 4.263 12.1491 4.8211 11.958C5.32569 11.7974 5.83792 11.6445 6.34251 11.4839C6.96942 11.2852 7.47401 11.0864 7.84098 10.9029C7.85627 11.0405 7.94037 11.4992 8.09327 12.2714C8.20795 12.8601 8.26147 13.3417 8.26147 13.7164C8.26147 13.8616 8.26147 13.984 8.24618 14.0604C8.23853 14.1445 8.22324 14.2515 8.19266 14.3815L8.20795 14.3891Z" fill="white"/>
</svg>
