<svg width="24" height="24" viewBox="0 0 24 24" fill="none" xmlns="http://www.w3.org/2000/svg">
<path fill-rule="evenodd" clip-rule="evenodd" d="M22 11.086C22 11.6535 21.9582 12.2151 21.8686 12.7766C21.779 13.3381 21.6535 13.9235 21.4863 14.5269C21.1816 15.3154 20.6081 15.8829 19.7658 16.2234C19.1027 16.4922 18.2784 16.6296 17.2927 16.6296L17.2688 16.5699C18.2007 16.3847 19.0609 15.9785 19.8495 15.3513C20.2796 15.0167 20.638 14.6762 20.9247 14.3238C21.2533 13.9235 21.4803 13.5054 21.6177 13.0693C21.6834 12.8841 21.7252 12.7109 21.7491 12.5436C21.773 12.3763 21.7849 12.1792 21.7849 11.9582C21.7849 11.4743 21.7013 10.9964 21.5341 10.5305C21.3668 10.0645 21.1338 9.63442 20.8292 9.23418C20.7873 9.4791 20.7575 9.71207 20.7515 9.93309C20.7395 10.1541 20.7336 10.411 20.7336 10.7037C20.7336 10.9845 20.7395 11.4444 20.7575 12.0956C20.7754 12.7467 20.7814 13.0872 20.7814 13.129H20.7097C20.6141 12.3704 20.5663 11.5818 20.5663 10.7635C20.5663 10.2557 20.5842 9.77181 20.626 9.32378C20.6679 8.87575 20.7336 8.41577 20.8292 7.9558C21.2294 8.35604 21.5221 8.82198 21.7133 9.35364C21.9044 9.8853 22 10.4648 22 11.086ZM15.4767 8.57707C15.4946 8.65473 15.5006 8.72044 15.5006 8.76823C15.5006 8.95939 15.4468 9.1386 15.3453 9.30586C15.2736 9.30586 15.19 9.32378 15.0944 9.35364C14.8614 9.4313 14.736 9.47313 14.7121 9.47313C14.5986 9.47313 14.509 9.41936 14.4373 9.30586C14.4552 9.21028 14.4671 9.12068 14.4851 9.04302C14.503 8.96536 14.5388 8.89965 14.5926 8.83991C14.6105 8.84589 14.6225 8.8877 14.6404 8.96536C14.6583 9.04301 14.6882 9.08484 14.736 9.10276C14.8256 9.09678 14.8913 9.03106 14.9331 8.90562C14.9749 8.78017 15.0167 8.70849 15.0585 8.68459L15.0824 9.00718C15.2258 9.03705 15.3094 8.9773 15.3274 8.82795C15.3453 8.67861 15.399 8.59499 15.4767 8.57707ZM11.4863 9.3656C11.4325 9.52689 11.3429 9.68221 11.2234 9.83155C11.1756 9.89726 11.0502 10.0406 10.8411 10.2617C10.7993 10.2139 10.6141 10.1243 10.2796 9.99882C10.0466 9.90921 9.96296 9.78974 10.0167 9.62845C10.1422 9.45521 10.2378 9.32378 10.2915 9.24612C10.411 9.08483 10.5245 8.97134 10.638 8.89965C10.6559 8.90563 10.7993 8.97132 11.0681 9.0908C11.2533 9.16846 11.3907 9.26405 11.4863 9.3656ZM18.9534 10.9367V10.184C18.9534 9.37755 18.8996 8.75627 18.7981 8.30824C18.6487 7.65711 18.356 7.16727 17.9259 6.83871C17.7826 7.37038 17.681 7.91996 17.6153 8.48149C17.5496 9.04302 17.5197 9.62247 17.5197 10.2198C17.5197 10.7694 17.5496 11.313 17.6153 11.8447C17.7348 10.6499 17.8542 9.4552 17.9737 8.26046C18.2366 8.56512 18.4098 8.94744 18.4994 9.41936C18.5532 9.71805 18.583 10.172 18.583 10.7694V11.1637C18.3859 11.9343 17.9259 12.6332 17.2091 13.2545C16.534 13.8399 15.7933 14.2163 14.9869 14.3775C15.3035 14.1147 15.5723 13.828 15.7873 13.5233C16.0024 13.2186 16.1816 12.8841 16.325 12.5197C16.4683 12.1553 16.5818 11.7909 16.6655 11.4206C16.7491 11.0502 16.7909 10.6798 16.7909 10.3035C16.7491 10.2378 16.6834 10.2079 16.5878 10.2079C16.534 10.2079 16.4444 10.2258 16.325 10.2676C16.1099 10.3393 15.9606 10.3752 15.871 10.3752C15.4588 10.4707 15.1183 10.6559 14.8554 10.9367C14.6404 11.1696 14.4671 11.4803 14.3297 11.8686C14.2282 12.1733 14.1505 12.5018 14.1087 12.8543C14.0669 13.2067 14.0131 13.6428 13.9594 14.1505L12.8483 14.736C12.8483 14.736 12.8363 14.6762 12.8363 14.6284C12.8363 14.5388 12.8662 14.4313 12.92 14.2939C13.0335 14.0132 13.0872 13.822 13.0872 13.7204C12.7587 13.9892 12.4301 14.1983 12.0956 14.3477C11.7611 14.497 11.4205 14.5687 11.0681 14.5687C11.1398 14.3118 11.2174 14.0609 11.2951 13.8041C11.3847 13.4755 11.4265 13.2007 11.4265 12.9678C11.4265 12.8065 11.4086 12.6571 11.3668 12.5197C11.325 12.3823 11.2593 12.2449 11.1637 12.1195C11.0681 12.0179 10.9307 11.9642 10.7575 11.9642C10.6619 11.9821 10.5663 11.994 10.4707 12C10.0466 12.3584 9.73596 12.7945 9.52688 13.3142C9.3178 13.8339 9.21625 14.3835 9.21625 14.9749C8.81601 15.184 8.43967 15.3632 8.07527 15.5185C7.71087 15.6738 7.35842 15.7933 7.00597 15.8829C6.51016 16.0203 6.01434 16.086 5.51254 16.086C4.95699 16.086 4.42533 15.9904 3.92354 15.7993C3.42174 15.6081 3.00956 15.3154 2.681 14.9152C2.5675 14.7061 2.49582 14.5269 2.454 14.3775C2.41219 14.2282 2.39427 14.0729 2.39427 13.9116C2.39427 13.6965 2.43608 13.4994 2.52569 13.3262C2.61529 13.1529 2.74671 12.9797 2.9319 12.8124C3.08124 12.675 3.2963 12.5317 3.56511 12.3704C3.6129 12.3405 3.85783 12.2091 4.29391 11.9881C4.61051 11.8208 4.86141 11.6834 5.03465 11.5818C5.31541 11.4146 5.53047 11.2652 5.67981 11.1278C5.87097 10.9546 6.02031 10.7575 6.12186 10.5424C5.90084 10.8053 5.65591 11.0203 5.39307 11.1876C5.29152 11.2533 4.81362 11.4922 3.95938 11.9164C3.4994 12.1374 3.13501 12.3644 2.87216 12.5974C2.51971 12.902 2.26284 13.2605 2.09558 13.6846C2.02987 13.9654 2 14.2342 2 14.497C2 14.8793 2.05974 15.2378 2.17324 15.5723C2.28674 15.9068 2.47192 16.1995 2.71685 16.4564C3.09319 16.7133 3.47551 16.8925 3.8638 17C4.25209 17.1075 4.67622 17.1613 5.13023 17.1613C5.34528 17.1613 5.56033 17.1493 5.77539 17.1255C5.99044 17.1016 6.19355 17.0717 6.38471 17.0299C6.98208 16.9044 7.59737 16.7013 8.23656 16.4206C8.78017 16.1816 9.32975 15.8889 9.8853 15.5364C10.1422 15.6559 10.417 15.7156 10.7216 15.7156C11.0263 15.7156 11.307 15.6619 11.5938 15.5603C11.7073 15.4588 11.8327 15.3811 11.9701 15.3274C12.1075 15.2736 12.2628 15.2437 12.4301 15.2258C12.693 15.2198 12.9319 15.2139 13.147 15.2139C13.362 15.2139 13.5472 15.2019 13.6965 15.178C13.7503 15.2437 13.7861 15.2855 13.7921 15.3094C13.7981 15.3333 13.8041 15.4289 13.8041 15.5962V15.7515C13.8041 15.8053 13.8041 15.871 13.816 15.9486C13.822 16.0263 13.8339 16.0801 13.8519 16.1219L13.9952 15.1063C14.2282 14.9869 14.503 14.8853 14.8315 14.7957C15.0167 14.7419 15.2079 14.6941 15.405 14.6523C15.4468 14.6464 15.7634 14.5806 16.3548 14.4671C16.9462 14.3536 17.4421 14.049 17.8423 13.5651C18.2784 13.0335 18.6487 12.1553 18.9534 10.9427V10.9367ZM16.3608 11.3728C16.1995 11.8507 15.9188 12.3226 15.5185 12.7945C15.1183 13.2664 14.6703 13.6607 14.1744 13.9773C14.1744 13.4337 14.2461 12.9857 14.3895 12.6272C14.5747 12.1673 14.8793 11.8566 15.3094 11.6953C15.4468 11.6237 15.6141 11.5579 15.8232 11.5042C15.9427 11.4803 16.1219 11.4385 16.3608 11.3728ZM10.8769 13.5233C10.9307 13.601 10.9606 13.6786 10.9606 13.7503C10.9606 13.8698 10.859 13.9833 10.6619 14.0968C10.399 14.2401 10.2497 14.3297 10.2198 14.3716C10.0944 14.3059 9.98686 14.2402 9.90323 14.1625C9.81959 14.0848 9.74791 13.9952 9.69415 13.8817C9.74194 13.6965 9.80765 13.5353 9.89725 13.3979C9.98686 13.2605 10.1004 13.1709 10.2437 13.129C10.405 13.129 10.5424 13.1589 10.6559 13.2246C10.7694 13.2903 10.8471 13.3859 10.8769 13.5233Z" fill="white"/>
</svg>
