<svg width="24" height="24" viewBox="0 0 24 24" fill="none" xmlns="http://www.w3.org/2000/svg">
<path fill-rule="evenodd" clip-rule="evenodd" d="M21.9198 6.65796C21.8753 6.87182 21.7505 7.05003 21.5366 7.1926C21.3584 7.31289 21.1535 7.39754 20.9174 7.43764C20.855 7.43764 20.7614 7.43764 20.6411 7.42873C20.5208 7.41982 20.4317 7.41982 20.3738 7.41982C20.1867 7.41982 20.0352 7.45101 19.9104 7.50893C19.7857 7.5713 19.6788 7.6916 19.5941 7.87872C19.6209 7.76288 19.6921 7.63368 19.7991 7.4822C19.8347 7.43319 19.9372 7.30398 20.1109 7.09904C20.209 7.09904 20.3114 7.09904 20.4139 7.10349C20.5164 7.10349 20.6233 7.10795 20.7302 7.10795C21.0065 7.10795 21.2426 7.08122 21.4342 7.0233C21.6258 6.96538 21.7906 6.84508 21.9243 6.65796H21.9198ZM21.9287 11.4163C21.8485 10.8103 21.697 10.2267 21.4654 9.66977C21.2337 9.10839 20.9396 8.62722 20.5832 8.22178C20.503 8.48465 20.454 8.71632 20.4317 8.91681C20.4094 9.1173 20.4005 9.52719 20.4005 10.1465V10.7791C20.2802 10.9663 20.1065 11.1044 19.8837 11.1979C19.6609 11.2915 19.4248 11.3361 19.1842 11.3361C19.0684 10.6499 18.9169 10.0396 18.7253 9.49601C18.5115 8.87672 18.2352 8.31534 17.8922 7.81635C17.6917 8.27079 17.5759 8.97919 17.5402 9.93709C17.5046 10.895 17.4734 11.4697 17.4422 11.6658C17.2729 11.7103 17.0991 11.7504 16.9298 11.795C16.5645 11.8885 16.2972 11.991 16.119 12.1068C15.6289 12.441 15.2814 12.9043 15.0809 13.4969C14.9294 13.9513 14.8581 14.5528 14.8581 15.2924C14.9205 15.6577 15.0987 16.0053 15.3838 16.3349C15.669 16.6646 15.9942 16.9231 16.3551 17.1013C16.8184 17.1013 17.362 17.0612 17.9857 16.9854C18.6095 16.9097 19.2154 16.8339 19.808 16.7627C20.1065 16.7003 20.3872 16.5399 20.6545 16.2904C20.9619 15.9919 21.2515 15.5464 21.5188 14.9538C21.8396 14.2187 22 13.3944 22 12.4722C22 12.1157 21.9777 11.7682 21.9376 11.4252L21.9287 11.4163ZM11.5701 8.07921C11.4765 8.21287 11.3562 8.33317 11.2047 8.43118C11.0978 8.50247 10.9552 8.57821 10.7726 8.65395C10.5899 8.73415 10.4161 8.80543 10.2468 8.87672C10.0775 8.948 9.92604 9.0282 9.79238 9.12176C9.86367 8.97919 9.9706 8.84998 10.1087 8.7386C10.2468 8.62276 10.4028 8.5292 10.5721 8.449C10.6211 8.42673 10.8349 8.35099 11.2136 8.21287C11.3562 8.16386 11.472 8.11485 11.5656 8.07476L11.5701 8.07921ZM15.121 16.228C14.9294 16.4998 14.6888 16.7092 14.3992 16.8607C14.1096 17.0122 13.7933 17.0834 13.4413 17.0834H13.3032C13.2319 17.0701 13.1784 17.0612 13.1428 17.0612C13.0938 17.0255 13.0403 16.9899 12.9869 16.9542C12.9334 16.9186 12.9067 16.874 12.9067 16.825C12.9557 16.6379 13.0225 16.482 13.0982 16.3483C13.1784 16.2147 13.2854 16.0988 13.419 15.9919C13.3388 15.9206 13.2854 15.8716 13.2497 15.8404C13.1784 15.778 13.1428 15.7157 13.1428 15.6577C13.1428 15.6444 13.1517 15.6132 13.1651 15.5731C13.1918 15.5508 13.2765 15.4572 13.4101 15.2969C13.5081 15.1766 13.6061 15.1053 13.6997 15.083C13.771 15.0563 13.8334 15.0652 13.8913 15.1097C13.9492 15.1543 13.9893 15.2167 14.0071 15.2879C14.0071 15.3325 13.9804 15.3771 13.9314 15.4261C13.8512 15.5063 13.8111 15.5508 13.8022 15.5642C13.7398 15.5018 13.6863 15.4483 13.6418 15.4127C13.5972 15.3771 13.5616 15.3681 13.526 15.3815C13.4814 15.3949 13.4636 15.4261 13.4636 15.4662C13.4636 15.5063 13.4859 15.5419 13.526 15.5642C13.5616 15.6711 13.6462 15.7246 13.7844 15.7246C13.869 15.7246 13.9581 15.7067 14.0517 15.6711C14.1452 15.6355 14.2433 15.5998 14.3502 15.5642C14.3502 15.5731 14.3502 15.582 14.3591 15.5954C14.3368 15.6399 14.2522 15.7424 14.1007 15.9072C13.8646 15.9652 13.6774 16.032 13.5349 16.1122C13.3299 16.2325 13.2052 16.3884 13.1606 16.5844C13.3477 16.7003 13.5482 16.7537 13.771 16.7537C13.9759 16.7537 14.2121 16.6958 14.4749 16.5844C14.6621 16.5043 14.8759 16.3884 15.1165 16.2325L15.121 16.228ZM16.2526 9.12621C16.2526 9.37571 16.1992 9.58957 16.0922 9.76778C15.9853 9.946 15.8338 10.1108 15.6333 10.2579C15.5398 10.3292 15.3972 10.4183 15.2056 10.5252C14.8002 10.7524 14.5551 10.895 14.4794 10.9529C14.3947 11.1222 14.3368 11.4163 14.3101 11.8306C14.2834 12.2449 14.2254 12.5435 14.1408 12.7306L14.1096 11.1801C13.6819 11.4564 13.2542 11.7326 12.8265 12.0044C13.0314 12.0177 13.2007 12.0311 13.3344 12.04C13.468 12.0489 13.5794 12.089 13.673 12.1514C13.5527 12.6593 13.4502 12.9801 13.3745 13.1227C13.1963 13.4568 12.9245 13.6573 12.5636 13.7197C12.5012 13.7419 12.2918 13.8043 11.9443 13.9112C11.7037 13.9825 11.4943 14.0494 11.325 14.1162C11.0265 14.232 10.7859 14.3479 10.6077 14.4682C10.4874 14.5528 10.3671 14.6731 10.2424 14.8201C10.1845 14.936 10.1221 15.1053 10.0508 15.3325C9.88149 15.8894 9.78347 16.1924 9.76119 16.2414C9.66763 16.5043 9.5607 16.7181 9.44041 16.883C9.28447 17.0879 9.08844 17.2438 8.85231 17.3419C8.66518 17.3419 8.50479 17.3196 8.36667 17.2706C8.22856 17.226 8.10381 17.1458 7.99688 17.03L7.65382 16.5711C7.38204 16.7493 7.03007 16.883 6.60236 16.9721C6.17019 17.0612 5.53308 17.1057 4.69548 17.1057C5.25685 16.9632 5.72912 16.8072 6.10782 16.6335C6.59345 16.4107 7.02562 16.13 7.39987 15.7869C7.37759 15.5597 7.36868 15.337 7.36868 15.1231C7.36868 14.8023 7.3865 14.4904 7.42214 14.1919C7.45779 13.8934 7.54689 13.4613 7.68946 12.8999C7.94787 11.9865 8.20628 11.0732 8.46915 10.1643C8.66964 10.4762 8.81666 10.8415 8.91914 11.2514C9.01715 11.6613 9.07062 12.0801 9.07062 12.5078V12.891C9.05725 12.9756 9.04834 13.038 9.04834 13.0736C8.99933 13.5949 8.89686 14.1073 8.73647 14.6152C8.58053 15.1231 8.38004 15.5775 8.13945 15.983C8.25975 16.0988 8.34885 16.1701 8.40677 16.2057C8.52261 16.277 8.62954 16.3127 8.73647 16.3127C8.81666 16.3127 8.88349 16.2993 8.94141 16.2681C9.21764 16.1033 9.44932 15.8493 9.62753 15.5107C9.70773 15.3592 9.83248 15.0429 10.0018 14.5573C10.1444 14.1652 10.2958 13.8711 10.4518 13.6796C10.6745 13.4078 10.9775 13.234 11.3607 13.1538C11.4676 12.7484 11.6636 12.3608 11.9443 11.9999C12.225 11.6346 12.5636 11.3272 12.9557 11.0687C12.7284 10.9529 12.5012 10.8371 12.2695 10.7168C12.0111 10.5519 11.8864 10.3514 11.8864 10.1064C11.9488 9.77669 12.0022 9.53611 12.0468 9.38017C12.127 9.09503 12.2695 8.9079 12.4834 8.81434C12.7908 8.72969 12.9869 8.67623 13.0715 8.65395C13.3344 8.59157 13.5482 8.55593 13.7131 8.55593C13.9047 8.55593 14.0784 8.59157 14.2254 8.6584C14.3769 8.72523 14.5017 8.84553 14.5997 9.01483C14.6487 9.16631 14.6754 9.33562 14.6754 9.52719C14.6754 9.71877 14.6487 9.87917 14.5997 10.0084C14.8225 9.92372 15.0987 9.7856 15.4328 9.58957C15.9407 9.29552 16.217 9.13513 16.266 9.10839L16.2526 9.12621ZM5.90287 15.2879C6.10782 14.5038 6.2192 14.085 6.23257 14.0271C6.28158 13.7687 6.30831 13.5014 6.30831 13.2251C6.30831 12.8954 6.2593 12.6058 6.15683 12.3474C6.05881 12.089 5.8806 11.8707 5.6311 11.6836C5.41724 11.5766 5.19448 11.5232 4.96725 11.5232C4.74003 11.5232 4.51281 11.5677 4.27222 11.6613C4.02272 11.795 3.85342 12.0311 3.76877 12.3652C3.72421 12.5435 3.70639 12.8197 3.70639 13.1895C3.72867 13.1761 3.7955 13.0692 3.91134 12.8687C3.95589 12.7974 4.00936 12.7439 4.07173 12.7083C4.22321 12.6014 4.41479 12.5479 4.65092 12.5479C4.88706 12.5479 5.09646 12.5925 5.26131 12.6771C5.43061 12.8063 5.56872 12.9444 5.6712 13.0959C5.77367 13.2474 5.84941 13.4078 5.90287 13.586C5.96079 13.7018 5.98753 13.8266 5.98753 13.9692C5.98753 14.1117 5.95634 14.2588 5.89842 14.4147C5.83604 14.5662 5.7603 14.7355 5.66674 14.9137C5.43061 15.2701 5.17665 15.5508 4.90933 15.7602C4.57518 16.0186 4.23658 16.1434 3.89352 16.1434C3.74204 16.1434 3.59501 16.0988 3.44353 16.0142C3.34997 15.9562 3.14948 15.7914 2.84651 15.5241C2.65939 15.2657 2.52573 15.0206 2.44108 14.7845C2.35643 14.5484 2.31187 14.3122 2.31187 14.0805V13.9647C2.31187 13.9157 2.31187 13.8667 2.32078 13.8266C2.35643 13.5771 2.43662 13.3231 2.56583 13.0692C2.67276 12.8553 2.82424 12.6147 3.01582 12.3519C3.38115 11.8796 3.74204 11.4073 4.10737 10.9306C4.30786 10.6366 4.4638 10.3737 4.57073 10.1376C4.68211 9.90144 4.75785 9.65194 4.80241 9.38908C4.75785 9.55838 4.69102 9.7366 4.59301 9.91481C4.49499 10.093 4.38806 10.2668 4.26777 10.4405C4.14747 10.6098 4.01827 10.7747 3.88461 10.9262C3.75095 11.0777 3.61283 11.2291 3.47917 11.3806C3.4168 11.4608 3.30987 11.5856 3.15839 11.7549C2.98908 11.9598 2.82869 12.1692 2.68612 12.3786C2.54355 12.588 2.44108 12.7618 2.37425 12.8954C2.2896 13.0647 2.22277 13.2519 2.1693 13.4523C2.05346 13.8667 2 14.2677 2 14.6597C2 15.0518 2.05792 15.4127 2.17821 15.7647C2.29851 16.1166 2.47227 16.4151 2.7084 16.6557C2.8777 16.825 3.06483 16.9587 3.26086 17.0523C3.45689 17.1458 3.65738 17.1904 3.86679 17.1904C4.01827 17.1904 4.1742 17.1592 4.33905 17.0924C4.70439 16.9587 5.02963 16.7092 5.32368 16.3528C5.57318 16.0454 5.76921 15.6889 5.91178 15.2835L5.90287 15.2879ZM5.14547 13.6395C4.96725 13.439 4.78013 13.341 4.57964 13.341C4.23212 13.341 4.01381 13.5548 3.92916 13.9825C3.88461 14.1385 3.97371 14.2499 4.18757 14.3122C4.47271 14.4058 4.64201 14.4815 4.69102 14.535L5.14992 13.635L5.14547 13.6395ZM18.7565 11.4252L17.7496 11.5945L17.8476 9.1574C18.0615 9.47819 18.2442 9.83907 18.3912 10.2356C18.5204 10.5697 18.6407 10.9663 18.7565 11.4207V11.4252ZM21.4921 13.8756C21.3584 14.232 21.1624 14.5617 20.9129 14.8691C20.6634 15.1766 20.3738 15.4483 20.0486 15.6934C19.7189 15.934 19.3758 16.1434 19.0105 16.3127C18.8456 16.3929 18.712 16.4508 18.605 16.4953C18.4268 16.5666 18.2041 16.6424 17.9412 16.7181C18.2352 16.4062 18.4714 16.0498 18.6585 15.6488C18.8233 15.2924 18.9526 14.8959 19.0417 14.4637C19.1352 14.0271 19.1931 13.6306 19.211 13.2652C19.2332 12.8999 19.2421 12.3964 19.2421 11.746C19.4204 11.6613 19.603 11.5633 19.7857 11.4564C20.0085 11.3272 20.1867 11.2069 20.3293 11.091C20.3203 11.2559 20.3159 11.4207 20.307 11.59C20.2981 11.7593 20.2981 11.9286 20.2981 12.1068C20.2981 12.3831 20.3159 12.6326 20.356 12.8553C20.3961 13.0781 20.4674 13.2697 20.5743 13.4345L20.6723 9.68313C21.0287 10.3693 21.2649 10.8504 21.3763 11.1267C21.6124 11.7103 21.7282 12.2405 21.7282 12.7083C21.7282 13.1093 21.648 13.4969 21.4832 13.8756H21.4921ZM14.2433 10.1955C14.221 10.0396 14.1631 9.90144 14.074 9.79006C14.0027 9.71877 13.9047 9.66531 13.7844 9.62967C13.6641 9.59403 13.5438 9.5762 13.419 9.5762C13.1562 9.5762 12.8844 9.63412 12.6082 9.74551C12.8443 9.89699 13.0982 10.0084 13.3789 10.0841C13.6552 10.1599 13.9448 10.1955 14.2433 10.1955ZM18.8634 11.8974C18.9347 12.2316 18.9704 12.5836 18.9704 12.9444C18.9704 13.3053 18.9303 13.6662 18.8545 13.9781C18.7788 14.2899 18.6496 14.5885 18.4758 14.8825C18.3021 15.1766 18.0838 15.435 17.8298 15.6622C17.6961 15.7825 17.5358 15.885 17.3531 15.9607C17.1704 16.0409 16.9967 16.0765 16.8229 16.0765C16.6491 16.0765 16.4932 16.0364 16.3194 15.9607C16.0076 15.7379 15.7625 15.5241 15.5932 15.3191C15.366 15.0429 15.2323 14.7578 15.1967 14.4726C15.1967 13.9825 15.2368 13.6083 15.3125 13.3499C15.4328 12.9489 15.669 12.6771 16.0165 12.5256C16.1947 12.4187 16.413 12.3251 16.667 12.2405C16.9209 12.1558 17.1704 12.0801 17.4066 11.9999C17.4199 12.0935 17.4377 12.187 17.46 12.285C17.4823 12.3831 17.5313 12.4499 17.6115 12.4944C17.656 12.4677 17.6739 12.4053 17.6739 12.3118V12.1826C17.6739 12.1247 17.6828 12.0756 17.7051 12.0311C17.812 11.9955 17.9189 11.9554 18.0258 11.9153C18.2486 11.8351 18.4268 11.7994 18.5694 11.7994C18.6852 11.7994 18.7788 11.8306 18.859 11.8974H18.8634ZM8.27757 14.829C8.45578 14.6286 8.58053 14.4102 8.65627 14.1652C8.73201 13.9246 8.76765 13.6573 8.76765 13.3632C8.76765 13.0335 8.7231 12.7038 8.63399 12.3742C8.54489 12.0445 8.42459 11.6969 8.27757 11.3316C8.23301 11.5455 8.17064 11.7905 8.08599 12.0712C7.89441 12.7261 7.77857 13.1405 7.73847 13.3053C7.69837 13.4746 7.67164 13.6038 7.65828 13.6974C7.62263 13.8979 7.60481 14.1028 7.60481 14.3167C7.60481 14.6954 7.6761 15.0518 7.81867 15.386C7.88995 15.3236 7.97015 15.23 8.06371 15.1097C8.18401 14.9449 8.25529 14.8513 8.27757 14.8335V14.829Z" fill="white"/>
</svg>
