<svg width="24" height="24" viewBox="0 0 24 24" fill="none" xmlns="http://www.w3.org/2000/svg">
<path fill-rule="evenodd" clip-rule="evenodd" d="M21.0378 9.75417C20.8979 10.0472 20.7186 10.3183 20.5043 10.5633C20.2943 10.467 20.1413 10.3927 20.0407 10.3446C19.8526 10.2484 19.7783 10.1259 19.822 9.98596L20.3468 9.31244C20.4868 9.3693 20.6136 9.43053 20.7229 9.5005C20.8367 9.57048 20.9416 9.65358 21.0378 9.75417ZM17.9195 9.80665C17.7883 9.95535 17.6265 10.0866 17.4384 10.2046C17.2985 10.2877 17.1104 10.3796 16.8699 10.4758C16.5987 10.5676 16.3932 10.6376 16.262 10.6857C16.0389 10.7644 15.8377 10.8475 15.6628 10.9394C15.7765 10.7732 15.9252 10.6332 16.1133 10.5195C16.262 10.4364 16.4588 10.349 16.7124 10.2571C16.9836 10.174 17.1892 10.1084 17.3204 10.0691C17.5565 9.99034 17.7577 9.90287 17.9195 9.80665ZM21.8119 12.8812C21.9388 12.6363 22 12.3564 22 12.0415C22 11.8578 21.9738 11.6829 21.9257 11.5123C21.8775 11.3417 21.8032 11.193 21.707 11.0662C21.5933 11.0225 21.5102 11.005 21.4533 11.005C21.3615 11.005 21.2827 11.04 21.2128 11.11C21.1865 11.193 21.0728 11.3811 20.876 11.6785C20.7142 11.9234 20.6355 12.1202 20.6355 12.2646C20.6355 12.4264 20.7054 12.5707 20.8454 12.7063C20.9023 12.7631 20.9722 12.7894 21.0553 12.7894C21.134 12.7894 21.204 12.7719 21.2653 12.7325C21.3265 12.6932 21.3833 12.645 21.4314 12.5794C21.4664 12.6276 21.4839 12.6844 21.4883 12.7544C21.4883 12.82 21.4927 12.8856 21.4927 12.9468C20.9591 13.4454 20.3949 13.8784 19.7958 14.2501C19.1966 14.6219 18.5843 14.9236 17.9545 15.1511C17.4734 15.326 16.9836 15.4572 16.485 15.5491C15.9864 15.6409 15.4791 15.6846 14.963 15.6846C14.5519 15.6846 14.1583 15.6584 13.7866 15.6103C13.0387 15.4966 12.4964 15.1904 12.1596 14.6875C11.8885 14.2764 11.7485 13.7078 11.7485 12.9862C11.7485 12.9643 11.7573 12.6888 11.7704 12.164C11.7835 11.6348 11.7923 11.2587 11.7923 11.0356C11.7923 10.6857 11.7748 10.3446 11.7354 10.0078C11.696 9.67107 11.6348 9.38679 11.5517 9.15937C11.4555 9.25559 11.3724 9.39992 11.3112 9.58798C11.3024 9.6011 11.2587 9.77166 11.1756 10.0909C11.2806 10.572 11.3418 11.2849 11.3637 12.2208C11.3855 13.1567 11.3986 13.6859 11.4074 13.804C11.4642 14.495 11.5911 15.0767 11.7966 15.5447C12.1246 15.9558 12.5489 16.2663 13.0649 16.4675C13.5329 16.6512 14.0709 16.7386 14.67 16.7386C15.0418 16.7386 15.431 16.6993 15.8334 16.6249C16.415 16.52 16.9967 16.3625 17.5828 16.1526C18.1688 15.9427 18.7155 15.689 19.2272 15.396C19.7739 15.0811 20.2593 14.7225 20.688 14.3157C21.1515 13.874 21.5233 13.3973 21.8119 12.8768V12.8812ZM10.3184 10.5108C10.2572 11.1624 10.0297 11.766 9.64487 12.3214C9.23814 12.9075 8.73519 13.3054 8.13164 13.511C7.96545 13.6072 7.75989 13.6947 7.52373 13.7734C7.28756 13.8521 7.04702 13.9309 6.80647 14.0096C6.56593 14.0883 6.36912 14.1758 6.21168 14.2676C6.00175 14.3857 5.83118 14.5344 5.69561 14.7093C5.50754 15.3041 5.37634 15.6715 5.30636 15.8115C5.10956 16.2094 4.8384 16.4894 4.48852 16.6424C4.26984 16.7037 4.01618 16.7518 3.72316 16.7824C3.43013 16.813 3.14148 16.8305 2.86158 16.8305H2C2.54669 16.6774 2.98841 16.5331 3.3208 16.3975C3.57883 16.2925 3.83687 16.1613 4.09928 16.0083C4.45791 15.7983 4.7553 15.5534 4.99585 15.2823C5.23639 15.0067 5.42007 14.6787 5.54691 14.3026C5.62563 14.0489 5.69561 13.8609 5.76558 13.734C5.87929 13.5285 6.02799 13.3754 6.21605 13.2705C6.57905 13.1786 6.81085 13.1043 6.90706 13.0474C7.13886 12.9206 7.25257 12.7281 7.25257 12.4657V12.3302C7.3138 11.6785 7.37503 11.0225 7.44063 10.3665V10.1128C7.44063 9.77166 7.42751 9.46552 7.40564 9.20311C7.38377 8.9407 7.33129 8.68704 7.25257 8.44212C7.15635 8.66954 7.06014 9.05441 6.96829 9.59672C6.81522 10.5501 6.6709 11.075 6.53969 11.1712C6.72338 9.97284 6.82834 9.29058 6.86333 9.12438C7.01203 8.37652 7.20446 7.72487 7.44938 7.16943C7.58058 7.40123 7.6768 7.65926 7.73803 7.94354C7.79926 8.22782 7.82987 8.5121 7.82987 8.80075C7.82987 8.99755 7.82112 9.15937 7.808 9.29058C7.79488 9.42178 7.71616 9.93786 7.57621 10.8519C7.51935 11.2149 7.49311 11.4948 7.49311 11.6916C7.6768 11.2368 7.99169 10.8869 8.43779 10.6464C8.88388 10.4058 9.37372 10.2834 9.90728 10.2834C10.0122 10.2834 10.0953 10.3009 10.1609 10.3315C10.2265 10.3621 10.2747 10.4233 10.3096 10.5152L10.3184 10.5108ZM9.9204 15.466C9.7717 15.5578 9.58364 15.6453 9.35185 15.7284C9.22064 15.7721 9.01946 15.8377 8.75268 15.9295C8.534 15.9995 8.34157 16.087 8.16663 16.1963C7.99169 16.3057 7.85174 16.4412 7.74677 16.5987C7.91297 16.5068 8.1054 16.4238 8.31533 16.345C8.44216 16.3013 8.63897 16.2357 8.9145 16.1438C9.15067 16.0476 9.33873 15.9558 9.46993 15.8727C9.65799 15.7546 9.81107 15.619 9.9204 15.4616V15.466ZM9.79357 11.3942C9.68861 11.3374 9.5574 11.3111 9.40433 11.3111C9.32123 11.3111 9.24688 11.3111 9.17691 11.3199C9.11131 11.3286 8.99322 11.3505 8.82703 11.3942C8.4859 11.473 8.17538 11.6435 7.90422 11.9103C7.63306 12.1771 7.47124 12.4789 7.42314 12.8244C8.3197 12.4482 8.84452 12.2077 8.99759 12.1115C9.30374 11.9234 9.57052 11.6829 9.79357 11.3986V11.3942Z" fill="white"/>
</svg>
