<svg width="24" height="24" viewBox="0 0 24 24" fill="none" xmlns="http://www.w3.org/2000/svg">
<path fill-rule="evenodd" clip-rule="evenodd" d="M16.4586 7.54841C16.4173 7.65841 16.3554 7.74779 16.2798 7.83029C16.2042 7.9128 16.1148 7.98155 16.0117 8.0503C15.6748 8.24281 15.3379 8.42844 15.001 8.6072C15.0354 8.53157 15.0698 8.46969 15.1042 8.41469C15.1385 8.35969 15.1935 8.30469 15.2623 8.24281C15.6611 8.01593 16.0598 7.78217 16.4586 7.55529V7.54841ZM21.9862 11.3091C21.9862 10.7179 21.9037 10.1541 21.7387 9.6041C21.5737 9.05408 21.3262 8.58657 20.9962 8.18781C20.8106 8.75157 20.7212 9.33596 20.7212 9.95473V10.8554C20.7212 11.2954 20.7281 11.6873 20.7487 12.0379C20.7625 12.3886 20.7968 12.7117 20.845 13.0073C20.9 12.8079 20.9343 12.6292 20.9481 12.4573C20.9618 12.2854 20.9756 12.0654 20.9756 11.8042C20.9756 11.6598 20.9756 11.4535 20.9687 11.1785C20.9687 10.9035 20.9618 10.6973 20.9618 10.5598C20.9618 10.4016 20.9618 10.216 20.9825 9.99599C20.9962 9.77598 21.0168 9.6041 21.0443 9.47347C21.2919 9.81723 21.4706 10.2091 21.5737 10.6423C21.6769 11.0754 21.725 11.5567 21.725 12.0929C21.6012 12.973 21.2093 13.7361 20.5493 14.3824C20.0199 14.9049 19.298 15.3655 18.3699 15.7712C17.8267 16.0049 17.0361 16.2868 15.9842 16.6099C16.1836 16.5481 16.8573 16.4106 17.9986 16.1974C18.8374 16.0324 19.4905 15.8399 19.9581 15.6062C20.5975 15.2899 21.0856 14.8224 21.4087 14.2105C21.8006 13.3305 22 12.3679 22 11.3229L21.9862 11.3091ZM17.4624 7.32153H17.3799C17.3799 8.21531 17.0086 9.10221 16.2729 9.98911C15.6817 10.6973 14.9117 11.3504 13.9629 11.9486C14.6366 11.7354 15.2348 11.426 15.7504 11.0341C16.3348 10.5941 16.7611 10.0785 17.0292 9.48035C16.9605 9.83099 16.9261 10.1885 16.9261 10.5529C16.9261 10.7798 16.9398 10.9723 16.9673 11.1304C16.9673 10.7866 17.0223 10.3604 17.1323 9.85161C17.3661 8.7447 17.4899 8.0228 17.4899 7.69279C17.4899 7.62404 17.4899 7.55529 17.483 7.49341C17.483 7.42466 17.4692 7.36966 17.4692 7.32153H17.4624ZM18.9543 12.5123C19.1674 11.921 19.2774 11.2954 19.2774 10.6285C19.2774 10.0372 19.1812 9.48034 18.9955 8.9372C18.803 8.40094 18.528 7.95405 18.1636 7.59654C17.9986 8.38719 17.923 9.21222 17.923 10.0716C17.923 10.5941 17.9574 11.0891 18.033 11.5704C18.1155 11.1923 18.1774 10.766 18.2186 10.2847C18.2599 9.81036 18.2805 9.34285 18.2805 8.88908C18.4936 9.19847 18.6724 9.54222 18.803 9.91348C18.9337 10.2847 19.0024 10.6629 19.0024 11.041C19.0024 11.2473 18.9818 11.4467 18.9405 11.6529C18.7549 12.3542 18.3355 13.0211 17.6617 13.6398C17.0498 14.2036 16.3829 14.6161 15.6542 14.8774C15.8192 14.5818 15.9223 14.2105 15.9773 13.7705C16.0117 13.4886 16.0254 13.083 16.0254 12.5604C15.9842 12.3679 15.8879 12.2029 15.7298 12.0517C15.5717 11.9004 15.4067 11.811 15.221 11.7835C14.891 11.7835 14.6366 11.9554 14.4716 12.2923C14.3616 12.5879 14.2585 12.8905 14.1554 13.1861C13.8597 11.7079 13.5572 10.2229 13.2616 8.73783C13.1928 8.82033 13.1378 8.9372 13.0966 9.09533C13.0691 9.23971 13.0416 9.37722 13.0141 9.5216L13.8254 13.8324C13.8735 13.963 13.9491 14.1761 14.0454 14.4718C14.2104 14.8911 14.4304 15.1799 14.7123 15.3449C14.7879 15.3655 14.8567 15.3724 14.9117 15.3724C15.0354 15.3724 15.1385 15.3587 15.2348 15.3243C15.331 15.2899 15.441 15.2349 15.5579 15.1593C16.3417 14.9736 17.0223 14.6849 17.593 14.2861C18.2874 13.798 18.7343 13.2136 18.9337 12.5192L18.9543 12.5123ZM11.5909 8.77908C11.5222 8.97846 11.474 9.12284 11.4397 9.21222C11.3709 9.3841 11.2953 9.51472 11.2059 9.61785C11.1647 9.55598 11.0478 9.50097 10.8553 9.45284C10.6628 9.40472 10.5803 9.31535 10.6078 9.19159C10.649 9.06784 10.6971 8.94408 10.7453 8.81345C10.7934 8.68282 10.869 8.57969 10.9653 8.51094C11.144 8.55219 11.2472 8.57969 11.2884 8.59344C11.4053 8.63469 11.5015 8.69657 11.5909 8.77908ZM9.989 9.7416L9.84462 9.91348L9.61086 9.72786C9.44586 9.98224 9.2121 10.2229 8.90959 10.4497C8.70333 10.601 8.42833 10.7729 8.07081 10.9654C8.13269 10.8966 8.3802 10.7041 8.81334 10.3741C9.13647 10.1335 9.36335 9.89974 9.48023 9.67286C9.45273 9.63848 9.38398 9.59723 9.28085 9.55598C9.17772 9.51473 9.10897 9.45972 9.0746 9.39784C9.0746 9.30159 9.08147 9.21909 9.12272 9.14346C9.16397 9.06783 9.22585 8.99908 9.30835 8.93033C9.40461 8.87533 9.45961 8.84095 9.48023 8.8272C9.56961 8.77907 9.63836 8.75845 9.68649 8.75845C9.74837 8.75845 9.79649 8.79282 9.83775 8.86157C9.81024 8.97158 9.79649 9.06783 9.79649 9.16409C9.79649 9.27409 9.81024 9.37035 9.84462 9.45973C9.85837 9.4941 9.9065 9.58348 9.989 9.73473V9.7416ZM12.9728 14.8705C12.9178 14.9393 12.8491 15.0149 12.7528 15.0905C12.6635 15.173 12.5741 15.2487 12.4847 15.3105C12.3128 15.4549 12.1272 15.5787 11.9141 15.6955C11.7009 15.8124 11.474 15.9087 11.2403 15.9981C11.364 15.833 11.5222 15.6887 11.7147 15.5649C11.8316 15.4824 12.0928 15.338 12.5053 15.1318C12.6978 15.0355 12.8491 14.9461 12.9728 14.8705ZM12.4572 11.1923C12.3197 10.8691 12.2166 10.6491 12.1409 10.546C11.9828 10.326 11.7903 10.2022 11.5634 10.1816C11.3503 10.3672 11.2128 10.5873 11.1372 10.8485C11.0615 11.1098 11.0272 11.4054 11.0272 11.7354C11.0409 11.8317 11.0822 11.9004 11.1509 11.9417C11.2197 11.9829 11.3022 12.0104 11.4053 12.0104C11.474 12.0104 11.5359 12.0036 11.5978 11.9829C11.6941 11.9692 11.7697 11.9142 11.8316 11.811C11.8659 11.756 11.8934 11.6667 11.9209 11.5498C11.9759 11.5979 12.0241 11.6804 12.0653 11.7904C12.1066 11.9073 12.1409 11.9829 12.1684 12.0104C12.0859 12.1273 11.6941 12.4229 10.9928 12.8905C10.4909 13.2273 10.2434 13.6398 10.2434 14.1142C10.1059 14.623 9.83087 15.0561 9.40461 15.4137C9.08147 15.6818 8.64146 15.9362 8.08457 16.1631C7.61705 16.3349 7.14954 16.5068 6.68202 16.6787C7.05328 16.6375 7.63768 16.5687 8.4352 16.4793C9.1021 16.3418 9.62461 16.0874 9.99587 15.7093C10.1609 15.2624 10.319 14.8224 10.484 14.3824C10.704 13.8667 11.0478 13.5573 11.5084 13.4405C11.9141 13.2686 12.1891 12.9523 12.3266 12.4848C12.416 12.1961 12.4572 11.7629 12.4572 11.1992V11.1923ZM8.2977 13.0073C8.2977 13.5642 8.15332 14.1005 7.86456 14.6161C7.5758 15.1387 7.18391 15.5855 6.69577 15.9568C6.29701 16.1356 5.71949 16.2868 4.96322 16.4106C4.33757 16.5137 3.98006 16.5756 3.89756 16.5962C4.90134 16.2593 5.75387 15.8262 6.44139 15.3105C7.34204 14.6368 7.88518 13.853 8.07081 12.9661C8.01581 12.9661 7.91956 13.0073 7.78893 13.0623C7.65143 13.1173 7.55517 13.1517 7.48642 13.1517C7.42454 13.1517 7.35579 13.1311 7.28016 13.0898C7.12203 12.9386 7.04641 12.753 7.04641 12.5192C7.04641 12.3542 7.08078 12.1754 7.14954 11.9692C7.21829 11.7629 7.28016 11.5704 7.34204 11.3848C7.41767 11.2679 7.51392 11.2129 7.62393 11.2129C7.72018 11.2129 7.81643 11.2541 7.92643 11.3435C8.02956 11.4329 8.11894 11.536 8.18769 11.646C8.23582 11.8317 8.26332 12.0448 8.27707 12.2923C8.29082 12.5398 8.2977 12.7805 8.2977 13.0005V13.0073ZM5.56136 14.0042C5.67824 13.5917 5.74699 13.3098 5.78137 13.1655C5.857 12.8355 5.89137 12.5398 5.89137 12.2717C5.89137 11.9829 5.84324 11.7217 5.74699 11.4879C5.65074 11.261 5.49261 11.0616 5.2726 10.9035C5.0526 10.7454 4.78446 10.6629 4.47508 10.6629C4.22757 10.6629 4.01444 10.7248 3.83568 10.8485C3.5813 10.9791 3.40254 11.1854 3.30629 11.4742C3.24441 11.6667 3.21691 11.9348 3.21691 12.2923C3.28567 12.2511 3.38879 12.1548 3.5263 11.9967C3.6638 11.8385 3.78756 11.7354 3.90443 11.6942C4.01444 11.6529 4.14507 11.6254 4.29632 11.6254C4.47508 11.6254 4.65383 11.6598 4.84634 11.7285C5.01134 11.8042 5.14885 11.9142 5.25885 12.0586C5.37573 12.2029 5.46511 12.3611 5.52011 12.5398C5.56136 12.6429 5.58199 12.7461 5.58199 12.8561C5.58199 12.9936 5.56136 13.1242 5.51323 13.248C5.46511 13.3717 5.39636 13.5092 5.31385 13.6605C5.09385 13.9561 4.88071 14.183 4.68821 14.3411C4.42008 14.5543 4.14507 14.6643 3.87006 14.6643C3.76005 14.6643 3.65693 14.6505 3.5538 14.623C3.20316 14.513 2.92128 14.2861 2.71502 13.9424C2.53627 13.6536 2.42626 13.3098 2.37126 12.9111C2.37126 12.8905 2.75627 12.0654 3.4988 10.436C3.75318 9.87224 3.88381 9.35659 3.88381 8.87533C3.88381 8.7997 3.82193 8.7722 3.7188 8.78595C3.59505 9.43909 3.43692 10.0647 3.23066 10.6491C2.8594 11.1166 2.57752 11.5498 2.37814 11.9554C2.13063 12.4711 2 12.9592 2 13.4267C2 13.6605 2.0275 13.8874 2.08938 14.0936C2.14438 14.2999 2.24063 14.5061 2.37126 14.7055C2.53627 14.9874 2.74252 15.2211 3.00378 15.393C3.26504 15.5718 3.54692 15.6543 3.84943 15.6543C4.22757 15.6199 4.59196 15.4274 4.93572 15.063C5.23823 14.7468 5.45136 14.3892 5.56136 13.9974V14.0042ZM4.66071 12.6773C4.59883 12.5811 4.48195 12.5054 4.31695 12.4573C4.14507 12.4023 4.04194 12.3611 3.99381 12.3267L3.61568 13.0486C3.60193 13.0898 3.59505 13.1173 3.59505 13.138C3.59505 13.2273 3.71193 13.303 3.95256 13.3717C4.08319 13.413 4.16569 13.4542 4.20694 13.5023C4.34445 13.468 4.44758 13.3098 4.53008 13.0348C4.58508 12.8423 4.62633 12.7254 4.66071 12.6773ZM15.7642 13.7636C15.7023 13.8805 15.6267 13.9836 15.5442 14.0867C15.4548 14.1899 15.3517 14.2724 15.2417 14.3274C15.1592 14.3549 15.1042 14.3686 15.0767 14.3686C14.9942 14.3686 14.9185 14.348 14.8429 14.3067C14.7673 14.2655 14.6848 14.2105 14.6023 14.1349C14.4579 13.9217 14.3891 13.798 14.3823 13.7774C14.3479 13.7017 14.3341 13.6261 14.3341 13.5436C14.3341 13.4611 14.3479 13.3923 14.3823 13.3305C14.4854 13.138 14.5541 13.028 14.5885 12.9867C14.6848 12.8698 14.7673 12.8079 14.8429 12.7942C14.9185 12.7804 14.9735 12.7736 15.0148 12.7736C15.2279 12.7736 15.4067 12.8767 15.551 13.0898C15.6335 13.1861 15.6886 13.2755 15.7298 13.358C15.7642 13.4405 15.7848 13.5367 15.7848 13.6398C15.7848 13.6948 15.7848 13.7361 15.7779 13.7636H15.7642ZM9.59024 9.32221V9.25347C9.61086 9.19847 9.61086 9.15721 9.59711 9.12971C9.58336 9.10221 9.56274 9.08846 9.52836 9.08846C9.50086 9.08846 9.46648 9.09534 9.42523 9.11596C9.38398 9.13659 9.36335 9.16409 9.35648 9.19846C9.43211 9.23972 9.50773 9.28096 9.59024 9.32221Z" fill="white"/>
</svg>
