<svg width="24" height="24" viewBox="0 0 24 24" fill="none" xmlns="http://www.w3.org/2000/svg">
<path fill-rule="evenodd" clip-rule="evenodd" d="M21.4448 11.5668C21.4448 13.3916 21.1237 15.1656 20.4901 16.8806C20.1776 17.6071 19.7383 18.2576 19.1723 18.8236C18.5471 19.4487 17.922 19.8204 17.2968 19.9556C16.6717 20.0908 15.8522 20.1753 14.8469 20.2006C13.8416 20.2259 13.1236 20.2682 12.7096 20.3189C13.6558 20.0992 14.5259 19.8373 15.3285 19.5248C16.2577 19.1615 17.1025 18.7222 17.8628 18.2069C18.6992 17.624 19.375 16.9988 19.8903 16.323C20.4732 15.5627 20.8618 14.7179 21.0646 13.7717C21.0646 12.8678 20.9379 11.9977 20.676 11.1698C20.4226 10.3419 20.0508 9.54779 19.5609 8.78748C19.4257 9.37884 19.3412 10.2997 19.3159 11.5415C19.2905 12.7833 19.223 13.6873 19.1131 14.2364C19.0624 13.9492 19.0202 13.6028 18.9949 13.1888C18.9695 12.7749 18.9526 12.3694 18.9526 11.9639C18.9526 11.3303 18.9864 10.6714 19.0455 9.99553C19.1047 9.3197 19.1469 8.79593 19.1807 8.43267L19.5693 6.69241C20.2029 7.35134 20.676 8.1032 20.9886 8.9311C21.3011 9.75899 21.4532 10.6376 21.4532 11.5584L21.4448 11.5668ZM11.02 7.55409C10.9102 7.9089 10.6906 8.19613 10.3527 8.41578C10.1077 8.57629 9.7613 8.7199 9.29667 8.85507C9.34736 8.7199 9.49097 8.58473 9.71062 8.44957C9.93026 8.3144 10.1499 8.17924 10.3696 8.04407C10.2766 8.04407 10.133 8.03562 9.95561 8.01028C9.76975 7.99338 9.67683 7.97649 9.65993 7.97649C9.43184 7.97649 9.26288 8.04407 9.15306 8.17924C9.23754 7.97649 9.33891 7.80753 9.47408 7.67236C9.60924 7.5372 9.76975 7.46116 9.96405 7.45272H10.5554C10.7413 7.45272 10.9018 7.48651 11.02 7.55409ZM17.6094 15.1741C17.432 15.3093 17.2039 15.4444 16.9167 15.5711C16.6294 15.6979 16.3253 15.833 15.9874 15.9682C15.565 16.1541 15.2693 16.3484 15.0919 16.5342C14.9737 16.6863 14.8723 16.8637 14.8047 17.0833C14.9821 16.9228 15.4974 16.644 16.3676 16.2554C17.0181 15.9598 17.432 15.5965 17.601 15.1825L17.6094 15.1741ZM16.5112 8.28061C16.3084 8.18768 16.0634 8.137 15.7847 8.137C14.7709 8.40733 13.7656 8.66921 12.7603 8.9311C13.3855 8.47491 13.9092 8.05252 14.3401 7.67236C15.3792 6.75154 15.9874 5.83917 16.1648 4.93524C16.1648 4.39458 16.1141 3.87925 16.0128 3.38083C15.9114 2.89085 15.7593 2.43466 15.5566 2.02916C15.4214 1.96158 15.3369 2.01227 15.3116 2.17278C14.8638 2.57828 14.4921 3.11894 14.188 3.79478C13.8839 4.47061 13.6642 5.18868 13.5291 5.94054C13.6896 5.75469 13.8923 5.39988 14.1289 4.87611C14.3654 4.35234 14.5766 3.99752 14.7709 3.79478C15.0666 4.26786 15.2186 4.82542 15.2186 5.45901C15.2186 5.63642 15.2186 5.77158 15.2018 5.86451C14.7456 6.17708 14.3063 6.515 13.8839 6.87826C13.3939 7.30065 12.9884 7.69771 12.6505 8.07786C12.2281 8.56784 11.9155 9.00713 11.6959 9.41263C11.4424 9.91106 11.3073 10.3841 11.3073 10.8319C11.831 10.4771 12.4139 10.2152 13.0475 10.0378C13.6811 9.86037 14.3147 9.77589 14.9568 9.77589C14.2978 10.1645 13.6389 10.5531 12.9884 10.9333C12.1943 11.4063 11.5523 11.8625 11.0792 12.2934C10.6483 12.6566 10.2935 13.0537 10.0232 13.493C9.75286 13.9238 9.57545 14.4053 9.49942 14.9291C10.1584 14.7939 10.8342 14.6588 11.51 14.5236C11.9155 14.4391 12.3041 14.4053 12.6843 14.4053C12.9969 14.4053 13.3094 14.4476 13.6135 14.5236C11.7381 15.3768 9.86268 16.2301 7.99569 17.0749C7.67467 17.7254 7.37055 18.2407 7.08332 18.6377C6.69472 19.1615 6.26387 19.5755 5.79924 19.8627C5.33461 20.1499 4.78549 20.4202 4.1688 20.6652C3.67882 20.8511 3.13815 21.0369 2.5468 21.2143C2.7242 21.265 2.89316 21.2988 3.05367 21.3157C3.21418 21.3326 3.40848 21.3326 3.64503 21.3326C4.03363 21.3326 4.41378 21.3157 4.76015 21.2735C5.30081 21.2735 5.74855 21.1552 6.10336 20.9271C6.3737 20.7497 6.63558 20.4709 6.88057 20.0992C6.94815 20.0063 7.14246 19.6853 7.47192 19.1446C7.70002 18.7645 7.92811 18.4857 8.13931 18.2914C8.37585 18.1984 8.71377 18.0717 9.1784 17.9028C10.057 17.5902 10.6568 17.3706 10.9694 17.2354C11.4847 17.0326 11.9493 16.813 12.3548 16.568C12.8279 16.2808 13.2249 15.9851 13.5544 15.6725L14.8131 13.2226C14.6357 13.0621 14.4668 12.9523 14.2978 12.9101C14.1373 12.8594 13.9177 12.8425 13.6389 12.8425C13.3601 12.8425 12.9462 12.8932 12.3886 13.003C11.831 13.1128 11.434 13.1635 11.1974 13.1635C11.8479 12.7749 12.4984 12.3694 13.1405 11.9639C13.5882 11.6936 13.9768 11.4317 14.3147 11.1698C14.8554 10.7812 15.3031 10.3588 15.6495 9.91105C16.055 9.39573 16.3422 8.84662 16.5027 8.27216L16.5112 8.28061ZM11.6029 20.6061C11.5523 20.6568 11.3833 20.944 11.0961 21.4762C10.9778 21.7043 10.8426 21.8817 10.7075 22C10.5047 21.9578 10.2851 21.8817 10.057 21.7635C9.82889 21.6452 9.60924 21.5354 9.40649 21.434C9.40649 21.189 9.55856 20.8764 9.85423 20.5047C10.0063 20.3104 10.1499 20.133 10.302 19.9556C10.8257 20.1415 11.113 20.2428 11.1552 20.2597C11.3073 20.3358 11.4509 20.454 11.6029 20.6061Z" fill="white"/>
</svg>
