<svg width="24" height="24" viewBox="0 0 24 24" fill="none" xmlns="http://www.w3.org/2000/svg">
<path fill-rule="evenodd" clip-rule="evenodd" d="M18.3342 6.86694C18.1104 7.55831 17.9463 8.05072 17.8319 8.33423C17.6478 8.82167 17.429 9.29917 17.1753 9.76671C17.1604 9.73687 17.1505 9.68216 17.1505 9.61252C17.1505 9.49315 17.2101 9.32404 17.3345 9.10021C17.4588 8.87639 17.5185 8.71225 17.5185 8.61277C17.0261 9.08031 16.3944 9.44839 15.6185 9.71201C15.2305 9.8463 14.5143 10.0303 13.4698 10.2591C14.0119 10.0851 14.4795 9.91095 14.8774 9.74681C15.3947 9.53294 15.8523 9.29917 16.2502 9.05545C16.7028 8.78686 17.1007 8.47351 17.4439 8.12534C17.817 7.74235 18.1104 7.32453 18.3293 6.87191L18.3342 6.86694ZM22 12.3482C22 11.8955 21.9154 11.4429 21.7414 10.9953C21.5722 10.5476 21.3434 10.1398 21.0649 9.77169C20.8411 10.6371 20.7317 11.5424 20.7317 12.4825C20.7317 13.0495 20.7715 13.5668 20.851 14.0443C20.9406 13.0196 21.0251 11.99 21.1146 10.9654C21.3385 11.3534 21.5026 11.7364 21.612 12.1094C21.7215 12.4825 21.7712 12.8953 21.7712 13.338C21.7712 13.8851 21.6021 14.3924 21.2589 14.855C20.9903 15.2131 20.5924 15.5613 20.0751 15.9045C19.7419 16.1134 19.3589 16.3024 18.9212 16.4815C18.4884 16.6605 17.8866 16.8545 17.1107 17.0584H17.623C18.389 16.8993 19.1549 16.7451 19.9259 16.5909C20.8013 16.3621 21.3484 15.8647 21.5623 15.0987C21.7364 14.6909 21.8508 14.278 21.9105 13.8552C21.9652 13.4325 21.995 12.9301 21.995 12.3382L22 12.3482ZM16.5586 11.3434C16.5287 11.4777 16.479 11.612 16.4143 11.7364C16.3497 11.8657 16.2701 11.995 16.1756 12.1293C15.9915 12.0497 15.8572 11.9851 15.7677 11.9403C15.6086 11.8458 15.5489 11.7314 15.5887 11.5921C15.6583 11.423 15.718 11.3036 15.7677 11.2241C15.8175 11.1445 15.8771 11.0848 15.9468 11.045C16.0562 11.0351 16.1706 11.0699 16.28 11.1395C16.3696 11.2091 16.4591 11.2788 16.5536 11.3434H16.5586ZM18.6128 16.0836C18.4785 16.193 18.3392 16.2925 18.2 16.372C18.0607 16.4516 17.9115 16.5163 17.7573 16.561C17.6031 16.6058 17.4439 16.6307 17.2848 16.6307C17.1107 16.6307 16.9515 16.6008 16.8073 16.5461C16.7675 16.4417 16.7874 16.3422 16.8719 16.2427C16.9565 16.1432 17.0361 16.0438 17.1156 15.9493C17.046 15.8995 16.9913 15.8647 16.9615 15.8349C16.9316 15.805 16.9067 15.7752 16.8918 15.7354C16.8918 15.6309 16.9316 15.5315 17.0162 15.432C17.1007 15.3325 17.1952 15.2579 17.3096 15.2131C17.4539 15.2131 17.5335 15.2479 17.5484 15.3226C17.5484 15.3773 17.5136 15.4369 17.4389 15.5016C17.4091 15.5314 17.3743 15.5613 17.3444 15.5862C17.3146 15.5563 17.2798 15.5215 17.2499 15.4917C17.2101 15.5016 17.1753 15.5066 17.1405 15.5165C17.2052 15.626 17.3047 15.6856 17.4389 15.6856C17.5185 15.6856 17.6379 15.6558 17.7971 15.5911C17.7722 15.7006 17.7026 15.7951 17.5832 15.8647C17.2251 16.0736 17.0361 16.193 17.0112 16.2228C17.1455 16.3273 17.3146 16.377 17.5136 16.377C17.6727 16.377 17.9015 16.3273 18.2049 16.2228C18.4188 16.1532 18.5531 16.1084 18.6128 16.0935V16.0836ZM19.7568 11.2141C19.7568 10.7665 19.6871 10.3288 19.5528 9.89604C19.4186 9.46331 19.2246 9.08032 18.9809 8.75701C18.8714 9.11513 18.7968 9.49813 18.762 9.91096C18.7272 10.3238 18.7073 10.7814 18.7073 11.2887C18.7073 11.4578 18.7073 11.622 18.7123 11.7911C18.7123 11.9602 18.7172 12.1194 18.7172 12.2785C18.8117 12.0696 18.8764 11.801 18.9062 11.4678C18.9858 10.5277 19.0356 10.0303 19.0505 9.97562C19.1947 10.3188 19.2992 10.6023 19.3738 10.8361C19.4782 11.1843 19.528 11.5026 19.528 11.7811C19.528 11.995 19.4981 12.194 19.4384 12.378C19.3788 12.562 19.2793 12.7262 19.145 12.8654C18.9759 13.0793 18.7918 13.2534 18.5879 13.3778C18.384 13.5071 18.1701 13.5668 17.9513 13.5668C17.9513 13.4623 17.9811 13.3231 18.0458 13.149C18.1552 12.8406 18.2099 12.6167 18.2 12.4825C18.1054 12.3531 17.9612 12.2935 17.7722 12.2935C17.7175 12.2935 17.623 12.3034 17.4986 12.3183C17.2997 12.3183 17.1554 12.4078 17.0709 12.5919C17.0211 12.6963 16.9615 12.8605 16.8918 13.0942C16.8669 13.144 16.857 13.1838 16.857 13.2236C16.857 13.3032 16.9416 13.3728 17.1156 13.4325C17.2848 13.4922 17.3942 13.5668 17.434 13.6513C17.0361 14.1537 16.5486 14.4571 15.9766 14.5715C15.9766 14.4919 15.9915 14.3825 16.0264 14.2482C16.0562 14.1139 16.0761 14.0045 16.0761 13.9249V13.8652C16.0761 13.8652 16.0761 13.8155 16.0662 13.7956C16.0015 13.8254 15.9468 13.905 15.8921 14.0343C15.8423 14.1636 15.7976 14.2432 15.7677 14.283C15.6185 14.467 15.4096 14.5566 15.146 14.5566C15.0415 14.5566 14.9669 14.5466 14.9172 14.5317C14.6635 14.283 14.4944 14.0144 14.4098 13.721C14.3253 13.4275 14.2855 13.0644 14.2855 12.6367C14.2855 12.6267 14.2954 12.4228 14.3104 12.0199C14.3253 11.617 14.3352 11.3285 14.3352 11.1544C14.3352 10.9654 14.3352 10.8013 14.3253 10.667C14.3153 10.5327 14.2955 10.3885 14.2656 10.2392C14.0965 10.3835 13.9821 10.5675 13.9174 10.8013C13.8926 10.9356 13.8826 11.0699 13.8826 11.2091C13.8826 11.239 13.9125 11.5324 13.9672 12.0796C13.9821 12.2387 13.992 12.4128 13.992 12.6068C13.992 12.6963 13.9821 12.8107 13.9672 12.955C13.7831 13.1639 13.5941 13.333 13.4001 13.4673C13.2062 13.6016 12.9973 13.6961 12.7734 13.7409C12.7983 13.6464 12.8232 13.5469 12.858 13.4474C12.8878 13.3479 12.8978 13.2683 12.8829 13.2037C12.7336 13.4325 12.5496 13.6364 12.3357 13.8055C12.1219 13.9746 11.898 14.094 11.6692 14.1587C11.5996 14.0642 11.53 13.9696 11.4653 13.8702C11.3758 13.7508 11.2862 13.6812 11.1917 13.6563C11.1022 13.6265 11.0177 13.6314 10.9331 13.6762C10.8485 13.721 10.7839 13.7856 10.7341 13.8751C10.7242 13.905 10.6645 14.0492 10.5551 14.3029C10.4855 14.472 10.4457 14.6113 10.4457 14.7207C10.4457 14.8252 10.4805 14.9296 10.5551 15.044C10.6446 15.0987 10.759 15.1286 10.9033 15.1286C10.9729 15.1286 11.0376 15.1286 11.0923 15.1236C11.147 15.1186 11.2166 15.1087 11.2962 15.0937C11.1221 15.4121 10.9182 15.6707 10.6944 15.8746C10.4656 16.0786 10.197 16.2626 9.87864 16.4317C9.61502 16.576 9.31659 16.7003 8.98334 16.7998C8.81423 16.8545 8.51579 16.9391 8.07809 17.0485C8.1328 17.0385 8.21239 17.0385 8.31684 17.0385C8.34668 17.0385 8.56056 17.0535 8.94852 17.0883C9.04302 17.0982 9.16737 17.0982 9.31659 17.0982H9.4857C9.55533 17.0982 9.62 17.0883 9.67471 17.0734C9.93832 17.0734 10.182 16.9988 10.4158 16.8446C10.6944 16.6605 10.9779 16.3372 11.2614 15.8796L11.6891 15.044C11.9279 14.8301 12.1716 14.6113 12.4153 14.3875C12.4452 14.3974 12.4999 14.3974 12.5695 14.3974C12.8331 14.3974 13.0868 14.3128 13.3255 14.1388C13.5693 13.9697 13.7732 13.7558 13.9423 13.5021C13.9821 13.7409 14.0418 14.1089 14.1214 14.6113C14.2308 15.0092 14.4447 15.2877 14.753 15.4469C14.8426 15.4767 14.9222 15.4966 15.0017 15.4966C15.1709 15.4966 15.33 15.4419 15.4892 15.3275C15.5787 15.2629 15.6981 15.1435 15.8572 14.9694C15.8871 14.9694 15.9468 14.9794 16.0264 14.9943H16.1806C16.5536 14.9943 16.8471 14.9047 17.0659 14.7207C17.2101 14.5715 17.3395 14.4521 17.4588 14.3725C17.4887 14.3477 17.5484 14.3128 17.6379 14.2631C17.812 14.3029 17.9662 14.3228 18.0905 14.3228C18.2149 14.3228 18.3193 14.3128 18.389 14.288C18.5382 14.2382 18.6725 14.1686 18.7869 14.0791C18.9013 13.9895 19.0107 13.8801 19.1151 13.7508C19.3439 13.3927 19.5131 13.0047 19.6125 12.5919C19.712 12.179 19.7618 11.7215 19.7618 11.2191L19.7568 11.2141ZM12.6541 11.7165L12.485 11.6468C12.3905 11.8955 12.2164 12.1243 11.9726 12.3382C11.7737 12.5123 11.53 12.6814 11.2465 12.8406C11.3161 12.751 11.52 12.562 11.8533 12.2686C12.1219 12.0298 12.3059 11.806 12.4004 11.6021C12.281 11.5523 12.1915 11.5175 12.1268 11.4927C12.0075 11.4429 11.9279 11.3832 11.8881 11.3036C11.9179 11.1594 11.9677 11.0351 12.0323 10.9356C12.097 10.8361 12.1865 10.7515 12.3059 10.6968C12.3606 10.672 12.4153 10.6819 12.4601 10.7217C12.4899 10.7615 12.5247 10.8063 12.5596 10.861C12.5944 10.9157 12.6143 10.9853 12.6143 11.0798V11.3086C12.7088 11.3385 12.7585 11.3981 12.7585 11.4777C12.7585 11.5324 12.7237 11.617 12.6491 11.7264L12.6541 11.7165ZM7.904 10.2591C7.91893 10.3089 7.91395 10.3536 7.88411 10.4034C7.85427 10.4531 7.8294 10.4929 7.80453 10.5327C7.73987 10.5029 7.68018 10.4631 7.62547 10.4233C7.54588 10.3835 7.47625 10.3735 7.42154 10.3984C7.3519 10.7665 7.29222 11.04 7.24745 11.2241C7.20269 11.4081 7.13305 11.5523 7.03855 11.6667C6.90923 11.3733 6.81472 11.1694 6.75006 11.0599C6.69535 11.045 6.64064 11.0301 6.58095 11.0102C6.47152 10.9455 6.3621 10.8809 6.25765 10.8063C6.25765 10.6769 6.26759 10.5775 6.29246 10.5078C6.31733 10.4382 6.37205 10.3785 6.46158 10.3387C6.60582 10.4083 6.73017 10.5526 6.84457 10.7665C6.9341 10.9406 7.01865 11.1146 7.10818 11.2937C7.15792 11.0002 7.20269 10.7565 7.24745 10.5576C7.29222 10.3636 7.38672 10.2044 7.52599 10.085C7.60557 10.0552 7.67023 10.0552 7.72494 10.085C7.77468 10.1149 7.83437 10.1746 7.89903 10.2542L7.904 10.2591ZM12.9873 16.1582C12.9177 16.3024 12.863 16.4069 12.8331 16.4815C12.7237 16.7202 12.6043 16.8545 12.485 16.8893C12.4601 16.8645 12.3656 16.8147 12.1965 16.7401C12.0274 16.6655 11.9577 16.571 11.9826 16.4616C12.0473 16.3024 12.102 16.1781 12.1567 16.0935C12.2064 16.004 12.286 15.9244 12.3905 15.8448C12.6292 15.8846 12.8282 15.994 12.9873 16.1681V16.1582ZM7.0286 12.3382L6.69535 13.139L5.50162 13.2932C5.52649 13.0644 5.5613 12.8853 5.60109 12.756C5.64586 12.6267 5.73042 12.5223 5.85974 12.4327C5.98906 12.4327 6.17807 12.4178 6.43173 12.383C6.6854 12.3531 6.88436 12.3332 7.0286 12.3332V12.3382ZM10.6794 12.0646C10.6944 12.1442 10.7043 12.194 10.7043 12.2188C10.7043 12.3133 10.6894 12.4079 10.6546 12.4924C10.5999 12.6416 10.5451 12.7958 10.4855 12.945C10.1273 13.1141 9.80403 13.3579 9.52052 13.6861C9.34643 13.8851 9.11266 14.2134 8.81423 14.666C8.44616 15.2081 8.13778 15.611 7.88411 15.8697C7.67023 16.0836 7.41159 16.2875 7.10818 16.4765C6.43173 16.9142 5.65581 17.133 4.7804 17.133C4.4372 17.133 4.10893 17.0933 3.7906 17.0137C3.47227 16.9341 3.18379 16.8048 2.92017 16.6307C2.62671 16.3521 2.39791 16.0487 2.23875 15.7155C2.07958 15.3872 2 15.0291 2 14.6461C2 14.4372 2.0199 14.2581 2.05969 14.1089C2.14922 13.721 2.3233 13.3877 2.58692 13.1191C2.78587 12.9102 3.09426 12.7063 3.51206 12.5024C3.92987 12.2984 4.2482 12.1442 4.47202 12.0448C4.88485 11.8458 5.19821 11.6568 5.41706 11.4827C5.20816 11.7911 4.82019 12.0846 4.2482 12.3531C3.95971 12.4874 3.68117 12.6217 3.40264 12.761C3.05446 12.945 2.79582 13.1291 2.62671 13.323C2.41283 13.5767 2.30341 13.8901 2.30341 14.2532C2.30341 14.3725 2.31336 14.5019 2.33822 14.6461C2.46755 14.9893 2.68142 15.3076 2.98483 15.6011C3.28824 15.8945 3.61154 16.0786 3.96469 16.1482C4.28301 16.2278 4.60632 16.2676 4.92962 16.2676C5.59612 16.2676 6.2477 16.0935 6.87441 15.7404C7.29719 15.5116 7.69013 15.2131 8.06317 14.855C8.43124 14.4969 8.75951 14.099 9.048 13.6662C9.33648 13.2335 9.56528 12.9152 9.73937 12.7162C10.0428 12.383 10.3561 12.1592 10.6844 12.0497L10.6794 12.0646ZM12.3606 11.1942L12.2412 11.1594C12.2412 11.1594 12.2213 11.1544 12.2014 11.1395C12.1815 11.1246 12.1617 11.1097 12.1467 11.0848C12.1567 11.0549 12.1766 11.0351 12.2164 11.0351C12.2959 11.0351 12.3457 11.0699 12.3606 11.1445V11.1942Z" fill="white"/>
</svg>
