<svg width="24" height="24" viewBox="0 0 24 24" fill="none" xmlns="http://www.w3.org/2000/svg">
<path fill-rule="evenodd" clip-rule="evenodd" d="M15.4193 7.44198C15.3886 7.57089 15.3395 7.70595 15.2535 7.84714C15.1737 7.98833 15.0939 8.12952 15.0141 8.2523C14.9773 8.18477 14.8852 8.12339 14.7379 8.06814C14.5905 8.01289 14.5292 7.94536 14.5599 7.86555L14.9098 7.31921L15.4131 7.44812L15.4193 7.44198ZM21.9448 9.92818C21.8895 9.47391 21.7667 9.02579 21.5826 8.58994C21.3984 8.15409 21.159 7.77962 20.8705 7.47268L20.7661 7.81031C20.7661 7.99447 20.7416 8.45488 20.6925 9.20381C20.674 9.51689 20.6618 9.79926 20.6618 10.0387C20.6618 10.2965 20.6802 10.5482 20.7109 10.7815C20.7416 11.0147 20.7907 11.2357 20.8521 11.4322C20.9319 11.1436 20.9748 10.8551 20.9932 10.5543C21.0117 10.2597 21.0178 9.87906 21.0178 9.40638V8.7127C21.2511 9.05647 21.4291 9.39411 21.5519 9.71946C21.6746 10.0448 21.736 10.3947 21.736 10.7569C21.736 10.8735 21.736 10.9656 21.7238 11.0331C21.6747 11.4997 21.5212 11.9417 21.2572 12.3591C21.0239 12.7397 20.7109 13.0958 20.318 13.4334C19.9497 13.7342 19.5506 13.9982 19.1148 14.2253C18.7158 14.4279 18.2922 14.5998 17.8502 14.7287C18.0528 14.6243 18.237 14.4647 18.3904 14.2621C18.55 14.0534 18.6667 13.8386 18.7465 13.6114C18.8631 13.2738 18.9552 12.9239 19.0043 12.5494C19.0595 12.1811 19.0841 11.7759 19.0841 11.3339C19.0841 10.8919 19.0104 10.5175 18.8692 10.1737C18.7281 9.82995 18.5009 9.54143 18.1878 9.30816C18.1878 9.56599 18.1326 9.95272 18.0221 10.4561C17.9116 10.9595 17.8564 11.3401 17.8564 11.5856C17.8564 11.8496 17.8993 12.0952 17.9853 12.31C17.9975 12.2486 18.0528 11.8435 18.1449 11.1007C18.1817 10.8183 18.2185 10.585 18.2615 10.3947C18.4641 10.6648 18.6114 10.9042 18.7035 11.1191C18.8201 11.4015 18.8815 11.6838 18.8815 11.9724C18.8815 12.0338 18.8754 12.1258 18.8631 12.2363C18.771 12.5801 18.6298 12.8993 18.4334 13.1878C18.2185 13.5071 17.9607 13.7281 17.6661 13.8631C17.5863 13.8815 17.5187 13.8938 17.4573 13.8938C17.2609 13.8938 17.089 13.8385 16.9417 13.7219C17.046 13.415 17.1258 13.1142 17.1872 12.8195C17.2425 12.5249 17.2732 12.2302 17.2732 11.9294C17.2732 11.5549 17.2548 11.2296 17.2241 10.9411C17.1934 10.6587 17.1258 10.3824 17.0215 10.1123C16.8373 10.4315 16.6961 10.6955 16.5979 10.9165C16.469 11.1989 16.3708 11.4874 16.291 11.7943C16.1805 12.1995 16.1191 12.5862 16.1191 12.9546C16.1191 13.0712 16.1252 13.194 16.1375 13.3106C16.1498 13.4272 16.1682 13.5562 16.1928 13.6912C15.9411 13.8999 15.6648 14.0902 15.3579 14.2498C15.1737 14.3481 14.6765 14.5691 13.86 14.9006C14.0749 14.9435 14.2345 14.9681 14.3327 14.9803C14.4309 14.9926 14.5783 14.9988 14.7624 14.9988C15.1308 14.9988 15.4438 14.9497 15.7139 14.8514C16.0393 14.7348 16.2971 14.5445 16.4936 14.2928C16.6532 14.4586 16.8312 14.5936 17.0153 14.6857C17.1995 14.7778 17.4082 14.8208 17.6415 14.8208C17.6231 14.8392 17.5678 14.8637 17.488 14.876C17.4082 14.8944 17.3591 14.9251 17.3346 14.9681C18.7465 14.7348 19.5936 14.5691 19.876 14.4647C20.8091 14.1209 21.3861 13.5193 21.6071 12.6599C21.8649 12.0092 22 11.3155 22 10.5912C22 10.3456 21.9877 10.1246 21.957 9.92818H21.9448ZM13.5838 9.46163C13.5654 9.60896 13.5163 9.76242 13.4365 9.91589C13.3321 10.1062 13.2523 10.2474 13.2032 10.3456C13.1418 10.1921 13.0313 10.0816 12.8778 10.0203C12.6016 10.0203 12.3499 10.1492 12.1105 10.4131C12.0246 10.5052 11.8527 10.7508 11.5948 11.1498C11.6869 10.763 11.8527 10.3947 12.0921 10.0448C12.3315 9.69491 12.6323 9.4248 13.0006 9.2345C13.2646 9.19766 13.4672 9.27747 13.5899 9.46777L13.5838 9.46163ZM10.232 7.52178C10.1768 7.6507 10.0909 7.76121 9.96808 7.85943C9.876 7.92695 9.75322 8.00061 9.59975 8.08041C9.37262 8.17249 9.20688 8.24002 9.09638 8.28913C8.98588 8.33824 8.88152 8.3935 8.7833 8.45488C8.83855 8.33825 8.92449 8.23389 9.02885 8.14795C9.13935 8.062 9.2744 7.98219 9.44629 7.90853C9.61203 7.83486 9.74709 7.77961 9.83917 7.73664C9.99263 7.66912 10.1215 7.59546 10.232 7.51566V7.52178ZM16.4813 15.4899C16.4322 15.6495 16.3339 15.7907 16.1866 15.9012C16.0393 16.0117 15.8797 16.0792 15.7139 16.1037C15.7201 16.0239 15.7937 15.9503 15.9411 15.8827C16.0823 15.8152 16.1805 15.7477 16.2235 15.6924C16.2112 15.6433 16.1805 15.6126 16.1314 15.6004C15.9902 15.5513 15.9165 15.5144 15.8981 15.496C15.9595 15.3425 16.027 15.2259 16.0884 15.1461C16.1866 15.0111 16.3033 14.9313 16.4383 14.9006C16.3953 15.0417 16.3033 15.1522 16.1559 15.2382C16.1743 15.275 16.2357 15.3057 16.3278 15.3425C16.4199 15.3794 16.4751 15.4285 16.4936 15.4899H16.4813ZM10.2627 8.903C10.2627 9.0135 10.2259 9.14242 10.1584 9.29589C10.0602 9.47391 9.9865 9.60281 9.94966 9.68876C9.59975 9.73173 9.25599 9.8054 8.91836 9.90976C8.90608 9.79926 8.93063 9.6642 8.99202 9.51687C9.01044 9.46162 9.07796 9.33271 9.18232 9.13627C9.53223 8.98281 9.89441 8.903 10.2689 8.903H10.2627ZM16.6532 15.9748C16.5918 16.0424 16.426 16.1529 16.1682 16.3002C15.9656 16.4168 15.8367 16.5457 15.7876 16.6808C15.9349 16.6378 16.0823 16.5764 16.2173 16.4905L16.5979 16.1958C16.5979 16.1958 16.6286 16.1344 16.6716 16.0669C16.69 16.0178 16.6839 15.9871 16.6532 15.9748ZM15.2413 10.892C15.1614 11.2173 15.0571 11.5058 14.9282 11.7698C14.7747 12.0583 14.5844 12.31 14.3573 12.531C14.1731 12.709 13.9644 12.8563 13.7373 12.9853C13.504 13.1142 13.2953 13.1756 13.105 13.1756C13.0436 13.1756 12.9945 13.1756 12.9576 13.1633C12.8471 13.3781 12.5586 13.5439 12.0921 13.6482C11.8404 13.7035 11.6501 13.8017 11.5212 13.9429C11.4659 13.949 11.4168 13.9429 11.38 13.9122C11.3432 13.8815 11.3063 13.8447 11.2695 13.7833C10.9687 14.0473 10.4469 14.2314 9.71639 14.3235C8.97974 14.4156 8.47023 14.5752 8.16943 14.7962C8.1019 14.8023 8.04052 14.8085 7.98527 14.8146C7.93002 14.8146 7.88705 14.8146 7.85635 14.8146C7.72744 14.8146 7.62308 14.7962 7.531 14.7655C7.43892 14.7348 7.35298 14.6734 7.27931 14.5936C7.16882 14.3972 7.07673 14.1946 7.00921 13.992C6.94168 13.7894 6.89257 13.5746 6.85574 13.3536C6.81891 13.1326 6.80049 12.9362 6.79435 12.7704C6.78821 12.6047 6.78208 12.3775 6.78208 12.0951V11.5181C6.78208 11.3278 6.78208 11.1314 6.79435 10.9349V10.7876C6.79435 10.4315 6.7698 10.0939 6.72069 9.77471C6.67158 9.63352 6.64702 9.49232 6.64702 9.34499C6.64702 9.16697 6.67158 9.00736 6.72683 8.86617C6.78208 8.72498 6.86188 8.57151 6.97238 8.40576C7.02149 8.65745 7.05218 8.90301 7.0706 9.14242C7.08901 9.38183 7.09515 9.67649 7.09515 10.0264V10.2904C7.09515 10.407 7.09515 10.5298 7.09515 10.6464C7.09515 10.763 7.09515 10.8858 7.09515 11.0025V11.1068C7.09515 11.8373 7.12584 12.3775 7.18723 12.7213C7.24862 13.0651 7.3407 13.3843 7.47575 13.6789C7.63536 13.8385 7.82566 13.9245 8.04666 13.9245C8.10804 13.9245 8.18171 13.9122 8.25537 13.8938C8.34745 13.2431 8.47023 12.752 8.62983 12.4205C8.78944 12.0951 8.99202 11.8312 9.24371 11.6347C9.29896 11.6225 9.33579 11.6163 9.36034 11.6163C9.44629 11.6163 9.52609 11.6532 9.59975 11.7207C9.64273 11.7636 9.69184 11.8312 9.75936 11.9294C9.82689 12.089 9.86372 12.2609 9.86372 12.4328C9.86372 12.574 9.83917 12.7397 9.79619 12.93C9.75322 13.1203 9.70411 13.2983 9.66728 13.4702C10.0356 13.4702 10.3917 13.3904 10.7416 13.2369C11.0915 13.0835 11.4291 12.8686 11.7545 12.5924C11.7606 12.6476 11.7545 12.7152 11.7238 12.7888C11.6931 12.8625 11.6808 12.9055 11.6808 12.9116C11.6808 12.9546 11.6992 12.9914 11.736 13.016C11.9018 12.973 12.0675 12.8748 12.2333 12.7213C12.3499 12.6108 12.4727 12.4573 12.5893 12.2547C12.62 12.2977 12.62 12.353 12.5893 12.4266C12.5586 12.5003 12.5463 12.5494 12.5463 12.5801C12.5463 12.5985 12.5525 12.6354 12.5648 12.6722C12.7305 12.6292 12.8963 12.4819 13.0497 12.2302C13.1173 12.1197 13.1909 12.0031 13.2584 11.8803L13.2155 12.3468C13.5408 12.2977 13.86 12.1565 14.1793 11.9171C14.4985 11.6838 14.7563 11.4015 14.9527 11.0761C14.9527 10.9165 14.9343 10.7508 14.8975 10.5912C14.8422 10.3824 14.7993 10.2228 14.7686 10.1246C14.6888 10.1615 14.6274 10.2412 14.566 10.3763C14.5107 10.5113 14.4494 10.5912 14.388 10.6157C14.4555 10.3088 14.5537 10.0141 14.6704 9.73788C14.787 9.46163 14.9282 9.21608 15.0939 9.00122C15.2474 9.35727 15.3272 9.73787 15.3272 10.1369C15.3272 10.364 15.2965 10.6034 15.2413 10.8613V10.892ZM4.27747 8.02516L4.0442 8.80478C3.90301 8.80478 3.7434 8.82934 3.57152 8.87231C3.39349 8.91528 3.22775 8.96439 3.07428 9.00122C3.062 8.9337 3.05586 8.88459 3.05586 8.8539C3.05586 8.76182 3.07428 8.65745 3.11111 8.54082C3.14794 8.42418 3.19091 8.30141 3.24002 8.17863C3.33824 8.14794 3.43646 8.12338 3.53468 8.09268C3.76796 8.02516 3.93984 7.98833 4.06262 7.98833C4.14242 7.98833 4.20995 8.0006 4.27133 8.01902L4.27747 8.02516ZM5.71394 11.8189C5.71394 12.1504 5.68324 12.4696 5.62185 12.7765C5.56047 13.0835 5.46839 13.3904 5.33947 13.6974C5.21056 14.0043 5.05095 14.256 4.86065 14.4647C4.6458 14.698 4.38183 14.8637 4.08103 14.9619C3.98281 14.9988 3.87231 15.0172 3.75568 15.0172C3.54696 15.0172 3.33211 14.9497 3.12339 14.8146C2.98834 14.7287 2.81031 14.5813 2.57704 14.3603C2.1903 13.9245 2 13.4088 2 12.8134V12.5187C2.01842 12.4328 2.03683 12.3714 2.04297 12.3284C2.04297 12.0276 2.14119 11.7145 2.33763 11.4015C2.47268 11.1928 2.68754 10.9288 2.9822 10.6096C3.3628 10.2167 3.59607 9.965 3.67587 9.86064C3.90915 9.57826 4.07489 9.30202 4.17925 9.02578C4.14856 9.33886 4.02578 9.65806 3.79865 9.97728C3.70657 10.1062 3.4733 10.3763 3.0927 10.7876C2.83487 11.0761 2.65071 11.3094 2.54635 11.4813C2.38674 11.7575 2.3008 12.0276 2.3008 12.3039C2.3008 12.4205 2.31308 12.5371 2.34377 12.6538C2.4113 12.9853 2.56476 13.2799 2.79804 13.55C3.03131 13.814 3.30141 13.9981 3.62063 14.0964C3.95826 14.0964 4.25292 14.0043 4.51074 13.8263C4.76857 13.6483 4.98956 13.4027 5.17987 13.0958C5.35789 12.8441 5.44383 12.5494 5.44383 12.2179C5.44383 11.9785 5.38858 11.7759 5.28422 11.6163L5.17987 11.5243C5.17373 11.6041 5.13076 11.6654 5.05095 11.7268C5.02026 11.7452 4.94659 11.7943 4.82996 11.8619C4.71946 11.8926 4.62124 11.8742 4.5353 11.8128C4.44936 11.7514 4.36955 11.6654 4.28975 11.5549C4.28975 11.1682 4.30817 10.8919 4.35114 10.7201C4.43708 10.3947 4.60282 10.1921 4.85451 10.1062C5.14917 10.2228 5.37017 10.4561 5.5175 10.7999C5.64641 11.0884 5.7078 11.426 5.7078 11.8128L5.71394 11.8189ZM17.0276 12.2732C16.9847 12.6661 16.8312 12.9975 16.5611 13.2738C16.4199 13.0896 16.3524 12.8932 16.3524 12.6722C16.3524 12.5433 16.3769 12.3898 16.426 12.2056C16.5672 11.8619 16.7084 11.512 16.8557 11.162C16.9171 11.3278 16.9601 11.5058 16.9847 11.6777C17.0092 11.8557 17.0215 12.0522 17.0215 12.267L17.0276 12.2732ZM9.51381 13.2247V13.0774C9.51381 12.9914 9.50767 12.9362 9.4954 12.8993C9.43401 12.7704 9.37876 12.6906 9.33579 12.6476C9.24985 12.5617 9.15163 12.5371 9.04113 12.5617C8.94905 12.6231 8.88766 12.6722 8.85083 12.6967C8.7833 12.752 8.73419 12.8134 8.71578 12.8871C8.67895 12.9239 8.66053 12.9668 8.66053 13.0221C8.66053 13.151 8.74033 13.2492 8.8938 13.329C8.97974 13.3904 9.07182 13.4211 9.17004 13.4211C9.31123 13.4211 9.42787 13.3536 9.51995 13.2185L9.51381 13.2247Z" fill="white"/>
</svg>
