<svg width="24" height="24" viewBox="0 0 24 24" fill="none" xmlns="http://www.w3.org/2000/svg">
<path fill-rule="evenodd" clip-rule="evenodd" d="M11.4232 5.12225C11.4232 5.36429 11.3828 5.57405 11.3021 5.75961C11.2215 5.94517 11.1004 6.10653 10.923 6.23561C10.8503 6.22754 10.7374 6.25174 10.576 6.30822C10.4228 6.36469 10.3098 6.39696 10.2453 6.39696C10.1 6.39696 10.0032 6.30821 9.95482 6.12266C9.95482 6.00971 9.97902 5.9129 10.0194 5.81608C10.0597 5.71927 10.1162 5.66279 10.1888 5.63859C10.1404 5.78381 10.1969 5.89676 10.3582 5.96937C10.5599 5.96937 10.6729 5.84835 10.689 5.61439C10.7051 5.38042 10.7455 5.2352 10.81 5.17873H10.8907C10.9068 5.2352 10.9068 5.32395 10.8907 5.44497C10.8665 5.56598 10.8584 5.63052 10.8584 5.63859C10.8584 5.74347 10.9149 5.79188 11.0359 5.79188C11.1166 5.73541 11.1811 5.62245 11.2295 5.4369C11.2779 5.25941 11.3425 5.15452 11.4232 5.12225ZM21.9274 11.2618C21.9516 11.4474 21.9758 11.6814 21.9839 11.9637C21.9919 12.2461 22 12.4074 22 12.4397C22 13.0206 21.9435 13.5934 21.8306 14.142C21.7176 14.6987 21.5482 15.215 21.3062 15.7072C21.0319 16.6027 20.4026 17.232 19.4183 17.595C19.378 17.6031 18.4825 17.8048 16.7156 18.192L13.2626 18.7084C14.9165 18.1759 16.5704 17.6354 18.2243 17.1029C19.1359 16.7156 19.854 16.2719 20.3703 15.7717C21.0238 15.1424 21.4353 14.3679 21.6047 13.4401C21.645 13.2304 21.6612 12.9964 21.6612 12.7463C21.6612 12.1574 21.524 11.5281 21.2578 10.8584C21.0641 10.3663 20.7656 9.80156 20.3542 9.15614C20.338 9.54339 20.33 9.93871 20.33 10.334V11.6814C20.33 12.1735 20.3219 12.5607 20.2977 12.8592C20.2735 13.1578 20.2251 13.4563 20.1363 13.7709C20.1363 13.311 20.1121 12.5688 20.0637 11.5442C20.0153 10.5196 19.9911 9.85804 19.9911 9.54339C19.9911 9.04319 19.9992 8.6398 20.0153 8.34129C20.0315 8.03472 20.0718 7.6636 20.1283 7.23601C20.5962 7.75235 20.9835 8.35743 21.29 9.04319C21.5966 9.72895 21.8064 10.4712 21.9193 11.2699L21.9274 11.2618ZM12.3994 7.76042L11.762 8.85763C11.6491 8.71241 11.5684 8.59946 11.5119 8.52685C11.3909 8.37357 11.2779 8.29289 11.1811 8.29289C11.0843 8.29289 10.9875 8.34936 10.9068 8.46231C10.6002 8.65594 10.3179 8.93024 10.0516 9.27716C9.86608 9.51919 9.64825 9.8419 9.39814 10.2614C9.48689 9.64827 9.76119 9.05126 10.213 8.45425C10.6648 7.85723 11.1973 7.37316 11.8185 7.01011C11.9718 7.03432 12.1008 7.13113 12.2057 7.30055C12.2783 7.42157 12.3429 7.57485 12.3994 7.76848V7.76042ZM19.62 13.1335C19.4264 13.1335 19.2005 13.1255 18.9585 13.1093C18.7084 13.0932 18.5067 13.0609 18.3614 13.0287C18.1597 12.948 18.0226 12.835 17.95 12.6979C17.8774 12.5607 17.8451 12.3832 17.8451 12.1735C17.8451 12.0605 17.8612 11.8911 17.9016 11.6491C17.9419 11.407 17.958 11.2296 17.958 11.1247C17.958 11.0601 17.9419 10.9633 17.9016 10.8342C17.9419 10.7697 18.2001 10.5277 18.6922 10.1001C18.8778 9.93064 19.0069 9.76122 19.0956 9.58373C19.2731 9.56759 19.3618 9.46272 19.3618 9.27716V8.97058C19.3618 8.82536 19.386 8.71241 19.4345 8.6398C19.386 8.47038 19.3376 8.35743 19.2812 8.29289C19.2005 8.18801 19.0795 8.15573 18.9342 8.19607C18.5954 8.34936 18.3856 8.62367 18.3211 9.01092C18.3695 9.09966 18.434 9.18841 18.5309 9.26102C18.6196 9.33363 18.7568 9.40624 18.9342 9.47885C18.8778 9.66441 18.7406 9.84997 18.5228 10.0355C18.4179 10.1243 18.2324 10.2614 17.958 10.4389C17.958 9.64828 17.8128 8.90604 17.5305 8.22834C17.24 7.55065 16.8044 6.96171 16.2154 6.47764C16.1105 6.86489 16.0379 7.26828 15.9976 7.6878C15.9572 8.10733 15.933 8.56719 15.933 9.06739C15.933 9.40624 15.9492 9.92258 15.9734 10.6083C15.9976 11.2941 16.0137 11.8024 16.0137 12.1331C16.1025 12.1331 16.167 12.1089 16.2073 12.0525C16.28 11.3506 16.3203 10.6245 16.3203 9.86611V8.20414H16.4413C16.7156 8.6398 16.885 8.90604 16.9415 9.01092C17.2481 9.57566 17.4014 10.0597 17.4014 10.4712C17.4014 10.7455 17.3288 10.9956 17.1916 11.2054L17.4578 11.1247C17.4578 11.2054 17.4498 11.4393 17.4336 11.8185C17.4175 12.1977 17.4094 12.4962 17.4094 12.7221C17.4094 13.1174 17.4498 13.5047 17.5305 13.8758C17.2319 14.1904 16.9415 14.5051 16.6591 14.8036C16.3042 15.1505 15.9492 15.3199 15.5781 15.3199C15.2392 15.2312 15.0052 14.9649 14.8842 14.5293C14.7067 13.8758 14.6099 13.5289 14.5777 13.4885C14.2065 13.6741 13.9 14.0613 13.666 14.6503C13.3675 15.3925 13.1497 15.8443 13.0044 16.0218C12.4236 16.7398 11.6087 17.3207 10.5518 17.7644C9.61597 18.0952 8.68818 18.426 7.76846 18.7649C8.26059 18.8375 8.73659 18.8778 9.19645 18.8778C9.90641 18.8778 10.5922 18.7971 11.2457 18.6438C11.8104 18.539 12.3025 18.2647 12.7301 17.8129C13.0286 17.4982 13.3352 17.0303 13.6579 16.401C14.1097 15.5135 14.3679 15.0214 14.4324 14.9327C14.5373 15.2634 14.6341 15.5942 14.739 15.9169C14.8762 16.3042 15.1021 16.5543 15.4006 16.6672C15.7717 16.6672 16.1267 16.5381 16.4816 16.28C16.6672 16.1428 16.9576 15.8605 17.353 15.449C17.6837 15.1182 17.95 14.8843 18.1597 14.7552C18.4744 14.5535 18.8052 14.4486 19.1601 14.4486H19.4829C19.5313 14.3276 19.5635 14.1824 19.5958 14.0129C19.62 13.8435 19.6361 13.6095 19.6361 13.303V13.1416L19.62 13.1335ZM11.9314 14.8762C11.8588 15.0617 11.7378 15.2312 11.5684 15.3764C11.4474 15.4893 11.2699 15.6104 11.044 15.7394C10.8503 15.8443 10.6486 15.9492 10.447 16.0541C10.2453 16.167 10.0758 16.2961 9.93062 16.4413C9.98709 16.2477 10.0839 16.0864 10.2211 15.9492C10.3582 15.812 10.5518 15.683 10.7939 15.5377C11.0359 15.4006 11.2295 15.2957 11.3586 15.2312C11.5764 15.1102 11.7701 14.9891 11.9234 14.8681L11.9314 14.8762ZM5.3804 8.77695L5.25938 9.14807C5.19484 9.14807 5.13029 9.09966 5.06575 9.00285C5.00121 8.90604 4.9286 8.8657 4.85599 8.88184C4.83179 9.01092 4.79952 9.30943 4.76725 9.77736C4.73497 10.2453 4.63816 10.6083 4.48487 10.8665C4.42033 10.81 4.29931 10.5519 4.12182 10.092C3.99274 9.76122 3.78298 9.60793 3.48447 9.64827C3.41186 9.5676 3.37152 9.47078 3.37152 9.35783C3.37152 9.27715 3.40379 9.15614 3.46027 8.98672C3.51674 8.82536 3.54901 8.73662 3.54901 8.72855C3.80718 8.80116 4.00081 9.00285 4.12989 9.3417C4.30738 9.78543 4.4284 10.0517 4.50101 10.1323C4.50101 9.71281 4.52521 9.38204 4.57362 9.13194C4.62203 8.88184 4.71884 8.6398 4.88019 8.39777C5.13029 8.39777 5.29972 8.51879 5.3804 8.76889V8.77695ZM11.4635 11.4393C11.4635 11.4393 11.4796 11.5361 11.4796 11.6168C11.4796 11.7378 11.4554 11.875 11.407 12.0363C11.2941 12.4155 11.2376 12.6575 11.2376 12.7544C10.5922 12.9883 10.0678 13.2465 9.67245 13.5289C9.12384 13.9161 8.76886 14.376 8.59137 14.9165C8.38161 15.7959 8.09117 16.522 7.73618 17.1029C7.26825 17.8693 6.67124 18.3615 5.94514 18.5874C5.6547 18.6761 5.35619 18.7406 5.04155 18.7729C4.72691 18.8052 4.37999 18.8213 3.98467 18.8213C3.75071 18.8213 3.37152 18.8133 2.83905 18.7971C2.30658 18.781 2.03227 18.7729 2 18.7729C3.92013 18.2485 5.05769 17.9016 5.4046 17.7483C6.66317 17.1836 7.51836 16.3607 7.97822 15.2715C8.11537 14.3679 8.51069 13.545 9.15611 12.8189C9.48689 12.4478 9.84187 12.1493 10.213 11.9153C10.5841 11.6813 10.9956 11.5281 11.4474 11.4474L11.4635 11.4393ZM19.0956 8.97058V8.8899C19.0795 8.71241 18.9827 8.62367 18.8213 8.62367C18.7648 8.62367 18.7164 8.64787 18.668 8.70435C18.7084 8.76082 18.7568 8.80922 18.8374 8.8415C18.91 8.88183 18.9988 8.92217 19.1037 8.96251L19.0956 8.97058Z" fill="white"/>
</svg>
