<svg width="24" height="24" viewBox="0 0 24 24" fill="none" xmlns="http://www.w3.org/2000/svg">
<path fill-rule="evenodd" clip-rule="evenodd" d="M21.7587 13.1905C21.4476 13.9017 21.1937 14.4032 20.9968 14.6826C20.6286 15.2223 20.1841 15.5524 19.6635 15.6731C19.2635 15.7937 18.8063 15.8826 18.2984 15.9397C17.7905 15.9969 17.2889 16.0223 16.8063 16.0223C17.5746 15.8128 18.2032 15.6032 18.6921 15.4001C19.4032 15.1016 19.981 14.7588 20.4254 14.3651C20.9587 13.8953 21.3333 13.3302 21.5492 12.6763C21.6571 12.3778 21.7143 12.0794 21.7143 11.781C21.7143 11.3874 21.6444 11.0064 21.5048 10.6318C21.3651 10.2572 21.1746 9.88895 20.927 9.52704C20.9016 9.74292 20.8825 10.2001 20.8571 10.8921C20.8317 11.5842 20.7619 12.1366 20.6476 12.5493C20.6095 12.3905 20.5841 12.2191 20.5714 12.0286C20.5587 11.8445 20.5524 11.6604 20.5524 11.4763C20.5524 11.235 20.5778 10.7397 20.6286 9.99054C20.6603 9.55879 20.673 9.25403 20.673 9.07625C20.7048 8.87943 20.7302 8.71435 20.7619 8.58736C20.7937 8.45403 20.8508 8.36514 20.9333 8.30165C21.2952 8.7207 21.5683 9.20324 21.7397 9.73657C21.9111 10.2699 22 10.8413 22 11.4445C22 12.0477 21.9175 12.6064 21.7587 13.1905ZM11.9048 9.98419C11.7524 10.1239 11.6063 10.1937 11.4667 10.1937C11.4286 10.1937 11.4032 10.1937 11.3778 10.181C11.3143 10.1112 11.2635 10.035 11.2381 9.95244C11.2063 9.8699 11.1937 9.78736 11.1937 9.69213C11.1937 9.50165 11.2635 9.27308 11.4095 9.00641C11.4222 8.98736 11.4921 8.86673 11.619 8.65721C11.6063 8.75244 11.6889 8.89847 11.8794 9.10165C12.0698 9.30482 12.1651 9.4699 12.1651 9.59054C12.1651 9.65403 12.146 9.71752 12.1079 9.78101C12.0698 9.84451 12 9.908 11.9048 9.98419ZM19.581 10.2255C19.581 9.80641 19.5365 9.40641 19.454 9.02546C19.3714 8.6445 19.2317 8.30165 19.0349 7.99054C18.9206 8.40324 18.8254 8.81593 18.7556 9.21593C18.6857 9.62228 18.654 10.0096 18.654 10.3905C18.654 10.5937 18.6667 10.8032 18.6857 11.0128C18.6984 10.9556 18.7429 10.5366 18.819 9.76197C18.8508 9.46355 18.8889 9.22229 18.9397 9.04451C19.0032 9.24768 19.073 9.45085 19.1492 9.64133C19.2952 10.0794 19.3651 10.435 19.3651 10.708C19.3651 11.0636 19.2571 11.362 19.0349 11.6032C18.8444 11.7556 18.6349 11.8318 18.4 11.8318C17.8857 11.5143 17.6127 10.9048 17.5873 10.0159C17.5619 9.12705 17.5175 8.55562 17.454 8.308C17.3841 8.37784 17.327 8.51752 17.2825 8.71435C17.2444 8.91117 17.2127 9.03181 17.1873 9.0826C17.1873 9.27943 17.2571 9.76832 17.3968 10.5556C17.454 10.8858 17.4857 11.1715 17.4857 11.4191C17.4857 11.6223 17.4603 11.8255 17.4032 12.0223C17.346 12.2191 17.2698 12.3969 17.1556 12.5493C17.0476 12.6826 16.9333 12.7651 16.8254 12.8032C16.7111 12.8413 16.5651 12.8604 16.381 12.8604C16.1714 12.8286 16.0635 12.7397 16.0635 12.5747C16.0635 12.5112 16.0825 12.4032 16.127 12.2572C16.1714 12.1112 16.1905 12.0032 16.1905 11.927C16.1905 11.8509 16.1841 11.8064 16.1714 11.7747C16.1841 11.7112 16.1651 11.6604 16.1079 11.635C16.0508 11.6032 15.9873 11.5905 15.9111 11.5905C15.8667 11.5905 15.8222 11.5969 15.7778 11.6096C15.3079 11.8889 14.8381 12.162 14.3683 12.4413C13.4159 12.9937 12.6032 13.3874 11.9365 13.6286C11.5048 13.781 11.0984 13.8953 10.6984 13.9715C10.3048 14.0477 9.89841 14.0858 9.49206 14.0858C9.15556 14.0858 8.83175 14.0604 8.51429 14.0096C8.19683 13.9588 7.86667 13.8762 7.53016 13.762C7.00952 13.4826 6.62857 13.1016 6.39365 12.6191C6.19048 12.2001 6.08889 11.6731 6.08889 11.0572C6.08889 10.2953 6.07619 9.65403 6.04444 9.14609C6.0127 8.63181 5.93016 8.16831 5.79683 7.75562C5.68889 7.91435 5.61905 8.08578 5.5746 8.26355C5.53016 8.44133 5.51111 8.62546 5.51111 8.81594C5.51111 8.93657 5.51111 9.01276 5.51111 9.06356C5.51111 9.108 5.52381 9.19689 5.54286 9.33022C5.5619 9.46355 5.5873 9.73022 5.6254 10.1429C5.66349 10.5556 5.70159 10.8794 5.74603 11.1207C5.5873 11.2159 5.41587 11.2858 5.23175 11.3366C5.04762 11.381 4.83175 11.4255 4.57778 11.4636C4.12698 11.5334 3.84127 11.5842 3.71429 11.6096C3.59365 11.635 3.47302 11.6667 3.36508 11.7112C3.00952 11.8445 2.71111 12.0858 2.46984 12.4413C2.27937 12.727 2.13333 13.0826 2.03175 13.5143C2.0127 13.6604 2 13.8001 2 13.9397C2 14.289 2.06349 14.6191 2.19048 14.9366C2.31746 15.2477 2.50794 15.5207 2.74921 15.7556C2.89524 15.927 3.06667 16.054 3.26984 16.1302C3.46667 16.2064 3.68254 16.2445 3.90476 16.2445C4.08889 16.2445 4.24127 16.2318 4.36191 16.2001C4.65397 16.0413 4.90159 15.8445 5.10476 15.6096C5.27619 15.4064 5.43492 15.1524 5.5746 14.854C5.68889 14.5874 5.78413 14.2953 5.84762 13.9905C5.89206 13.7937 5.93651 13.5016 5.9873 13.1143C6.03809 13.362 6.08889 13.5397 6.13968 13.6477C6.22222 13.8318 6.33016 13.9778 6.47619 14.0858C6.8254 14.3461 7.1873 14.5493 7.5619 14.689C7.93651 14.8286 8.33016 14.9239 8.74286 14.9683C8.93333 14.9874 9.11746 15.0001 9.30159 15.0001C9.6127 15.0001 9.91111 14.981 10.1968 14.9366C10.4825 14.8921 10.7873 14.8286 11.1111 14.7397C11.5302 14.6318 11.9238 14.5048 12.2794 14.3651C12.6349 14.2255 13.0095 14.054 13.3968 13.8509C13.7841 13.654 14.1524 13.4445 14.4952 13.2413C14.8381 13.0318 15.1683 12.8286 15.4794 12.6255C15.5619 12.5937 15.6381 12.581 15.7079 12.581C15.7968 12.581 15.854 12.6064 15.8794 12.6572C15.9048 12.708 15.9175 12.7905 15.9175 12.8985V13.2604C15.9175 13.4001 15.9365 13.508 15.9683 13.5842C16 13.6604 16.0698 13.7112 16.1778 13.7429C16.2413 13.781 16.3238 13.8001 16.419 13.8001C16.4825 13.8001 16.546 13.8001 16.6095 13.7874C16.6667 13.781 16.7492 13.762 16.8444 13.7302C17.1175 13.5842 17.3143 13.3493 17.4286 13.0318C17.4603 12.9493 17.5175 12.6509 17.6127 12.1239C17.6635 12.1937 17.7397 12.3143 17.8413 12.4858C17.9365 12.6191 18.0317 12.6953 18.1333 12.7207C18.2349 12.7461 18.3238 12.7588 18.4063 12.7588C18.654 12.7588 18.8635 12.6699 19.0286 12.4985C19.1937 12.1493 19.327 11.781 19.4159 11.3937C19.5048 11.0064 19.5492 10.6191 19.5492 10.2318L19.581 10.2255ZM14.654 15.1334L14.273 15.9397C14.1651 15.9524 14.0063 15.9715 13.8032 15.9969C13.6 16.0159 13.4413 16.0286 13.3333 16.0286H12.9968C13.0349 15.8636 13.0794 15.7112 13.1429 15.5651C13.2063 15.4191 13.2889 15.2921 13.3905 15.1778C13.5365 15.1778 13.7778 15.1715 14.1143 15.1588C14.4508 15.1461 14.6349 15.1397 14.654 15.1397V15.1334ZM11.9365 9.58419C11.873 9.5207 11.7905 9.45721 11.6952 9.40641C11.6 9.34927 11.5111 9.29848 11.4222 9.24768C11.4032 9.30483 11.3841 9.36197 11.3651 9.41911C11.3524 9.47625 11.346 9.5207 11.346 9.56514C11.346 9.60959 11.3587 9.66038 11.3778 9.71752C11.4286 9.85086 11.5111 9.88895 11.619 9.85086C11.7016 9.83181 11.7651 9.79371 11.8286 9.75562C11.8857 9.71117 11.9238 9.66038 11.9365 9.59054V9.58419ZM5.74603 11.3493C5.79048 11.6667 5.80952 11.9905 5.80952 12.3207C5.80952 12.5112 5.79683 12.7143 5.77778 12.9302C5.75873 13.1461 5.72064 13.3429 5.68254 13.508C5.58095 13.8699 5.42857 14.1937 5.23175 14.4858C5.03492 14.7715 4.7746 15.0064 4.45079 15.1905C4.30476 15.2604 4.14603 15.2985 3.96825 15.2985C3.79048 15.2985 3.6381 15.2667 3.48571 15.2096C3.33333 15.1524 3.19365 15.0699 3.07302 14.9683C2.7619 14.7016 2.55238 14.3969 2.4381 14.054C2.36825 13.8572 2.33016 13.6413 2.33016 13.4128C2.33016 13.4001 2.33016 13.3366 2.34286 13.2286C2.34921 13.1207 2.3619 13.0255 2.3873 12.9429C2.57778 12.689 2.8127 12.4794 3.09841 12.308C3.32063 12.1747 3.6 12.0604 3.93016 11.9651C4.26032 11.8699 4.59048 11.7683 4.92064 11.6667C5.25714 11.5651 5.53016 11.4572 5.75238 11.3493H5.74603Z" fill="white"/>
</svg>
