<svg width="24" height="24" viewBox="0 0 24 24" fill="none" xmlns="http://www.w3.org/2000/svg">
<path fill-rule="evenodd" clip-rule="evenodd" d="M16.1945 7.74505L15.6381 8.59169L14.8931 8.17563C14.9415 8.02082 15.0189 7.86116 15.1253 7.70151C15.2124 7.57572 15.3285 7.44027 15.4833 7.28545C15.7687 7.34835 16.0058 7.50316 16.1896 7.74989L16.1945 7.74505ZM22 10.8413C22 10.2366 21.9032 9.6657 21.7146 9.11902C21.521 8.57233 21.2404 8.10305 20.8728 7.69667C20.6696 8.44171 20.5728 9.27383 20.5728 10.193C20.5728 10.9816 20.6405 11.6831 20.7808 12.2927V10.8171C20.7808 10.5172 20.7905 10.1979 20.805 9.85922C20.8244 9.52057 20.8437 9.2448 20.8728 9.0271C21.4436 9.89792 21.7339 10.9139 21.7339 12.0653C21.5646 12.6604 21.2888 13.2071 20.9018 13.7005C20.5196 14.194 20.06 14.6246 19.5181 14.9923C18.9811 15.36 18.4248 15.6551 17.8442 15.8776C17.2685 16.1002 16.6686 16.2646 16.0493 16.3662C16.2912 16.3662 16.5815 16.342 16.9299 16.2985C17.6942 16.1969 18.1684 16.1485 18.3474 16.1485C18.9666 16.1485 19.5472 15.9502 20.089 15.5583C20.5389 15.2293 20.9453 14.7697 21.3082 14.1892C21.5404 13.7199 21.7146 13.1926 21.8258 12.6168C21.9371 12.0411 21.9952 11.4461 21.9952 10.8365L22 10.8413ZM12.0145 9.40445C12.0145 9.82052 11.8404 10.1205 11.492 10.2995C11.3372 10.3382 11.2308 10.3575 11.1776 10.3575C11.1098 10.3575 11.0518 10.3382 11.0131 10.2995C10.897 10.2608 10.8389 10.1737 10.8389 10.0334C10.8389 9.98501 10.8486 9.92695 10.8679 9.85922C10.8873 9.79149 10.9018 9.73827 10.9066 9.70925C10.9453 9.67054 10.9889 9.59797 11.0324 9.49638C11.076 9.39478 11.1292 9.32222 11.1824 9.29319C11.2066 9.34641 11.1969 9.42381 11.1582 9.5254C11.0953 9.67054 11.0663 9.76247 11.0663 9.7915C11.0663 9.87858 11.1243 9.93663 11.2404 9.96566C11.3566 9.96566 11.463 9.94631 11.5549 9.9076C11.6468 9.8689 11.7194 9.80117 11.7629 9.70925C11.7388 9.64635 11.6565 9.56411 11.5065 9.45768C11.3614 9.35124 11.284 9.269 11.284 9.20611C11.284 9.14322 11.3372 9.07064 11.4485 8.98356C11.5501 9.00775 11.6517 9.05612 11.7484 9.13353C11.85 9.21094 11.9323 9.29803 12.0048 9.39963L12.0145 9.40445ZM18.4925 8.95937C18.3861 8.045 18.0716 7.22255 17.5539 6.48718C17.4233 6.88389 17.3266 7.30481 17.2685 7.75473C17.2105 8.19982 17.1814 8.67877 17.1814 9.18191C17.1814 9.56895 17.2008 9.98502 17.2395 10.4301H17.2975C17.2975 10.1495 17.3217 9.71409 17.3749 9.11419C17.4233 8.51912 17.4523 8.04016 17.4523 7.68215C17.6942 8.06435 17.8781 8.46106 18.0087 8.88196C18.1393 9.29803 18.2313 9.74312 18.2748 10.2172C18.1684 10.4978 17.9894 10.7349 17.7426 10.9332C17.4959 11.1316 17.2346 11.2284 16.9637 11.2284C16.7315 11.18 16.567 11.0397 16.4654 10.7978C16.3977 10.5801 16.3299 10.3624 16.2671 10.1495C16.2284 10.1398 16.1751 10.1398 16.1026 10.1398C15.9865 10.1398 15.8607 10.164 15.73 10.2076C15.5994 10.2559 15.4591 10.314 15.314 10.3817C14.8737 10.5898 14.5641 10.9429 14.3851 11.4364C14.3077 11.6541 14.2158 12.1234 14.1045 12.8394C13.7804 13.0619 13.4465 13.2651 13.1127 13.4441C12.7741 13.6231 12.4354 13.7731 12.0968 13.8989C11.4001 14.1601 10.6067 14.2956 9.7165 14.2956C9.29076 14.2956 8.88437 14.2182 8.50218 14.0586C8.11998 13.8989 7.80068 13.6667 7.54427 13.3619C7.35075 12.9216 7.20561 12.4378 7.10402 11.9202C7.04112 11.5912 6.98307 11.1268 6.92501 10.5172C6.86696 9.90761 6.81374 9.32222 6.76052 8.76586C6.71214 8.20466 6.63957 7.71119 6.54765 7.28545C6.44122 7.45478 6.35897 7.63861 6.3106 7.83213C6.26222 8.02564 6.23319 8.22884 6.23319 8.43687C6.23319 8.62071 6.25254 8.83843 6.29124 9.08516C6.32995 9.3319 6.37349 9.57862 6.41703 9.83019C6.50411 10.3333 6.54282 10.7397 6.54282 11.0397C6.4896 11.1316 6.40252 11.2138 6.28641 11.2816C6.19932 11.3058 5.77359 11.4025 5.00919 11.5719C4.49153 11.688 4.0658 11.8137 3.73198 11.9444C3.29173 12.1234 2.93372 12.3459 2.6628 12.6168C2.34349 12.9361 2.13546 13.3329 2.03387 13.8021C2.00968 14.0247 2 14.2472 2 14.4649C2 14.8616 2.04838 15.2293 2.1403 15.5777C2.23222 15.9212 2.3822 16.2211 2.58055 16.4775C3.10789 17.1693 3.77068 17.5128 4.5641 17.5128C4.64151 17.5128 4.74794 17.5032 4.88824 17.4886C5.25109 17.4403 5.57039 17.3 5.84132 17.0629C6.04935 16.8791 6.25738 16.6081 6.45573 16.2501C6.59603 16.0034 6.73633 15.6841 6.8718 15.2922C6.9492 15.0794 7.05564 14.7697 7.19594 14.3682L7.43783 14.6488C7.80068 14.91 8.1732 15.0987 8.55056 15.21C8.92792 15.3212 9.32946 15.3793 9.74553 15.3793C9.95356 15.3793 10.1422 15.3696 10.3067 15.3454C10.4712 15.3212 10.6744 15.2874 10.9066 15.239C11.463 15.1132 12.0387 14.9052 12.6241 14.6197C13.1176 14.3778 13.6401 14.0779 14.1819 13.7199C14.269 13.6909 14.3609 13.6715 14.4625 13.6715C14.6705 13.6715 14.8979 13.7634 15.135 13.9424C15.2608 14.0392 15.4398 14.2037 15.6817 14.4504C15.7494 14.4117 15.8075 14.344 15.8558 14.2424C15.8655 14.2182 15.8945 14.1311 15.9478 13.9763C15.9768 13.8602 15.9961 13.7489 15.9961 13.6376C15.9961 13.3135 15.7978 13.0136 15.4059 12.7426C14.8931 12.3846 14.5883 12.1282 14.4867 11.9637C14.5786 11.7992 14.7092 11.6541 14.8834 11.5283C15.0527 11.4025 15.2511 11.2961 15.4736 11.209C15.5607 11.1703 15.6478 11.151 15.7397 11.151C15.9042 11.151 16.0348 11.3396 16.1364 11.7122C16.238 12.0895 16.4267 12.2734 16.7073 12.2734H16.8815C17.104 12.2734 17.3169 12.2056 17.5201 12.0702C17.7233 11.9347 17.8878 11.7605 18.0184 11.5573C18.1877 11.2574 18.3135 10.9381 18.3957 10.5994C18.478 10.2656 18.5167 9.91245 18.5167 9.5496C18.5167 9.35608 18.507 9.15773 18.4828 8.95937H18.4925ZM6.76536 13.657C6.76536 14.0827 6.70247 14.4698 6.58152 14.8181C6.45573 15.1664 6.2477 15.4712 5.95259 15.7373C5.68166 15.955 5.45912 16.1098 5.28979 16.2018C5.02854 16.3324 4.77697 16.4001 4.53508 16.4001C4.40929 16.4001 4.27867 16.3808 4.13837 16.3469C4.04644 16.3033 3.95452 16.2598 3.85777 16.2211C3.76584 16.1824 3.67876 16.1582 3.60135 16.1582C3.55298 16.1582 3.50943 16.1679 3.46105 16.1921C3.26754 16.0082 3.10305 15.8196 2.97242 15.6357C2.8418 15.4519 2.73053 15.239 2.63377 14.9971C2.57088 14.8423 2.5225 14.6778 2.48379 14.5085C2.44509 14.3392 2.42574 14.1698 2.42574 14.0102C2.42574 13.8505 2.44509 13.6812 2.48379 13.4877C2.72569 13.0474 3.10305 12.7039 3.62071 12.4524C3.8626 12.3362 4.32221 12.1814 5.00919 11.9831C5.69618 11.7847 6.18965 11.5767 6.49927 11.3638C6.55249 11.7412 6.61055 12.1379 6.6686 12.5443C6.72666 12.9507 6.75568 13.3232 6.75568 13.6667L6.76536 13.657Z" fill="white"/>
</svg>
