<svg width="24" height="24" viewBox="0 0 24 24" fill="none" xmlns="http://www.w3.org/2000/svg">
<path fill-rule="evenodd" clip-rule="evenodd" d="M21.9655 11.019C21.9885 11.2261 22 11.4333 22 11.6404C22 11.9453 21.977 12.2675 21.9252 12.607C21.8734 12.9465 21.8044 13.2745 21.7123 13.5967C21.4822 14.0972 21.2808 14.4655 21.1139 14.7014C20.8377 15.0984 20.5213 15.3861 20.1703 15.5529C18.8642 15.7831 17.5639 16.019 16.2578 16.2549C17.3625 15.8349 18.473 15.4148 19.5834 15.0006C20.1876 14.6956 20.6594 14.3504 20.9988 13.9764C21.4189 13.5104 21.672 12.958 21.7468 12.3193C21.7526 12.2445 21.7583 12.1755 21.7641 12.118C21.7641 12.0604 21.7641 12.0144 21.7641 11.9741C21.7641 11.6231 21.7008 11.2779 21.58 10.9384C21.4591 10.599 21.2865 10.2883 21.0621 9.99482C21.0219 10.1789 20.9988 10.4264 20.9931 10.7428C20.9873 11.0593 20.9816 11.2376 20.9816 11.2837V11.8245C20.9816 12.1927 20.9528 12.515 20.901 12.7911C20.8492 12.5322 20.809 12.2733 20.7802 12.0144C20.7514 11.7555 20.7399 11.4678 20.7399 11.1456C20.7399 10.3228 20.832 9.51726 21.0161 8.71749C21.2865 9.01669 21.4994 9.36191 21.6548 9.75317C21.8101 10.1444 21.9137 10.5644 21.9597 11.019H21.9655ZM16.0852 9.31588C15.9643 9.47698 15.8032 9.62083 15.6133 9.74166C15.4695 9.83372 15.2796 9.93153 15.0495 10.0409C14.8193 10.1502 14.5949 10.2537 14.382 10.3516C14.1692 10.4494 13.9793 10.5702 13.8182 10.7083C13.7952 10.6623 13.8009 10.6047 13.8412 10.5414C13.8815 10.4781 13.916 10.4091 13.9563 10.3401C14.2037 10.1962 14.4626 10.0581 14.7388 9.92578C15.1818 9.7244 15.6306 9.52301 16.0852 9.31588ZM20.0092 10.7946C19.5949 10.9269 19.1922 11.0305 18.8067 11.1053C18.4212 11.1801 17.9781 11.2606 17.4776 11.3354C17.9091 11.0593 18.2716 10.7198 18.565 10.3228C18.8585 9.92577 19.0771 9.48849 19.2152 9.02244C19.3072 8.74626 19.3533 8.45857 19.3533 8.15938C19.3533 7.39988 19.1174 6.76122 18.6513 6.24914C18.4384 6.70944 18.3003 7.18125 18.2428 7.65881C18.1853 8.13637 18.1565 8.74626 18.1565 9.48274H18.214C18.2658 9.13752 18.3176 8.77503 18.3636 8.38953C18.4097 8.00403 18.4499 7.63579 18.4787 7.28481C18.6341 7.49194 18.7491 7.7336 18.8239 8.00403C18.87 8.15938 18.9217 8.42405 18.9735 8.80379C18.9735 9.25834 18.7952 9.67261 18.4327 10.0466C18.3176 10.1617 18.1047 10.34 17.7998 10.5875C17.3165 10.9499 17.0058 11.2606 16.8619 11.5196C16.7181 11.7785 16.6548 12.0604 16.6605 12.3596C16.977 12.2215 17.4603 12.0892 18.1105 11.9569C18.6226 11.859 18.9102 11.8015 18.9735 11.7842C18.4097 12.3999 17.9033 12.9005 17.4545 13.2917C16.8792 13.775 16.3038 14.1605 15.7342 14.454C15.3084 14.6784 14.8884 14.8452 14.4741 14.9545C14.0541 15.0639 13.6226 15.1214 13.1738 15.1214C12.9379 15.1214 12.702 15.1041 12.4661 15.0754C12.2301 15.0466 12 14.9948 11.7698 14.9258C11.3096 14.7704 11.0564 14.3964 11.0219 13.8038C10.9816 13.2112 10.9298 12.8372 10.8608 12.6933C10.6939 12.8199 10.5213 13.0098 10.3544 13.2629C10.2221 13.4816 10.0955 13.6945 9.97468 13.9016C9.62371 14.4827 9.11162 14.9488 8.44419 15.3055C7.93786 15.5759 7.30495 15.8003 6.5397 15.9787H7.41427C7.62716 15.9787 7.85155 15.973 8.07595 15.9557C8.30034 15.9384 8.49022 15.9154 8.64557 15.8867C9.08861 15.7831 9.47986 15.4781 9.80782 14.9661C9.99194 14.6784 10.2566 14.2468 10.6018 13.6657L10.8205 15.1272C11.0679 15.6335 11.4649 15.9327 12.0173 16.0247C12.2934 16.0708 12.5639 16.0938 12.8228 16.0938C13.5132 16.0938 14.1979 15.9557 14.8711 15.6795C15.4638 15.4321 16.0679 15.0754 16.6835 14.5978C17.2992 14.1203 17.9091 13.5276 18.5075 12.8142C19.0081 12.2273 19.5086 11.5483 20.015 10.7773L20.0092 10.7946ZM8.20253 12.3193C8.13349 13.1018 8.04718 13.6082 7.93786 13.8383C7.79977 14.1318 7.57537 14.3447 7.27043 14.4827C7.20713 14.5 7.16686 14.5058 7.14384 14.5058C6.96548 14.5058 6.83889 14.4079 6.7641 14.2066C6.71231 14.1145 6.67779 13.9534 6.66053 13.729C6.64327 13.5046 6.6145 13.3492 6.56847 13.2629C6.43613 13.424 6.20598 13.7865 5.87802 14.3446C5.38895 15.1789 4.88838 15.7198 4.38205 15.9557C4.18067 16.0017 3.99079 16.0247 3.80667 16.0247C3.62255 16.0247 3.3924 16.0075 3.13924 15.9672C2.54085 15.8751 2.1611 15.8291 2 15.8291C2.63867 15.6392 3.27158 15.4436 3.91024 15.2537C4.62371 14.9718 5.16456 14.5518 5.5328 13.9994C5.62486 13.8901 5.80322 13.5794 6.07365 13.0558C6.28078 12.6473 6.51669 12.3826 6.78711 12.2503C6.82739 12.3136 6.86191 12.5322 6.89643 12.9177C6.93095 13.3032 7.05754 13.4931 7.28193 13.4931C7.34522 13.4931 7.39125 13.4931 7.43153 13.4816C7.64442 13.3838 7.81703 13.2054 7.93786 12.9522C8.02417 12.7451 8.11047 12.5322 8.20253 12.3193ZM7.29344 16.8878L6.9252 17.7509H5.61335L6.06214 16.8878H7.29344Z" fill="white"/>
</svg>
