<svg width="24" height="24" viewBox="0 0 24 24" fill="none" xmlns="http://www.w3.org/2000/svg">
<path fill-rule="evenodd" clip-rule="evenodd" d="M16.143 5.99912C16.143 6.22764 16.1007 6.43923 16.0076 6.62543C15.9145 6.81164 15.7706 6.964 15.576 7.06557C15.1866 7.12482 14.8058 7.1756 14.4249 7.22638C14.3318 7.22638 14.2387 7.20947 14.1456 7.18407C14.1879 6.90477 14.2387 6.66778 14.2979 6.49004C14.3572 6.30383 14.4672 6.14301 14.628 6.00759C14.7465 6.00759 14.9327 5.98223 15.1951 5.93145C15.4575 5.88066 15.6521 5.85525 15.7791 5.85525C15.9399 5.85525 16.0669 5.90602 16.143 5.99912ZM22 9.25772C22 8.52983 21.873 7.8527 21.6276 7.21791C21.3821 6.58312 21.0182 6.03297 20.5442 5.56746C20.3242 6.29534 20.1887 7.01478 20.1464 7.74266C20.1041 8.46209 20.0787 9.46928 20.0787 10.7558C20.3072 10.4088 20.4511 9.79095 20.4934 8.89378C20.5358 8.00508 20.5696 7.48878 20.6035 7.35336C21.2552 8.16589 21.5768 9.13075 21.5768 10.248C21.5768 10.4088 21.5768 10.5527 21.5514 10.6627C21.5345 10.7727 21.526 10.8912 21.5176 11.0013C21.3906 11.873 21.0605 12.6517 20.5104 13.3288C20.0449 13.9128 19.4185 14.4291 18.6229 14.8946C17.9458 15.2755 17.1587 15.5971 16.27 15.868C15.5506 16.088 14.7465 16.2827 13.8578 16.452C14.0186 16.5112 14.154 16.5451 14.2471 16.5535C14.3402 16.562 14.4926 16.5704 14.7042 16.5704C14.7804 16.5704 15.0004 16.562 15.3474 16.5366C15.7029 16.5112 15.9822 16.5027 16.1854 16.5027C17.3195 16.5027 18.3352 16.2404 19.2408 15.7071C20.2226 15.1231 20.8997 14.319 21.2721 13.2949C21.5345 12.694 21.7207 12.0677 21.8307 11.416C21.9408 10.7643 22 10.0448 22 9.27461V9.25772ZM18.733 7.62421C18.733 7.18409 18.6822 6.70165 18.5722 6.19382C18.4621 5.68599 18.3267 5.20354 18.1659 4.74649C17.8781 5.33049 17.6242 6.01607 17.4126 6.81166C17.2518 7.4126 17.091 8.1405 16.9471 8.99534C17.2433 8.24206 17.5565 7.48031 17.8612 6.7101C18.022 7.24332 18.132 7.60725 18.1828 7.80192C18.2759 8.20818 18.3267 8.58908 18.3267 8.94456C18.0813 9.23233 17.8019 9.44392 17.4719 9.57088C17.1418 9.69783 16.7778 9.76553 16.38 9.76553C16.2954 9.71475 16.2531 9.65552 16.2531 9.57935C16.2531 9.53703 16.2954 9.45238 16.3716 9.30003C16.4477 9.15614 16.4731 9.03766 16.4477 8.93609C16.4393 8.82606 16.3885 8.76679 16.3039 8.74986C16.2192 8.73293 16.1092 8.70757 15.9822 8.67371C15.4744 8.87685 15.0343 9.07995 14.6619 9.28308C14.1879 9.537 13.7647 9.80786 13.3838 10.0956C12.9437 10.4426 12.5882 10.7897 12.3089 11.1451C11.9873 11.5514 11.7588 11.9831 11.6149 12.4401C11.7588 12.4401 12.2243 12.347 13.0114 12.1523C13.3246 12.0762 13.6039 12.0338 13.8663 12.0338C13.9763 12.0338 14.0525 12.0338 14.0948 12.0508C13.003 12.584 11.9027 13.1087 10.8108 13.6335C10.7262 14.1159 10.5315 14.5306 10.2268 14.8861C9.98138 15.1739 9.64283 15.4447 9.19424 15.6817C8.85569 15.8764 8.44097 16.0541 7.9416 16.2234C7.52687 16.3504 7.11215 16.4774 6.68896 16.6128C7.01058 16.7059 7.33221 16.7651 7.66229 16.7905H8.82184C9.28735 16.7905 9.66822 16.545 9.95599 16.0626C10.1591 15.6394 10.3707 15.2078 10.5823 14.7846C11.5303 14.3275 12.4867 13.8705 13.4431 13.4219C13.9678 13.1341 14.3741 12.8125 14.6619 12.474C15.0089 12.0592 15.2205 11.5683 15.2882 11.0097C15.102 10.9336 14.8819 10.8912 14.6365 10.8912C14.4333 10.8912 14.154 10.9251 13.7901 10.9928C13.6039 11.0182 13.3415 11.0774 13.003 11.1536C13.2061 11.0182 13.5108 10.8066 13.9171 10.5103C14.518 10.121 15.0681 9.89248 15.576 9.81631C15.7199 9.88402 15.796 9.97714 15.8045 10.0956C15.8045 10.2141 15.8045 10.3157 15.8045 10.3918C15.8045 10.5019 15.813 10.595 15.8299 10.6796C15.8468 10.7643 15.8891 10.8404 15.9568 10.9081C16.1007 10.9589 16.2615 10.9843 16.4393 10.9843C16.7017 10.9843 16.9556 10.9251 17.201 10.8066C17.4465 10.6881 17.6919 10.5442 17.9374 10.358C18.2251 9.9856 18.4283 9.57084 18.5468 9.1138C18.6653 8.66522 18.7245 8.16589 18.7245 7.62421H18.733ZM3.98053 7.3872L3.81972 7.79344C3.6843 7.70034 3.57427 7.65806 3.4981 7.67499C3.4727 7.81041 3.43885 8.07278 3.41346 8.45365C3.38807 8.83452 3.33728 9.11382 3.2865 9.29156C3.1934 9.23231 3.05798 9.04609 2.89716 8.74139C2.73635 8.42823 2.55015 8.27589 2.34702 8.27589H2.14388C2.05078 8.21664 2 8.14893 2 8.06429C2 8.00505 2.02539 7.92889 2.06771 7.81886C2.11003 7.70883 2.13542 7.64112 2.13542 7.60727C2.2116 7.57341 2.28777 7.54801 2.35548 7.54801C2.50783 7.54801 2.66018 7.6665 2.81253 7.91195C3.02412 8.2505 3.15108 8.43669 3.17647 8.47901C3.23572 8.19971 3.2865 7.95428 3.32036 7.75961C3.35421 7.56494 3.42192 7.38721 3.51502 7.24333C3.60813 7.24333 3.69276 7.24333 3.76894 7.24333C3.85358 7.24333 3.92975 7.29409 3.99746 7.37873L3.98053 7.3872ZM9.06729 13.9297C9.02497 13.9974 8.97419 14.1752 8.88955 14.4714C8.81337 14.7592 8.71181 14.9623 8.58485 15.0808L6.86669 15.3093C6.84977 15.1231 6.88362 14.9284 6.97673 14.7168C7.06983 14.5052 7.16293 14.3106 7.25603 14.1159C7.86543 13.989 8.46636 13.9297 9.05882 13.9297H9.06729ZM9.63436 8.68219C9.69361 8.79222 9.719 8.91068 9.719 9.02071C9.719 9.19845 9.64283 9.40161 9.49048 9.63013C9.33813 9.85865 9.19424 10.0702 9.05882 10.2649C9.0419 10.1126 9.02497 9.97711 9.00804 9.85862C8.99111 9.74012 8.91494 9.67242 8.77105 9.65549C8.28862 9.79938 7.82311 10.0448 7.39145 10.3834C6.99365 10.6965 6.62124 11.0944 6.27423 11.5768C6.40965 11.5853 6.62124 11.5683 6.90901 11.5091C7.19678 11.4583 7.39992 11.4329 7.50995 11.4329C7.64537 11.4329 7.76386 11.4498 7.87389 11.4921L7.07829 13.0157C6.73974 13.3457 6.23191 13.6674 5.56327 13.9721C4.98773 14.2345 4.42065 14.4883 3.84511 14.7423C3.18493 15.0808 2.69403 15.4617 2.38087 15.8764C2.4909 16.1896 2.66864 16.5027 2.93102 16.8328C3.14261 17.1036 3.42192 17.3914 3.76894 17.7046C4.11595 18.0178 4.47143 18.3309 4.83538 18.661C5.02158 18.8472 5.19932 19.0419 5.37706 19.2535C4.64917 18.7457 3.92129 18.2463 3.1934 17.7384C2.86331 17.4422 2.60939 17.146 2.44012 16.8497C2.22852 16.4943 2.11849 16.1134 2.11849 15.7156C2.11849 15.5887 2.11849 15.4955 2.13542 15.4278C2.22006 14.6999 2.67711 14.1329 3.4981 13.7097C4.19213 13.3881 4.89462 13.0664 5.58866 12.7533C5.7664 11.8392 6.21498 10.9589 6.94287 10.1295C7.28142 9.73167 7.66229 9.38468 8.08548 9.09691C8.50868 8.80914 8.94033 8.59755 9.38891 8.47059L9.63436 8.67371V8.68219Z" fill="white"/>
</svg>
