<svg width="24" height="24" viewBox="0 0 24 24" fill="none" xmlns="http://www.w3.org/2000/svg">
<path fill-rule="evenodd" clip-rule="evenodd" d="M14.6474 6.99419C14.6474 7.27165 14.6012 7.53755 14.4971 7.79188C14.3931 8.04622 14.2428 8.21964 14.0231 8.31213C13.9306 8.26589 13.8382 8.24277 13.7457 8.24277C13.6532 8.24277 13.5376 8.27747 13.3988 8.33527C13.0751 8.474 12.8786 8.54336 12.8208 8.54336C12.6705 8.54336 12.5318 8.4393 12.4277 8.24277C12.5318 7.83814 12.6936 7.53758 12.9133 7.31793C12.9711 7.36417 12.9711 7.43352 12.9133 7.52601C12.8439 7.61849 12.8092 7.68785 12.8092 7.73409C12.8555 7.83814 12.9249 7.89596 13.0173 7.89596C13.2139 7.81504 13.3526 7.78038 13.4335 7.78038C13.526 7.72258 13.6185 7.58382 13.711 7.38729C13.8035 7.19075 13.8844 7.052 13.9653 6.99419L13.8728 7.61851C13.8728 7.61851 13.9422 7.67632 14 7.68788C14.0578 7.69944 14.0925 7.71095 14.1272 7.71095C14.2312 7.71095 14.3353 7.60694 14.4162 7.38729C14.4971 7.16763 14.578 7.04043 14.659 6.99419H14.6474ZM21.0058 18.2081C20.6936 18.5896 20.2775 18.9133 19.7457 19.1561C19.2139 19.3988 18.6705 19.526 18.1156 19.526C17.9653 19.4682 17.8266 19.3989 17.6994 19.3295C17.5723 19.2601 17.5029 19.1676 17.4682 19.0636C17.5954 18.7861 17.7688 18.5202 18.0116 18.2774C18.2543 18.0347 18.5318 17.815 18.8555 17.63C18.7746 17.5029 18.6358 17.4451 18.4393 17.4451C18.3006 17.4451 18.1387 17.4797 17.9538 17.5375C17.9538 17.4335 18.0116 17.3179 18.1156 17.1907C18.2659 17.0636 18.3699 16.9827 18.4162 16.9364H18.7168C18.9364 16.9364 19.0867 16.948 19.1792 16.9711C19.2717 16.9942 19.3642 17.0751 19.4566 17.2139C19.4566 17.4451 19.237 17.711 18.7977 18C18.3584 18.289 18.1387 18.4971 18.1387 18.6012C18.1387 18.7399 18.2775 18.8555 18.5549 18.948C18.9827 18.948 19.3757 18.8901 19.7225 18.7745C20.0694 18.6589 20.4971 18.474 21.0058 18.2081ZM22 3.97687C21.7803 3.97687 21.4798 4.01156 21.0751 4.09248C20.6705 4.17341 20.3699 4.2081 20.1734 4.2081C20.0462 4.48555 19.9191 4.78614 19.7803 5.08672C19.6416 5.39886 19.5145 5.63004 19.3873 5.78033C19.2601 5.86126 19.0058 5.99997 18.6243 6.1965C18.2428 6.39303 17.9884 6.53181 17.8613 6.61274C16.763 7.15609 15.9306 7.99997 15.341 9.15604C14.8324 10.1618 14.578 11.237 14.578 12.3931C14.948 12.1041 15.3295 11.8266 15.7341 11.5838C16.1387 11.341 16.5434 11.1214 16.9595 10.9364C17.4566 10.6937 17.9075 10.5087 18.3237 10.3815C18.7399 10.2544 19.1676 10.1965 19.5954 10.1965C18.1965 11.1561 16.7977 12.1041 15.4104 13.0405C14.9364 13.3989 14.5434 13.7225 14.2312 14.0347C13.8728 14.4046 13.5838 14.8208 13.3526 15.2948C13.1214 15.7688 13.0058 16.3815 13.0058 17.1329C12.7861 17.3179 12.5665 17.4335 12.3468 17.4682C12.1272 17.5029 11.7919 17.526 11.3642 17.526C11.1214 17.422 10.948 17.2832 10.8555 17.1329C10.7168 16.9017 10.6474 16.5549 10.6474 16.0925V15.0058C10.474 14.9133 10.3237 14.867 10.185 14.867C9.87283 14.867 9.53757 15.1098 9.16763 15.6069C8.68208 16.2659 8.3815 16.6474 8.2659 16.7399C7.88439 17.2601 7.43353 17.6994 6.9133 18.0578C6.49711 18.3352 5.95376 18.6127 5.28324 18.8902C4.75145 19.1098 4.19653 19.2948 3.64162 19.4451C3.07514 19.5954 2.53179 19.7457 2 19.8844C2.35838 19.9191 2.75145 19.9422 3.20231 19.9769C3.65318 20.0116 4.03468 20.0231 4.35838 20.0231C5.15607 20.0231 5.89595 19.9422 6.57803 19.7919C7.0289 19.6416 7.49133 19.2717 7.96532 18.7052C8.9711 17.5029 9.64162 16.8208 10 16.6705C10.0462 16.9017 10.0694 17.1561 10.0694 17.4335C10.0694 17.8844 10.0694 18.1734 10.0925 18.3237C10.104 18.474 10.1503 18.6012 10.2081 18.7283C10.4393 18.9595 10.6705 19.1214 10.8902 19.2139C11.1098 19.3063 11.341 19.3526 11.5723 19.3526C11.7919 19.3526 12.0231 19.3063 12.2659 19.2023C12.5087 19.0982 12.763 18.9711 13.0058 18.8208C13.4566 18.5087 13.9191 18.1965 14.4046 17.8728C14.8902 17.5491 15.3295 17.3526 15.7341 17.2948C15.7457 17.237 15.8613 16.9249 16.0809 16.37C16.2197 16.0116 16.289 15.711 16.289 15.4682C15.8613 15.6879 15.3988 15.7919 14.9249 15.7919C14.474 15.7919 14.1387 15.6994 13.9075 15.5144C14.3353 15.1098 15.3064 14.4625 16.7977 13.5492C18.0116 12.8093 18.9133 12.0462 19.4798 11.2832C19.5376 11.1098 19.711 10.8093 19.9884 10.3815C20.3931 9.7457 20.5896 9.24853 20.5896 8.87859C20.5896 8.7283 20.578 8.60113 20.5434 8.50864C19.6647 8.50864 18.5434 8.84391 17.1908 9.52599C16.2312 9.99998 15.6185 10.3006 15.341 10.4046C15.5607 9.86126 15.8844 9.39882 16.3121 9.01731C16.6705 8.70517 17.1214 8.41622 17.6763 8.13876C18.3237 7.8613 18.9711 7.57223 19.6185 7.28321C20.0347 7.08668 20.3931 6.90173 20.6821 6.72832C21.1098 6.46242 21.4335 6.04622 21.6532 5.47974C21.7341 5.28321 21.8497 4.77456 22 3.97687Z" fill="white"/>
</svg>
