<svg width="24" height="24" viewBox="0 0 24 24" fill="none" xmlns="http://www.w3.org/2000/svg">
<path fill-rule="evenodd" clip-rule="evenodd" d="M16.6204 7.82576C16.5891 8.04491 16.5682 8.15972 16.5578 8.17537C16.516 8.29538 16.4326 8.3632 16.3073 8.38929H16.1821C16.0882 8.38929 15.963 8.43102 15.8064 8.50929C15.6499 8.58756 15.5351 8.62932 15.4673 8.62932C15.3733 8.62932 15.2951 8.59278 15.2272 8.51452C15.2272 8.38929 15.2377 8.2745 15.2533 8.16493C15.269 8.05535 15.3055 7.95621 15.3681 7.86228C15.3994 7.88837 15.4307 7.94578 15.4568 8.03971C15.4829 8.13363 15.509 8.191 15.5299 8.21709C15.6968 8.1597 15.7855 8.12317 15.7908 8.11795C15.8429 8.08665 15.8743 8.02405 15.8899 7.93534C15.9056 7.84664 15.9212 7.76836 15.9316 7.69531C15.9421 7.62226 15.9838 7.58052 16.0517 7.56486C16.0517 7.75792 16.1091 7.88838 16.2291 7.96665C16.2865 7.85707 16.3334 7.76837 16.3647 7.70576C16.4378 7.56487 16.5004 7.49184 16.5421 7.49184C16.5943 7.49184 16.6152 7.60661 16.6152 7.83098L16.6204 7.82576ZM12.6861 9.02589C12.6027 9.26069 12.4513 9.45895 12.227 9.62592C12.0078 9.79289 11.7626 9.90767 11.4965 9.97551C11.5382 9.87637 11.6843 9.76159 11.9348 9.63636C12.1852 9.51114 12.2896 9.38589 12.2478 9.26066H11.7208C11.6113 9.26066 11.5226 9.2711 11.46 9.29197C11.3921 9.31284 11.3243 9.35458 11.2617 9.42242C11.2199 9.40676 11.2147 9.36502 11.2512 9.29719C11.2825 9.22936 11.3086 9.18241 11.3243 9.14589C11.4182 9.04675 11.5278 8.97368 11.6582 8.93194C11.7887 8.89019 11.9296 8.86932 12.0757 8.86932C12.3157 8.86932 12.5244 8.92152 12.6914 9.02066L12.6861 9.02589ZM10.432 7.96143C10.3746 8.08665 10.2859 8.20146 10.1764 8.30582C10.0616 8.41018 9.87373 8.52496 9.60762 8.65018C9.43021 8.71802 9.25281 8.78586 9.0754 8.85891C8.89799 8.93196 8.7258 9.02587 8.56927 9.14066C8.64232 8.97369 8.74667 8.83281 8.8719 8.7128C8.99713 8.598 9.15888 8.49366 9.36238 8.39974C9.47717 8.34234 9.6598 8.26927 9.89982 8.18057C10.1398 8.09186 10.3225 8.01882 10.4373 7.96143H10.432ZM21.8017 15.3499C21.9374 14.682 22 14.0454 22 13.4454C22 13.1428 21.9843 12.8453 21.9478 12.5479C21.9165 12.2505 21.8643 11.9687 21.7965 11.7026C21.6556 11.1078 21.4365 10.5495 21.1391 10.0225C20.8416 9.49548 20.492 9.03109 20.0798 8.61888C19.9807 9.16153 19.9024 9.68855 19.8555 10.1947C19.8033 10.706 19.7824 11.2435 19.7824 11.8122C19.7824 12.5479 19.8294 13.2158 19.9181 13.8159H20.0172C20.059 13.6072 20.0851 13.4402 20.1007 13.3097C20.1111 13.1793 20.1216 12.9601 20.1216 12.6523V11.7391C20.1216 11.3739 20.1268 11.0713 20.1424 10.8312C20.1529 10.5912 20.1842 10.3616 20.2259 10.1373C20.659 10.6277 21.0034 11.2122 21.2538 11.8905C21.4626 12.4436 21.6243 13.0958 21.7443 13.8576C21.713 14.1237 21.6504 14.4003 21.5669 14.6925C21.4834 14.9794 21.3791 15.2403 21.2538 15.4751C21.1286 15.7099 20.9721 15.9239 20.7842 16.1221C20.5964 16.3204 20.3668 16.4926 20.0903 16.6439C19.7146 16.8213 19.3493 16.9048 18.9893 16.9048C18.6814 16.9048 18.3893 16.8318 18.1127 16.6909C17.7683 16.4143 17.5283 16.1222 17.3822 15.8091C17.2361 15.496 17.1631 15.1673 17.1631 14.8177C17.1631 14.609 17.1839 14.4107 17.2257 14.2176C17.2674 14.0246 17.3248 13.8106 17.4031 13.5811C17.4553 13.4402 17.7527 12.7566 18.3058 11.5304C18.5145 11.0713 18.6501 10.6904 18.718 10.393C18.8954 9.90248 18.9789 9.38591 18.9789 8.85369C18.9789 8.50931 18.9476 8.16493 18.8797 7.81012C18.8119 7.45531 18.6867 7.09528 18.504 6.73524C18.3214 6.36999 18.0918 6.05169 17.8153 5.77515C17.664 6.3178 17.5492 6.9283 17.4657 7.61184C17.3822 8.29538 17.3405 9.22938 17.3405 10.4243C17.4813 10.0642 17.5857 9.50068 17.6535 8.73366C17.7214 7.96663 17.7735 7.47616 17.8153 7.26744C18.3423 8.02925 18.6032 8.87977 18.6032 9.8242C18.4519 10.3147 18.1753 10.7843 17.7683 11.2226C17.3613 11.6609 16.9335 11.9426 16.4743 12.0679C16.5265 11.9426 16.5891 11.8174 16.6517 11.6922C16.7561 11.4522 16.803 11.2382 16.7874 11.0556C16.6778 11.0713 16.5995 11.1652 16.563 11.3374C16.5213 11.5096 16.4743 11.6191 16.4169 11.6713C16.2186 11.8122 16.0986 11.8957 16.0464 11.9218C15.9108 11.9948 15.7855 12.0366 15.676 12.0366C15.676 12.0261 15.6968 11.9218 15.7386 11.7131C15.7542 11.64 15.7542 11.5774 15.7386 11.5357L15.7282 11.5618C15.6186 11.8122 15.4412 12.0157 15.1959 12.1775C14.9507 12.334 14.6846 12.4175 14.4028 12.4175C14.2932 12.3653 14.2045 12.2818 14.1419 12.167C14.0741 12.0522 14.048 11.9322 14.0689 11.8174C13.9593 11.5983 13.7871 11.4939 13.5419 11.4939C13.474 11.4939 13.4219 11.4939 13.3801 11.5044C12.947 11.6192 12.5244 11.7965 12.107 12.0366C11.6948 12.2766 11.3034 12.5636 10.9277 12.9027C10.5573 13.2419 10.2494 13.6019 9.99896 13.9933C9.75372 14.3794 9.57109 14.802 9.4563 15.2508C9.6911 15.2508 10.2494 15.1777 11.1364 15.0264C11.4808 14.969 11.7939 14.9377 12.0861 14.9377C11.5747 15.4699 11.1834 15.8404 10.9069 16.0386C10.432 16.383 9.96765 16.55 9.51891 16.55C9.46152 16.55 9.40412 16.55 9.34151 16.5448C9.28411 16.5448 9.22672 16.5344 9.1641 16.5239C8.73624 16.3152 8.48578 15.903 8.41273 15.2821C8.31359 14.4472 8.23011 13.9672 8.16228 13.8419C7.92747 14.0246 7.70832 14.3168 7.49961 14.7185C7.21785 15.2455 7.03 15.5638 6.94652 15.6838C6.63866 16.0856 6.28907 16.4248 5.90817 16.6961C5.56379 16.9361 5.16201 17.1501 4.69241 17.3327C4.34281 17.4684 3.89408 17.5988 3.35142 17.7344C2.90269 17.8336 2.44873 17.938 2 18.0475C2.19306 18.0475 2.46961 18.0684 2.84007 18.1101C3.50796 18.1832 3.97235 18.2249 4.22802 18.2249C4.28542 18.2249 4.35325 18.2249 4.43673 18.2197C4.515 18.2197 4.60892 18.2093 4.7185 18.1988C5.13593 18.1571 5.50117 18.0475 5.80903 17.8649C6.11688 17.6875 6.40386 17.437 6.67519 17.1187C6.8839 16.8578 7.10305 16.5396 7.33786 16.1534C7.47352 15.9343 7.66136 15.616 7.90138 15.1882C7.97443 15.6734 8.06314 16.1795 8.15706 16.7118C8.25098 17.244 8.53274 17.5884 8.99191 17.7553C9.14323 17.8075 9.27889 17.8284 9.40412 17.8284C9.64414 17.8284 9.92591 17.7292 10.2442 17.5257C10.4947 17.3483 10.7451 17.1761 10.9956 16.9987C11.1521 16.8005 11.5278 16.4039 12.1122 15.8195C12.947 14.9951 13.4271 14.2907 13.5523 13.7167C13.1349 13.868 12.634 13.9672 12.0548 14.0193C11.4756 14.0715 10.9173 14.1133 10.3851 14.1446C10.8547 13.6437 11.2721 13.2784 11.6478 13.0436C12.1383 12.7357 12.6444 12.5792 13.161 12.5792C13.3175 12.6105 13.4271 12.7306 13.4845 12.934C13.5419 13.1375 13.5993 13.268 13.6462 13.3149C13.8393 13.4715 14.048 13.555 14.2724 13.555C14.815 13.3776 15.3577 13.1949 15.9003 13.0123C15.9682 12.9079 16.0464 12.8245 16.1299 12.7514C16.2186 12.6784 16.3125 12.621 16.4117 12.5792L17.7527 12.1931C17.6588 12.4435 17.5074 12.8401 17.2883 13.3828C17.1057 13.8837 16.9804 14.2802 16.9178 14.5776C16.8552 14.8751 16.8187 15.0681 16.803 15.1673C16.7926 15.2612 16.7822 15.4073 16.7822 15.6004C16.7822 16.1848 16.9178 16.7065 17.1944 17.1657C17.4187 17.4892 17.6901 17.7397 18.0084 17.9066C18.3266 18.0736 18.6762 18.1571 19.0624 18.1571C19.2137 18.1571 19.365 18.1467 19.5111 18.1206C20.0955 17.9797 20.6016 17.6301 21.0243 17.0666C21.4104 16.5657 21.6661 15.9969 21.8017 15.3655V15.3499ZM13.9489 17.0509C13.8758 17.1031 13.7819 17.2492 13.6671 17.4944C13.5523 17.7397 13.4166 17.8545 13.2497 17.8388C13.1662 17.7971 13.0462 17.7345 12.8844 17.6562C12.7279 17.5779 12.587 17.5205 12.4722 17.4892C12.5244 17.2962 12.6027 17.1135 12.7122 16.9361C12.7957 16.8005 12.921 16.6387 13.0879 16.4456C13.3279 16.5448 13.5106 16.623 13.6254 16.67C13.8445 16.7691 13.9489 16.8944 13.9489 17.0457V17.0509ZM6.22124 8.75977L5.80903 9.69898L4.20715 9.81375C4.23846 9.63113 4.30107 9.44852 4.38456 9.27633C4.44195 9.14067 4.53066 8.97891 4.64545 8.78585C4.76024 8.78585 4.94286 8.76498 5.18289 8.72324C5.42291 8.6815 5.61075 8.66063 5.73598 8.66063C5.86121 8.66063 5.94991 8.66584 6.00731 8.68149C6.0647 8.69714 6.13253 8.72325 6.22645 8.76499L6.22124 8.75977ZM6.14819 11.6765C6.14819 11.9583 6.13775 12.2244 6.11688 12.4644C6.09601 12.7044 6.05427 12.9549 5.99165 13.2054C5.92904 13.4558 5.8299 13.6854 5.69945 13.8993C5.56379 14.1133 5.38638 14.2907 5.16201 14.4316C5.0107 14.4837 4.83851 14.5046 4.65067 14.5046C4.46282 14.5046 4.29585 14.4733 4.18628 14.4055C3.93582 14.2072 3.81059 13.9724 3.81059 13.7063C3.96713 13.2054 4.12888 12.7044 4.28542 12.2035C4.52544 11.6452 4.90112 11.2748 5.40203 11.1026C5.57944 11.0765 5.73076 11.1339 5.86642 11.2643C5.94991 11.3478 6.04383 11.4835 6.15341 11.6765H6.14819ZM5.70989 12.7932C5.70989 12.9027 5.65771 12.9914 5.55857 13.0697C5.50639 13.1115 5.42291 13.1636 5.30811 13.2315C5.25072 13.2315 5.1568 13.2471 5.02635 13.2732C4.8959 13.3045 4.81764 13.3149 4.78111 13.3149C4.67154 13.3149 4.58283 13.2784 4.52022 13.2002L4.35847 13.0227C4.53587 12.7149 4.76546 12.4801 5.05766 12.3235C5.08375 12.3131 5.12027 12.3131 5.17245 12.3131C5.28724 12.3131 5.39682 12.3653 5.49596 12.4749C5.5377 12.5166 5.61075 12.621 5.70989 12.7879V12.7932Z" fill="white"/>
</svg>
