<svg width="24" height="24" viewBox="0 0 24 24" fill="none" xmlns="http://www.w3.org/2000/svg">
<path fill-rule="evenodd" clip-rule="evenodd" d="M16.7436 7.08275C16.6988 7.14439 16.6428 7.3013 16.5699 7.55347C16.4634 7.94013 16.3009 8.10265 16.088 8.05221L15.5612 7.81125C15.6397 7.50864 15.6901 7.32932 15.7069 7.28449C15.7798 7.09396 15.875 6.92585 15.9871 6.77454C16.2729 6.84739 16.5251 6.94826 16.738 7.08275H16.7436ZM22 11.1847C22 10.4955 21.8991 9.85664 21.6918 9.26824C21.4844 8.67984 21.165 8.16429 20.7391 7.71598C20.6495 7.86729 20.5878 8.0354 20.5486 8.22033C20.515 8.40525 20.4702 8.6294 20.4253 8.89839C20.4253 9.10573 20.4141 9.42514 20.3973 9.86785C20.3805 10.3049 20.3693 10.6412 20.3693 10.8653C20.3693 11.1175 20.3805 11.3809 20.4085 11.6611C20.4365 11.9413 20.4758 12.1822 20.5318 12.3896V11.9973C20.5318 11.8292 20.543 11.4145 20.5654 10.7589C20.5878 10.1032 20.6439 9.56524 20.7335 9.14495C21.0586 9.66611 21.2939 10.1088 21.4452 10.4787C21.6582 10.9886 21.7702 11.4705 21.7702 11.9188C21.7702 12.143 21.7534 12.3447 21.7142 12.5241C21.5965 13.1629 21.3219 13.7401 20.896 14.2612C20.5262 14.7095 20.0499 15.1242 19.4559 15.4997C18.9291 15.8415 18.3463 16.1217 17.7075 16.3459C17.1583 16.542 16.5531 16.7045 15.8806 16.8278H16.1104C16.2561 16.8278 16.4018 16.8278 16.5475 16.8334C16.6932 16.8334 16.8445 16.839 16.9958 16.839C18.0829 16.839 18.9011 16.7437 19.4559 16.5588C20.2796 16.2786 20.8792 15.7406 21.2435 14.9337C21.4788 14.3845 21.6582 13.7905 21.7927 13.1405C21.9272 12.4904 21.9944 11.8404 21.9944 11.1959L22 11.1847ZM12.2606 9.59886C12.2157 10.0135 12.0476 10.3105 11.7506 10.5011C11.689 10.5011 11.6049 10.5123 11.5097 10.5347C11.4088 10.5571 11.3528 10.5683 11.3359 10.5683C11.2575 10.5683 11.1902 10.5459 11.1454 10.5011C11.0445 10.3666 10.9997 10.2041 10.9997 10.0191C10.9997 9.85103 11.0446 9.6605 11.1286 9.44756C11.2127 9.23462 11.2967 9.03288 11.3752 8.83674C11.3864 8.92641 11.3752 9.03288 11.3472 9.16177C11.2575 9.52041 11.2127 9.71654 11.2127 9.75577C11.2127 9.90707 11.2687 10.036 11.3752 10.148C11.476 10.1817 11.5769 10.1817 11.6834 10.1368C11.7899 10.092 11.8963 10.0248 12.0084 9.92949C11.9972 9.83422 11.9187 9.73335 11.7618 9.63249C11.6049 9.53162 11.5265 9.45316 11.5265 9.40273C11.5265 9.33548 11.5825 9.24582 11.689 9.15056C11.8123 9.18418 11.9356 9.24582 12.0476 9.32428C12.1597 9.40273 12.2326 9.49799 12.2718 9.60447L12.2606 9.59886ZM19.0804 8.20912C19.0356 7.83366 18.9571 7.48062 18.8507 7.14439C18.7442 6.81377 18.6041 6.47194 18.436 6.1189C18.2567 6.4215 18.1166 6.88101 18.0213 7.49183C17.9765 7.82245 17.9092 8.32119 17.8196 8.98244C17.8924 8.66863 17.9653 8.35482 18.0325 8.041C18.0773 7.82806 18.1334 7.65994 18.2062 7.54226C18.223 7.5983 18.3239 7.85047 18.5032 8.29878C18.6265 8.60138 18.6938 8.85916 18.6938 9.0665C18.6938 9.20099 18.6769 9.32428 18.6377 9.43075C18.4584 9.59326 18.3127 9.70534 18.2062 9.76698C18.0381 9.86785 17.87 9.91268 17.7075 9.91268C17.6066 9.91268 17.5113 9.89586 17.4105 9.85664L17.4777 9.48118H17.1303C16.3682 9.72215 15.6621 10.1761 15.0064 10.8373C14.7038 11.1623 14.4461 11.5098 14.2331 11.8852C14.0202 12.2607 13.8969 12.6249 13.8633 12.9724C14.2555 12.8491 14.6926 12.7538 15.1634 12.6978C15.6341 12.6417 16.1048 12.6081 16.5811 12.6081C15.9647 13.0564 15.3427 13.4487 14.7263 13.7793C14.009 14.166 13.3085 14.463 12.6304 14.6815C11.9468 14.8945 11.2631 15.0065 10.5738 15.0065C10.204 15.0065 9.83413 14.9729 9.45307 14.9001C9.07201 14.8272 8.70776 14.7151 8.35472 14.5638C7.76072 14.3061 7.32922 13.9138 7.04903 13.3926C6.82488 12.9724 6.67918 12.4176 6.61754 11.7395C6.58952 11.4145 6.57271 10.8149 6.5615 9.93509C6.55029 9.05529 6.51107 8.42206 6.43822 8.02419L6.02354 8.96563C6.02354 9.01046 6.01233 9.07771 5.99552 9.16737V9.3579C5.99552 9.61007 6.02914 9.99673 6.10199 10.5291C6.17484 11.0559 6.20846 11.4369 6.20846 11.6723C5.9731 11.7507 5.60325 11.8348 5.0933 11.9132C4.58336 11.9917 4.2079 12.0757 3.96133 12.1542C3.52424 12.2102 3.12076 12.4288 2.75091 12.8211C2.38106 13.2133 2.15691 13.628 2.06725 14.0763C2.03362 14.3005 2.01121 14.4518 2.0056 14.5246C2.0056 14.6031 2 14.6815 2 14.76C2 15.2251 2.10087 15.6734 2.30261 16.0993C2.50434 16.5252 2.79014 16.8838 3.15438 17.1696C3.45139 17.405 3.78201 17.517 4.15186 17.517C4.37602 17.517 4.57775 17.4722 4.75707 17.3826C5.30625 17.1472 5.72653 16.6989 6.02354 16.0376C6.1132 15.8415 6.29252 15.2475 6.5615 14.2612C6.72401 14.5863 6.91454 14.8664 7.13309 15.1074C7.35164 15.3484 7.60381 15.5333 7.89521 15.6566C8.26506 15.8247 8.63491 15.948 9.00476 16.0208C9.37461 16.0937 9.75567 16.1273 10.1423 16.1273C10.7532 16.1273 11.3696 16.0432 11.9916 15.8807C12.6136 15.7126 13.2637 15.4604 13.9361 15.1186C14.5189 14.8216 15.1073 14.4742 15.6957 14.0707C16.2225 13.6504 16.7548 13.2301 17.2816 12.8042C17.898 12.2831 18.2679 11.7619 18.3855 11.2296C17.9933 11.3977 17.517 11.4986 16.9622 11.5266C16.4074 11.5546 15.7405 11.5882 14.9728 11.633C15.3651 11.2856 15.6733 11.039 15.8862 10.9046C16.2281 10.6916 16.5699 10.5683 16.9061 10.5403C17.0406 10.5403 17.1135 10.6132 17.1191 10.7532C17.1303 10.8989 17.1751 10.9774 17.2648 10.9998C17.3544 11.0222 17.4441 11.0334 17.5338 11.0334C17.7467 11.0334 17.9709 10.955 18.195 10.8037C18.3631 10.686 18.5424 10.5291 18.733 10.333C18.8675 10.0752 18.9627 9.81181 19.0244 9.54843C19.0804 9.27945 19.114 8.99365 19.114 8.67984C19.114 8.57337 19.114 8.4837 19.1084 8.41086C19.1084 8.33801 19.0972 8.26516 19.086 8.1811L19.0804 8.20912ZM14.7655 17.0071C14.6198 17.2593 14.3844 17.4666 14.0594 17.6347C13.7344 17.8028 13.3925 17.8813 13.0451 17.8813H12.8714C12.7089 17.8477 12.6136 17.7524 12.5744 17.6011C12.6024 17.433 12.6865 17.2649 12.8322 17.108C12.933 17.0015 13.0787 16.8782 13.2749 16.7325C13.2412 16.6653 13.1516 16.626 13.0171 16.626C12.8994 16.626 12.7985 16.6541 12.7089 16.7045L12.6809 16.7325C12.6528 16.6429 12.6977 16.5476 12.8154 16.4411C12.8882 16.3795 12.9498 16.3346 13.0059 16.3066C13.1572 16.2954 13.2749 16.2954 13.3533 16.2954C13.499 16.2954 13.5775 16.3459 13.5943 16.4523C13.5943 16.5756 13.443 16.7605 13.1348 17.0071C12.9891 17.1192 12.9218 17.2144 12.9218 17.2817C12.9218 17.3601 13.0059 17.4386 13.1796 17.5058C13.4374 17.5058 13.712 17.4498 13.9978 17.3433C14.0594 17.3153 14.3172 17.2032 14.7655 17.0071ZM6.17484 11.9917C6.25329 12.3335 6.29812 12.6585 6.29812 12.9724C6.29812 13.3758 6.24769 13.7401 6.15242 14.0595C5.98431 14.7151 5.66489 15.3147 5.19978 15.8639C4.91398 16.0264 4.72345 16.1217 4.63379 16.1609C4.42085 16.2506 4.21351 16.2954 4.01737 16.2954C3.84926 16.2954 3.69235 16.2618 3.55786 16.2002C3.26086 16.0488 3.01429 15.8191 2.81816 15.5221C2.62202 15.2195 2.49314 14.9057 2.4427 14.575C2.41468 14.4686 2.40347 14.3565 2.40347 14.2388C2.40347 13.8634 2.54917 13.5439 2.83497 13.2862C3.20482 12.9724 3.74279 12.7146 4.46007 12.5184C5.41832 12.2607 5.99552 12.0814 6.18044 11.9917H6.17484Z" fill="white"/>
</svg>
