<svg width="24" height="24" viewBox="0 0 24 24" fill="none" xmlns="http://www.w3.org/2000/svg">
<path fill-rule="evenodd" clip-rule="evenodd" d="M21.7227 13.5147C21.4662 14.1317 21.2028 14.5961 20.9463 14.9012C20.7244 15.1577 20.4749 15.3656 20.1768 15.5182C19.7262 15.6499 19.1924 15.7539 18.5685 15.8232C17.9515 15.8994 17.1057 15.9341 16.0451 15.9341C16.7452 15.7885 17.4523 15.6429 18.1664 15.4974C18.9844 15.2825 19.643 15.0121 20.149 14.6724C20.7799 14.2495 21.2305 13.6741 21.5147 12.9601C21.5979 12.7937 21.6672 12.6135 21.7088 12.4194C21.7504 12.2253 21.7712 12.0242 21.7712 11.8162C21.7712 11.435 21.7088 11.0675 21.591 10.7071C21.4731 10.3466 21.3068 10.0069 21.1057 9.688C21.078 9.79891 21.0572 9.96529 21.0433 10.1733C21.0295 10.3882 21.0225 10.5684 21.0225 10.7279V11.4766C21.0225 11.7885 21.0087 12.0311 20.9809 12.2114C20.9532 12.3916 20.8977 12.5511 20.8076 12.6967V11.6013C20.8076 10.915 20.8215 10.3327 20.8423 9.87517C20.8631 9.41763 20.9255 8.92543 21.0156 8.4055C21.3484 8.80758 21.591 9.29285 21.7574 9.84051C21.9168 10.3951 22 10.9774 22 11.5944C22 12.2669 21.9029 12.9046 21.7088 13.5147H21.7227ZM16.1768 9.44536C16.0728 9.44536 15.8232 9.46616 15.4419 9.51468C15.2756 9.53548 15.13 9.54241 15.0052 9.54241C14.8596 9.61173 14.7487 9.73653 14.6655 9.93063C14.6239 10.0277 14.5823 10.2149 14.5269 10.4783C14.6655 10.4783 14.8804 10.4506 15.1716 10.402C15.4627 10.3466 15.6915 10.3258 15.8579 10.3258C15.9411 10.2149 16.0173 10.0693 16.0797 9.89597C16.1213 9.77119 16.156 9.61867 16.1768 9.44536ZM12.9532 9.38297C12.9809 9.48695 12.9948 9.55628 12.9948 9.59094C12.9948 9.6256 12.9948 9.6672 12.9948 9.70879C12.9948 9.85437 12.9671 9.97915 12.9047 10.097C12.87 10.1663 12.8076 10.201 12.7175 10.201C12.6551 10.201 12.5997 10.1941 12.5511 10.1733L12.4541 10.097C12.3917 10.1733 12.3501 10.2357 12.3154 10.2634C12.2253 10.3466 12.1075 10.3812 11.9757 10.3604C11.8648 10.3119 11.8094 10.2218 11.8094 10.0831C11.8094 9.99996 11.8302 9.91677 11.8717 9.83358C11.8856 9.83358 11.8995 9.79892 11.9133 9.73653C11.9272 9.68107 11.9549 9.66026 12.0035 9.67413C11.9896 9.74345 11.9827 9.80585 11.9757 9.86131C11.9757 9.9237 11.9965 9.97222 12.0381 10.0138C12.0797 10.0346 12.1282 10.0415 12.1976 10.0415C12.26 10.0415 12.3016 10.0208 12.3362 9.97223C12.3709 9.9237 12.4055 9.82665 12.4333 9.68107C12.4679 9.52855 12.5095 9.4315 12.565 9.37604C12.5858 9.4107 12.5858 9.4731 12.565 9.56322C12.5511 9.65334 12.5373 9.70879 12.5373 9.72959C12.5373 9.83357 12.5997 9.88903 12.7175 9.88903C12.8076 9.87517 12.8562 9.81278 12.8562 9.70879V9.56322C12.8562 9.4731 12.8908 9.4107 12.9532 9.38297ZM19.4627 9.69492C19.3102 8.71745 18.9497 7.87864 18.3882 7.17847C18.3258 7.33098 18.2981 7.41417 18.2912 7.42803C18.2496 7.55975 18.2288 7.69839 18.2288 7.84397C18.2288 7.92716 18.201 8.39857 18.1386 9.24432C18.1178 9.52855 18.1109 9.81278 18.1109 10.0901C18.1109 10.3674 18.1317 10.61 18.1664 10.8526C18.201 11.0953 18.2634 11.3171 18.3397 11.5112C18.3743 11.2201 18.3951 10.7209 18.409 10.0138C18.4229 9.30671 18.4506 8.78678 18.4991 8.45403C18.6863 8.6828 18.8319 8.95316 18.9359 9.27205C18.9497 9.32057 19.0607 9.82664 19.2617 10.7902C19.2617 11.1923 19.1854 11.5528 19.0329 11.8648C18.8804 12.1767 18.6378 12.4263 18.305 12.6204C18.2357 12.6481 18.1872 12.662 18.1386 12.6759C18.0971 12.6828 18.0485 12.6897 17.9931 12.6897C17.8752 12.6897 17.792 12.6481 17.7504 12.558C17.7088 12.4748 17.688 12.3847 17.688 12.2876C17.688 12.1767 17.7088 12.0727 17.7504 11.9757C17.7504 11.9341 17.7643 11.8994 17.7712 11.8578C17.7712 11.8162 17.7782 11.7747 17.7782 11.74C17.7782 11.5667 17.7158 11.4835 17.591 11.4835C17.0503 11.8925 16.662 12.1837 16.4194 12.357C15.9757 12.6759 15.5667 12.9532 15.1924 13.1819C14.7418 13.4592 14.3189 13.6949 13.9307 13.889C13.3969 14.1386 12.8769 14.3396 12.3501 14.4783C11.8302 14.6169 11.3033 14.6863 10.7695 14.6863C10.2357 14.6863 9.67418 14.61 9.12652 14.4575C8.5026 14.1178 8.10052 13.5216 7.91334 12.6689C7.82322 11.9133 7.72617 11.1507 7.63605 10.3882C7.42114 10.7209 7.31716 11.0814 7.31716 11.4835C7.13691 11.6845 6.94974 11.837 6.7487 11.9549C6.54766 12.0727 6.33969 12.1282 6.11092 12.1282H6.06239C6.06239 12.1282 6.00693 12.1282 5.97227 12.1213C5.86135 12.0589 5.75737 11.9688 5.66724 11.8509C5.57712 11.7331 5.487 11.5459 5.39688 11.2963C5.31369 11.3726 5.25823 11.4627 5.2305 11.5875C5.19584 11.7885 5.16118 11.9826 5.13345 12.1767C5.16811 12.3431 5.31369 12.5788 5.57019 12.8908C5.80589 13.175 5.93068 13.4246 5.93068 13.6395C5.82669 14.0346 5.61178 14.402 5.28596 14.7417C4.96707 15.0745 4.61352 15.2963 4.2253 15.4003C4.12825 15.4211 4.0312 15.428 3.94801 15.428C3.69844 15.428 3.45581 15.3656 3.23397 15.2409C3.01213 15.1161 2.81802 14.9428 2.65165 14.7348C2.40901 14.4228 2.28423 14.1178 2.28423 13.8266C2.28423 13.7019 2.30503 13.584 2.34662 13.4662C2.42288 13.1889 2.66551 12.8214 3.07452 12.3708C3.35182 12.0589 3.53899 11.837 3.63605 11.7123C3.7331 11.5875 3.80936 11.4696 3.87175 11.3656C4.00347 11.1369 4.07279 10.922 4.07279 10.7071C3.9896 10.8804 3.87868 11.0537 3.74003 11.2339C3.60139 11.4142 3.45581 11.5875 3.29636 11.7608C2.81802 12.2877 2.51993 12.6273 2.40901 12.7937C2.13865 13.1889 2 13.5909 2 14C2 14.0623 2 14.1525 2.0208 14.2703C2.0208 14.7001 2.13172 15.0953 2.36049 15.4627C2.58925 15.8232 2.89428 16.0935 3.27556 16.2738C3.46967 16.3431 3.67764 16.3708 3.89948 16.3708C4.39168 16.3708 4.79376 16.2183 5.11265 15.9202C5.52166 15.5459 5.81976 15.0675 6.00693 14.4644C6.12478 14.0831 6.22184 13.5285 6.29809 12.8145C6.53379 12.8145 6.7487 12.7383 6.94974 12.5927C7.15078 12.4471 7.29636 12.2669 7.37262 12.0519C7.49047 12.6273 7.60832 13.2097 7.7331 13.7851C7.89948 14.4506 8.20451 14.9428 8.64818 15.2547C9.0156 15.4003 9.34835 15.4974 9.66031 15.5528C9.97227 15.6083 10.312 15.6291 10.6794 15.6291C11.2686 15.6291 11.8648 15.539 12.4541 15.3587C13.0503 15.1785 13.6326 14.9289 14.201 14.61C14.6724 14.3535 15.1646 14.0277 15.6846 13.6464C16.1282 13.3136 16.5858 12.9532 17.0572 12.5511C17.182 12.4748 17.286 12.4402 17.3622 12.4402C17.4315 12.4402 17.4731 12.4679 17.5009 12.5164C17.5286 12.5649 17.5425 12.6897 17.5425 12.8769C17.5425 13.0987 17.5563 13.2651 17.5841 13.376C17.6118 13.487 17.695 13.5632 17.8267 13.5979C17.9029 13.6117 17.9653 13.6187 17.9931 13.6187C18.1872 13.6187 18.3743 13.5493 18.5615 13.4176C18.6932 13.3275 18.8458 13.1819 19.0191 12.9809C19.3657 12.3015 19.539 11.532 19.539 10.6724C19.539 10.4922 19.539 10.3258 19.5182 10.1594C19.5043 9.99996 19.4835 9.83358 19.4558 9.6672L19.4627 9.69492ZM4.91161 13.1611C4.85615 13.3136 4.80069 13.4523 4.74523 13.5771C4.68977 13.7019 4.61352 13.8266 4.50953 13.9584L3.79549 13.6672C3.81629 13.5286 3.87175 13.376 3.95494 13.2166C3.98267 13.1681 4.05893 13.0364 4.19064 12.8214C4.30849 12.8422 4.43328 12.8838 4.55806 12.9462C4.68284 13.0086 4.80069 13.0779 4.90468 13.1611H4.91161ZM7.37262 15.9826L7.07452 16.7798L5.83362 16.8214C5.83362 16.6967 5.85442 16.5649 5.89601 16.4194C5.93761 16.2738 5.99307 16.1213 6.06239 15.9549C6.2773 15.9133 6.513 15.8925 6.7695 15.8925C6.93587 15.8925 7.05373 15.8925 7.12998 15.9064C7.20624 15.9133 7.2825 15.941 7.37955 15.9826H7.37262Z" fill="white"/>
</svg>
