<svg xmlns="http://www.w3.org/2000/svg" viewBox="0 0 54.54 37.56" width="54.54px" height="37.56px">
  <path d="M 36.54000000000008,8.46000000000015 C 36.430000000000064,8.680000000000177 36.36000000000007,8.820000000000164 36.32000000000005,8.880000000000166 C 36.23848625132359,9.0171580955776 36.09822143149506,9.109437582306953 35.940000000000055,9.130000000000166 L 27.56000000000006,12.390000000000157 C 27.57659297626435,12.024380645853569 27.82755216292577,11.708657798118281 28.180000000000064,11.610000000000184 C 29.27000000000004,11.220000000000198 30.32000000000005,10.840000000000202 31.32000000000005,10.45000000000016 L 36.54000000000008,8.45000000000016 L 36.54000000000008,8.46000000000015 M 34.680000000000064,14.17000000000013 L 34.60000000000008,14.68000000000012 C 34.52180051577403,14.703935813974567 34.43819948422612,14.703935813974567 34.36000000000007,14.68000000000012 L 33.980000000000075,14.560000000000116 C 33.91621788476937,14.557084662728414 33.85314066402606,14.57460611293493 33.80000000000007,14.610000000000127 C 33.63616537650813,14.972150242404382 33.54445288449023,15.362777523221553 33.530000000000086,15.760000000000105 C 33.508033290743924,16.147295330618363 33.43747994405675,16.53029921263453 33.32000000000011,16.90000000000009 C 33.08154319461585,16.552117259009435 32.8804306457032,16.180059043521055 32.720000000000084,15.790000000000077 C 32.603647171288344,15.536965288025897 32.46298607711947,15.295831983736434 32.30000000000007,15.07000000000005 C 32.30000000000007,15.200000000000045 32.25000000000006,15.240000000000066 32.15000000000009,15.210000000000036 L 31.86000000000007,15.120000000000061 C 31.755409222719493,15.064490058447973 31.687077855176426,14.95819682004776 31.680000000000064,14.840000000000089 C 31.769470274589082,14.63386330206339 31.823562416455218,14.414113975732278 31.84000000000009,14.190000000000111 C 31.910000000000082,14.040000000000134 32.000000000000114,13.960000000000093 32.12000000000006,13.960000000000093 C 32.19254633106368,13.963955521485843 32.255889726675946,14.011463068195042 32.280000000000086,14.080000000000098 C 32.527765329099395,14.348764353429658 32.72433462957446,14.66056393349362 32.86000000000007,15.000000000000114 C 33.13000000000005,15.620000000000118 33.280000000000086,16.000000000000114 33.32000000000005,16.000000000000114 Q 33.440000000000055,15.310000000000116 33.56000000000006,14.590000000000089 C 33.62668946268002,14.308407976444926 33.772427523073134,14.051631393847458 33.980000000000075,13.85000000000008 C 34.10648430137536,13.801900326387567 34.24982817568127,13.829019437742772 34.35000000000008,13.920000000000073 C 34.455099327650146,14.009611909510454 34.56528253283449,14.093084034650133 34.680000000000064,14.170000000000073 L 34.680000000000064,14.17000000000013 M 46.54000000000008,12.830000000000155 C 46.030000000000086,11.230000000000132 45.54000000000008,9.620000000000175 45.020000000000095,8.00000000000017 C 44.78475521101154,8.171470164426182 44.609692282968865,8.413057005125097 44.520000000000095,8.690000000000168 C 44.43000000000012,9.00000000000017 44.34000000000009,9.300000000000182 44.260000000000105,9.600000000000193 Q 44.560000000000116,12.390000000000214 44.88000000000011,15.410000000000196 C 45.07821602673596,17.19002210101229 45.185022961475624,18.979038257900868 45.2000000000001,20.77000000000021 C 44.022105276634875,20.714886173344837 42.85759030037798,20.496118909019117 41.74000000000012,20.120000000000232 Q 40.17000000000013,19.620000000000232 39.74000000000012,19.52000000000021 C 39.89426468435454,19.018095102547022 39.96850926328119,18.495008296472577 39.96000000000015,17.970000000000198 C 39.68000000000018,16.390000000000214 39.41000000000014,14.82000000000022 39.14000000000016,13.25000000000017 C 39.14000000000016,13.160000000000196 39.080000000000155,12.970000000000198 39.01000000000016,12.690000000000168 C 38.95005467211297,12.488146967349223 38.9131528577081,12.280154922521604 38.90000000000015,12.070000000000164 C 38.90005278279688,11.890531254397729 38.948418152987585,11.714343120131616 39.040000000000134,11.560000000000173 L 39.90000000000015,12.560000000000173 C 39.73967893182373,11.780716402202415 39.51901378648478,11.015075216102105 39.24000000000012,10.270000000000152 C 38.95339030420672,9.493600176634686 38.619429828604325,8.735509897017266 38.24000000000012,8.00000000000017 C 38.04140562045734,8.182594036904845 37.887427531813216,8.4084285669162 37.790000000000134,8.660000000000196 C 37.67017750798203,8.961169907294277 37.592770233630176,9.277530072036711 37.560000000000116,9.600000000000193 C 37.63000000000011,10.07000000000022 37.99000000000012,12.010000000000218 38.66000000000014,15.400000000000205 C 38.90000000000015,16.650000000000205 39.090000000000146,17.79000000000019 39.22000000000014,18.82000000000022 C 38.61000000000013,18.900000000000205 38.12000000000012,18.950000000000216 37.76000000000016,18.970000000000198 C 37.400000000000205,18.99000000000018 36.76000000000016,18.970000000000198 35.96000000000015,18.970000000000198 C 35.787708449141974,19.23472418376349 35.64992625228763,19.52037020163226 35.550000000000125,19.82000000000022 C 35.45243810064585,20.113550181519997 35.40181440563748,20.42066726457108 35.40000000000015,20.730000000000246 C 36.21855275890954,20.723773577639236 37.03576256833321,20.797456429308625 37.840000000000146,20.950000000000273 C 38.6428420287221,21.10295159971065 39.432061595443145,21.32032139562955 40.20000000000016,21.60000000000025 C 39.40000000000015,22.040000000000248 38.70000000000016,22.380000000000223 38.100000000000136,22.60000000000025 C 37.330000000000155,22.930000000000234 36.560000000000116,23.220000000000255 35.810000000000116,23.460000000000264 C 35.08614253846832,23.691425423663816 34.3478927526088,23.875152745936532 33.600000000000136,24.010000000000275 C 32.812961874121754,24.135302892638492 32.01693130237334,24.195506885459793 31.22000000000014,24.190000000000282 C 30.20409166205394,24.23644772631434 29.21038103044242,23.876407642397112 28.46000000000015,23.190000000000282 C 27.78527706524062,22.45951613348126 27.27389298292161,21.593572420754356 26.96000000000015,20.65000000000026 Q 26.430000000000177,19.070000000000277 25.96000000000015,17.500000000000284 C 25.66569675060572,16.501945275647188 25.227772812780074,15.551987195133108 24.66000000000014,14.680000000000291 C 24.459730829716705,15.033524436915513 24.356235050073337,15.433708118203128 24.360000000000127,15.840000000000316 C 24.36241637079803,16.148505216440356 24.409574739461277,16.455034612751206 24.500000000000114,16.75000000000034 C 24.610387290049857,17.093512216276622 24.747472107906844,17.427865430561894 24.91000000000014,17.75000000000034 Q 25.18000000000012,18.310000000000343 25.480000000000132,18.860000000000355 C 25.820019299110015,19.45940295247044 26.043941976269934,20.11759991260726 26.140000000000157,20.800000000000352 C 25.73266163259126,21.959203769364365 24.960603432933056,22.955860718014037 23.94000000000017,23.640000000000327 C 23.00259956744236,24.274884425870823 21.92501636279411,24.67297248873456 20.800000000000182,24.800000000000352 C 20.49689887908852,24.590276964699285 20.3227432110657,24.238179635870438 20.340000000000202,23.870000000000346 L 20.82000000000022,21.70000000000033 L 20.700000000000216,21.70000000000033 C 20.457915253460612,22.19016109044071 20.263681705029512,22.702535795784797 20.120000000000232,23.230000000000302 C 19.986041908077425,23.735735045869603 19.918804395607765,24.256825767509667 19.920000000000243,24.780000000000314 C 19.910608523695657,25.35796918593428 20.026612373699265,25.931164680069855 20.26000000000022,26.46000000000032 C 20.48156865073213,26.57711142489285 20.72944869112581,26.635638656652475 20.980000000000246,26.630000000000337 C 21.163131578032278,26.642161956356745 21.346868421968225,26.642161956356745 21.530000000000257,26.630000000000337 C 21.738396179702193,26.593387353215576 21.942705656317344,26.536448646617885 22.14000000000027,26.46000000000032 C 23.142214875672778,26.016239341516382 24.0672021585209,25.415335194264685 24.88000000000028,24.680000000000348 C 25.754088806970174,23.88639103368962 26.255245987219098,22.76060316501446 26.260000000000275,21.580000000000325 Q 26.570000000000277,22.390000000000327 26.9200000000003,23.1700000000003 C 27.13577041398281,23.714331538218346 27.447373482454566,24.215606039672934 27.840000000000316,24.65000000000032 C 28.237880076153658,25.158256549543864 28.772010478576192,25.543246644796454 29.380000000000337,25.760000000000332 C 30.022065362449325,25.986746571986828 30.699125311678074,26.098461463609567 31.380000000000337,26.090000000000316 C 31.754190795611237,26.09214537154503 32.12818004037035,26.072110233432966 32.50000000000034,26.030000000000314 C 32.830000000000325,26.030000000000314 33.25000000000034,25.93000000000029 33.76000000000033,25.830000000000325 C 34.47482454889399,25.69957606854723 35.177332011957446,25.50889547142998 35.860000000000355,25.260000000000332 L 39.120000000000346,23.75000000000034 C 40.00430400089027,23.333626583893306 40.924797221088966,22.998901776548337 41.870000000000346,22.75000000000034 C 42.82387242405139,22.527261520145828 43.80047313844784,22.416512985523582 44.78000000000037,22.420000000000357 C 44.880422023384654,22.272509013193996 44.957966464045114,22.11067713703312 45.01000000000039,21.94000000000034 C 45.100000000000364,21.70000000000033 45.21000000000038,21.570000000000334 45.34000000000037,21.54000000000036 C 45.33157073668616,21.663189265964604 45.33157073668616,21.786810734036123 45.34000000000037,21.910000000000366 L 45.34000000000037,22.44000000000034 C 45.34000000000037,22.810000000000343 45.34000000000037,23.170000000000357 45.34000000000037,23.530000000000314 L 45.34000000000037,24.530000000000314 C 45.30850648652546,24.82248740408312 45.30850648652546,25.117512595917503 45.34000000000037,25.41000000000031 C 45.583472530391134,25.22523725039889 45.736474408508855,24.944733807183184 45.76000000000039,24.640000000000327 C 45.76000000000039,24.49000000000035 45.86000000000041,24.100000000000307 45.940000000000396,23.46000000000032 C 46.025256466179144,22.73988078401834 46.065334912623484,22.015128877482823 46.0600000000004,21.290000000000305 C 46.0600000000004,20.290000000000305 45.95000000000039,18.760000000000332 45.74000000000041,16.800000000000296 C 45.53000000000043,14.84000000000026 45.420000000000414,13.38000000000028 45.420000000000414,12.41000000000031 C 45.39130923051778,12.24519061564257 45.4086125858924,12.075617732971239 45.470000000000425,11.9200000000003 C 45.52851691405749,11.773916561936744 45.60583625375875,11.636086434643175 45.70000000000044,11.510000000000275 C 45.80299963739418,11.674511298837729 45.89648628409634,11.844790548188087 45.980000000000416,12.020000000000266 C 46.08493612742086,12.310960126344355 46.28149301676058,12.560166182471505 46.54000000000042,12.730000000000246 L 46.54000000000008,12.830000000000155 M 42.96000000000009,27.19000000000017 C 42.68316162358485,27.698429613142878 42.25737261396023,28.11025832736999 41.740000000000066,28.370000000000175 C 41.24614769488733,28.6345808580557 40.71248433949023,28.81697213141922 40.16000000000008,28.910000000000196 L 39.60000000000008,28.77000000000021 C 39.402345317875756,28.703144215359032 39.24685578464124,28.547654682124517 39.180000000000064,28.350000000000193 C 39.22207274935113,27.98355196862866 39.36779562224888,27.63659274744367 39.60000000000008,27.350000000000193 C 39.8160260989834,27.0734607135887 40.072195857565305,26.830773573879583 40.36000000000007,26.630000000000166 L 40.10000000000008,26.49000000000018 C 39.92231572381269,26.41710414571685 39.732055813688135,26.37973166337099 39.54000000000008,26.380000000000166 C 39.498965459676185,26.308926091293927 39.498965459676185,26.221073908706387 39.54000000000008,26.150000000000148 C 39.665281154990055,26.059721895505845 39.773618513195686,25.947998994856277 39.86000000000007,25.820000000000164 C 40.036524919740486,25.82382328147105 40.2102909201011,25.86470939920298 40.37000000000006,25.94000000000017 L 40.80000000000007,26.120000000000175 C 40.87000000000006,26.430000000000177 40.690000000000055,26.75000000000017 40.280000000000086,27.120000000000175 C 39.87000000000012,27.49000000000018 39.66000000000008,27.680000000000177 39.66000000000008,27.810000000000173 C 39.66000000000008,27.94000000000017 39.79000000000008,28.090000000000146 40.04000000000008,28.25000000000017 L 40.440000000000055,28.25000000000017 C 40.88555544120044,28.24478218717053 41.3250797593779,28.145974394712027 41.730000000000075,27.96000000000015 C 42.17526809325318,27.760308267789128 42.58951327671065,27.497616200230823 42.96000000000009,27.180000000000177 L 42.96000000000009,27.19000000000017 M 30.040000000000077,17.300000000000125 C 30.060369964510187,17.549584892231508 30.060369964510187,17.800415107768742 30.040000000000077,18.050000000000125 C 30.00695823074369,18.219543819222054 29.91478890472979,18.371977704552762 29.780000000000086,18.480000000000132 C 29.615408726747887,18.47772167504303 29.460577423917073,18.40030602362765 29.36000000000007,18.270000000000152 C 29.24532350776758,18.144169282091582 29.18117844048203,17.98024299902852 29.180000000000064,17.810000000000173 C 29.19169644454496,17.434572690996276 29.262569546236477,17.063332634516826 29.390000000000043,16.71000000000015 C 29.53000000000003,16.280000000000143 29.61000000000007,16.050000000000125 29.62000000000006,16.00000000000017 C 29.66407550941733,16.167131056815776 29.66407550941733,16.342868943184556 29.62000000000006,16.51000000000016 C 29.62000000000006,16.73000000000019 29.510000000000048,16.97000000000014 29.460000000000036,17.23000000000019 C 29.45695297930405,17.46595117744164 29.578773746788727,17.686751318507618 29.78000000000003,17.810000000000173 C 29.850000000000023,17.810000000000173 29.890000000000043,17.71000000000015 29.920000000000016,17.550000000000182 C 29.94999999999999,17.390000000000214 30.00999999999999,17.310000000000173 30.100000000000023,17.300000000000182 L 30.040000000000077,17.300000000000125 M 22.380000000000052,11.17000000000013 C 22.460000000000036,11.260000000000105 22.460000000000036,11.390000000000157 22.380000000000052,11.560000000000116 C 22.300000000000068,11.730000000000075 22.250000000000057,11.870000000000118 22.210000000000036,11.990000000000123 C 22.182032458666242,12.0925064238034 22.11335414847582,12.179257973517622 22.02000000000004,12.230000000000132 C 21.93870725674026,12.2853063839583 21.831292743259837,12.2853063839583 21.750000000000057,12.230000000000132 C 21.622187462083502,11.961835555685752 21.5604594367166,11.666912767821486 21.57000000000005,11.370000000000118 C 21.595666639496244,10.9618917117362 21.67294957500411,10.558676396043268 21.800000000000068,10.17000000000013 L 22.07000000000005,9.220000000000141 C 21.990000000000066,9.760000000000161 21.920000000000073,10.290000000000134 21.850000000000023,10.820000000000164 C 21.814308001198924,11.103540052213987 21.918884006061433,11.387389208269326 22.129999999999995,11.580000000000155 L 22.370000000000005,11.190000000000168 L 22.380000000000052,11.17000000000013 M 19.62000000000006,8.790000000000134 C 19.62000000000006,8.96000000000015 19.550000000000068,9.090000000000146 19.52000000000004,9.20000000000016 C 19.49000000000001,9.310000000000173 19.420000000000016,9.320000000000164 19.30000000000001,9.20000000000016 C 19.213538965406315,9.134625897658509 19.114967346590504,9.08703959891983 19.00999999999999,9.060000000000173 C 18.942895497074574,9.031674123534174 18.86710450292543,9.031674123534174 18.80000000000001,9.060000000000173 C 18.601498938373425,9.460961561209729 18.498793527888836,9.902594826293466 18.5,10.350000000000193 C 18.492656028289787,10.79363995116131 18.411546709833374,11.232982092800285 18.25999999999999,11.650000000000205 C 18.025359943997614,11.357950514059723 17.861102502766073,11.015747511494112 17.779999999999973,10.650000000000205 C 17.682509467924262,10.29371294686706 17.527100159618612,9.955866624463567 17.319999999999993,9.650000000000205 C 17.319999999999993,9.850000000000193 17.319999999999993,9.950000000000216 17.120000000000005,9.950000000000216 C 17.03366834874157,9.960771556968837 16.946331651258447,9.960771556968837 16.860000000000014,9.950000000000216 C 16.73359084805702,9.870001214644844 16.657686678402058,9.729578500783134 16.660000000000025,9.580000000000211 C 16.673711959388754,9.418834085592607 16.710766101161482,9.260511843472727 16.77000000000004,9.110000000000184 C 16.840000000000032,8.900000000000205 16.890000000000043,8.77000000000021 16.900000000000034,8.730000000000189 L 17.12000000000006,8.49000000000018 C 17.34174243782121,8.695648980312626 17.524664861490066,8.939545545204396 17.660000000000082,9.210000000000207 C 17.86000000000007,9.710000000000207 18.06000000000006,10.210000000000207 18.260000000000105,10.670000000000186 C 18.330000000000098,10.050000000000182 18.38000000000011,9.670000000000186 18.42000000000013,9.440000000000168 C 18.493872037988353,9.063747731300907 18.674410169607313,8.716559016649057 18.94000000000011,8.440000000000168 C 19.2167193361783,8.352663698969593 19.517385343188494,8.498575143548067 19.62000000000012,8.770000000000152 L 19.62000000000006,8.790000000000134 M 22.180000000000064,15.790000000000134 C 22.230000000000075,15.850000000000136 22.230000000000075,15.95000000000016 22.180000000000064,16.080000000000155 C 22.13198847596442,16.170127283705085 22.101450850137667,16.268526300257975 22.09000000000009,16.370000000000175 C 21.660000000000082,16.2800000000002 21.430000000000064,16.620000000000175 21.38000000000011,17.370000000000175 C 21.409624601103758,17.84128960801496 21.309297448441214,18.311789358432463 21.09000000000009,18.73000000000019 C 20.95404251138092,18.46053157184366 20.833840328994143,18.183398762451986 20.730000000000075,17.900000000000205 C 20.60000000000008,17.54000000000019 20.450000000000102,17.370000000000232 20.290000000000077,17.390000000000214 L 19.87000000000006,17.390000000000214 C 19.729293259172152,17.36664526254725 19.613116561149866,17.265958790927925 19.57000000000005,17.130000000000223 Q 19.57000000000005,16.83000000000021 19.660000000000025,16.500000000000227 C 19.67646503433616,16.303106069826526 19.774393299578946,16.12175743048806 19.930000000000007,16.000000000000227 C 20.293068944465233,16.074135560725495 20.586323458086554,16.344238402218764 20.689999999999998,16.700000000000216 C 20.839999999999975,17.05000000000024 20.980000000000018,17.400000000000205 21.129999999999995,17.700000000000216 C 21.129999999999995,17.33000000000021 21.21999999999997,16.940000000000225 21.279999999999973,16.55000000000024 C 21.32162266886354,16.188646278627232 21.455987291258054,15.844121605820703 21.66999999999996,15.550000000000239 C 21.85708454973195,15.537342275110518 22.04239171502445,15.594359864431283 22.18999999999994,15.710000000000264 L 22.180000000000064,15.790000000000134 M 26.540000000000077,27.540000000000134 C 26.545398670398583,27.952827341025284 26.441911080526836,28.359878527854335 26.240000000000066,28.72000000000014 C 26.11225896866631,28.789279725383835 25.957741031333796,28.789279725383835 25.83000000000004,28.72000000000014 C 25.69878019134353,28.641971415819683 25.602164277895326,28.51672856505354 25.56000000000006,28.37000000000012 C 25.576553295968097,27.88321737988383 25.66414640274519,27.401455292609683 25.82000000000005,26.94000000000011 C 26.07000000000005,26.12000000000012 26.210000000000036,25.66000000000014 26.240000000000066,25.550000000000125 C 26.246645363325285,25.633200798075507 26.246645363325285,25.716799201924744 26.240000000000066,25.800000000000125 C 26.21908321904391,26.09347433832346 26.158532781933673,26.38277087118371 26.06000000000006,26.66000000000014 C 25.964064410183312,26.927632763432655 25.903550471369726,27.206669259073067 25.880000000000052,27.490000000000123 C 25.864020248944428,27.738777900957814 25.968237595753976,27.980711027480027 26.160000000000025,28.1400000000001 C 26.230000000000018,28.1400000000001 26.29000000000002,28.010000000000105 26.350000000000023,27.85000000000008 C 26.379352639339288,27.73972971680888 26.43812049352988,27.63947867142491 26.52000000000004,27.56000000000006 L 26.540000000000077,27.540000000000134 M 9.740000000000066,11.45000000000016 C 9.807582106234975,11.84586492292317 9.697795599574647,12.25207499756624 9.440000000000055,12.560000000000173 C 9.306121683796619,12.556453456007205 9.176674743020442,12.510972098437207 9.07000000000005,12.430000000000177 C 8.960524269033385,12.343018966682905 8.897616860376672,12.209803277762774 8.900000000000034,12.070000000000164 C 8.900000000000034,11.96000000000015 8.900000000000034,11.810000000000173 8.900000000000034,11.610000000000184 C 8.9027210336223,11.272636269943575 8.946373761765528,10.936846053457202 9.03000000000003,10.610000000000184 C 9.117337169295297,10.26443214154557 9.241376106572602,9.929191770525904 9.400000000000034,9.610000000000184 C 9.38121958221518,9.888131714130225 9.330896543614415,10.163230991814544 9.250000000000057,10.430000000000177 C 9.17041171318317,10.690259628335298 9.120100443307251,10.958586401006983 9.10000000000008,11.230000000000189 C 9.093121896685716,11.497710486051858 9.194062946658335,11.75727318598149 9.380000000000052,11.950000000000216 C 9.500000000000057,11.950000000000216 9.60000000000008,11.82000000000022 9.680000000000064,11.580000000000211 L 9.760000000000048,11.510000000000218 L 9.740000000000066,11.45000000000016 M 18.540000000000077,24.26000000000016 C 18.461550282343524,24.688632309170487 18.283409301541553,25.092875304067263 18.020000000000095,25.44000000000017 C 17.777051642864933,25.77510642956554 17.42232690678094,26.012772002741826 17.020000000000095,26.110000000000184 C 16.91402599048172,26.127177134297938 16.80597400951848,26.127177134297938 16.700000000000102,26.110000000000184 C 16.37057307016761,26.092229292385298 16.061217795978166,25.944745963992602 15.840000000000089,25.70000000000016 C 15.575366901000734,25.43298969963587 15.340644603522207,25.137910239948553 15.1400000000001,24.820000000000164 C 15.010000000000105,24.48000000000019 14.8900000000001,24.130000000000166 14.780000000000086,23.820000000000164 C 14.590000000000089,23.23000000000019 14.410000000000082,22.650000000000148 14.240000000000066,22.060000000000173 C 14.216380079508781,23.05190895293049 13.781433456667855,23.99066874722888 13.040000000000077,24.650000000000148 C 12.354571832520605,25.274119726172103 11.587556775725375,25.802283603000433 10.760000000000105,26.22000000000014 C 10.497951623114602,26.311903669624257 10.230845940960023,26.388696553243676 9.960000000000093,26.45000000000016 C 9.719118513972091,26.519884378242807 9.470621839726107,26.560181136228664 9.220000000000084,26.570000000000164 C 8.890671394209278,26.579421527742 8.569458703943837,26.46521257120321 8.320000000000107,26.25000000000017 C 8.204368470147017,26.044643320815112 8.123285234552725,25.821664422930837 8.080000000000098,25.590000000000146 C 8.030856618984558,25.35640958212764 8.004068973043957,25.118669224404698 8.000000000000114,24.880000000000166 C 8.023273221625118,24.24839430252655 8.144729484658228,23.624244061939635 8.360000000000127,23.030000000000143 L 8.720000000000141,22.030000000000143 C 8.713625911107101,22.235482677476398 8.686827225927459,22.439822651971042 8.640000000000157,22.640000000000157 C 8.531882946423252,23.032834704211098 8.458269975857263,23.434359998207242 8.42000000000013,23.840000000000146 C 8.417056068639965,24.036557690102086 8.458057227547215,24.23131319491148 8.540000000000134,24.41000000000014 C 8.628559174184772,24.576680574664067 8.76899994147476,24.710099303589573 8.940000000000111,24.790000000000134 C 10.019851128850405,24.77885731636775 11.069433486740422,24.42899653040439 11.940000000000111,23.790000000000134 C 12.872780437245126,23.146589596672072 13.604479255574176,22.25190573350193 14.050000000000125,21.21000000000015 C 14.01999738236259,20.51164773699469 13.835561371247366,19.828551399530966 13.510000000000105,19.21000000000015 L 12.950000000000102,18.100000000000136 Q 12.710000000000093,17.530000000000143 12.590000000000089,17.100000000000136 C 12.506783698081506,16.827896981586434 12.466301195314088,16.54451946221451 12.470000000000084,16.26000000000016 C 12.474294292259742,15.821104884023669 12.591391194142545,15.390601568278043 12.81000000000006,15.010000000000161 C 13.354781882629197,15.997526940351122 13.7842686887833,17.04440103035182 14.090000000000032,18.130000000000166 Q 15.490000000000009,22.850000000000193 15.830000000000041,23.54000000000019 C 16.07840301155659,23.932010121821804 16.506128400223076,24.175888632903593 16.970000000000027,24.19000000000017 L 17.230000000000018,24.19000000000017 L 17.640000000000043,23.97000000000014 C 17.77030261532059,23.890670353555947 17.882689174933716,23.785095100585977 17.970000000000027,23.66000000000014 C 17.730000000000018,23.100000000000136 17.5,22.550000000000125 17.27000000000004,21.990000000000123 L 17.610000000000014,20.560000000000116 C 17.95175208680257,20.850826506960857 18.204784536000375,21.23210827972474 18.340000000000032,21.66000000000014 C 18.523364462848804,22.159446845329228 18.61484119885978,22.687979097836887 18.610000000000014,23.22000000000014 C 18.609867528420693,23.555822051305086 18.57636956771995,23.890801658309215 18.50999999999999,24.22000000000014 L 18.540000000000077,24.26000000000016 M 19.12000000000006,28.26000000000016 L 18.400000000000034,29.560000000000173 C 17.910000000000025,29.23000000000019 17.400000000000034,28.920000000000186 16.920000000000016,28.560000000000173 L 15.920000000000016,29.560000000000173 C 15.640000000000043,29.390000000000157 15.420000000000016,29.270000000000152 15.259999999999991,29.19000000000017 C 14.949999999999989,29.020000000000152 14.800000000000011,28.850000000000193 14.800000000000011,28.680000000000177 C 14.800000000000011,28.51000000000016 15.009999999999991,28.380000000000166 15.28000000000003,27.96000000000015 C 15.397303558924932,27.729848944180958 15.609182322009246,27.561807166562403 15.860000000000014,27.50000000000017 L 17.160000000000025,28.100000000000193 L 17.980000000000018,27.29000000000019 L 19.12000000000006,28.26000000000016" fill="#000000" fill-rule="evenodd" />
</svg>
